<svg xmlns="http://www.w3.org/2000/svg" width="35.477" height="46.197" viewBox="0 0 35.477 46.197">
  <style>
    path { fill: #003f70; }
  </style>
  <g id="Group_344" data-name="Group 344" transform="translate(-322.342 -861.727)">
    <circle id="Ellipse_2" data-name="Ellipse 2" cx="2.104" cy="2.104" r="2.104" transform="translate(341.861 869.998)" fill="#fff"/>
    <path id="Path_274" data-name="Path 274" d="M351.086,863.61a10.824,10.824,0,0,0-3.924-1.65,15.369,15.369,0,0,0-2.673-.233c-5.62.019-9.665,0-15.286.013a6.674,6.674,0,0,0-6.763,6.4c-.114,4.2-.093,18.078-.1,21.444a.09.09,0,0,0,.163.052c1.714-2.369,5.758-3.978,6.5-4.259a.035.035,0,0,1,.039.055c-.77.984-6.94,9.12-6.58,16.711l.02.3a6.275,6.275,0,0,0,3.163,4.468,6.847,6.847,0,0,0,10.421-5.955c.012-1.993.024-9.278-.01-11.27-.01-.576.16-.722.723-.716,2.954.035,4.334.04,7.289.033a13.4,13.4,0,0,0,10.725-5.059,12.745,12.745,0,0,0,3.026-8.294A13.321,13.321,0,0,0,351.086,863.61Zm-14.545,18.024c-3.259,2.916-5.142,2.926-5.821,2.785a.475.475,0,0,1-.238-.14.466.466,0,0,1-.12-.274c-.066-.7.16-2.568,3.364-5.488a.1.1,0,0,1,.146.007l2.677,2.964A.1.1,0,0,1,336.541,881.634Zm10.941-7.473a51.809,51.809,0,0,1-5.962,4.875.288.288,0,0,0-.117.309l.473,1.988a.328.328,0,0,1-.077.3l-2.414,2.648a.079.079,0,0,1-.136-.037,13.837,13.837,0,0,0-7.841-8.685.079.079,0,0,1-.024-.139l2.881-2.132a.326.326,0,0,1,.3-.045l1.93.673a.29.29,0,0,0,.32-.086,51.8,51.8,0,0,1,5.457-5.434,7.418,7.418,0,0,1,6.408-1.686,1.4,1.4,0,0,1,1.13,1.253A7.424,7.424,0,0,1,347.482,874.161Z" fill="#fff"/>
  </g>
</svg>
