<?xml version="1.0" encoding="utf-8"?>
<!-- Generator: Adobe Illustrator 23.0.3, SVG Export Plug-In . SVG Version: 6.00 Build 0)  -->
<svg version="1.1" id="Layer_1" xmlns="http://www.w3.org/2000/svg" xmlns:xlink="http://www.w3.org/1999/xlink" x="0px" y="0px"
	 viewBox="0 0 44.1 77.9" style="enable-background:new 0 0 44.1 77.9;" xml:space="preserve">
<style type="text/css">
	.st0{fill-rule:evenodd;clip-rule:evenodd;fill:#0067B1;}
</style>
<g>
	<polygon class="st0" points="6.7,33.7 7.5,33.8 7.8,33.8 7.8,33.3 7.9,33 8.1,32.5 8.9,31.1 9.2,30.5 9,30.3 8.6,30.1 8.2,30
		7.2,30 6.7,30.2 6.1,30.5 5.1,31.3 3.6,32.6 5.1,33.2 	"/>
	<polygon class="st0" points="30.8,62.7 24.4,63.5 18,63.7 11.9,63.3 7.7,62.4 5,61.4 3.9,62.4 3.8,62.6 3.8,62.7 4.6,62.9 4.9,63
		5.3,63.2 5.6,63.4 7.9,63.8 13.7,64.6 19.5,64.9 25.3,64.8 31,64 36.5,62.6 41.8,60.5 36.7,61.7 	"/>
	<path class="st0" d="M1.6,33L1.6,33L1.6,33L1.6,33l3.9-3.1l2.3-1.8l0.1,0.2L8,28.4l0.2,0.3L8.5,29l0.3,0.2l0.6,0.2l0.3,0.1l0.7,0.1
		h0.4l0.7-0.1l0.5-0.2l0.4-0.2l0.1-0.1l0.1-0.2l0.1-0.1h-0.3l-0.8-0.1l-1-0.2L9.8,28l-0.6-0.4L9,27.4l-0.2-0.2L8.7,27v-0.5l0.1-0.1
		l3.2,1.3l2.1,0.4l1.7,0.2h0.5l1-0.1l1.2-0.4l1-0.5l1.1-0.8l1.6-1.6l0.2,0.4l0.1,0.2v0.3l0.1,0.4l-0.2,0.5l-0.1,0.2l0,0l-0.2,0.5
		l-0.8,0.9l-1.2,1.4L19,31.2l-1.8,2.5l-2.1,2.4l-4.3,4.8l-4.4,4.7l-1,2.2l-0.6,2L4.6,51v1.2l0.1,1.2l0.3,1l0.5,1.1L6,56.4l1.2,1.3
		l1.4,1.2l2.3,1.4l2.8,1.1l0,0l1.6,0.2l3.9,0.3h2.3l3.4-0.4l3-0.5l2.7-0.7l0.2-0.1l1.4-0.3l2.9-1.1l1.9-1l1-0.8l0.1-0.6v-1.5
		L38,53.7l-0.3-1.4l-0.2,0.2l-0.1,0.3v2.7l-0.1,0.4L37.2,56L37,56.2l-0.1,0.1l-0.3,0.1l-0.3,0.1l-0.1-0.4L36,53.9v-2.4l0.1-2.4
		l-0.4,0.5l-0.5,0.9l-0.3,0.6l-0.4,1.4l-0.5,3l-0.2,1.2l-0.1,0.2l-0.2,0.3h-0.1l-0.1,0.1H33l-0.2-0.4l-0.6-1l-0.4-1.1l-0.2-1.1v-1.6
		l0.1-1.1l0.5-2l0.6-1.9l0.9-1.6L30,49l-1.4,2.4l-2.2,4.1v-0.8l0.2-1.4l0.4-1.4l0.5-1.4l0.9-1.5l2-2.8l1.3-1.9l0.9-0.9l1.9-1.7
		l0.8-0.8l0.4-0.6l0.3-0.6l0.1-0.6l-1.5,1.2l-3,2.8l-4.2,4.2l-2,2l0.4-1.8l0.7-1.7l1-1.5l1.9-2.2l3.7-3.2l2.7-2.5l1.5-1.9l-4.4,3.8
		l-5.6,4.5L24,45.3l-0.2,0.1l0.6-1.6l1-1.9l1.8-2.5l1.1-1l2-1.4l3.8-2.3l2.1-1.4l1.4-1.4l0.9-1.2l0.8-1.4l-1.1,1l-2,1.6l-2.5,1.6
		L30,35.8l-2.3,1.8l-2.2,2.2l-0.1-0.1h-0.1l-0.2-0.1L25,39.4v-0.1l-0.1-0.1l0.1-0.3v-0.2l0.4-1.2l0.1-0.2l-0.1-0.2v-0.2L26,36l1-1.2
		l0.7-0.7l1.3-0.8l2.2-1.2l3.2-1.7l1.7-1.1l1.1-1.1l1.7-2.1l0.7-1l0.3-0.7L40,24v-0.6L39.9,23l-0.3,0.9l-0.5,0.8l-0.6,0.7l-1.1,1
		l-1.7,1l-2.4,1.1l-3.1,1.3l-1.8,0.9L27.9,31l0.2-0.4l0.3-0.5l0.7-0.7l1.3-1.1l2.2-1.2l3.9-2l1.4-1l0.7-0.7l0.6-0.9l0.2-0.4l0.1-0.5
		v-1.1l-0.1-0.6L39,18.6l-1.2,2.6L36.7,23l-1,1.2l-2.5,2l-0.5,0.3h-0.2l0.1-0.4l0.2-0.5l2.1-3l1.6-2.5L37,19l0.4-1.5l0.2-0.7v-0.5
		l-0.1-0.4l-0.1-0.3l-0.2-0.2v0.1l-0.5,1L35,19.6l-1.7,2.5l-1.6,2.1l-1,1.2l-0.5,0.2l-0.1,0.1h-0.2l-0.1-0.1l-0.1-0.2l0.1-0.3
		l0.2-0.8l0.4-0.8l0.9-1.5l2.1-2.6l1.4-1.8l0.6-1.2l0.2-0.7l0.2-0.8l-0.1-0.8l-0.2-0.8l-0.3,0.8l-1.1,1.7l-1.6,2.3l-1.6,2.2
		l-0.2-0.4v-0.5L30.6,19l0.1-0.5l0.2-0.9l0.6-1.3l1.2-2.2l0.4-1l0.1-0.5l0.1-0.8l-0.1-0.4v-0.2L33,11l-0.1-0.1h-0.4v0.2l-0.8,1.8
		l-1.1,2.4L30,16.8l-0.2,1v1l-0.4-0.4l-0.2-0.6l-0.1-0.5L29,16.7l0.1-0.5l0.4-1.6l1.1-2.9l0.4-1.3l0.1-1.2l-3.3,7.1L27.6,16
		l-0.3-0.5l-0.2-0.6v-1.1l0.2-0.9l0.7-1.7l0.6-1.7l0.1-0.8V8.1l-0.1-0.5l-0.1-0.3l-0.3,0.3l-0.1,0.1l-0.8,1.2L27,9.3l-0.2,0.1
		l-0.1,0.1l-0.3,0.1l-0.2-0.2l-0.1-0.3L26,8.8V8.6l0.1-0.4l0.4-0.6l0.4-0.9L27,6.4l0.1-0.3V5.6L27,5.3L21.9,0l0.8,1.1l0.8,1.1
		l0.6,1.4l0.4,1.3l0.3,1.4L25,7.6l-2.7-3.8l-1-1.2l-0.4-0.3V3l-0.3,1.4l-0.1,0.4v0.3l0.1,0.3l0.1,0.2v0.2L20.6,6v0.1l-0.1,0.1
		l-0.1,0.1l-0.2,0.1L20,6.5l-0.9,0.3l-0.3,0.1L18.7,7l-0.1,0.1l-0.1,0.1l0.4-0.1l1.2-0.3h0.4l0.4,0.1L21.1,7l0.3,0.1l0.2,0.2
		l-0.3,0.2l-0.6,0.2l0,0L20,7.9l-2.2,0.5l-1.3,0.3l-1.1,0.5l-0.3,0.3H15l-1.3,1.2L11.6,13l-1.9,2.6l-2.6,3.7l-2,2.5l-2.3,2.3
		l-2.1,1.5l-0.2,0.3l-0.2,0.4l-0.2,0.5L0,27.3V28l0.1,0.7l0.5,1.1l0.7,1.8l0.3,0.9V33z M16.7,15.8l-0.4-0.1h-0.5l-0.2,0.1L15.4,16
		l-0.8,0.7l-0.2,0.2H14l0.8-1.3l0.8-1.3l0.5-0.6l0.2-0.2l3,0.5l0.1,0.1v0.5h-0.1L19,14.7l-0.4-0.1l-1.2-0.2l-0.3,0.9L17,15.7
		L16.7,15.8L16.7,15.8z"/>
	<polygon class="st0" points="34.7,64.3 27.9,65.3 23.6,65.8 19,66 14,65.8 9.5,65.3 6.7,64.8 5,64.3 3.6,63.7 2.9,63.3 2.9,63.4
		2.8,63.6 2.7,63.7 2.6,63.8 2.2,63.8 2,63.9 1.9,63.9 1.8,64.1 3.3,64.9 5.3,65.7 10.2,66.7 17.4,67.2 19,67.2 26.9,66.9
		34.4,65.8 40.8,64.2 43.7,63.1 41.8,63.3 	"/>
	<polygon class="st0" points="42.7,67 40.5,67.4 38.2,67.7 36.8,67.8 31.4,68.1 26,68.3 20.6,68.4 15,68.2 9.9,68 7.1,67.8
		4.3,67.4 1.6,66.9 1.5,67.5 1.5,68.7 1.6,70.2 1.8,71.7 2,72 2.4,72.2 2.9,72.5 3.8,72.8 4.5,73.1 4.7,73.2 4.8,73.3 4.8,73.4
		4.7,73.5 4.6,73.6 4.4,73.6 4.3,73.7 3,73.7 2.3,73.6 1.7,73.4 1.7,74.2 1.9,74.7 2,74.9 2.3,75.2 2.7,75.4 2.8,75.5 3.4,75.7
		4.2,75.9 6.8,76.4 10,76.8 17.1,77.5 21.1,77.8 25.2,77.9 28.4,77.8 32.4,77.5 35,77 37.3,76.5 38.8,76 39.8,75.5 40.5,75.2
		41,74.7 41.3,74.4 41,74.2 40.6,74.1 40.3,74 40,74 39.3,73.9 37.7,74.1 37.2,74.1 36.7,74 36.4,73.9 36.2,73.9 35.9,73.7
		37.6,73.5 39,73.3 40.2,72.9 41.6,72.4 43.3,71.7 41.8,71.9 39.7,72.3 37.4,72.3 36.6,72.2 38.9,71.7 41.2,71.2 42.7,70.7
		43.7,70.2 43.8,69.3 43.9,67.8 44.1,66.7 	"/>
</g>
</svg>
