<svg xmlns="http://www.w3.org/2000/svg" xmlns:xlink="http://www.w3.org/1999/xlink" id="carriers" x="0" y="0" enable-background="new 0 0 44.3 43.8" version="1.1" viewBox="0 0 44.3 43.8" xml:space="preserve"><style type="text/css">.st0{fill:none;stroke:#999;stroke-width:2;stroke-linecap:square;stroke-miterlimit:10}</style><g id="Group_837" transform="translate(0.863 1)"><g id="_13" transform="translate(0.138 0)"><path id="Path_527" d="M30.9,17.2v24.7h11.3V13.4H31.1" class="st0"/><path id="Path_528" d="M25.8,6.3h5.1v35.6H11.3V6.3h5" class="st0"/><line id="Line_396" x1="34.8" x2="38.4" y1="21.9" y2="21.9" class="st0"/><line id="Line_397" x1="16.2" x2="18.4" y1="14.5" y2="14.5" class="st0"/><line id="Line_398" x1="16.2" x2="18.4" y1="18.2" y2="18.2" class="st0"/><line id="Line_399" x1="16.2" x2="18.4" y1="22" y2="22" class="st0"/><line id="Line_400" x1="16.2" x2="18.4" y1="25.7" y2="25.7" class="st0"/><line id="Line_401" x1="16.2" x2="18.4" y1="29.5" y2="29.5" class="st0"/><line id="Line_402" x1="23.9" x2="26.1" y1="14.5" y2="14.5" class="st0"/><line id="Line_403" x1="23.9" x2="26.1" y1="18.2" y2="18.2" class="st0"/><line id="Line_404" x1="23.9" x2="26.1" y1="22" y2="22" class="st0"/><line id="Line_405" x1="23.9" x2="26.1" y1="25.7" y2="25.7" class="st0"/><line id="Line_406" x1="23.9" x2="26.1" y1="29.5" y2="29.5" class="st0"/><line id="Line_407" x1="34.8" x2="38.4" y1="26" y2="26" class="st0"/><line id="Line_408" x1="34.8" x2="38.4" y1="22" y2="22" class="st0"/><line id="Line_409" x1="34.8" x2="38.4" y1="17.9" y2="17.9" class="st0"/><line id="Line_410" x1="34.8" x2="38.4" y1="30.2" y2="30.2" class="st0"/><line id="Line_411" x1="34.8" x2="38.4" y1="34.4" y2="34.4" class="st0"/><path id="Path_529" d="M11.3,17.2v24.7H0V19.3l11-6.9" class="st0"/><line id="Line_412" x1="7.5" x2="3.8" y1="21.9" y2="21.9" class="st0"/><line id="Line_413" x1="7.5" x2="3.8" y1="26" y2="26" class="st0"/><line id="Line_414" x1="7.5" x2="3.8" y1="30.2" y2="30.2" class="st0"/><line id="Line_415" x1="7.5" x2="3.8" y1="34.4" y2="34.4" class="st0"/><path id="Path_530" d="M24.1,39.2v-5h-5.9v5" class="st0"/><line id="Line_416" x1="21.1" x2="21.1" y1="2.9" y2=".1" class="st0"/><rect id="Rectangle_1298" width="8.9" height="3" x="16.7" y="3.3" class="st0"/><line id="Line_417" x1="36.6" x2="36.6" y1="13.4" y2="11.3" class="st0"/></g></g></svg>