<?xml version="1.0" encoding="utf-8"?>
<!-- Generator: Adobe Illustrator 23.0.4, SVG Export Plug-In . SVG Version: 6.00 Build 0)  -->
<svg version="1.1" id="carriers" xmlns="http://www.w3.org/2000/svg" xmlns:xlink="http://www.w3.org/1999/xlink" x="0px" y="0px"
	 viewBox="0 0 44.3 43.8" style="enable-background:new 0 0 44.3 43.8;" xml:space="preserve">
<style type="text/css">
	.st0{fill:none;stroke:#999999;stroke-width:2;stroke-linecap:square;stroke-miterlimit:10;}
</style>
<g id="Group_837" transform="translate(0.863 1)">
	<g id="_13" transform="translate(0.138 0)">
		<path id="Path_527" class="st0" d="M30.9,17.2v24.7h11.3V13.4H31.1"/>
		<path id="Path_528" class="st0" d="M25.8,6.3h5.1v35.6H11.3V6.3h5"/>
		<line id="Line_396" class="st0" x1="34.8" y1="21.9" x2="38.4" y2="21.9"/>
		<line id="Line_397" class="st0" x1="16.2" y1="14.5" x2="18.4" y2="14.5"/>
		<line id="Line_398" class="st0" x1="16.2" y1="18.2" x2="18.4" y2="18.2"/>
		<line id="Line_399" class="st0" x1="16.2" y1="22" x2="18.4" y2="22"/>
		<line id="Line_400" class="st0" x1="16.2" y1="25.7" x2="18.4" y2="25.7"/>
		<line id="Line_401" class="st0" x1="16.2" y1="29.5" x2="18.4" y2="29.5"/>
		<line id="Line_402" class="st0" x1="23.9" y1="14.5" x2="26.1" y2="14.5"/>
		<line id="Line_403" class="st0" x1="23.9" y1="18.2" x2="26.1" y2="18.2"/>
		<line id="Line_404" class="st0" x1="23.9" y1="22" x2="26.1" y2="22"/>
		<line id="Line_405" class="st0" x1="23.9" y1="25.7" x2="26.1" y2="25.7"/>
		<line id="Line_406" class="st0" x1="23.9" y1="29.5" x2="26.1" y2="29.5"/>
		<line id="Line_407" class="st0" x1="34.8" y1="26" x2="38.4" y2="26"/>
		<line id="Line_408" class="st0" x1="34.8" y1="22" x2="38.4" y2="22"/>
		<line id="Line_409" class="st0" x1="34.8" y1="17.9" x2="38.4" y2="17.9"/>
		<line id="Line_410" class="st0" x1="34.8" y1="30.2" x2="38.4" y2="30.2"/>
		<line id="Line_411" class="st0" x1="34.8" y1="34.4" x2="38.4" y2="34.4"/>
		<path id="Path_529" class="st0" d="M11.3,17.2v24.7H0V19.3l11-6.9"/>
		<line id="Line_412" class="st0" x1="7.5" y1="21.9" x2="3.8" y2="21.9"/>
		<line id="Line_413" class="st0" x1="7.5" y1="26" x2="3.8" y2="26"/>
		<line id="Line_414" class="st0" x1="7.5" y1="30.2" x2="3.8" y2="30.2"/>
		<line id="Line_415" class="st0" x1="7.5" y1="34.4" x2="3.8" y2="34.4"/>
		<path id="Path_530" class="st0" d="M24.1,39.2v-5h-5.9v5"/>
		<line id="Line_416" class="st0" x1="21.1" y1="2.9" x2="21.1" y2="0.1"/>
		<rect id="Rectangle_1298" x="16.7" y="3.3" class="st0" width="8.9" height="3"/>
		<line id="Line_417" class="st0" x1="36.6" y1="13.4" x2="36.6" y2="11.3"/>
	</g>
</g>
</svg>
