<?xml version="1.0" encoding="utf-8"?>
<!-- Generator: Adobe Illustrator 23.0.4, SVG Export Plug-In . SVG Version: 6.00 Build 0)  -->
<svg version="1.1" id="clients" xmlns="http://www.w3.org/2000/svg" xmlns:xlink="http://www.w3.org/1999/xlink" x="0px" y="0px"
	 viewBox="0 0 45.2 43.4" style="enable-background:new 0 0 45.2 43.4;" xml:space="preserve">
<style type="text/css">
	.st0{fill:none;stroke:#999999;stroke-width:2;stroke-miterlimit:10;}
</style>
<g id="Group_832" transform="translate(1 1)">
	<path id="Path_146" class="st0" d="M27,39.4c1.6,0.1,3-1.2,3.1-2.9c0-0.1,0-0.2,0-0.2V27c0-3-5.6-4.6-8.5-4.6S13.1,24,13.1,27v9.3
		c-0.1,1.6,1.2,3,2.9,3.1c0.1,0,0.2,0,0.2,0"/>
	<path id="Path_147" class="st0" d="M21.6,20c2.1,0,3.9-1.8,3.9-3.9l0,0v-1.3c0-2.1-1.6-3.9-3.8-3.9s-3.9,1.6-3.9,3.8
		c0,0.1,0,0.1,0,0.2v1.3C17.7,18.2,19.4,20,21.6,20L21.6,20z"/>
	<path id="Path_148" class="st0" d="M15.4,9.2c2.1,0,3.9-1.8,3.9-3.9l0,0V3.9c0-2.1-1.6-3.9-3.8-3.9s-3.9,1.6-3.9,3.8
		c0,0.1,0,0.1,0,0.2v1.3C11.5,7.4,13.2,9.1,15.4,9.2L15.4,9.2z"/>
	<path id="Path_149" class="st0" d="M27.7,9.2c2.1,0,3.9-1.8,3.9-3.9l0,0V3.9C31.6,1.8,30,0,27.8,0s-3.9,1.6-3.9,3.8
		c0,0.1,0,0.1,0,0.2v1.3C23.9,7.4,25.6,9.1,27.7,9.2L27.7,9.2z"/>
	<line id="Line_199" class="st0" x1="26.2" y1="42.4" x2="26.2" y2="30.1"/>
	<line id="Line_200" class="st0" x1="17" y1="30.1" x2="17" y2="42.4"/>
	<line id="Line_201" class="st0" x1="3.9" y1="42.4" x2="3.9" y2="30.1"/>
	<path id="Path_150" class="st0" d="M8.5,20c-2.1,0-3.9-1.8-3.9-3.9l0,0v-1.3c0-2.1,1.6-3.9,3.8-3.9s3.9,1.6,3.9,3.8
		c0,0.1,0,0.1,0,0.2V16C12.4,18.2,10.6,19.9,8.5,20L8.5,20z"/>
	<path id="Path_151" class="st0" d="M13.1,23.2c-1.5-0.5-3-0.8-4.6-0.9C5.6,22.3,0,23.9,0,27v9.3c-0.1,1.6,1.2,3,2.9,3.1
		c0.1,0,0.2,0,0.2,0"/>
	<line id="Line_202" class="st0" x1="39.3" y1="42.4" x2="39.3" y2="30.1"/>
	<path id="Path_152" class="st0" d="M34.7,20c2.1,0,3.9-1.8,3.9-3.9l0,0v-1.3c0-2.1-1.6-3.9-3.8-3.9s-3.9,1.6-3.9,3.8
		c0,0.1,0,0.1,0,0.2V16C30.8,18.2,32.5,19.9,34.7,20L34.7,20z"/>
	<path id="Path_153" class="st0" d="M30.1,23.2c1.5-0.5,3-0.8,4.6-0.9c2.9,0,8.5,1.6,8.5,4.6v9.3c0.1,1.6-1.2,3-2.9,3.1
		c-0.1,0-0.2,0-0.2,0"/>
</g>
</svg>
