<svg xmlns="http://www.w3.org/2000/svg" xmlns:xlink="http://www.w3.org/1999/xlink" id="commissions" x="0" y="0" enable-background="new 0 0 46.5 46.9" version="1.1" viewBox="0 0 46.5 46.9" xml:space="preserve"><style type="text/css">.st0,.st1{fill:none;stroke:#999;stroke-width:2;stroke-linejoin:round}.st1{stroke-linecap:round}</style><g id="Group_836" transform="translate(1 1.164)"><g id="Group_634" transform="translate(0 0)"><path id="Path_521" d="M0.8,43.7l18.1-15.8c2-1.7,4.8-1.7,6.7,0l18.1,15.7" class="st0"/><line id="Line_386" x1="27.2" x2="44" y1="29.3" y2="14.7" class="st0"/><line id="Line_387" x1=".4" x2="17.3" y1="14.7" y2="29.3" class="st0"/><path id="Path_522" d="M29.2,3.6L25.6,1c-2-1.3-4.7-1.3-6.7,0l-3.6,2.6" class="st0"/><path id="Path_523" d="M5.4,10.6l-3.1,2.2C0.9,13.7,0,15.3,0,17v24.9c0,1.6,1.1,2.7,2.7,2.7h39.2 c1.6,0,2.7-1.1,2.7-2.7V17c0-1.7-0.8-3.2-2.2-4.1l-3.1-2.2" class="st0"/><path id="Path_524" d="M39.2,18.9V3.6H5.4v15.3" class="st0"/><line id="Line_388" x1="10.7" x2="13.4" y1="15.1" y2="15.1" class="st1"/><line id="Line_389" x1="31.2" x2="33.9" y1="15.1" y2="15.1" class="st1"/><line id="Line_390" x1="12.8" x2="14.3" y1="9.7" y2="10.6" class="st1"/><line id="Line_391" x1="30.2" x2="31.7" y1="19.7" y2="20.4" class="st1"/><line id="Line_392" x1="12.8" x2="14.3" y1="20.4" y2="19.7" class="st1"/><line id="Line_393" x1="30.2" x2="31.7" y1="10.6" y2="9.7" class="st1"/><path id="Path_525" d="M24.9,11.6h-3.5c-0.9,0-1.7,0.6-1.9,1.6c-0.1,0.9,0.4,1.9,1.6,2.1c0.1,0,0.2,0,0.3,0h1.8 c0.9,0,1.7,0.6,1.9,1.6c0.1,0.9-0.4,1.9-1.6,2.1c-0.1,0-0.2,0-0.3,0h-3.6" class="st1"/><line id="Line_394" x1="22.3" x2="22.3" y1="8.9" y2="11.6" class="st1"/><line id="Line_395" x1="22.3" x2="22.3" y1="18.6" y2="21.3" class="st1"/></g></g></svg>