<?xml version="1.0" encoding="utf-8"?>
<!-- Generator: Adobe Illustrator 23.0.4, SVG Export Plug-In . SVG Version: 6.00 Build 0)  -->
<svg version="1.1" id="commissions" xmlns="http://www.w3.org/2000/svg" xmlns:xlink="http://www.w3.org/1999/xlink" x="0px"
	 y="0px" viewBox="0 0 46.5 46.9" style="enable-background:new 0 0 46.5 46.9;" xml:space="preserve">
<style type="text/css">
	.st0{fill:none;stroke:#999999;stroke-width:2;stroke-linejoin:round;}
	.st1{fill:none;stroke:#999999;stroke-width:2;stroke-linecap:round;stroke-linejoin:round;}
</style>
<g id="Group_836" transform="translate(1 1.164)">
	<g id="Group_634" transform="translate(0 0)">
		<path id="Path_521" class="st0" d="M0.8,43.7l18.1-15.8c2-1.7,4.8-1.7,6.7,0l18.1,15.7"/>
		<line id="Line_386" class="st0" x1="27.2" y1="29.3" x2="44" y2="14.7"/>
		<line id="Line_387" class="st0" x1="0.4" y1="14.7" x2="17.3" y2="29.3"/>
		<path id="Path_522" class="st0" d="M29.2,3.6L25.6,1c-2-1.3-4.7-1.3-6.7,0l-3.6,2.6"/>
		<path id="Path_523" class="st0" d="M5.4,10.6l-3.1,2.2C0.9,13.7,0,15.3,0,17v24.9c0,1.6,1.1,2.7,2.7,2.7h39.2
			c1.6,0,2.7-1.1,2.7-2.7V17c0-1.7-0.8-3.2-2.2-4.1l-3.1-2.2"/>
		<path id="Path_524" class="st0" d="M39.2,18.9V3.6H5.4v15.3"/>
		<line id="Line_388" class="st1" x1="10.7" y1="15.1" x2="13.4" y2="15.1"/>
		<line id="Line_389" class="st1" x1="31.2" y1="15.1" x2="33.9" y2="15.1"/>
		<line id="Line_390" class="st1" x1="12.8" y1="9.7" x2="14.3" y2="10.6"/>
		<line id="Line_391" class="st1" x1="30.2" y1="19.7" x2="31.7" y2="20.4"/>
		<line id="Line_392" class="st1" x1="12.8" y1="20.4" x2="14.3" y2="19.7"/>
		<line id="Line_393" class="st1" x1="30.2" y1="10.6" x2="31.7" y2="9.7"/>
		<path id="Path_525" class="st1" d="M24.9,11.6h-3.5c-0.9,0-1.7,0.6-1.9,1.6c-0.1,0.9,0.4,1.9,1.6,2.1c0.1,0,0.2,0,0.3,0h1.8
			c0.9,0,1.7,0.6,1.9,1.6c0.1,0.9-0.4,1.9-1.6,2.1c-0.1,0-0.2,0-0.3,0h-3.6"/>
		<line id="Line_394" class="st1" x1="22.3" y1="8.9" x2="22.3" y2="11.6"/>
		<line id="Line_395" class="st1" x1="22.3" y1="18.6" x2="22.3" y2="21.3"/>
	</g>
</g>
</svg>
