<svg xmlns="http://www.w3.org/2000/svg" xmlns:xlink="http://www.w3.org/1999/xlink" id="contracts" x="0" y="0" enable-background="new 0 0 53.4 52.7" version="1.1" viewBox="0 0 53.4 52.7" xml:space="preserve"><style type="text/css">.st0,.st1{fill:none;stroke:#999;stroke-width:2}.st0{stroke-miterlimit:10}.st1{stroke-linejoin:round}</style><g id="Group_833" transform="translate(0.707 1.002)"><path d="M41.7,5.4h7.8c1,0,1.7,0.8,1.7,1.7l0,0v41.5c0,1-0.8,1.7-1.7,1.7l0,0H15.4c-1,0-1.7-0.8-1.7-1.7l0,0V33.3" class="st0"/><path d="M41.7,5.4" class="st0"/><path d="M23,5.4" class="st0"/><path d="M13.4,18.9V7.2c0-1,0.8-1.7,1.7-1.7h7.7" class="st0"/><line id="Line_44" x1="29.7" x2="42.4" y1="18.9" y2="18.9" class="st0"/><line id="Line_45" x1="29.7" x2="42.4" y1="24.3" y2="24.3" class="st0"/><path id="Path_14" d="M27.1,17.1l-1.6,3.7h-0.1L23.6,19" class="st0"/><path id="Path_15" d="M27.1,22.6l-1.6,3.7h-0.1l-1.7-1.7" class="st0"/><path d="M42.8,9h4.9V47H17.1V37" class="st0"/><path d="M42.8,9" class="st0"/><path d="M22.3,9" class="st0"/><path d="M17.1,22.6V9h5.3" class="st0"/><g id="Group_5" transform="translate(18.067 0)"><path id="Path_17" d="M21.5,4.5h-3.7V3.8c0-1.8-1.4-3.4-3.2-3.8c-2-0.2-3.8,1.3-4,3.2c0,0.1,0,0.2,0,0.3v0.9H7.3 c-1.5,0-2.8,1.3-2.8,2.8v3.7h19.9V7.2C24.3,5.7,23,4.5,21.5,4.5L21.5,4.5z" class="st0"/><line id="Line_46" x1="14.3" x2="14.3" y1="2.8" y2="4.5" class="st0"/></g><g id="Group_6" transform="translate(0 11.077)"><path id="Path_18" d="M5.9,4.7L4.5,3.2C3.8,2.4,2.7,2.4,2,3.2l0,0L1.7,3.4C1,4.2,1,5.2,1.7,5.9l0,0l1.4,1.4" class="st1"/><path id="Path_19" d="M2.8,7.8l20.7,20.7l7.2,3.7L27.1,25L6.3,4.3L2.8,7.8z" class="st1"/><line id="Line_47" x1="27.1" x2="23.4" y1="24.9" y2="28.5" class="st1"/><line id="Line_48" x1="9" x2="2.8" y1="6.9" y2="13.2" class="st1"/><line id="Line_49" x1="0" x2="9" y1="10.6" y2="19.5" class="st1"/></g></g></svg>