<?xml version="1.0" encoding="utf-8"?>
<!-- Generator: Adobe Illustrator 23.0.4, SVG Export Plug-In . SVG Version: 6.00 Build 0)  -->
<svg version="1.1" id="Layer_1" xmlns="http://www.w3.org/2000/svg" xmlns:xlink="http://www.w3.org/1999/xlink" x="0px" y="0px"
	 viewBox="0 0 78 64.9" style="enable-background:new 0 0 78 64.9;" xml:space="preserve">
<style type="text/css">
	.st0{fill:none;stroke:#707070;stroke-width:2;stroke-miterlimit:10;}
	.st1{fill:none;stroke:#707070;stroke-width:2;stroke-linecap:round;stroke-miterlimit:10;}
	.st2{fill:none;stroke:#707070;stroke-width:2;stroke-linecap:round;stroke-linejoin:round;}
</style>
<path id="Rectangle_1335" class="st0" d="M4.4,1.2h69.6c1.7,0,3,1.3,3,3c0,0,0,0,0,0v47.9c0,1.7-1.3,3-3,3l0,0H4.4c-1.7,0-3-1.3-3-3
	V4.2C1.4,2.5,2.8,1.2,4.4,1.2C4.4,1.2,4.4,1.2,4.4,1.2z"/>
<line id="Line_420" class="st0" x1="2" y1="44.5" x2="77" y2="44.5"/>
<line id="Line_421" class="st0" x1="34.5" y1="55.9" x2="34.5" y2="63"/>
<line id="Line_422" class="st0" x1="43.4" y1="55.9" x2="43.4" y2="63"/>
<line id="Line_423" class="st1" x1="19.8" y1="63.6" x2="59.1" y2="63.6"/>
<rect id="Rectangle_1336" x="53.2" y="22.5" class="st2" width="14.8" height="13.4"/>
<path id="Path_533" class="st2" d="M68,22.5l-6.6,10l-3.9-5.8L53.4,34"/>
<line id="Line_424" class="st1" x1="52.5" y1="15.4" x2="68" y2="15.4"/>
<line id="Line_425" class="st1" x1="52.5" y1="8.8" x2="68" y2="8.8"/>
<rect id="Rectangle_1337" x="38" y="8.7" class="st2" width="5.1" height="27.1"/>
<rect id="Rectangle_1338" x="24.6" y="13.7" class="st2" width="5.1" height="22.2"/>
<rect id="Rectangle_1339" x="11.1" y="17.8" class="st2" width="5.1" height="18"/>
</svg>
