<svg xmlns="http://www.w3.org/2000/svg" xmlns:xlink="http://www.w3.org/1999/xlink" id="Layer_1" x="0" y="0" enable-background="new 0 0 78 64.9" version="1.1" viewBox="0 0 78 64.9" xml:space="preserve"><style type="text/css">.st0,.st1,.st2{fill:none;stroke:#707070;stroke-width:2}.st0{stroke-miterlimit:10}.st1,.st2{stroke-linecap:round}.st1{stroke-miterlimit:10}.st2{stroke-linejoin:round}</style><path id="Rectangle_1335" d="M4.4,1.2h69.6c1.7,0,3,1.3,3,3c0,0,0,0,0,0v47.9c0,1.7-1.3,3-3,3l0,0H4.4c-1.7,0-3-1.3-3-3	V4.2C1.4,2.5,2.8,1.2,4.4,1.2C4.4,1.2,4.4,1.2,4.4,1.2z" class="st0"/><line id="Line_420" x1="2" x2="77" y1="44.5" y2="44.5" class="st0"/><line id="Line_421" x1="34.5" x2="34.5" y1="55.9" y2="63" class="st0"/><line id="Line_422" x1="43.4" x2="43.4" y1="55.9" y2="63" class="st0"/><line id="Line_423" x1="19.8" x2="59.1" y1="63.6" y2="63.6" class="st1"/><rect id="Rectangle_1336" width="14.8" height="13.4" x="53.2" y="22.5" class="st2"/><path id="Path_533" d="M68,22.5l-6.6,10l-3.9-5.8L53.4,34" class="st2"/><line id="Line_424" x1="52.5" x2="68" y1="15.4" y2="15.4" class="st1"/><line id="Line_425" x1="52.5" x2="68" y1="8.8" y2="8.8" class="st1"/><rect id="Rectangle_1337" width="5.1" height="27.1" x="38" y="8.7" class="st2"/><rect id="Rectangle_1338" width="5.1" height="22.2" x="24.6" y="13.7" class="st2"/><rect id="Rectangle_1339" width="5.1" height="18" x="11.1" y="17.8" class="st2"/></svg>