<?xml version="1.0" encoding="utf-8"?>
<!-- Generator: Adobe Illustrator 23.0.4, SVG Export Plug-In . SVG Version: 6.00 Build 0)  -->
<svg version="1.1" id="events" xmlns="http://www.w3.org/2000/svg" xmlns:xlink="http://www.w3.org/1999/xlink" x="0px" y="0px"
	 viewBox="0 0 42.1 36.8" style="enable-background:new 0 0 42.1 36.8;" xml:space="preserve">
<style type="text/css">
	.st0{fill:none;stroke:#999999;stroke-width:2;stroke-miterlimit:10;}
	.st1{fill:none;stroke:#999999;stroke-miterlimit:10;}
</style>
<g id="Group_835" transform="translate(1)">
	<g id="Group_19" transform="translate(0 0)">
		<line id="Line_62" class="st0" x1="32.5" y1="0" x2="32.5" y2="6.3"/>
		<line id="Line_63" class="st0" x1="26.2" y1="0" x2="26.2" y2="6.3"/>
		<line id="Line_64" class="st0" x1="20" y1="0" x2="20" y2="6.3"/>
		<line id="Line_65" class="st0" x1="13.7" y1="0" x2="13.7" y2="6.3"/>
		<line id="Line_66" class="st0" x1="7.4" y1="0" x2="7.4" y2="6.3"/>
		<line id="Line_67" class="st0" x1="39.8" y1="12.6" x2="0" y2="12.6"/>
	</g>
	<path id="Path_51" class="st0" d="M37.7,3.1H2.1C1,3.1,0,4.1,0,5.2v28.3c0,1.2,1,2.1,2.1,2.1h35.7c1.2,0,2.1-1,2.1-2.1V5.2
		C39.8,4.1,38.9,3.1,37.7,3.1z"/>
	<line id="Line_68" class="st0" x1="6.3" y1="17.8" x2="4.2" y2="17.8"/>
	<line id="Line_69" class="st1" x1="11.6" y1="19" x2="9.3" y2="16.7"/>
	<line id="Line_70" class="st0" x1="20.9" y1="17.8" x2="18.9" y2="17.8"/>
	<line id="Line_71" class="st0" x1="25.8" y1="17.8" x2="23.8" y2="17.8"/>
	<line id="Line_72" class="st0" x1="30.7" y1="17.8" x2="28.6" y2="17.8"/>
	<line id="Line_73" class="st0" x1="35.7" y1="17.8" x2="33.5" y2="17.8"/>
	<line id="Line_74" class="st0" x1="6.3" y1="22" x2="4.2" y2="22"/>
	<line id="Line_75" class="st0" x1="11.2" y1="22" x2="9.1" y2="22"/>
	<line id="Line_76" class="st0" x1="16.1" y1="22" x2="14" y2="22"/>
	<line id="Line_77" class="st0" x1="20.9" y1="22" x2="18.9" y2="22"/>
	<line id="Line_78" class="st0" x1="25.8" y1="22" x2="23.8" y2="22"/>
	<line id="Line_79" class="st0" x1="30.7" y1="22" x2="28.6" y2="22"/>
	<line id="Line_80" class="st0" x1="35.7" y1="22" x2="33.5" y2="22"/>
	<line id="Line_81" class="st0" x1="6.3" y1="26.2" x2="4.2" y2="26.2"/>
	<line id="Line_82" class="st0" x1="11.2" y1="26.2" x2="9.1" y2="26.2"/>
	<line id="Line_83" class="st0" x1="16.1" y1="26.2" x2="14" y2="26.2"/>
	<line id="Line_84" class="st0" x1="25.8" y1="26.2" x2="23.8" y2="26.2"/>
	<line id="Line_85" class="st0" x1="30.7" y1="26.2" x2="28.6" y2="26.2"/>
	<line id="Line_86" class="st0" x1="35.7" y1="26.2" x2="33.5" y2="26.2"/>
	<line id="Line_87" class="st0" x1="6.3" y1="30.4" x2="4.2" y2="30.4"/>
	<line id="Line_88" class="st0" x1="11.2" y1="30.4" x2="9.1" y2="30.4"/>
	<line id="Line_89" class="st0" x1="16.1" y1="30.4" x2="14" y2="30.4"/>
	<line id="Line_90" class="st0" x1="20.9" y1="30.4" x2="18.9" y2="30.4"/>
	<line id="Line_91" class="st0" x1="25.8" y1="30.4" x2="23.8" y2="30.4"/>
	<line id="Line_92" class="st0" x1="35.7" y1="30.4" x2="33.5" y2="30.4"/>
	<line id="Line_93" class="st1" x1="9.3" y1="19" x2="11.6" y2="16.7"/>
	<line id="Line_94" class="st1" x1="16.3" y1="19" x2="14" y2="16.7"/>
	<line id="Line_95" class="st1" x1="14" y1="19" x2="16.3" y2="16.7"/>
	<line id="Line_96" class="st1" x1="21" y1="27.3" x2="18.7" y2="25"/>
	<line id="Line_97" class="st1" x1="18.7" y1="27.3" x2="21" y2="25"/>
	<line id="Line_98" class="st1" x1="30.9" y1="31.6" x2="28.5" y2="29.3"/>
	<line id="Line_99" class="st1" x1="28.5" y1="31.6" x2="30.9" y2="29.3"/>
</g>
</svg>
