<svg xmlns="http://www.w3.org/2000/svg" xmlns:xlink="http://www.w3.org/1999/xlink" id="events" x="0" y="0" enable-background="new 0 0 42.1 36.8" version="1.1" viewBox="0 0 42.1 36.8" xml:space="preserve"><style type="text/css">.st0{stroke-width:2}.st0,.st1{fill:none;stroke:#999;stroke-miterlimit:10}</style><g id="Group_835" transform="translate(1)"><g id="Group_19" transform="translate(0 0)"><line id="Line_62" x1="32.5" x2="32.5" y1="0" y2="6.3" class="st0"/><line id="Line_63" x1="26.2" x2="26.2" y1="0" y2="6.3" class="st0"/><line id="Line_64" x1="20" x2="20" y1="0" y2="6.3" class="st0"/><line id="Line_65" x1="13.7" x2="13.7" y1="0" y2="6.3" class="st0"/><line id="Line_66" x1="7.4" x2="7.4" y1="0" y2="6.3" class="st0"/><line id="Line_67" x1="39.8" x2="0" y1="12.6" y2="12.6" class="st0"/></g><path id="Path_51" d="M37.7,3.1H2.1C1,3.1,0,4.1,0,5.2v28.3c0,1.2,1,2.1,2.1,2.1h35.7c1.2,0,2.1-1,2.1-2.1V5.2 C39.8,4.1,38.9,3.1,37.7,3.1z" class="st0"/><line id="Line_68" x1="6.3" x2="4.2" y1="17.8" y2="17.8" class="st0"/><line id="Line_69" x1="11.6" x2="9.3" y1="19" y2="16.7" class="st1"/><line id="Line_70" x1="20.9" x2="18.9" y1="17.8" y2="17.8" class="st0"/><line id="Line_71" x1="25.8" x2="23.8" y1="17.8" y2="17.8" class="st0"/><line id="Line_72" x1="30.7" x2="28.6" y1="17.8" y2="17.8" class="st0"/><line id="Line_73" x1="35.7" x2="33.5" y1="17.8" y2="17.8" class="st0"/><line id="Line_74" x1="6.3" x2="4.2" y1="22" y2="22" class="st0"/><line id="Line_75" x1="11.2" x2="9.1" y1="22" y2="22" class="st0"/><line id="Line_76" x1="16.1" x2="14" y1="22" y2="22" class="st0"/><line id="Line_77" x1="20.9" x2="18.9" y1="22" y2="22" class="st0"/><line id="Line_78" x1="25.8" x2="23.8" y1="22" y2="22" class="st0"/><line id="Line_79" x1="30.7" x2="28.6" y1="22" y2="22" class="st0"/><line id="Line_80" x1="35.7" x2="33.5" y1="22" y2="22" class="st0"/><line id="Line_81" x1="6.3" x2="4.2" y1="26.2" y2="26.2" class="st0"/><line id="Line_82" x1="11.2" x2="9.1" y1="26.2" y2="26.2" class="st0"/><line id="Line_83" x1="16.1" x2="14" y1="26.2" y2="26.2" class="st0"/><line id="Line_84" x1="25.8" x2="23.8" y1="26.2" y2="26.2" class="st0"/><line id="Line_85" x1="30.7" x2="28.6" y1="26.2" y2="26.2" class="st0"/><line id="Line_86" x1="35.7" x2="33.5" y1="26.2" y2="26.2" class="st0"/><line id="Line_87" x1="6.3" x2="4.2" y1="30.4" y2="30.4" class="st0"/><line id="Line_88" x1="11.2" x2="9.1" y1="30.4" y2="30.4" class="st0"/><line id="Line_89" x1="16.1" x2="14" y1="30.4" y2="30.4" class="st0"/><line id="Line_90" x1="20.9" x2="18.9" y1="30.4" y2="30.4" class="st0"/><line id="Line_91" x1="25.8" x2="23.8" y1="30.4" y2="30.4" class="st0"/><line id="Line_92" x1="35.7" x2="33.5" y1="30.4" y2="30.4" class="st0"/><line id="Line_93" x1="9.3" x2="11.6" y1="19" y2="16.7" class="st1"/><line id="Line_94" x1="16.3" x2="14" y1="19" y2="16.7" class="st1"/><line id="Line_95" x1="14" x2="16.3" y1="19" y2="16.7" class="st1"/><line id="Line_96" x1="21" x2="18.7" y1="27.3" y2="25" class="st1"/><line id="Line_97" x1="18.7" x2="21" y1="27.3" y2="25" class="st1"/><line id="Line_98" x1="30.9" x2="28.5" y1="31.6" y2="29.3" class="st1"/><line id="Line_99" x1="28.5" x2="30.9" y1="31.6" y2="29.3" class="st1"/></g></svg>