<svg xmlns="http://www.w3.org/2000/svg" xmlns:xlink="http://www.w3.org/1999/xlink" id="get-contracted" x="0" y="0" enable-background="new 0 0 49.3 55.5" version="1.1" viewBox="0 0 49.3 55.5" xml:space="preserve"><style type="text/css">.st0,.st1{fill:none;stroke:#999;stroke-width:2;stroke-miterlimit:10}.st1{stroke-linecap:round}</style><g id="Group_345" transform="translate(-103.104 -86.173)"><g id="Group_7"><path id="Path_2574_2_" d="M142.5,140.7h-36.3c-1.1,0-1.9-0.9-1.9-1.9v-16.2" class="st0"/><path id="Path_2575" d="M144.4,124.4" class="st0"/><path id="Path_2576" d="M144.4,107.2" class="st0"/><path d="M134.5,92.9h8.1c1.1,0,1.9,0.9,1.9,1.9l0,0v6.4" class="st0"/><path d="M134.5,92.9" class="st0"/><path d="M114.4,92.9" class="st0"/><path d="M104.3,123.5V94.8c0-1.1,0.9-1.9,1.9-1.9h8.2" class="st0"/><line id="Line_44" x1="121.5" x2="134.9" y1="107.2" y2="107.2" class="st0"/><line id="Line_45" x1="121.5" x2="129.4" y1="112.9" y2="112.9" class="st0"/><path id="Path_14" d="M118.6,105.3l-1.7,3.8h-0.2l-1.9-1.9" class="st0"/><path id="Path_15" d="M118.6,111l-1.7,3.8h-0.2l-1.9-1.9" class="st0"/><path id="Path_2578_1_" d="M136.6,136.8h-28.5v-10.5" class="st0"/><path id="Path_2579" d="M140.6,121.6" class="st0"/><path id="Path_2580" d="M140.6,108.7" class="st0"/><path d="M135.1,96.7h5.5v4.6" class="st0"/><path d="M135.1,96.7" class="st0"/><path d="M113.7,96.7" class="st0"/><path d="M108.1,127.3V96.7h5.5" class="st0"/><g id="Group_5"><path id="Path_17" d="M132,91.9h-3.8v-0.8c0-2-1.5-3.7-3.4-4c-2.1-0.2-4,1.3-4.2,3.4l0,0c0,0.1,0,0.2,0,0.4v1h-3.8 c-1.6,0-2.9,1.3-2.9,2.9l0,0v3.8h21v-3.8C134.9,93.2,133.6,91.9,132,91.9L132,91.9L132,91.9z" class="st0"/><line id="Line_46" x1="124.4" x2="124.4" y1="90" y2="91.9" class="st0"/></g></g><circle id="Ellipse_115" cx="142.5" cy="105.6" r="4.6" class="st0"/><path d="M133.4,120v-5.1c0-0.8,0.6-1.5,1.4-1.7h10.9h4c0.9,0.1,1.5,0.8,1.5,1.7v14c0,0.9-0.7,1.6-1.5,1.8 c-0.3,0-0.6,0-0.9,0c-0.5-0.1-1,0.2-1.1,0.7c0,0.1,0,0.1,0,0.2v9c0,0.1,0,0.1-0.1,0.1l0,0h-10.7v-8.3v-0.1v-0.6 c0-0.5-0.4-0.9-0.9-0.9c-0.1,0-0.2,0-0.2,0c-0.2,0-0.5,0.1-0.7,0.1c-0.9,0-1.7-0.7-1.7-1.7c0-0.1,0-2.2,0-2.2" class="st0"/><path d="M133.4,120" class="st0"/><path d="M133.4,127" class="st0"/><path id="Path_2583" d="M122.7,134.5l-7-8.3c-0.1-0.1-0.1-0.3,0-0.4l0,0l3.3-3c0.1-0.1,0.3-0.1,0.4,0l0,0l3.5,4.3 c0.4,0.5,0.8,0.6,1.3,0.2l10.5-8.1c0.2-0.1,0.5-0.1,0.7,0l2.7,3.2c0.1,0.1,0.1,0.3,0,0.4l0,0l-15,11.7 C123,134.7,122.8,134.7,122.7,134.5z" class="st0"/><line id="Line_347" x1="142.3" x2="142.3" y1="131.2" y2="140.6" class="st1"/></g></svg>