<?xml version="1.0" encoding="utf-8"?>
<!-- Generator: Adobe Illustrator 23.0.4, SVG Export Plug-In . SVG Version: 6.00 Build 0)  -->
<svg version="1.1" id="hierarchy" xmlns="http://www.w3.org/2000/svg" xmlns:xlink="http://www.w3.org/1999/xlink" x="0px" y="0px"
	 viewBox="0 0 48.1 46.1" style="enable-background:new 0 0 48.1 46.1;" xml:space="preserve">
<style type="text/css">
	.st0{fill:none;stroke:#999999;stroke-width:2;stroke-linejoin:round;stroke-miterlimit:10;}
	.st1{fill:none;stroke:#999999;stroke-width:2;stroke-linecap:round;stroke-linejoin:round;stroke-miterlimit:10;}
	.st2{fill:none;stroke:#999999;stroke-width:2;stroke-miterlimit:10;}
</style>
<polyline class="st0" points="37.8,5.5 32.3,5.5 32.3,40.7 37.7,40.7 "/>
<line class="st1" x1="23" y1="23.1" x2="37.8" y2="23.1"/>
<path class="st2" d="M14.1,10c-3,0-5.5,2.5-5.5,5.5c0,3.2,2.6,8.3,5.5,8.3s5.5-5.1,5.5-8.3C19.7,12.6,17.2,10,14.1,10L14.1,10z"/>
<g id="Group_688_2_">
	<path id="Path_554_2_" class="st2" d="M16.3,23.3v2.3l9.4,2.5c0.3,0.1,0.5,0.4,0.5,0.7v5.1c0,0.4-0.4,0.7-0.7,0.7H2.3
		c-0.4,0-0.7-0.3-0.7-0.7v-5.1c0-0.4,0.2-0.7,0.5-0.7l10.1-2.5v-2.3"/>
</g>
<circle class="st2" cx="41.9" cy="5.5" r="3.9"/>
<circle class="st2" cx="41.9" cy="23.1" r="3.9"/>
<circle class="st2" cx="41.9" cy="40.7" r="3.9"/>
</svg>
