<svg xmlns="http://www.w3.org/2000/svg" xmlns:xlink="http://www.w3.org/1999/xlink" id="overview" x="0" y="0" enable-background="new 0 0 52.8 47.5" version="1.1" viewBox="0 0 52.8 47.5" xml:space="preserve"><style type="text/css">.st0{fill:none;stroke:#999;stroke-width:2;stroke-miterlimit:10}</style><g id="Group_831" transform="translate(1 2)"><line id="Line_106" x1="42.4" x2="42.4" y1="32.7" y2="43.3" class="st0"/><line id="Line_107" x1="25.4" x2="25.4" y1="43.3" y2="32.7" class="st0"/><path d="M49,5.6v24.6H17.2V24" class="st0"/><path d="M49,5.6" class="st0"/><path d="M17.2,5.6" class="st0"/><path d="M17.2,15.6V5.6" class="st0"/><path id="Path_55" d="M8.6,14.5c2.1,0,3.7-1.7,3.7-3.7v-0.1V9.5c0.1-2.1-1.4-3.8-3.5-3.9C6.8,5.5,5.1,7,5,9.1 c0,0.1,0,0.2,0,0.4v1.3C4.9,12.8,6.6,14.5,8.6,14.5L8.6,14.5z" class="st0"/><path id="Union_9" d="M4.1,44.1V32.7H3.4c-1.7,0-3.2-1.4-3.3-3.3v-7.3c0-3.6,2.6-4.9,6.6-4.9h18.7c-0.1,2.2-1.9,4-4,4 H14v22.9C14,44.1,4.1,44.1,4.1,44.1z" class="st0"/><line id="Line_108" x1="14" x2="14" y1="22.1" y2="44.1" class="st0"/><line id="Line_109" x1="9.1" x2="9.1" y1="31" y2="44.1" class="st0"/><line id="Line_110" x1="4.1" x2="4.1" y1="22.1" y2="44.1" class="st0"/><path id="Path_57" d="M20.4,26.1h5.7l2.4-3.3h4.9l4.9-8.1h3.3l2.4-4h1.6" class="st0"/><path id="Rectangle_29" d="M15.9-1h34.4c0.2,0,0.3,0.1,0.3,0.3v6.2c0,0.2-0.1,0.3-0.3,0.3H15.9c-0.2,0-0.3-0.1-0.3-0.3 v-6.2C15.6-0.9,15.8-1,15.9-1z" class="st0"/></g></svg>