<?xml version="1.0" encoding="utf-8"?>
<!-- Generator: Adobe Illustrator 23.0.4, SVG Export Plug-In . SVG Version: 6.00 Build 0)  -->
<svg version="1.1" id="overview" xmlns="http://www.w3.org/2000/svg" xmlns:xlink="http://www.w3.org/1999/xlink" x="0px" y="0px"
	 viewBox="0 0 52.8 47.5" style="enable-background:new 0 0 52.8 47.5;" xml:space="preserve">
<style type="text/css">
	.st0{fill:none;stroke:#999999;stroke-width:2;stroke-miterlimit:10;}
</style>
<g id="Group_831" transform="translate(1 2)">
	<line id="Line_106" class="st0" x1="42.4" y1="32.7" x2="42.4" y2="43.3"/>
	<line id="Line_107" class="st0" x1="25.4" y1="43.3" x2="25.4" y2="32.7"/>
	<path class="st0" d="M49,5.6v24.6H17.2V24"/>
	<path class="st0" d="M49,5.6"/>
	<path class="st0" d="M17.2,5.6"/>
	<path class="st0" d="M17.2,15.6V5.6"/>
	<path id="Path_55" class="st0" d="M8.6,14.5c2.1,0,3.7-1.7,3.7-3.7v-0.1V9.5c0.1-2.1-1.4-3.8-3.5-3.9C6.8,5.5,5.1,7,5,9.1
		c0,0.1,0,0.2,0,0.4v1.3C4.9,12.8,6.6,14.5,8.6,14.5L8.6,14.5z"/>
	<path id="Union_9" class="st0" d="M4.1,44.1V32.7H3.4c-1.7,0-3.2-1.4-3.3-3.3v-7.3c0-3.6,2.6-4.9,6.6-4.9h18.7c-0.1,2.2-1.9,4-4,4
		H14v22.9C14,44.1,4.1,44.1,4.1,44.1z"/>
	<line id="Line_108" class="st0" x1="14" y1="22.1" x2="14" y2="44.1"/>
	<line id="Line_109" class="st0" x1="9.1" y1="31" x2="9.1" y2="44.1"/>
	<line id="Line_110" class="st0" x1="4.1" y1="22.1" x2="4.1" y2="44.1"/>
	<path id="Path_57" class="st0" d="M20.4,26.1h5.7l2.4-3.3h4.9l4.9-8.1h3.3l2.4-4h1.6"/>
	<path id="Rectangle_29" class="st0" d="M15.9-1h34.4c0.2,0,0.3,0.1,0.3,0.3v6.2c0,0.2-0.1,0.3-0.3,0.3H15.9c-0.2,0-0.3-0.1-0.3-0.3
		v-6.2C15.6-0.9,15.8-1,15.9-1z"/>
</g>
</svg>
