<?xml version="1.0" encoding="utf-8"?>
<!-- Generator: Adobe Illustrator 23.0.4, SVG Export Plug-In . SVG Version: 6.00 Build 0)  -->
<svg version="1.1" id="quote" xmlns="http://www.w3.org/2000/svg" xmlns:xlink="http://www.w3.org/1999/xlink" x="0px" y="0px"
	 viewBox="0 0 44.3 47.6" style="enable-background:new 0 0 44.3 47.6;" xml:space="preserve">
<style type="text/css">
	.st0{fill:none;stroke:#999999;stroke-width:2;stroke-linejoin:round;}
	.st1{fill:none;stroke:#999999;stroke-width:2;stroke-miterlimit:10;}
</style>
<g id="Group_834" transform="translate(1 2.236)">
	<rect id="Rectangle_1156" x="11.2" y="5.2" class="st0" width="31" height="37.2"/>
	<rect id="Rectangle_1158" x="14.8" y="8.8" class="st1" width="23.9" height="30.2"/>
	<line id="Line_338" class="st1" x1="14.8" y1="24.7" x2="38.7" y2="24.7"/>
	<line id="Line_339" class="st1" x1="14.8" y1="31.8" x2="30.8" y2="31.8"/>
	<line id="Line_340" class="st1" x1="22.8" y1="38.9" x2="22.8" y2="17.6"/>
	<line id="Line_341" class="st1" x1="30.8" y1="38.9" x2="30.8" y2="17.6"/>
	<rect id="Rectangle_1159" x="14.8" y="8.8" class="st1" width="23.9" height="8.9"/>
	<path id="Path_469" class="st1" d="M5.9,5.2v38.1c0,0.5-0.4,0.9-0.9,0.9l0,0H1.5c-0.5,0-0.9-0.4-0.9-0.9l0,0V5.2l2.7-5.3L5.9,5.2z"
		/>
	<line id="Line_342" class="st1" x1="0.6" y1="6.1" x2="5.9" y2="6.1"/>
	<line id="Line_343" class="st1" x1="5.9" y1="39.8" x2="0.6" y2="39.8"/>
</g>
</svg>
