<svg xmlns="http://www.w3.org/2000/svg" xmlns:xlink="http://www.w3.org/1999/xlink" id="register-downlines" x="0" y="0" enable-background="new 0 0 46.1 45.9" version="1.1" viewBox="0 0 46.1 45.9" xml:space="preserve"><style type="text/css">.st0{fill:none;stroke:#999;stroke-width:2;stroke-miterlimit:10}</style><path d="M5.1,19.1c1.4-7.1,7-12.7,14.1-14.3" class="st0"/><path d="M19.1,40.8c-7-1.6-12.5-7.2-13.9-14.3" class="st0"/><path d="M41.2,26.4c-1.4,7.3-7.1,13-14.4,14.4" class="st0"/><path d="M26.7,4.8c7.2,1.4,12.8,7,14.4,14.2" class="st0"/><circle cx="23.1" cy="5.1" r="3.6" class="st0"/><circle cx="23.1" cy="41" r="3.6" class="st0"/><circle cx="41.2" cy="22.9" r="3.6" class="st0"/><circle cx="5.1" cy="22.9" r="3.6" class="st0"/><path d="M23.1,13.2c-2.5,0-4.4,2-4.4,4.4c0,2.5,2.1,6.6,4.4,6.6s4.4-4.1,4.4-6.6C27.5,15.2,25.6,13.2,23.1,13.2	L23.1,13.2z" class="st0"/><g id="Group_688_2_"><path id="Path_554_2_" d="M24.9,23.8v1.9l7.6,2c0.3,0.1,0.4,0.3,0.4,0.6v4.1c0,0.3-0.3,0.6-0.6,0.6H13.6 c-0.3,0-0.6-0.3-0.6-0.6v-4.1c0-0.3,0.2-0.5,0.4-0.6l8.1-2v-1.9" class="st0"/></g></svg>