<svg xmlns="http://www.w3.org/2000/svg" xmlns:xlink="http://www.w3.org/1999/xlink" id="submissions" x="0" y="0" enable-background="new 0 0 40.2 41.1" version="1.1" viewBox="0 0 40.2 41.1" xml:space="preserve"><style type="text/css">.st0{fill:none;stroke:#999;stroke-width:2;stroke-miterlimit:10}</style><g id="Group_215" transform="translate(-74.293 -205.866)"><g id="Group_211" transform="translate(81.761 211.168)"><path id="Path_347" d="M0.9,2.4C0.9,1.6,1.6,1,2.3,1l0,0h16.1L24,6.6v21.7c0,0.8-0.6,1.4-1.4,1.4l0,0H2.3 c-0.8,0-1.4-0.6-1.4-1.4l0,0V2.4z" class="st0"/><path id="Path_348" d="M21.9,7.3h-4.2V3.1" class="st0"/></g><path id="Path_349" d="M113.4,224.1l-2.8,2.8l-2.8-2.8" class="st0"/><g id="Group_212" transform="translate(106.345 225.919)"><line id="Line_246" x1="4.3" x2="4.3" y1="3" y2="4.4" class="st0"/><line id="Line_247" x1="4.3" x2="4.3" y1="5.8" y2="7.2" class="st0"/></g><path id="Path_350" d="M110.7,234.5v7.7c0,1.9-1.6,3.5-3.5,3.5h-8.4" class="st0"/><path id="Path_351" d="M80.6,231.1l-2.8-2.8l-2.8,2.8" class="st0"/><path id="Path_352" d="M89,245.7h-7.7c-1.9,0-3.5-1.6-3.5-3.5v-14" class="st0"/><g id="Group_213" transform="translate(77.459 219.772)"><line id="Line_248" x1=".3" x2=".3" y1="6.4" y2="5" class="st0"/><line id="Line_249" x1=".3" x2=".3" y1="3.6" y2="2.2" class="st0"/></g><path id="Path_353" d="M98.8,207.3h8.4c1.9,0,3.5,1.6,3.5,3.5v16.1" class="st0"/><path id="Path_354" d="M77.8,220.6v-9.8c0-1.9,1.6-3.5,3.5-3.5l0,0H89" class="st0"/><g id="Group_214" transform="translate(88.521 206.866)"><line id="Line_250" x1="4.7" x2="6.1" y1=".4" y2=".4" class="st0"/><line id="Line_251" x1="1.9" x2="3.3" y1=".4" y2=".4" class="st0"/><line id="Line_252" x1="7.5" x2="8.8" y1=".4" y2=".4" class="st0"/></g></g></svg>