<?xml version="1.0" encoding="utf-8"?>
<!-- Generator: Adobe Illustrator 23.0.4, SVG Export Plug-In . SVG Version: 6.00 Build 0)  -->
<svg version="1.1" id="task" xmlns="http://www.w3.org/2000/svg" xmlns:xlink="http://www.w3.org/1999/xlink" x="0px" y="0px"
	 viewBox="0 0 44.3 50.3" style="enable-background:new 0 0 44.3 50.3;" xml:space="preserve">
<style type="text/css">
	.st0{fill:none;stroke:#999999;stroke-width:2;stroke-miterlimit:10;}
	.st1{fill:none;stroke:#999999;stroke-width:2;stroke-linecap:round;stroke-miterlimit:10;}
</style>
<path class="st0" d="M28.2,6.2h7.3c0.9,0,1.7,0.8,1.7,1.7v8.6"/>
<path class="st0" d="M37.2,42.3v5.2c0,0.9-0.8,1.7-1.7,1.7l0,0H2.9c-0.9,0-1.7-0.8-1.7-1.7V32.8V7.9C1.2,7,2,6.2,2.9,6.2l0,0H10"/>
<path id="Path_33_1_" class="st0" d="M16.6,17.3l-1.9,4.3h-0.2l-2.1-2.1"/>
<path id="Path_34_1_" class="st0" d="M16.6,26.4l-1.9,4.3h-0.2l-2.1-2.1"/>
<path id="Path_35_1_" class="st0" d="M16.6,35.4l-1.9,4.3h-0.2l-2.1-2.1"/>
<path class="st0" d="M28.7,9.7h5.1v6.8"/>
<path class="st0" d="M33.7,42.3v3.5H4.5v-9.4V9.7h5.1"/>
<g id="Group_9_1_" transform="translate(7.282)">
	<path id="Path_39_1_" class="st0" d="M15.3,5.3V4.7c0-1.8-1.3-3.4-3.1-3.6S8.7,2.3,8.5,4.2l0,0c0,0.1,0,0.2,0,0.3v0.9H5
		C3.5,5.5,2.4,6.6,2.4,8v3.5h18.9V7.9c0-1.5-1.1-2.6-2.5-2.6H15.3z"/>
	<line id="Line_51_1_" class="st0" x1="11.8" y1="3.7" x2="11.8" y2="5.3"/>
</g>
<g id="Group_595_1_" transform="translate(20.533 14.845)">
	<g id="Group_302_1_">
		<path id="Path_447_1_" class="st0" d="M13.2,21c-0.4,0.8-1.7,0.9-2.8,0.2c-1.1-0.7-1.8-1.8-1.3-2.6"/>
		<path id="Path_448_1_" class="st1" d="M11.9,18.5l7.1,3.7l1.1-2.1c-0.4-0.6-1.2-1.1-1-2.2c0.4-2,1.2-3.1,2.7-5.8
			c1.6-2.7,0.6-6.1-2.1-7.6s-6.1-0.6-7.6,2.1c0,0.1-0.1,0.1-0.1,0.2l0,0c-1.6,2.7-2,4-3.5,5.5c-0.9,0.8-1.8,0.4-2.5,0.3l-1.1,2.1
			L11.9,18.5z"/>
	</g>
</g>
<line class="st1" x1="41.1" y1="17.3" x2="40.1" y2="18.9"/>
</svg>
