<svg xmlns="http://www.w3.org/2000/svg" xmlns:xlink="http://www.w3.org/1999/xlink" id="Layer_1" x="0" y="0" enable-background="new 0 0 97 288" version="1.1" viewBox="0 0 97 288" xml:space="preserve"><style type="text/css"/><g><path d="M37.6,56.5L1.7,110.8c-2.2,3.9-2.2,8.6,0.1,12.5c2.2,3.8,6.4,6.2,10.8,6.2H36v95.9c0,6.9,5.6,12.5,12.5,12.5 S61,232.2,61,225.3v-95.9h23.4c4.5,0,8.6-2.4,10.8-6.2c1.1-1.9,1.7-4.1,1.7-6.3c0-2.1-0.5-4.3-1.6-6.2l-36-54.3 c-2.2-3.9-6.4-6.3-10.9-6.3S39.8,52.5,37.6,56.5z"/></g></svg>