<svg xmlns="http://www.w3.org/2000/svg" xmlns:xlink="http://www.w3.org/1999/xlink" id="Layer_1" x="0" y="0" enable-background="new 0 0 187 288" version="1.1" viewBox="0 0 187 288" xml:space="preserve"><style type="text/css"/><g><path d="M3.9,151.7c0.3,0.3,0.6,0.7,0.9,1L68.1,216c4.9,4.9,12.8,4.9,17.7,0s4.9-12.8,0-17.7L43.5,156h130 c6.9,0,12.5-5.6,12.5-12.5s-5.6-12.5-12.5-12.5h-130l42.3-42.3c4.9-4.9,4.9-12.8,0-17.7c-2.4-2.4-5.6-3.7-8.8-3.7s-6.4,1.2-8.8,3.7 L4.6,134.6C-0.2,139.4-0.4,146.8,3.9,151.7z"/></g></svg>