<svg xmlns="http://www.w3.org/2000/svg" xmlns:xlink="http://www.w3.org/1999/xlink" id="Layer_1" x="0" y="0" enable-background="new 0 0 188 288" version="1.1" viewBox="0 0 188 288" xml:space="preserve"><style type="text/css"/><g><path d="M181.5,132.8l-54.3-35.9c-3.9-2.2-8.6-2.2-12.5,0.1c-3.8,2.2-6.2,6.4-6.2,10.8v23.4H12.7c-6.9,0-12.5,5.6-12.5,12.5 c0,6.9,5.6,12.5,12.5,12.5h95.9v23.4c0,4.5,2.4,8.6,6.2,10.8c1.9,1.1,4.1,1.7,6.3,1.7c2.1,0,4.3-0.5,6.2-1.6l54.3-36 c3.9-2.2,6.3-6.4,6.3-10.9S185.5,135,181.5,132.8z"/></g></svg>