<svg xmlns="http://www.w3.org/2000/svg" xmlns:xlink="http://www.w3.org/1999/xlink" id="Layer_1" x="0" y="0" enable-background="new 0 0 154 288" version="1.1" viewBox="0 0 154 288" xml:space="preserve"><style type="text/css"/><g><path d="M85.8,234.1c0.3-0.3,0.7-0.6,1-0.9l63.3-63.3c4.9-4.9,4.9-12.8,0-17.7s-12.8-4.9-17.7,0l-42.3,42.3v-130 c0-6.9-5.6-12.5-12.5-12.5s-12.5,5.6-12.5,12.5v130l-42.3-42.3c-4.9-4.9-12.8-4.9-17.7,0c-2.4,2.4-3.7,5.6-3.7,8.8s1.2,6.4,3.7,8.8 l63.6,63.6C73.5,238.2,80.9,238.4,85.8,234.1z"/></g></svg>