<svg xmlns="http://www.w3.org/2000/svg" xmlns:xlink="http://www.w3.org/1999/xlink" id="Layer_1" x="0" y="0" enable-background="new 0 0 97 288" version="1.1" viewBox="0 0 97 288" xml:space="preserve"><style type="text/css"/><g><path d="M59.7,231.5l35.9-54.3c2.2-3.9,2.2-8.6-0.1-12.5c-2.2-3.8-6.4-6.2-10.8-6.2H61.3V62.7c0-6.9-5.6-12.5-12.5-12.5 s-12.5,5.6-12.5,12.5v95.9H12.9c-4.5,0-8.6,2.4-10.8,6.2c-1.1,1.9-1.7,4.1-1.7,6.3c0,2.1,0.5,4.3,1.6,6.2l36,54.3 c2.2,3.9,6.4,6.3,10.9,6.3S57.5,235.5,59.7,231.5z"/></g></svg>