<?xml version="1.0" encoding="utf-8"?>
<!-- Generator: Adobe Illustrator 24.0.3, SVG Export Plug-In . SVG Version: 6.00 Build 0)  -->
<svg version="1.1" id="Layer_1" xmlns="http://www.w3.org/2000/svg" xmlns:xlink="http://www.w3.org/1999/xlink" x="0px" y="0px"
	 viewBox="0 0 454.1 288" style="enable-background:new 0 0 454.1 288;" xml:space="preserve">
<style type="text/css">
	.st0{fill:#FFFFFF;}
	.st1{fill:none;}
	.st2{fill:#010101;}
	.st3{fill-rule:evenodd;clip-rule:evenodd;fill:#010101;}
	.st4{fill:#020202;}
	.st5{fill:#1A1A1A;}
	.st6{fill:none;stroke:#000000;stroke-width:18;stroke-miterlimit:10;}
	.st7{fill:none;stroke:#000000;stroke-width:18;stroke-linecap:round;stroke-miterlimit:10;}
</style>
<g>
	<path d="M60.5,65.4L1,232.4h37l12-34.4h61.5l10.6,34.4h37.6l-58.9-167H60.5z M59,169.2L80.8,103l20.9,66.2H59z"/>
	<path d="M284.3,158.1c-2.3-3.4-5.1-6.1-8.4-8.4c-3.2-2.3-6.8-4.2-10.4-5.6c-6.8-2.7-13.9-5.2-21.8-7.5c-7.7-2.2-17.1-4.4-27.8-7
		c-9.1-2-15.6-4.8-19.7-8.1c-4.2-3.4-6.1-7.5-6.1-12.3c0-13.5,10-20.3,29.7-20.3c10.9,0,18.9,2.3,24.2,6.5
		c5.2,4.3,8.2,10.5,9.1,19.2v0.3h0.4v-1.4h32.8c-0.4-8.4-2.3-15.9-5.3-22.5c-2.9-6.6-7.5-12.4-13.3-17.2
		c-5.8-4.7-12.8-8.6-20.9-11.1c-8-2.5-17.2-3.9-27.2-3.9c-10.3,0-19.5,1.4-27,3.9c-7.6,2.5-13.9,6.2-19.2,10.6
		c-5.2,4.4-9.1,9.4-11.6,15.6s-3.9,12.5-3.9,19.5c0,8.9,1.4,16.3,4.2,22.2c2.7,5.8,7.2,10.8,13.3,14.9c6.1,4.3,13.5,7.6,23,10.4
		c9.5,2.8,20.4,5.3,33.2,8.1c5.3,1.1,9.7,2.5,13,3.9c3.4,1.6,5.9,3,7.8,4.9c2,1.6,3.3,3.8,3.9,6.1c0.8,2.2,1,4.7,1,7.5
		c0,7-3,12.5-8.6,16.5c-5.6,4.2-13.9,6.1-25.1,6.1c-10.3,0-18.9-2.5-25.6-7.5c-6.8-4.9-10.1-11.5-10.4-20.3h-33.7
		c0.9,18.2,7.2,32.2,19.5,41.6c12.3,9.4,30.6,14.2,54.8,14.2c8.6,0,16.6-1,24.4-3.3c7.6-2.3,14.6-5.6,20.1-9.7
		c5.8-4.2,10.4-9.5,13.7-15.6c3.3-6.1,4.9-13.3,4.9-21.4c0-6.6-0.5-12.2-1.9-17C288.5,165.5,286.6,161.4,284.3,158.1z"/>
	<path d="M451.8,142.5h-69.5v27.8l36.5,0l0.3,0c0,0,0,0,0,0h0.2c0,1.9-0.1,3.8-0.4,5.7c-0.1,0.6-0.2,1.2-0.3,1.8
		c-0.4,1.8-0.9,3.6-1.6,5.4c-0.2,0.6-0.5,1.2-0.8,1.8c-1.9,4.8-5.1,8.7-8.6,12.3c-3.5,3.2-7.1,5.5-11.3,7.6
		c-0.4,0.2-0.9,0.4-1.3,0.6c-0.1,0.1-0.2,0.1-0.3,0.2c-3.6,1.6-10.3,6-26.9,6c-4.4,0-9.5-0.3-15.3-1c-28.3-3.9-48.9-27.8-50.8-30.2
		c0.2,0.6,0.3,1.1,0.5,1.7c0.1,0.2,0.2,0.4,0.2,0.6c2.4,7.6,6,14.9,10.3,21.3c0.2,0.3,0.4,0.5,0.6,0.8c0.3,0.5,0.7,1,1,1.5
		c0.6,0.9,1.3,1.8,2,2.7c0.1,0.1,0.2,0.2,0.2,0.3c0.3,0.4,0.7,0.9,1,1.3c1.7,2,3.5,4,5.4,5.9c5.6,5.6,11.8,10.3,18.7,14
		c9.1,4.9,19.7,7.5,31.1,7.5s21.8-1.9,30.6-5.8c8.8-3.9,15.4-9.4,19.4-16.3l0.9,16.4h28.4v0l0.4,0v-89.9H451.8z"/>
	<path d="M308.5,174.9c0.1,0.1,0.2,0.2,0.3,0.3c0.7,0.8,1.1,1.3,1.1,1.3l0.1,0c5.2,5.7,22.2,22.3,43.6,25.3c0.7,0.1,1.4,0.2,2.2,0.2
		c-4.9-3.2-9-7.5-12.4-12.3c-3.9-5.6-6.7-11.9-8.4-18.9s-2.5-13.9-2.5-20.9c0-20,4.4-34.9,12.8-45.6c8.6-10.3,19.7-15.6,33.9-15.6
		c4.8,0,9.2,0.9,13.7,2.3c4.4,1.6,8.2,3.7,11.6,6.1c3.4,2.4,6.1,5.6,8.4,8.9c2,3.3,3.3,6.8,3.9,10.8h35.1c-0.9-8.4-3-16.1-7-23
		c-3.9-7-9.2-13.2-15.6-18.1c-6.3-4.9-13.9-8.9-22.5-11.6c-8.6-2.8-17.8-4.2-27.8-4.2c-13.7,0-25.3,2.2-35.7,7
		c-10.3,4.3-18.6,10.8-25.6,18.9c-6.8,8.1-12,17.6-15.6,28.4c-3.5,10.2-5.1,20.9-5.3,32.4c0.2,3.2,0.7,6.8,1.7,10.3
		c0,0.1,0.1,0.2,0.1,0.4c2.9,8.3,7.5,14.8,9.8,17.7C308.4,174.8,308.4,174.9,308.5,174.9z"/>
</g>
</svg>
