<?xml version="1.0" encoding="utf-8"?>
<!-- Generator: Adobe Illustrator 27.1.1, SVG Export Plug-In . SVG Version: 6.00 Build 0)  -->
<svg version="1.1" id="Layer_1" xmlns="http://www.w3.org/2000/svg" xmlns:xlink="http://www.w3.org/1999/xlink" x="0px" y="0px"
	 viewBox="0 0 273.6 273.6" style="enable-background:new 0 0 273.6 273.6;" xml:space="preserve">
<style type="text/css">
	.st0{fill:none;}
	.st1{fill:#FFFFFF;}
</style>
<g>
	<path d="M195.3,22.2L195.3,22.2L195.3,22.2 M191,26.5l56.1,56.1L82.6,247.1L26.5,191L191,26.5 M191,0c-4.6,0-9.2,1.8-12.7,5.3
		L5.3,178.3c-7,7-7,18.4,0,25.5l64.6,64.6c3.5,3.5,8.1,5.3,12.7,5.3s9.2-1.8,12.7-5.3l173-173c7-7,7-18.4,0-25.5L203.8,5.3
		C200.3,1.8,195.7,0,191,0L191,0L191,0z"/>
</g>
<g>
	<path d="M131.4,81.7L131.4,81.7L131.4,81.7 M129.3,83.8l60.6,60.6l-45.6,45.6l-60.6-60.6L129.3,83.8 M129.3,69.9
		c-2.5,0-5,0.9-6.9,2.9l-49.7,49.7c-3.8,3.8-3.8,10,0,13.8l64.7,64.7c1.9,1.9,4.4,2.9,6.9,2.9s5-0.9,6.9-2.9l49.7-49.7
		c3.8-3.8,3.8-10,0-13.8l-64.7-64.7C134.3,70.8,131.8,69.9,129.3,69.9C129.3,69.9,129.3,69.9,129.3,69.9z"/>
</g>
<path class="st0" d="M194.1,97.9c-1.5,0-2.8,1.3-2.8,2.8s1.3,2.8,2.8,2.8s2.8-1.3,2.8-2.8S195.6,97.9,194.1,97.9z M194.1,102.7
	c-1.1,0-2-0.9-2-2c0-1.1,0.9-2,2-2s2,0.9,2,2C196.1,101.8,195.2,102.7,194.1,102.7z"/>
<path class="st0" d="M194.1,55.5c-1.5,0-2.8,1.3-2.8,2.8s1.3,2.8,2.8,2.8s2.8-1.3,2.8-2.8S195.6,55.5,194.1,55.5z M194.1,60.3
	c-1.1,0-2-0.9-2-2s0.9-2,2-2s2,0.9,2,2S195.2,60.3,194.1,60.3z"/>
<path class="st0" d="M172.8,76.7c-1.5,0-2.8,1.3-2.8,2.8s1.3,2.8,2.8,2.8s2.8-1.3,2.8-2.8S174.4,76.7,172.8,76.7z M172.9,81.5
	c-1.1,0-2-0.9-2-2s0.9-2,2-2c1.1,0,2,0.9,2,2S174,81.5,172.9,81.5z"/>
<path class="st0" d="M215.3,76.7c-1.5,0-2.8,1.3-2.8,2.8s1.3,2.8,2.8,2.8s2.8-1.3,2.8-2.8S216.8,76.7,215.3,76.7z M215.3,81.5
	c-1.1,0-2-0.9-2-2s0.9-2,2-2c1.1,0,2,0.9,2,2S216.4,81.5,215.3,81.5z"/>
<circle cx="194.1" cy="58.3" r="2"/>
<circle cx="193.6" cy="58.3" r="6.8"/>
<circle cx="194.1" cy="100.7" r="2"/>
<circle cx="193.6" cy="100.7" r="6.8"/>
<circle cx="172.9" cy="79.5" r="2"/>
<circle cx="172.8" cy="79.5" r="6.8"/>
<circle cx="215.3" cy="79.5" r="2"/>
<circle cx="215.3" cy="79.5" r="6.8"/>
<circle cx="193.6" cy="79.5" r="6.8"/>
<circle class="st1" cx="79" cy="172.9" r="2"/>
<circle cx="79" cy="172.8" r="6.8"/>
<circle class="st1" cx="79" cy="215.3" r="2"/>
<circle cx="79" cy="215.3" r="6.8"/>
<circle class="st1" cx="58.3" cy="194.1" r="2"/>
<circle cx="58.3" cy="194.1" r="6.8"/>
<circle class="st1" cx="100.7" cy="194.1" r="2"/>
<circle cx="100.7" cy="194.1" r="6.8"/>
<circle class="st1" cx="79" cy="194.1" r="2"/>
<circle cx="79" cy="194.1" r="6.8"/>
</svg>
