<svg xmlns="http://www.w3.org/2000/svg" xmlns:xlink="http://www.w3.org/1999/xlink" id="Layer_1" x="0" y="0" enable-background="new 0 0 235.9 288" version="1.1" viewBox="0 0 235.9 288" xml:space="preserve"><style type="text/css"/><g><path d="M223.5,263.4H11.5c-6.6,0-12,5.4-12,12s5.4,12,12,12h211.9c6.6,0,12-5.4,12-12S230.1,263.4,223.5,263.4z"/><path d="M229.3,101.1c0-6.6-5.4-12-12-12H18.9c-6.6,0-12,5.4-12,12s5.4,12,12,12h23.5c-0.1,0.8-0.2,1.6-0.2,2.5v111 c0,0.2,0,0.4,0,0.5H18.9c-6.6,0-12,5.4-12,12s5.4,12,12,12h198.4c6.6,0,12-5.4,12-12s-5.4-12-12-12H194c0-0.2,0-0.3,0-0.5v-111 c0-0.8-0.1-1.7-0.2-2.5h23.5C223.9,113.1,229.3,107.7,229.3,101.1z M74,113.1h28.3c-0.1,0.8-0.2,1.6-0.2,2.5v111c0,0.2,0,0.4,0,0.5 h-28c0-0.2,0-0.3,0-0.5v-111C74.2,114.7,74.1,113.9,74,113.1z M162.1,227.1h-28c0-0.2,0-0.3,0-0.5v-111c0-0.8-0.1-1.7-0.2-2.5h28.3 c-0.1,0.8-0.2,1.6-0.2,2.5v111C162,226.8,162,226.9,162.1,227.1z"/><path d="M4.8,75.8c0.1,0,0.2,0,0.4,0h224.6l0,0c0.2,0,0.3,0,0.5,0c2.7,0,4.9-2.2,4.9-4.9c0-1.5-0.7-2.9-1.8-3.8l0-0.1L121.9,1.4 c-3-1.5-6.5-1.5-9.5,0L2.9,66.4c-1.8,0.7-3,2.5-3,4.6C-0.2,73.6,2.1,75.8,4.8,75.8z"/></g></svg>