<svg xmlns="http://www.w3.org/2000/svg" xmlns:xlink="http://www.w3.org/1999/xlink" id="Layer_1" x="0" y="0" enable-background="new 0 0 229.3 288" version="1.1" viewBox="0 0 229.3 288" xml:space="preserve"><style type="text/css"/><g><g><path d="M115,285.9c16.4,0,29.6-10.6,29.6-23.7H85.3C85.4,275.3,98.7,285.9,115,285.9z"/></g><g><path d="M222.8,204.2c-0.5-0.3-1.1-0.6-1.7-1c-5.2-2.9-13.8-7.8-16-15.1c-5.6-17.9-5.5-33.1-5.4-60.7c0-3.9,0-8,0-12.4 c0-41.2-29.6-75.6-68.7-83.1c0-0.2,0-0.5,0-0.7V15.6c0-7.1-5.8-12.9-12.9-12.9h-8.3c-7.1,0-12.9,5.8-12.9,12.9v15.6 c0,0.4,0,0.8,0.1,1.1C59,40.6,30.5,74.5,30.5,115c0,4.9,0,9.4,0,13.7c0.1,26.9,0.2,41.8-5.3,59.4c-2.3,7.4-10.9,12.3-16,15.2 c-0.6,0.3-1.1,0.6-1.6,0.9c-4.1,2.4-6.7,6.9-6.7,11.6v23.7c0,7.4,6,13.5,13.5,13.5H216c7.4,0,13.5-6,13.5-13.5v-23.7 C229.5,211,226.9,206.6,222.8,204.2z M202.5,226H27.9v-2.5c7.9-5,18.7-13.5,23-27.4c6.7-21.6,6.6-38.9,6.5-67.5 c0-4.2,0-8.8,0-13.6c0-31.8,25.9-57.7,57.7-57.7s57.7,25.9,57.7,57.7c0,4.3,0,8.4,0,12.3c-0.1,29.3-0.2,47,6.6,68.8 c4.4,14,15.2,22.4,23.2,27.4L202.5,226L202.5,226z"/></g></g></svg>