<svg xmlns="http://www.w3.org/2000/svg" xmlns:xlink="http://www.w3.org/1999/xlink" id="Layer_1" x="0" y="0" enable-background="new 0 0 336.5 288" version="1.1" viewBox="0 0 336.5 288" xml:space="preserve"><style type="text/css"/><g><path d="M132,36.8c0.5-9.5,0.9-21.9-7.6-29.2c-7.1-6-20.1-8.5-35.2-2.6C75.8,10.3,75,32.3,75,32.3s8.4-3.7,25.5-4.2 C117.6,27.6,132,36.8,132,36.8z"/><path d="M236.1,28.1c17.1,0.5,25.5,4.2,25.5,4.2S260.8,10.2,247.4,5c-15.1-5.9-28.1-3.4-35.2,2.6c-8.5,7.3-8.1,19.7-7.6,29.2 C204.5,36.8,219,27.6,236.1,28.1z"/></g><path d="M319.4,150c-4.3-17.7-25.9-28.3-25.9-28.3s-3.6-35.1-5.5-46.7c-1.2-7.7-3.1-15.3-17.7-25.9c-14.5-10.6-46.3-9.4-59.3-3.5	c-13,5.9-19.2,13-22,18.9c-2.7,5.9-2,19.2-2,19.2s-10.6-4-19.6-4v0c-8.8,0.2-18.7,4-18.7,4s0.8-13.4-2-19.2c-2.7-5.9-9-13-22-18.9	c-13-5.9-44.8-7.1-59.3,3.5C50.8,59.7,48.9,67.2,47.7,75c-1.9,11.6-5.5,46.7-5.5,46.7S20.6,132.3,16.3,150	C12,167.7,2.9,208.3,1.4,228.2c-0.5,6.9,0.4,17.7,6.3,27.1c5.9,9.4,27.1,29.5,57.2,30.5c28.4,0.9,53.2-12.9,62.2-21	c6.5-5.9,11.8-15.3,14.5-25.9c2.7-10.6,0.8-33,0.8-33s12,6,25.8,6l0,0c13.5-0.2,25.2-6,25.2-6s-1.7,22.3,0.8,33	c2.6,11.3,11.2,22.6,14.5,25.9c5.3,5.2,28.3,24.6,63.9,21.7c28.3-2.3,49.6-21.7,55.5-31.1c5.9-9.4,6.8-20.2,6.3-27.1	C332.8,208.3,323.7,167.6,319.4,150z M72.1,266.9c-28.8,0-52.1-15.8-52.1-35.3s23.3-35.3,52.1-35.3c28.8,0,52.1,15.8,52.1,35.3	S100.9,266.9,72.1,266.9z M167.6,193.8c-12.4,0-22.5-6.8-22.5-15.1c0-8.4,10.1-15.1,22.5-15.1c12.4,0,22.5,6.8,22.5,15.1	C190,187,180,193.8,167.6,193.8z M263.5,266.9c-28.8,0-52.1-15.8-52.1-35.3s23.3-35.3,52.1-35.3s52.1,15.8,52.1,35.3	S292.3,266.9,263.5,266.9z"/></svg>