<svg xmlns="http://www.w3.org/2000/svg" xmlns:xlink="http://www.w3.org/1999/xlink" id="Layer_1" x="0" y="0" enable-background="new 0 0 216.9 288" version="1.1" viewBox="0 0 216.9 288" xml:space="preserve"><style type="text/css"/><path d="M128.5,23.3l-28,85.5h91.7L90.3,263.7l27.1-118H24.3L53.7,23.8L128.5,23.3 M128.5-0.7c-0.1,0-0.1,0-0.2,0L53.5-0.2	C42.5-0.1,33,7.4,30.4,18.2L1,140c-1.7,7.2-0.1,14.7,4.5,20.5c4.6,5.8,11.5,9.2,18.9,9.2h63l-20.4,88.6c-2.6,11.3,3.3,22.9,14,27.4	c3.1,1.3,6.3,1.9,9.4,1.9c7.9,0,15.5-3.9,20.1-10.8l101.9-154.9c4.8-7.4,5.3-16.8,1.1-24.6S201,84.8,192.2,84.8h-58.6l17.7-54	c2.4-7.3,1.1-15.4-3.4-21.6C143.4,2.9,136.1-0.7,128.5-0.7L128.5-0.7z"/></svg>