<svg id="_Layer_" data-name="&lt;Layer&gt;" xmlns="http://www.w3.org/2000/svg" viewBox="0 0 324.33 288">
  <g>
    <path d="M245.08,75.84a9,9,0,0,0-12.6,1.83l-19.21,25.7A9,9,0,0,0,215.1,116a9,9,0,0,0,12.59-1.83l19.21-25.7A9,9,0,0,0,245.08,75.84Z"/>
    <path d="M268.37,89a9,9,0,1,0-17.91,1.75l3.12,31.93a9,9,0,0,0,8.94,8.13,8.83,8.83,0,0,0,.89,0,9,9,0,0,0,8.08-9.84Z"/>
    <path d="M244.8,51.14a9,9,0,0,0,9,8.25l.76,0a9,9,0,0,0,8.22-9.72l-2.67-32a9,9,0,1,0-17.94,1.5Z"/>
    <path d="M273.46,66.34a9,9,0,0,0,5.65-2l25-20.17a9,9,0,0,0-11.32-14l-25,20.16a9,9,0,0,0,5.66,16Z"/>
    <path d="M310.89,85.86,282.62,70.69a9,9,0,1,0-8.51,15.86l28.27,15.17a9,9,0,1,0,8.51-15.86Z"/>
    <path d="M243.19,66.83a9,9,0,0,0-1.75-12.6c-17.07-12.9-28.08-14-42.43-11.66-12.63,2.1-26.7,14.38-31.89,19.28L151.73,51.24a6.52,6.52,0,0,0-9,1.65l-18.63,27a6.53,6.53,0,0,0-.72,1.45,95,95,0,1,0,53.46,38.51,6.31,6.31,0,0,0,2.28-2l18.62-27a6.51,6.51,0,0,0-1.65-9l-13.71-9.46c6.17-5.36,14.4-11.15,19.64-12,9.84-1.64,15.88-1.36,28.62,8.27A9,9,0,0,0,243.19,66.83ZM84,118.83A47.73,47.73,0,0,0,45.69,174.4a9.28,9.28,0,0,1-7.46,10.8,8.84,8.84,0,0,1-1.68.16,9.29,9.29,0,0,1-9.13-7.61,66.32,66.32,0,0,1,53.26-77.18A9.28,9.28,0,0,1,84,118.83Z"/>
  </g>
</svg>
