<?xml version="1.0" encoding="UTF-8"?>
<svg id="_Ñëîé_1" data-name="Ñëîé 1" xmlns="http://www.w3.org/2000/svg" viewBox="0 0 953.37931034 889.4137931">
  <defs>
    <style>
      .cls-1 {
        stroke-width: 0px;
      }
    </style>
  </defs>
  <path class="cls-1" d="M698.32975148,111.32414551v618.00683594l-176.37939453-157.85253906-.59863281-.53564453-.61474609-.5168457c-12.33837891-10.37414551-28.01123047-16.08764648-44.1315918-16.08764648-15.98608398,0-31.55883789,5.62976074-43.84960938,15.85217285l-.6159668.5123291-.60009766.53112793-174.45141602,154.43054199-1.92724609-614.34033203h443.16870117M733.75528859,59.32414551H219.62394093c-9.17407227,0-16.60302734,7.45214844-16.57421875,16.62634277l2.28466797,728.23059082c.02880859,9.13354492,7.44091797,16.52246094,16.57446289,16.52246094,3.87182617,0,7.62133789-1.35571289,10.59838867-3.83129883l233.5-206.70239258c3.07202148-2.55505371,6.83544922-3.83154297,10.59838867-3.83154297,3.79248047.00012207,7.58447266,1.296875,10.66650391,3.88842773l230.83544922,206.58825684c2.98681641,2.51159668,6.76416016,3.8885498,10.66650391,3.8885498h4.98120117c9.15380859,0,16.57446289-7.4206543,16.57446289-16.57434082V75.89848633c0-9.15393066-7.4206543-16.57434082-16.57446289-16.57434082h0Z"/>
</svg>