<svg xmlns="http://www.w3.org/2000/svg" xmlns:xlink="http://www.w3.org/1999/xlink" id="Layer_1" x="0" y="0" enable-background="new 0 0 288 288" version="1.1" viewBox="0 0 288 288" xml:space="preserve"><style type="text/css"/><g><path d="M36,242.8H12V45.1C12,20,32.4-0.3,57.4-0.3h167.5c12.1,0,22,9.9,22,22v190c0,12.1-9.9,22-22,22v-24c-1.1,0-2,0.9-2,2V23.7 H57.4C45.6,23.7,36,33.3,36,45.1V242.8z"/></g><g><rect width="24" height="201.9" x="61.7" y="18.1"/></g><g><path d="M187.9,106.5h-66.3c-6.6,0-12-5.4-12-12s5.4-12,12-12h66.3c6.6,0,12,5.4,12,12S194.5,106.5,187.9,106.5z"/></g><g><path d="M185.1,148.9h-66.3c-6.6,0-12-5.4-12-12s5.4-12,12-12h66.3c6.6,0,12,5.4,12,12S191.7,148.9,185.1,148.9z"/></g><g><path d="M238.7,287H54.5c-16,0-30.5-8.2-38.8-21.9c-2.5-4-3-7.5-3.5-10.2c-0.8-4.9-0.2-11-0.1-11.7c0.6-5.1,2.4-9.9,5.1-13.9 c8.5-12.3,22.5-19.7,37.4-19.7h167.5c6.6,0,12,5.4,12,12s-5.4,12-12,12H54.6c-7.1,0-13.7,3.5-17.7,9.3c-0.5,0.8-0.9,1.9-1.1,3.1 c-0.2,1.7-0.2,4.1-0.1,4.9c0.1,0.5,0.2,1.4,0.3,1.7l0,0.1c3.9,6.5,10.8,10.3,18.3,10.3h184.2c6.6,0,12,5.4,12,12 S245.3,287,238.7,287z"/></g><g><path d="M234,286c-3.7,0-7.4-1.7-9.7-5c-21.9-30.4-6.5-64-5.8-65.4c2.8-6,10-8.6,16-5.8c6,2.8,8.6,9.9,5.8,15.9 c-0.5,1.1-9.9,22.6,3.5,41.3c3.9,5.4,2.7,12.9-2.7,16.8C238.9,285.3,236.4,286,234,286z"/></g></svg>