<svg xmlns="http://www.w3.org/2000/svg" xmlns:xlink="http://www.w3.org/1999/xlink" id="Layer_1" x="0" y="0" enable-background="new 0 0 364 288" version="1.1" viewBox="0 0 364 288" xml:space="preserve"><style type="text/css"/><g><g><path d="M319.4,125c0-22-15.5-40.5-36.2-45.1V13.5c0-6.3-5.1-11.5-11.5-11.5h-24c-6.3,0-11.5,5.2-11.5,11.5V16L120.7,48.8H22.6 C10.1,48.8,0,58.9,0,71.3v109.5c0,12.4,10.1,22.6,22.6,22.6h16.6l21.6,68c3.1,9.9,12.4,16.7,22.7,16.7c0.1,0,0.3,0,0.4,0l23.1-0.4 c7.2-0.1,13.7-3.5,17.9-9.4c4.2-5.8,5.4-13.1,3.3-20l-18-54.9h15.5v-0.3l110.8,34.7c0.6,5.7,5.5,10.2,11.4,10.2h24 c6.3,0,11.5-5.2,11.5-11.5v-66.4C303.9,165.5,319.4,147,319.4,125z M24,72.8h77.6v106.6H24V72.8z M104.6,263.6l-21,0.4l-19.2-60.6 h20.5L104.6,263.6z M125.6,73.4l110.7-31.4v169.6l-110.7-34.7V73.4z M265.2,230h-10.9V20h10.9V230z M283.2,144.8v-39.6 c7.2,3.7,12.2,11.2,12.2,19.8S290.5,141.1,283.2,144.8z"/></g><g><path d="M316.6,85.4c2.3,0,4.6-0.9,6.4-2.6l22.8-22.8c3.5-3.5,3.5-9.2,0-12.7c-3.5-3.5-9.2-3.5-12.7,0L310.3,70 c-3.5,3.5-3.5,9.2,0,12.7C312,84.5,314.3,85.4,316.6,85.4z"/></g><g><path d="M355,117.1h-20.7c-5,0-9,4-9,9s4,9,9,9H355c5,0,9-4,9-9S360,117.1,355,117.1z"/></g><g><path d="M321.9,168.3c-3.5-3.5-9.2-3.5-12.7,0c-3.5,3.5-3.5,9.2,0,12.7l26.9,26.9c1.8,1.8,4.1,2.6,6.4,2.6s4.6-0.9,6.4-2.6 c3.5-3.5,3.5-9.2,0-12.7L321.9,168.3z"/></g><g><path d="M76.8,87h-29c-5,0-9,4-9,9s4,9,9,9h29c5,0,9-4,9-9S81.8,87,76.8,87z"/></g><g><path d="M76.8,117.5h-29c-5,0-9,4-9,9s4,9,9,9h29c5,0,9-4,9-9S81.8,117.5,76.8,117.5z"/></g><g><path d="M76.8,147.9h-29c-5,0-9,4-9,9s4,9,9,9h29c5,0,9-4,9-9S81.8,147.9,76.8,147.9z"/></g></g></svg>