<svg xmlns="http://www.w3.org/2000/svg" xmlns:xlink="http://www.w3.org/1999/xlink" id="Layer_1" x="0" y="0" enable-background="new 0 0 230.5 288" version="1.1" viewBox="0 0 230.5 288" xml:space="preserve"><style type="text/css"/><g><path d="M218.4,237.2H32.7c-4,0-7.2-3.2-7.2-7.2l0-180.2c0-6.6-5.2-12.3-11.8-12.4c-6.7-0.1-12.2,5.3-12.2,12v201 c0,6,4.8,10.8,10.8,10.8h206.6c6.7,0,12.1-5.5,12-12.2C230.7,242.4,225.1,237.2,218.4,237.2z"/><path d="M45.6,177.8c5.5,3.7,13,2.2,16.6-3.3l16.8-25.2l45.8,61.6c2.3,3,5.8,4.8,9.6,4.8c0.1,0,0.2,0,0.4,0 c3.9-0.1,7.5-2.1,9.7-5.4l43.4-66.1l11.7,7.5c2.7,1.7,6.2,1.9,9,0.5c2.9-1.5,4.8-4.3,4.9-7.6l-0.6-47c0.2-3.2-1.4-6.3-4.1-8 c-2.7-1.8-6.2-1.9-9.1-0.4L156.8,108c-1.4,0.7-2.6,1.9-3.4,3.1c-0.9,1.3-1.4,2.9-1.4,4.5c-0.1,3.2,1.4,6.2,4.1,8l11.7,7.5 l-33.9,51.6l-45.8-61.5c-2.3-3.1-6-4.9-9.9-4.8c-3.9,0.1-7.5,2.1-9.7,5.3l-26.3,39.4C38.6,166.6,40.1,174.1,45.6,177.8z"/></g></svg>