<svg xmlns="http://www.w3.org/2000/svg" xmlns:xlink="http://www.w3.org/1999/xlink" id="Layer_1" x="0" y="0" enable-background="new 0 0 288 288" version="1.1" viewBox="0 0 288 288" xml:space="preserve"><style type="text/css"/><g><path d="M144,0C64.5,0,0,64.5,0,144s64.5,144,144,144s144-64.5,144-144S223.5,0,144,0z M226.8,102l-96.4,100 c-6.7,6.9-17.6,7.3-24.8,1l-43.8-38.8c-5.2-4.6-5.6-12.7-0.9-17.8c4.7-5.1,12.7-5.2,17.8-0.6l38.4,34l92-95.4 c4.8-5,12.9-5.1,17.8-0.2C231.8,89.1,231.5,97.1,226.8,102z"/></g></svg>