<?xml version="1.0" encoding="utf-8"?>
<!-- Generator: Adobe Illustrator 27.1.1, SVG Export Plug-In . SVG Version: 6.00 Build 0)  -->
<svg version="1.1" id="Layer_1" xmlns="http://www.w3.org/2000/svg" xmlns:xlink="http://www.w3.org/1999/xlink" x="0px" y="0px"
	 viewBox="0 0 312 312" style="enable-background:new 0 0 312 312;" xml:space="preserve">
<path d="M289.2,12H22.8c-6,0-10.8,4.8-10.8,10.8v266.4c0,6,4.8,10.8,10.8,10.8h266.4c6,0,10.8-4.8,10.8-10.8V22.8
	C300,16.8,295.2,12,289.2,12L289.2,12L289.2,12z M125.3,196.7L230.1,88.1c2.8-2.9,6.5-4.3,10.3-4.3s7.3,1.4,10,4.1
	c5.6,5.6,5.2,14.7-0.1,20.3L140.5,222c-4,4.1-9.4,6.2-14.7,6.2c-4.8,0-9.6-1.7-13.5-5.1L62.3,179c-5.9-5.2-6.4-14.5-1-20.3
	c2.8-3,6.6-4.5,10.4-4.5c3.5,0,7.1,1.3,9.9,3.8L125.3,196.7L125.3,196.7L125.3,196.7z"/>
</svg>
