<?xml version="1.0" encoding="UTF-8"?><svg id="Layer_1" xmlns="http://www.w3.org/2000/svg" viewBox="0 0 288 288"><path d="m264,24v240H24V24h240m13.2-24H10.8C4.84,0,0,4.84,0,10.8v266.4c0,5.96,4.84,10.8,10.8,10.8h266.4c5.96,0,10.8-4.84,10.8-10.8V10.8c0-5.96-4.84-10.8-10.8-10.8h0Z"/><path d="m128.47,210.02c-7.63,7.86-20.04,8.31-28.24,1.14l-49.88-44.19c-5.92-5.24-6.38-14.46-1.02-20.27,5.35-5.81,14.46-5.92,20.27-.68l43.73,38.72,104.77-108.64c5.47-5.69,14.69-5.81,20.27-.23,5.58,5.58,5.24,14.69-.11,20.27l-109.78,113.88Z"/></svg>