<svg xmlns="http://www.w3.org/2000/svg" xmlns:xlink="http://www.w3.org/1999/xlink" id="Layer_1" x="0" y="0" enable-background="new 0 0 355 288" version="1.1" viewBox="0 0 355 288" xml:space="preserve"><style type="text/css"/><g><rect width="26.6" height="23" x="98.5" y="182.1"/></g><g><rect width="26.6" height="23" x="98.5" y="137.6"/></g><g><rect width="26.6" height="23" x="98.5" y="93"/></g><path d="M340.3,259.7l-44.5,0V122.9c0-6-4.9-10.9-10.9-10.9H175.3V51.4c0-5.9-4.7-10.6-10.6-10.6H58.9c-5.9,0-10.6,4.7-10.6,10.6	v208.3l-34.6,0c-6.9,0-12.8,5.4-12.9,12.3c-0.1,7,5.5,12.7,12.5,12.7h327.4c7,0,12.6-5.7,12.5-12.7	C353.1,265.1,347.2,259.7,340.3,259.7z M201.6,137.6h26.6v23h-26.6V137.6z M150.3,112h-5.1c-5.8,0-10.5,4.7-10.5,10.5v137.2H73.2	V69.3c0-2,1.6-3.5,3.5-3.5h69.9c2,0,3.5,1.6,3.5,3.5L150.3,112L150.3,112z M186.4,205.1h-26.6v-23h26.6V205.1z M186.4,160.6h-26.6	v-23h26.6V160.6z M201.6,182.2h26.6v23h-26.6V182.2z M231.1,257.3h-30.7v-34.6h30.7V257.3z M270,205.1h-26.6v-23H270V205.1z M270,160.6h-26.6v-23H270V160.6z"/></svg>