<svg xmlns="http://www.w3.org/2000/svg" xmlns:xlink="http://www.w3.org/1999/xlink" id="Layer_1" x="0" y="0" enable-background="new 0 0 218.7 288" version="1.1" viewBox="0 0 218.7 288" xml:space="preserve"><style type="text/css"/><g><g><path d="M144.3,21.9H136c-2.5-12.3-13.3-21.5-26.3-21.5S85.9,9.6,83.4,21.9h-8.3C66.2,21.9,59,29.1,59,38v42.7 c0,3,2.4,5.4,5.4,5.4H155c3,0,5.4-2.4,5.4-5.4V38C160.4,29.1,153.2,21.9,144.3,21.9z M109.7,38c-5.9,0-10.7-4.8-10.7-10.7 s4.8-10.7,10.7-10.7s10.7,4.8,10.7,10.7S115.6,38,109.7,38z"/></g><g><path d="M187.9,288h-157c-16.8,0-30.5-13.7-30.5-30.5v-194C0.4,46.7,14.1,33,30.9,33h32.3v24H30.9c-3.6,0-6.5,2.9-6.5,6.5v194 c0,3.6,2.9,6.5,6.5,6.5h157c3.6,0,6.5-2.9,6.5-6.5v-194c0-3.6-2.9-6.5-6.5-6.5h-32.3V33h32.3c16.8,0,30.5,13.7,30.5,30.5v194 C218.4,274.3,204.7,288,187.9,288z"/></g><g><path d="M169.5,215.3h-68.7c-5,0-9-4-9-9s4-9,9-9h68.7c5,0,9,4,9,9S174.4,215.3,169.5,215.3z"/></g><g><path d="M169.5,149.3h-68.7c-5,0-9-4-9-9s4-9,9-9h68.7c5,0,9,4,9,9S174.4,149.3,169.5,149.3z"/></g><g><path d="M52.3,158.5c-0.2,0-0.5,0-0.7,0c-2.9-0.2-5.6-1.9-7.1-4.4L36,139.5c-2.5-4.3-1.1-9.8,3.2-12.3c4.3-2.5,9.8-1.1,12.3,3.2 l2,3.4l17.3-21.2c3.1-3.9,8.8-4.4,12.7-1.3c3.9,3.1,4.4,8.8,1.3,12.7l-25.5,31.3C57.6,157.3,55,158.5,52.3,158.5z"/></g></g><g><path d="M52.3,223.1c-0.2,0-0.5,0-0.7,0c-2.9-0.2-5.6-1.9-7.1-4.4L36,204.2c-2.5-4.3-1.1-9.8,3.2-12.3c4.3-2.5,9.8-1.1,12.3,3.2 l2,3.4l17.3-21.2c3.1-3.9,8.8-4.4,12.7-1.3c3.9,3.1,4.4,8.8,1.3,12.7l-25.5,31.3C57.6,221.9,55,223.1,52.3,223.1z"/></g></svg>