<svg xmlns="http://www.w3.org/2000/svg" xmlns:xlink="http://www.w3.org/1999/xlink" id="Layer_1" x="0" y="0" enable-background="new 0 0 218.7 288" version="1.1" viewBox="0 0 218.7 288" xml:space="preserve"><style type="text/css"/><g><g><path d="M144.4,21.9h-8.3c-2.5-12.3-13.3-21.5-26.3-21.5S86,9.6,83.5,21.9h-8.3c-8.9,0-16.1,7.2-16.1,16.1v42.7 c0,3,2.4,5.4,5.4,5.4h90.7c3,0,5.4-2.4,5.4-5.4V38C160.6,29.1,153.3,21.9,144.4,21.9z M109.9,38c-5.9,0-10.7-4.8-10.7-10.7 s4.8-10.7,10.7-10.7s10.7,4.8,10.7,10.7S115.8,38,109.9,38z"/></g><g><path d="M188.1,287.9h-157c-16.8,0-30.5-13.7-30.5-30.5v-194C0.6,46.7,14.3,33,31.1,33h32.3v24H31.1c-3.6,0-6.5,2.9-6.5,6.5v194 c0,3.6,2.9,6.5,6.5,6.5h157c3.6,0,6.5-2.9,6.5-6.5v-194c0-3.6-2.9-6.5-6.5-6.5h-32.3V33h32.3c16.8,0,30.5,13.7,30.5,30.5v194 C218.6,274.2,204.9,287.9,188.1,287.9z"/></g></g></svg>