<svg xmlns="http://www.w3.org/2000/svg" xmlns:xlink="http://www.w3.org/1999/xlink" id="Layer_1" x="0" y="0" enable-background="new 0 0 359 288" version="1.1" viewBox="0 0 359 288" xml:space="preserve"><style type="text/css"/><g><path d="M236.8,161.9c0-18.3,0-18.4,0-36.8l-23.6-8.4c-1.9-7.3-4.9-14.3-8.5-20.7l10.7-22.5c-13-13-13-13-26-26l-22.5,10.7 c-6.4-3.6-13.4-6.5-20.7-8.5L137.6,26c-18.3,0-18.4,0-36.8,0l-8.4,23.6c-7.3,1.9-14.3,4.9-20.7,8.5L49.3,47.4c-13,13-13,13-26,26 L34,96c-3.6,6.4-6.5,13.4-8.5,20.7l-23.6,8.4c0,18.3,0,18.4,0,36.8l23.6,8.4c1.9,7.3,4.9,14.3,8.5,20.7l-10.7,22.5 c13,13,13,13,26,26l22.5-10.7c6.4,3.6,13.4,6.5,20.7,8.5L101,261c18.3,0,18.4,0,36.8,0l8.4-23.6c7.3-1.9,14.3-4.9,20.7-8.5 l22.5,10.7c13-13,13-13,26-26L204.8,191c3.6-6.4,6.5-13.4,8.5-20.7L236.8,161.9z M119.4,189.5c-25.4,0-45.9-20.6-45.9-45.9 s20.6-45.9,45.9-45.9c25.4,0,45.9,20.6,45.9,45.9S144.8,189.5,119.4,189.5z"/></g><g><path d="M358,77.8c0-10.4,0-10.5,0-20.8l-13.4-4.8c-1.1-4.2-2.8-8.1-4.8-11.8l6.1-12.8c-7.4-7.4-7.4-7.4-14.8-14.8l-12.8,6.1 c-3.6-2-7.6-3.7-11.8-4.8l-4.8-13.4c-10.4,0-10.5,0-20.8,0l-4.8,13.4c-4.2,1.1-8.1,2.8-11.8,4.8l-12.7-6.1 c-7.4,7.4-7.4,7.4-14.8,14.8l6.1,12.8c-2,3.6-3.7,7.6-4.8,11.8l-13.4,4.8c0,10.4,0,10.5,0,20.8l13.4,4.8c1.1,4.2,2.8,8.1,4.8,11.8 l-6.1,12.8c7.4,7.4,7.4,7.4,14.8,14.8l12.8-6.1c3.6,2,7.6,3.7,11.8,4.8L281,134c10.4,0,10.5,0,20.8,0l4.8-13.4 c4.2-1.1,8.1-2.8,11.8-4.8l12.8,6.1c7.4-7.4,7.4-7.4,14.8-14.8l-6.1-12.8c2-3.6,3.7-7.6,4.8-11.8L358,77.8z M291.4,93.4 c-14.4,0-26-11.7-26-26s11.7-26,26-26c14.4,0,26,11.7,26,26S305.8,93.4,291.4,93.4z"/></g><g><path d="M358,231.8c0-10.4,0-10.5,0-20.8l-13.4-4.8c-1.1-4.2-2.8-8.1-4.8-11.8l6.1-12.8c-7.4-7.4-7.4-7.4-14.8-14.8l-12.8,6.1 c-3.6-2-7.6-3.7-11.8-4.8l-4.8-13.4c-10.4,0-10.5,0-20.8,0l-4.8,13.4c-4.2,1.1-8.1,2.8-11.8,4.8l-12.7-6.1 c-7.4,7.4-7.4,7.4-14.8,14.8l6.1,12.8c-2,3.6-3.7,7.6-4.8,11.8l-13.4,4.8c0,10.4,0,10.5,0,20.8l13.4,4.8c1.1,4.2,2.8,8.1,4.8,11.8 l-6.1,12.8c7.4,7.4,7.4,7.4,14.8,14.8l12.8-6.1c3.6,2,7.6,3.7,11.8,4.8L281,288c10.4,0,10.5,0,20.8,0l4.8-13.4 c4.2-1.1,8.1-2.8,11.8-4.8l12.8,6.1c7.4-7.4,7.4-7.4,14.8-14.8l-6.1-12.8c2-3.6,3.7-7.6,4.8-11.8L358,231.8z M291.4,247.5 c-14.4,0-26-11.7-26-26c0-14.4,11.7-26,26-26c14.4,0,26,11.7,26,26C317.4,235.8,305.8,247.5,291.4,247.5z"/></g></svg>