<svg xmlns="http://www.w3.org/2000/svg" viewBox="0 0 287.74 288">
  <g>
    <path d="M143.27,25.8a119.16,119.16,0,0,1,119,119,119.16,119.16,0,0,1-119,119,119.16,119.16,0,0,1-119-119,119.16,119.16,0,0,1,119-119m0-25a144,144,0,1,0,144,144,144,144,0,0,0-144-144Z"/>
    <path d="M185.8,196.2a38.38,38.38,0,0,1-29.27,13.54H155v28.2a11.77,11.77,0,0,1-23.53,0v-28.2h-8.57a34,34,0,0,1-17.93-5.25,11.48,11.48,0,0,1-1.39-18.6l.5-.41a11.59,11.59,0,0,1,13.34-1,10.78,10.78,0,0,0,5.48,1.71h33.66a14.89,14.89,0,0,0,14.67-17.47c-1.14-7-8.06-12.3-16.1-12.3H129.89A38.41,38.41,0,0,1,92,111.67c3-18.27,19.87-32,39.32-32h.12V51.42a11.77,11.77,0,0,1,23.53,0V79.63h4.69a39.84,39.84,0,0,1,22.57,6.71,11.49,11.49,0,0,1,5,9.94,11.66,11.66,0,0,1-5.79,9.7l-.2.12a11.7,11.7,0,0,1-12.46-.44,16.18,16.18,0,0,0-9.13-2.5H131.32c-8,0-15,5.28-16.1,12.29a14.89,14.89,0,0,0,14.67,17.47H155.1c19.45,0,36.35,13.77,39.32,32A38.57,38.57,0,0,1,185.8,196.2Z"/>
  </g>
</svg>
