<svg xmlns="http://www.w3.org/2000/svg" xmlns:xlink="http://www.w3.org/1999/xlink" id="Layer_1" x="0" y="0" enable-background="new 0 0 267.8 288" version="1.1" viewBox="0 0 267.8 288" xml:space="preserve"><style type="text/css"/><g><path d="M199.9,1.7h-99.1c-11.7,0-21.2,9.5-21.2,21.2v17.6H21.9C10.2,40.5,0.7,50,0.7,61.7v203.4c0,11.7,9.5,21.2,21.2,21.2h146.2 c11.7,0,21.2-9.5,21.2-21.2v-17.6h57.5c11.7,0,21.2-9.5,21.2-21.2V80.7c0-1.9-0.7-3.7-1.9-5.2l-60.2-71 C204.4,2.8,202.2,1.7,199.9,1.7z M232.4,72.7l-35.9,0.1V30.5L232.4,72.7z M165.3,262.3H24.7V64.5h54.8v161.8 c0,11.7,9.5,21.2,21.2,21.2h64.6V262.3z M244,223.5H103.5V25.7h69v56c0,8.3,6.8,15.1,15.1,15.1H244V223.5z"/></g></svg>