<svg xmlns="http://www.w3.org/2000/svg" xmlns:xlink="http://www.w3.org/1999/xlink" id="Layer_1" x="0" y="0" enable-background="new 0 0 342.5 288" version="1.1" viewBox="0 0 342.5 288" xml:space="preserve"><style type="text/css"/><g><path d="M330,32.5H11.9c-6,0-10.8,4.8-10.8,10.8v209.7c0,6,4.8,10.8,10.8,10.8H330c6,0,10.8-4.8,10.8-10.8V43.3 C340.8,37.3,336,32.5,330,32.5z M316.8,56.5V81H25.1V56.5H316.8z M25.1,239.7V131h291.8v108.7H25.1z"/><path d="M236.8,156.2H57.3c-6.6,0-12,5.4-12,12s5.4,12,12,12h179.5c6.6,0,12-5.4,12-12S243.4,156.2,236.8,156.2z"/><path d="M127.6,197.1H57.3c-6.6,0-12,5.4-12,12s5.4,12,12,12h70.3c6.6,0,12-5.4,12-12S134.2,197.1,127.6,197.1z"/></g></svg>