<?xml version="1.0" encoding="utf-8"?>
<!-- Generator: Adobe Illustrator 23.1.1, SVG Export Plug-In . SVG Version: 6.00 Build 0)  -->
<svg version="1.1" id="Layer_1" xmlns="http://www.w3.org/2000/svg" xmlns:xlink="http://www.w3.org/1999/xlink" x="0px" y="0px"
	 viewBox="0 0 359.4 288" style="enable-background:new 0 0 359.4 288;" xml:space="preserve">
<style type="text/css">
	.st0{fill:#FFFFFF;}
	.st1{fill:none;}
	.st2{fill:#010101;}
	.st3{fill-rule:evenodd;clip-rule:evenodd;fill:#010101;}
	.st4{fill:#020202;}
	.st5{fill:none;stroke:#394553;stroke-width:2.5;stroke-miterlimit:10;}
	.st6{fill:none;stroke:#394553;stroke-width:2.5;stroke-linecap:round;stroke-miterlimit:10;}
	.st7{fill:none;stroke:#394553;stroke-width:2.5;stroke-linejoin:round;stroke-miterlimit:10;}
	.st8{fill:none;stroke:#000000;stroke-width:18;stroke-linecap:round;stroke-linejoin:round;stroke-miterlimit:10;}
	.st9{fill:none;stroke:#000000;stroke-width:24;stroke-linejoin:round;}
	.st10{fill:none;stroke:#000000;stroke-width:24;stroke-linecap:round;stroke-linejoin:round;}
	.st11{fill:none;stroke:#484751;stroke-width:2.6322;stroke-linecap:square;stroke-miterlimit:10;}
	
		.st12{fill-rule:evenodd;clip-rule:evenodd;fill:none;stroke:#000000;stroke-width:24;stroke-linecap:round;stroke-linejoin:round;stroke-miterlimit:10;}
	.st13{fill-rule:evenodd;clip-rule:evenodd;fill:none;stroke:#000000;stroke-width:18;stroke-miterlimit:10;}
	
		.st14{fill-rule:evenodd;clip-rule:evenodd;fill:none;stroke:#000000;stroke-width:18;stroke-linecap:round;stroke-linejoin:round;stroke-miterlimit:10;}
	
		.st15{fill-rule:evenodd;clip-rule:evenodd;fill:none;stroke:#000000;stroke-width:12;stroke-linecap:round;stroke-linejoin:round;stroke-miterlimit:10;}
	.st16{fill:none;stroke:#000000;stroke-width:30;stroke-linecap:round;stroke-miterlimit:10;}
	.st17{fill:#1A1A1A;}
</style>
<g>
	<g>
		<path d="M359.4,207.3c0-0.7,0-1.4-0.1-2.1V45.6c0-6-4.8-10.8-10.8-10.8h-337c-6,0-10.8,4.8-10.8,10.8v29.2c0,0.8-0.1,1.6-0.1,2.4
			s0,1.6,0.1,2.4v159.6c0,6,4.8,10.8,10.8,10.8h25.2c0.8,0.1,1.7,0.1,2.5,0.1c0.8,0,1.7,0,2.5-0.1h306.8c6,0,10.8-4.8,10.8-10.8
			v-29.8C359.4,208.7,359.4,208,359.4,207.3z M317.4,165.4c-23.2,0-42,18.8-42,42c0,6.7,1.6,13.1,4.4,18.7H74.8
			c1.8-4.4,2.8-9.2,2.8-14.3c0-21.2-17.2-38.3-38.3-38.3c-5.1,0-10,1-14.5,2.8v-61.1c5.4,2.6,11.5,4,17.9,4
			c23.2,0,41.9-18.8,41.9-41.9c0-6.6-1.5-12.8-4.2-18.4h199.3c-2.7,5.6-4.3,11.8-4.3,18.4c0,23.2,18.8,42,42,42
			c6.5,0,12.6-1.5,18.1-4.1v54.2C329.9,166.8,323.8,165.4,317.4,165.4z"/>
	</g>
	<path d="M179.9,67.6c-33.6,0-60.8,33.4-60.8,74.6s27.2,74.6,60.8,74.6c33.6,0,60.8-33.4,60.8-74.6S213.5,67.6,179.9,67.6z
		 M206.2,174c-4.5,5.3-11,8.3-17.9,8.3h-1v17.3c0,4-3.2,7.2-7.2,7.2s-7.2-3.2-7.2-7.2v-17.3h-5.2c-3.8,0-7.5-1.1-11-3.2
		c-2-1.2-3.2-3.2-3.3-5.5c-0.2-2.3,0.7-4.4,2.5-5.9l0.3-0.3c2.3-1.9,5.6-2.1,8.2-0.6c1.2,0.7,2.3,1,3.4,1h20.6
		c2.7,0,5.2-1.2,6.9-3.2c1.8-2.1,2.5-4.7,2-7.5c-0.7-4.3-4.9-7.5-9.8-7.5H172c-6.9,0-13.4-3-17.9-8.3c-4.5-5.3-6.4-12.2-5.3-19.1
		c1.8-11.2,12.2-19.6,24.1-19.6h0.1V85.4c0-4,3.2-7.2,7.2-7.2s7.2,3.2,7.2,7.2v17.3h2.9c5.1,0,9.9,1.4,13.8,4.1
		c2,1.4,3.2,3.6,3.1,6.1c-0.1,2.5-1.4,4.7-3.5,5.9l-0.1,0.1c-2.4,1.4-5.3,1.3-7.6-0.3c-1.5-1-3.4-1.5-5.6-1.5h-17.3
		c-4.9,0-9.2,3.2-9.8,7.5c-0.4,2.8,0.3,5.4,2,7.5c1.7,2,4.3,3.2,6.9,3.2h15.4c11.9,0,22.2,8.4,24.1,19.6
		C212.6,161.8,210.7,168.7,206.2,174z"/>
</g>
</svg>
