<svg xmlns="http://www.w3.org/2000/svg" xmlns:xlink="http://www.w3.org/1999/xlink" id="Layer_1" x="0" y="0" enable-background="new 0 0 287.1 288" version="1.1" viewBox="0 0 287.1 288" xml:space="preserve"><style type="text/css"/><g><g><path d="M275,258.1H12.4c-5.9,0-10.8-4.8-10.8-10.8v-73.8c0-6.9,5.4-12.8,12.3-12.9c7-0.1,12.7,5.5,12.7,12.5v49.2 c0,5.9,4.8,10.8,10.8,10.8H250c5.9,0,10.8-4.8,10.8-10.8v-48.8c0-6.9,5.4-12.8,12.3-12.9c7-0.1,12.7,5.5,12.7,12.5v74.2 C285.8,253.3,281,258.1,275,258.1z"/></g></g><g><g><path d="M151.9,192c0.3-0.3,0.7-0.6,1-0.9l63.3-63.3c4.9-4.9,4.9-12.8,0-17.7c-4.9-4.9-12.8-4.9-17.7,0l-42.3,42.3v-130 c0-6.9-5.6-12.5-12.5-12.5s-12.5,5.6-12.5,12.5v130l-42.3-42.3c-4.9-4.9-12.8-4.9-17.7,0c-2.4,2.4-3.7,5.6-3.7,8.8 s1.2,6.4,3.7,8.8l63.6,63.6C139.5,196.1,147,196.2,151.9,192z"/></g></g></svg>