<svg xmlns="http://www.w3.org/2000/svg" xmlns:xlink="http://www.w3.org/1999/xlink" id="Layer_1" x="0" y="0" enable-background="new 0 0 383.7 288" version="1.1" viewBox="0 0 383.7 288" xml:space="preserve"><style type="text/css"/><g><g><path d="M309.9,252.8h-10.8c-6.6,0-12-5.4-12-12s5.4-12,12-12h10.8c26.6,0,48.2-21.6,48.2-48.2c0-26.1-20.4-47.2-46.4-48.1 c-0.2,0-0.4,0-0.7,0h-0.8c-0.1,0-0.2,0-0.3,0c-0.1,0-0.2,0-0.3,0h-25.9c-3.5,0-6.9-1.5-9.1-4.2c-2.3-2.7-3.3-6.2-2.7-9.7 c0.7-4.3,1.1-8.6,1.1-12.9c0-43.4-35.3-78.7-78.7-78.7c-39.1,0-72.6,29.1-77.9,67.8c-0.8,5.9-5.9,10.3-11.9,10.3H86.2 c-0.5,0.1-1,0.1-1.5,0.1c-33.8,0.3-61.3,28-61.3,61.8c0,34.1,27.7,61.8,61.8,61.8h7.3c6.6,0,12,5.4,12,12s-5.4,12-12,12h-7.3 c-47.3,0-85.8-38.5-85.8-85.8c0-22.8,8.8-44.3,24.9-60.4C40,90.7,60.7,81.7,82.8,81.1C83.4,81,84,81,84.6,81h9.9 c5-20.3,16.1-38.7,32-52.6c18.7-16.4,42.8-25.5,67.7-25.5C250.9,2.9,297,49,297,105.6c0,0.9,0,1.9,0,2.8h12.6c0.3,0,0.6,0,0.9,0 h1.7c0.6,0,1.1,0,1.6,0.1c18.3,1,35.3,8.7,48.1,21.9c13.1,13.5,20.3,31.3,20.3,50.2C382.1,220.4,349.7,252.8,309.9,252.8z"/></g></g><g><g><g><path d="M199,283.7c0.3-0.3,0.7-0.6,1-0.9l63.3-63.3c4.9-4.9,4.9-12.8,0-17.7s-12.8-4.9-17.7,0l-42.3,42.3v-130 c0-6.9-5.6-12.5-12.5-12.5s-12.5,5.6-12.5,12.5v130L136,201.8c-4.9-4.9-12.8-4.9-17.7,0c-2.4,2.4-3.7,5.6-3.7,8.8 s1.2,6.4,3.7,8.8l63.6,63.6C186.7,287.8,194.1,288,199,283.7z"/></g></g></g></svg>