<?xml version="1.0" encoding="utf-8"?>
<!-- Generator: Adobe Illustrator 27.1.1, SVG Export Plug-In . SVG Version: 6.00 Build 0)  -->
<svg version="1.1" id="Layer_1" xmlns="http://www.w3.org/2000/svg" xmlns:xlink="http://www.w3.org/1999/xlink" x="0px" y="0px"
	 viewBox="0 0 196.1 281.4" style="enable-background:new 0 0 196.1 281.4;" xml:space="preserve">
<path d="M71.2,281.4c-15.5,0-28.4-6.9-36.4-19.6c-5.8-9.3-7-18.6-7.2-19.7l26.3-3l0-0.1c0,0,0.7,5,3.7,9.3c3.3,4.9,7.8,6.9,14.7,6.6
	c16.2-0.6,21.6-28.1,22.1-30.9c0.6-6.1,6.6-49.1,46.8-67.1c13.8-6.2,22.8-18.1,26.6-35.5c3.1-14.3,1.5-27.1,1.5-27.2l-0.1-0.9
	c0-0.1-1.3-17.9-10.6-35c-11.5-21.2-30.2-31.9-55.5-31.9c-25.8,0-46.5,11.2-61.3,33.3C29.9,77.3,26.2,95.4,26.2,95.6
	c-1.4,7.1-8.4,11.8-15.5,10.4c-7.1-1.4-11.8-8.3-10.4-15.5c0.2-0.9,4.5-22.8,19-44.7C39,15.9,68,0,103.1,0c45,0,67.9,25.4,79.2,46.7
	c10.9,20.6,13,41.1,13.3,44.5c0.3,2.9,1.8,17.8-1.7,35c-5.5,26.2-19.9,45.2-41.8,54.9c-28,12.5-31.2,44.4-31.3,45.8l-0.1,0.8
	c-0.2,1.3-2,12.7-7.8,24.7c-8.8,18.1-22.8,28.4-39.5,29C72.6,281.4,71.9,281.4,71.2,281.4z M56.1,202.4c0.9-0.2,9.3-2,17.8-6.9
	c13.1-7.6,20.3-19.2,20.3-32.5c0-9.2-3.6-22.6-20.9-33.8c-2.2-1.4-4.4-2.6-6.4-3.7c6.8-23.4,19.9-51.7,33.1-54.1
	c9.4-1.8,12.8,1.3,14,2.2c3.3,2.9,5.8,8.5,7,15.8c1.1,6.7,0.8,12.4,0.8,12.4c-0.5,7.3,5.1,13.6,12.4,14c7.3,0.5,13.6-5.1,14-12.4
	c0.2-3.4,1.6-33.5-16.7-49.6c-6.5-5.8-18.1-11.9-36.4-8.4c-17.4,3.3-32.4,19.3-44.4,47.4c-8.1,18.9-12.1,36.8-12.3,37.6
	c-1.5,6.8,2.5,13.6,9.1,15.5c4,1.2,20.3,8,20.3,17.1c0,9.5-16.6,13.4-17,13.5c-7.1,1.5-11.7,8.4-10.3,15.5
	c1.3,6.3,6.8,10.6,12.9,10.6C54.3,202.7,55.2,202.6,56.1,202.4z"/>
</svg>
