<svg xmlns="http://www.w3.org/2000/svg" xmlns:xlink="http://www.w3.org/1999/xlink" id="Layer_1" x="0" y="0" enable-background="new 0 0 288 288" version="1.1" viewBox="0 0 288 288" xml:space="preserve"><style type="text/css"/><g><path d="M286.1,55.4v10.3c0,1.6-0.7,3-2,4l-132,101.7c-5.7,4.4-13.7,4.4-19.3-0.1L4.1,70.4c-1.2-0.9-1.9-2.4-1.9-3.9V55.4 c0-5.8,4.7-10.6,10.6-10.6h262.7C281.3,44.8,286.1,49.5,286.1,55.4z"/></g><g><path d="M2.2,237.2V103.5c0-1.6,1.9-2.6,3.2-1.6L118,190.2c7.2,5.6,15.9,8.5,24.5,8.5c8.6,0,17.1-2.8,24.3-8.3l116.1-89.5 c1.3-1,3.2-0.1,3.2,1.6v134.7c0,5.8-4.7,10.6-10.6,10.6H12.8C6.9,247.7,2.2,243,2.2,237.2z"/></g></svg>