<svg xmlns="http://www.w3.org/2000/svg" xmlns:xlink="http://www.w3.org/1999/xlink" id="Layer_1" x="0" y="0" enable-background="new 0 0 320.9 288" version="1.1" viewBox="0 0 320.9 288" xml:space="preserve"><style type="text/css"/><g><g><path d="M160.4,73.5c-9,0-17.6,1.6-25.6,4.6c14.2,0.8,25.5,12.5,25.5,26.9c0,14.9-12.1,26.9-26.9,26.9s-26.9-12.1-26.9-26.9 c0-3.4,0.7-6.7,1.8-9.8C95.1,108.5,87,126.7,87,146.9c0,40.6,32.9,73.5,73.5,73.5c40.6,0,73.5-32.9,73.5-73.5 C233.9,106.3,201,73.5,160.4,73.5z"/></g><g><path d="M314.9,134c-14.4-28.7-36.4-52.9-63.6-69.9c-27.3-17-58.7-26.1-90.8-26.4h-0.2c-32.1,0.2-63.5,9.4-90.8,26.4 c-27.3,17-49.3,41.2-63.6,69.9c-4,7.9-4,17.3,0,25.1C20.3,187.8,42.3,212,69.5,229c27.3,17,58.7,26.1,90.8,26.4h0.1h0.1 c32.1-0.2,63.5-9.4,90.8-26.4c27.3-17,49.3-41.2,63.6-69.9C318.9,151.3,318.9,141.9,314.9,134z M294.4,148.8 c-12.5,25-31.6,45.9-55.2,60.7c-23.6,14.7-50.9,22.7-78.7,22.9c-27.9-0.2-55.1-8.1-78.7-22.9c-23.7-14.8-42.8-35.7-55.3-60.7 c-0.7-1.4-0.7-3,0-4.5c12.5-25,31.6-45.9,55.2-60.7c23.6-14.7,50.9-22.7,78.7-22.9c27.9,0.2,55.1,8.1,78.7,22.9 c23.7,14.8,42.8,35.7,55.2,60.7l0,0C295.1,145.7,295.1,147.4,294.4,148.8z"/></g></g></svg>