<svg xmlns="http://www.w3.org/2000/svg" xmlns:xlink="http://www.w3.org/1999/xlink" id="Layer_1" x="0" y="0" enable-background="new 0 0 321.3 288" version="1.1" viewBox="0 0 321.3 288" xml:space="preserve"><style type="text/css"/><g><g><path d="M195.9,261.7H24.7V26.5h95.8v59.2c0,8.6,7,15.6,15.6,15.6h59.8v23l24.1-23V81.9c0-2.9-1.2-5.7-3.2-7.7L147.7,5.7 c-2-2.1-4.8-3.2-7.6-3.2H23.5C10.9,2.5,0.7,12.7,0.7,25.3v237.6c0,12.6,10.2,22.8,22.8,22.8h173.7c12.6,0,22.8-10.2,22.8-22.8V222 l-24.1,6.6V261.7z M144.5,36.4l41.3,41h-41.3V36.4z"/></g><g><path d="M321,109.2c-0.9-5.4-3.6-10.6-7.8-14.8l-19-19c-9.6-9.5-23.3-10.8-31.2-2.9l-77.5,77.5c-1,1-1.7,2.1-2.1,3.4l-19.2,55.6 c-2.7,4.3-9.8,6.5-11.2,6.9c-0.4,0.1-2.9,1-4.5,1.3c-3.3,0.6-3.8,0.7-5.3,0.5c-2.2-0.5-3.6-0.9-6.8-8.8c-2.6-6.4-7-17.2-19.5-17.2 c-6.1,0-11,2.5-15,6L97,165c-0.6-4.3-4.2-7.5-8.5-7.7c-4.3-0.2-8.1,2.6-9.2,6.8c-0.1,0.2-6,23.9-13.8,44.8 c-2.8,7.5-7.2,8.3-7.9,8.3l-8.3,0c-5,0-9,4-9,9c0,5,4,9,9,9c0,0,0,0,0,0l8.4,0c0.1,0,0.1,0,0.2,0c6.5,0,18.6-4.2,24.5-20 c0.9-2.5,1.8-5,2.7-7.5l2.7,18.1c0.6,4.2,4.2,7.4,8.4,7.7c4.3,0.2,8.1-2.6,9.2-6.8c1.8-7,7.1-17.1,11.3-17.2c0.8,1,2.1,4,2.9,5.9 c2.8,7,8.1,20.1,24.3,19.4c0.1,0,0.1,0,0.2,0c0.5,0,4.2-0.3,8.6-1.8c3.7-0.7,18.4-6.9,30.1-11.2l50.7-15.3 c1.4-0.4,2.7-1.2,3.8-2.3l78.8-78.8C320.2,121.5,322,115.5,321,109.2z M57.8,217.3L57.8,217.3C57.8,217.3,57.9,217.3,57.8,217.3 c0.1,0,0.1,0,0.1,0C57.9,217.3,57.9,217.3,57.8,217.3z M192.7,200.2l-4.8-4.9l8.8-25.5l22.4,22.4L192.7,200.2z M234.3,181.9l-7-7 l37.8-37.8c3.5-3.5,3.5-9.2,0-12.7c-3.5-3.5-9.2-3.5-12.7,0l-37.8,37.8l-8-8l46.1-46.1l27.7,27.7L234.3,181.9z M303.3,113 l-10.1,10.1l-27.7-27.7l10.1-10.1c0.8-0.2,3.5,0.3,5.9,2.8l19,19C302.9,109.6,303.4,112.2,303.3,113z"/></g></g></svg>