<svg xmlns="http://www.w3.org/2000/svg" xmlns:xlink="http://www.w3.org/1999/xlink" id="Layer_1" x="0" y="0" enable-background="new 0 0 221.3 288" version="1.1" viewBox="0 0 221.3 288" xml:space="preserve"><style type="text/css"/><g><path d="M217,74.1L147.9,5.6c-2-2.1-4.8-3.2-7.6-3.2H23.7C11.1,2.4,0.9,12.6,0.9,25.2v237.6c0,12.6,10.2,22.8,22.8,22.8h173.7 c12.6,0,22.8-10.2,22.8-22.8v-181C220.2,78.9,219,76.1,217,74.1z M144.7,36.3l41.3,41h-41.3V36.3z M24.9,261.6V26.4h95.8v59.2 c0,8.6,7,15.6,15.6,15.6h59.8v160.4H24.9z"/><path d="M159.5,169.7h-36.5v-36.5c0-6.6-5.4-12-12-12s-12,5.4-12,12v36.5H62.6c-6.6,0-12,5.4-12,12s5.4,12,12,12h36.5v36.5 c0,6.6,5.4,12,12,12s12-5.4,12-12v-36.5h36.5c6.6,0,12-5.4,12-12S166.2,169.7,159.5,169.7z"/></g></svg>