<svg xmlns="http://www.w3.org/2000/svg" xmlns:xlink="http://www.w3.org/1999/xlink" id="Layer_1" x="0" y="0" enable-background="new 0 0 221.6 288" version="1.1" viewBox="0 0 221.6 288" xml:space="preserve"><style type="text/css"/><g><path d="M140.6,2.5H24C11.4,2.5,1.2,12.7,1.2,25.3v237.6c0,12.6,10.2,22.8,22.8,22.8h173.7c12.6,0,22.8-10.2,22.8-22.8v-181 c0-2.9-1.2-5.7-3.2-7.7L148.2,5.7C146.2,3.6,143.4,2.5,140.6,2.5z M186.3,77.4H145v-41L186.3,77.4z M196.5,261.7H25.2V26.5H121 v59.2c0,8.6,7,15.6,15.6,15.6h59.8L196.5,261.7L196.5,261.7z"/></g><g><path d="M50.8,166.2h117.9c5,0,9-4,9-9s-4-9-9-9H50.8c-5,0-9,4-9,9C41.8,162.1,45.9,166.2,50.8,166.2z"/></g><g><path d="M168.8,191.7H50.9c-5,0-9,4-9,9s4,9,9,9h117.9c5,0,9-4,9-9S173.8,191.7,168.8,191.7z"/></g></svg>