<svg xmlns="http://www.w3.org/2000/svg" xmlns:xlink="http://www.w3.org/1999/xlink" id="Layer_1" x="0" y="0" enable-background="new 0 0 320.3 288" version="1.1" viewBox="0 0 320.3 288" xml:space="preserve"><style type="text/css"/><g><path d="M318.3,163.1L266.1,17.6c-1.3-3.6-4.7-6-8.5-6h-13c-5,0-9,4-9,9s4,9,9,9h6.7l45.5,126.9h-93.3c-3.9,0-7.4,2.6-8.6,6.3 c-4.6,14.6-19,24.7-35.2,24.7s-30.6-10.2-35.2-24.7c-1.2-3.8-4.7-6.3-8.6-6.3H22.7L68.2,29.7H75c5,0,9-4,9-9s-4-9-9-9h-13 c-3.8,0-7.2,2.4-8.5,6L1.2,163.1c-0.4,1-0.5,2-0.5,3v72.7c0,15.9,12.8,28.8,28.6,28.8h260.9c15.8,0,28.6-12.9,28.6-28.8v-72.7 C318.8,165.1,318.6,164.1,318.3,163.1z M290.2,249.7H29.3c-5.8,0-10.6-4.9-10.6-10.8v-64.3h91.1c8.7,18.6,28.3,31,49.9,31 s41.2-12.5,49.9-31h91.1v64.3C300.8,244.8,296.1,249.7,290.2,249.7z"/><path d="M258.1,146.1c5,0,9-4,9-9v-15.5c0-5-4-9-9-9H61.5c-5,0-9,4-9,9v15.5c0,5,4,9,9,9s9-4,9-9v-6.5h178.6v6.5 C249.1,142.1,253.1,146.1,258.1,146.1z"/><path d="M237.4,66H82.2c-5,0-9,4-9,9v15.5c0,5,4,9,9,9s9-4,9-9V84h137.2v6.5c0,5,4,9,9,9s9-4,9-9V75C246.4,70,242.3,66,237.4,66z"/><path d="M102.9,53c5,0,9-4,9-9v-6.5h95.8V44c0,5,4,9,9,9s9-4,9-9V28.4c0-5-4-9-9-9H102.9c-5,0-9,4-9,9V44 C93.9,48.9,97.9,53,102.9,53z"/></g></svg>