<svg xmlns="http://www.w3.org/2000/svg" xmlns:xlink="http://www.w3.org/1999/xlink" id="Layer_1" x="0" y="0" enable-background="new 0 0 260.8 288" version="1.1" viewBox="0 0 260.8 288" xml:space="preserve"><style type="text/css"/><g><path d="M48.2,209.1c15.1,0,31.5-7.4,46.4-20.9c15.1-13.7,39.4-38.6,40.4-39.7c2-2,3.1-4.7,3-7.6c0-2.9-1.2-5.5-3.2-7.5 c-2-2-4.6-3-7.4-3c0,0-0.1,0-0.1,0c-2.9,0-5.5,1.2-7.5,3.2c-0.2,0.3-24.9,25.6-39.5,38.8c-12,10.9-24.3,16.3-34.6,15.3 c-11-1.2-17.9-7.1-22.5-19.3c-4.9-12.9,8.2-27.3,8.4-27.4c0.6-0.7,63.6-67,70.8-74.2c2.3-2.3,7.5-4.5,12-4c3.3,0.4,5.9,2.1,8,5.5 c2.3,3.6,2.5,7.3,0.8,11.5c-1.5,3.8-4.1,6.4-4.1,6.4l-57.6,58.9c-2,2-3.1,4.7-3,7.6s1.2,5.5,3.2,7.5c2,2,4.7,3,7.5,3 c0,0,0.1,0,0.1,0c2.9,0,5.5-1.2,7.5-3.2l57.5-58.8c7.2-7.2,17.8-25.8,6.2-44.3c-7.1-11.3-16.8-14.6-23.7-15.4 c-12-1.4-23.5,4.1-29.5,10.1c-6.7,6.7-55.8,58.4-70.7,74.1l-0.5,0.6c-0.9,1-22.5,24-12.9,49.6c7.5,19.9,21,31,40.2,33 C45,209,46.6,209.1,48.2,209.1z"/><path d="M254.9,74.8L185.8,6.3c-2-2.1-4.8-3.2-7.6-3.2H61.6C49,3.1,38.8,13.3,38.8,25.9v19.2c0,6.6,5.4,12,12,12s12-5.4,12-12v-18 h95.8v59.2c0,8.6,7,15.6,15.6,15.6H234v160.4H62.8v-20.9c0-6.6-5.4-12-12-12s-12,5.4-12,12v22.1c0,12.6,10.2,22.8,22.8,22.8h173.7 c12.6,0,22.8-10.2,22.8-22.8v-181C258.1,79.6,256.9,76.8,254.9,74.8z M182.6,78V37l41.3,41H182.6z"/><path d="M202.7,208.5h-87.4c-5,0-9,4-9,9s4,9,9,9h87.4c5,0,9-4,9-9S207.7,208.5,202.7,208.5z"/><path d="M140.7,175.8c0,5,4,9,9,9h53c5,0,9-4,9-9s-4-9-9-9h-53C144.8,166.8,140.7,170.8,140.7,175.8z"/><path d="M202.7,143c5,0,9-4,9-9s-4-9-9-9h-30.2c-5,0-9,4-9,9s4,9,9,9H202.7z"/></g></svg>