<svg xmlns="http://www.w3.org/2000/svg" xmlns:xlink="http://www.w3.org/1999/xlink" id="Layer_1" x="0" y="0" enable-background="new 0 0 221.7 288" version="1.1" viewBox="0 0 221.7 288" xml:space="preserve"><style type="text/css">.st0{fill:#fff}</style><g><g><path d="M140.2,102c-13.6,0-24.7-11.1-24.7-24.7v-75h-92C11,2.4,0.8,12.6,0.8,25.2v237.6c0,12.6,10.2,22.8,22.8,22.8h173.7 c12.6,0,22.8-10.2,22.8-22.8V102H140.2z"/></g><g><path d="M139.6,77.4c0,0.4,0.3,0.7,0.7,0.7h79.1c-0.5-1.5-1.4-2.8-2.5-3.9L147.8,5.6c-2-2.1-4.8-3.2-7.6-3.2h-0.6V77.4z"/></g></g><g><path d="M50.4,166.1h117.9c5,0,9-4,9-9s-4-9-9-9H50.4c-5,0-9,4-9,9C41.4,162,45.5,166.1,50.4,166.1z" class="st0"/></g><g><path d="M168.4,191.6H50.5c-5,0-9,4-9,9s4,9,9,9h117.9c5,0,9-4,9-9S173.4,191.6,168.4,191.6z" class="st0"/></g></svg>