<?xml version="1.0" encoding="utf-8"?>
<!-- Generator: Adobe Illustrator 27.1.1, SVG Export Plug-In . SVG Version: 6.00 Build 0)  -->
<svg version="1.1" id="Layer_1" xmlns="http://www.w3.org/2000/svg" xmlns:xlink="http://www.w3.org/1999/xlink" x="0px" y="0px"
	 viewBox="0 0 380.1 288" style="enable-background:new 0 0 380.1 288;" xml:space="preserve">
<g>
	<path d="M252.8,104l-70-70c-4.3-4.3-11.3-4.3-15.6,0l-43.3,43.3c-4.3,4.3-4.3,11.3,0,15.6l22.5,22.7L6.7,255.4c-7,7-7,18.5,0,25.5
		l0,0c7,7,18.5,7,25.5,0L172,141.1l21.9,21.9c4.3,4.3,11.3,4.3,15.6,0l43.3-43.3C257.1,115.3,257.1,108.3,252.8,104z"/>
</g>
<g>
	<path d="M221.3,196c-3.1,0-6.1-1.2-8.5-3.5c-4.7-4.7-4.7-12.3,0-17l55.6-55.6c4.7-4.7,12.3-4.7,17,0s4.7,12.3,0,17l-55.6,55.6
		C227.4,194.8,224.3,196,221.3,196z"/>
</g>
<g>
	<path d="M98.2,82.4c-3.1,0-6.1-1.2-8.5-3.5c-4.7-4.7-4.7-12.3,0-17l55.6-55.6c4.7-4.7,12.3-4.7,17,0s4.7,12.3,0,17l-55.6,55.6
		C104.4,81.2,101.3,82.4,98.2,82.4z"/>
</g>
<g>
	<path d="M347,244H193.2c-6.6,0-12-5.4-12-12s5.4-12,12-12H347c6.6,0,12,5.4,12,12S353.7,244,347,244z"/>
</g>
<g>
	<path d="M367.2,278L367.2,278l-194.1-0.4c-6.6,0-12-5.4-12-12s5.4-12,12-12l0,0l194,0.4c6.6,0,12,5.4,12,12
		C379.2,272.7,373.9,278,367.2,278z"/>
</g>
</svg>
