<svg xmlns="http://www.w3.org/2000/svg" xmlns:xlink="http://www.w3.org/1999/xlink" id="Layer_1" x="0" y="0" enable-background="new 0 0 380.1 288" version="1.1" viewBox="0 0 380.1 288" xml:space="preserve"><style type="text/css"/><g><path d="M246.3,110.5l-70-70c-4.3-4.3-11.3-4.3-15.6,0l-29.2,29.2c-4.3,4.3-4.3,11.3,0,15.6L154,108L7.2,254.9c-7,7-7,18.5,0,25.5 l0,0c7,7,18.5,7,25.5,0l146.9-146.9l21.9,21.9c4.3,4.3,11.3,4.3,15.6,0l29.2-29.2C250.6,121.8,250.6,114.8,246.3,110.5z"/></g><g><path d="M221.3,196c-3.1,0-6.1-1.2-8.5-3.5c-4.7-4.7-4.7-12.3,0-17l55.6-55.6c4.7-4.7,12.3-4.7,17,0c4.7,4.7,4.7,12.3,0,17 l-55.6,55.6C227.4,194.8,224.3,196,221.3,196z"/></g><g><path d="M98.2,82.4c-3.1,0-6.1-1.2-8.5-3.5c-4.7-4.7-4.7-12.3,0-17l55.6-55.6c4.7-4.7,12.3-4.7,17,0c4.7,4.7,4.7,12.3,0,17 l-55.6,55.6C104.4,81.2,101.3,82.4,98.2,82.4z"/></g><g><path d="M350.4,244h-93.8c-6.6,0-12-5.4-12-12s5.4-12,12-12h93.8c6.6,0,12,5.4,12,12S357.1,244,350.4,244z"/></g><g><path d="M367.8,278C367.8,278,367.8,278,367.8,278l-134.1-0.4c-6.6,0-12-5.4-12-12c0-6.6,5.4-12,12-12c0,0,0,0,0,0l134,0.4 c6.6,0,12,5.4,12,12C379.8,272.7,374.5,278,367.8,278z"/></g></svg>