<svg xmlns="http://www.w3.org/2000/svg" xmlns:xlink="http://www.w3.org/1999/xlink" id="Layer_1" x="0" y="0" enable-background="new 0 0 286 288" version="1.1" viewBox="0 0 286 288" xml:space="preserve"><style type="text/css"/><g><path d="M285.9,166.8c0-22.2,0-22.4,0-44.6l-28.7-10.2c-2.3-8.9-5.9-17.4-10.3-25.1l13-27.4c-15.8-15.8-15.8-15.8-31.6-31.6 l-27.4,13c-7.8-4.3-16.2-7.9-25.1-10.3L165.6,1.8c-22.2,0-22.4,0-44.6,0l-10.2,28.7c-8.9,2.3-17.4,5.9-25.1,10.3l-27.1-13 C42.7,43.6,42.7,43.6,26.9,59.4l13,27.4c-4.3,7.8-7.9,16.2-10.3,25.1L0.9,122.2c0,22.2,0,22.4,0,44.6L29.6,177 c2.3,8.9,5.9,17.4,10.3,25.1l-13,27.4c15.8,15.8,15.8,15.8,31.6,31.6l27.4-13c7.8,4.3,16.2,7.9,25.1,10.3l10.2,28.6 c22.2,0,22.4,0,44.6,0l10.2-28.7c8.9-2.3,17.4-5.9,25.1-10.3l27.4,13c15.8-15.8,15.8-15.8,31.6-31.6l-13-27.4 c4.3-7.8,7.9-16.2,10.3-25.1L285.9,166.8z M143.5,200.2c-30.8,0-55.7-25-55.7-55.7s25-55.7,55.7-55.7c30.8,0,55.7,25,55.7,55.7 S174.3,200.2,143.5,200.2z"/></g></svg>