<svg xmlns="http://www.w3.org/2000/svg" viewBox="0 0 270.15 288"><path d="M182.63,92.85c-7.73-47.61-26-81-47.18-81S96,45.24,88.27,92.85ZM84.27,144A334.12,334.12,0,0,0,86,178.15h98.79A334.12,334.12,0,0,0,186.58,144a334,334,0,0,0-1.76-34.12H86A334,334,0,0,0,84.27,144ZM257.38,92.85a132.5,132.5,0,0,0-84.24-75.49c13,18,22,45.15,26.66,75.49ZM97.71,17.36A132.37,132.37,0,0,0,13.53,92.85H71.1c4.64-30.34,13.6-57.47,26.61-75.49Zm165.37,92.55H201.93c1.12,11.19,1.76,22.66,1.76,34.12s-.64,22.92-1.76,34.12H263A131.2,131.2,0,0,0,267.61,144a133.29,133.29,0,0,0-4.53-34.12ZM67.21,144c0-11.46.64-22.93,1.76-34.12H7.82a129.38,129.38,0,0,0,0,68.24h61.1C67.85,167,67.21,155.49,67.21,144Zm21.06,51.18c7.73,47.61,26,81,47.18,81s39.45-33.42,47.18-81ZM173.2,270.7a132.62,132.62,0,0,0,84.23-75.49H199.85C195.16,225.54,186.21,252.68,173.2,270.7ZM13.53,195.21A132.46,132.46,0,0,0,97.76,270.7c-13-18-22-45.16-26.66-75.49Z"/></svg>