<svg xmlns="http://www.w3.org/2000/svg" xmlns:xlink="http://www.w3.org/1999/xlink" id="Layer_1" x="0" y="0" enable-background="new 0 0 395.1 288" version="1.1" viewBox="0 0 395.1 288" xml:space="preserve"><style type="text/css"/><g><path d="M12.9,183.5c5.3,0,9.7-4.4,9.7-9.7s-4.4-9.7-9.7-9.7s-9.7,4.4-9.7,9.7C3.3,179.3,7.6,183.5,12.9,183.5z M385.3,67.6 l-68.6,0.1l-30.9-30.2c-5.5-5.5-12.8-8.5-20.5-8.5h-61c-6.3,0-12.1,2.4-17.1,6c-5.1-3.9-11.3-6.2-17.7-6.2h-42 c-7.7,0-15,3.1-20.5,8.5L76.6,67.6H8.1c-2.7,0-4.8,2.2-4.8,4.8v9.7c0,2.7,2.2,4.8,4.8,4.8h33.8v116H8.1c-2.7,0-4.8,2.2-4.8,4.8v9.7 c0,2.7,2.2,4.8,4.8,4.8h33.8c10.6,0,19.2-8.6,19.3-19.2h20.1l49.3,47.1c18,14.6,43.4,14.1,61-0.1l4.4,3.7 c5.8,4.7,12.9,7.2,20.2,7.2c9.7,0,18.8-4.2,25-11.8l13.2-16.3c9.9,5.4,25.9,5.4,36.3-7.3l5.7-7.1c3.7-4.6,5.8-10,6.3-15.5h29.4 c0.1,10.6,8.7,19.2,19.3,19.2h33.8c2.7,0,4.8-2.2,4.8-4.8v-9.7c0-2.7-2.2-4.8-4.8-4.8h-33.8V87.1l33.8-0.1c2.7,0,4.8-2.2,4.8-4.8 v-9.7C390.1,69.7,387.9,67.6,385.3,67.6L385.3,67.6z M281.4,206.4l-5.7,7.1c-3.3,4-9.3,4.9-13.6,1.4l-10.8-8.7L226.2,237 c-4.5,5.6-12.7,6.2-17.8,2.1L190,223.3l-6.3,7.7c-10.1,12.4-28.4,14.3-40.3,4.8l-54.3-52H61.3V86.9h23.3l35.8-35.8 c1.8-1.8,4.3-2.8,6.8-2.8h42c0.5,1.3,0.2,0.4,0.7,1.8l-35.7,32.8c-17,15.7-17.9,41.8-2.5,58.6c8.6,9.4,35.4,23.8,58.6,2.5 l13.8-12.6l75.9,61.6C284.1,196.2,284.7,202.3,281.4,206.4z M332.1,183.7h-34.6c-1.5-2.1-3.2-4.2-5.3-5.9L218.5,118l17.2-15.8 c3.9-3.6,4.2-9.7,0.6-13.7c-3.6-3.9-9.7-4.2-13.7-0.6l-45.4,41.6c-8.7,7.9-23.3,7.3-31.2-1.3c-8.2-8.9-7.7-23,1.3-31.2l50.2-46.1 c1.8-1.6,4.1-2.5,6.5-2.5h61c2.6,0,5,1,6.9,2.9L308.7,87h23.4V183.7L332.1,183.7z M380.4,164.3c-5.3,0-9.7,4.4-9.7,9.7 c0,5.3,4.4,9.7,9.7,9.7s9.7-4.4,9.7-9.7C390.1,168.6,385.7,164.3,380.4,164.3z"/></g></svg>