<svg id="Layer_1" data-name="Layer 1" xmlns="http://www.w3.org/2000/svg" viewBox="0 0 285.3 288"><path d="M108,125.6a17.71,17.71,0,0,0-17.71-17.71H72.61a35.43,35.43,0,0,0-35.43,35.43v35.22A35.43,35.43,0,0,0,72.61,214H90.32A17.71,17.71,0,0,0,108,196.25ZM90.32,196.25H72.61a17.73,17.73,0,0,1-17.72-17.71V143.32A17.74,17.74,0,0,1,72.61,125.6H90.32Zm124,17.72a35.43,35.43,0,0,0,35.43-35.43V143.32a35.43,35.43,0,0,0-35.43-35.43H196.6a17.72,17.72,0,0,0-17.72,17.71v70.65A17.72,17.72,0,0,0,196.6,214ZM196.6,125.6h17.71A17.74,17.74,0,0,1,232,143.32v35.22a17.73,17.73,0,0,1-17.71,17.71H196.6Zm-53.14-124C64.84,1.61,3.93,66.83,1.81,143.32L1.76,156.6A4.42,4.42,0,0,0,6.18,161H15a4.43,4.43,0,0,0,4.43-4.43l.05-13.28c1.85-66.88,55.1-124,123.94-124a124.14,124.14,0,0,1,124,124v97.42a26.6,26.6,0,0,1-26.57,26.57H195A26.31,26.31,0,0,0,170,231.88H134.6a26.57,26.57,0,0,0,0,53.14H240.88a44.33,44.33,0,0,0,44.28-44.28V143.32C285.16,65.18,221.59,1.61,143.46,1.61ZM170,267.31H134.6a8.86,8.86,0,0,1,0-17.72H170a8.86,8.86,0,0,1,0,17.72Z"/></svg>