<?xml version="1.0" encoding="UTF-8"?>
<svg id="_Ñëîé_1" data-name="Ñëîé 1" xmlns="http://www.w3.org/2000/svg" viewBox="0 0 953.37931034 889.4137931">
  <defs>
    <style>
      .cls-1 {
        stroke-width: 0px;
      }
    </style>
  </defs>
  <path class="cls-1" d="M646.6749562,164.29407917c45.55497322,0,88.37099618,17.72772407,120.56094401,49.91746962l3.12076478,3.12096707c66.47739754,66.47759983,66.47739754,174.6442882,0,241.12198917l-17.06098994,17.06149566-276.60767904,276.60737561-239.11946051-239.15556853-37.45160479-37.45180708-17.06149566-17.06179909c-66.47719525-66.47739754-66.47719525-174.64408592-.00101143-241.12037088l3.08030761-3.08040876c32.21563814-32.21533471,75.03671824-49.9563085,120.59300632-49.95428564,45.54172349.00434915,88.3463173,17.73005036,120.52867942,49.91241247l17.06179909,17.06149566,32.36745366,32.36775709,32.36725138-32.36795938,17.06129337-17.06129337c32.19004898-32.18974555,75.00576851-49.91746962,120.56074173-49.91746962M656.18533627,99.51278053c-58.45318365,0-116.90636729,22.28909244-161.48508619,66.86791814l-18.01593502,18.01614862-18.01614862-18.01614862c-44.56782507-44.56782507-103.01353256-66.85713111-161.44706459-66.86257803-58.46204823-.00534011-116.9117074,22.29507337-161.52321459,66.90658055l-3.25159405,3.25159405c-89.20133351,89.20154711-89.20133351,233.76894567,0,322.97027918l18.01582822,18.01614862,39.54737241,39.54737241,286.67482122,286.71850334,326.26587574-326.26587574,18.01582822-18.01614862c89.15733099-89.15733099,89.15733099-233.81273458,0-322.97027918l-3.29559657-3.29559657c-44.57850529-44.5788257-103.03190254-66.86791814-161.48508619-66.86791814h0Z"/>
</svg>