<?xml version="1.0" encoding="utf-8"?>
<!-- Generator: Adobe Illustrator 24.1.0, SVG Export Plug-In . SVG Version: 6.00 Build 0)  -->
<svg version="1.1" id="Layer_1" xmlns="http://www.w3.org/2000/svg" xmlns:xlink="http://www.w3.org/1999/xlink" x="0px" y="0px"
	 viewBox="0 0 288 288" style="enable-background:new 0 0 288 288;" xml:space="preserve">
<path d="M143.3,0C63.8,0.4-0.4,65.2,0,144.7C0.4,224.2,65.2,288.4,144.7,288c79.5-0.4,143.7-65.2,143.3-144.7
	C287.6,63.7,222.8-0.4,143.3,0z M146.9,236.6c-10.2,0-18.5-8.3-18.5-18.5c0-10.2,8.3-18.5,18.5-18.5c10.2,0,18.5,8.3,18.5,18.5
	C165.4,228.3,157.1,236.6,146.9,236.6z M175.7,148.5c-7.8,8.5-10.1,16.2-11.4,22.2c-1.5,7-7.7,12.1-14.9,12.1
	c-9.1,0-16.3-7.7-15.4-16.8c1.1-12,4.4-22.4,19.1-36.5c8.4-8.1,15.1-14.6,14.1-27.1c-0.9-12-11-18.1-20.4-18.1
	c-8.2,0-17.4,4.8-21.1,17.2c-2.2,7.5-8.9,12.8-16.8,12.8c-8.5,0-14.9-7.7-13.2-16c5.3-26.3,24.4-42.7,51.5-42.8
	c15.4-0.1,28.8,4.9,37.9,14c8.5,8.5,12.9,20.3,12.8,34C198.1,124.2,185.7,137.7,175.7,148.5z"/>
</svg>
