<?xml version="1.0" encoding="utf-8"?>
<!-- Generator: Adobe Illustrator 25.4.1, SVG Export Plug-In . SVG Version: 6.00 Build 0)  -->
<svg version="1.1" id="_x3C_Layer_x3E_" xmlns="http://www.w3.org/2000/svg" xmlns:xlink="http://www.w3.org/1999/xlink" x="0px"
	 y="0px" viewBox="0 0 288 288" style="enable-background:new 0 0 288 288;" xml:space="preserve">
<style type="text/css">
	.st0{fill:#FFFFFF;}
	.st1{fill:none;}
	.st2{fill:#010101;}
	.st3{fill-rule:evenodd;clip-rule:evenodd;fill:#010101;}
	.st4{fill:#020202;}
	.st5{enable-background:new    ;}
	.st6{fill:#1A1A1A;}
	.st7{fill:#231F20;}
</style>
<g>
	<path d="M144,0C64.5,0,0,64.5,0,144s64.5,144,144,144s144-64.5,144-144C288,64.4,223.5,0,144,0z M228.1,228.1
		C205.6,250.6,175.7,263,144,263c-31.8,0-61.7-12.4-84.1-34.9C37.4,205.6,25,175.7,25,144c0-31.8,12.4-61.7,34.9-84.1
		C82.3,37.3,112.2,25,144,25s61.7,12.4,84.1,34.9C250.6,82.4,263,112.3,263,144C263,175.8,250.6,205.7,228.1,228.1z"/>
	<path d="M184.3,83.5c-6.6,0-12,5.4-12,12v40.3h-56.7V95.5c0-6.6-5.4-12-12-12s-12,5.4-12,12v101.2c0,6.6,5.4,12,12,12s12-5.4,12-12
		v-36.9h56.7v36.9c0,6.6,5.4,12,12,12s12-5.4,12-12V95.5C196.3,88.8,191,83.5,184.3,83.5z"/>
</g>
</svg>
