<svg xmlns="http://www.w3.org/2000/svg" xmlns:xlink="http://www.w3.org/1999/xlink" id="Layer_1" x="0" y="0" enable-background="new 0 0 222.4 288" version="1.1" viewBox="0 0 222.4 288" xml:space="preserve"><style type="text/css"/><g><path d="M218,74.3L148.9,5.8c-2-2-4.8-3.2-7.7-3.2H24.7C12.1,2.6,1.9,12.8,1.9,25.4V263c0,12.6,10.2,22.8,22.8,22.8h173.7 c12.6,0,22.8-10.2,22.8-22.8V82C221.2,79.1,220.1,76.3,218,74.3z M145.8,36.5l41.3,41h-41.3V36.5z M25.9,261.8V26.6h95.8v59.2 c0,8.6,7,15.6,15.6,15.6h59.8v160.4H25.9z"/><circle cx="73.3" cy="115.2" r="27.1"/><path d="M142.7,137.6c-1.8-1.9-4.3-3-6.9-2.9c-2.6,0.1-5.1,1.3-6.7,3.3l-38.2,46.5l-9.3-9.7c-1.8-1.9-4.2-2.9-6.8-2.8 c-2.6,0.1-5,1.3-6.6,3.3l-25.3,30.6c-1.3,1.6-2.1,3.6-2.1,5.7v27.2c0,5,4,9,9,9h124.8c5,0,9-4,9-9V186c0-2.2-0.8-4.4-2.3-6.1 L142.7,137.6z M165.6,229.7H58.8v-15l16.8-20.3l9.3,9.7c1.8,1.9,4.3,2.9,6.8,2.8c2.6-0.1,5-1.3,6.6-3.3l38-46.3l29.2,32.1V229.7z"/></g></svg>