<svg xmlns="http://www.w3.org/2000/svg" xmlns:xlink="http://www.w3.org/1999/xlink" id="Layer_1" x="0" y="0" enable-background="new 0 0 288 288" version="1.1" viewBox="0 0 288 288" xml:space="preserve"><style type="text/css"/><g><g><g><path d="M144,25c31.8-0.1,61.8,12.1,84.3,34.5c22.6,22.4,35.1,52.2,35.3,83.9c0.1,31.8-12.1,61.8-34.5,84.3 c-22.4,22.6-52.2,35.1-83.9,35.3c-31.8,0.1-61.8-12.1-84.3-34.5c-22.6-22.4-35.1-52.2-35.3-83.9C25.4,112.8,37.6,82.8,60,60.3 C82.3,37.6,112.2,25.1,144,25 M143.8,0C64.3,0.4,0.1,65.2,0.5,144.7S65.7,288.4,145.2,288c79.5-0.4,143.7-65.2,143.3-144.7 C288.1,63.7,223.3-0.4,143.8,0L143.8,0z"/></g></g></g><g><g><circle cx="144.5" cy="71.5" r="18.5"/></g></g><g><path d="M144.5,238.9c-8.3,0-15-6.7-15-15V122.4c0-8.3,6.7-15,15-15s15,6.7,15,15v101.5C159.5,232.2,152.8,238.9,144.5,238.9z"/></g></svg>