<svg xmlns="http://www.w3.org/2000/svg" xmlns:xlink="http://www.w3.org/1999/xlink" id="Layer_1" x="0" y="0" enable-background="new 0 0 254 288" version="1.1" viewBox="0 0 254 288" xml:space="preserve"><style type="text/css">.st2{fill:#010101}</style><path d="M127.9,79.2c-35.8,0-64.8,28.9-64.8,64.8c0,35.8,28.9,64.8,64.8,64.8s64.8-28.9,64.8-64.8	C192.6,108.1,163.7,79.2,127.9,79.2z M127.9,186.1c-23.2,0-42.1-18.9-42.1-42.1s18.9-42.1,42.1-42.1S170,120.9,170,144	S151,186.1,127.9,186.1L127.9,186.1z M210.4,76.6c0,8.4-6.8,15.1-15.1,15.1c-8.4,0-15.1-6.8-15.1-15.1s6.8-15.1,15.1-15.1	S210.4,68.2,210.4,76.6z M253.3,92c-1-20.2-5.6-38.2-20.4-52.9c-14.8-14.8-32.7-19.4-52.9-20.4c-20.9-1.2-83.4-1.2-104.2,0	c-20.2,1-38.1,5.6-52.9,20.3C8.1,53.8,3.5,71.6,2.5,91.9c-1.2,20.9-1.2,83.4,0,104.2c1,20.2,5.6,38.2,20.4,52.9	c14.8,14.8,32.7,19.4,52.9,20.4c20.9,1.2,83.4,1.2,104.2,0c20.2-1,38.2-5.6,52.9-20.4c14.8-14.8,19.4-32.7,20.4-52.9	C254.5,175.2,254.5,112.7,253.3,92L253.3,92z M226.3,218.5c-4.4,11-12.9,19.6-24,24c-16.6,6.6-56.1,5.1-74.5,5.1s-57.9,1.5-74.5-5.1	c-11-4.4-19.6-12.9-24-24c-6.6-16.6-5.1-56.1-5.1-74.5S22.7,86,29.3,69.5c4.4-11,12.9-19.6,24-24c16.6-6.6,56.1-5.1,74.5-5.1	s57.9-1.5,74.5,5.1c11,4.4,19.6,12.9,24,24c6.6,16.6,5.1,56.1,5.1,74.5C231.4,162.3,232.9,201.8,226.3,218.5z" class="st2"/></svg>