<svg xmlns="http://www.w3.org/2000/svg" viewBox="0 0 285.65 288"><g id="Group_2798" data-name="Group 2798"><g id="Group_1455" data-name="Group 1455"><path id="Path_549" data-name="Path 549" d="M68.08,284.89H11.51a9.28,9.28,0,0,1-9.28-9.28h0V228.47a9.25,9.25,0,0,1,2.71-6.55l96.19-96.17a94.06,94.06,0,1,1,60.2,60.2l-20.7,20.8a9.31,9.31,0,0,1-6.56,2.71h-19v28.42a9.27,9.27,0,0,1-9.28,9.28H77.36v28.43a9.29,9.29,0,0,1-9.27,9.3ZM20.79,266.33h38V237.9a9.28,9.28,0,0,1,9.28-9.28H96.5V200.19a9.29,9.29,0,0,1,9.28-9.28h24.43l22.22-22.22a9.3,9.3,0,0,1,10-2,75.5,75.5,0,1,0-42-42,9.28,9.28,0,0,1-2,10L20.79,232.35Z"/></g><g id="Group_1456" data-name="Group 1456"><path id="Path_550" data-name="Path 550" d="M206.12,110.3a32.09,32.09,0,1,1,32.09-32.08h0A32.12,32.12,0,0,1,206.12,110.3Zm0-45.61a13.53,13.53,0,1,0,13.53,13.53A13.52,13.52,0,0,0,206.12,64.69Z"/></g></g></svg>