<svg xmlns="http://www.w3.org/2000/svg" xmlns:xlink="http://www.w3.org/1999/xlink" id="Layer_1" x="0" y="0" enable-background="new 0 0 279 288" version="1.1" viewBox="0 0 279 288" xml:space="preserve"><style type="text/css"/><g><g><path d="M139.2,85.9c28.3,0,51.3,23,51.3,51.3c0,8.5-2.1,16.4-6.5,24.8l-0.2,0.4l-0.1,0.2c-0.1,0.1-0.1,0.2-0.2,0.4l-0.1,0.1 l-0.1,0.1c-0.2,0.4-0.5,0.9-0.7,1.2l-0.1,0.2l-0.7,1.1c-1.2,1.9-2.5,3.7-3.9,5.5c-1.3,1.6-2.7,3.4-4.1,5.1 c-8,9.9-13.9,17.5-16.7,24.9c-1.6,4.1-2.7,7.9-3.6,11.2h-14.2H125c-0.9-3.3-2.1-7.1-3.6-11.2c-2.8-7.4-8.7-15-16.7-24.9 c-1.4-1.7-2.9-3.5-4.1-5.1c-1.4-1.8-2.7-3.6-3.9-5.5l-0.7-1.1l-0.1-0.2c-0.2-0.4-0.5-0.8-0.7-1.2l-0.1-0.1L95,163 c-0.1-0.2-0.2-0.3-0.2-0.4l-0.1-0.2l-0.2-0.3c-4.5-8.4-6.5-16.3-6.5-24.8C87.9,109,110.9,85.9,139.2,85.9 M139.2,61.9 c-41.5,0-75.3,33.8-75.3,75.3c0,12.4,3.1,24.2,9.3,36c0,0,0,0.1,0.1,0.1c0,0.1,0.3,0.6,0.8,1.5c0.5,0.9,1,1.9,1.6,2.8 c0.2,0.4,0.5,0.7,0.8,1.1c1.3,2.1,3.1,4.6,5.2,7.3c1.3,1.7,2.8,3.5,4.3,5.4c5,6.2,11.3,14,13,18.4c4,10.4,4.7,18.2,4.7,18.2 l0.7,8.4h34.9h34.9l0.7-8.4c0-0.1,0.7-7.8,4.7-18.2c1.7-4.4,7.9-12.1,13-18.4c1.5-1.9,3-3.7,4.3-5.4c2.1-2.7,3.9-5.2,5.2-7.3 c0.3-0.3,0.5-0.7,0.8-1.1c0.6-0.9,1.1-1.9,1.6-2.8c0.5-0.9,0.8-1.4,0.8-1.5c0,0,0-0.1,0.1-0.1c6.3-11.8,9.3-23.7,9.3-36 C214.5,95.7,180.7,61.9,139.2,61.9L139.2,61.9z"/></g><g><path d="M130.1,246.9h-26.4v12.4c0,2,0.4,9.1,4.4,13.8c3.6,4.3,9.4,5.6,13.5,6c0.2,1.5,0.6,3.9,2.1,5.6c2.3,2.8,6.6,3.1,8.4,3.1 v-4.6l0,0l0,4.6h2.6l11.8,0c1.7,0,6-0.3,8.3-3.1c1.5-1.7,2-4.1,2.1-5.6c4.1-0.4,9.9-1.8,13.5-6c4-4.8,4.4-11.8,4.4-13.9v-12.3 h-26.4H130.1z"/></g><g><path d="M138.2,94.3c-0.7,0-1.3,0.1-2,0.3c-17.4,5.5-30.9,19.9-35.4,37.5c-0.9,3.5,1.2,7,4.7,7.9c0.5,0.1,1.1,0.2,1.6,0.2 c2.9,0,5.6-2,6.3-4.9c3.4-13.3,13.6-24.2,26.7-28.4c3.4-1.1,5.3-4.7,4.2-8.2C143.5,96,141,94.3,138.2,94.3L138.2,94.3z"/></g><g><path d="M139.1,46.4c5.1,0,9.2-4.1,9.2-9.2V10.3c0-5.1-4.1-9.2-9.2-9.2s-9.2,4.1-9.2,9.2v26.9C130,42.3,134.1,46.4,139.1,46.4z"/></g><g><path d="M60.8,73.5c1.8,1.8,4.1,2.7,6.5,2.7c2.3,0,4.7-0.9,6.5-2.7c3.6-3.6,3.6-9.4,0-13l-19-19c-3.6-3.6-9.4-3.6-13,0 c-3.6,3.6-3.6,9.4,0,13L60.8,73.5z"/></g><g><path d="M46.6,138.9c0-5.1-4.1-9.2-9.2-9.2H10.5c-5.1,0-9.2,4.1-9.2,9.2c0,5.1,4.1,9.2,9.2,9.2h26.9 C42.5,148,46.6,143.9,46.6,138.9z"/></g><g><path d="M60.7,204.3l-19,19c-3.6,3.6-3.6,9.4,0,13c1.8,1.8,4.1,2.7,6.5,2.7c2.3,0,4.7-0.9,6.5-2.7l19-19c3.6-3.6,3.6-9.4,0-13 C70.1,200.7,64.3,200.7,60.7,204.3z"/></g><g><path d="M217.4,204.3c-3.6-3.6-9.4-3.6-13,0c-3.6,3.6-3.6,9.4,0,13l19,19c1.8,1.8,4.1,2.7,6.5,2.7c2.3,0,4.7-0.9,6.5-2.7 c3.6-3.6,3.6-9.4,0-13L217.4,204.3z"/></g><g><path d="M267.7,129.8h-26.9c-5.1,0-9.2,4.1-9.2,9.2c0,5.1,4.1,9.2,9.2,9.2h26.9c5.1,0,9.2-4.1,9.2-9.2 C276.8,133.9,272.7,129.8,267.7,129.8z"/></g><g><path d="M211,76.2c2.3,0,4.7-0.9,6.5-2.7l19-19c3.6-3.6,3.6-9.4,0-13c-3.6-3.6-9.4-3.6-13,0l-19,19c-3.6,3.6-3.6,9.4,0,13 C206.3,75.3,208.6,76.2,211,76.2z"/></g></g></svg>