<svg xmlns="http://www.w3.org/2000/svg" xmlns:xlink="http://www.w3.org/1999/xlink" id="Layer_1" x="0" y="0" enable-background="new 0 0 256 288" version="1.1" viewBox="0 0 256 288" xml:space="preserve"><style type="text/css">.st2{fill:#010101}</style><path d="M236.2,20.2H19.9c-9.9,0-18,8.2-18,18.2v215.9c0,10,8.1,18.2,18,18.2h216.3c9.9,0,18-8.2,18-18.2v-216	C254.2,28.3,246.1,20.2,236.2,20.2z M78.2,236.4H40.8V116h37.4V236.4L78.2,236.4z M59.5,99.5c-12,0-21.7-9.7-21.7-21.7	c0-11.9,9.7-21.7,21.7-21.7c11.9,0,21.7,9.7,21.7,21.7C81.2,89.9,71.5,99.5,59.5,99.5z M218.3,236.4h-37.4v-58.6	c0-14-0.3-31.9-19.4-31.9c-19.5,0-22.5,15.2-22.5,30.9v59.6h-37.4V116h35.9v16.4h0.5c5-9.5,17.2-19.4,35.4-19.4	c37.8,0,44.9,24.9,44.9,57.4V236.4z" class="st2"/></svg>