<svg xmlns="http://www.w3.org/2000/svg" xmlns:xlink="http://www.w3.org/1999/xlink" id="Layer_1" x="0" y="0" enable-background="new 0 0 336 288" version="1.1" viewBox="0 0 336 288" xml:space="preserve"><style type="text/css"/><g><g><path d="M111.2,186.6c2.4,3.1,6,4.8,9.6,4.8c2.5,0,5-0.8,7.2-2.4l90.4-67.9c5.3-4,6.4-11.5,2.4-16.8c-4-5.3-11.5-6.4-16.8-2.4 l-90.4,67.9C108.3,173.7,107.2,181.3,111.2,186.6z"/></g><g><path d="M152.7,187.2c-0.4,10.6-5.3,21-14.4,27.8l-50.1,37.6c-16,12-38.7,8.7-50.7-7.2l-3.4-4.5c-5.8-7.7-8.3-17.3-6.9-26.9 s6.4-18.1,14.1-23.9l50.1-37.6c6.5-4.9,14.1-7.2,21.7-7.2c2.9,0,5.9,0.4,8.7,1.1l22.1-16.6c-20.4-12.1-46.9-11.5-67,3.6L26.9,171 c-26.6,19.9-32,57.8-12,84.3l3.4,4.5c11.8,15.7,29.9,24.1,48.2,24.1c12.6,0,25.3-3.9,36.1-12l50.1-37.6h0 c20.2-15.1,28.1-40.5,22.1-63.5L152.7,187.2z"/></g><g><path d="M322.5,31.5l-3.4-4.5c-9.7-12.9-23.7-21.2-39.7-23.5c-15.9-2.3-31.8,1.8-44.6,11.5l-50.1,37.6 c-20.1,15.1-28.1,40.4-22.1,63.3l22.1-16.6c0.4-10.5,5.4-20.7,14.4-27.5l50.1-37.6c6.3-4.8,13.9-7.3,21.7-7.3 c1.7,0,3.5,0.1,5.2,0.4c9.6,1.4,18.1,6.4,23.9,14.1l3.4,4.5c5.8,7.7,8.3,17.3,6.9,26.9c-1.4,9.6-6.4,18.1-14.1,23.9L246,134.2 c-7.7,5.8-17.3,8.3-26.9,6.9c-1.3-0.2-2.7-0.5-4-0.8l-22,16.5c9.5,5.7,20.3,8.6,31.1,8.6c12.6,0,25.3-3.9,36.1-12l50.1-37.6h0 c12.9-9.7,21.2-23.7,23.5-39.7S332.2,44.3,322.5,31.5z"/></g></g></svg>