<svg xmlns="http://www.w3.org/2000/svg" xmlns:xlink="http://www.w3.org/1999/xlink" id="Layer_1" x="0" y="0" enable-background="new 0 0 345.6 288" version="1.1" viewBox="0 0 345.6 288" xml:space="preserve"><style type="text/css"/><g><path d="M117.6,60.4c0,6.6,4.9,12,10.9,12h205.7c6,0,10.9-5.4,10.9-12s-4.9-12-10.9-12H128.6C122.5,48.4,117.6,53.8,117.6,60.4z"/><path d="M334.2,138.3H128.6c-6,0-10.9,5.4-10.9,12s4.9,12,10.9,12h205.7c6,0,10.9-5.4,10.9-12S340.3,138.3,334.2,138.3z"/><path d="M334.2,228.2H128.6c-6,0-10.9,5.4-10.9,12s4.9,12,10.9,12h205.7c6,0,10.9-5.4,10.9-12S340.3,228.2,334.2,228.2z"/><circle cx="49.1" cy="240.5" r="22.4"/><path d="M10.4,61l20.8,18.4c2.3,2,5.1,3,8,3c3.2,0,6.3-1.2,8.6-3.7l49.8-51.7c4.6-4.8,4.5-12.4-0.3-17s-12.4-4.5-17,0.3L38.5,53.8 L26.3,43c-5-4.4-12.5-3.9-16.9,1C5,49,5.5,56.6,10.4,61z"/><path d="M39.2,171c3.2,0,6.3-1.2,8.6-3.7l49.8-51.7c4.6-4.8,4.5-12.4-0.3-17S85,94.3,80.4,99l-41.8,43.4l-12.2-10.8 c-5-4.4-12.5-3.9-16.9,1c-4.4,5-3.9,12.5,1,16.9L31.2,168C33.5,170,36.3,171,39.2,171z"/></g></svg>