<svg xmlns="http://www.w3.org/2000/svg" xmlns:xlink="http://www.w3.org/1999/xlink" id="Layer_1" x="0" y="0" enable-background="new 0 0 320.5 288" version="1.1" viewBox="0 0 320.5 288" xml:space="preserve"><style type="text/css"/><g><path d="M79.1,68.1h228.5c6.6,0,12-5.4,12-12s-5.4-12-12-12H79.1c-6.6,0-12,5.4-12,12S72.4,68.1,79.1,68.1z"/><path d="M307.6,134H79.1c-6.6,0-12,5.4-12,12s5.4,12,12,12h228.5c6.6,0,12-5.4,12-12S314.2,134,307.6,134z"/><path d="M307.6,224H79.1c-6.6,0-12,5.4-12,12s5.4,12,12,12h228.5c6.6,0,12-5.4,12-12S314.2,224,307.6,224z"/><circle cx="23.5" cy="56.1" r="22.4"/><circle cx="23.5" cy="146.3" r="22.4"/><circle cx="23.5" cy="236.2" r="22.4"/></g></svg>