<?xml version="1.0" encoding="utf-8"?>
<!-- Generator: Adobe Illustrator 25.3.1, SVG Export Plug-In . SVG Version: 6.00 Build 0)  -->
<svg version="1.1" id="Layer_1" xmlns="http://www.w3.org/2000/svg" xmlns:xlink="http://www.w3.org/1999/xlink" x="0px" y="0px"
	 viewBox="0 0 325.6 288" style="enable-background:new 0 0 325.6 288;" xml:space="preserve">
<path d="M237.3,1.3c-47.7,0-86.4,38.8-86.4,86.4v36.2H12.4c-6.6,0-12,5.4-12,12V274c0,6.6,5.4,12,12,12h224.5c6.6,0,12-5.4,12-12
	V135.9c-0.1-6.6-5.5-12-12.1-12h-61.9V87.7c0-34.4,28-62.4,62.4-62.4c34.4,0,62.4,28,62.4,62.4v37.2c0,6.6,5.4,12,12,12
	s12-5.4,12-12V87.7C323.7,40,285,1.3,237.3,1.3z M136.6,214.3c0,6.6-5.4,12-12,12c-6.6,0-12-5.4-12-12v-32.9c0-6.6,5.4-12,12-12
	c6.6,0,12,5.4,12,12V214.3z"/>
</svg>
