<svg xmlns="http://www.w3.org/2000/svg" xmlns:xlink="http://www.w3.org/1999/xlink" id="Layer_1" x="0" y="0" enable-background="new 0 0 251.3 288" version="1.1" viewBox="0 0 251.3 288" xml:space="preserve"><style type="text/css"/><g><path d="M225.7,147.8v114.1H25.3V147.8H225.7 M237.7,123.8H13.3c-6.6,0-12,5.4-12,12v138.1c0,6.6,5.4,12,12,12h224.5 c6.6,0,12-5.4,12-12V135.8C249.7,129.2,244.3,123.8,237.7,123.8L237.7,123.8z"/></g><g><path d="M211.8,124.8h-24V87.6c0-34.4-28-62.4-62.4-62.4s-62.4,28-62.4,62.4v37.2h-24V87.6c0-47.6,38.7-86.4,86.4-86.4 s86.4,38.7,86.4,86.4V124.8z"/></g><g><path d="M125.5,226.2c-6.6,0-12-5.4-12-12v-32.9c0-6.6,5.4-12,12-12s12,5.4,12,12v32.9C137.5,220.8,132.1,226.2,125.5,226.2z"/></g></svg>