<svg xmlns="http://www.w3.org/2000/svg" viewBox="0 0 250.12 288"><path d="M1.33,225.94V65.75A10.71,10.71,0,0,1,12,55.05h73.9a12.75,12.75,0,0,1,12.9,12.3,12.49,12.49,0,0,1-12.5,12.7H37a10.71,10.71,0,0,0-10.7,10.7V200.94A10.71,10.71,0,0,0,37,211.64h48.9a12.75,12.75,0,0,1,12.9,12.3,12.49,12.49,0,0,1-12.5,12.7H12A10.71,10.71,0,0,1,1.33,225.94Z"/><path d="M67.4,154.06c.3.3.6.7.9,1l63.3,63.3a12.52,12.52,0,0,0,17.7-17.7L107,158.36H237a12.5,12.5,0,0,0,0-25H107l42.3-42.3a12.55,12.55,0,0,0-8.8-21.4,12.1,12.1,0,0,0-8.8,3.7L68.1,137A12.44,12.44,0,0,0,67.4,154.06Z"/></svg>