<svg xmlns="http://www.w3.org/2000/svg" xmlns:xlink="http://www.w3.org/1999/xlink" id="Layer_1" x="0" y="0" enable-background="new 0 0 250.1 288" version="1.1" viewBox="0 0 250.1 288" xml:space="preserve"><style type="text/css"/><g><g><path d="M1.5,224.1V63.9c0-5.9,4.8-10.7,10.7-10.7h73.9c6.9,0,12.8,5.4,12.9,12.3c0.1,7-5.5,12.7-12.5,12.7H37.2 c-5.9,0-10.7,4.8-10.7,10.7v110.2c0,5.9,4.8,10.7,10.7,10.7h48.9c6.9,0,12.8,5.4,12.9,12.3c0.1,7-5.5,12.7-12.5,12.7H12.2 C6.3,234.8,1.5,230,1.5,224.1z"/></g></g><g><g><path d="M246.6,135.8c-0.3-0.3-0.6-0.7-0.9-1l-63.3-63.3c-4.9-4.9-12.8-4.9-17.7,0s-4.9,12.8,0,17.7l42.3,42.3H77 c-6.9,0-12.5,5.6-12.5,12.5s5.6,12.5,12.5,12.5h130l-42.3,42.3c-4.9,4.9-4.9,12.8,0,17.7c2.4,2.4,5.6,3.7,8.8,3.7s6.4-1.2,8.8-3.7 l63.6-63.6C250.7,148.1,250.9,140.7,246.6,135.8z"/></g></g></svg>