<svg id="_Layer_" data-name="&lt;Layer&gt;" xmlns="http://www.w3.org/2000/svg" viewBox="0 0 277.06 288">
  <g>
    <g>
      <polygon points="241.98 162.76 225.03 131.77 208.08 162.76 177.08 179.72 208.08 196.67 225.03 227.67 241.98 196.67 272.98 179.72 241.98 162.76"/>
      <polygon points="84.35 90.99 98.47 65.16 124.31 51.03 98.47 36.9 84.35 11.06 70.22 36.9 44.38 51.03 70.22 65.16 84.35 90.99"/>
      <polygon points="235.74 61.22 246.03 42.4 264.86 32.1 246.03 21.8 235.74 2.98 225.44 21.8 206.62 32.1 225.44 42.4 235.74 61.22"/>
      <polygon points="167.5 90.99 175.63 76.13 190.5 68 175.63 59.86 167.5 45 159.37 59.86 144.51 68 159.37 76.13 167.5 90.99"/>
    </g>
    <g>
      <path d="M178.54,110.88l-4.64-4.52a16.8,16.8,0,0,0-23.17.32l-31.19,32.06,27.75,27.75,31.56-32.44a16.39,16.39,0,0,0-.31-23.17Z"/>
      <path d="M107,151.59,7.87,253.49a16.39,16.39,0,0,0,.31,23.17l4.64,4.51A16.4,16.4,0,0,0,36,280.86l98.79-101.52Z"/>
    </g>
  </g>
</svg>
