<svg xmlns="http://www.w3.org/2000/svg" xmlns:xlink="http://www.w3.org/1999/xlink" id="Layer_1" x="0" y="0" enable-background="new 0 0 428.4 288" version="1.1" viewBox="0 0 428.4 288" xml:space="preserve"><style type="text/css"/><g><g><path d="M172.9,72.7v70.8c0,20.5-0.2,33.5-0.6,39c-0.3,5.6-1.2,8.9-2.6,10.2c-1.4,1.3-4.8,2-10.3,2.3l-7,0.2v9.8 c17.3-0.6,31-0.8,41.1-0.8c10,0,21.4,0.2,34.1,0.8v-9.8c-10-0.8-15.6-1.6-16.5-2.2c-1.1-0.7-1.8-1.6-2.4-2.7 c-0.8-2-1.4-10.8-1.6-26.3s-0.4-30.1-0.4-44.1c0-27.6,0.2-46.3,0.8-56.2c0.4-6.1,1.2-9.7,2.6-10.8c1.4-1.1,7.2-2,17.5-2.7v-9.8 c-9.3,0.4-18.9,0.6-28.9,0.6c-8.4,0-17.4-0.2-26.9-0.6c-10.7,25.2-29.5,64.6-56.3,118.1C90.2,106.5,75.9,77,72.7,70.1 c-4.6-9.7-9-19.7-13.3-29.6c-9.8,0.2-20.1,0.3-30.7,0.3c-9.2,0-18.5-0.1-28-0.3v9.8c9.9,0.7,15.6,1.3,16.8,2 c1.3,0.7,2.1,1.5,2.6,2.5c0.9,2,1.5,7.6,1.6,16.9c0.1,15.2,0.2,28.8,0.2,40.8c0,22.5-0.2,43.4-0.8,62.7c-0.2,9.4-1.1,15-2.5,16.6 c-1.4,1.6-5,2.6-10.7,2.9l-7,0.5v9.8c9.3-0.6,20-0.8,31.9-0.7c8,0,16,0.2,24.1,0.8v-9.8c-10.2-0.4-16-1.5-17.6-3 c-1.6-1.6-2.5-5.7-2.7-12.4c-0.4-16.6-0.6-47-0.6-91.1v-16l40.9,83.4c10,20.6,17.9,37.6,23.8,51h7.8c4.3-10.2,10.4-23.3,18.1-39.5 C145.3,128.5,160.8,96.9,172.9,72.7z"/></g><g><path d="M125.5,222.3h-5.2c-1.1,0-2,0.9-2,2v2.4c0,1.1,0.9,2,2,2h5.2c1.1,0,2-0.9,2-2v-2.4C127.6,223.2,126.7,222.3,125.5,222.3z"/></g><g><path d="M136.2,222.3h-5.2c-1.1,0-2,0.9-2,2v2.4c0,1.1,0.9,2,2,2h5.2c1.1,0,2-0.9,2-2v-2.4C138.2,223.2,137.3,222.3,136.2,222.3z"/></g><g><path d="M147.2,222.3H142c-1.1,0-2,0.9-2,2v2.4c0,1.1,0.9,2,2,2h5.2c1.1,0,2-0.9,2-2v-2.4C149.3,223.2,148.4,222.3,147.2,222.3z"/></g><g><path d="M158.1,222.3h-5.2c-1.1,0-2,0.9-2,2v2.4c0,1.1,0.9,2,2,2h5.3c1.1,0,2-0.9,2-2v-2.4C160.2,223.2,159.3,222.3,158.1,222.3z"/></g><g><path d="M364.5,222.3h-5.2c-1.1,0-2,0.9-2,2v2.4c0,1.1,0.9,2,2,2h5.2c1.1,0,2-0.9,2-2v-2.4C366.6,223.2,365.7,222.3,364.5,222.3z"/></g><g><path d="M353.5,222.3h-5.2c-1.1,0-2,0.9-2,2v2.4c0,1.1,0.9,2,2,2h5.2c1.1,0,2-0.9,2-2v-2.4C355.5,223.2,354.6,222.3,353.5,222.3z"/></g><g><path d="M375.5,222.3h-5.2c-1.1,0-2,0.9-2,2v2.4c0,1.1,0.9,2,2,2h5.2c1.1,0,2-0.9,2-2v-2.4C377.5,223.2,376.6,222.3,375.5,222.3z"/></g><g><path d="M386.5,222.3h-5.2c-1.1,0-2,0.9-2,2v2.4c0,1.1,0.9,2,2,2h5.2c1.1,0,2-0.9,2-2v-2.4C388.5,223.2,387.6,222.3,386.5,222.3z"/></g><g><path d="M342.3,222.4l-56.3-0.1l-7-25c-0.2-0.9-1.1-1.5-2-1.5c-0.9,0-1.7,0.7-2,1.6l-5.4,21.9l-8.7-53.8c-0.2-1-1.1-1.7-2-1.7 c-1,0-1.9,0.8-2,1.8l-6.1,58.6l-6.2-33.1c-0.2-0.9-1.1-1.6-2-1.6s-1.9,0.7-2,1.6l-6,31.2h-70.9c-1.1,0-2,0.9-2,2v2.4 c0,0.6,0.2,1.1,0.6,1.5s0.9,0.6,1.5,0.6h74.8c1,0,1.9-0.7,2-1.6l2.2-11.7l2.2,11.2l4.3,37.2c0.2,1.1,1,1.8,2,1.8 c1.1,0,2-0.8,2-1.7l6.6-64.1l6.8,42.3c0.2,1,1,1.7,2,1.7c0.9,0,1.8-0.6,2-1.6l6.6-26.8l3.3,11.9c0.2,0.8,1.1,1.5,2,1.5h59.7 c1.1,0,2-0.9,2-2v-2.4C344.4,223.3,343.5,222.4,342.3,222.4z"/></g><g><path d="M398.9,188.6c-7.3,1.8-15.1,2.6-23.5,2.6c-21.5,0-38.6-6.4-50.9-19.2c-13.3-13.8-20.1-31.9-20.1-54.3 c0-20.6,5.6-36.8,16.7-48.3s26.1-17.4,45-17.4c7.9,0,15.2,1,21.8,2.8c6.6,1.8,11.8,4.2,15.6,7.1c3.8,2.9,6,5,6.5,6.2 c0.4,1.2,0.9,8,1.4,20.4h9.9c0.6-10.2,1.4-18.6,2.5-25.4c0.6-3.9,1.6-7.9,3-12.2l-0.8-1.8c-9.8-3.7-19.7-6.4-29.7-8.2 c-10-1.8-20.1-2.7-30.2-2.7c-30.6,0-54.6,7.7-72,23.3c-17.4,15.6-26,35.5-26,59.8c0,16.9,3.8,31.9,11.5,45 c7.7,13,18.7,23.2,32.9,30.4c14.3,7.2,31.8,10.8,52.4,10.8c11,0,20.8-1.1,29.2-3c8.5-2,17.3-5.4,26.4-10.2c1.6-4.1,3.4-8,5.4-12 l-2.9-2.7C414.2,183.9,406.2,186.9,398.9,188.6z"/></g></g></svg>