<?xml version="1.0" encoding="utf-8"?>
<!-- Generator: Adobe Illustrator 27.1.1, SVG Export Plug-In . SVG Version: 6.00 Build 0)  -->
<svg version="1.1" id="Layer_1" xmlns="http://www.w3.org/2000/svg" xmlns:xlink="http://www.w3.org/1999/xlink" x="0px" y="0px"
	 viewBox="0 0 342.5 288" style="enable-background:new 0 0 342.5 288;" xml:space="preserve">
<style type="text/css">
	.st0{fill:#FFFFFF;}
</style>
<path d="M330,32.5H11.9c-6,0-10.8,4.8-10.8,10.8V253c0,6,4.8,10.8,10.8,10.8H330c6,0,10.8-4.8,10.8-10.8V43.3
	C340.8,37.3,336,32.5,330,32.5z"/>
<path class="st0" d="M25.1,219.7V116.5c0,0,42.9-30,138.9-30c98,0,152.9,30,152.9,30v103.2H25.1z"/>
<path d="M236.8,136.2H57.3c-6.6,0-12,5.4-12,12s5.4,12,12,12h179.5c6.6,0,12-5.4,12-12S243.4,136.2,236.8,136.2z"/>
<path d="M127.6,177.1H57.3c-6.6,0-12,5.4-12,12s5.4,12,12,12h70.3c6.6,0,12-5.4,12-12S134.2,177.1,127.6,177.1z"/>
</svg>
