<svg xmlns="http://www.w3.org/2000/svg" xmlns:xlink="http://www.w3.org/1999/xlink" id="Layer_1" x="0" y="0" enable-background="new 0 0 252.2 288" version="1.1" viewBox="0 0 252.2 288" xml:space="preserve"><style type="text/css"/><g><path d="M11.6,67h228.5c6.6,0,12-5.4,12-12s-5.4-12-12-12H11.6c-6.6,0-12,5.4-12,12S5,67,11.6,67z"/><path d="M240.1,132.9H11.6c-6.6,0-12,5.4-12,12s5.4,12,12,12h228.5c6.6,0,12-5.4,12-12S246.7,132.9,240.1,132.9z"/><path d="M240.1,222.8H11.6c-6.6,0-12,5.4-12,12s5.4,12,12,12h228.5c6.6,0,12-5.4,12-12S246.7,222.8,240.1,222.8z"/></g></svg>