<svg xmlns="http://www.w3.org/2000/svg" xmlns:xlink="http://www.w3.org/1999/xlink" id="Layer_1" x="0" y="0" enable-background="new 0 0 369 288" version="1.1" viewBox="0 0 369 288" xml:space="preserve"><style type="text/css"/><g><g><path d="M366.6,32.6c-2.8-3.9-7.7-5.8-12.4-4.7L40,100.1c-4.3,1-7.7,4.3-8.9,8.5c-1.2,4.3,0.1,8.8,3.3,11.9l63,59.9l2.2,91.4 c0,4.4,2.4,8.5,6.3,10.6c1.8,1,3.7,1.4,5.7,1.4c2.3,0,4.6-0.7,6.6-2l53.3-30.5l33.8,31.7c2.2,2.1,5.2,3.3,8.3,3.3 c0.5,0,1,0,1.6-0.1c3.6-0.5,6.8-2.5,8.7-5.6L367.1,45.9C369.7,41.7,369.5,36.5,366.6,32.6z M289.4,67.4l-178.9,92.4l-43.4-41.3 L289.4,67.4z M123.5,249.5l-2.2-46.3l32.3,31.2L123.5,249.5z M211,255.4l-82.1-78.1l189.6-97.9L211,255.4z"/></g><g><path d="M83.5,189.2c-2.1-3.9-7-5.3-10.9-3.2L5.4,222.9c-3.9,2.1-5.3,7-3.2,10.9c1.5,2.7,4.2,4.2,7,4.2c1.3,0,2.6-0.3,3.8-1 l67.2-36.8C84.2,198,85.6,193.1,83.5,189.2z"/></g><g><path d="M82.6,224c-2.1-3.9-6.9-5.4-10.8-3.3L37,239.3c-3.9,2.1-5.4,6.9-3.3,10.8c1.4,2.7,4.2,4.2,7.1,4.2c1.3,0,2.6-0.3,3.8-0.9 l34.7-18.5C83.2,232.8,84.7,227.9,82.6,224z"/></g><g><path d="M74.7,250.8l-11,5.5c-4,2-5.6,6.8-3.6,10.7c1.4,2.8,4.2,4.4,7.2,4.4c1.2,0,2.4-0.3,3.6-0.8l11-5.5c4-2,5.6-6.8,3.6-10.7 C83.5,250.5,78.7,248.8,74.7,250.8z"/></g></g></svg>