<svg xmlns="http://www.w3.org/2000/svg" xmlns:xlink="http://www.w3.org/1999/xlink" id="Layer_1" x="0" y="0" enable-background="new 0 0 184 288" version="1.1" viewBox="0 0 184 288" xml:space="preserve"><style type="text/css"/><g><g><path d="M156.1,263h-127c-2,0-3.7-1.6-3.7-3.7V28.7c0-2,1.6-3.7,3.7-3.7h126.3c2,0,3.7,1.7,3.7,3.7l0.8,230.7 C159.7,261.4,158.1,263,156.1,263z M172.4,1H12.2C6.2,1,1.4,5.9,1.4,11.9v264.3c0,6,4.9,10.9,10.9,10.9h160.4 c5.9,0,10.8-4.8,10.9-10.7L183.2,12C183.3,6,178.4,1,172.4,1L172.4,1z"/></g></g><g><g><path d="M110.8,241h-37c-6.6,0-12-5.4-12-12s5.4-12,12-12h37c6.6,0,12,5.4,12,12S117.4,241,110.8,241z"/></g></g><g><g><rect width="91" height="151" x="46.8" y="46"/></g></g></svg>