<svg xmlns="http://www.w3.org/2000/svg" xmlns:xlink="http://www.w3.org/1999/xlink" id="Layer_1" x="0" y="0" enable-background="new 0 0 314.2 288" version="1.1" viewBox="0 0 314.2 288" xml:space="preserve"><style type="text/css"/><g><path d="M288.7,30.9V17.4c0-9.8-7.9-17.7-17.7-17.7H136.4c-9.8,0-17.7,7.9-17.7,17.7V31c-14,3.4-24.5,16-24.5,31.1v16.6 c0,6.6,5.4,12,12,12s12-5.4,12-12V62.2c0-4.4,3.6-8,8-8h23.1c6.6,0,12-5.4,12-12s-5.4-12-12-12h-6.6v-6.5h122v6.4h-69.9 c-6.6,0-12,5.4-12,12s5.4,12,12,12h80.4c0.5,0.1,1,0.1,1.5,0.1s1,0,1.5-0.1h3c4.4,0,8,3.6,8,8v28c-2-3.7-6-6.2-10.5-6.2h-44.8 c-6.6,0-12,5.4-12,12v126.8c0,6.6,5.4,12,12,12h44.8c4.5,0,8.5-2.5,10.5-6.2v27.9c0,4.4-3.6,8-8,8H176.4c-6.6,0-12,5.4-12,12 s5.4,12,12,12h104.8c17.6,0,32-14.4,32-32V62.1C313.2,47,302.7,34.3,288.7,30.9z M278.7,210.7h-32.8V107.9h32.8 c4.5,0,8.5-2.5,10.5-6.2v115.2C287.1,213.2,283.2,210.7,278.7,210.7z"/><path d="M134.1,132.8v-12.6c0-11.5-9.4-20.9-20.9-20.9H48.4c-11.5,0-20.9,9.4-20.9,20.9v12.7c-5.2,3.7-10.3,8.6-14.6,14.2 c-5.1,6.6-11.2,16.7-11.2,27.5v81.9c0,17.6,14.3,31.9,31.9,31.9h94.5c17.6,0,31.9-14.3,31.9-31.9v-81.9 C160,158.4,146.4,141.6,134.1,132.8z M136,256.4c0,4.4-3.5,7.9-7.9,7.9H33.6c-4.4,0-7.9-3.5-7.9-7.9v-81.9c0-6.1,8.9-17.9,17-23.1 h11c6.6,0,12-5.4,12-12s-5.4-12-12-12h-2.2v-4.2h58.6v4.2H90.2c-6.6,0-12,5.4-12,12s5.4,12,12,12H119c8.1,5.2,17,17,17,23.1V256.4z"/><polygon points="92.3 175.1 68.3 175.1 68.3 199.5 43.9 199.5 43.9 223.5 68.3 223.5 68.3 247.9 92.3 247.9 92.3 223.5 116.6 223.5 116.6 199.5 92.3 199.5"/></g></svg>