<?xml version="1.0" encoding="utf-8"?>
<!-- Generator: Adobe Illustrator 25.0.0, SVG Export Plug-In . SVG Version: 6.00 Build 0)  -->
<svg version="1.1" xmlns="http://www.w3.org/2000/svg" xmlns:xlink="http://www.w3.org/1999/xlink" x="0px" y="0px"
	 viewBox="0 0 288 288" style="enable-background:new 0 0 288 288;" xml:space="preserve">
<style type="text/css">
	.st0{fill:#FFFFFF;}
	.st1{fill:none;}
	.st2{fill:#010101;}
	.st3{fill-rule:evenodd;clip-rule:evenodd;fill:#010101;}
	.st4{fill:#020202;}
	.st5{fill:#1A1A1A;}
</style>
<path d="M288,144.4c0,79.5-64.5,144-144,144c-14.9,0-29.1-2.3-42.6-6.4c5.9-9.6,14.6-25.3,17.9-37.7c1.7-6.7,8.9-34.3,8.9-34.3
	c4.7,8.9,18.4,16.5,33,16.5c43.4,0,74.7-39.9,74.7-89.6c0-47.6-38.8-83.1-88.8-83.1c-62.1,0-95.2,41.7-95.2,87.2
	c0,21.1,11.3,47.4,29.2,55.8c2.7,1.3,4.2,0.7,4.8-1.9c0.5-2,2.9-11.8,4-16.3c0.3-1.5,0.2-2.7-1-4.1c-5.9-7.3-10.6-20.5-10.6-32.9
	c0-31.8,24-62.5,65-62.5c35.4,0,60.2,24.1,60.2,58.6c0,39-19.7,66-45.3,66c-14.1,0-24.7-11.7-21.3-26c4.1-17.1,11.9-35.6,11.9-48
	c0-11-5.9-20.3-18.2-20.3c-14.5,0-26.1,14.9-26.1,35c0,12.8,4.3,21.4,4.3,21.4S94.6,225.9,92,237.2c-2.9,12.4-1.7,30-0.5,41.3
	C37.9,257.6,0,205.4,0,144.4c0-79.5,64.5-144,144-144S288,64.9,288,144.4z"/>
</svg>
