<?xml version="1.0" encoding="utf-8"?>
<!-- Generator: Adobe Illustrator 27.1.1, SVG Export Plug-In . SVG Version: 6.00 Build 0)  -->
<svg version="1.1" id="Layer_1" xmlns="http://www.w3.org/2000/svg" xmlns:xlink="http://www.w3.org/1999/xlink" x="0px" y="0px"
	 viewBox="0 0 276 288" style="enable-background:new 0 0 276 288;" xml:space="preserve">
<path d="M206.6,11.7c-7.2-4.4-15.2-8.8-24.5-10.3C176.3,0.5,171.5,0,165.5,0c-35,0.1-60.3,0-95.3,0.1C47.6,0.2,28.6,17.4,28,40
	c-0.7,26.2-0.6,112.7-0.6,133.7c0,0.5,0.7,0.8,1,0.3c10.7-14.8,35.9-24.8,40.5-26.5c0.2-0.1,0.4,0.2,0.2,0.3
	c-4.8,6.1-43.3,56.9-41,104.2l0.1,1.9c1.8,11.8,8.9,21.4,19.7,27.9c29.2,17.4,64.8-3.1,65-37.1c0.1-12.4,0.2-57.8-0.1-70.3
	c-0.1-3.6,1-4.5,4.5-4.5c18.4,0.2,27,0.2,45.4,0.2c27.2-0.1,49.5-10.7,66.9-31.5c12.4-14.9,18.8-32.4,18.9-51.7
	C248.7,54.1,234.5,28.9,206.6,11.7z M115.9,124.1c-20.3,18.2-32.1,18.2-36.3,17.4c-0.6-0.1-1.1-0.4-1.5-0.9
	c-0.4-0.5-0.7-1.1-0.7-1.7c-0.4-4.4,1-16,21-34.2c0.3-0.2,0.7-0.2,0.9,0l16.7,18.5C116.2,123.5,116.2,123.9,115.9,124.1z
	 M184.1,77.5c-17.9,16.9-33.2,27.7-37.2,30.4c-0.6,0.4-0.9,1.2-0.7,1.9l2.9,12.4c0.2,0.7,0,1.4-0.5,1.9l-15,16.5
	c-0.3,0.3-0.8,0.2-0.8-0.2c-0.7-3.6-4.3-16.8-18.4-32.5c-14.2-15.7-26.9-20.5-30.4-21.7c-0.4-0.1-0.5-0.6-0.2-0.9l18-13.3
	c0.5-0.4,1.3-0.5,1.9-0.3l12,4.2c0.7,0.3,1.5,0.1,2-0.5c3.1-3.7,15.4-17.8,34-33.9c15.1-13,31.4-12.2,40-10.5c3.8,0.8,6.7,3.9,7,7.8
	C199.5,47.5,198.6,63.9,184.1,77.5z"/>
</svg>
