<svg xmlns="http://www.w3.org/2000/svg" xmlns:xlink="http://www.w3.org/1999/xlink" id="Layer_1" x="0" y="0" enable-background="new 0 0 288 288" version="1.1" viewBox="0 0 288 288" xml:space="preserve"><style type="text/css"/><g><path d="M144,0C64.5,0,0,64.5,0,144s64.5,144,144,144s144-64.5,144-144S223.5,0,144,0z M228.1,228.2 c-22.5,22.5-52.4,34.9-84.1,34.9c-31.8,0-61.7-12.4-84.1-34.9C37.4,205.7,25,175.8,25,144.1S37.4,82.4,59.9,60 c22.5-22.5,52.4-34.9,84.1-34.9c31.8,0,61.7,12.4,84.1,34.9c22.4,22.5,34.9,52.4,34.9,84.1S250.6,205.7,228.1,228.2z"/><path d="M213.2,138.3l-98.3-55.6c-4.4-2.5-9.7,0.7-9.7,5.7v111.1c-0.1,5.1,5.3,8.2,9.7,5.8l98.3-55.6 C217.6,147.2,217.6,140.8,213.2,138.3z"/></g></svg>