<?xml version="1.0" encoding="utf-8"?>
<!-- Generator: Adobe Illustrator 27.1.1, SVG Export Plug-In . SVG Version: 6.00 Build 0)  -->
<svg version="1.1" id="Layer_1" xmlns="http://www.w3.org/2000/svg" xmlns:xlink="http://www.w3.org/1999/xlink" x="0px" y="0px"
	 viewBox="0 0 246.6 246.5" style="enable-background:new 0 0 246.6 246.5;" xml:space="preserve">
<g>
	<path d="M0,53c0.2-1,0.4-2,0.6-3c1.7-16.9,8.9-30.5,23-40.3C34.2,2.4,46.2,0,58.8,0h141.9c16.1,2.3,28.6,11.6,37.4,25.3
		c6.4,10,8.5,21.3,8.5,32.9v138.5c-2.2,26-21.2,45.3-47.2,48.8c-2,0.3-3.9,0.7-5.8,1H53c-2.2-0.4-4.4-0.8-6.6-1.1
		C24.6,241.9,9.9,229.7,3,208.7c-1.6-4.8-2-10.1-3-15.1V53z M128.8,39.6c-25.9,0-46.4,5.4-64.6,15.7c-16.9,9.6-30.7,22.6-41.3,38.9
		c-2.7,4.1-3,8.5-0.5,12.8c2.5,4.4,6.5,6.4,11.6,6c4.4-0.3,7.3-2.9,9.7-6.4c21.4-30.3,50.7-45,87.7-42.3c30.4,2.2,54,17.1,71.5,41.9
		c1.4,2,3.2,4,5.2,5.2c4.8,2.9,10.8,1.8,14.7-2.4c3.8-4.2,4.3-10.1,0.9-15.1C199.6,58.7,165.9,40.9,128.8,39.6z M188.8,124.4
		c-0.2-3.3-1.9-5.2-3.4-7.4c-17.3-24.2-40.9-35.5-70.5-32.5c-23,2.3-40.9,13.9-54,32.9c-4.1,6-2.9,13.4,2.8,17.3
		c5.6,3.9,12.9,2.4,17.2-3.5c0.5-0.7,1-1.4,1.5-2.1c15.3-21.2,44.6-27.2,67-13.7c6.7,4,12.1,9.4,16.4,15.8c3.3,4.9,8.8,6.8,14.1,5
		C184.9,134.6,188.2,130,188.8,124.4z M161.5,169.7c-0.1-21.2-17.3-38.3-38.3-38.2c-21.1,0.1-38.1,17.2-38.1,38.2
		c0,21.3,17.1,38.3,38.5,38.3C144.6,208,161.6,190.8,161.5,169.7z"/>
	<path d="M123.3,149.7c11.1,0,20.1,9,20.2,20.1c0.1,10.9-9.1,20.2-20.1,20.3c-11.1,0.1-20.3-9.2-20.3-20.3
		C103.2,158.6,112.2,149.7,123.3,149.7z"/>
</g>
</svg>
