<?xml version="1.0" encoding="utf-8"?>
<!-- Generator: Adobe Illustrator 27.5.0, SVG Export Plug-In . SVG Version: 6.00 Build 0)  -->
<svg version="1.1" id="Layer_1" xmlns="http://www.w3.org/2000/svg" xmlns:xlink="http://www.w3.org/1999/xlink" x="0px" y="0px"
	 viewBox="0 0 209.3 203.4" style="enable-background:new 0 0 209.3 203.4;" xml:space="preserve">
<path d="M237.9,112.2h-28.5V81.4c0-2.9-1.2-5.7-3.2-7.7L137,5.2c-2-2.1-4.8-3.2-7.6-3.2H22.8C10.2,2,0,12.2,0,24.8v87.4h-28.5
	c-6,0-10.8,4.8-10.8,10.8v131.4c0,6,4.8,10.8,10.8,10.8h28.2v12.2c0,6,4.8,10.8,10.8,10.8h188.4c6,0,10.8-4.8,10.8-10.8v-12.1l0-0.1
	h8.8h19.4c6,0,10.8-4.8,10.8-10.8V123C248.6,117.1,243.8,112.2,237.9,112.2z M133.8,35.9l41.3,41h-41.3V35.9z M109.8,26v59.2
	c0,8.6,7,15.6,15.6,15.6h59.8v11.4H24V26H109.8z M185.6,261.3l-0.7,1.9H24.8l-1.1-3.1v-56.9h162V261.3z M224.6,241.2h-6.2h-8.8
	c0,0,0,0,0,0v-62h-10.8H10.4H-0.4v62h-15v-105h26.5h213.5V241.2z"/>
</svg>
