<?xml version="1.0" encoding="utf-8"?>
<!-- Generator: Adobe Illustrator 27.5.0, SVG Export Plug-In . SVG Version: 6.00 Build 0)  -->
<svg version="1.1" id="Layer_1" xmlns="http://www.w3.org/2000/svg" xmlns:xlink="http://www.w3.org/1999/xlink" x="0px" y="0px"
	 viewBox="0 0 288 286.2" style="enable-background:new 0 0 288 286.2;" xml:space="preserve">
<path d="M277.2,110.2h-28.5V79.4c0-2.9-1.2-5.7-3.2-7.7L176.3,3.2c-2-2.1-4.8-3.2-7.6-3.2H62.1C49.5,0,39.3,10.2,39.3,22.8v87.4
	H10.8C4.8,110.2,0,115,0,121v131.4c0,6,4.8,10.8,10.8,10.8H39v12.2c0,6,4.8,10.8,10.8,10.8h188.4c6,0,10.8-4.8,10.8-10.8v-12.1v-0.1
	h8.8h19.4c6,0,10.8-4.8,10.8-10.8V121C287.9,115.1,283.1,110.2,277.2,110.2z M173.1,33.9l41.3,41h-41.3V33.9z M149.1,24v59.2
	c0,8.6,7,15.6,15.6,15.6h59.8v11.4H63.3V24H149.1z M224.9,259.3l-0.7,1.9H64.1l-1.1-3.1v-56.9h162L224.9,259.3L224.9,259.3z
	 M263.9,239.2h-6.2h-8.8l0,0v-62h-10.8H49.7H38.9v62h-15v-105h26.5h213.5V239.2z"/>
</svg>
