<svg xmlns="http://www.w3.org/2000/svg" xmlns:xlink="http://www.w3.org/1999/xlink" id="Layer_1" x="0" y="0" enable-background="new 0 0 286.1 288" version="1.1" viewBox="0 0 286.1 288" xml:space="preserve"><style type="text/css"/><g><path d="M18.1,286.3c-9.6,0-17.5-7.9-17.5-17.5v-63c0-7.5,5.7-13.6,13.3-14.1l0.8-0.1l0.8,0c3.7,0.2,6.9,1.8,9.5,4.6l0.3,0.3 c4.6,5.3,8.6,9.4,12.2,12.3c3.9,3.1,6.1,4.3,8,4.4c6.6-0.1,11.3-6.1,13.5-9.6c4.5-7.2,7-17,7-27.4c0-10.4-2.5-20.1-7-27.4 c-2.2-3.6-6.9-9.5-13.5-9.6c-1.9,0.1-4.1,1.3-8,4.4c-3.6,2.9-7.6,7-12.2,12.3l-0.3,0.4c-2.6,2.7-5.7,4.2-9.4,4.5l-0.8,0l-0.8-0.1 c-7.6-0.5-13.3-6.6-13.3-14.1v-63c0-9.6,7.8-17.4,17.4-17.4h63c0.9,0,1-1,1-1c0-0.1-0.1-0.3-0.3-0.5c-5.9-5.1-10.6-9.8-14-13.9 c-2.9-3.5-7.4-9.9-7.3-16.3c0.1-9.5,5.7-18.2,15.8-24.6c9.2-5.8,21.4-9,34.3-9c0,0,0.1,0,0.1,0c12.8,0,25,3.2,34.2,9 c10.2,6.4,15.8,15.1,15.8,24.6c0.1,6.3-4.4,12.8-7.3,16.3c-4.3,5.3-9.9,10.4-13.9,13.9l-0.1,0.1c-0.1,0.1-0.2,0.3-0.2,0.4 c0,0.1,0.1,1.1,1.1,1.1h62.9c9.6,0,17.4,7.8,17.5,17.4v63c0,0.9,1,1,1,1l0.1,0c0,0,0.2-0.1,0.4-0.2c5.1-5.9,9.7-10.6,13.9-14 c3.5-2.9,9.9-7.4,16.3-7.3c9.5,0,18.2,5.6,24.6,15.8c5.8,9.3,9,21.4,9,34.3c0,12.9-3.2,25.1-9,34.3l0,0 c-6.4,10.1-15.1,15.7-24.6,15.8c-6.4,0.1-12.8-4.4-16.3-7.3c-4.2-3.4-8.8-8.1-13.9-13.9l-0.1-0.1c-0.1-0.2-0.3-0.2-0.4-0.2 c-0.1,0-1.1,0.1-1.1,1v62.9c0,9.6-7.9,17.4-17.4,17.5H18.1z M24.7,229.3v33h172.1v-56.4c0-13.8,11.2-25,24.9-25 c7.2-0.1,14.2,3.2,18.9,8.7c4.1,4.7,7.8,8.5,10.8,10.9l0.2,0.1c0.6,0.5,1.2,0.9,1.7,1.3c0.8-0.6,2.1-1.8,3.6-4.1 c3.3-5.3,5.3-13.4,5.3-21.5c0-8.2-2-16.2-5.3-21.5c-1.4-2.3-2.7-3.5-3.6-4.1c-0.5,0.3-1.1,0.7-1.7,1.3l-0.2,0.1 c-3,2.4-6.8,6.2-10.8,10.9c-4.6,5.4-11.6,8.7-18.6,8.7c-0.1,0-0.2,0-0.2,0c-13.7-0.1-24.9-11.2-24.9-25V90.2h-56.4 c-13.8,0-25-11.3-25-25c-0.1-7.1,3.2-14.2,8.7-18.9c4.6-3.9,8.5-7.8,10.9-10.8l0.1-0.2c0.5-0.6,1-1.2,1.3-1.7 c-0.6-0.8-1.8-2.1-4.1-3.6c-5.3-3.3-13.3-5.3-21.5-5.3c0,0-0.1,0-0.1,0c-8.2,0-16.2,2-21.5,5.3c-2.3,1.4-3.5,2.7-4.1,3.6 c0.3,0.5,0.8,1.1,1.3,1.7l0.1,0.2c2.4,3,6.3,6.8,10.9,10.8c5.5,4.6,8.7,11.7,8.7,18.9c0,13.7-11.2,24.9-25,24.9H24.7v33 c5.6-4.2,12.1-7.8,20.4-8l0.2,0l0.2,0c13.4,0,25.8,7.7,34,21c6.8,11,10.6,25.2,10.6,40c0,14.9-3.8,29.1-10.6,40.1 c-8.2,13.3-20.6,20.9-34,21l-0.2,0l-0.2,0C36.8,237.1,30.3,233.5,24.7,229.3z"/></g></svg>