<svg xmlns="http://www.w3.org/2000/svg" xmlns:xlink="http://www.w3.org/1999/xlink" id="Layer_1" x="0" y="0" enable-background="new 0 0 317.2 288" version="1.1" viewBox="0 0 317.2 288" xml:space="preserve"><style type="text/css"/><g><path d="M315.8,10.5c-1.4-4.6-5.4-8-10.2-8.5c-2.7-0.3-67.2-7.1-123.6,12.8c-50,17.6-77.4,40.7-107.8,74.8 c-27,30.2-42,65.7-48.2,114.4l-0.1-0.1c0,0-2.7,20.6-6.8,32.2c-7.1,15.8-11.3,28.6-14.3,37.6c-1.6,4.7,1,9.8,5.7,11.4 c0.9,0.3,1.9,0.5,2.8,0.5c3.8,0,7.3-2.4,8.5-6.2c7.1-21.3,21.9-65.7,66.8-120.1c43.9-53.2,118.8-93.4,119.6-93.8 c4.4-2.3,6.1-7.8,3.7-12.2c-2.3-4.4-7.8-6.1-12.2-3.7c-3.2,1.7-78.8,42.3-125,98.3c-6.6,8-12.6,15.9-18.1,23.5 c7.2-26.1,18.5-46.9,35.4-65.7c27.8-31.1,52.7-52.2,97.9-68.1c29.4-10.4,62.2-12.6,84.8-12.7c-22.3,22.6-37.8,45.9-48.1,63.9 c0,0,0,0,0,0c-26.7,2.8-45.3,8.1-46,8.3c-4.8,1.4-7.5,6.4-6.2,11.1c1.1,3.9,4.7,6.5,8.6,6.5c0.8,0,1.7-0.1,2.5-0.4 c0.1,0,12.3-3.5,30.8-6.2c-1.5,3.1-2.8,5.8-3.8,7.9c-2.8,5.9-6.5,11.6-10.7,16.9c-40.6,0.9-67.5,12.3-68.6,12.8 c-4.6,2-6.7,7.3-4.7,11.8c1.5,3.4,4.8,5.4,8.3,5.4c1.2,0,2.4-0.2,3.6-0.7c0.2-0.1,16.3-6.9,42.1-10c-14.6,12.1-30.7,21.4-42,27.3 c-24.3,12.6-49.1,17.4-61.7,19.1c-6.6,0.9-11.2,7-10.3,13.5s7,11.2,13.5,10.3c14.1-1.9,42-7.3,69.5-21.6 c52.1-26.9,73.7-55.5,82.7-74.7c12.8-27.3,34.8-67.7,77.6-102.9C315.6,20.1,317.1,15.1,315.8,10.5z"/></g></svg>