<svg xmlns="http://www.w3.org/2000/svg" xmlns:xlink="http://www.w3.org/1999/xlink" id="Layer_1" x="0" y="0" enable-background="new 0 0 276 288" version="1.1" viewBox="0 0 276 288" xml:space="preserve"><style type="text/css">.st3{fill-rule:evenodd;clip-rule:evenodd;fill:#010101}</style><path d="M59.1,52.9c-18.9-0.2-30.4,6.6-34.5,20.2c-0.9,13.8-2,27.5-3.1,41.2c-1.4,16.6-8.3,26.9-20.8,30.9v5.1	c12,4,18.9,14.2,20.8,30.5c1.1,13.7,2.2,27.3,3.3,41c3.5,13.8,13.4,20.7,29.8,20.7h0.8v-4.6c-4.5-0.5-10.2-3-14.2-7.6	s-6-10.3-6-17.1c0-2.8,0.2-7.1,0.5-12.8c0.3-5.7,0.5-10.1,0.5-13c0-19.1-6.2-32.3-18.6-39.8c12.6-7.4,18.8-20.7,18.8-39.8	c0-2.8-0.2-7.1-0.6-12.8c-0.4-5.7-0.6-10.1-0.6-13c0-6.8,2.1-12.5,6.2-17.1c4.1-4.6,17.7-7.6,17.7-7.6V52.9z" class="st3"/><path d="M274.2,145c-12-4-18.9-14.2-20.8-30.5c-1.1-13.6-2.2-27.3-3.3-41c-3.5-13.8-13.4-20.7-29.8-20.7h-8.1V57	c10.3,0.5,16,3,20,7.6s6,10.3,6,17.1c0,2.8-0.2,7.1-0.5,12.8c-0.3,5.7-0.5,10.1-0.5,13c0,19.1,6.2,32.3,18.6,39.8	c-12.6,7.4-18.8,20.7-18.8,39.8c0,2.8,0.2,7.1,0.6,12.8c0.4,5.7,0.6,10.1,0.6,13c0,6.8-2.1,12.5-6.2,17.1s-16.2,7.6-16.2,7.6v4.9	c18.9,0.2,30.4-6.6,34.5-20.2c0.9-13.8,2-27.5,3.1-41.2c1.4-16.6,8.3-26.9,20.8-30.9V145z" class="st3"/><path d="M82.5,110.6l12.7,3.3c0,0,6.1-21.9,21.6-16.3s27.6-4.3,27.6-4.3c4.6,17.8-20,26.7-45.7,46.1	c-12.5,9.4-12.3,44.8-12.3,44.8l98.9-0.1c-0.4-0.6-6.6-13.6-7-29.8c-0.3-15.7,12.8-39.6,11.3-74.3c-1.5-34.7-41.8-44.4-41.8-44.4	c8.5-8.3-12.2-23.4-12.2-23.4V37c-22.2,1.5-31.3,14.9-31.3,14.9l3,9.8c0,0-27.8,24.9-34.9,30.4c-7.1,5.6,3.1,20.6,3.1,20.6	L82.5,110.6z" class="st3"/><path d="M190.8,192.8L190.8,192.8c0-1.5-1.2-2.7-2.7-1.3H87.2c-1.5-1.4-2.7-0.1-2.7,1.3c0,1.5,1.2,2.7,2.7,2.3h100.9	C189.6,195.5,190.8,194.3,190.8,192.8" class="st3"/><path d="M200.3,222.5l-6-18.3c0-1-0.8-1.8-1.8-1.8H84.2c-1,0-1.8,0.8-1.8,1.8l-6,18.3c0,1,0.8,1.8,1.8,1.8h120.3	C199.5,224.3,200.3,223.5,200.3,222.5" class="st3"/><path d="M171.4,268.1c0,0-19.5-12.2-19.5-20.4c0-8.2,9.1-16.1,9.1-16.1c0-1-1.4-3.6-1.7-3.6h-21h-21	c-0.3,0-1.7,2.6-1.7,3.6c0,0,9.1,7.9,9.1,16.1s-19.5,20.4-19.5,20.4c-1.3,2.2,0.7,3.6,1,3.6h32.1h32.1	C170.7,271.7,172.7,270.3,171.4,268.1" class="st3"/></svg>