<svg xmlns="http://www.w3.org/2000/svg" xmlns:xlink="http://www.w3.org/1999/xlink" id="Layer_1" x="0" y="0" enable-background="new 0 0 291.9 288" version="1.1" viewBox="0 0 291.9 288" xml:space="preserve"><style type="text/css"/><g><path d="M285.5,21.3c-2.4-7.5-8.2-13.3-15.7-15.7c-10.7-3.4-22.1-5.1-33.8-5.1c-5.7,0-11.5,0.4-17.4,1.2 c-28.8,3.9-59.6,17.6-87.9,38.9c-1.6-2.8-4.4-5-7.8-5.7c-20.3-4.5-43.7-1.2-65.9,9.3C36.4,53.8,19.1,68.8,9.3,85.5 c-4.2,7.1-7,14.4-8.4,21.8c0,0.2-0.1,0.4-0.1,0.5c-1.6,9.5,4.1,17.5,14.1,19.6c0.2,0.1,0.5,0.1,0.7,0.1c3.8,0.7,8.2,0.4,13.1,0.2 c7.7-0.4,18.3-1,26,2.1c1.5,0.6,3,0.9,4.4,0.9c0.8,0,1.6-0.1,2.4-0.2c-1.7,7.3-2.2,14.1-1.3,20.5c0.3,2.3,0.9,4.7,1.9,7.2 l-19.4,4.5c-1.7,0.4-3.1,1.5-3.9,3c-0.8,1.5-1,3.3-0.4,4.9l7.7,22c-1.7,1.9-2.5,4.4-2.2,6.9c1,9.9,7.2,21,16.9,30.7 c9.7,9.6,20.8,15.8,30.7,16.8c0.3,0,0.6,0,0.9,0c2.3,0,4.6-0.9,6.2-2.5c0.5,0.4,1,0.7,1.6,0.9l21,7.8c0.7,0.3,1.4,0.4,2.1,0.4 c1,0,2-0.2,2.8-0.7c1.5-0.8,2.6-2.3,3-3.9l4.5-19.6c2.4,0.9,4.7,1.5,7,1.8c2.1,0.3,4.2,0.4,6.4,0.4c3.3,0,6.8-0.3,10.3-1 c0.1,0.8,0.4,1.5,0.7,2.3c3.1,7.6,2.5,18.2,2.1,26c-0.3,5-0.5,9.3,0.2,13.1c0,0.2,0.1,0.5,0.1,0.7c1.8,8.9,8.4,14.3,16.4,14.3 c1,0,2.1-0.1,3.2-0.3c0.2,0,0.3-0.1,0.5-0.1c7.4-1.4,14.7-4.3,21.8-8.5c16.6-9.8,31.7-27.2,41.3-47.7c10.4-22.2,13.7-45.6,9.2-65.9 c-0.4-1.6-1-3.1-1.9-4.3c21.1-28.3,34.7-59.1,38.6-87.8C291.8,54.5,290.5,37.2,285.5,21.3z M27.4,103.8c-0.2,0-0.4,0-0.6,0 c0.9-2,1.9-4.1,3.1-6.1c7.4-12.6,21-24.2,37.2-31.8c14.6-6.9,30.1-9.9,43.6-8.6c-18.5,17.2-33.4,36.3-42.1,54.1c-1.3-1.6-3-3-5-3.8 C51,102.5,36.9,103.3,27.4,103.8z M56.7,186.6l-4.9-13.9l14.6-3.4c0.5-0.1,1-0.3,1.4-0.5c1.6,2.4,3.5,5,5.6,7.7 c0.4,0.5,0.9,1.1,1.3,1.6L56.7,186.6z M87.3,227.3c-4.5-2-9.5-5.5-14-10c-4.5-4.5-8-9.4-10-13.9l22.8-10.7c0.3-0.2,0.6-0.3,1-0.5 c1.9,2,3.9,4,5.9,6.1c1.9,1.9,3.7,3.7,5.6,5.4c-0.2,0.3-0.3,0.6-0.5,0.9L87.3,227.3z M122.2,225.1l-3.3,14.4l-14.5-5.4 c-0.1,0-0.1,0-0.2-0.1l8.5-17.9c0.7,0.6,1.5,1.2,2.2,1.8c2.8,2.2,5.5,4.1,7.9,5.8C122.5,224.1,122.3,224.6,122.2,225.1z M143.6,207.3c-5.8-0.8-20.3-12.7-33.7-26c-13.4-13.3-25.3-27.8-26.1-33.6c-0.6-4.7,0.2-10.3,2.3-16.4 c6.5-19.4,25.1-43.7,49.8-64.3c13.3-11.1,28.3-21,44.1-28.5c7.9,14.4,18.4,28.3,30.8,40.7c12.8,12.8,27.2,23.5,42.1,31.5 c-7.5,16-17.5,31.1-28.7,44.5c-20.5,24.7-44.8,43.3-64.2,49.9c-4.8,1.6-9.3,2.5-13.2,2.5C145.7,207.5,144.7,207.5,143.6,207.3z M190,257.5c-2,1.2-4.1,2.2-6.1,3.1c0-0.2,0-0.4,0-0.6c0.5-9.4,1.2-23.6-3.8-36.1c-0.2-0.4-0.3-0.7-0.5-1.1 c16.7-8.2,34.6-21.8,51-38.8c-0.2,11.6-3.2,24.2-8.8,36.3C214.2,236.5,202.6,250.1,190,257.5z M265.6,69.3 c-1.1,8.2-3.1,16.4-5.9,24.5c-12.7-7-25.1-16.4-36.1-27.4c-10.7-10.7-19.8-22.6-26.8-34.8c8.2-2.8,16.6-4.9,24.9-6.1 c4.7-0.6,9.5-1,14.2-1c9,0,18,1.2,26.6,4C266.7,41.7,267.5,55.5,265.6,69.3z"/><path d="M168.9,160.1c10.6,0,20.7-4.2,28.2-11.7c15.5-15.6,15.5-40.8,0-56.4c-7.5-7.5-17.5-11.7-28.2-11.7c0,0,0,0,0,0 c-10.6,0-20.7,4.2-28.2,11.7c-7.5,7.5-11.7,17.5-11.7,28.2c0,10.6,4.2,20.7,11.7,28.2C148.3,156,158.3,160.1,168.9,160.1 C168.9,160.1,168.9,160.1,168.9,160.1z M157.7,109c3-3,7-4.7,11.2-4.7c0,0,0,0,0,0c4.2,0,8.2,1.6,11.2,4.6c6.2,6.2,6.2,16.2,0,22.4 c-3,3-7,4.7-11.2,4.7c0,0,0,0,0,0c-4.2,0-8.2-1.6-11.2-4.6C151.5,125.3,151.5,115.2,157.7,109z"/><path d="M44,231.6l-30.9,27.7c-2.5,2.2-2.7,6-0.5,8.5c1.2,1.3,2.8,2,4.5,2c1.4,0,2.9-0.5,4-1.5L52,240.6c2.5-2.2,2.7-6,0.5-8.5 C50.3,229.6,46.5,229.4,44,231.6z"/><path d="M71,246.2c-3.2-0.9-6.5,1-7.4,4.2l-7.1,26.1c-0.9,3.2,1,6.5,4.2,7.4c0.5,0.1,1.1,0.2,1.6,0.2c2.6,0,5.1-1.8,5.8-4.4 l7.1-26.1C76.1,250.3,74.2,247,71,246.2z"/><path d="M39.3,215.1c-0.8-3.2-4-5.2-7.2-4.4L6.2,217c-3.2,0.8-5.2,4-4.4,7.2c0.7,2.7,3.1,4.6,5.8,4.6c0.5,0,0.9-0.1,1.4-0.2 l25.8-6.3C38.1,221.6,40.1,218.4,39.3,215.1z"/></g></svg>