<?xml version="1.0" encoding="UTF-8"?>
<svg id="_Layer_" data-name=" Layer " xmlns="http://www.w3.org/2000/svg" version="1.1" viewBox="0 0 288.6 288">
  <defs>
    <style>
      .cls-1 {
        fill: #000;
        stroke-width: 0px;
      }
    </style>
  </defs>
  <path class="cls-1" d="M280.3,60.5c-.3-6.4-5.6-11.5-12-11.5h-48.9c-1.3-3.7-2.9-7.5-4.9-11.3-9.5-18.2-29-40-68.3-40s-55.2,14.4-70,41.5c-1.8,3.3-3.3,6.6-4.6,9.8H21.3c-6.4,0-11.7,5-12,11.4L-.7,277.4c-.2,3.3,1,6.5,3.3,8.8,2.3,2.4,5.4,3.7,8.7,3.7h266c3.3,0,6.4-1.3,8.7-3.7,2.3-2.4,3.5-5.5,3.3-8.8l-9-217ZM146.1,21.7c22,0,37.2,8.6,46.7,26.4.2.3.3.6.5.9h-95.1c10.5-18.1,26.6-27.3,47.9-27.3ZM23.9,266l8.9-193h31.8c-.6,3.6-.8,5.9-.9,6.2-.6,6.6,4.3,12.4,10.9,13,.4,0,.7,0,1.1,0,6.1,0,11.4-4.7,11.9-10.9,0,0,.3-3.3,1.4-8.3h111.7c.4,2.6.4,4.1.4,4.1.2,6.6,5.8,11.8,12.4,11.5,6.6-.2,11.8-5.8,11.5-12.4,0-.2,0-1.3-.3-3.3h31.9l8,193H23.9Z"/>
</svg>