<?xml version="1.0" encoding="utf-8"?>
<!-- Generator: Adobe Illustrator 24.0.3, SVG Export Plug-In . SVG Version: 6.00 Build 0)  -->
<svg version="1.1" id="Layer_1" xmlns="http://www.w3.org/2000/svg" xmlns:xlink="http://www.w3.org/1999/xlink" x="0px" y="0px"
	 viewBox="0 0 351.6 288" style="enable-background:new 0 0 351.6 288;" xml:space="preserve">
<style type="text/css">
	.st0{fill:#FFFFFF;}
	.st1{fill:none;}
	.st2{fill:#010101;}
	.st3{fill-rule:evenodd;clip-rule:evenodd;fill:#010101;}
	.st4{fill:#020202;}
	.st5{fill:#1A1A1A;}
	.st6{fill:none;stroke:#000000;stroke-width:18;stroke-miterlimit:10;}
	.st7{fill:none;stroke:#000000;stroke-width:18;stroke-linecap:round;stroke-miterlimit:10;}
</style>
<path d="M321.7,55.9h-86.2c0.5-2.1,0.7-4.2,0.7-6.5V31.5c0-16.5-13.5-30-30-30H147c-16.5,0-30,13.5-30,30v17.9
	c0,2.2,0.2,4.4,0.7,6.5H32.1c-16.5,0-30,13.5-30,30v170.6c0,16.5,13.5,30,30,30h289.6c16.5,0,30-13.5,30-30V85.9
	C351.7,69.3,338.2,55.9,321.7,55.9z M141,31.5c0-3.3,2.7-6,6-6h59.1c3.3,0,6,2.7,6,6v17.9c0,3.3-2.7,6-6,6H147c-3.3,0-6-2.7-6-6
	V31.5z M32.1,79.9h289.6c3.3,0,6,2.7,6,6V137H26.1V85.9C26.1,82.6,28.8,79.9,32.1,79.9z M321.7,262.5H32.1c-3.3,0-6-2.7-6-6V161
	h107.3v34c0,4.6,3.7,8.3,8.3,8.3h66.9c4.6,0,8.3-3.7,8.3-8.3v-34h110.9v95.5C327.7,259.8,325,262.5,321.7,262.5z"/>
</svg>
