<svg xmlns="http://www.w3.org/2000/svg" xmlns:xlink="http://www.w3.org/1999/xlink" id="Layer_1" x="0" y="0" enable-background="new 0 0 287.7 288" version="1.1" viewBox="0 0 287.7 288" xml:space="preserve"><style type="text/css"/><g><path d="M245.8,42.2c-56.2-56.2-147.4-56.2-203.6,0s-56.2,147.4,0,203.6s147.4,56.2,203.6,0S302.1,98.4,245.8,42.2z M198.8,216.5 L144,161.7l-54.8,54.8c-4.9,4.9-12.8,4.9-17.7,0s-4.9-12.8,0-17.7l54.8-54.8L71.5,89.2c-4.9-4.9-4.9-12.8,0-17.7s12.8-4.9,17.7,0 l54.8,54.8l54.8-54.8c4.9-4.9,12.8-4.9,17.7,0s4.9,12.8,0,17.7L161.7,144l54.8,54.8c4.9,4.9,4.9,12.8,0,17.7 S203.7,221.4,198.8,216.5z"/></g></svg>