<svg xmlns="http://www.w3.org/2000/svg" xmlns:xlink="http://www.w3.org/1999/xlink" id="Layer_1" x="0" y="0" enable-background="new 0 0 198 288" version="1.1" viewBox="0 0 198 288" xml:space="preserve"><style type="text/css">.st4{fill:#020202}</style><g><path d="M178,39.6c-6.7,0-13.4,0-20.1,0c-5.3,0-5.3,0-5.3-5.3c-0.1-13.6-10.8-24.5-24.3-24.5 c-19.1-0.1-38.1-0.1-57.2,0c-6.2,0-11.6,2.2-16.2,6.3c-5.6,5.1-8.1,11.5-8.1,19c0,4.5,0,4.5-4.6,4.5c-7.5,0-15.1,0-22.6,0 c-12,0-19.3,7.3-19.4,19.2c0,5.9,2.2,8.2,8,8.2c30.1,0,60.1,0,90.2,0l0,0c30,0,59.9,0,89.9,0c0.9,0,1.9,0,2.8-0.1 c2.8-0.3,5-2.5,5.4-5.3C198.7,49.3,190.4,39.6,178,39.6z M133.1,39.6c-11.1,0-22.2,0-33.3,0c-12,0-24,0-36.1,0 c-1.7,0-2.5-0.3-2.3-2.2c0.2-1.8-0.1-3.6,0.2-5.3c0.9-4.5,4.8-7.7,9.7-7.7c18.9-0.1,37.8-0.1,56.7,0c5.9,0,9.7,4.2,9.9,10.1 C138.1,39.6,138.1,39.6,133.1,39.6z" class="st4"/></g><g><path d="M181.7,81.4c-26.9,0-53.9,0-80.8,0s-53.9,0-80.8,0c-6.1,0-8.4,2.5-8,8.6c0.5,7.4,1,14.9,1.6,22.3 c1.8,24.1,3.6,48.1,5.4,72.2c1.7,22.5,3.2,45.1,5,67.6c1.1,14.4,10.7,23.1,25.1,23.1c34.8,0,69.6,0,104.4,0c1.5,0,3.1-0.1,4.5-0.3 c9.8-1.6,19-10.1,19.9-23.6c2.2-34.4,5-68.7,7.5-103.1c1.4-19.3,2.7-38.5,4.2-57.8C190.3,84,188.1,81.4,181.7,81.4z M67.7,244 c0,5-4,9-9,9s-9-4-9-9V109c0-5,4-9,9-9s9,4,9,9V244z M109.8,244c0,5-4,9-9,9s-9-4-9-9V109c0-5,4-9,9-9s9,4,9,9V244z M151.8,244 c0,5-4,9-9,9s-9-4-9-9V109c0-5,4-9,9-9s9,4,9,9V244z" class="st4"/></g></svg>