<svg xmlns="http://www.w3.org/2000/svg" xmlns:xlink="http://www.w3.org/1999/xlink" id="Layer_1" x="0" y="0" enable-background="new 0 0 289 288" version="1.1" viewBox="0 0 289 288" xml:space="preserve"><style type="text/css">.st2{fill:#010101}</style><path d="M257.9,85.8c0.2,2.5,0.2,5.1,0.2,7.6c0,77.4-58.9,166.7-166.7,166.7c-33.2,0-64-9.6-89.9-26.3	c4.7,0.5,9.2,0.7,14.1,0.7c27.4,0,52.6-9.2,72.7-25C62.5,209,41,192.1,33.5,168.9c3.6,0.5,7.3,0.9,11.1,0.9c5.3,0,10.5-0.7,15.4-2	c-26.8-5.4-47-29-47-57.5v-0.7c7.8,4.4,16.9,7.1,26.5,7.4c-15.8-10.5-26.1-28.5-26.1-48.8c0-10.9,2.9-20.9,8-29.6	c28.8,35.5,72.2,58.8,120.8,61.3c-0.9-4.4-1.5-8.9-1.5-13.4c0-32.3,26.1-58.6,58.6-58.6c16.9,0,32.1,7.1,42.8,18.5	c13.2-2.5,25.9-7.4,37.2-14.1c-4.4,13.6-13.6,25-25.8,32.3c11.8-1.3,23.2-4.5,33.7-9.1C279.3,67.1,269.4,77.5,257.9,85.8L257.9,85.8	z" class="st2"/></svg>