<?xml version="1.0" encoding="utf-8"?>
<!-- Generator: Adobe Illustrator 24.0.3, SVG Export Plug-In . SVG Version: 6.00 Build 0)  -->
<svg version="1.1" id="Layer_1" xmlns="http://www.w3.org/2000/svg" xmlns:xlink="http://www.w3.org/1999/xlink" x="0px" y="0px"
	 viewBox="0 0 296.4 288" style="enable-background:new 0 0 296.4 288;" xml:space="preserve">
<style type="text/css">
	.st0{fill:#FFFFFF;}
	.st1{fill:none;}
	.st2{fill:#010101;}
	.st3{fill-rule:evenodd;clip-rule:evenodd;fill:#010101;}
	.st4{fill:#020202;}
	.st5{fill:#1A1A1A;}
	.st6{fill:none;stroke:#000000;stroke-width:18;stroke-miterlimit:10;}
	.st7{fill:none;stroke:#000000;stroke-width:18;stroke-linecap:round;stroke-miterlimit:10;}
</style>
<g>
	<circle cx="88.6" cy="124.8" r="53.9"/>
	<path d="M123.2,188.3c-1.3-0.6-2.7,0.2-2.9,1.6l-12.1,76.8c-0.1,0.4-0.7,0.4-0.8,0l-12.3-52.3l11.3-19.8c0.5-1-0.3-2.1-1.4-1.9
		c-5.3,1.2-10.9,1.9-16.5,1.9c-5.9,0-11.7-0.7-17.2-2c-1-0.2-1.8,0.8-1.3,1.8l11.5,20.1l-12.6,53.7c0,0.1-0.2,0.1-0.2,0l-12.4-78.4
		c-0.2-1.2-1.4-1.8-2.5-1.3c-31.2,13.9-53.1,54.2-53.1,90.3c24.7,5.8,55.3,9,88.4,9c32.6,0,62.7-3.3,87.1-9
		C176.3,242.5,154.5,202.2,123.2,188.3z"/>
	<path d="M282.1,253.6h-32.8c-0.4,0-0.7-0.3-0.7-0.7V12.8c0-6.4-5.2-11.5-11.5-11.5H90.8c-6.4,0-11.5,5.2-11.5,11.5v40.3
		c0,2.5,2.3,4.5,4.8,4.1c3.5-0.6,7.1-0.9,10.7-0.9c36.7,0,66.4,30.8,66.4,67.5c0,19.8-7.7,37.6-21.4,49.8c-0.6,0.6-0.5,1.6,0.2,2
		c33.1,17.2,56.4,54.7,55.4,102.5c0,0.8,0.6,1.4,1.4,1.4h85.7c7.2,0,13.1-5.9,12.9-13.2C295.3,259.2,289.2,253.6,282.1,253.6z
		 M167.5,54.4h-34.9V24.7h34.9V54.4z M218.7,199.9h-34.9v-29.8h34.9V199.9z M218.7,150.4h-34.9v-29.8h34.9V150.4z M218.7,102.1
		h-34.9V72.3h34.9V102.1z M219,54.8H184V25H219V54.8z"/>
</g>
</svg>
