<svg xmlns="http://www.w3.org/2000/svg" xmlns:xlink="http://www.w3.org/1999/xlink" id="Layer_1" x="0" y="0" enable-background="new 0 0 230.6 288" version="1.1" viewBox="0 0 230.6 288" xml:space="preserve"><style type="text/css"/><g><g><path d="M115.7,28.1c25.2,0,45.8,20.5,45.8,45.8s-20.5,45.8-45.8,45.8S69.9,99.2,69.9,73.9S90.5,28.1,115.7,28.1 M115.7,4.1 c-38.5,0-69.8,31.2-69.8,69.8s31.2,69.8,69.8,69.8c38.5,0,69.8-31.2,69.8-69.8S154.3,4.1,115.7,4.1L115.7,4.1z"/></g></g><g><g><path d="M156.7,180.8c11.9,7,23,18.5,31.8,33.3c7.2,12.2,12.4,25.9,14.9,39.5c-26.4,4.6-56,7-86.9,7c-32.1,0-62.2-2.4-88.5-6.9 c2.6-13.6,7.7-27.3,15-39.5c8.8-14.8,19.8-26.3,31.8-33.3c13.1,4.8,26.8,7.2,41,7.2C129.9,188,143.6,185.6,156.7,180.8 M157.4,154.5c-12.6,6.1-26.7,9.5-41.6,9.5s-29-3.4-41.6-9.5C32.1,171.1,2.3,224.8,2.3,272.8l0,0l0,0 c31.9,7.6,71.6,11.7,114.4,11.7c42.1,0,81.1-4.3,112.7-11.7l0,0C229.3,224.8,199.5,171.1,157.4,154.5L157.4,154.5z M2.2,272.8 L2.2,272.8L2.2,272.8L2.2,272.8z"/></g></g></svg>