<svg xmlns="http://www.w3.org/2000/svg" viewBox="0 0 298.57 288"><path d="M49,19.26a11,11,0,0,1,9.27,16.83C40.57,64.13,27.36,98.91,27.36,140c0,38.62,11.32,75.08,31.14,107.06a11,11,0,0,1-9.33,16.75H49a10.92,10.92,0,0,1-8.95-4.62A207.37,207.37,0,0,1,2.94,139.73c0-50.61,18.13-89.07,37.12-115.89A10.92,10.92,0,0,1,49,19.26Z"/><path d="M112.81,79.72A12,12,0,0,1,123,85.42c15.85,25.59,22.91,37,27.38,44.08h.27c5.17-8.11,14.84-23.46,28.25-44.27A12,12,0,0,1,189,79.72h0a12,12,0,0,1,9.85,18.91l-32.9,47,34.38,52.93a12,12,0,0,1-10.08,18.57h-1.52a12,12,0,0,1-10.28-5.79c-14-23-23.62-38.88-28.47-46.93h-.27c-4.08,7-13.66,23.23-28.29,47a12,12,0,0,1-10.24,5.73H111a12,12,0,0,1-10-18.68l33-49.65L101.56,98.22a12,12,0,0,1,10.13-18.5Z"/><path d="M249.55,263.81A11,11,0,0,1,240.28,247c17.68-28,30.89-62.82,30.89-103.91C271.17,104.46,259.85,68,240,36a11,11,0,0,1,9.32-16.75h.16a10.9,10.9,0,0,1,9,4.63,207.31,207.31,0,0,1,37.12,119.45c0,50.61-18.12,89.07-37.12,115.9a10.92,10.92,0,0,1-8.92,4.57Z"/></svg>