<svg xmlns="http://www.w3.org/2000/svg" xmlns:xlink="http://www.w3.org/1999/xlink" id="Layer_1" x="0" y="0" enable-background="new 0 0 306 288" version="1.1" viewBox="0 0 306 288" xml:space="preserve"><style type="text/css">.st2{fill:#010101}</style><path d="M300.2,71.1c-3.5-13.3-13.9-23.7-27.1-27.3c-23.9-6.4-119.7-6.4-119.7-6.4s-95.8,0-119.7,6.4	c-13.2,3.5-23.6,14-27.1,27.3c-6.4,24.1-6.4,74.3-6.4,74.3s0,50.2,6.4,74.3c3.5,13.3,13.9,23.3,27.1,26.8	c23.9,6.4,119.7,6.4,119.7,6.4s95.8,0,119.7-6.4c13.2-3.5,23.6-13.6,27.1-26.8c6.4-24.1,6.4-74.3,6.4-74.3S306.6,95.1,300.2,71.1z M122,190.9V99.8l80.1,45.6L122,190.9L122,190.9z" class="st2"/></svg>