<?xml version="1.0" encoding="utf-8"?>
<!-- Generator: Adobe Illustrator 23.1.1, SVG Export Plug-In . SVG Version: 6.00 Build 0)  -->
<svg version="1.1" id="Layer_1" xmlns="http://www.w3.org/2000/svg" xmlns:xlink="http://www.w3.org/1999/xlink" x="0px" y="0px"
	 viewBox="0 0 154 288" style="enable-background:new 0 0 154 288;" xml:space="preserve">
<g>
	<g>
		<path d="M85.8,211.2c0.3-0.3,0.7-0.6,1-0.9l63.3-63.3c4.9-4.9,4.9-12.8,0-17.7c-4.9-4.9-12.8-4.9-17.7,0l-54.8,54.8l-54.8-54.8
			c-4.9-4.9-12.8-4.9-17.7,0c-2.4,2.4-3.7,5.6-3.7,8.8c0,3.2,1.2,6.4,3.7,8.8l63.6,63.6C73.4,215.4,80.8,215.5,85.8,211.2z"/>
	</g>
	<g>
		<path d="M85.8,159.3c0.3-0.3,0.7-0.6,1-0.9l63.3-63.3c4.9-4.9,4.9-12.8,0-17.7s-12.8-4.9-17.7,0l-54.8,54.8L22.8,77.4
			c-4.9-4.9-12.8-4.9-17.7,0c-2.4,2.4-3.7,5.6-3.7,8.8s1.2,6.4,3.7,8.8l63.6,63.6C73.4,163.5,80.8,163.6,85.8,159.3z"/>
	</g>
</g>
</svg>
