<svg xmlns="http://www.w3.org/2000/svg" xmlns:xlink="http://www.w3.org/1999/xlink" id="Layer_1" x="0" y="0" enable-background="new 0 0 187 288" version="1.1" viewBox="0 0 187 288" xml:space="preserve"><style type="text/css"/><g><path d="M182.5,135.3c-0.3-0.3-0.6-0.7-0.9-1L118.3,71c-4.9-4.9-12.8-4.9-17.7,0s-4.9,12.8,0,17.7l42.3,42.3h-130 c-6.9,0-12.5,5.6-12.5,12.5S6,156,12.9,156h130l-42.3,42.3c-4.9,4.9-4.9,12.8,0,17.7c2.4,2.4,5.6,3.7,8.8,3.7s6.4-1.2,8.8-3.7 l63.6-63.6C186.6,147.6,186.8,140.2,182.5,135.3z"/></g></svg>