<svg xmlns="http://www.w3.org/2000/svg" xmlns:xlink="http://www.w3.org/1999/xlink" id="Layer_1" x="0" y="0" enable-background="new 0 0 154 288" version="1.1" viewBox="0 0 154 288" xml:space="preserve"><style type="text/css"/><g><path d="M68.3,54.5c-0.3,0.3-0.7,0.6-1,0.9L4,118.7c-4.9,4.9-4.9,12.8,0,17.7s12.8,4.9,17.7,0L64,94.1v130 c0,6.9,5.6,12.5,12.5,12.5S89,231,89,224.1v-130l42.3,42.3c4.9,4.9,12.8,4.9,17.7,0c2.4-2.4,3.7-5.6,3.7-8.8c0-3.2-1.2-6.4-3.7-8.8 L85.4,55.2C80.6,50.4,73.2,50.2,68.3,54.5z"/></g></svg>