<?xml version="1.0" encoding="utf-8"?>
<!-- Generator: Adobe Illustrator 24.0.0, SVG Export Plug-In . SVG Version: 6.00 Build 0)  -->
<svg version="1.1" id="Layer_1" xmlns="http://www.w3.org/2000/svg" xmlns:xlink="http://www.w3.org/1999/xlink" x="0px" y="0px"
	 viewBox="0 0 230.7 288" style="enable-background:new 0 0 230.7 288;" xml:space="preserve">
<style type="text/css">
	.st0{fill:#FFFFFF;}
	.st1{fill:none;}
	.st2{fill:#010101;}
	.st3{fill-rule:evenodd;clip-rule:evenodd;fill:#010101;}
	.st4{fill:#020202;}
	.st5{fill:none;stroke:#484751;stroke-width:2.6322;stroke-linecap:square;stroke-miterlimit:10;}
	.st6{fill:none;stroke:#000000;stroke-width:24;stroke-linecap:round;stroke-linejoin:round;}
	.st7{fill:#1A1A1A;}
</style>
<g>
	<g>
		<path d="M223.4,176.7l-54.3-35.9c-3.9-2.2-8.6-2.2-12.5,0.1c-3.8,2.2-6.2,6.4-6.2,10.8v23.4H14.4c-6.9,0-12.5,5.6-12.5,12.5
			c0,6.9,5.6,12.5,12.5,12.5h135.9v23.4c0,4.5,2.4,8.6,6.2,10.8c1.9,1.1,4.1,1.7,6.3,1.7c2.1,0,4.3-0.5,6.2-1.6l54.3-36
			c3.9-2.2,6.3-6.4,6.3-10.9S227.3,178.9,223.4,176.7z"/>
	</g>
</g>
<g>
	<g>
		<path d="M6.8,117.9l54.3,35.9c3.9,2.2,8.6,2.2,12.5-0.1c3.8-2.2,6.2-6.4,6.2-10.8v-23.4h135.5c6.9,0,12.5-5.6,12.5-12.5
			s-5.6-12.5-12.5-12.5H79.8V71.1c0-4.5-2.4-8.6-6.2-10.8c-1.9-1.1-4.1-1.7-6.3-1.7c-2.1,0-4.3,0.5-6.2,1.6l-54.3,36
			c-3.9,2.2-6.3,6.4-6.3,10.9S2.9,115.7,6.8,117.9z"/>
	</g>
</g>
</svg>
