<svg xmlns="http://www.w3.org/2000/svg" xmlns:xlink="http://www.w3.org/1999/xlink" id="Layer_1" x="0" y="0" enable-background="new 0 0 286 288" version="1.1" viewBox="0 0 286 288" xml:space="preserve"><style type="text/css"/><g><path d="M129.9,17.7v158.7l-42-42c-4.9-4.9-13.1-5.1-17.9-0.3c-2.4,2.4-3.7,5.6-3.7,8.8s1.2,6.4,3.7,8.8l63.6,63.6 c4.7,4.7,12.1,4.9,17.1,0.6c0.3-0.3,64.3-64.2,64.3-64.2c4.9-4.9,4.9-13-0.2-17.8c-5-4.8-12.9-4.4-17.8,0.5l-42,42V42.7 c0-6,4.8-10.8,10.8-10.8h83c6,0,10.8,4.8,10.8,10.8l-0.1,203.5c0,6-4.9,10.9-10.9,10.9H36.2c-6,0-10.9-4.9-10.9-10.9V45.9 C25.3,39,19.9,33.1,13,33C6,32.9,0.3,38.5,0.3,45.5v225.7c0,6,4.9,10.9,10.9,10.9h262.4c6,0,10.9-4.9,10.9-10.9l0.1-253.5 c0-6-4.8-10.8-10.8-10.8h-133C134.7,6.9,129.9,11.7,129.9,17.7z"/></g></svg>