<svg xmlns="http://www.w3.org/2000/svg" xmlns:xlink="http://www.w3.org/1999/xlink" id="Layer_1" x="0" y="0" enable-background="new 0 0 383.7 288" version="1.1" viewBox="0 0 383.7 288" xml:space="preserve"><style type="text/css"/><g><path d="M311.1,251.1h-64.4c-6.6,0-12-5.4-12-12s5.4-12,12-12h64.4c26.6,0,48.2-21.6,48.2-48.2c0-26.1-20.4-47.2-46.4-48.1 c-0.2,0-0.4,0-0.6,0h-0.8c-0.1,0-0.2,0-0.3,0c-0.1,0-0.2,0-0.3,0h-25.9c-3.5,0-6.9-1.5-9.1-4.2c-2.3-2.7-3.3-6.2-2.7-9.7 c0.7-4.3,1.1-8.6,1.1-12.9c0-43.4-35.3-78.7-78.7-78.7c-39.1,0-72.6,29.1-77.9,67.8c-0.8,5.9-5.9,10.3-11.9,10.3H87.4 c-0.5,0.1-1,0.1-1.5,0.1c-33.8,0.3-61.3,28-61.3,61.8c0,34.1,27.7,61.8,61.8,61.8h54.4c6.6,0,12,5.4,12,12s-5.4,12-12,12H86.5 c-47.3,0-85.8-38.5-85.8-85.8c0-22.8,8.8-44.3,24.9-60.4C41.2,89.1,61.9,80.1,84,79.5c0.6-0.1,1.2-0.1,1.8-0.1h9.9 c5-20.3,16.1-38.7,32-52.6c18.7-16.4,42.8-25.5,67.7-25.5c56.6,0,102.7,46.1,102.7,102.7c0,0.9,0,1.9,0,2.8h12.5c0.3,0,0.6,0,0.9,0 h1.7c0.5,0,1.1,0,1.6,0.1c18.3,0.9,35.3,8.7,48.1,21.9c13.1,13.5,20.3,31.3,20.3,50.2C383.3,218.7,350.9,251.1,311.1,251.1z"/></g><g><g><path d="M183.7,107c-0.3,0.3-0.7,0.6-1,0.9l-63.3,63.3c-4.9,4.9-4.9,12.8,0,17.7s12.8,4.9,17.7,0l42.3-42.3v130 c0,6.9,5.6,12.5,12.5,12.5s12.5-5.6,12.5-12.5v-130l42.3,42.3c4.9,4.9,12.8,4.9,17.7,0c2.4-2.4,3.7-5.6,3.7-8.8s-1.2-6.4-3.7-8.8 l-63.6-63.6C196,102.9,188.6,102.7,183.7,107z"/></g></g></svg>