<svg xmlns="http://www.w3.org/2000/svg" xmlns:xlink="http://www.w3.org/1999/xlink" id="Layer_1" x="0" y="0" enable-background="new 0 0 288 288" version="1.1" viewBox="0 0 288 288" xml:space="preserve"><style type="text/css"/><path d="M144,24c32.1,0,62.2,12.5,84.9,35.1S264,111.9,264,144c0,32.1-12.5,62.2-35.1,84.9S176.1,264,144,264s-62.2-12.5-84.9-35.1	S24,176.1,24,144c0-32.1,12.5-62.2,35.1-84.9S111.9,24,144,24 M144,0C64.5,0,0,64.5,0,144c0,79.5,64.5,144,144,144s144-64.5,144-144	C288,64.5,223.5,0,144,0L144,0z"/><g><circle cx="144" cy="101.1" r="41.3"/><path d="M168.6,151.3c-7.4,3.6-15.8,5.7-24.6,5.7c-8.8,0-17.2-2-24.6-5.7c-25,9.8-42.6,41.6-42.6,70c18.9,4.5,42.3,6.9,67.7,6.9 c25,0,48-2.6,66.7-6.9C211.2,192.9,193.6,161.2,168.6,151.3z"/></g></svg>