<svg xmlns="http://www.w3.org/2000/svg" width="65.903" height="64.032" viewBox="0 0 65.903 64.032"><g id="Group_117" data-name="Group 117" transform="translate(783.077 355.851)"><g id="Group_636" data-name="Group 636" transform="translate(-777.841 -355.851)"><circle id="Ellipse_3" cx="30.333" cy="30.333" r="30.333" fill="#e9eaeb" data-name="Ellipse 3"/></g><g id="Group_116" data-name="Group 116" transform="translate(-782.046 -348.897)"><path id="Path_351" fill="#fff" stroke="#2a5082" stroke-linecap="round" stroke-linejoin="round" stroke-width="2" d="M-778.046-315.135v-30.03a4.487,4.487,0,0,1,4.486-4.486H-748.5a4.481,4.481,0,0,1,3.172,1.314l8.588,8.587a4.49,4.49,0,0,1,1.315,3.173v38.518a4.486,4.486,0,0,1-4.486,4.486H-773.56a4.487,4.487,0,0,1-4.486-4.486V-304.7" data-name="Path 351" transform="translate(782.533 349.651)"/><path id="Path_352" fill="#91b9dc" stroke="#2a5082" stroke-linejoin="round" stroke-width="2" d="M-767.157-334.548l-14.574,24.675a2.243,2.243,0,0,0,1.931,3.384h29.153a2.243,2.243,0,0,0,1.931-3.384l-14.578-24.675A2.244,2.244,0,0,0-767.157-334.548Z" data-name="Path 352" transform="translate(782.046 351.353)"/><path id="Path_353" fill="none" stroke="#2a5082" stroke-linejoin="round" stroke-width="2" d="M-766.924-319.678l-1.122-7.851a1.121,1.121,0,0,1,1.122-1.122h0a1.122,1.122,0,0,1,1.122,1.122Z" data-name="Path 353" transform="translate(783.748 352.204)"/><circle id="Ellipse_49" cx="1.122" cy="1.122" r="1.122" fill="none" stroke="#2a5082" stroke-linejoin="round" stroke-width="2" data-name="Ellipse 49" transform="translate(15.702 37.012)"/><path id="Path_354" fill="none" stroke="#2a5082" stroke-linecap="round" stroke-linejoin="round" stroke-width="2" d="M-752.046-345.651v5.608a3.365,3.365,0,0,0,3.365,3.365h5.608" data-name="Path 354" transform="translate(785.694 350.137)"/></g></g></svg>