<svg xmlns="http://www.w3.org/2000/svg" width="66.32" height="62.02" viewBox="0 0 66.32 62.02"><g id="Group_109" data-name="Group 109" transform="translate(502.637 66.315)"><g id="Layer_1" data-name="Layer 1"><g id="Group_636" data-name="Group 636"><circle id="Ellipse_3" cx="26.645" cy="26.645" r="26.645" fill="#e9eaeb" data-name="Ellipse 3" transform="translate(-502.637 -66.315)"/></g></g><g id="Layer_2" data-name="Layer 2"><rect id="Rectangle_56" width="48.18" height="30.187" fill="#91b9dc" stroke="#2a5082" stroke-miterlimit="10" stroke-width="2" data-name="Rectangle 56" transform="translate(-492.295 -42.48)"/><path id="Rectangle_57" fill="#fff" stroke="#2a5082" stroke-miterlimit="10" stroke-width="2" d="M0,0H61.574a0,0,0,0,1,0,0V.74A6.057,6.057,0,0,1,55.517,6.8H6.057A6.057,6.057,0,0,1,0,.74V0A0,0,0,0,1,0,0Z" data-name="Rectangle 57" transform="translate(-498.892 -12.093)"/><rect id="Rectangle_58" width="28.588" height="37.184" fill="#fff" stroke="#2a5082" stroke-miterlimit="10" stroke-width="2" data-name="Rectangle 58" rx="1.549" transform="translate(-466.947 -60.272)"/><rect id="Rectangle_59" width="16.793" height="31.187" fill="#fff" stroke="#2a5082" stroke-miterlimit="10" stroke-width="2" data-name="Rectangle 59" rx="1.145" transform="translate(-497.41 -49.281)"/><line id="Line_46" x2="3.767" fill="#91b9dc" stroke="#2a5082" stroke-miterlimit="10" stroke-width="2" data-name="Line 46" transform="translate(-490.897 -21.621)"/><line id="Line_47" x2="2.651" fill="#91b9dc" stroke="#2a5082" stroke-miterlimit="10" stroke-width="2" data-name="Line 47" transform="translate(-453.979 -26.923)"/><rect id="Rectangle_60" width="21.395" height="26.419" fill="#91b9dc" stroke="#2a5082" stroke-miterlimit="10" stroke-width="2" data-name="Rectangle 60" transform="translate(-463.351 -56.551)"/></g></g></svg>