<svg xmlns="http://www.w3.org/2000/svg" width="66.32" height="62.02" viewBox="0 0 66.32 62.02">
  <g id="Group_109" data-name="Group 109" transform="translate(502.637 66.315)">
    <g id="Layer_1" data-name="Layer 1">
      <g id="Group_636" data-name="Group 636">
        <circle id="Ellipse_3" data-name="Ellipse 3" cx="26.645" cy="26.645" r="26.645" transform="translate(-502.637 -66.315)" fill="#e9eaeb"/>
      </g>
    </g>
    <g id="Layer_2" data-name="Layer 2">
      <rect id="Rectangle_56" data-name="Rectangle 56" width="48.18" height="30.187" transform="translate(-492.295 -42.48)" fill="#91b9dc" stroke="#2a5082" stroke-miterlimit="10" stroke-width="2"/>
      <path id="Rectangle_57" data-name="Rectangle 57" d="M0,0H61.574a0,0,0,0,1,0,0V.74A6.057,6.057,0,0,1,55.517,6.8H6.057A6.057,6.057,0,0,1,0,.74V0A0,0,0,0,1,0,0Z" transform="translate(-498.892 -12.093)" fill="#fff" stroke="#2a5082" stroke-miterlimit="10" stroke-width="2"/>
      <rect id="Rectangle_58" data-name="Rectangle 58" width="28.588" height="37.184" rx="1.549" transform="translate(-466.947 -60.272)" fill="#fff" stroke="#2a5082" stroke-miterlimit="10" stroke-width="2"/>
      <rect id="Rectangle_59" data-name="Rectangle 59" width="16.793" height="31.187" rx="1.145" transform="translate(-497.41 -49.281)" fill="#fff" stroke="#2a5082" stroke-miterlimit="10" stroke-width="2"/>
      <line id="Line_46" data-name="Line 46" x2="3.767" transform="translate(-490.897 -21.621)" fill="#91b9dc" stroke="#2a5082" stroke-miterlimit="10" stroke-width="2"/>
      <line id="Line_47" data-name="Line 47" x2="2.651" transform="translate(-453.979 -26.923)" fill="#91b9dc" stroke="#2a5082" stroke-miterlimit="10" stroke-width="2"/>
      <rect id="Rectangle_60" data-name="Rectangle 60" width="21.395" height="26.419" transform="translate(-463.351 -56.551)" fill="#91b9dc" stroke="#2a5082" stroke-miterlimit="10" stroke-width="2"/>
    </g>
  </g>
</svg>
