<svg xmlns="http://www.w3.org/2000/svg" width="62.475" height="61.385" viewBox="0 0 62.475 61.385">
  <g id="Group_127" data-name="Group 127" transform="translate(-361.408 -143.057)">
    <g id="Group_636" data-name="Group 636">
      <circle id="Ellipse_3" data-name="Ellipse 3" cx="29.422" cy="29.422" r="29.422" transform="translate(361.408 143.057)" fill="#e4e5e5"/>
    </g>
    <g id="Group_126" data-name="Group 126">
      <path id="Path_382" data-name="Path 382" d="M381.1,192.611v6.433a4.4,4.4,0,0,0,4.4,4.4h32.984a4.4,4.4,0,0,0,4.4-4.4V161.285a4.4,4.4,0,0,0-1.288-3.109l-8.419-8.419a4.4,4.4,0,0,0-3.109-1.288H385.5a4.4,4.4,0,0,0-4.4,4.4v39.744Z" fill="#fff" stroke="#124070" stroke-linecap="round" stroke-linejoin="round" stroke-width="2"/>
      <rect id="Rectangle_84" data-name="Rectangle 84" width="32.984" height="28.586" rx="3.298" transform="translate(376.706 163.862)" fill="#fff" stroke="#124070" stroke-linejoin="round" stroke-width="2"/>
      <line id="Line_71" data-name="Line 71" x2="32.984" transform="translate(376.706 172.657)" fill="none" stroke="#124070" stroke-linejoin="round" stroke-width="2"/>
      <line id="Line_72" data-name="Line 72" x2="20.872" transform="translate(382.433 177.976)" fill="none" stroke="#124070" stroke-linecap="round" stroke-linejoin="round" stroke-width="2"/>
      <path id="Path_383" data-name="Path 383" d="M409.689,152.867v5.5a3.3,3.3,0,0,0,3.3,3.3h5.5" fill="none" stroke="#124070" stroke-linecap="round" stroke-linejoin="round" stroke-width="2"/>
    </g>
    <path id="Path_384" data-name="Path 384" d="M377.8,171.536h30.785v-4.4a2.2,2.2,0,0,0-2.2-2.2H380a2.2,2.2,0,0,0-2.2,2.2Z" fill="#7aacd4"/>
    <circle id="Ellipse_53" data-name="Ellipse 53" cx="0.55" cy="0.55" r="0.55" transform="translate(380.408 167.743)" fill="none" stroke="#124070" stroke-linejoin="round" stroke-width="1"/>
    <circle id="Ellipse_54" data-name="Ellipse 54" cx="0.55" cy="0.55" r="0.55" transform="translate(384.806 167.743)" fill="none" stroke="#124070" stroke-linejoin="round" stroke-width="1"/>
    <circle id="Ellipse_55" data-name="Ellipse 55" cx="0.55" cy="0.55" r="0.55" transform="translate(389.203 167.743)" fill="none" stroke="#124070" stroke-linejoin="round" stroke-width="1"/>
    <line id="Line_73" data-name="Line 73" x2="20.872" transform="translate(382.433 182.642)" fill="none" stroke="#124070" stroke-linecap="round" stroke-linejoin="round" stroke-width="2"/>
    <line id="Line_74" data-name="Line 74" x2="20.872" transform="translate(382.433 187.308)" fill="none" stroke="#124070" stroke-linecap="round" stroke-linejoin="round" stroke-width="2"/>
  </g>
</svg>
