<svg xmlns="http://www.w3.org/2000/svg" width="63" height="60.017" viewBox="0 0 63 60.017"><g id="Group_23" data-name="Group 23" transform="translate(-70 -203)"><circle id="Ellipse_12" cx="26.073" cy="26.073" r="26.073" fill="#e9eaeb" data-name="Ellipse 12" transform="translate(71 203)"/><line id="Line_106" y2="12.79" fill="none" stroke="#2a5082" stroke-miterlimit="10" stroke-width="2" data-name="Line 106" transform="translate(122.161 249.242)"/><line id="Line_107" y1="12.79" fill="none" stroke="#2a5082" stroke-miterlimit="10" stroke-width="2" data-name="Line 107" transform="translate(101.5 249.242)"/><rect id="Rectangle_27" width="38.371" height="31.484" fill="#fff" data-name="Rectangle 27" transform="translate(91.661 214.806)"/><path id="Path_54" fill="none" stroke="#2a5082" stroke-miterlimit="10" stroke-width="2" d="M92,227.79V215h38.371v31.484H92v-7.871" data-name="Path 54" transform="translate(-0.339 -0.194)"/><path id="Path_55" fill="#fff" stroke="#2a5082" stroke-miterlimit="10" stroke-width="2" d="M81.427,227.58a4.477,4.477,0,0,0,4.427-4.632V221.4a4.432,4.432,0,1,0-8.855,0v1.545a4.477,4.477,0,0,0,4.428,4.635Z" data-name="Path 55" transform="translate(-0.097 -0.222)"/><path id="Path_56" fill="#91b9dc" stroke="#2a5082" stroke-miterlimit="10" stroke-width="2" d="M101.5,231H78.871C74.2,231,71,232.488,71,236.9v8.855a4.019,4.019,0,0,0,3.935,3.935h12.79V235.919H96.58A5.1,5.1,0,0,0,101.5,231Z" data-name="Path 56" transform="translate(0 -0.452)"/><rect id="Rectangle_28" width="11.806" height="26.565" fill="#91b9dc" data-name="Rectangle 28" transform="translate(75.919 236.452)"/><line id="Line_108" y2="26.565" fill="none" stroke="#2a5082" stroke-miterlimit="10" stroke-width="2" data-name="Line 108" transform="translate(87.726 236.452)"/><line id="Line_109" y2="15.742" fill="none" stroke="#2a5082" stroke-miterlimit="10" stroke-width="2" data-name="Line 109" transform="translate(81.823 247.274)"/><line id="Line_110" y2="26.565" fill="none" stroke="#2a5082" stroke-miterlimit="10" stroke-width="2" data-name="Line 110" transform="translate(75.919 236.452)"/><path id="Path_57" fill="none" stroke="#2a5082" stroke-miterlimit="10" stroke-width="2" d="M96,241.694h6.887l2.952-3.936h5.9l5.9-9.839h3.935L124.532,223H126.5" data-name="Path 57" transform="translate(-0.403 -0.323)"/><rect id="Rectangle_29" width="42.306" height="6.887" fill="#e9eaeb" stroke="#2a5082" stroke-miterlimit="10" stroke-width="2" data-name="Rectangle 29" transform="translate(89.694 209.887)"/></g></svg>