<svg xmlns="http://www.w3.org/2000/svg" width="69.59" height="59.803" viewBox="0 0 69.59 59.803">
  <g id="Group_118" data-name="Group 118" transform="translate(784.032 445.772)">
    <g id="Group_636" data-name="Group 636" transform="translate(-5.363 -5.363)">
      <circle id="Ellipse_3" data-name="Ellipse 3" cx="29.727" cy="29.727" r="29.727" transform="translate(-778.669 -440.409)" fill="#e9eaeb"/>
    </g>
    <rect id="Rectangle_80" data-name="Rectangle 80" width="38.147" height="13.395" rx="2.848" transform="translate(-761.583 -400.364)" fill="#fff" stroke="#2a5082" stroke-miterlimit="10" stroke-width="2"/>
    <path id="Path_355" data-name="Path 355" d="M-723.442-413.977V-426.32a4,4,0,0,0-1.171-2.828l-7.657-7.657a4,4,0,0,0-2.828-1.172h-22.344a4,4,0,0,0-4,4v20" fill="#fff" stroke="#2a5082" stroke-linecap="round" stroke-linejoin="round" stroke-width="2"/>
    <path id="Path_356" data-name="Path 356" d="M-760.442-399.977h36l4,6h1a4,4,0,0,0,4-4v-12a4,4,0,0,0-4-4h-46a4,4,0,0,0-4,4v12a4,4,0,0,0,4,4h1Z" fill="#91b9dc" stroke="#2a5082" stroke-linecap="round" stroke-linejoin="round" stroke-width="2"/>
    <line id="Line_57" data-name="Line 57" x2="14" transform="translate(-753.442 -425.977)" fill="none" stroke="#2a5082" stroke-linecap="round" stroke-linejoin="round" stroke-width="2"/>
    <line id="Line_58" data-name="Line 58" x1="22" transform="translate(-753.442 -419.977)" fill="none" stroke="#2a5082" stroke-linecap="round" stroke-linejoin="round" stroke-width="2"/>
    <line id="Line_59" data-name="Line 59" x2="36.465" transform="translate(-760.666 -391.977)" fill="none" stroke="#2a5082" stroke-linecap="round" stroke-linejoin="round" stroke-width="2"/>
    <path id="Path_357" data-name="Path 357" d="M-735.442-433.977v5a3,3,0,0,0,3,3h5" fill="none" stroke="#2a5082" stroke-linecap="round" stroke-linejoin="round" stroke-width="2"/>
    <line id="Line_60" data-name="Line 60" x2="2" transform="translate(-737.442 -407.977)" fill="none" stroke="#2a5082" stroke-linecap="round" stroke-linejoin="round" stroke-width="2"/>
    <line id="Line_61" data-name="Line 61" x2="2" transform="translate(-743.442 -407.977)" fill="none" stroke="#2a5082" stroke-linecap="round" stroke-linejoin="round" stroke-width="2"/>
    <line id="Line_62" data-name="Line 62" x2="2" transform="translate(-749.442 -407.977)" fill="none" stroke="#2a5082" stroke-linecap="round" stroke-linejoin="round" stroke-width="2"/>
  </g>
</svg>
