<?xml version="1.0" encoding="utf-8"?>
<!-- Generator: Adobe Illustrator 22.1.0, SVG Export Plug-In . SVG Version: 6.00 Build 0)  -->
<svg version="1.1" id="Layer_1" xmlns="http://www.w3.org/2000/svg" xmlns:xlink="http://www.w3.org/1999/xlink" x="0px" y="0px"
	 viewBox="0 0 356 93.4" style="enable-background:new 0 0 356 93.4;" xml:space="preserve">
<style type="text/css">
	.st0{fill:#FFFFFF;}
	.st1{fill:none;stroke:#FFFFFF;stroke-width:1.409;}
</style>
<path class="st0" d="M70.3,77.5c0,2.8-0.1,2.7,2.5,3v0.8H65v-0.8c2.6-0.3,2.5-0.2,2.5-3V63.8c0-2.8,0.1-2.7-2.5-3V60h7.8v0.8
	c-2.6,0.3-2.5,0.2-2.5,3V77.5z M79.7,77.5c0,2.7-0.1,2.6,2.3,3v0.8h-7.2v-0.8c2.5-0.4,2.3-0.3,2.3-3v-8.4c0-1.4-0.9-1.3-2.3-1.3V67
	c1.6-0.1,3.5-0.4,4.9-1.3l0.1,0.1v2.6c1.2-1.5,3.3-2.7,5.8-2.7c3.5,0,4.2,2.2,4.2,5.4v6.4c0,2.7-0.1,2.6,2.3,3v0.8h-7.2v-0.8
	c2.5-0.4,2.3-0.3,2.3-3v-5.6c0-1.9-0.1-4.6-3.2-4.6c-3.7,0-4.3,3.3-4.3,6.5L79.7,77.5L79.7,77.5z M94.4,77.4h0.8
	c0,2.1,1.5,3.2,3.1,3.2c1.7,0,2.7-1.3,2.7-2.6c0-2-1.5-2.7-3.2-4c-2.3-1.8-3.3-2.3-3.3-4.3c0-2.5,2.3-4,4.6-4c0.9,0,2.1,0.1,3.4,0.5
	v3h-0.8c-0.1-1-1-2.5-2.6-2.5c-1.2,0-2.2,0.8-2.2,1.9c0,1.5,1.5,2.2,3.6,3.8c2.7,2,3.1,3.1,3.1,4.5c0,3.2-2.7,4.5-5.2,4.5
	c-1.6,0-2.8-0.3-3.9-0.8L94.4,77.4L94.4,77.4z M117.5,81.6c-0.4-0.5-0.7-1.5-0.7-2.3l-2.5,1.5c-1.2,0.7-1.8,0.8-2.7,0.8
	c-3.3,0-4.2-2.5-4.2-5.9v-6.6c0-1.4-0.9-1.3-2.3-1.3V67c1.6-0.1,3.5-0.4,4.9-1.3l0.1,0.1v9.6c0,2.3,0.3,4.4,2.9,4.4c2.7,0,4-1.5,4-6
	V69c0-1.4-0.9-1.3-2.3-1.3V67c1.6-0.1,3.5-0.4,4.9-1.3l0.1,0.1v11.5c0,1.5,0.1,2.9,2,2.1l0.2,0.8L117.5,81.6z M130.6,68.6
	c-0.3-0.2-0.6-0.1-1.1-0.1c-1.2,0-1.4,2.1-1.4,4.2v4.7c0,1,0,1.4,0.1,2.2c0.1,0.6,1.2,0.7,2.7,0.8v0.8h-7.7v-0.8
	c2.5-0.4,2.3-0.3,2.3-3V69c0-1.4-0.9-1.3-2.3-1.3V67c1.6-0.1,3.5-0.4,4.8-1.3l0.1,0.1v2.7l1.5-1.6c0.7-0.8,1.1-1.2,1.6-1.2
	c0.3,0,0.6,0,1.1,0.9l0.8,1.5c0.1,0.2-0.1,0.3-0.2,0.4l-0.8,0.6c-0.2,0.1-0.3,0.1-0.4,0L130.6,68.6L130.6,68.6z M143.4,81.6
	c-0.4-0.5-0.7-1.5-0.7-2.4l-2.3,1.6c-0.7,0.5-1.5,0.8-2.4,0.8c-1.9,0-3.5-1.8-3.5-4c0-2.9,1.6-3.8,5-5.2l3.1-1.3
	c0-2.6-0.7-4.4-2.5-4.4s-2.4,1.7-3.1,2.8c-0.1,0.2-0.2,0.2-0.4,0.1l-1-0.2c-0.2-0.1-0.3-0.2-0.2-0.4l0.4-1.6
	c0.2-0.6,0.5-0.8,0.8-0.9c1.3-0.5,2.3-0.8,3.6-0.8c3.4,0,4.9,1.6,4.9,4.9v6.7c0,1.5,0.1,2.9,2,2.1l0.2,0.8L143.4,81.6L143.4,81.6z
	 M142.7,72.4c-2.5,1-5.5,1.7-5.5,4.8c0,1.4,0.9,2.6,2.2,2.6c1.5,0,3.3-1,3.3-5V72.4z M154,77.5c0,2.7-0.1,2.6,2.3,3v0.8H149v-0.8
	c2.5-0.4,2.3-0.3,2.3-3v-8.4c0-1.4-0.9-1.3-2.3-1.3V67c1.6-0.1,3.5-0.4,4.9-1.3l0.1,0.1v2.6c1.2-1.5,3.3-2.7,5.8-2.7
	c3.5,0,4.2,2.2,4.2,5.4v6.4c0,2.7-0.1,2.6,2.3,3v0.8h-7.2v-0.8c2.5-0.4,2.3-0.3,2.3-3v-5.6c0-1.9-0.1-4.6-3.2-4.6
	c-3.7,0-4.3,3.3-4.3,6.5L154,77.5L154,77.5z M180.4,79.7l-3.8,1.9c-0.7,0-4.1,0.4-6.4-2.3c-0.9-1.1-1.9-3.4-1.9-5.7
	c0-4.8,3.5-7.9,7.8-7.9c1.1,0,2.6,0.2,3.6,0.8l1,2c0.1,0.1,0.1,0.2,0,0.3l-1,0.7c-0.1,0.1-0.3,0.1-0.4,0l-1.5-1.8
	c-0.4-0.5-1.2-1-2.3-1c-1.7,0-4.3,1.4-4.3,5.8c0,3.2,1.4,7.3,5.5,7.3c1.6,0,2.5-0.7,3.2-1.1L180.4,79.7L180.4,79.7z M185.1,72.9
	c0,3.5,1.5,7,5.7,7c1.6,0,2.5-0.7,3.2-1.1l0.5,0.9l-3.8,1.9h-0.9c-0.7,0-3.1,0.4-5.5-2.3c-0.9-1-1.9-3.4-1.9-5.7
	c0-3.5,1.8-7.9,6.7-7.9c3.3,0,5.4,2.5,5.4,6.3v0.8L185.1,72.9L185.1,72.9z M190.5,71.8c0.6,0,1.4-0.4,1.4-1.8c0-1.9-1.4-3.3-3-3.3
	c-1.9,0-3.8,1.2-3.8,5h5.4L190.5,71.8z M208.9,64.9l-0.1,12.3c0,0.6,0.1,1.2,0.1,1.6c0.1,1.1,1.1,1.5,2.5,1.7v0.8H205v-0.8
	c1.4-0.2,2.3-0.6,2.5-1.7c0.1-0.5,0.2-1,0.2-1.6V63.4c-0.6-1.4-2-2.6-3.4-2.6V60h5.5l8.1,16.9l8.3-16.9h4.7v0.8
	c-2.1,0-2.9,1.2-2.9,3.1v13.5c0,2.8-0.1,2.7,2.5,3v0.8h-7.8v-0.8c2.6-0.3,2.5-0.2,2.5-3V64.7h-0.1l-7.9,16.7h-0.5L208.9,64.9
	L208.9,64.9z M241.6,81.6c-0.4-0.5-0.7-1.5-0.7-2.4l-2.3,1.6c-0.7,0.5-1.5,0.8-2.4,0.8c-1.9,0-3.5-1.8-3.5-4c0-2.9,1.6-3.8,5-5.2
	l3.1-1.3c0-2.6-0.7-4.4-2.5-4.4s-2.4,1.7-3.1,2.8c-0.1,0.2-0.2,0.2-0.4,0.1l-1-0.2c-0.2-0.1-0.3-0.2-0.2-0.4l0.4-1.6
	c0.2-0.6,0.5-0.8,0.8-0.9c1.3-0.5,2.3-0.8,3.6-0.8c3.4,0,4.9,1.6,4.9,4.9v6.7c0,1.5,0.1,2.9,2,2.1l0.2,0.8L241.6,81.6L241.6,81.6z
	 M240.9,72.4c-2.5,1-5.5,1.7-5.5,4.8c0,1.4,0.9,2.6,2.2,2.6c1.5,0,3.3-1,3.3-5V72.4z M254.6,68.6c-0.3-0.2-0.6-0.1-1.1-0.1
	c-1.2,0-1.4,2.1-1.4,4.2v4.7c0,1,0,1.4,0.1,2.2c0.1,0.6,1.2,0.7,2.7,0.8v0.8h-7.7v-0.8c2.5-0.4,2.3-0.3,2.3-3V69
	c0-1.4-0.9-1.3-2.3-1.3V67c1.6-0.1,3.5-0.4,4.8-1.3l0.1,0.1v2.7l1.5-1.6c0.7-0.8,1.1-1.2,1.6-1.2c0.3,0,0.6,0,1.1,0.9l0.8,1.5
	c0.1,0.2-0.1,0.3-0.2,0.4l-0.8,0.6c-0.2,0.1-0.3,0.1-0.4,0L254.6,68.6L254.6,68.6z M273.4,81.3h-3.6l-6.5-8.3h-0.1v4.5
	c0,2.7-0.1,2.6,2.3,3v0.8h-7.2v-0.8c2.5-0.4,2.3-0.3,2.3-3V62c0-0.8-0.3-1.3-1.1-1.3h-1.2v-0.8c1.7-0.1,3.6-0.4,4.9-0.9l0.1,0.1
	v13.2c1.9,0,4-2.5,5.3-3.8s-0.5-1.6-1.6-1.6v-0.8h5.1v0.8c-0.5,0.4-1.6,1-2.5,1.8l-3.7,3.5c2.5,2.8,6,7.3,7.6,8.6L273.4,81.3
	L273.4,81.3z M277.2,72.9c0,3.5,1.5,7,5.7,7c1.6,0,2.5-0.7,3.2-1.1l0.5,0.9l-3.8,1.9h-0.9c-0.7,0-3.2,0.4-5.5-2.3
	c-0.9-1-1.9-3.4-1.9-5.7c0-3.5,1.8-7.9,6.7-7.9c3.3,0,5.4,2.5,5.4,6.3v0.8L277.2,72.9L277.2,72.9z M282.6,71.8
	c0.6,0,1.4-0.4,1.4-1.8c0-1.9-1.4-3.3-3-3.3c-1.9,0-3.8,1.2-3.8,5h5.4V71.8z M297.8,67.6l-1.2,0.6h-3.2v8c0,1.2,0.1,3.6,2,3.6
	c0.8,0,1.5-0.1,2.2-0.4l0.2,0.8l-3.4,1.4c-2,0-3.6-0.6-3.6-4.8v-8.6h-2.3v-1.4h2.3v-3.2c0.5-0.6,1.1-1.1,1.8-1.7h0.8v4.9h4.4
	L297.8,67.6L297.8,67.6z M304.2,65.8v11.7c0,2.7-0.1,2.6,2.3,3v0.8h-7.2v-0.8c2.5-0.4,2.3-0.3,2.3-3v-8.4c0-1.4-0.9-1.3-2.3-1.3V67
	C300.8,67,302.8,66.6,304.2,65.8L304.2,65.8z M302.5,60.2c0.9,0,1.7,0.8,1.7,1.8c0,0.9-0.8,1.8-1.7,1.8c-0.9,0-1.7-0.8-1.7-1.8
	C300.9,61,301.6,60.2,302.5,60.2z M313.1,77.5c0,2.7-0.1,2.6,2.3,3v0.8h-7.2v-0.8c2.5-0.4,2.3-0.3,2.3-3v-8.4c0-1.4-0.9-1.3-2.3-1.3
	V67c1.6-0.1,3.5-0.4,4.9-1.3l0.1,0.1v2.6c1.2-1.5,3.3-2.7,5.8-2.7c3.5,0,4.2,2.2,4.2,5.4v6.4c0,2.7-0.1,2.6,2.3,3v0.8h-7.2v-0.8
	c2.5-0.4,2.3-0.3,2.3-3v-5.6c0-1.9-0.1-4.6-3.2-4.6c-3.7,0-4.3,3.3-4.3,6.5L313.1,77.5L313.1,77.5z M338,67.5
	c0.7,0.6,1.2,2.2,1.2,3.7c0,2.3-2.1,4.9-5.6,4.9c-0.5,0-1,0-1.2-0.1c-0.4,0.3-0.8,0.7-0.8,1.2c0,0.7,1.2,0.9,2.9,1.2l2.7,0.5
	c2.1,0.4,3.6,1.9,3.6,4.1c0,3.1-2.9,5.7-6.8,5.7c-3.7,0-6.8-2-6.8-5.3c0-0.5-0.1-1.1,0.4-1.4l3-1.7v-0.1c-1.3-0.2-2.1-0.9-1.8-2.3
	l2.7-2.4c-2.2-1.2-3.3-2.6-3.3-5c0-3.2,2.9-4.9,5.7-4.9c1,0,1.9,0.1,2.7,0.5c1.9,0.1,3.6-0.1,4.9-0.5l0.3,0.4l-0.8,1.3h-3L338,67.5z
	 M331.9,80.7c-1.2,0.7-2.3,1.6-2.3,3.2c0,2.2,1.6,3.9,4.6,3.9c2.7,0,4.3-1.8,4.3-3.4c0-2.5-2-2.8-3.8-3.2L331.9,80.7L331.9,80.7z
	 M331,70.3c0,2,0.7,5,3.2,4.9c1.9-0.1,2.4-2.3,2.4-3.7c0-2.8-1-5-2.9-5C331.6,66.7,331,68.8,331,70.3z M64.3,5h19.9
	c6.5,0,12.1,3,12.1,9.7c0,5-3.5,9.1-8.4,10.7l5.8,8.6c2.6,3.8,5.5,7.4,7.1,8.4v1h-8.2c-3.3,0-6.8-9.3-11.3-16.9h-4.2v10.4
	c0,1.5,0,2.3,0.2,3.3s2.2,1.3,4.7,1.4v1.7H64.3v-1.7c2.5-0.2,4.5-0.4,4.7-1.4s0.2-1.9,0.2-3.3V11.5c0-1.5,0-2.3-0.2-3.3
	s-2.2-1.3-4.7-1.4V5z M77.2,24.4h4c5,0,6.7-4.1,6.7-9.3c0-5.9-2.8-7.9-6.7-7.9h-4V24.4z M130.1,36.9c0,1.5,0,2.3,0.2,3.3
	s2.1,1.3,4.7,1.4v1.7h-17.8v-1.7c2.5-0.2,4.5-0.4,4.7-1.4s0.2-1.9,0.2-3.3V11.5c0-1.5,0-2.3-0.2-3.3s-2.1-1.3-4.7-1.4V5H135v1.7
	c-2.5,0.2-4.5,0.4-4.7,1.4s-0.2,1.9-0.2,3.3V36.9z M173.7,36.9c0,1.5,0,2.3,0.2,3.3s2.2,1.3,4.7,1.4v1.7h-17.8v-1.7
	c2.5-0.2,4.5-0.4,4.7-1.4s0.2-1.9,0.2-3.3V7.1h-4.8c-4.8,0-6.1,2.9-8.1,6.3h-1.5l1.5-8.4h33.8l1.5,8.4h-1.5
	c-2.1-3.4-3.3-6.3-8.1-6.3h-4.8L173.7,36.9L173.7,36.9z M224.5,36.9c0,1.5,0,2.3,0.2,3.3s2.2,1.3,4.7,1.4v1.7h-17.8v-1.7
	c2.5-0.2,4.5-0.4,4.7-1.4s0.2-1.9,0.2-3.3V7.1h-4.8c-4.8,0-6.1,2.9-8.1,6.3h-1.5l1.5-8.4h33.8l1.5,8.4h-1.5
	c-2.1-3.4-3.3-6.3-8.2-6.3h-4.8v29.8L224.5,36.9z M255.2,41.7c2.5-0.2,4.5-0.4,4.7-1.4s0.2-1.9,0.2-3.3V11.5c0-1.5,0-2.3-0.2-3.3
	s-2.2-1.3-4.7-1.4V5H283v8.8h-1.5c-0.8-3.9-2.2-6.8-6.2-6.8h-7.2v15.3h4.7c3.6,0,5.1-2.1,5.1-5.3h1.5v12.8h-1.5
	c-0.1-3-1.3-5.5-5.1-5.5h-4.7v12.4c0,4.2,2.1,4.5,6.7,4.5c7.2,0,8.3-3,10.6-7.9h1.5l-1.7,9.9h-30.1v-1.5L255.2,41.7z M305,5h19.9
	c6.5,0,12.1,3,12.1,9.7c0,5-3.5,9.1-8.4,10.7l5.8,8.6c2.6,3.8,5.5,7.4,7.1,8.4v1h-8.2c-3.3,0-6.8-9.3-11.3-16.9h-4.2v10.4
	c0,1.5,0,2.3,0.2,3.3s2.2,1.3,4.7,1.4v1.7H305v-1.7c2.5-0.2,4.5-0.4,4.7-1.4s0.2-1.9,0.2-3.3V11.5c0-1.5,0-2.3-0.2-3.3
	s-2.2-1.3-4.7-1.4V5z M317.9,24.4h4c5,0,6.7-4.1,6.7-9.3c0-5.9-2.8-7.9-6.7-7.9h-4V24.4z"/>
<path class="st1" d="M64.1,53.2H350"/>
<path class="st0" d="M49.4,67.4l-2.9,1.1l-6.4,1.6l-7.5,1.1l-7.9,0.3h-1.6L15.9,71L11,70l-2-0.8l-1.5-0.8l0.1-0.2h0.1l0.2-0.1h0.4
	L8.4,68l0.1-0.1l0.1-0.2v-0.1L9.3,68l1.4,0.6l1.7,0.5l2.8,0.5l4.5,0.5l5,0.2l4.6-0.2l4.3-0.5l6.8-1l7.1-1 M47.5,64.8l-5.3,2.1
	l-5.5,1.4L31,69.1l-5.8,0.1l-5.8-0.3l-5.8-0.8l-2.3-0.4L11,67.5l-0.4-0.2l-0.3-0.1L9.5,67v-0.1l0.1-0.2l1.1-1l2.7,1l4.2,0.9l6.1,0.4
	l6.4-0.2l6.4-0.8l5.9-1 M14.9,34.8l-0.3,0.6l-0.8,1.4l-0.2,0.5l-0.1,0.3v0.5h-0.3L12.4,38l-1.6-0.5l-1.5-0.6l1.5-1.3l1-0.8l0.6-0.3
	l0.5-0.2h1l0.4,0.1l0.4,0.2 M45.6,27.3l-0.3,0.9L44.8,29l-0.6,0.7l-1.1,1l-1.7,1L39,32.8l-3.1,1.3L34.1,35l-0.5,0.3l0.2-0.4l0.3-0.5
	l0.7-0.7l1.3-1.1l2.2-1.2l3.9-2l1.4-1l0.7-0.7l0.6-0.9l0.2-0.4l0.1-0.5v-1.1l-0.1-0.6l-0.4-1.3l-1.2,2.6l-1.1,1.8l-1,1.2l-2.5,2
	l-0.5,0.3h-0.2l0.1-0.4l0.2-0.5l2.1-3l1.6-2.5l0.5-1.1l0.4-1.5l0.2-0.7v-0.5l-0.1-0.4l-0.1-0.3l-0.2-0.2v0.1l-0.5,1l-1.7,3.1
	L39,26.4l-1.6,2.1l-1,1.2l-0.5,0.2L35.8,30h-0.2l-0.1-0.1l-0.1-0.2l0.1-0.3l0.2-0.8l0.4-0.8l0.9-1.5l2.1-2.6l1.4-1.8l0.6-1.2
	l0.2-0.7l0.2-0.8l-0.1-0.8l-0.2-0.8l-0.3,0.8l-1.1,1.7l-1.6,2.3l-1.6,2.2l-0.2-0.4v-0.5l-0.1-0.4l0.1-0.5l0.2-0.9l0.6-1.3l1.2-2.2
	l0.4-1l0.1-0.5l0.1-0.8l-0.1-0.4v-0.2l-0.2-0.2l-0.1-0.1h-0.4v0.2l-0.8,1.8l-1.1,2.4l-0.6,1.5l-0.2,1v1l-0.4-0.4l-0.2-0.6l-0.1-0.5
	L34.7,21l0.1-0.5l0.4-1.6l1.1-2.9l0.4-1.3l0.1-1.2l-3.3,7.1l-0.2-0.3L33,19.8l-0.2-0.6v-1.1l0.2-0.9l0.7-1.7l0.6-1.7l0.1-0.8v-0.6
	l-0.1-0.5l-0.1-0.3l-0.3,0.3L33.8,12L33,13.2l-0.3,0.4l-0.2,0.1l-0.1,0.1l-0.3,0.1l-0.2-0.2l-0.1-0.3l-0.1-0.3v-0.2l0.1-0.4l0.4-0.6
	l0.4-0.9l0.1-0.3l0.1-0.3V9.9l-0.1-0.3l-5.1-5.3l0.8,1.1l0.8,1.1l0.6,1.4l0.4,1.3l0.3,1.4l0.2,1.3L28,8.1l-1-1.2l-0.4-0.3v0.7
	l-0.3,1.4l-0.1,0.4v0.3l0.1,0.3l0.1,0.2v0.2l-0.1,0.2v0.1l-0.1,0.1l-0.1,0.1l-0.2,0.1l-0.2,0.1l-0.9,0.3l-0.3,0.1l-0.1,0.1l-0.1,0.1
	l-0.1,0.1l0.4-0.1l1.2-0.3h0.4l0.4,0.1l0.2,0.1l0.3,0.1l0.2,0.2L27,11.8l-0.9,0.3l-1.4,0.4L22.3,13l-0.9,0.4l-0.7,0.4L19.4,15
	l-2.1,2.3l-1.9,2.6l-2.6,3.7l-2,2.5l-2.3,2.3l-2.1,1.5l-0.2,0.3L6,30.6l-0.2,0.5l-0.1,0.5v0.7L5.8,33l0.5,1.1L7,35.9l0.3,0.9v0.5
	l3.9-3.1l2.3-1.8l0.1,0.2l0.1,0.1l0.2,0.3l0.3,0.3l0.3,0.2l0.6,0.2l0.3,0.1l0.7,0.1h0.4l0.7-0.1l0.5-0.2l0.4-0.2l0.1-0.1l0.1-0.2
	l0.1-0.1h-0.3l-0.8-0.1l-1-0.2l-0.8-0.4l-0.6-0.4l-0.2-0.2l-0.2-0.2l-0.1-0.2v-0.5l0.1-0.1l3.2,1.3l2.1,0.4l1.7,0.2H22l1-0.1
	l1.2-0.4l1-0.5l1.1-0.8l1.6-1.6l0.2,0.4l0.1,0.2v0.3l0.1,0.4L28.1,31l-0.3,0.7L27,32.6L25.8,34l-1.1,1.5L22.9,38l-2.1,2.4l-4.3,4.8
	l-4.4,4.7l-1,2.2l-0.6,2l-0.2,1.2v1.2l0.1,1.2l0.3,1l0.5,1.1l0.5,0.9l1.2,1.3l1.4,1.2l2.3,1.4l2.8,1.1l1.2,0.1l3.6,0.1H25l4.3-0.2
	l4.4-0.5l4.2-1l2.9-1.1l1.9-1l1-0.8l0.1-0.6v-1.5L43.7,58l-0.3-1.4l-0.2,0.2l-0.1,0.3v2.7L43,60.2l-0.1,0.1l-0.2,0.2l-0.1,0.1
	l-0.3,0.1L42,60.8l-0.1-0.4l-0.2-2.2v-2.4l0.1-2.4l-0.4,0.5l-0.5,0.9l-0.3,0.6l-0.4,1.4l-0.5,3L39.5,61l-0.1,0.2l-0.2,0.3h-0.1
	L39,61.6h-0.3l-0.2-0.4l-0.6-1l-0.4-1.1L37.3,58v-1.6l0.1-1.1l0.5-2l0.6-1.9l0.9-1.6l-3.7,3.5l-1.4,2.4l-2.2,4.1V59l0.2-1.4l0.4-1.4
	l0.5-1.4l0.9-1.5l2-2.8l1.3-1.9l0.9-0.9l1.9-1.7l0.8-0.8l0.4-0.6l0.3-0.6l0.1-0.6l-1.5,1.2l-3,2.8l-4.2,4.2l-2,2l0.4-1.8l0.7-1.7
	l1-1.5l1.9-2.2l3.7-3.2l2.7-2.5l1.5-1.9l-4.4,3.8L33,47.1l-3.3,2.5l-0.2,0.1l0.6-1.6l1-1.9l1.8-2.5l1.1-1l2-1.4l3.8-2.3l2.1-1.4
	l1.4-1.4l0.9-1.2l0.8-1.4l-1.1,1l-2,1.6l-2.5,1.6l-3.7,2.3l-2.3,1.8l-2.2,2.2L31.1,44H31l-0.2-0.1l-0.1-0.2v-0.1l-0.1-0.1l0.1-0.3
	V43l0.4-1.2l0.1-0.2l-0.1-0.2v-0.2l0.6-0.9l1-1.2l0.7-0.7l1.3-0.8l2.2-1.2l3.2-1.7l1.7-1.1l1.1-1.1l1.7-2.1l0.7-1l0.3-0.7l0.1-0.4
	v-0.6L45.6,27.3z M25.1,18.9L25.1,18.9L24.7,19l-0.4-0.1l-1.2-0.2l-0.3,0.9L22.7,20l-0.2,0.2l-0.1-0.1L22,20h-0.5l-0.2,0.1l-0.2,0.2
	L20.3,21l-0.2,0.2h-0.4l0.8-1.3l0.8-1.3l0.5-0.6l0.2-0.2l3,0.5l0.1,0.1C25.1,18.4,25.1,18.9,25.1,18.9z M49.4,74.5l-1,0.5l-1.5,0.5
	L44.6,76l-2.3,0.5l0.8,0.1h2.3l2.1-0.4L49,76l-1.7,0.7l-1.4,0.5l-1.2,0.4l-1.4,0.2L41.6,78l0.3,0.2h0.2l0.3,0.1l0.5,0.1h0.5l1.6-0.2
	l0.7,0.1H46l0.3,0.1l0.4,0.1l0.3,0.2L46.7,79l-0.5,0.5l-0.7,0.3l-1,0.5L43,80.8l-2.3,0.5l-2.6,0.5l-4,0.3l-3.2,0.1l-4.1-0.1l-4-0.3
	l-7.1-0.7l-3.2-0.4l-2.6-0.5L9.1,80l-0.6-0.2l-0.1-0.1L8,79.5l-0.3-0.3L7.6,79l-0.2-0.5v-0.8L8,77.9L8.7,78H10l0.1-0.1h0.2l0.1-0.1
	l0.1-0.1v-0.1l-0.1-0.1l-0.2-0.1l-0.7-0.3l-0.9-0.3l-0.5-0.3l-0.4-0.2L7.5,76l-0.2-1.5L7.2,73v-1.2l0.1-0.6l2.7,0.5l2.8,0.4l2.8,0.2
	l5.1,0.2l5.6,0.2l5.4-0.1l5.4-0.2l5.4-0.3l1.4-0.1l2.3-0.3l2.2-0.4l1.4-0.3l-0.2,1.1l-0.1,1.5"/>
<path class="st0" d="M348.1,56.3c0.9,0,1.8,0.2,2.7,0.7c0.9,0.5,1.6,1.2,2.1,2c0.5,0.9,0.7,1.8,0.7,2.8s-0.2,1.9-0.7,2.7
	c-0.5,0.9-1.2,1.6-2,2c-0.9,0.5-1.8,0.7-2.8,0.7s-1.9-0.2-2.8-0.7s-1.6-1.2-2-2c-0.5-0.9-0.7-1.8-0.7-2.7c0-1,0.2-1.9,0.7-2.8
	c0.5-0.9,1.2-1.6,2.1-2C346.2,56.6,347.1,56.3,348.1,56.3L348.1,56.3z M348.1,57.3c-0.8,0-1.5,0.2-2.3,0.6c-0.7,0.4-1.3,1-1.7,1.7
	c-0.4,0.7-0.6,1.5-0.6,2.3s0.2,1.6,0.6,2.3c0.4,0.7,1,1.3,1.7,1.7c0.7,0.4,1.5,0.6,2.3,0.6s1.6-0.2,2.3-0.6c0.7-0.4,1.3-1,1.7-1.7
	c0.4-0.7,0.6-1.5,0.6-2.3s-0.2-1.6-0.6-2.3s-1-1.3-1.7-1.7C349.6,57.5,348.8,57.3,348.1,57.3z M345.6,64.9V59h2
	c0.7,0,1.2,0.1,1.5,0.2c0.3,0.1,0.6,0.3,0.7,0.6c0.2,0.3,0.3,0.6,0.3,0.9c0,0.4-0.2,0.8-0.5,1.1s-0.7,0.5-1.2,0.5
	c0.2,0.1,0.4,0.2,0.5,0.3c0.2,0.2,0.5,0.6,0.9,1.2l0.7,1.2h-1.2l-0.5-0.9c-0.4-0.7-0.8-1.2-1-1.4c-0.2-0.1-0.4-0.2-0.8-0.2h-0.6V65
	L345.6,64.9L345.6,64.9z M346.6,61.6h1.2c0.6,0,0.9-0.1,1.1-0.2c0.2-0.2,0.3-0.4,0.3-0.7c0-0.2,0-0.3-0.1-0.5
	c-0.1-0.1-0.2-0.2-0.4-0.3c-0.2-0.1-0.5-0.1-1-0.1h-1.1V61.6z"/>
</svg>
