<?xml version="1.0" encoding="utf-8"?>
<!-- Generator: Adobe Illustrator 23.1.1, SVG Export Plug-In . SVG Version: 6.00 Build 0)  -->
<svg version="1.1" id="Layer_1" xmlns="http://www.w3.org/2000/svg" xmlns:xlink="http://www.w3.org/1999/xlink" x="0px" y="0px"
	 viewBox="0 0 1440 1763.2" style="enable-background:new 0 0 1440 1763.2;" xml:space="preserve">
<style type="text/css">
	.st0{fill-rule:evenodd;clip-rule:evenodd;fill:#FFFFFF;}
</style>
<path class="st0" d="M364.1,672.8l-85.9,66.4l-0.4-10l-4.8-20l-16.8-39.2l-9.3-24.6l-3.3-14.8l-0.4-9.9l0.2-5.1l2.1-10l4.2-10.2
	l6.3-10.1l4.1-5.3l45.3-33.6l48.8-49l42.8-54.4l56.1-79.7l41.6-55.8l46.6-51.5l24.8-23.5l1-0.7l1.3-1.3l5.5-3.3l4.2-2.8l1.7-0.8
	l3.2-1.9l11.6-4.6l5.9-2.6l2-0.5l1.4-0.6l5.5-1.2L629,207l29.9-6.1l22.1-4.9l7.2-2.1l15.4-5.9l8.1-4.6l-5.8-4.4l-5.8-3l-4.1-1.3
	l-8.5-1.1l-8.4,0.2l-26,5.9l-8.4,2l1-1.8l2.6-3.1l3.2-2.4l5.2-2.7l19.5-5.6l5.4-2.2l3-2l2.6-2.2l2.2-3l0.9-1.8l1.1-4.1l0.4-5
	l-2.1-4.2l-1.8-6.3l-0.4-6.4l1.1-8.6l7.6-30.6l0.4-9.4l-0.6-4.8l8.8,7.2L726,107l57.7,83.1l-2.7-28.2l-6.2-29.6l-9.9-29.6
	l-13.2-28.5l-16.2-25.7l-18.8-22.1l110.5,113.3l2.2,7.2l0.4,10.1l-1.1,6.6l-1.9,6.2l-10.3,19.7l-6.9,13.6l-2.1,8.1l-0.3,5.5l1.1,5.5
	l2.3,5.7l4.3,5.9l6.1-2.6l3.7-2.2l3.2-2.6l6.7-7.9l16.2-25.5l2.8-3.5l6.7-6.1l2.4,6.1l2.6,12.3l0.4,12l-2.8,18.2l-13.1,36.3
	l-14.5,36.4l-4.3,18.2l-1.1,12.2l1.1,12.5l3.2,12.3l6.3,12.5l4.3,6.4l71.9-155.1l-2.6,27.6l-7.8,28.3l-24,62.6l-8.8,32.9l-1.3,12.7
	l0.7,12l2.8,11.6l5,11.2l7.7,10.5l0.9-22.8l4.6-22.2l11.7-31.9l25-52.6l15.8-37.7l1.7-5.4l3.7,0.2l3.2,0.9l2.6,1.8l1.1,1.1l2.5,4.1
	l1.3,3.5l1.3,7.8l-0.8,17.5l-2.4,11.8l-8.4,22.2l-26,47.3L912.4,407l-5.2,19.1l-0.9,9.7l0.5,9.6l1.9,9.8l3.4,9.9l35.2-48.4l35-49.5
	l21.7-37.5l7.4-17.3l4.7,17.7l0.9,17.1l-2.8,16.9l-5.4,16.5L996,405l-29.6,40.1l-45.3,55.8l-20.8,32.7l-7.6,16.6l-4.8,16.9l-1.3,8.5
	l1.8,3.3l2.6,1.8l3.3,0.4l3.6-1.2l9.3-5.8l23.3-24.5l34.5-46.7l34.8-53.7l37.7-65.9l10.2-21.9l0.9-2.9l4.1,5.3l2.6,6.2l1.5,9
	l-0.3,9.4l-2.8,15.1l-10.2,33.7l-9.9,21.9l-34.3,54.6L954.3,580l-6,10.6l-2.4,6.9l0.4,1.7l1.8,0.4l2.8-0.8l10.1-5.9l54.6-44.9
	l22.2-25.9l23.1-37.9l25.7-56.8l9.9,28.5l2.2,13l0.4,12l-1.1,11.4l-2.7,10.7l-4,10l-11.8,18.2l-16,16.4l-30.5,21.3l-85,43.6
	l-46.9,25.6l-28.9,22.2l-14.8,17l-5.8,9.2l-4.6,9.9l11-7.9l38.2-18.6l68.9-27.6l51.1-23.7l37.3-23.1l23.4-20.5l13-15.6l9.7-17.2
	l6.9-18.5l2.2,7.7l0.4,5.3l-0.9,8.3l-2.2,8.3l-6.2,13.8l-14.1,21.9l-36.2,46.9l-24.6,22.6L988.2,683l-69.5,35.5l-48.3,26.1
	l-26.7,18.8l-16.4,14.5l-21.6,25.6l-12.3,20.1l1.1,3.8l0.2,4.1l-0.4,4.2l-9.5,27l-1.1,4.1l-0.5,6l0.6,3.5l0.7,1.8l2.4,3l3.4,2.7
	l2.2,1.1l2.6,0.9l48.3-48.2l49.7-38.3l78.8-49.3l56.1-35.1l43.2-33.1l23.8-23l-17.3,30.7L1057,716l-31.2,29.6l-43.6,31.1l-82.3,49.3
	l-43.1,30.5l-23.8,21l-38.6,53.7l-23.1,41l-13.3,34.4l0.6,0.5l5.2-2.6l71-53.3l121.7-98.4l94.6-81.7l-33,40.8l-57.9,54.6l-79.4,70.1
	l-42.5,48l-20.6,32l-15.2,35.5l-9.1,39.4l42.7-42.9l91.5-91.1l64.1-59.8l33.9-27.4l-4.1,14.6l-6.5,13.2l-8.4,11.9l-17.3,18.2
	l-40.1,35.4l-19.2,20.6l-29.5,40.7l-41.7,59.4l-19.4,34.2l-12.3,28.7l-8.5,30l-3.6,32.2v17.1l47.5-88.7l30.2-52.2l79.3-77.1
	l-17.7,36.6l-14.7,40.1l-9.8,42.3l-2.8,25.6l0.9,33.7l4.3,24.5l8.2,23.7l12.3,22.1l5.2,7.1l3,0.4l2.8-0.1l2.6-1.2l2.2-1.8l3.9-5.4
	l1.7-3.7l6.3-25.8l10.7-65.3l8.4-30.3l5.6-14l11-18.8l9.5-10.8l-3.9,51.7l1.5,52.1l4.6,48.2l1.1,8.7l7.5-2.4l5.8-3.3l2.4-2l3.7-4.6
	l1.5-2.4l2.8-8.2l0.8-6l-0.8-37.6l0.1-6.9l1.1-6.5l1.7-6.3l3-5.9l8,30.6l2.4,26.3l-1.7,32.8l-2.1,12.5l-21.6,17.3l-39.7,22.4
	l-63.4,23.6l-29.5,6.7l-5.7,1.8l-56.8,14.2l-66,11.8l-74,7.1l-47.9,0.6l-85-5.7l-35.4-5.3l-59.8-23.9l-50.1-29.3l-30.8-25.4
	l-24.4-28.8l-12.5-20.5l-9.7-21.9l-6.2-23.4l-2.8-24.6l0.4-25.8l4.1-27.4l13.1-43.1l21.8-46l93.7-102.8l94.3-103l44-52.4l40.6-53.7
	l22.2-32l19.5-21.3l8.3-9.1l13.8-17.5l2.6-3.4l7.2-14.2l2.6-11.3l-0.2-7.7l-1.7-8l-1.3-3.9l-4.5-8.3l-34.6,35.3l-23.1,17.1l-22,10.7
	l-26.6,7.5l-20.5,2.4l-11.2,0.3l-37.5-3.1l-44.3-10.5l-70.1-27.6l-1.3,2.4l-1,5.3l0.7,4.8l2.3,4.8l3.5,4.8l4.7,4.4l12.5,8.1
	l18.7,8.1l19.9,5.7l17.9,2.4l3,0.2l3-0.2l-1.1,2.1l-3.2,4l-2.1,1.8l-8.4,4.4l-10.4,3.5l-16.2,2.2H468l-13.1-1.3l-8.5-2l-11.8-4.7
	l-7-4.4l-6.2-5.4l-5-6.4l-2.2-3.7l-1.4-4L364.1,672.8z M1148.6,1393.2l-154.4,22.3l-146.7,22.4l-93.9,9.8l-99.3,4.2l-106.5-3.7
	l-98.2-10.6l-60.4-11.4l-36.9-10.6l-30.2-12.5l-14.3-8.6l-0.8,2.6l-2.6,4l-1.6,1.4l-3.2,1.7l-3.7,0.8l-3.9,0.5l-5.4,1.4l-1.8,0.8
	l-2.8,2.7l34.3,19.3l42.3,15.8l104.9,22.1l157.3,11.4h33.4l170.8-8.1l163-22.4l137.9-34.4l63.6-25.4L1148.6,1393.2z M326.9,1381.1
	l17.2,4l5.4,2.2l9.1,5l6.3,4.9l50,8.7l125.8,16.2l125.6,7.2l124.7-3.7l122.3-16.4l119.2-30.2l115-46.3l-109.2,26.3L910,1382
	l-138.3,16l-139,5.4l-130.6-8.5l-91.9-19.3l-58.7-23l-22.7,22.7l-2.5,3.4l-0.2,0.9v0.5l0.2,0.7L326.9,1381.1z M415.1,738.1l3.7-9
	l17.5-30.7l6.1-13.8l-4.3-3.1l-8.7-4.7l-8.5-2.5l-8.4-1.2l-12.1,1.6l-12.1,4.3l-11.4,6.6l-22.3,17l-32.8,28.1l33,13.6l34.3,10.3
	l17.5,2h6.1l-0.3-2.4l0.7-9.4L415.1,738.1z M595.8,318.4l-3.5,3.9l-10,13.1l-17.4,28.3l-17.1,28.2l4.2-0.4l3.9-1.4l5.2-3.2l15.8-15
	l4.9-3.7l5.2-2.8l1.8-0.5l4-0.4l4.3,0.6l7.2,3.1l2.5,1.7l4.2-5l3.9-8.4l5.5-20.6l25,5.2l10.8,1.2l4.9-0.2l2.4-0.5l0.4-9l-0.5-2.6
	l-1-2"/>
<polyline class="st0" points="1188.5,1543.8 1166.8,1553.4 1134,1564 1084.2,1575.2 1035,1586 1053.7,1588.6 1068.1,1589.4
	1077.6,1589.4 1101.6,1587.9 1147.7,1581 1180.7,1574.7 1144.6,1591.9 1113.5,1602.5 1087.2,1609.2 1056.6,1614.9 1020.7,1619.3
	1027.1,1622.4 1030.4,1623.6 1037.2,1625.4 1048,1626.6 1059.3,1626.6 1093.6,1624.1 1108.7,1624.5 1115.7,1625.6 1122.8,1627.5
	1129.6,1630.3 1136.2,1634.2 1130.7,1641 1119.7,1650.4 1105.6,1658.7 1083,1668.6 1050.2,1678.9 1000,1690.7 943.7,1701.9
	857.3,1708.3 788.1,1709.5 701.2,1706.8 614.5,1700.9 459.5,1685.5 391.2,1678.3 335.4,1666.6 317,1662 305.4,1657.8 301.9,1656.2
	293,1650.4 288.2,1645.7 284.7,1640.2 281.4,1630.2 280.9,1617.8 281.6,1613.1 293.7,1616.1 308.2,1618.5 320.6,1619.3
	326.1,1619.3 333.2,1618.6 337.1,1618 338.9,1617.6 343.3,1615.9 346.4,1614.2 347.7,1612.9 348.2,1612.2 348.4,1611.5
	348.4,1610.2 348.2,1609.5 345.5,1607.4 342.2,1605.5 325.5,1599.4 306.1,1592.9 295,1587.4 287.5,1581.6 283.1,1576.2
	279.8,1544.1 275.9,1511.1 276.7,1484.7 279.8,1471.6 338,1483.6 397.6,1491.5 458.2,1496.3 568.7,1500.7 689.7,1504.8
	806.1,1502.5 922.3,1497.1 1039.2,1491 1069.6,1489.7 1119.7,1483.5 1168.2,1474.3 1196.8,1468 1192.7,1491.7 1192,1524.9 "/>
</svg>
