<svg xmlns="http://www.w3.org/2000/svg" width="39.537" height="28.723" viewBox="0 0 39.537 28.723"><g id="Group_56" data-name="Group 56" transform="translate(0.5 0.5)"><g id="Group_54" data-name="Group 54" transform="translate(0 0)"><path id="Path_266" fill="none" stroke="#003f70" stroke-miterlimit="10" stroke-width="1" d="M382.858,568.036h1.052a7.259,7.259,0,0,0,2.819-13.964,9.361,9.361,0,0,0,.1-1.29,9.745,9.745,0,0,0-9.59-9.665c-4.66,0-7.915,2.421-9.4,7.449a7.973,7.973,0,0,0-3.669-.829c-3.369.014-5.658,3.066-5.658,6.677a6.509,6.509,0,0,0,.191,1.539,5.192,5.192,0,0,0-.92-.087,5.085,5.085,0,1,0,0,10.17h11.273" data-name="Path 266" transform="translate(-352.67 -543.115)"/></g><path id="Path_267" fill="none" stroke="#003f70" stroke-miterlimit="10" stroke-width="1" d="M383.921,573.335" data-name="Path 267" transform="translate(-361.855 -551.997)"/><g id="Group_55" data-name="Group 55" transform="translate(14.432 4.421)"><path id="Path_268" fill="none" stroke="#003f70" stroke-miterlimit="10" stroke-width="1" d="M390.818,581.214H373.11v-.932a1.865,1.865,0,0,1,1.864-1.865h13.98a1.865,1.865,0,0,1,1.864,1.865Z" data-name="Path 268" transform="translate(-373.11 -557.913)"/><path id="Path_269" fill="none" stroke="#003f70" stroke-miterlimit="10" stroke-width="1" d="M377.342,577.641a.932.932,0,0,1,0-1.864h11.184a.932.932,0,0,1,0,1.864" data-name="Path 269" transform="translate(-374.08 -557.137)"/><path id="Path_270" fill="none" stroke="#003f70" stroke-miterlimit="10" stroke-width="1" d="M381.458,563.237s-3.728,5.07-3.728,8.854" data-name="Path 270" transform="translate(-374.468 -553.451)"/><path id="Path_271" fill="none" stroke="#003f70" stroke-miterlimit="10" stroke-width="1" d="M392.25,573.137" data-name="Path 271" transform="translate(-378.736 -556.361)"/><path id="Path_272" fill="none" stroke="#003f70" stroke-miterlimit="10" stroke-width="1" d="M381.69,553.337a7.455,7.455,0,0,1,7.456,7.456" data-name="Path 272" transform="translate(-375.632 -550.541)"/><path id="Path_273" fill="none" stroke="#003f70" stroke-miterlimit="10" stroke-width="1" d="M387.75,568.017v-1.1a5.824,5.824,0,0,1,.743-2.627,10.254,10.254,0,0,0-9.131-14.916v2.8l-5.126,5.126a2.664,2.664,0,0,0,.217,3.279l.449.449,3.994-2.33a2.33,2.33,0,0,0,2.8,0" data-name="Path 273" transform="translate(-373.304 -549.377)"/></g></g></svg>