<svg xmlns="http://www.w3.org/2000/svg" width="46.72" height="30.33" viewBox="0 0 46.72 30.33"><g id="Group_132" data-name="Group 132" transform="translate(-327.157 -20.155)"><g id="_1" data-name="1" transform="translate(345.535 23.199)"><rect id="Rectangle_87" width="7.684" height="24.726" fill="none" stroke="#2a5082" stroke-miterlimit="10" stroke-width="1" data-name="Rectangle 87" transform="translate(12.767 26.778) rotate(-180)"/><g id="Group_131" data-name="Group 131" transform="translate(0 2.052)"><path id="Path_387" fill="none" stroke="#2a5082" stroke-miterlimit="10" stroke-width="1" d="M357.821,51.829V27.1h-5.083" data-name="Path 387" transform="translate(-352.738 -27.104)"/><line id="Line_81" x1="2.66" fill="none" stroke="#2a5082" stroke-miterlimit="10" stroke-width="1" data-name="Line 81" transform="translate(2.424 4.951)"/><line id="Line_82" x1="2.525" fill="none" stroke="#2a5082" stroke-miterlimit="10" stroke-width="1" data-name="Line 82" transform="translate(2.558 7.628)"/></g><path id="Path_388" fill="none" stroke="#2a5082" stroke-miterlimit="10" stroke-width="1" d="M385.813,47.719l-7.3,2.582-7.145-23.494,7.3-2.582Z" data-name="Path 388" transform="translate(-358.088 -24.224)"/><circle id="Ellipse_57" cx="1.545" cy="1.545" r="1.545" fill="none" stroke="#2a5082" stroke-miterlimit="10" stroke-width="1" data-name="Ellipse 57" transform="translate(7.38 20.439)"/><line id="Line_83" x1="6.162" fill="none" stroke="#2a5082" stroke-miterlimit="10" stroke-width="1" data-name="Line 83" transform="translate(6.605 7.003)"/><line id="Line_84" x1="6.162" fill="none" stroke="#2a5082" stroke-miterlimit="10" stroke-width="1" data-name="Line 84" transform="translate(6.605 9.68)"/><path id="Path_389" fill="none" stroke="#2a5082" stroke-miterlimit="10" stroke-width="1" d="M385.263,51.705a1.545,1.545,0,1,1-1.95-.987A1.546,1.546,0,0,1,385.263,51.705Z" data-name="Path 389" transform="translate(-361.214 -31.812)"/><line id="Line_85" x2="5.855" y1="2.071" fill="none" stroke="#2a5082" stroke-miterlimit="10" stroke-width="1" data-name="Line 85" transform="translate(16.178 4.617)"/><line id="Line_86" x2="5.855" y1="2.071" fill="none" stroke="#2a5082" stroke-miterlimit="10" stroke-width="1" data-name="Line 86" transform="translate(16.952 7.161)"/></g><path id="Path_254" fill="none" stroke="#2a5082" stroke-linejoin="round" stroke-width="1" d="M349.947,60.384h-22.29V59.21A2.346,2.346,0,0,1,330,56.863h17.6a2.347,2.347,0,0,1,2.347,2.347Z" data-name="Path 254" transform="translate(0 -10.399)"/><path id="Path_255" fill="none" stroke="#2a5082" stroke-linejoin="round" stroke-width="1" d="M332.944,55.92a1.173,1.173,0,0,1,0-2.347h14.078a1.173,1.173,0,0,1,0,2.347" data-name="Path 255" transform="translate(-1.182 -9.454)"/><path id="Path_256" fill="none" stroke="#2a5082" stroke-linejoin="round" stroke-width="1" d="M338.11,37.938s-4.692,6.382-4.692,11.145" data-name="Path 256" transform="translate(-1.655 -4.964)"/><path id="Path_258" fill="none" stroke="#2a5082" stroke-linecap="round" stroke-linejoin="round" stroke-width="1" d="M338.354,25.594a9.383,9.383,0,0,1,9.385,9.382v0" data-name="Path 258" transform="translate(-3.072 -1.419)"/><path id="Path_259" fill="none" stroke="#2a5082" stroke-linecap="round" stroke-linejoin="round" stroke-width="1" d="M346.078,44.118V42.737a7.331,7.331,0,0,1,.937-3.307,12.907,12.907,0,0,0-11.494-18.776v3.52l-6.451,6.451a3.352,3.352,0,0,0,.272,4.127l.565.566,5.027-2.933a2.934,2.934,0,0,0,3.52,0" data-name="Path 259" transform="translate(-0.237 0)"/></g></svg>