<svg xmlns="http://www.w3.org/2000/svg" id="Layer_1" x="0" y="0" version="1.1" viewBox="0 0 356 93.4" xml:space="preserve"><style>.st2{fill-rule:evenodd;clip-rule:evenodd;fill:#0067b1}</style><path fill="#231f20" d="M70.3 77.5c0 2.8-.1 2.7 2.5 3v.8H65v-.8c2.6-.3 2.5-.2 2.5-3V63.8c0-2.8.1-2.7-2.5-3V60h7.8v.8c-2.6.3-2.5.2-2.5 3v13.7zm9.4 0c0 2.7-.1 2.6 2.3 3v.8h-7.2v-.8c2.5-.4 2.3-.3 2.3-3v-8.4c0-1.4-.9-1.3-2.3-1.3V67c1.6-.1 3.5-.4 4.9-1.3l.1.1v2.6c1.2-1.5 3.3-2.7 5.8-2.7 3.5 0 4.2 2.2 4.2 5.4v6.4c0 2.7-.1 2.6 2.3 3v.8h-7.2v-.8c2.5-.4 2.3-.3 2.3-3v-5.6c0-1.9-.1-4.6-3.2-4.6-3.7 0-4.3 3.3-4.3 6.5v3.7zm14.7-.1h.8c0 2.1 1.5 3.2 3.1 3.2 1.7 0 2.7-1.3 2.7-2.6 0-2-1.5-2.7-3.2-4-2.3-1.8-3.3-2.3-3.3-4.3 0-2.5 2.3-4 4.6-4 .9 0 2.1.1 3.4.5v3h-.8c-.1-1-1-2.5-2.6-2.5-1.2 0-2.2.8-2.2 1.9 0 1.5 1.5 2.2 3.6 3.8 2.7 2 3.1 3.1 3.1 4.5 0 3.2-2.7 4.5-5.2 4.5-1.6 0-2.8-.3-3.9-.8l-.1-3.2zm23.1 4.2c-.4-.5-.7-1.5-.7-2.3l-2.5 1.5c-1.2.7-1.8.8-2.7.8-3.3 0-4.2-2.5-4.2-5.9v-6.6c0-1.4-.9-1.3-2.3-1.3V67c1.6-.1 3.5-.4 4.9-1.3l.1.1v9.6c0 2.3.3 4.4 2.9 4.4 2.7 0 4-1.5 4-6V69c0-1.4-.9-1.3-2.3-1.3V67c1.6-.1 3.5-.4 4.9-1.3l.1.1v11.5c0 1.5.1 2.9 2 2.1l.2.8-4.4 1.4zm13.1-13c-.3-.2-.6-.1-1.1-.1-1.2 0-1.4 2.1-1.4 4.2v4.7c0 1 0 1.4.1 2.2.1.6 1.2.7 2.7.8v.8h-7.7v-.8c2.5-.4 2.3-.3 2.3-3V69c0-1.4-.9-1.3-2.3-1.3V67c1.6-.1 3.5-.4 4.8-1.3l.1.1v2.7l1.5-1.6c.7-.8 1.1-1.2 1.6-1.2.3 0 .6 0 1.1.9l.8 1.5c.1.2-.1.3-.2.4l-.8.6c-.2.1-.3.1-.4 0l-1.1-.5zm12.8 13c-.4-.5-.7-1.5-.7-2.4l-2.3 1.6c-.7.5-1.5.8-2.4.8-1.9 0-3.5-1.8-3.5-4 0-2.9 1.6-3.8 5-5.2l3.1-1.3c0-2.6-.7-4.4-2.5-4.4s-2.4 1.7-3.1 2.8c-.1.2-.2.2-.4.1l-1-.2c-.2-.1-.3-.2-.2-.4l.4-1.6c.2-.6.5-.8.8-.9 1.3-.5 2.3-.8 3.6-.8 3.4 0 4.9 1.6 4.9 4.9v6.7c0 1.5.1 2.9 2 2.1l.2.8-3.9 1.4zm-.7-9.2c-2.5 1-5.5 1.7-5.5 4.8 0 1.4.9 2.6 2.2 2.6 1.5 0 3.3-1 3.3-5v-2.4zm11.3 5.1c0 2.7-.1 2.6 2.3 3v.8H149v-.8c2.5-.4 2.3-.3 2.3-3v-8.4c0-1.4-.9-1.3-2.3-1.3V67c1.6-.1 3.5-.4 4.9-1.3l.1.1v2.6c1.2-1.5 3.3-2.7 5.8-2.7 3.5 0 4.2 2.2 4.2 5.4v6.4c0 2.7-.1 2.6 2.3 3v.8h-7.2v-.8c2.5-.4 2.3-.3 2.3-3v-5.6c0-1.9-.1-4.6-3.2-4.6-3.7 0-4.3 3.3-4.3 6.5v3.7h.1zm26.4 2.2l-3.8 1.9c-.7 0-4.1.4-6.4-2.3-.9-1.1-1.9-3.4-1.9-5.7 0-4.8 3.5-7.9 7.8-7.9 1.1 0 2.6.2 3.6.8l1 2c.1.1.1.2 0 .3l-1 .7c-.1.1-.3.1-.4 0l-1.5-1.8c-.4-.5-1.2-1-2.3-1-1.7 0-4.3 1.4-4.3 5.8 0 3.2 1.4 7.3 5.5 7.3 1.6 0 2.5-.7 3.2-1.1l.5 1zm4.7-6.8c0 3.5 1.5 7 5.7 7 1.6 0 2.5-.7 3.2-1.1l.5.9-3.8 1.9h-.9c-.7 0-3.1.4-5.5-2.3-.9-1-1.9-3.4-1.9-5.7 0-3.5 1.8-7.9 6.7-7.9 3.3 0 5.4 2.5 5.4 6.3v.8l-9.4.1zm5.4-1.1c.6 0 1.4-.4 1.4-1.8 0-1.9-1.4-3.3-3-3.3-1.9 0-3.8 1.2-3.8 5h5.4v.1zm18.4-6.9l-.1 12.3c0 .6.1 1.2.1 1.6.1 1.1 1.1 1.5 2.5 1.7v.8H205v-.8c1.4-.2 2.3-.6 2.5-1.7.1-.5.2-1 .2-1.6V63.4c-.6-1.4-2-2.6-3.4-2.6V60h5.5l8.1 16.9 8.3-16.9h4.7v.8c-2.1 0-2.9 1.2-2.9 3.1v13.5c0 2.8-.1 2.7 2.5 3v.8h-7.8v-.8c2.6-.3 2.5-.2 2.5-3V64.7h-.1l-7.9 16.7h-.5l-7.8-16.5zm32.7 16.7c-.4-.5-.7-1.5-.7-2.4l-2.3 1.6c-.7.5-1.5.8-2.4.8-1.9 0-3.5-1.8-3.5-4 0-2.9 1.6-3.8 5-5.2l3.1-1.3c0-2.6-.7-4.4-2.5-4.4s-2.4 1.7-3.1 2.8c-.1.2-.2.2-.4.1l-1-.2c-.2-.1-.3-.2-.2-.4l.4-1.6c.2-.6.5-.8.8-.9 1.3-.5 2.3-.8 3.6-.8 3.4 0 4.9 1.6 4.9 4.9v6.7c0 1.5.1 2.9 2 2.1l.2.8-3.9 1.4zm-.7-9.2c-2.5 1-5.5 1.7-5.5 4.8 0 1.4.9 2.6 2.2 2.6 1.5 0 3.3-1 3.3-5v-2.4zm13.7-3.8c-.3-.2-.6-.1-1.1-.1-1.2 0-1.4 2.1-1.4 4.2v4.7c0 1 0 1.4.1 2.2.1.6 1.2.7 2.7.8v.8h-7.7v-.8c2.5-.4 2.3-.3 2.3-3V69c0-1.4-.9-1.3-2.3-1.3V67c1.6-.1 3.5-.4 4.8-1.3l.1.1v2.7l1.5-1.6c.7-.8 1.1-1.2 1.6-1.2.3 0 .6 0 1.1.9l.8 1.5c.1.2-.1.3-.2.4l-.8.6c-.2.1-.3.1-.4 0l-1.1-.5zm18.8 12.7h-3.6l-6.5-8.3h-.1v4.5c0 2.7-.1 2.6 2.3 3v.8h-7.2v-.8c2.5-.4 2.3-.3 2.3-3V62c0-.8-.3-1.3-1.1-1.3h-1.2v-.8c1.7-.1 3.6-.4 4.9-.9l.1.1v13.2c1.9 0 4-2.5 5.3-3.8s-.5-1.6-1.6-1.6v-.8h5.1v.8c-.5.4-1.6 1-2.5 1.8l-3.7 3.5c2.5 2.8 6 7.3 7.6 8.6l-.1.5zm3.8-8.4c0 3.5 1.5 7 5.7 7 1.6 0 2.5-.7 3.2-1.1l.5.9-3.8 1.9h-.9c-.7 0-3.2.4-5.5-2.3-.9-1-1.9-3.4-1.9-5.7 0-3.5 1.8-7.9 6.7-7.9 3.3 0 5.4 2.5 5.4 6.3v.8l-9.4.1zm5.4-1.1c.6 0 1.4-.4 1.4-1.8 0-1.9-1.4-3.3-3-3.3-1.9 0-3.8 1.2-3.8 5h5.4v.1zm15.2-4.2l-1.2.6h-3.2v8c0 1.2.1 3.6 2 3.6.8 0 1.5-.1 2.2-.4l.2.8-3.4 1.4c-2 0-3.6-.6-3.6-4.8v-8.6h-2.3v-1.4h2.3v-3.2c.5-.6 1.1-1.1 1.8-1.7h.8v4.9h4.4v.8zm6.4-1.8v11.7c0 2.7-.1 2.6 2.3 3v.8h-7.2v-.8c2.5-.4 2.3-.3 2.3-3v-8.4c0-1.4-.9-1.3-2.3-1.3V67c1.5 0 3.5-.4 4.9-1.2zm-1.7-5.6c.9 0 1.7.8 1.7 1.8 0 .9-.8 1.8-1.7 1.8-.9 0-1.7-.8-1.7-1.8.1-1 .8-1.8 1.7-1.8zm10.6 17.3c0 2.7-.1 2.6 2.3 3v.8h-7.2v-.8c2.5-.4 2.3-.3 2.3-3v-8.4c0-1.4-.9-1.3-2.3-1.3V67c1.6-.1 3.5-.4 4.9-1.3l.1.1v2.6c1.2-1.5 3.3-2.7 5.8-2.7 3.5 0 4.2 2.2 4.2 5.4v6.4c0 2.7-.1 2.6 2.3 3v.8h-7.2v-.8c2.5-.4 2.3-.3 2.3-3v-5.6c0-1.9-.1-4.6-3.2-4.6-3.7 0-4.3 3.3-4.3 6.5v3.7zm24.9-10c.7.6 1.2 2.2 1.2 3.7 0 2.3-2.1 4.9-5.6 4.9-.5 0-1 0-1.2-.1-.4.3-.8.7-.8 1.2 0 .7 1.2.9 2.9 1.2l2.7.5c2.1.4 3.6 1.9 3.6 4.1 0 3.1-2.9 5.7-6.8 5.7-3.7 0-6.8-2-6.8-5.3 0-.5-.1-1.1.4-1.4l3-1.7v-.1c-1.3-.2-2.1-.9-1.8-2.3l2.7-2.4c-2.2-1.2-3.3-2.6-3.3-5 0-3.2 2.9-4.9 5.7-4.9 1 0 1.9.1 2.7.5 1.9.1 3.6-.1 4.9-.5l.3.4-.8 1.3h-3v.2zm-6.1 13.2c-1.2.7-2.3 1.6-2.3 3.2 0 2.2 1.6 3.9 4.6 3.9 2.7 0 4.3-1.8 4.3-3.4 0-2.5-2-2.8-3.8-3.2l-2.8-.5zm-.9-10.4c0 2 .7 5 3.2 4.9 1.9-.1 2.4-2.3 2.4-3.7 0-2.8-1-5-2.9-5-2.1.2-2.7 2.3-2.7 3.8zM64.3 5h19.9c6.5 0 12.1 3 12.1 9.7 0 5-3.5 9.1-8.4 10.7l5.8 8.6c2.6 3.8 5.5 7.4 7.1 8.4v1h-8.2c-3.3 0-6.8-9.3-11.3-16.9h-4.2v10.4c0 1.5 0 2.3.2 3.3s2.2 1.3 4.7 1.4v1.7H64.3v-1.7c2.5-.2 4.5-.4 4.7-1.4s.2-1.9.2-3.3V11.5c0-1.5 0-2.3-.2-3.3s-2.2-1.3-4.7-1.4V5zm12.9 19.4h4c5 0 6.7-4.1 6.7-9.3 0-5.9-2.8-7.9-6.7-7.9h-4v17.2zm52.9 12.5c0 1.5 0 2.3.2 3.3s2.1 1.3 4.7 1.4v1.7h-17.8v-1.7c2.5-.2 4.5-.4 4.7-1.4s.2-1.9.2-3.3V11.5c0-1.5 0-2.3-.2-3.3s-2.1-1.3-4.7-1.4V5H135v1.7c-2.5.2-4.5.4-4.7 1.4s-.2 1.9-.2 3.3v25.5zm43.6 0c0 1.5 0 2.3.2 3.3s2.2 1.3 4.7 1.4v1.7h-17.8v-1.7c2.5-.2 4.5-.4 4.7-1.4s.2-1.9.2-3.3V7.1h-4.8c-4.8 0-6.1 2.9-8.1 6.3h-1.5l1.5-8.4h33.8l1.5 8.4h-1.5c-2.1-3.4-3.3-6.3-8.1-6.3h-4.8v29.8zm50.8 0c0 1.5 0 2.3.2 3.3s2.2 1.3 4.7 1.4v1.7h-17.8v-1.7c2.5-.2 4.5-.4 4.7-1.4s.2-1.9.2-3.3V7.1h-4.8c-4.8 0-6.1 2.9-8.1 6.3h-1.5l1.5-8.4h33.8l1.5 8.4h-1.5c-2.1-3.4-3.3-6.3-8.2-6.3h-4.8v29.8h.1zm30.7 4.8c2.5-.2 4.5-.4 4.7-1.4s.2-1.9.2-3.3V11.5c0-1.5 0-2.3-.2-3.3s-2.2-1.3-4.7-1.4V5H283v8.8h-1.5c-.8-3.9-2.2-6.8-6.2-6.8h-7.2v15.3h4.7c3.6 0 5.1-2.1 5.1-5.3h1.5v12.8h-1.5c-.1-3-1.3-5.5-5.1-5.5h-4.7v12.4c0 4.2 2.1 4.5 6.7 4.5 7.2 0 8.3-3 10.6-7.9h1.5l-1.7 9.9h-30.1v-1.5h.1zM305 5h19.9c6.5 0 12.1 3 12.1 9.7 0 5-3.5 9.1-8.4 10.7l5.8 8.6c2.6 3.8 5.5 7.4 7.1 8.4v1h-8.2c-3.3 0-6.8-9.3-11.3-16.9h-4.2v10.4c0 1.5 0 2.3.2 3.3s2.2 1.3 4.7 1.4v1.7H305v-1.7c2.5-.2 4.5-.4 4.7-1.4s.2-1.9.2-3.3V11.5c0-1.5 0-2.3-.2-3.3s-2.2-1.3-4.7-1.4V5zm12.9 19.4h4c5 0 6.7-4.1 6.7-9.3 0-5.9-2.8-7.9-6.7-7.9h-4v17.2z"/><path fill="none" stroke="#0067b1" stroke-width="1.409" d="M64.1 53.2H350"/><path d="M12.4 38l.8.1h.3v-.5l.1-.3.2-.5.8-1.4.3-.6-.2-.2-.4-.2-.4-.1h-1l-.5.2-.6.3-1 .8-1.5 1.3 1.5.6zm24.1 29l-6.4.8-6.4.2-6.1-.4-4.2-.9-2.7-1-1.1 1-.1.2v.1l.8.2.3.1.4.2.3.2 2.3.4 5.8.8 5.8.3 5.8-.1 5.7-.8 5.5-1.4 5.3-2.1-5.1 1.2z" class="st2"/><path d="M7.3 37.3l3.9-3.1 2.3-1.8.1.2.1.1.2.3.3.3.3.2.6.2.3.1.7.1h.4l.7-.1.5-.2.4-.2.1-.1.1-.2.1-.1h-.3l-.8-.1-1-.2-.8-.4-.6-.4-.2-.2-.2-.2-.1-.2v-.5l.1-.1 3.2 1.3 2.1.4 1.7.2h.5l1-.1 1.2-.4 1-.5 1.1-.8 1.6-1.6.2.4.1.2v.3l.1.4-.2.5-.1.2-.2.5-.8.9-1.2 1.4-1.1 1.5-1.8 2.5-2.1 2.4-4.3 4.8-4.4 4.7-1 2.2-.6 2-.2 1.2v1.2l.1 1.2.3 1 .5 1.1.5.9 1.2 1.3 1.4 1.2 2.3 1.4 2.8 1.1 1.6.2 3.9.3h2.3l3.4-.4 3-.5 2.7-.7.2-.1 1.4-.3 2.9-1.1 1.9-1 1-.8.1-.6v-1.5l-.1-1.2-.3-1.4-.2.2-.1.3v2.7l-.1.4-.1.1-.2.2-.1.1-.3.1-.3.1-.1-.4-.2-2.2v-2.4l.1-2.4-.4.5-.5.9-.3.6-.4 1.4-.5 3-.2 1.2-.1.2-.2.3h-.1l-.1.1h-.3l-.2-.4-.6-1-.4-1.1-.2-1.1v-1.6l.1-1.1.5-2 .6-1.9.9-1.6-3.7 3.5-1.4 2.4-2.2 4.1V59l.2-1.4.4-1.4.5-1.4.9-1.5 2-2.8 1.3-1.9.9-.9 1.9-1.7.8-.8.4-.6.3-.6.1-.6-1.5 1.2-3 2.8-4.2 4.2-2 2 .4-1.8.7-1.7 1-1.5 1.9-2.2 3.7-3.2 2.7-2.5 1.5-1.9-4.4 3.8-5.6 4.5-3.3 2.5-.2.1.6-1.6 1-1.9 1.8-2.5 1.1-1 2-1.4 3.8-2.3 2.1-1.4 1.4-1.4.9-1.2.8-1.4-1.1 1-2 1.6-2.5 1.6-3.7 2.3-2.3 1.8-2.2 2.2-.1-.1H31l-.2-.1-.1-.2v-.1l-.1-.1.1-.3V43l.4-1.2.1-.2-.1-.2v-.2l.6-.9 1-1.2.7-.7 1.3-.8 2.2-1.2 3.2-1.7 1.7-1.1 1.1-1.1 1.7-2.1.7-1 .3-.7.1-.4v-.6l-.1-.4-.3.9-.5.8-.6.7-1.1 1-1.7 1-2.4 1.1-3.1 1.3-1.8.9-.5.3.2-.4.3-.5.7-.7 1.3-1.1 2.2-1.2 3.9-2 1.4-1 .7-.7.6-.9.2-.4.1-.5v-1.1l-.1-.6-.4-1.3-1.2 2.6-1.1 1.8-1 1.2-2.5 2-.5.3h-.2l.1-.4.2-.5 2.1-3 1.6-2.5.5-1.1.4-1.5.2-.7v-.5l-.1-.4-.1-.3-.2-.2v.1l-.5 1-1.7 3.1-1.7 2.5-1.6 2.1-1 1.2-.5.2-.1.1h-.2l-.1-.1-.1-.2.1-.3.2-.8.4-.8.9-1.5 2.1-2.6 1.4-1.8.6-1.2.2-.7.2-.8-.1-.8-.2-.8-.3.8-1.1 1.7-1.6 2.3-1.6 2.2-.2-.4v-.5l-.1-.4.1-.5.2-.9.6-1.3 1.2-2.2.4-1 .1-.5.1-.8-.1-.4v-.2l-.2-.2-.1-.1h-.4v.2l-.8 1.8-1.1 2.4-.6 1.5-.2 1v1l-.4-.4-.2-.6-.1-.5-.1-.6.1-.5.4-1.6 1.1-2.9.4-1.3.1-1.2-3.3 7.1-.2-.3-.3-.5-.2-.6v-1.1l.2-.9.7-1.7.6-1.7.1-.8v-.6l-.1-.5-.1-.3-.3.3-.1.1-.8 1.2-.3.4-.2.1-.1.1-.3.1-.2-.2-.1-.3-.1-.3v-.2l.1-.4.4-.6.4-.9.1-.3.1-.3v-.5l-.1-.3-5.1-5.3.8 1.1.8 1.1.6 1.4.4 1.3.3 1.4.2 1.3L28 8.1l-1-1.2-.4-.3v.7l-.3 1.4-.1.4v.3l.1.3.1.2v.2l-.1.2v.1l-.1.1-.1.1-.2.1-.2.1-.9.3-.3.1-.1.1-.1.1-.1.1.4-.1 1.2-.3h.4l.4.1.2.1.3.1.2.2-.3.2-.6.2-.7.2-2.2.5-1.3.3-1.1.5-.3.3h-.1L19.4 15l-2.1 2.3-1.9 2.6-2.6 3.7-2 2.5-2.3 2.3-2.1 1.5-.2.3-.2.4-.2.5-.1.5v.7l.1.7.5 1.1.7 1.8.3.9v.5zm15.1-17.2L22 20h-.5l-.2.1-.2.2-.8.7-.2.2h-.4l.8-1.3.8-1.3.5-.6.2-.2 3 .5.1.1v.5H25l-.3.1-.4-.1-1.2-.2-.3.9-.1.4-.3.1zm18 48.5l-6.8 1-4.3.5-4.6.2-5-.2-4.5-.5-2.8-.5-1.7-.5-1.4-.6-.7-.4v.1l-.1.2-.1.1-.1.1h-.4l-.2.1h-.1l-.1.2 1.5.8 2 .8 4.9 1 7.2.5h1.6l7.9-.3 7.5-1.1 6.4-1.6 2.9-1.1-1.9.2z" class="st2"/><path d="M48.4 71.3l-2.2.4-2.3.3-1.4.1-5.4.3-5.4.2-5.4.1-5.6-.2-5.1-.2-2.8-.2-2.8-.4-2.7-.5-.1.6V73l.1 1.5.2 1.5.2.3.4.2.5.3.9.3.7.3.2.1.1.1v.1l-.1.1-.1.1h-.2l-.1.1H8.7l-.7-.1-.6-.2v.8l.2.5.1.2.3.3.4.2.1.1.6.2.8.2 2.6.5 3.2.4 7.1.7 4 .3 4.1.1 3.2-.1 4-.3 2.6-.5 2.3-.5 1.5-.5 1-.5.7-.3.5-.5.3-.3-.3-.2-.4-.1-.3-.1h-.3l-.7-.1-1.6.2h-.5l-.5-.1-.3-.1h-.2l-.3-.2 1.7-.2 1.4-.2 1.2-.4 1.4-.5L49 76l-1.5.2-2.1.4h-2.3l-.8-.1 2.3-.5 2.3-.5 1.5-.5 1-.5.1-.9.1-1.5.2-1.1z" class="st2"/><path d="M348.1 56.3c.9 0 1.8.2 2.7.7.9.5 1.6 1.2 2.1 2 .5.9.7 1.8.7 2.8s-.2 1.9-.7 2.7c-.5.9-1.2 1.6-2 2-.9.5-1.8.7-2.8.7s-1.9-.2-2.8-.7-1.6-1.2-2-2c-.5-.9-.7-1.8-.7-2.7 0-1 .2-1.9.7-2.8.5-.9 1.2-1.6 2.1-2 .8-.4 1.7-.7 2.7-.7zm0 1c-.8 0-1.5.2-2.3.6-.7.4-1.3 1-1.7 1.7-.4.7-.6 1.5-.6 2.3s.2 1.6.6 2.3c.4.7 1 1.3 1.7 1.7.7.4 1.5.6 2.3.6s1.6-.2 2.3-.6c.7-.4 1.3-1 1.7-1.7.4-.7.6-1.5.6-2.3s-.2-1.6-.6-2.3-1-1.3-1.7-1.7c-.8-.4-1.6-.6-2.3-.6zm-2.5 7.6V59h2c.7 0 1.2.1 1.5.2.3.1.6.3.7.6.2.3.3.6.3.9 0 .4-.2.8-.5 1.1s-.7.5-1.2.5c.2.1.4.2.5.3.2.2.5.6.9 1.2l.7 1.2h-1.2l-.5-.9c-.4-.7-.8-1.2-1-1.4-.2-.1-.4-.2-.8-.2h-.6V65l-.8-.1zm1-3.3h1.2c.6 0 .9-.1 1.1-.2.2-.2.3-.4.3-.7 0-.2 0-.3-.1-.5-.1-.1-.2-.2-.4-.3-.2-.1-.5-.1-1-.1h-1.1v1.8z"/></svg>