<svg xmlns="http://www.w3.org/2000/svg" width="34.041" height="27.539" viewBox="0 0 34.041 27.539"><g id="Group_134" data-name="Group 134" transform="translate(-613.808 128.612)"><g id="Group_51" data-name="Group 51" transform="translate(630.208 -124.045)"><g id="Group_49" data-name="Group 49" transform="translate(0)"><path id="Path_390" fill="none" stroke="#2a5082" stroke-miterlimit="10" stroke-width="1" d="M638.959-121.807h15.283a1.858,1.858,0,0,1,1.858,1.858v18.742a1.858,1.858,0,0,1-1.858,1.858H642.8" data-name="Path 390" transform="translate(-638.959 121.807)"/><line id="Line_2" x1="14.861" fill="none" stroke="#2a5082" stroke-linejoin="round" stroke-width="1" data-name="Line 2" transform="translate(2.28 3.876)"/><circle id="Ellipse_8" cx=".31" cy=".31" r=".31" fill="none" stroke="#2a5082" stroke-linecap="round" stroke-linejoin="round" stroke-width="1" data-name="Ellipse 8" transform="translate(14.354 1.713)"/><circle id="Ellipse_9" cx=".31" cy=".31" r=".31" fill="none" stroke="#2a5082" stroke-linecap="round" stroke-linejoin="round" stroke-width="1" data-name="Ellipse 9" transform="translate(11.876 1.713)"/><circle id="Ellipse_10" cx=".31" cy=".31" r=".31" fill="none" stroke="#2a5082" stroke-linecap="round" stroke-linejoin="round" stroke-width="1" data-name="Ellipse 10" transform="translate(9.399 1.713)"/></g></g><g id="Group_133" data-name="Group 133" transform="translate(614.308 -128.112)"><path id="Path_253" fill="#91b9dc" d="M627.72-98.272" data-name="Path 253" transform="translate(-619.069 117.519)"/><path id="Path_253-2" fill="none" stroke="#2a5082" stroke-linejoin="round" stroke-width="2" d="M627.788-98.24" data-name="Path 253" transform="translate(-619.094 117.507)"/><path id="Path_254" fill="none" stroke="#2a5082" stroke-linejoin="round" stroke-width="1" d="M634.478-88.718h-20.17v-1.062a2.123,2.123,0,0,1,2.123-2.123h15.924a2.123,2.123,0,0,1,2.123,2.123Z" data-name="Path 254" transform="translate(-614.308 115.258)"/><path id="Path_255" fill="none" stroke="#2a5082" stroke-linejoin="round" stroke-width="1" d="M619.484-93.071a1.061,1.061,0,0,1-1.061-1.062,1.061,1.061,0,0,1,1.061-1.061h12.739a1.062,1.062,0,0,1,1.062,1.061,1.062,1.062,0,0,1-1.062,1.062" data-name="Path 255" transform="translate(-615.769 116.426)"/><path id="Path_256" fill="none" stroke="#2a5082" stroke-linejoin="round" stroke-width="1" d="M624.316-110.829s-4.247,5.774-4.247,10.085" data-name="Path 256" transform="translate(-616.353 121.976)"/><path id="Path_258" fill="none" stroke="#2a5082" stroke-linecap="round" stroke-linejoin="round" stroke-width="1" d="M625.006-123.174a8.492,8.492,0,0,1,8.493,8.49v0" data-name="Path 258" transform="translate(-618.106 126.359)"/><path id="Path_259" fill="none" stroke="#2a5082" stroke-linecap="round" stroke-linejoin="round" stroke-width="1" d="M631.056-106.881v-1.25a6.639,6.639,0,0,1,.847-2.992,11.678,11.678,0,0,0-5.091-15.712,11.679,11.679,0,0,0-5.309-1.277v3.185l-5.839,5.838a3.033,3.033,0,0,0,.246,3.734l.511.512,4.549-2.653a2.658,2.658,0,0,0,3.186,0" data-name="Path 259" transform="translate(-614.601 128.112)"/></g></g></svg>