<svg xmlns="http://www.w3.org/2000/svg" xmlns:xlink="http://www.w3.org/1999/xlink" id="Layer_1" x="0" y="0" enable-background="new 0 0 328.5 288" version="1.1" viewBox="0 0 328.5 288" xml:space="preserve"><style type="text/css"/><g><g><path d="M64.6,269.4c-15.5,0-30.3-5.7-41.9-16.3c-25.4-23.1-27.2-62.6-4.1-88l59.7-65.5c4.5-4.9,12.1-5.2,17-0.8l65.5,59.7 l51.6-56.6c14.2-15.6,13.1-39.9-2.5-54.1c-15.6-14.2-39.9-13.1-54.1,2.5l-40.4,44.3c-4.5,4.9-12.1,5.2-17,0.8 c-4.9-4.5-5.2-12.1-0.8-17L138,34.1c23.1-25.4,62.6-27.2,88-4.1c25.4,23.1,27.2,62.6,4.1,88l-59.7,65.5c-3.3,3.7-8.6,4.9-13.2,3.1 c-1.4-0.6-2.7-1.4-3.8-2.4c-2-1.9-46.1-42-65.4-59.6l-51.6,56.6c-14.2,15.6-13.1,39.9,2.5,54.1c7.6,6.9,17.3,10.4,27.6,10 c10.2-0.5,19.6-4.9,26.5-12.5l41.8-45.9c4.5-4.9,12.1-5.2,17-0.8c4.9,4.5,5.2,12.1,0.8,17L110.8,249 c-11.2,12.3-26.5,19.5-43.2,20.3C66.6,269.4,65.6,269.4,64.6,269.4z"/></g><g><path d="M259.4,159.6c7.5,0,15.1,1.9,22.1,5.9c21.2,12.2,28.5,39.3,16.2,60.5c-8.2,14.2-23.1,22.2-38.4,22.2 c-7.5,0-15.1-1.9-22.1-5.9C216,230.1,208.7,203,221,181.8C229.2,167.6,244.1,159.6,259.4,159.6 M259.4,135.6L259.4,135.6 c-24.4,0-47,13.1-59.2,34.2c-18.8,32.6-7.6,74.5,25,93.3c10.4,6,22.2,9.2,34.1,9.2c24.4,0,47-13.1,59.2-34.2 c18.8-32.6,7.6-74.5-25-93.3C283.1,138.8,271.3,135.6,259.4,135.6L259.4,135.6z"/></g><g><path d="M280.2,228c-2,0-4.1-0.5-6-1.6l-40.3-23.3c-5.7-3.3-7.7-10.7-4.4-16.4c3.3-5.7,10.7-7.7,16.4-4.4l40.3,23.3 c5.7,3.3,7.7,10.7,4.4,16.4C288.4,225.8,284.3,228,280.2,228z"/></g></g></svg>