<svg xmlns="http://www.w3.org/2000/svg" xmlns:xlink="http://www.w3.org/1999/xlink" id="Layer_1" x="0" y="0" enable-background="new 0 0 242.8 288" version="1.1" viewBox="0 0 242.8 288" xml:space="preserve"><style type="text/css"/><g><path d="M230.3,1.1H13.8c-6.6,0-12,5.4-12,12v53.3c0,6.6,5.4,12,12,12h8.7v196.1c0,6.6,5.4,12,12,12h175.1c6.6,0,12-5.4,12-12V78.4 h8.7c6.6,0,12-5.4,12-12V13.1C242.3,6.5,237,1.1,230.3,1.1z M25.8,25.1h192.5v29.3h-6c-0.6,0-1.2,0.1-1.8,0.1c-0.3,0-0.6,0-0.9,0 H37.1c-0.5-0.1-1-0.1-1.5-0.1h-9.8V25.1z M197.6,262.5H46.5v-184h151.1V262.5z"/><polygon points="110.1 230.8 134.1 230.8 134.1 182.5 182.3 182.5 182.3 158.5 134.1 158.5 134.1 110.4 110.1 110.4 110.1 158.5 61.9 158.5 61.9 182.5 110.1 182.5"/></g></svg>