<svg xmlns="http://www.w3.org/2000/svg" xmlns:xlink="http://www.w3.org/1999/xlink" id="Layer_1" x="0" y="0" enable-background="new 0 0 242.8 288" version="1.1" viewBox="0 0 242.8 288" xml:space="preserve"><style type="text/css"/><path d="M229.4,1.6H12.9c-6.6,0-12,5.4-12,12v48.3c0,6.6,5.4,12,12,12h21.8c1.2,0,175.5,0,176.7,0h18c6.6,0,12-5.4,12-12V13.6	C241.4,7,236,1.6,229.4,1.6z"/><path d="M21.6,91.4V275c0,6.6,5.4,12,12,12h175.1c6.6,0,12-5.4,12-12V91.4H21.6z M181.3,201h-48.2v48.3h-24V201H60.9v-24h48.2v-48.2	h24V177h48.2V201z"/></svg>