<svg xmlns="http://www.w3.org/2000/svg" xmlns:xlink="http://www.w3.org/1999/xlink" id="Layer_1" x="0" y="0" enable-background="new 0 0 201.7 288" version="1.1" viewBox="0 0 201.7 288" xml:space="preserve"><style type="text/css"/><path d="M185.2,42.1H16.8C8.1,42.1,0.9,49.2,0.9,58v168.3c0,8.8,7.1,15.9,15.9,15.9h168.3c8.8,0,15.9-7.1,15.9-15.9V58	C201.1,49.2,194,42.1,185.2,42.1z M170.6,87.9l-12.9,63.9c-0.6,2.1-1.8,4-3.3,5.5c-1.6,1.6-3.5,2.7-5.7,3.3c-4.2,1.1-8.8-0.1-12-3.3	l-16.5-16.5l-67.8,67.8c-4.9,4.9-12.8,4.9-17.7,0c-4.9-4.9-4.9-12.8,0-17.7l67.8-67.8l-16.5-16.5c-3.1-3.1-4.4-7.8-3.3-12	c1.1-4.4,4.5-7.7,8.8-8.9l63.8-13c4.3-1.2,8.9,0,12.1,3.2C170.5,78.9,171.8,83.6,170.6,87.9z"/></svg>