<svg xmlns="http://www.w3.org/2000/svg" xmlns:xlink="http://www.w3.org/1999/xlink" id="Layer_1" x="0" y="0" enable-background="new 0 0 286.8 288" version="1.1" viewBox="0 0 286.8 288" xml:space="preserve"><style type="text/css"/><g><g><path d="M272.8,2.8c-0.4,0-0.9-0.1-1.4-0.1h-89.5c-6.9,0-12.5,5.6-12.5,12.5s5.6,12.5,12.5,12.5h59.8L98.5,171 c-4.9,4.9-4.9,12.8,0,17.7s12.8,4.9,17.7,0L259.4,45.4v59.8c0,6.9,5.6,12.5,12.5,12.5c3.5,0,6.6-1.4,8.8-3.7 c2.3-2.3,3.7-5.4,3.7-8.8v-90C284.5,8.6,279.3,3.2,272.8,2.8z"/></g></g><g><g><path d="M248.5,284.9H12.7c-5.9,0-10.6-4.8-10.6-10.6V38.5c0-5.9,4.8-10.6,10.6-10.6h127.9c6.9,0,12.8,5.4,12.9,12.3 c0.1,7-5.5,12.7-12.5,12.7H37.7c-5.9,0-10.6,4.8-10.6,10.6v185.8c0,5.9,4.8,10.6,10.6,10.6h185.8c5.9,0,10.6-4.8,10.6-10.6V137.9 c0-6.9,5.4-12.8,12.3-12.9c7-0.1,12.7,5.5,12.7,12.5v136.8C259.1,280.1,254.4,284.9,248.5,284.9z"/></g></g></svg>