<svg id="Group_22" data-name="Group 22" xmlns="http://www.w3.org/2000/svg" width="81.886" height="81.875" viewBox="0 0 81.886 81.875">
  <circle id="Ellipse_9" data-name="Ellipse 9" cx="31.071" cy="31.071" r="31.071" transform="translate(0 0)" fill="#e9eaeb"/>
  <path id="Rectangle_25" data-name="Rectangle 25" d="M2.975,0H56.387a2.975,2.975,0,0,1,2.975,2.975v11.1a0,0,0,0,1,0,0H0a0,0,0,0,1,0,0V2.975A2.975,2.975,0,0,1,2.975,0Z" transform="translate(11.633 20.846)" fill="#91b9dc"/>
  <ellipse id="Ellipse_10" data-name="Ellipse 10" cx="17.453" cy="17.786" rx="17.453" ry="17.786" transform="translate(46.094 45.747)" fill="#fff"/>
  <path id="Rectangle_26" data-name="Rectangle 26" d="M0,0H60.222a0,0,0,0,1,0,0V34.684a0,0,0,0,1,0,0H3.268A3.268,3.268,0,0,1,0,31.416V0A0,0,0,0,1,0,0Z" transform="translate(11.271 35.297)" fill="#fff"/>
  <g id="Group_21" data-name="Group 21" transform="translate(11.236 15.974)">
    <path id="Path_52" data-name="Path 52" d="M626.943,366.484v-19a3.166,3.166,0,0,0-3.167-3.166H569.957a3.166,3.166,0,0,0-3.166,3.166v42.739a3.166,3.166,0,0,0,3.166,3.166H598.45" transform="translate(-566.791 -339.574)" fill="none" stroke="#2a5082" stroke-miterlimit="10" stroke-width="2"/>
    <line id="Line_100" data-name="Line 100" y2="9.498" transform="translate(49.071)" fill="none" stroke="#2a5082" stroke-miterlimit="10" stroke-width="2"/>
    <line id="Line_101" data-name="Line 101" y2="9.498" transform="translate(39.573)" fill="none" stroke="#2a5082" stroke-miterlimit="10" stroke-width="2"/>
    <line id="Line_102" data-name="Line 102" y2="9.498" transform="translate(30.076)" fill="none" stroke="#2a5082" stroke-miterlimit="10" stroke-width="2"/>
    <line id="Line_103" data-name="Line 103" y2="9.498" transform="translate(20.578)" fill="none" stroke="#2a5082" stroke-miterlimit="10" stroke-width="2"/>
    <line id="Line_104" data-name="Line 104" y2="9.498" transform="translate(11.081)" fill="none" stroke="#2a5082" stroke-miterlimit="10" stroke-width="2"/>
    <circle id="Ellipse_11" data-name="Ellipse 11" cx="17.412" cy="17.412" r="17.412" transform="translate(34.825 30.076)" fill="none" stroke="#2a5082" stroke-miterlimit="10" stroke-width="2"/>
    <path id="Path_53" data-name="Path 53" d="M610.5,370.815V381.9H620" transform="translate(-558.266 -334.407)" fill="none" stroke="#2a5082" stroke-miterlimit="10" stroke-width="2"/>
    <line id="Line_105" data-name="Line 105" x1="60.152" transform="translate(0 18.995)" fill="none" stroke="#2a5082" stroke-miterlimit="10" stroke-width="2"/>
  </g>
</svg>
