<svg xmlns="http://www.w3.org/2000/svg" width="70.127" height="67.911" viewBox="0 0 70.127 67.911"><g id="Group_85" data-name="Group 85" transform="translate(-73 -415)"><path id="Path_144" fill="#91b9dc" d="M104.382,445C99.826,445,91,447.485,91,452.3V467a4.61,4.61,0,0,0,4.866,4.766h1.217v4.866h14.6v-4.866H112.9A4.61,4.61,0,0,0,117.764,467V452.3C117.764,447.485,108.938,445,104.382,445Z" data-name="Path 144" transform="translate(3.681 6.28)"/><path id="Path_145" fill="#e9eaeb" d="M107.992,416a32.974,32.974,0,0,0-32.43,39.036c2.811-2.5,8.314-3.756,11.6-3.756H128.53c3.387,0,9.125,1.321,11.852,3.974A32.981,32.981,0,0,0,107.992,416Z" data-name="Path 145" transform="translate(0.217)"/><path id="Path_146" fill="none" stroke="#2a5082" stroke-miterlimit="10" stroke-width="2" d="M112.9,471.864A4.69,4.69,0,0,0,117.764,467V452.3c0-4.814-8.826-7.3-13.382-7.3S91,447.485,91,452.3V467a4.69,4.69,0,0,0,4.866,4.866" data-name="Path 146" transform="translate(3.681 6.28)"/><path id="Path_147" fill="#fff" stroke="#2a5082" stroke-miterlimit="10" stroke-width="2" d="M103.083,444.565a6.122,6.122,0,0,0,6.083-6.207v-2.069a6.084,6.084,0,1,0-12.166,0v2.069A6.122,6.122,0,0,0,103.083,444.565Z" data-name="Path 147" transform="translate(4.981 3.05)"/><path id="Path_148" fill="#fff" stroke="#2a5082" stroke-miterlimit="10" stroke-width="2" d="M95.083,430.484a6.123,6.123,0,0,0,6.083-6.207v-2.071a6.084,6.084,0,1,0-12.166,0v2.071A6.123,6.123,0,0,0,95.083,430.484Z" data-name="Path 148" transform="translate(3.248)"/><path id="Path_149" fill="#fff" stroke="#2a5082" stroke-miterlimit="10" stroke-width="2" d="M111.083,430.484a6.123,6.123,0,0,0,6.083-6.207v-2.071a6.084,6.084,0,1,0-12.166,0v2.071A6.123,6.123,0,0,0,111.083,430.484Z" data-name="Path 149" transform="translate(6.713)"/><line id="Line_199" y1="19.465" fill="none" stroke="#2a5082" stroke-miterlimit="10" stroke-width="2" data-name="Line 199" transform="translate(115.363 463.446)"/><line id="Line_200" y2="19.465" fill="none" stroke="#2a5082" stroke-miterlimit="10" stroke-width="2" data-name="Line 200" transform="translate(100.764 463.446)"/><line id="Line_201" y1="19.465" fill="none" stroke="#2a5082" stroke-miterlimit="10" stroke-width="2" data-name="Line 201" transform="translate(80.083 463.446)"/><path id="Path_150" fill="#fff" stroke="#2a5082" stroke-miterlimit="10" stroke-width="2" d="M86.083,444.484A6.123,6.123,0,0,1,80,438.277v-2.071a6.084,6.084,0,1,1,12.166,0v2.071A6.123,6.123,0,0,1,86.083,444.484Z" data-name="Path 150" transform="translate(1.299 3.032)"/><path id="Path_151" fill="none" stroke="#2a5082" stroke-miterlimit="10" stroke-width="2" d="M94.684,446.4a22.754,22.754,0,0,0-7.3-1.4C82.826,445,74,447.485,74,452.3V467a4.69,4.69,0,0,0,4.866,4.866" data-name="Path 151" transform="translate(0 6.28)"/><line id="Line_202" y1="19.465" fill="none" stroke="#2a5082" stroke-miterlimit="10" stroke-width="2" data-name="Line 202" transform="translate(136.044 463.446)"/><path id="Path_152" fill="#fff" stroke="#2a5082" stroke-miterlimit="10" stroke-width="2" d="M120.083,444.484a6.123,6.123,0,0,0,6.083-6.207v-2.071a6.084,6.084,0,1,0-12.166,0v2.071A6.123,6.123,0,0,0,120.083,444.484Z" data-name="Path 152" transform="translate(8.662 3.032)"/><path id="Path_153" fill="none" stroke="#2a5082" stroke-miterlimit="10" stroke-width="2" d="M113,446.4a22.741,22.741,0,0,1,7.3-1.4c4.556,0,13.381,2.485,13.381,7.3V467a4.689,4.689,0,0,1-4.865,4.866" data-name="Path 153" transform="translate(8.446 6.28)"/></g></svg>