<svg xmlns="http://www.w3.org/2000/svg" width="87.514" height="83.683" viewBox="0 0 87.514 83.683">
  <g id="Group_635" data-name="Group 635" transform="translate(-0.814 -0.674)">
    <circle id="Ellipse_3" data-name="Ellipse 3" cx="36.461" cy="36.461" r="36.461" transform="translate(0.814 0.674)" fill="#e9eaeb"/>
    <path id="Path_517" data-name="Path 517" d="M13.286,70.641H82.849L51.36,43.343l-6.465-.359Z" transform="translate(3.581 12.147)" fill="#91b9dc"/>
    <path id="Path_518" data-name="Path 518" d="M12.844,27.867v44.3l1.078,1.2,26.46-22.629Z" transform="translate(3.454 7.807)" fill="#fff"/>
    <path id="Path_519" data-name="Path 519" d="M74.069,27.5,46.89,50.6,73.71,73.591Z" transform="translate(13.228 7.7)" fill="#fff"/>
    <path id="Path_520" data-name="Path 520" d="M54.377,54.872,51.3,52.181A7.557,7.557,0,0,0,41.82,51.8l-3.487,2.591-19.4-16.762V13.565h54.6V38.349Z" transform="translate(5.203 3.701)" fill="#fff"/>
    <g id="Group_634" data-name="Group 634" transform="translate(15.46 11.489)">
      <path id="Path_521" data-name="Path 521" d="M13.246,70.14,42.428,44.6a8.212,8.212,0,0,1,10.791,0L82.4,70.14" transform="translate(-11.891 0.542)" fill="none" stroke="#2a5082" stroke-linejoin="round" stroke-width="2"/>
      <line id="Line_386" data-name="Line 386" y1="23.708" x2="27.091" transform="translate(43.946 23.725)" fill="none" stroke="#2a5082" stroke-linejoin="round" stroke-width="2"/>
      <line id="Line_387" data-name="Line 387" x2="27.091" y2="23.708" transform="translate(0.831 23.725)" fill="none" stroke="#2a5082" stroke-linejoin="round" stroke-width="2"/>
      <path id="Path_522" data-name="Path 522" d="M53.928,14.827l-5.9-4.133a9.811,9.811,0,0,0-10.791,0l-5.9,4.133" transform="translate(-6.698 -9.077)" fill="none" stroke="#2a5082" stroke-linejoin="round" stroke-width="2"/>
      <path id="Path_523" data-name="Path 523" d="M20.817,22.253l-5.092,3.565A8.3,8.3,0,0,0,12.193,32.6V72.849A4.312,4.312,0,0,0,16.5,77.162H79.749a4.313,4.313,0,0,0,4.312-4.313V32.6a8.308,8.308,0,0,0-3.532-6.786l-5.093-3.565" transform="translate(-12.193 -5.294)" fill="none" stroke="#2a5082" stroke-linejoin="round" stroke-width="2"/>
      <path id="Path_524" data-name="Path 524" d="M73.513,38.339v-24.8H18.893v24.8" transform="translate(-10.269 -7.794)" fill="none" stroke="#2a5082" stroke-linejoin="round" stroke-width="2"/>
      <line id="Line_388" data-name="Line 388" x2="4.312" transform="translate(17.248 24.435)" fill="none" stroke="#2a5082" stroke-linecap="round" stroke-linejoin="round" stroke-width="2"/>
      <line id="Line_389" data-name="Line 389" x2="4.312" transform="translate(50.307 24.435)" fill="none" stroke="#2a5082" stroke-linecap="round" stroke-linejoin="round" stroke-width="2"/>
      <line id="Line_390" data-name="Line 390" x2="2.191" y2="1.265" transform="translate(20.806 15.811)" fill="none" stroke="#2a5082" stroke-linecap="round" stroke-linejoin="round" stroke-width="2"/>
      <line id="Line_391" data-name="Line 391" x2="2.191" y2="1.265" transform="translate(48.87 31.794)" fill="none" stroke="#2a5082" stroke-linecap="round" stroke-linejoin="round" stroke-width="2"/>
      <line id="Line_392" data-name="Line 392" y1="1.265" x2="2.191" transform="translate(20.806 31.794)" fill="none" stroke="#2a5082" stroke-linecap="round" stroke-linejoin="round" stroke-width="2"/>
      <line id="Line_393" data-name="Line 393" y1="1.265" x2="2.191" transform="translate(48.87 15.811)" fill="none" stroke="#2a5082" stroke-linecap="round" stroke-linejoin="round" stroke-width="2"/>
      <path id="Path_525" data-name="Path 525" d="M45.386,23.594h-5.6A2.981,2.981,0,0,0,36.8,25.985a2.876,2.876,0,0,0,2.835,3.358h2.72a2.982,2.982,0,0,1,2.99,2.391,2.877,2.877,0,0,1-2.835,3.358H36.761" transform="translate(-5.14 -4.909)" fill="none" stroke="#2a5082" stroke-linecap="round" stroke-linejoin="round" stroke-width="2"/>
      <line id="Line_394" data-name="Line 394" y2="4.312" transform="translate(35.934 14.373)" fill="none" stroke="#2a5082" stroke-linecap="round" stroke-linejoin="round" stroke-width="2"/>
      <line id="Line_395" data-name="Line 395" y2="4.312" transform="translate(35.934 30.184)" fill="none" stroke="#2a5082" stroke-linecap="round" stroke-linejoin="round" stroke-width="2"/>
    </g>
  </g>
</svg>
