<svg xmlns="http://www.w3.org/2000/svg" width="87.514" height="83.683" viewBox="0 0 87.514 83.683"><g id="Group_635" data-name="Group 635" transform="translate(-0.814 -0.674)"><circle id="Ellipse_3" cx="36.461" cy="36.461" r="36.461" fill="#e9eaeb" data-name="Ellipse 3" transform="translate(0.814 0.674)"/><path id="Path_517" fill="#91b9dc" d="M13.286,70.641H82.849L51.36,43.343l-6.465-.359Z" data-name="Path 517" transform="translate(3.581 12.147)"/><path id="Path_518" fill="#fff" d="M12.844,27.867v44.3l1.078,1.2,26.46-22.629Z" data-name="Path 518" transform="translate(3.454 7.807)"/><path id="Path_519" fill="#fff" d="M74.069,27.5,46.89,50.6,73.71,73.591Z" data-name="Path 519" transform="translate(13.228 7.7)"/><path id="Path_520" fill="#fff" d="M54.377,54.872,51.3,52.181A7.557,7.557,0,0,0,41.82,51.8l-3.487,2.591-19.4-16.762V13.565h54.6V38.349Z" data-name="Path 520" transform="translate(5.203 3.701)"/><g id="Group_634" data-name="Group 634" transform="translate(15.46 11.489)"><path id="Path_521" fill="none" stroke="#2a5082" stroke-linejoin="round" stroke-width="2" d="M13.246,70.14,42.428,44.6a8.212,8.212,0,0,1,10.791,0L82.4,70.14" data-name="Path 521" transform="translate(-11.891 0.542)"/><line id="Line_386" x2="27.091" y1="23.708" fill="none" stroke="#2a5082" stroke-linejoin="round" stroke-width="2" data-name="Line 386" transform="translate(43.946 23.725)"/><line id="Line_387" x2="27.091" y2="23.708" fill="none" stroke="#2a5082" stroke-linejoin="round" stroke-width="2" data-name="Line 387" transform="translate(0.831 23.725)"/><path id="Path_522" fill="none" stroke="#2a5082" stroke-linejoin="round" stroke-width="2" d="M53.928,14.827l-5.9-4.133a9.811,9.811,0,0,0-10.791,0l-5.9,4.133" data-name="Path 522" transform="translate(-6.698 -9.077)"/><path id="Path_523" fill="none" stroke="#2a5082" stroke-linejoin="round" stroke-width="2" d="M20.817,22.253l-5.092,3.565A8.3,8.3,0,0,0,12.193,32.6V72.849A4.312,4.312,0,0,0,16.5,77.162H79.749a4.313,4.313,0,0,0,4.312-4.313V32.6a8.308,8.308,0,0,0-3.532-6.786l-5.093-3.565" data-name="Path 523" transform="translate(-12.193 -5.294)"/><path id="Path_524" fill="none" stroke="#2a5082" stroke-linejoin="round" stroke-width="2" d="M73.513,38.339v-24.8H18.893v24.8" data-name="Path 524" transform="translate(-10.269 -7.794)"/><line id="Line_388" x2="4.312" fill="none" stroke="#2a5082" stroke-linecap="round" stroke-linejoin="round" stroke-width="2" data-name="Line 388" transform="translate(17.248 24.435)"/><line id="Line_389" x2="4.312" fill="none" stroke="#2a5082" stroke-linecap="round" stroke-linejoin="round" stroke-width="2" data-name="Line 389" transform="translate(50.307 24.435)"/><line id="Line_390" x2="2.191" y2="1.265" fill="none" stroke="#2a5082" stroke-linecap="round" stroke-linejoin="round" stroke-width="2" data-name="Line 390" transform="translate(20.806 15.811)"/><line id="Line_391" x2="2.191" y2="1.265" fill="none" stroke="#2a5082" stroke-linecap="round" stroke-linejoin="round" stroke-width="2" data-name="Line 391" transform="translate(48.87 31.794)"/><line id="Line_392" x2="2.191" y1="1.265" fill="none" stroke="#2a5082" stroke-linecap="round" stroke-linejoin="round" stroke-width="2" data-name="Line 392" transform="translate(20.806 31.794)"/><line id="Line_393" x2="2.191" y1="1.265" fill="none" stroke="#2a5082" stroke-linecap="round" stroke-linejoin="round" stroke-width="2" data-name="Line 393" transform="translate(48.87 15.811)"/><path id="Path_525" fill="none" stroke="#2a5082" stroke-linecap="round" stroke-linejoin="round" stroke-width="2" d="M45.386,23.594h-5.6A2.981,2.981,0,0,0,36.8,25.985a2.876,2.876,0,0,0,2.835,3.358h2.72a2.982,2.982,0,0,1,2.99,2.391,2.877,2.877,0,0,1-2.835,3.358H36.761" data-name="Path 525" transform="translate(-5.14 -4.909)"/><line id="Line_394" y2="4.312" fill="none" stroke="#2a5082" stroke-linecap="round" stroke-linejoin="round" stroke-width="2" data-name="Line 394" transform="translate(35.934 14.373)"/><line id="Line_395" y2="4.312" fill="none" stroke="#2a5082" stroke-linecap="round" stroke-linejoin="round" stroke-width="2" data-name="Line 395" transform="translate(35.934 30.184)"/></g></g></svg>