<svg xmlns="http://www.w3.org/2000/svg" width="23.391" height="18.063" viewBox="0 0 23.391 18.063">
  <g id="Group_706" data-name="Group 706" transform="translate(-176.979 -153.098)">
    <path id="Path_563" data-name="Path 563" d="M184.2,156.407c0-.971-.017-1.834.012-2.7.007-.21.118-.526.269-.591a.752.752,0,0,1,.633.179c1.682,1.508,3.357,3.023,5,4.568a1.077,1.077,0,0,1-.024,1.664q-2.48,2.309-5.014,4.559a.724.724,0,0,1-.626.167.835.835,0,0,1-.244-.618c-.029-.741-.011-1.484-.011-2.328h-.872q-2.415,0-4.831,0a1.35,1.35,0,0,1-1.513-1.5c-.013-.721-.01-1.442,0-2.163.01-.843.386-1.231,1.234-1.237,1.706-.011,3.413,0,5.119,0Z" fill="#fff"/>
    <path id="Path_564" data-name="Path 564" d="M251.807,203.634h5.611c1.175,0,1.6.423,1.607,1.593,0,.673.01,1.346,0,2.019a1.147,1.147,0,0,1-1.287,1.288c-1.944.009-3.887,0-5.929,0,0,.873.02,1.706-.013,2.536-.009.234-.118.584-.281.657s-.5-.08-.673-.234q-2.444-2.189-4.85-4.419a1.178,1.178,0,0,1,.031-1.882q2.385-2.2,4.8-4.362a2.428,2.428,0,0,1,.684-.3,2.645,2.645,0,0,1,.284.753C251.832,202.027,251.807,202.773,251.807,203.634Z" transform="translate(-58.659 -40.586)" fill="#fff"/>
  </g>
</svg>
