<svg xmlns="http://www.w3.org/2000/svg" width="73" height="69.459" viewBox="0 0 73 69.459">
  <g id="Group_7" data-name="Group 7" transform="translate(-397 -203)">
    <circle id="Ellipse_3" data-name="Ellipse 3" cx="28.328" cy="28.328" r="28.328" transform="translate(397 203)" fill="#e9eaeb"/>
    <rect id="Rectangle_19" data-name="Rectangle 19" width="49.574" height="59.016" rx="2" transform="translate(419.426 212.443)" fill="#91b9dc"/>
    <path id="Path_13" data-name="Path 13" d="M416,228.7V213.361A2.36,2.36,0,0,1,418.361,211h44.852a2.36,2.36,0,0,1,2.361,2.361v54.3a2.36,2.36,0,0,1-2.361,2.361H418.361A2.36,2.36,0,0,1,416,267.656V247.59" transform="translate(3.426 1.443)" fill="none" stroke="#2a5082" stroke-miterlimit="10" stroke-width="2"/>
    <rect id="Rectangle_20" data-name="Rectangle 20" width="40.131" height="49.574" transform="translate(424.148 217.164)" fill="#fff"/>
    <line id="Line_44" data-name="Line 44" x2="16.525" transform="translate(440.672 230.148)" fill="none" stroke="#2a5082" stroke-miterlimit="10" stroke-width="2"/>
    <line id="Line_45" data-name="Line 45" x2="16.525" transform="translate(440.672 237.229)" fill="none" stroke="#2a5082" stroke-miterlimit="10" stroke-width="2"/>
    <path id="Path_14" data-name="Path 14" d="M431.721,224l-2.125,4.721h-.236L427,226.361" transform="translate(5.41 3.787)" fill="none" stroke="#2a5082" stroke-miterlimit="10" stroke-width="2"/>
    <path id="Path_15" data-name="Path 15" d="M431.721,230l-2.125,4.721h-.236L427,232.361" transform="translate(5.41 4.869)" fill="none" stroke="#2a5082" stroke-miterlimit="10" stroke-width="2"/>
    <path id="Path_16" data-name="Path 16" d="M420,232.7V215h40.131v49.574H420V251.59" transform="translate(4.148 2.164)" fill="none" stroke="#2a5082" stroke-miterlimit="10" stroke-width="2"/>
    <g id="Group_5" data-name="Group 5" transform="translate(431.229 205.361)">
      <path id="Path_17" data-name="Path 17" d="M448.426,210.9H443.7v-.977a4.858,4.858,0,0,0-4.257-4.9,4.721,4.721,0,0,0-5.185,4.7v1.18h-4.721A3.541,3.541,0,0,0,426,214.443v4.721h25.967v-4.721A3.541,3.541,0,0,0,448.426,210.9Z" transform="translate(-426 -205)" fill="#fff" stroke="#2a5082" stroke-miterlimit="10" stroke-width="2"/>
      <line id="Line_46" data-name="Line 46" y2="2.361" transform="translate(12.984 3.541)" fill="none" stroke="#2a5082" stroke-miterlimit="10" stroke-width="2"/>
    </g>
    <g id="Group_6" data-name="Group 6" transform="translate(401.721 223.453)">
      <path id="Path_18" data-name="Path 18" d="M408.433,222.892l-1.872-1.872a2.36,2.36,0,0,0-3.338,0l-.2.2a2.36,2.36,0,0,0,0,3.338l1.872,1.872" transform="translate(-400.76 -220.328)" fill="none" stroke="#2a5082" stroke-linejoin="round" stroke-width="2"/>
      <path id="Path_19" data-name="Path 19" d="M404,226.721l27.148,27.148,9.443,4.721-4.721-9.443L408.721,222Z" transform="translate(-400.459 -220.027)" fill="#fff" stroke="#2a5082" stroke-linejoin="round" stroke-width="2"/>
      <line id="Line_47" data-name="Line 47" x1="4.721" y2="4.721" transform="translate(30.688 29.121)" fill="#fff" stroke="#2a5082" stroke-linejoin="round" stroke-width="2"/>
      <line id="Line_48" data-name="Line 48" x1="8.262" y2="8.262" transform="translate(3.541 5.514)" fill="none" stroke="#2a5082" stroke-linejoin="round" stroke-width="2"/>
      <line id="Line_49" data-name="Line 49" x2="11.803" y2="11.803" transform="translate(0 10.236)" fill="none" stroke="#2a5082" stroke-linejoin="round" stroke-width="2"/>
    </g>
  </g>
</svg>
