<svg xmlns="http://www.w3.org/2000/svg" width="59.227" height="56.363" viewBox="0 0 59.227 56.363"><g id="Group_7" data-name="Group 7" transform="translate(-397 -203)"><circle id="Ellipse_3" cx="22.909" cy="22.909" r="22.909" fill="#e9eaeb" data-name="Ellipse 3" transform="translate(397 203)"/><rect id="Rectangle_19" width="40.09" height="47.727" fill="#91b9dc" data-name="Rectangle 19" rx="2" transform="translate(415.136 210.636)"/><path id="Path_13" fill="none" stroke="#2a5082" stroke-miterlimit="10" stroke-width="2" d="M416,225.318V212.909A1.909,1.909,0,0,1,417.909,211h36.272a1.909,1.909,0,0,1,1.909,1.909v43.908a1.908,1.908,0,0,1-1.909,1.909H417.909A1.909,1.909,0,0,1,416,256.818V240.59" data-name="Path 13" transform="translate(-0.864 -0.364)"/><rect id="Rectangle_20" width="32.454" height="40.09" fill="#fff" data-name="Rectangle 20" transform="translate(418.954 214.454)"/><line id="Line_44" x2="13.363" fill="none" stroke="#2a5082" stroke-miterlimit="10" stroke-width="2" data-name="Line 44" transform="translate(432.318 224.954)"/><line id="Line_45" x2="13.363" fill="none" stroke="#2a5082" stroke-miterlimit="10" stroke-width="2" data-name="Line 45" transform="translate(432.318 230.681)"/><path id="Path_14" fill="none" stroke="#2a5082" stroke-miterlimit="10" stroke-width="2" d="M430.818,224l-1.718,3.818h-.191L427,225.909" data-name="Path 14" transform="translate(-1.364 -0.955)"/><path id="Path_15" fill="none" stroke="#2a5082" stroke-miterlimit="10" stroke-width="2" d="M430.818,230l-1.718,3.818h-.191L427,231.909" data-name="Path 15" transform="translate(-1.364 -1.228)"/><path id="Path_16" fill="none" stroke="#2a5082" stroke-miterlimit="10" stroke-width="2" d="M420,229.318V215h32.454v40.09H420v-10.5" data-name="Path 16" transform="translate(-1.046 -0.546)"/><g id="Group_5" data-name="Group 5" transform="translate(424.681 204.909)"><path id="Path_17" fill="#fff" stroke="#2a5082" stroke-miterlimit="10" stroke-width="2" d="M444.136,209.773h-3.818v-.79a3.928,3.928,0,0,0-3.443-3.964,3.818,3.818,0,0,0-4.193,3.8v.955h-3.818A2.863,2.863,0,0,0,426,212.636v3.818h21v-3.818A2.863,2.863,0,0,0,444.136,209.773Z" data-name="Path 17" transform="translate(-426 -205)"/><line id="Line_46" y2="1.909" fill="none" stroke="#2a5082" stroke-miterlimit="10" stroke-width="2" data-name="Line 46" transform="translate(10.5 2.863)"/></g><g id="Group_6" data-name="Group 6" transform="translate(400.818 219.54)"><path id="Path_18" fill="none" stroke="#2a5082" stroke-linejoin="round" stroke-width="2" d="M407.265,222.4l-1.514-1.514a1.909,1.909,0,0,0-2.7,0l-.164.164a1.909,1.909,0,0,0,0,2.7l1.514,1.514" data-name="Path 18" transform="translate(-401.06 -220.328)"/><path id="Path_19" fill="#fff" stroke="#2a5082" stroke-linejoin="round" stroke-width="2" d="M404,225.818l21.954,21.954,7.636,3.818-3.818-7.636L407.818,222Z" data-name="Path 19" transform="translate(-401.136 -220.404)"/><line id="Line_47" x1="3.818" y2="3.818" fill="#fff" stroke="#2a5082" stroke-linejoin="round" stroke-width="2" data-name="Line 47" transform="translate(24.818 23.55)"/><line id="Line_48" x1="6.682" y2="6.682" fill="none" stroke="#2a5082" stroke-linejoin="round" stroke-width="2" data-name="Line 48" transform="translate(2.864 4.459)"/><line id="Line_49" x2="9.545" y2="9.545" fill="none" stroke="#2a5082" stroke-linejoin="round" stroke-width="2" data-name="Line 49" transform="translate(0 8.277)"/></g></g></svg>