<svg xmlns="http://www.w3.org/2000/svg" width="96.127" height="79.169" viewBox="0 0 96.127 79.169">
  <g id="Group_679" data-name="Group 679" transform="translate(2.535 -3.558)">
    <circle id="Ellipse_3" data-name="Ellipse 3" cx="37.312" cy="37.312" r="37.312" transform="translate(-2.535 3.558)" fill="#e9eaeb"/>
    <path id="Rectangle_1333" data-name="Rectangle 1333" d="M3.011,0H72.647a3.01,3.01,0,0,1,3.01,3.01V50.947a3.01,3.01,0,0,1-3.01,3.01H3.01A3.01,3.01,0,0,1,0,50.947V3.011A3.011,3.011,0,0,1,3.011,0Z" transform="translate(16.833 19.721)" fill="#fff"/>
    <rect id="Rectangle_1334" data-name="Rectangle 1334" width="74.932" height="9.518" transform="translate(17.559 63.298)" fill="#91b9dc"/>
    <path id="Rectangle_1335" data-name="Rectangle 1335" d="M3.011,0H72.647a3.011,3.011,0,0,1,3.011,3.011V50.947a3.01,3.01,0,0,1-3.01,3.01H3.01A3.01,3.01,0,0,1,0,50.947V3.011A3.011,3.011,0,0,1,3.011,0Z" transform="translate(16.935 19.349)" fill="none" stroke="#2a5082" stroke-miterlimit="10" stroke-width="2"/>
    <line id="Line_420" data-name="Line 420" x2="74.932" transform="translate(17.559 62.691)" fill="none" stroke="#2a5082" stroke-miterlimit="10" stroke-width="2"/>
    <line id="Line_421" data-name="Line 421" y2="7.088" transform="translate(50.029 74.032)" fill="none" stroke="#2a5082" stroke-miterlimit="10" stroke-width="2"/>
    <line id="Line_422" data-name="Line 422" y2="7.088" transform="translate(58.906 74.032)" fill="none" stroke="#2a5082" stroke-miterlimit="10" stroke-width="2"/>
    <line id="Line_423" data-name="Line 423" x2="39.289" transform="translate(35.313 81.728)" fill="none" stroke="#2a5082" stroke-linecap="round" stroke-miterlimit="10" stroke-width="2"/>
    <rect id="Rectangle_1336" data-name="Rectangle 1336" width="14.784" height="13.366" transform="translate(68.728 40.616)" stroke-width="2" stroke="#2a5082" stroke-linecap="round" stroke-linejoin="round" fill="none"/>
    <path id="Path_533" data-name="Path 533" d="M63.774,29.4l-6.608,9.975-3.9-5.832-4.075,7.4" transform="translate(19.738 11.214)" fill="none" stroke="#2a5082" stroke-linecap="round" stroke-linejoin="round" stroke-width="2"/>
    <line id="Line_424" data-name="Line 424" x2="15.425" transform="translate(68.053 33.596)" fill="none" stroke="#2a5082" stroke-linecap="round" stroke-miterlimit="10" stroke-width="2"/>
    <line id="Line_425" data-name="Line 425" x2="15.425" transform="translate(68.053 26.913)" fill="none" stroke="#2a5082" stroke-linecap="round" stroke-miterlimit="10" stroke-width="2"/>
    <rect id="Rectangle_1337" data-name="Rectangle 1337" width="5.08" height="27.137" transform="translate(53.497 26.845)" stroke-width="2" stroke="#2a5082" stroke-linecap="round" stroke-linejoin="round" fill="#91b9dc"/>
    <rect id="Rectangle_1338" data-name="Rectangle 1338" width="5.08" height="22.164" transform="translate(40.08 31.819)" stroke-width="2" stroke="#2a5082" stroke-linecap="round" stroke-linejoin="round" fill="#91b9dc"/>
    <rect id="Rectangle_1339" data-name="Rectangle 1339" width="5.08" height="18.012" transform="translate(26.663 35.971)" stroke-width="2" stroke="#2a5082" stroke-linecap="round" stroke-linejoin="round" fill="#91b9dc"/>
  </g>
</svg>
