<svg xmlns="http://www.w3.org/2000/svg" width="70" height="74.397" viewBox="0 0 70 74.397">
  <g id="Group_27" data-name="Group 27" transform="translate(-648 -315)">
    <circle id="Ellipse_8" data-name="Ellipse 8" cx="31.474" cy="31.474" r="31.474" transform="translate(648 315)" fill="#e9eaeb"/>
    <path id="Rectangle_23" data-name="Rectangle 23" d="M0,0H61.737a0,0,0,0,1,0,0V30.236a3.658,3.658,0,0,1-3.658,3.658H3.658A3.658,3.658,0,0,1,0,30.236V0A0,0,0,0,1,0,0Z" transform="translate(655.263 353.737)" fill="#fff"/>
    <path id="Rectangle_24" data-name="Rectangle 24" d="M2.819,0h56.1a2.819,2.819,0,0,1,2.819,2.819v11.8a0,0,0,0,1,0,0H0a0,0,0,0,1,0,0V2.819A2.819,2.819,0,0,1,2.819,0Z" transform="translate(655.263 338.032)" fill="#91b9dc"/>
    <g id="Group_19" data-name="Group 19" transform="translate(655.263 333.158)">
      <line id="Line_62" data-name="Line 62" y2="9.748" transform="translate(50.364)" fill="none" stroke="#2a5082" stroke-miterlimit="10" stroke-width="2"/>
      <line id="Line_63" data-name="Line 63" y2="9.748" transform="translate(40.616)" fill="none" stroke="#2a5082" stroke-miterlimit="10" stroke-width="2"/>
      <line id="Line_64" data-name="Line 64" y2="9.748" transform="translate(30.868)" fill="none" stroke="#2a5082" stroke-miterlimit="10" stroke-width="2"/>
      <line id="Line_65" data-name="Line 65" y2="9.748" transform="translate(21.121)" fill="none" stroke="#2a5082" stroke-miterlimit="10" stroke-width="2"/>
      <line id="Line_66" data-name="Line 66" y2="9.748" transform="translate(11.373)" fill="none" stroke="#2a5082" stroke-miterlimit="10" stroke-width="2"/>
      <line id="Line_67" data-name="Line 67" x1="61.737" transform="translate(0 19.496)" fill="none" stroke="#2a5082" stroke-miterlimit="10" stroke-width="2"/>
    </g>
    <path id="Path_51" data-name="Path 51" d="M712.488,334.026H657.249a3.25,3.25,0,0,0-3.249,3.25v43.865a3.25,3.25,0,0,0,3.249,3.25h55.239a3.25,3.25,0,0,0,3.249-3.25V337.276A3.25,3.25,0,0,0,712.488,334.026Z" transform="translate(1.263 4.005)" fill="none" stroke="#2a5082" stroke-miterlimit="10" stroke-width="2"/>
    <line id="Line_68" data-name="Line 68" x1="3.249" transform="translate(661.762 360.777)" fill="none" stroke="#2a5082" stroke-miterlimit="10" stroke-width="2"/>
    <line id="Line_69" data-name="Line 69" x1="3.632" y1="3.632" transform="translate(669.647 358.917)" fill="none" stroke="#2a5082" stroke-miterlimit="10" stroke-width="1"/>
    <line id="Line_70" data-name="Line 70" x1="3.249" transform="translate(684.507 360.777)" fill="none" stroke="#2a5082" stroke-miterlimit="10" stroke-width="2"/>
    <line id="Line_71" data-name="Line 71" x1="3.249" transform="translate(692.089 360.777)" fill="none" stroke="#2a5082" stroke-miterlimit="10" stroke-width="2"/>
    <line id="Line_72" data-name="Line 72" x1="3.249" transform="translate(699.67 360.777)" fill="none" stroke="#2a5082" stroke-miterlimit="10" stroke-width="2"/>
    <line id="Line_73" data-name="Line 73" x1="3.249" transform="translate(707.252 360.777)" fill="none" stroke="#2a5082" stroke-miterlimit="10" stroke-width="2"/>
    <line id="Line_74" data-name="Line 74" x1="3.249" transform="translate(661.762 367.276)" fill="none" stroke="#2a5082" stroke-miterlimit="10" stroke-width="2"/>
    <line id="Line_75" data-name="Line 75" x1="3.249" transform="translate(669.344 367.276)" fill="none" stroke="#2a5082" stroke-miterlimit="10" stroke-width="2"/>
    <line id="Line_76" data-name="Line 76" x1="3.249" transform="translate(676.925 367.276)" fill="none" stroke="#2a5082" stroke-miterlimit="10" stroke-width="2"/>
    <line id="Line_77" data-name="Line 77" x1="3.249" transform="translate(684.507 367.276)" fill="none" stroke="#2a5082" stroke-miterlimit="10" stroke-width="2"/>
    <line id="Line_78" data-name="Line 78" x1="3.249" transform="translate(692.089 367.276)" fill="none" stroke="#2a5082" stroke-miterlimit="10" stroke-width="2"/>
    <line id="Line_79" data-name="Line 79" x1="3.249" transform="translate(699.67 367.276)" fill="none" stroke="#2a5082" stroke-miterlimit="10" stroke-width="2"/>
    <line id="Line_80" data-name="Line 80" x1="3.249" transform="translate(707.252 367.276)" fill="none" stroke="#2a5082" stroke-miterlimit="10" stroke-width="2"/>
    <line id="Line_81" data-name="Line 81" x1="3.249" transform="translate(661.762 373.774)" fill="none" stroke="#2a5082" stroke-miterlimit="10" stroke-width="2"/>
    <line id="Line_82" data-name="Line 82" x1="3.249" transform="translate(669.344 373.774)" fill="none" stroke="#2a5082" stroke-miterlimit="10" stroke-width="2"/>
    <line id="Line_83" data-name="Line 83" x1="3.249" transform="translate(676.925 373.774)" fill="none" stroke="#2a5082" stroke-miterlimit="10" stroke-width="2"/>
    <line id="Line_84" data-name="Line 84" x1="3.249" transform="translate(692.089 373.774)" fill="none" stroke="#2a5082" stroke-miterlimit="10" stroke-width="2"/>
    <line id="Line_85" data-name="Line 85" x1="3.249" transform="translate(699.67 373.774)" fill="none" stroke="#2a5082" stroke-miterlimit="10" stroke-width="2"/>
    <line id="Line_86" data-name="Line 86" x1="3.249" transform="translate(707.252 373.774)" fill="none" stroke="#2a5082" stroke-miterlimit="10" stroke-width="2"/>
    <line id="Line_87" data-name="Line 87" x1="3.249" transform="translate(661.762 380.273)" fill="none" stroke="#2a5082" stroke-miterlimit="10" stroke-width="2"/>
    <line id="Line_88" data-name="Line 88" x1="3.249" transform="translate(669.344 380.273)" fill="none" stroke="#2a5082" stroke-miterlimit="10" stroke-width="2"/>
    <line id="Line_89" data-name="Line 89" x1="3.249" transform="translate(676.925 380.273)" fill="none" stroke="#2a5082" stroke-miterlimit="10" stroke-width="2"/>
    <line id="Line_90" data-name="Line 90" x1="3.249" transform="translate(684.507 380.273)" fill="none" stroke="#2a5082" stroke-miterlimit="10" stroke-width="2"/>
    <line id="Line_91" data-name="Line 91" x1="3.249" transform="translate(692.089 380.273)" fill="none" stroke="#2a5082" stroke-miterlimit="10" stroke-width="2"/>
    <line id="Line_92" data-name="Line 92" x1="3.249" transform="translate(707.252 380.273)" fill="none" stroke="#2a5082" stroke-miterlimit="10" stroke-width="2"/>
    <line id="Line_93" data-name="Line 93" y1="3.632" x2="3.632" transform="translate(669.647 358.917)" fill="none" stroke="#2a5082" stroke-miterlimit="10" stroke-width="1"/>
    <line id="Line_94" data-name="Line 94" x1="3.632" y1="3.632" transform="translate(676.995 359.029)" fill="none" stroke="#2a5082" stroke-miterlimit="10" stroke-width="1"/>
    <line id="Line_95" data-name="Line 95" y1="3.632" x2="3.632" transform="translate(676.995 359.029)" fill="none" stroke="#2a5082" stroke-miterlimit="10" stroke-width="1"/>
    <line id="Line_96" data-name="Line 96" x1="3.632" y1="3.632" transform="translate(684.145 371.923)" fill="none" stroke="#2a5082" stroke-miterlimit="10" stroke-width="1"/>
    <line id="Line_97" data-name="Line 97" y1="3.632" x2="3.632" transform="translate(684.145 371.923)" fill="none" stroke="#2a5082" stroke-miterlimit="10" stroke-width="1"/>
    <line id="Line_98" data-name="Line 98" x1="3.632" y1="3.632" transform="translate(699.46 378.567)" fill="none" stroke="#2a5082" stroke-miterlimit="10" stroke-width="1"/>
    <line id="Line_99" data-name="Line 99" y1="3.632" x2="3.632" transform="translate(699.46 378.567)" fill="none" stroke="#2a5082" stroke-miterlimit="10" stroke-width="1"/>
  </g>
</svg>
