<svg xmlns="http://www.w3.org/2000/svg" width="66.473" height="56.366" viewBox="0 0 66.473 56.366">
  <g id="Group_752" data-name="Group 752" transform="translate(-751.177 -331.261)">
    <g id="Group_7" data-name="Group 7">
      <g id="Ellipse_3" data-name="Ellipse 3">
        <circle id="Ellipse_287" data-name="Ellipse 287" cx="22.909" cy="22.909" r="22.909" transform="translate(751.177 331.261)" fill="#e9eaeb"/>
      </g>
      <g id="Rectangle_19" data-name="Rectangle 19">
        <rect id="Rectangle_1461" data-name="Rectangle 1461" width="40.09" height="47.727" rx="2" transform="translate(769.313 338.897)" fill="#91b9dc"/>
      </g>
      <g id="Rectangle_20" data-name="Rectangle 20">
        <rect id="Rectangle_1462" data-name="Rectangle 1462" width="32.454" height="40.09" transform="translate(773.131 342.715)" fill="#fff"/>
      </g>
      <g id="Line_44" data-name="Line 44">
        <rect id="Rectangle_1463" data-name="Rectangle 1463" width="13.363" height="2" transform="translate(786.495 352.215)" fill="#2a5082"/>
      </g>
      <g id="Line_45" data-name="Line 45">
        <rect id="Rectangle_1464" data-name="Rectangle 1464" width="9.278" height="2" transform="translate(786.495 357.942)" fill="#2a5082"/>
      </g>
      <g id="Path_14" data-name="Path 14">
        <path id="Path_601" data-name="Path 601" d="M782.559,356.123h-1.251l-2.2-2.2,1.414-1.414,1.017,1.016,1.183-2.628,1.824.82Z" fill="#2a5082"/>
      </g>
      <g id="Path_15" data-name="Path 15">
        <path id="Path_602" data-name="Path 602" d="M782.559,361.851h-1.251l-2.2-2.2,1.414-1.414,1.017,1.016,1.183-2.628,1.824.82Z" fill="#2a5082"/>
      </g>
    </g>
    <path id="Path_603" data-name="Path 603" d="M804.585,358.146v23.659H774.132v-38.09h30.453v10.71h2v-12.71H772.132v42.09h34.453V358.146Z" fill="#2a5082"/>
    <path id="Path_604" data-name="Path 604" d="M808.4,358.146v26.568a.908.908,0,0,1-.909.908H771.222a.91.91,0,0,1-.909-.908V340.806a.91.91,0,0,1,.909-.909h36.272a.91.91,0,0,1,.909.909v13.619h2V340.806a2.912,2.912,0,0,0-2.909-2.909H771.222a2.912,2.912,0,0,0-2.909,2.909v43.909a2.913,2.913,0,0,0,2.909,2.907H807.5a2.907,2.907,0,0,0,2.907-2.909V358.146Z" fill="#2a5082"/>
    <g id="Group_5" data-name="Group 5">
      <g id="Path_17" data-name="Path 17">
        <path id="Path_605" data-name="Path 605" d="M796.715,338.036H792.9v-.79a3.927,3.927,0,0,0-3.443-3.964,3.818,3.818,0,0,0-4.174,3.424,3.627,3.627,0,0,0-.019.376v.955h-3.818a2.863,2.863,0,0,0-2.864,2.862h0v3.818h21V340.9a2.863,2.863,0,0,0-2.863-2.863Z" fill="#fff"/>
        <path id="Path_606" data-name="Path 606" d="M800.579,345.717h-23V340.9a3.868,3.868,0,0,1,3.862-3.862h2.82c0-.142.01-.284.023-.424a4.816,4.816,0,0,1,5.269-4.326,4.925,4.925,0,0,1,4.343,4.749h2.819a3.868,3.868,0,0,1,3.864,3.863Zm-21-2h19V340.9a1.865,1.865,0,0,0-1.863-1.863H791.9v-1.79a2.928,2.928,0,0,0-2.567-2.972,2.821,2.821,0,0,0-3.057,2.531c-.008.088-.013.183-.013.277v1.955h-4.819a1.865,1.865,0,0,0-1.863,1.863Z" fill="#2a5082"/>
      </g>
      <g id="Line_46" data-name="Line 46">
        <rect id="Rectangle_1465" data-name="Rectangle 1465" width="2" height="1.909" transform="translate(788.079 336.126)" fill="#2a5082"/>
      </g>
    </g>
    <g id="Group_751" data-name="Group 751">
      <path id="Path_607" data-name="Path 607" d="M815.8,374.182a1.674,1.674,0,0,1-1.672,1.671,1.605,1.605,0,0,1-.351-.05.924.924,0,0,0-1.131.9v9.081h-4.481v-8.116a.924.924,0,0,0-1.848,0v8.116h-4.37v-8.332c0-.03-.012-.106-.017-.135v-.633a.923.923,0,0,0-1.165-.892,1.578,1.578,0,0,1-.407.06,1.674,1.674,0,0,1-1.673-1.671.88.88,0,0,0-.046-.229l6.66-5.274a.924.924,0,0,0,.15-1.3l-3.214-4.057a.925.925,0,0,0-1.3-.15l-2.252,1.784v-3.583a1.683,1.683,0,0,1,1.43-1.671l10.6,0,3.569,0a1.688,1.688,0,0,1,1.514,1.673Z" fill="#fff"/>
      <g id="Group_750" data-name="Group 750">
        <path id="Path_608" data-name="Path 608" d="M814.374,357.852l-10.575,0-3.77,0a3.556,3.556,0,0,0-3.191,3.515v5.046l-7.9,6.26-4.278-5.114a.922.922,0,0,0-1.3-.116l-3.969,3.32a.924.924,0,0,0-.116,1.3l8.088,9.668a.923.923,0,0,0,1.282.131l8.374-6.633a3.517,3.517,0,0,0,3.085,2.452v8.093h-.026v1.849h13.487a.924.924,0,0,0,.924-.925.786.786,0,0,0-.02-.1.8.8,0,0,0,.03-.145v-8.785a3.524,3.524,0,0,0,3.154-3.5V361.369A3.565,3.565,0,0,0,814.374,357.852ZM788.2,379.859l-6.918-8.269,2.552-2.134,4.262,5.094a.922.922,0,0,0,1.282.131l11.983-9.491,2.066,2.608Zm27.6-5.683a1.674,1.674,0,0,1-1.672,1.671,1.589,1.589,0,0,1-.35-.05.924.924,0,0,0-1.132.9v9.08h-4.48v-8.115a.925.925,0,0,0-1.849,0v8.115h-4.37v-8.331c0-.03-.012-.106-.017-.136v-.632a.923.923,0,0,0-1.165-.892,1.578,1.578,0,0,1-.407.06,1.674,1.674,0,0,1-1.673-1.671.872.872,0,0,0-.046-.229l6.66-5.275a.922.922,0,0,0,.344-.617.932.932,0,0,0-.193-.681l-3.215-4.056a.924.924,0,0,0-1.3-.15l-2.252,1.784v-3.583a1.683,1.683,0,0,1,1.43-1.671l10.6,0,3.568,0a1.688,1.688,0,0,1,1.514,1.673Z" fill="#2a5082"/>
      </g>
      <path id="Path_609" data-name="Path 609" d="M788.2,379.861l-6.917-8.27,2.552-2.134,4.262,5.1a.924.924,0,0,0,1.282.131l11.982-9.491,2.067,2.607Z" fill="#91b9dc"/>
    </g>
    <circle id="Ellipse_288" data-name="Ellipse 288" cx="5.907" cy="5.907" r="5.907" transform="translate(801.634 345.332)" fill="#2a5082"/>
    <circle id="Ellipse_289" data-name="Ellipse 289" cx="4.047" cy="4.047" r="4.047" transform="translate(803.494 347.193)" fill="#fff"/>
  </g>
</svg>
