<?xml version="1.0" encoding="utf-8"?>
<!-- Generator: Adobe Illustrator 23.0.3, SVG Export Plug-In . SVG Version: 6.00 Build 0)  -->
<svg version="1.1" id="Layer_1" xmlns="http://www.w3.org/2000/svg" xmlns:xlink="http://www.w3.org/1999/xlink" x="0px" y="0px"
	 viewBox="0 0 72.5 60" style="enable-background:new 0 0 72.5 60;" xml:space="preserve">
<style type="text/css">
	.st0{fill:#E9EAEB;}
	.st1{fill:#FFFFFF;}
	.st2{fill:#91B9DC;}
	.st3{fill:#2A5082;}
</style>
<g id="Group_23_1_" transform="translate(-70 -203)">
	<g id="Ellipse_12_1_">
		<ellipse class="st0" cx="96.3" cy="233.3" rx="25.5" ry="25.2"/>
	</g>
</g>
<g>
	<path class="st1" d="M37.9,35l-9.6-3l0-1.9c2.3-2.2,4-6.2,4-9.1c0-4.3-3.3-7.8-7.3-7.8c-4,0-7.3,3.5-7.3,7.8c0,2.9,1.8,6.9,4.1,9.1
		l0,2.1l-10.1,2.9c-0.5,0.1-0.8,0.6-0.8,1.2v5.6c0,0.7,0.5,1.2,1.2,1.2h25.5c0.6,0,1.2-0.6,1.2-1.2v-5.6
		C38.8,35.7,38.4,35.2,37.9,35z"/>
</g>
<g>
	<circle class="st2" cx="59.2" cy="7.8" r="4.5"/>
</g>
<g>
	<circle class="st2" cx="59.2" cy="29.4" r="4.5"/>
</g>
<g>
	<circle class="st2" cx="59.2" cy="51.1" r="4.5"/>
</g>
<g>
	<g>
		<path class="st3" d="M48.5,30.2h4.9c0.5,2.7,2.9,4.8,5.7,4.8c3.2,0,5.8-2.6,5.8-5.8c0-3.2-2.6-5.8-5.8-5.8c-2.9,0-5.3,2.1-5.7,4.8
			h-4.9V8.7h4.9c0.5,2.7,2.9,4.8,5.7,4.8c3.2,0,5.8-2.6,5.8-5.8s-2.6-5.8-5.8-5.8c-2.9,0-5.3,2.1-5.7,4.8h-5.9c-0.6,0-1,0.4-1,1
			c0,0.1,0,0.2,0.1,0.3c0,0.1-0.1,0.2-0.1,0.3v20H36.2c-0.6,0-1,0.4-1,1s0.4,1,1,1h10.4v20.6c0,0.6,0.4,1,1,1h5.9
			c0.5,2.7,2.9,4.8,5.7,4.8c3.2,0,5.8-2.6,5.8-5.8S62.3,45,59.1,45c-2.9,0-5.3,2.1-5.7,4.8h-4.9V30.2z M59.1,25.4
			c2.1,0,3.8,1.7,3.8,3.8s-1.7,3.8-3.8,3.8c-2.1,0-3.8-1.7-3.8-3.8S57,25.4,59.1,25.4z M59.1,3.9c2.1,0,3.8,1.7,3.8,3.8
			c0,2.1-1.7,3.8-3.8,3.8c-2.1,0-3.8-1.7-3.8-3.8C55.3,5.6,57,3.9,59.1,3.9z M59.1,47c2.1,0,3.8,1.7,3.8,3.8s-1.7,3.8-3.8,3.8
			c-2.1,0-3.8-1.7-3.8-3.8S57,47,59.1,47z"/>
	</g>
</g>
<g>
	<g>
		<g>
			<path class="st3" d="M25.1,31.5c-4.6,0-8.1-6.8-8.1-11.2c0-4.5,3.6-8.1,8.1-8.1s8.1,3.6,8.1,8.1C33.2,24.7,29.7,31.5,25.1,31.5z
				 M25.1,14.2c-3.4,0-6.1,2.8-6.1,6.1c0,3.5,2.9,9.2,6.1,9.2s6.1-5.7,6.1-9.2C31.2,16.9,28.5,14.2,25.1,14.2z"/>
		</g>
		<g>
			<path class="st3" d="M39.8,43.8H9.9c-0.6,0-1-0.4-1-1v-6.6c0-0.5,0.3-0.8,0.7-1L21.3,32l0-2.6c0-0.6,0.4-1,1-1c0,0,0,0,0,0
				c0.6,0,1,0.4,1,1l0,3.3c0,0.5-0.3,0.8-0.7,1L10.9,37v4.8h27.8v-4.9l-11.2-3.3c-0.4-0.1-0.7-0.5-0.7-1l0-3.1c0-0.6,0.4-1,1-1
				c0,0,0,0,0,0c0.5,0,1,0.4,1,1l0,2.4l11.3,3.3c0.4,0.1,0.7,0.5,0.7,1v6.6C40.8,43.4,40.3,43.8,39.8,43.8z"/>
		</g>
	</g>
</g>
</svg>
