<svg xmlns="http://www.w3.org/2000/svg" width="89.699" height="89.699" viewBox="0 0 89.699 89.699"><g id="Group_83" data-name="Group 83" transform="translate(66.925 679.25)"><circle id="Ellipse_39" cx="31.714" cy="31.714" r="31.714" fill="#e3e4e5" data-name="Ellipse 39" transform="matrix(0.705, -0.709, 0.709, 0.705, -66.925, -634.256)"/><g id="Group_79" data-name="Group 79" transform="translate(-38.918 -651.626)"><g id="Group_78" data-name="Group 78"><g id="Group_77" data-name="Group 77"><path id="Path_141" fill="#fff" d="M6.788-630.267-4.588-618.891a20.918,20.918,0,0,1-29.549,0l-.414-.416a20.916,20.916,0,0,1,0-29.55l11.374-11.376,9.393,9.393-11.377,11.376a7.624,7.624,0,0,0,0,10.764l.417.416a7.618,7.618,0,0,0,10.764,0L-2.6-639.659Z" data-name="Path 141" transform="translate(40.663 660.232)"/></g></g></g><rect id="Rectangle_147" width="11.264" height="12.865" fill="#7bacd4" data-name="Rectangle 147" transform="translate(-20.922 -651.664) rotate(-45)"/><rect id="Rectangle_148" width="11.853" height="13.243" fill="#7bacd4" data-name="Rectangle 148" transform="translate(-0.759 -630.77) rotate(-45)"/><g id="Group_82" data-name="Group 82" transform="translate(-38.393 -660.162)"><g id="Group_81" data-name="Group 81" transform="translate(0 0.126)"><g id="Group_80" data-name="Group 80"><path id="Path_142" fill="none" stroke="#114071" stroke-linecap="round" stroke-linejoin="round" stroke-width="2" d="M15.112-636.235-4.216-616.907a20.919,20.919,0,0,1-29.549,0l-.414-.416a20.916,20.916,0,0,1,0-29.55L-14.853-666.2l9.394,9.393L-24.79-637.48a7.624,7.624,0,0,0,0,10.766l.416.416a7.619,7.619,0,0,0,10.764,0L5.721-645.628Z" data-name="Path 142" transform="translate(40.291 666.199)"/></g><line id="Line_197" x2="8.617" y2="8.618" fill="none" stroke="#114071" stroke-linejoin="round" stroke-width="2" data-name="Line 197" transform="translate(17.684 9.12)"/><line id="Line_198" x2="8.959" y2="8.96" fill="none" stroke="#114071" stroke-linejoin="round" stroke-width="2" data-name="Line 198" transform="translate(37.892 29.327)"/></g><path id="Path_143" fill="none" stroke="#114071" stroke-linecap="round" stroke-miterlimit="10" stroke-width="2" d="M5.072-666.288l-7.107,11.569-2.53-6.694L-12.2-650.189" data-name="Path 143" transform="translate(51.792 666.288)"/></g></g></svg>