<svg xmlns="http://www.w3.org/2000/svg" width="72" height="68.871" viewBox="0 0 72 68.871"><g id="Group_23" data-name="Group 23" transform="translate(-70 -203)"><circle id="Ellipse_12" cx="29.919" cy="29.919" r="29.919" fill="#e9eaeb" data-name="Ellipse 12" transform="translate(71 203)"/><line id="Line_106" y2="14.677" fill="none" stroke="#2a5082" stroke-miterlimit="10" stroke-width="2" data-name="Line 106" transform="translate(129.71 256.065)"/><line id="Line_107" y1="14.677" fill="none" stroke="#2a5082" stroke-miterlimit="10" stroke-width="2" data-name="Line 107" transform="translate(106 256.065)"/><rect id="Rectangle_27" width="44.032" height="36.129" fill="#fff" data-name="Rectangle 27" transform="translate(94.71 216.548)"/><path id="Path_54" fill="none" stroke="#2a5082" stroke-miterlimit="10" stroke-width="2" d="M92,229.677V215h44.032v36.129H92V242.1" data-name="Path 54" transform="translate(2.71 1.548)"/><path id="Path_55" fill="#fff" stroke="#2a5082" stroke-miterlimit="10" stroke-width="2" d="M82.081,229.174a5.137,5.137,0,0,0,5.081-5.316v-1.773a5.086,5.086,0,1,0-10.161,0v1.773A5.137,5.137,0,0,0,82.081,229.174Z" data-name="Path 55" transform="translate(0.774 1.777)"/><path id="Path_56" fill="#91b9dc" stroke="#2a5082" stroke-miterlimit="10" stroke-width="2" d="M106,231H80.032C74.672,231,71,232.707,71,237.774v10.161a4.612,4.612,0,0,0,4.516,4.516H90.194V236.645h10.161A5.852,5.852,0,0,0,106,231Z" data-name="Path 56" transform="translate(0 3.613)"/><rect id="Rectangle_28" width="13.548" height="30.484" fill="#91b9dc" data-name="Rectangle 28" transform="translate(76.645 241.387)"/><line id="Line_108" y2="30.484" fill="none" stroke="#2a5082" stroke-miterlimit="10" stroke-width="2" data-name="Line 108" transform="translate(90.194 241.387)"/><line id="Line_109" y2="18.065" fill="none" stroke="#2a5082" stroke-miterlimit="10" stroke-width="2" data-name="Line 109" transform="translate(83.419 253.806)"/><line id="Line_110" y2="30.484" fill="none" stroke="#2a5082" stroke-miterlimit="10" stroke-width="2" data-name="Line 110" transform="translate(76.645 241.387)"/><path id="Path_57" fill="none" stroke="#2a5082" stroke-miterlimit="10" stroke-width="2" d="M96,244.452h7.9l3.387-4.516h6.774l6.774-11.29h4.516L128.742,223H131" data-name="Path 57" transform="translate(3.226 2.581)"/><rect id="Rectangle_29" width="48.548" height="7.903" fill="#e9eaeb" stroke="#2a5082" stroke-miterlimit="10" stroke-width="2" data-name="Rectangle 29" transform="translate(92.452 210.903)"/></g></svg>