<svg xmlns="http://www.w3.org/2000/svg" width="94" height="85.842" viewBox="0 0 94 85.842">
  <g id="Group_395" data-name="Group 395" transform="translate(-856 -318)">
    <circle id="Ellipse_110" data-name="Ellipse 110" cx="39.974" cy="39.974" r="39.974" transform="translate(856 318)" fill="#e9eaeb"/>
    <rect id="Rectangle_1155" data-name="Rectangle 1155" width="9.789" height="62" transform="translate(872.316 332.684)" fill="#fff"/>
    <rect id="Rectangle_1156" data-name="Rectangle 1156" width="57.105" height="68.526" transform="translate(891.895 331.053)" fill="#fff" stroke="#2a5082" stroke-linejoin="round" stroke-width="2"/>
    <rect id="Rectangle_1157" data-name="Rectangle 1157" width="44.053" height="55.474" transform="translate(898.421 337.579)" fill="#fff"/>
    <rect id="Rectangle_1158" data-name="Rectangle 1158" width="44.053" height="55.474" transform="translate(898.421 337.579)" fill="none" stroke="#2a5082" stroke-miterlimit="10" stroke-width="2"/>
    <line id="Line_337" data-name="Line 337" x2="44.053" transform="translate(898.421 353.895)" fill="none" stroke="#2a5082" stroke-miterlimit="10" stroke-width="2"/>
    <line id="Line_338" data-name="Line 338" x2="44.053" transform="translate(898.421 366.947)" fill="none" stroke="#2a5082" stroke-miterlimit="10" stroke-width="2"/>
    <line id="Line_339" data-name="Line 339" x2="29.368" transform="translate(898.421 380)" fill="none" stroke="#2a5082" stroke-miterlimit="10" stroke-width="2"/>
    <line id="Line_340" data-name="Line 340" y1="39.158" transform="translate(913.105 353.895)" fill="none" stroke="#2a5082" stroke-miterlimit="10" stroke-width="2"/>
    <line id="Line_341" data-name="Line 341" y1="39.158" transform="translate(927.789 353.895)" fill="none" stroke="#2a5082" stroke-miterlimit="10" stroke-width="2"/>
    <rect id="Rectangle_1159" data-name="Rectangle 1159" width="44.053" height="16.316" transform="translate(898.421 337.579)" fill="#91b9dc" stroke="#2a5082" stroke-miterlimit="10" stroke-width="2"/>
    <path id="Path_469" data-name="Path 469" d="M875.79,329.789v70.158a1.632,1.632,0,0,1-1.632,1.632h-6.526A1.632,1.632,0,0,1,866,399.947V329.789L870.895,320Z" transform="translate(6.316 1.263)" fill="none" stroke="#2a5082" stroke-miterlimit="10" stroke-width="2"/>
    <line id="Line_342" data-name="Line 342" x2="9.789" transform="translate(872.316 332.684)" fill="none" stroke="#2a5082" stroke-miterlimit="10" stroke-width="2"/>
    <line id="Line_343" data-name="Line 343" x1="9.789" transform="translate(872.316 394.684)" fill="none" stroke="#2a5082" stroke-miterlimit="10" stroke-width="2"/>
  </g>
</svg>
