<svg xmlns="http://www.w3.org/2000/svg" width="94" height="85.842" viewBox="0 0 94 85.842"><g id="Group_395" data-name="Group 395" transform="translate(-856 -318)"><circle id="Ellipse_110" cx="39.974" cy="39.974" r="39.974" fill="#e9eaeb" data-name="Ellipse 110" transform="translate(856 318)"/><rect id="Rectangle_1155" width="9.789" height="62" fill="#fff" data-name="Rectangle 1155" transform="translate(872.316 332.684)"/><rect id="Rectangle_1156" width="57.105" height="68.526" fill="#fff" stroke="#2a5082" stroke-linejoin="round" stroke-width="2" data-name="Rectangle 1156" transform="translate(891.895 331.053)"/><rect id="Rectangle_1157" width="44.053" height="55.474" fill="#fff" data-name="Rectangle 1157" transform="translate(898.421 337.579)"/><rect id="Rectangle_1158" width="44.053" height="55.474" fill="none" stroke="#2a5082" stroke-miterlimit="10" stroke-width="2" data-name="Rectangle 1158" transform="translate(898.421 337.579)"/><line id="Line_337" x2="44.053" fill="none" stroke="#2a5082" stroke-miterlimit="10" stroke-width="2" data-name="Line 337" transform="translate(898.421 353.895)"/><line id="Line_338" x2="44.053" fill="none" stroke="#2a5082" stroke-miterlimit="10" stroke-width="2" data-name="Line 338" transform="translate(898.421 366.947)"/><line id="Line_339" x2="29.368" fill="none" stroke="#2a5082" stroke-miterlimit="10" stroke-width="2" data-name="Line 339" transform="translate(898.421 380)"/><line id="Line_340" y1="39.158" fill="none" stroke="#2a5082" stroke-miterlimit="10" stroke-width="2" data-name="Line 340" transform="translate(913.105 353.895)"/><line id="Line_341" y1="39.158" fill="none" stroke="#2a5082" stroke-miterlimit="10" stroke-width="2" data-name="Line 341" transform="translate(927.789 353.895)"/><rect id="Rectangle_1159" width="44.053" height="16.316" fill="#91b9dc" stroke="#2a5082" stroke-miterlimit="10" stroke-width="2" data-name="Rectangle 1159" transform="translate(898.421 337.579)"/><path id="Path_469" fill="none" stroke="#2a5082" stroke-miterlimit="10" stroke-width="2" d="M875.79,329.789v70.158a1.632,1.632,0,0,1-1.632,1.632h-6.526A1.632,1.632,0,0,1,866,399.947V329.789L870.895,320Z" data-name="Path 469" transform="translate(6.316 1.263)"/><line id="Line_342" x2="9.789" fill="none" stroke="#2a5082" stroke-miterlimit="10" stroke-width="2" data-name="Line 342" transform="translate(872.316 332.684)"/><line id="Line_343" x1="9.789" fill="none" stroke="#2a5082" stroke-miterlimit="10" stroke-width="2" data-name="Line 343" transform="translate(872.316 394.684)"/></g></svg>