<svg xmlns="http://www.w3.org/2000/svg" xmlns:xlink="http://www.w3.org/1999/xlink" id="Layer_1" x="0" y="0" enable-background="new 0 0 77.7 70.8" version="1.1" viewBox="0 0 77.7 70.8" xml:space="preserve"><style type="text/css">.st0{fill:#e9eaeb}.st1{fill:#fff}.st2{fill:#91b9dc}.st3{fill:#2a5082}</style><g id="Group_23_1_"><g id="Ellipse_12_1_"><g id="Group_676"><ellipse id="Ellipse_234" cx="26.3" cy="26.7" class="st0" rx="25.5" ry="25.2"/></g></g></g><circle cx="43.8" cy="37.2" r="27.1" class="st1"/><g id="Group_700" transform="translate(-0.674 -0.053)"><g id="Group_678"><g id="Group_677"><path id="Path_552" d="M57.4,42.5l-9.6-3l0-1.9c2.4-2.4,3.8-5.7,4-9.1c0-4.3-3.3-7.8-7.3-7.8s-7.3,3.5-7.3,7.8 c0.3,3.4,1.7,6.6,4.1,9.1v2.1l-10.1,2.9c-0.5,0.2-0.9,0.7-0.9,1.2v5.6c0,0.7,0.5,1.2,1.1,1.2c0,0,0,0,0,0h25.5 c0.7,0,1.2-0.6,1.2-1.2c0,0,0,0,0,0v-5.6C58.3,43.2,57.9,42.7,57.4,42.5z" class="st1"/></g></g><g id="Group_680"><g id="Group_679"><circle id="Ellipse_235" cx="71.8" cy="36.5" r="4.5" class="st2"/></g></g><g id="Group_682"><g id="Group_681"><circle id="Ellipse_236" cx="44.6" cy="63.9" r="4.5" class="st2"/></g></g><g id="Group_684"><g id="Group_683"><circle id="Ellipse_237" cx="44.7" cy="9.2" r="4.5" class="st2"/></g></g><g id="Group_686"><g id="Group_685"><circle id="Ellipse_238" cx="17" cy="36.4" r="4.5" class="st2"/></g></g><g id="Group_699"><g id="Group_689"><g id="Group_687"><path id="Path_553" d="M44.6,39c-4.6,0-8.1-6.8-8.1-11.2c0-4.5,3.6-8.1,8.1-8.1c4.5,0,8.1,3.6,8.1,8.1 C52.7,32.2,49.2,39,44.6,39z M44.6,21.6c-3.4,0-6.1,2.7-6.1,6.1c0,3.5,2.9,9.2,6.1,9.2s6.1-5.7,6.1-9.2 C50.7,24.4,48,21.6,44.6,21.6L44.6,21.6z" class="st3"/></g><g id="Group_688"><path id="Path_554" d="M59.3,51.3H29.4c-0.6,0-1-0.4-1-1v-6.6c0-0.5,0.3-0.8,0.7-1l11.7-3.2l0-2.6c0-0.6,0.4-1,1-1 l0,0c0.6,0,1,0.4,1,1l0,3.3c0,0.5-0.3,0.8-0.7,1l-11.7,3.2v4.8h27.8v-4.9L47,41.1c-0.4-0.1-0.7-0.5-0.7-1l0-3.1c0-0.6,0.4-1,1-1 c0,0,0,0,0,0h0c0.5,0,1,0.4,1,1l0,2.4l11.3,3.3c0.4,0.1,0.7,0.5,0.7,1v6.6C60.3,50.8,59.8,51.3,59.3,51.3z" class="st3"/></g></g><g id="Group_698"><g id="Group_690"><path id="Path_555" d="M71.2,31.9c-0.5,0-0.9-0.3-1-0.8c-2.1-10.3-10.1-18.4-20.4-20.5c-0.5-0.1-0.9-0.6-0.8-1.2 c0.1-0.5,0.6-0.9,1.2-0.8c11.1,2.3,19.7,11,22,22.1c0.1,0.5-0.2,1.1-0.8,1.2C71.3,31.9,71.3,31.9,71.2,31.9z" class="st3"/></g><g id="Group_691"><path id="Path_556" d="M17.5,32.1c-0.1,0-0.1,0-0.2,0c-0.5-0.1-0.9-0.6-0.8-1.2c0,0,0,0,0,0 C18.7,19.5,27.6,10.7,39,8.6c0.5-0.1,1.1,0.3,1.2,0.8c0.1,0.5-0.3,1.1-0.8,1.2c-10.5,2-18.8,10.2-20.9,20.7 C18.4,31.7,18,32.1,17.5,32.1z" class="st3"/></g><g id="Group_692"><path id="Path_557" d="M39.2,64.4c-0.1,0-0.1,0-0.2,0c-11.3-2.1-20.2-11-22.5-22.3c-0.1-0.5,0.2-1.1,0.8-1.2 c0.5-0.1,1.1,0.2,1.2,0.8c2.2,10.5,10.4,18.6,20.9,20.7c0.5,0.1,0.9,0.6,0.8,1.2C40.1,64,39.6,64.4,39.2,64.4L39.2,64.4z" class="st3"/></g><g id="Group_693"><path id="Path_558" d="M50,64.3c-0.6,0-1-0.5-1-1c0-0.5,0.3-0.9,0.8-1C60.1,60.1,68.2,52,70.2,41.7 c0.1-0.5,0.6-0.9,1.2-0.8c0.5,0.1,0.9,0.6,0.8,1.2c-2.2,11.1-10.9,19.9-22,22.2C50.1,64.3,50,64.3,50,64.3z" class="st3"/></g><g id="Group_694"><path id="Path_559" d="M71.8,42.9c-3.6,0-6.4-2.9-6.4-6.4c0-3.6,2.9-6.4,6.4-6.4s6.4,2.9,6.4,6.4 C78.2,40,75.3,42.9,71.8,42.9z M71.8,32c-2.4,0-4.4,2-4.4,4.4c0,2.4,2,4.4,4.4,4.4s4.4-2,4.4-4.4C76.2,34,74.2,32,71.8,32 L71.8,32z" class="st3"/></g><g id="Group_695"><path id="Path_560" d="M17,42.9c-3.6,0-6.4-2.9-6.4-6.4S13.4,30,17,30s6.4,2.9,6.4,6.4C23.4,40,20.5,42.9,17,42.9z M17,32c-2.4,0-4.4,2-4.4,4.4c0,2.4,2,4.4,4.4,4.4s4.4-2,4.4-4.4l0,0C21.4,34,19.4,32,17,32L17,32z" class="st3"/></g><g id="Group_696"><path id="Path_561" d="M44.6,15.5c-3.6,0-6.4-2.9-6.4-6.4c0-3.6,2.9-6.4,6.4-6.4c3.6,0,6.4,2.9,6.4,6.4 C51,12.6,48.1,15.5,44.6,15.5z M44.6,4.6c-2.4,0-4.4,2-4.4,4.4s2,4.4,4.4,4.4c2.4,0,4.4-2,4.4-4.4C49,6.6,47,4.6,44.6,4.6z" class="st3"/></g><g id="Group_697"><path id="Path_562" d="M44.6,70.3c-3.6,0-6.4-2.9-6.4-6.4c0-3.6,2.9-6.4,6.4-6.4c3.6,0,6.4,2.9,6.4,6.4 C51,67.4,48.1,70.3,44.6,70.3z M44.6,59.4c-2.4,0-4.4,2-4.4,4.4c0,2.4,2,4.4,4.4,4.4s4.4-2,4.4-4.4C49,61.4,47,59.4,44.6,59.4 L44.6,59.4z" class="st3"/></g></g></g></g></svg>