<svg xmlns="http://www.w3.org/2000/svg" width="74.316" height="75.003" viewBox="0 0 74.316 75.003"><g id="Group_215" data-name="Group 215" transform="translate(-74.293 -197)"><circle id="Ellipse_109" cx="27.73" cy="27.73" r="27.73" fill="#e9eaeb" data-name="Ellipse 109" transform="translate(93.149 197)"/><g id="Group_211" data-name="Group 211" transform="translate(87.443 216.705)"><path id="Path_345" fill="#fff" d="M88.262,215H114.28l9.05,9.05v35.067a2.262,2.262,0,0,1-2.262,2.262h-32.8A2.262,2.262,0,0,1,86,259.116V217.262A2.262,2.262,0,0,1,88.262,215Z" data-name="Path 345" transform="translate(-86 -215)"/><path id="Path_346" fill="#a3d4ff" d="M110,215v10.181h10.181Z" data-name="Path 346" transform="translate(-82.851 -215)"/><path id="Path_347" fill="none" stroke="#2a5082" stroke-miterlimit="10" stroke-width="2" d="M86,217.262A2.262,2.262,0,0,1,88.262,215H114.28l9.05,9.05v35.067a2.262,2.262,0,0,1-2.262,2.262h-32.8A2.262,2.262,0,0,1,86,259.116Z" data-name="Path 347" transform="translate(-86 -215)"/><path id="Path_348" fill="none" stroke="#2a5082" stroke-miterlimit="10" stroke-width="2" d="M116.787,224.787H110V218" data-name="Path 348" transform="translate(-82.851 -214.606)"/></g><path id="Path_349" fill="none" stroke="#2a5082" stroke-miterlimit="10" stroke-width="2" d="M131.05,232l-4.525,4.525L122,232" data-name="Path 349" transform="translate(6.166 3.936)"/><g id="Group_212" data-name="Group 212" transform="translate(132.691 243.854)"><line id="Line_246" y2="2.262" fill="none" stroke="#2a5082" stroke-miterlimit="10" stroke-width="2" data-name="Line 246"/><line id="Line_247" y2="2.262" fill="none" stroke="#2a5082" stroke-miterlimit="10" stroke-width="2" data-name="Line 247" transform="translate(0 4.525)"/></g><path id="Path_350" fill="none" stroke="#2a5082" stroke-miterlimit="10" stroke-width="2" d="M128.23,247v12.443a5.657,5.657,0,0,1-5.656,5.656H109" data-name="Path 350" transform="translate(4.46 5.904)"/><path id="Path_351" fill="none" stroke="#2a5082" stroke-miterlimit="10" stroke-width="2" d="M84.05,242.525,79.525,238,75,242.525" data-name="Path 351" transform="translate(0 4.723)"/><path id="Path_352" fill="none" stroke="#2a5082" stroke-miterlimit="10" stroke-width="2" d="M97.1,266.28H84.656A5.657,5.657,0,0,1,79,260.624V238" data-name="Path 352" transform="translate(0.525 4.723)"/><g id="Group_213" data-name="Group 213" transform="translate(79.525 232.542)"><line id="Line_248" y1="2.262" fill="none" stroke="#2a5082" stroke-miterlimit="10" stroke-width="2" data-name="Line 248" transform="translate(0 4.525)"/><line id="Line_249" y1="2.262" fill="none" stroke="#2a5082" stroke-miterlimit="10" stroke-width="2" data-name="Line 249"/></g><path id="Path_353" fill="none" stroke="#2a5082" stroke-miterlimit="10" stroke-width="2" d="M109,208h13.574a5.657,5.657,0,0,1,5.656,5.656v26.017" data-name="Path 353" transform="translate(4.46 0.787)"/><path id="Path_354" fill="none" stroke="#2a5082" stroke-miterlimit="10" stroke-width="2" d="M79,229.493V213.656A5.657,5.657,0,0,1,84.656,208H97.1" data-name="Path 354" transform="translate(0.525 0.787)"/><g id="Group_214" data-name="Group 214" transform="translate(99.886 208.787)"><line id="Line_250" x2="2.262" fill="none" stroke="#2a5082" stroke-miterlimit="10" stroke-width="2" data-name="Line 250" transform="translate(4.525)"/><line id="Line_251" x2="2.262" fill="none" stroke="#2a5082" stroke-miterlimit="10" stroke-width="2" data-name="Line 251"/><line id="Line_252" x2="2.262" fill="none" stroke="#2a5082" stroke-miterlimit="10" stroke-width="2" data-name="Line 252" transform="translate(9.05)"/></g></g></svg>