<svg xmlns="http://www.w3.org/2000/svg" width="81.681" height="73.407" viewBox="0 0 81.681 73.407"><g id="Group_11" data-name="Group 11" transform="translate(72 -213)"><g id="Group_10" data-name="Group 10" transform="translate(-72 213)"><circle id="Ellipse_5" cx="31.263" cy="31.263" r="31.263" fill="#e9eaeb" data-name="Ellipse 5" transform="translate(0 0)"/><rect id="Rectangle_21" width="50.502" height="60.121" fill="#91b9dc" data-name="Rectangle 21" rx="2" transform="translate(18.155 12.286)"/><path id="Path_29" fill="none" stroke="#2a5082" stroke-miterlimit="10" stroke-width="2" d="M-4.5,265.227v7.215a2.4,2.4,0,0,1-2.4,2.4H-52.6a2.4,2.4,0,0,1-2.4-2.4V252" data-name="Path 29" transform="translate(73.155 -202.439)"/><path id="Path_30" fill="none" stroke="#2a5082" stroke-miterlimit="10" stroke-width="2" d="M-13,261.076" data-name="Path 30" transform="translate(81.657 -200.602)"/><path id="Path_31" fill="none" stroke="#2a5082" stroke-miterlimit="10" stroke-width="2" d="M-13,239.867" data-name="Path 31" transform="translate(81.657 -204.895)"/><path id="Path_32" fill="none" stroke="#2a5082" stroke-miterlimit="10" stroke-width="2" d="M-55,258.275V223.4a2.4,2.4,0,0,1,2.4-2.4H-6.9a2.4,2.4,0,0,1,2.4,2.4v12.024" data-name="Path 32" transform="translate(73.155 -208.714)"/><rect id="Rectangle_22" width="40.882" height="50.502" fill="#fff" data-name="Rectangle 22" transform="translate(22.965 17.096)"/><path id="Path_33" fill="none" stroke="#2a5082" stroke-miterlimit="10" stroke-width="2" d="M-36.045,234l-2.68,5.955h-.3L-42,236.977" data-name="Path 33" transform="translate(75.787 -206.082)"/><path id="Path_34" fill="none" stroke="#2a5082" stroke-miterlimit="10" stroke-width="2" d="M-36.045,244.524l-2.68,5.955h-.3L-42,247.5" data-name="Path 34" transform="translate(75.787 -203.952)"/><path id="Path_35" fill="none" stroke="#2a5082" stroke-miterlimit="10" stroke-width="2" d="M-36.045,255.048-38.725,261h-.3L-42,258.025" data-name="Path 35" transform="translate(75.787 -201.822)"/><path id="Path_36" fill="none" stroke="#2a5082" stroke-miterlimit="10" stroke-width="2" d="M-10.118,264.417v4.81H-51V256" data-name="Path 36" transform="translate(73.965 -201.629)"/><path id="Path_37" fill="none" stroke="#2a5082" stroke-miterlimit="10" stroke-width="2" d="M-17,240.053" data-name="Path 37" transform="translate(80.847 -204.857)"/><path id="Path_38" fill="none" stroke="#2a5082" stroke-miterlimit="10" stroke-width="2" d="M-51,262.275V225h40.882v9.619" data-name="Path 38" transform="translate(73.965 -207.904)"/><g id="Group_9" data-name="Group 9" transform="translate(30.179 5.072)"><path id="Path_39" fill="#fff" stroke="#2a5082" stroke-miterlimit="10" stroke-width="2" d="M-22.154,221.012h-4.81v-1a4.949,4.949,0,0,0-4.337-4.994,4.81,4.81,0,0,0-5.282,4.787v1.2h-4.81A3.607,3.607,0,0,0-45,224.619v4.81h26.453v-4.81A3.607,3.607,0,0,0-22.154,221.012Z" data-name="Path 39" transform="translate(45 -215)"/><line id="Line_51" y2="2.405" fill="none" stroke="#2a5082" stroke-miterlimit="10" stroke-width="2" data-name="Line 51" transform="translate(13.227 3.607)"/></g></g><circle id="Ellipse_6" cx="14.429" cy="14.429" r="14.429" fill="#fff" stroke="#2a5082" stroke-miterlimit="10" stroke-width="2" data-name="Ellipse 6" transform="translate(-20.177 243.323)"/><path id="Path_40" fill="none" stroke="#2a5082" stroke-miterlimit="10" stroke-width="2" d="M-15,239v10.822l4.81,6.012" data-name="Path 40" transform="translate(9.252 7.93)"/></g></svg>