<svg xmlns="http://www.w3.org/2000/svg" xmlns:xlink="http://www.w3.org/1999/xlink" id="Layer_1" x="0" y="0" enable-background="new 0 0 318.1 288" version="1.1" viewBox="0 0 318.1 288" xml:space="preserve"><style type="text/css"/><g><g><path d="M312.7,149.1c4-7.9,4-17.3,0-25.2c-14.4-28.7-36.4-52.9-63.6-69.9c-27.3-17-58.7-26.1-90.8-26.4h-0.2 c-24,0.2-47.5,5.3-69.3,15L57.9,11.7c-4.7-4.7-12.3-4.7-17,0c-4.1,4.1-4.6,10.5-1.5,15.2l62.6,62.6 c-10.8,12.8-17.3,29.3-17.3,47.4c0,40.6,32.9,73.5,73.5,73.5c18.1,0,34.6-6.5,47.4-17.3l41.1,41.1c0.6,0.6,1.1,1.2,1.5,1.8 l26.1,26.1c2.3,2.3,5.4,3.5,8.5,3.5s6.1-1.2,8.5-3.5c4.7-4.7,4.7-12.3,0-17l-32.5-32.5C281.5,196.1,300.1,174.4,312.7,149.1z M242.2,196l-21.1-21.1c6.7-11.1,10.6-24.1,10.6-38c0-40.6-32.9-73.5-73.5-73.5c-6.5,0-12.8,0.8-18.8,2.4 c14.1,0.9,25.2,12.6,25.2,26.9c0,7.1-2.8,13.6-7.3,18.5l-50.9-50.9c16.5-6.2,34-9.5,51.8-9.6c27.9,0.2,55.1,8.1,78.7,22.9 c23.7,14.8,42.8,35.7,55.2,60.7l0,0.1c0.7,1.4,0.7,3,0,4.5C280.6,161.9,263.4,181.5,242.2,196z"/></g><g><path d="M158.2,222.4c-27.9-0.2-55.1-8.1-78.7-22.9c-23.7-14.8-42.8-35.7-55.3-60.7c-0.7-1.4-0.7-3,0-4.5 c9.5-19.1,23-35.8,39.3-49.3L47.3,68.7c-18.1,15.2-32.9,34-43.6,55.3c-4,7.9-4,17.3,0,25.1C18,177.8,40,202,67.3,219 c27.3,17,58.7,26.1,90.8,26.4h0.1h0.1c19.2-0.1,38.1-3.5,56-9.7l-18.4-18.4C183.6,220.5,171,222.3,158.2,222.4z"/></g></g></svg>