<svg xmlns="http://www.w3.org/2000/svg" xmlns:xlink="http://www.w3.org/1999/xlink" id="Layer_1" x="0" y="0" enable-background="new 0 0 288 288" version="1.1" viewBox="0 0 288 288" xml:space="preserve"><style type="text/css"/><g><circle cx="146.9" cy="218.1" r="18.5"/></g><g><path d="M175.7,148.5c-7.8,8.5-10.1,16.2-11.4,22.2c-1.5,7-7.7,12.1-14.9,12.1h0c-9.1,0-16.3-7.7-15.4-16.8 c1.1-12,4.4-22.4,19.1-36.5c8.4-8.1,15.1-14.6,14.1-27.1c-0.9-12-11-18.1-20.4-18.1c-8.2,0-17.4,4.8-21.1,17.2 c-2.2,7.5-8.9,12.8-16.8,12.8h0c-8.5,0-14.9-7.7-13.2-16c5.3-26.3,24.4-42.7,51.5-42.8c15.4-0.1,28.8,4.9,37.9,14 c8.5,8.5,12.9,20.3,12.8,34C198.1,124.2,185.7,137.7,175.7,148.5z"/></g><g><g><path d="M143.4,25c31.8-0.1,61.8,12.1,84.3,34.5c22.6,22.4,35.1,52.2,35.3,83.9c0.1,31.8-12.1,61.8-34.5,84.3 c-22.4,22.6-52.2,35.1-83.9,35.3c-31.8,0.1-61.8-12.1-84.3-34.5c-22.6-22.4-35.1-52.2-35.3-83.9c-0.1-31.8,12.1-61.8,34.5-84.3 C81.8,37.6,111.6,25.1,143.4,25 M143.3,0C63.8,0.4-0.4,65.2,0,144.7S65.2,288.4,144.7,288c79.5-0.4,143.7-65.2,143.3-144.7 C287.6,63.7,222.8-0.4,143.3,0L143.3,0z"/></g></g></svg>