<svg xmlns="http://www.w3.org/2000/svg" xmlns:xlink="http://www.w3.org/1999/xlink" id="Layer_1" x="0" y="0" enable-background="new 0 0 288 288" version="1.1" viewBox="0 0 288 288" xml:space="preserve"><style type="text/css"/><path d="M143.3,0C63.8,0.4-0.4,65.2,0,144.7C0.4,224.2,65.2,288.4,144.7,288S288.4,222.8,288,143.3C287.6,63.7,222.8-0.4,143.3,0z M158.5,223.9c0,8.3-6.7,15-15,15s-15-6.7-15-15V122.4c0-8.3,6.7-15,15-15s15,6.7,15,15V223.9z M143.6,90.1	c-10.3,0-18.6-8.2-18.6-18.5S133.2,53,143.5,53c10.3,0,18.6,8.2,18.6,18.5C162.1,81.7,153.9,90,143.6,90.1z"/></svg>