<svg xmlns="http://www.w3.org/2000/svg" xmlns:xlink="http://www.w3.org/1999/xlink" id="Layer_1" x="0" y="0" enable-background="new 0 0 313.1 288" version="1.1" viewBox="0 0 313.1 288" xml:space="preserve"><style type="text/css">.st18{fill:#1a1a1a}</style><path d="M300.7,59.8l-129-56.3c-0.1,0-0.2-0.1-0.2-0.1c-7.1-2.9-17.9-4.7-26.8-0.8L13,60.7C7,63.4,3,69.2,2.7,75.9	c-0.3,7.5,3.8,14.7,10.6,18.4c0,0,0,0,0,0l15.2,8.3c-0.9,7.7-0.6,16-0.3,24.7c0.2,5.5,0.4,11.2,0.3,16.7c0,0.9,0.1,1.8,0.3,2.6	c-9.1,3.2-15.7,11.9-15.7,22.1c0,9,5.1,16.8,12.5,20.7C25.2,223.6,18.6,243.2,5,251c-2.6,1.5-4.3,4.2-4.5,7.3	c-0.2,3,1.2,5.9,3.6,7.8l25.7,19.1c1.6,1.2,3.5,1.8,5.4,1.8c2.2,0,4.4-0.8,6.1-2.4c21.7-20,15.5-39.4,9.5-58.2	c-3.4-10.8-7-21.9-7-35.4c9.4-3,16.2-11.9,16.2-22.3c0-9.5-5.7-17.7-13.9-21.4c0.3-0.9,0.5-1.9,0.6-2.9c0.1-6-0.1-12-0.3-17.7	c-0.2-5.6-0.4-11-0.3-16l14.3,6v27.3c0,16.2,11.4,30.7,32.1,40.8c18,8.8,41.6,13.7,66.5,13.7c24.9,0,48.6-4.8,66.5-13.7	c20.7-10.1,32.1-24.6,32.1-40.8v-30.4L302,94c6.4-2.7,10.5-9.2,10.5-16.4C312.4,69.8,307.8,62.8,300.7,59.8z M36.6,174.1	c-3,0-5.4-2.4-5.4-5.4s2.4-5.4,5.4-5.4c3,0,5.4,2.4,5.4,5.4S39.6,174.1,36.6,174.1z M34.1,265.9l-9.8-7.3	c4.2-4.4,8.3-10.5,11.7-19.3C39.4,250.9,40,258.1,34.1,265.9z M233.7,143.9c0,6.3-7,13.5-18.7,19.2c-14.5,7.1-34.9,11.2-56,11.2	c-21,0-41.4-4.1-56-11.2c-11.7-5.7-18.7-12.9-18.7-19.2v-17.3l59.2,24.6c7.1,2.9,17.9,4.7,26.8,0.8l63.2-27.9V143.9z M160.8,130	c-1,0.4-4.6,0.4-8-1L70.1,94.7L159,78.5c4.9-0.9,8.1-5.6,7.2-10.5c-0.9-4.9-5.6-8.1-10.5-7.2l-115.4,21l-7-3.8l120.9-53.3	c1-0.4,4.4-0.5,7.9,1l118.3,51.6L160.8,130z" class="st18"/></svg>