<?xml version="1.0" encoding="utf-8"?>
<!-- Generator: Adobe Illustrator 25.3.1, SVG Export Plug-In . SVG Version: 6.00 Build 0)  -->
<svg version="1.1" id="Layer_1" xmlns="http://www.w3.org/2000/svg" xmlns:xlink="http://www.w3.org/1999/xlink" x="0px" y="0px"
	 viewBox="0 0 251.3 288" style="enable-background:new 0 0 251.3 288;" xml:space="preserve">
<style type="text/css">
	.st0{fill:none;}
</style>
<path class="st0" d="M125.4,25.2C91,25.2,63,53.2,63,87.6v36.2h124.8V87.6C187.8,53.2,159.8,25.2,125.4,25.2z"/>
<path d="M237.7,123.8h-25.9V87.6c0-47.7-38.7-86.4-86.4-86.4S39,40,39,87.6v36.2H13.3c-6.6,0-12,5.4-12,12v138.1c0,6.6,5.4,12,12,12
	h224.5c6.6,0,12-5.4,12-12V135.8C249.7,129.2,244.3,123.8,237.7,123.8z M137.5,214.2c0,6.6-5.4,12-12,12c-6.6,0-12-5.4-12-12v-32.9
	c0-6.6,5.4-12,12-12c6.6,0,12,5.4,12,12V214.2z M187.8,123.8H63V87.6c0-34.4,28-62.4,62.4-62.4c34.4,0,62.4,28,62.4,62.4V123.8z"/>
</svg>
