<?xml version="1.0" encoding="utf-8"?>
<!-- Generator: Adobe Illustrator 24.1.0, SVG Export Plug-In . SVG Version: 6.00 Build 0)  -->
<svg version="1.1" id="Layer_1" xmlns="http://www.w3.org/2000/svg" xmlns:xlink="http://www.w3.org/1999/xlink" x="0px" y="0px"
	 viewBox="0 0 288 288" style="enable-background:new 0 0 288 288;" xml:space="preserve">
<path d="M144.1,2C65.6,2,1.8,65.9,1.8,144.4s63.8,142.3,142.3,142.3s142.4-63.9,142.4-142.4S222.6,2,144.1,2z M145,35.3
	c9.1,0,16.5,7.4,16.5,16.5c0,9.1-7.4,16.5-16.5,16.5c-9.1,0-16.5-7.4-16.5-16.5C128.5,42.7,135.9,35.3,145,35.3z M219.3,87.3
	c0,0-29,6.4-30.6,6.8l-7.9,1.6c-4.8,0.9-8.7,1.5-12.2,2c-2.7,0.4-4.8,2.8-4.8,5.6l0.1,49.3c0,1.7,0,3.8,0.2,5.8l9.2,85.8
	c0.2,2-0.3,3.9-1.6,5.5c-1.3,1.6-3.1,2.6-5.1,2.8c-4.2,0.4-7.9-2.6-8.3-6.7l-7.7-71.5c-0.1-0.7-0.4-1.4-1-1.8
	c-0.6-0.5-1.3-0.6-2-0.5c-1.3,0.3-2.5,0.4-3.7,0.4c-1.3,0-2.5-0.2-3.8-0.4c-0.7-0.2-1.4,0-2,0.4c-0.5,0.4-0.9,1-1,1.7l-9.4,72.7
	c-0.5,4.1-4.3,7-8.4,6.5c-2-0.3-3.8-1.3-5-2.9c-1.2-1.6-1.8-3.6-1.5-5.6l11-84.7c0.3-2.4,0.4-4.8,0.3-7.1c0-0.2,0-0.4,0-0.6L124,104
	v-1.8c0-2.7-2-5-4.6-5.5c-1-0.2-2-0.4-3.1-0.6l-47.7-9c-4.1-0.8-6.9-4.5-6.5-8.4c0.5-3.7,3.7-6.6,7.5-6.6c0.5,0,0.9,0,1.4,0.1
	l38.9,7.6c0,0,0.1,0,0.2,0c0.4,0.1,0.8,0.2,1.2,0.3l3.3,0.7c2.4,0.5,4.9,1,4.9,1c8,1.5,14.9,2.3,21.6,2.6c1.1,0.1,4.2,0.1,5.4,0.1
	h0.5c9.5-0.1,18.6-1.4,31.1-3.6l7.9-1.4l30.3-7c0.6-0.1,1.1-0.2,1.7-0.2c3.7,0,6.8,2.7,7.4,6.4C226,82.6,223.3,86.4,219.3,87.3z"/>
</svg>
