<svg xmlns="http://www.w3.org/2000/svg" xmlns:xlink="http://www.w3.org/1999/xlink" id="Layer_1" x="0" y="0" enable-background="new 0 0 288 288" version="1.1" viewBox="0 0 288 288" xml:space="preserve"><style type="text/css">.st0{fill:#fff}</style><g><g><path d="M144.1,286.7c78.5,0,142.4-63.9,142.4-142.4S222.6,2,144.1,2S1.8,65.9,1.8,144.4S65.6,286.7,144.1,286.7z"/></g><g><path d="M68.6,87.1l47.7,9c1.1,0.2,2.1,0.4,3.1,0.6c2.6,0.5,4.6,2.8,4.6,5.5l0,1.8l0.1,48.4c0,0.2,0,0.4,0,0.6 c0.1,2.3,0,4.7-0.3,7.1l-11,84.7c-0.3,2,0.3,4,1.5,5.6c1.2,1.6,3,2.6,5,2.9c4.1,0.5,7.9-2.4,8.4-6.5l9.4-72.7 c0.1-0.7,0.5-1.3,1-1.7c0.6-0.4,1.3-0.6,2-0.4c1.3,0.2,2.5,0.4,3.8,0.4c1.2,0,2.4-0.1,3.7-0.4c0.7-0.1,1.4,0,2,0.5 c0.6,0.4,0.9,1.1,1,1.8l7.7,71.5c0.4,4.1,4.1,7.1,8.3,6.7c2-0.2,3.8-1.2,5.1-2.8c1.3-1.6,1.8-3.5,1.6-5.5l-9.2-85.8 c-0.2-2-0.2-4.1-0.2-5.8l-0.1-49.3c0-2.8,2.1-5.2,4.8-5.6c3.5-0.5,7.4-1.1,12.2-2l7.9-1.6c1.6-0.4,30.6-6.8,30.6-6.8 c4-0.9,6.7-4.7,6.1-8.6c-0.6-3.7-3.7-6.4-7.4-6.4c-0.6,0-1.1,0.1-1.7,0.2L186,79.5l-7.9,1.4c-12.5,2.2-21.6,3.5-31.1,3.6l-0.5,0 c-1.2,0-4.3,0-5.4-0.1c-6.7-0.3-13.6-1.1-21.6-2.6c0,0-2.5-0.5-4.9-1l-3.3-0.7c-0.4-0.1-0.8-0.2-1.2-0.3c-0.1,0-0.2,0-0.2,0v0 c0,0,0,0,0,0v0L71,72.2c-0.5-0.1-0.9-0.1-1.4-0.1c-3.8,0-7,2.9-7.5,6.6C61.7,82.6,64.5,86.3,68.6,87.1z" class="st0"/></g><g><path d="M145,68.3c9.1,0,16.5-7.4,16.5-16.5c0-9.1-7.4-16.5-16.5-16.5c-9.1,0-16.5,7.4-16.5,16.5 C128.5,60.9,135.9,68.3,145,68.3z" class="st0"/></g></g></svg>