<svg xmlns="http://www.w3.org/2000/svg" xmlns:xlink="http://www.w3.org/1999/xlink" id="Layer_1" x="0" y="0" enable-background="new 0 0 317.6 288" version="1.1" viewBox="0 0 317.6 288" xml:space="preserve"><style type="text/css">.st0{fill:#fff}</style><g><g><g><path d="M313.3,228.3l-0.1-0.1L193.2,20.3c-7-12.1-20-19.6-34-19.6c-14,0-27,7.5-34,19.6L5.3,228.1l-0.1,0.2 c-3.2,5.8-4.9,12.4-4.9,19c0,10.4,4,20.1,11.3,27.5c7.2,7.4,16.9,11.5,27.2,11.7c0.2,0,0.3,0,143.5,0c97.3,0,97.3,0,97.5,0 c10.3-0.2,20-4.4,27.3-11.7c7.3-7.4,11.3-17.2,11.3-27.5C318.2,240.7,316.5,234.1,313.3,228.3z"/></g><g><g><path d="M179.5,223.6c0,11-8.9,20-20,20c-11,0-20-8.9-20-20c0-11,8.9-20,20-20C170.6,203.6,179.5,212.6,179.5,223.6 z" class="st0"/></g><g><path d="M172.8,180.5c0,7.3-5.9,13.2-13.2,13.2c-7.3,0-13.2-5.9-13.2-13.2l-6.3-92.9c0-10.8,8.7-19.5,19.5-19.5 c10.8,0,19.5,8.7,19.5,19.5L172.8,180.5z" class="st0"/></g></g></g></g></svg>