<svg xmlns="http://www.w3.org/2000/svg"><defs><font id="platform-icons" horiz-adv-x="523"><font-face ascent="288" descent="0" font-family="platform-icons" units-per-em="288"/><glyph d="M85.8 102.8C86.1 103.1 86.5 103.4 86.8 103.7L150.1 167C155 171.9 155 179.8 150.1 184.7S137.3 189.6 132.4 184.7L77.6 129.9L22.8 184.7000000000001C17.9 189.6 10 189.6 5.1 184.7000000000001C2.7 182.3 1.4 179.1 1.4 175.9S2.6 169.5 5.1 167.1L68.7 103.5C73.4 98.6 80.8 98.5 85.8 102.8z" glyph-name="angle-down" horiz-adv-x="154" unicode=""/><glyph d="M4.2 135.8C4.5 135.5 4.8 135.1 5.1 134.8L68.4 71.5C73.3 66.6 81.2 66.6 86.1 71.5S91 84.3 86.1 89.2L31.3 144L86.1 198.8C91 203.7 91 211.6 86.1 216.5C83.7 218.9 80.5 220.2 77.3 220.2S70.9 219 68.5 216.5L4.9 152.9C0 148.2 -0.1 140.8 4.2 135.8z" glyph-name="angle-left" horiz-adv-x="90" unicode=""/><glyph d="M86.2 152.8C85.9 153.1 85.6 153.5 85.3 153.8L22 217.1C17.1 222 9.2 222 4.3 217.1S-0.6 204.3 4.3 199.4L59.1 144.6L4.3 89.8C-0.6 84.9 -0.6 77 4.3 72.1C6.7 69.7 9.9 68.4 13.1 68.4S19.5 69.6 21.9 72.1L85.5 135.7C90.4 140.4 90.5 147.8 86.2 152.8z" glyph-name="angle-right" horiz-adv-x="90" unicode=""/><glyph d="M68.9 185.2C68.6 184.9 68.2 184.6 67.9 184.3L4.6 121C-0.3 116.1 -0.3 108.2 4.6 103.3S17.4 98.4 22.3 103.3L77.1 158.1L131.9 103.3C136.8 98.4 144.7 98.4 149.6 103.3C152 105.7 153.3 108.9 153.3 112.1S152.1 118.5 149.6 120.9L86 184.5C81.3 189.4 73.9 189.5 68.9 185.2z" glyph-name="angle-up" horiz-adv-x="154" unicode=""/><glyph d="M85.8 53.9C86.1 54.2 86.5 54.5 86.8 54.8L150.1 118.1C155 123 155 130.9 150.1 135.8S137.3 140.7 132.4 135.8L90.1 93.5V223.5C90.1 230.4 84.5 236 77.6 236S65.1 230.4 65.1 223.5V93.5L22.8 135.8C17.9 140.7 10 140.7 5.1 135.8C2.7 133.4 1.4 130.2 1.4 127S2.6 120.6 5.1 118.2L68.7 54.6C73.5 49.8 80.9 49.6 85.8 53.9z" glyph-name="arrow-down" horiz-adv-x="154" unicode=""/><glyph d="M3.9 136.3C4.2 136 4.5 135.6 4.8 135.3L68.1 72C73 67.1 80.9 67.1 85.8 72S90.7 84.8 85.8 89.7L43.5 132H173.5C180.4 132 186 137.6 186 144.5S180.4 157 173.5 157H43.5L85.8 199.3C90.7 204.2 90.7 212.1 85.8 217C83.4 219.4 80.2 220.7 77 220.7S70.6 219.5 68.2 217L4.6 153.4C-0.2 148.6 -0.4 141.2 3.9 136.3z" glyph-name="arrow-left" horiz-adv-x="187" unicode=""/><glyph d="M182.5 152.7C182.2 153 181.9 153.4 181.6 153.7L118.3 217C113.4 221.9 105.5 221.9 100.6 217S95.7 204.2 100.6 199.3L142.9 157H12.9C6 157 0.4 151.4 0.4 144.5S6 132 12.9 132H142.9L100.6 89.7C95.7 84.8 95.7 76.9 100.6 72C103 69.6 106.2 68.3 109.4 68.3S115.8 69.5 118.2 72L181.8 135.6C186.6 140.4 186.8 147.8 182.5 152.7z" glyph-name="arrow-right" horiz-adv-x="187" unicode=""/><glyph d="M59.7 56.5L95.6 110.8C97.8 114.7 97.8 119.4 95.5 123.3C93.3 127.1 89.1 129.5 84.7 129.5H61.3V225.3C61.3 232.2 55.7 237.8 48.8 237.8S36.3 232.2 36.3 225.3V129.4H12.9C8.4 129.4 4.3 127 2.1 123.2C1 121.3 0.4 119.1 0.4 116.9C0.4 114.8 0.9 112.6 2 110.7L38 56.4C40.2 52.5 44.4 50.1 48.9 50.1S57.5 52.5 59.7 56.5z" glyph-name="arrow-solid-down" horiz-adv-x="97" unicode=""/><glyph d="M7 133.1L61.3 97.2C65.2 95 69.9 95 73.8 97.3C77.6 99.5 80 103.7 80 108.1V131.5H175.9C182.8 131.5 188.4 137.1 188.4 144C188.4 150.9 182.8 156.5 175.9 156.5H80V179.9C80 184.4 77.6 188.5 73.8 190.7C71.9 191.8 69.7 192.4 67.5 192.4C65.4 192.4 63.2 191.9 61.3 190.8L7 154.8C3.1 152.6 0.7 148.4 0.7 143.9S3.1 135.3 7 133.1z" glyph-name="arrow-solid-left" horiz-adv-x="188" unicode=""/><glyph d="M181.5 155.2L127.2 191.1C123.3 193.3 118.6 193.3 114.7 191C110.9 188.8 108.5 184.6 108.5 180.2V156.8H12.7C5.8 156.8 0.2 151.2 0.2 144.3C0.2 137.4 5.8 131.8 12.7 131.8H108.6V108.4C108.6 103.9 111 99.8 114.8 97.6C116.7 96.5 118.9 95.9 121.1 95.9C123.2 95.9 125.4 96.4 127.3 97.5L181.6 133.5C185.5 135.7 187.9 139.9 187.9 144.4S185.5 153 181.5 155.2z" glyph-name="arrow-solid-right" horiz-adv-x="188" unicode=""/><glyph d="M37.6 231.5L1.7 177.2C-0.5 173.3 -0.5 168.6 1.8 164.7C4 160.9 8.2 158.5 12.6 158.5H36V62.6C36 55.7 41.6 50.1 48.5 50.1S61 55.8 61 62.7V158.6H84.4C88.9 158.6 93 161 95.2 164.8C96.3 166.7 96.9 168.9 96.9 171.1C96.9 173.2 96.4 175.4 95.3 177.3L59.3 231.6C57.1 235.5 52.9 237.9 48.4 237.9S39.8 235.5 37.6 231.5z" glyph-name="arrow-solid-up" horiz-adv-x="97" unicode=""/><glyph d="M68.3 233.5C68 233.2 67.6 232.9 67.3 232.6L4 169.3C-0.9 164.4 -0.9 156.5 4 151.6S16.8 146.7 21.7 151.6L64 193.9V63.9C64 57 69.6 51.4 76.5 51.4S89 57 89 63.9V193.9L131.3 151.6C136.2 146.7 144.1 146.7 149 151.6C151.4 154 152.7 157.2 152.7 160.4C152.7 163.6 151.5 166.8 149 169.2L85.4 232.8C80.6 237.6 73.2 237.8 68.3 233.5z" glyph-name="arrow-up" horiz-adv-x="154" unicode=""/><glyph d="M300.7 12.7C316.9 15.3 328.3 28 326.1 40.9L267.6 31.4C269.8 18.4 284.6 10.1 300.7 12.7z M78.7 35.6C93.6 28.8 110.1 33 115.5 44.9L61.5 69.5C56.1 57.6 63.8 42.4 78.7 35.6z M333.3 110.6C323 131.1 320.3 148.6 315.7 177.5C315.1 181.3 314.5 185.3 313.8 189.6C308.7 221 279 242.4 247.6 237.2C216.2 232.1 194.8 202.4 200 171C200.8 166.2 201.5 161.8 202.2 157.6C206.9 129.3 209.8 112.3 206.6 89.9C204.6 75.4 195.3 65.4 188.3 59.1L188.7 56.6L361.1 84.7L360.7000000000001 87.2C351.9 90.9 339.9 97.5 333.3 110.6z M389.8 75.8L386 99.2C385.2 103.9 382 107.9 377.5 109.6C377 109.8 376.3 110 375.7 110.3C370.1 112.4 360.8 115.8 357.4 122.6C349 139.4 346.6 154.4 342.3 181.7C341.7 185.5 341 189.6 340.3 193.9C333.7 234.6 298.9 263.8 259.2 264.9000000000001L259.2 264.9000000000001C243.6 265.1 231.2 261.2000000000001 225.6 259L225.6 259C220.6999999999999 257 216 254.6 211.5999999999999 251.9000000000001C209.9 253.3 208.1999999999999 254.7 206.4 256L206.4 256C192.0999999999999 265 180.0999999999999 268.6 175.2 269.8V269.7000000000001C137.2 277.9000000000001 97.1 258.9000000000001 80.4 222.1C78.4 217.7 76.5 213.5 74.7 209.6C63.6 185 57.5 171.5 45.3 157.8C40.2 152.1 30.3 151.2 24.4 150.6C23.8 150.5 23.2 150.5 22.6 150.4C17.8 149.9 13.7 146.9 11.7 142.6L1.9 121C-1.2 114.2 1.8 106.2 8.6 103.1L171.3 28.9V29.3C173.8 27.9999999999999 176.7 27.4 179.7 27.9L378.7 60.4C386 61.5 391 68.5 389.8 75.8zM179.9 93.7C178.8 86.1 171.1 79.9 166.5 76.1C166 75.7 165.5 75.3 165.1 75C161.7 72.2 159.9 67.9 160.2 63.6L31.9 122.1L32.9 124.4C42.2 125.7 55.5 128.9 65.2 139.8C80.3 156.6 87.4 172.4 99.1 198.5C100.8 202.4 102.7 206.5 104.7 210.9C117.9 239.8 152.2 252.6 181.1 239.4000000000001C184.6 237.8 187.9 235.8 191 233.7C176.3 215.6 169.1 191.5 173.1 166.7C173.9 161.9 174.6 157.4 175.3 153.2C180 126.6 182.4 111.9 179.9 93.7zM188.7 56.7L188.3 59.2C195.3 65.4 204.6 75.5 206.6 90C209.8 112.4 206.9 129.4 202.2 157.7C201.5 161.9 200.8 166.3 200 171.1C194.9 202.5 216.2 232.2 247.6 237.3C279 242.4 308.7 221.1 313.8 189.7C314.5 185.4 315.1 181.4 315.7 177.6C320.3 148.7 323.1 131.2 333.3 110.7C339.8 97.6 351.9000000000001 91 360.6 87.4L361 84.9L188.7 56.7z" glyph-name="bell-multi" horiz-adv-x="390.9" unicode=""/><glyph d="M36 45.2H12V242.9C12 268 32.4 288.3 57.4 288.3H224.9C237 288.3 246.9 278.4 246.9 266.3V76.3C246.9 64.2 237 54.3 224.9 54.3V78.3C223.8 78.3 222.9 77.4 222.9 76.3V264.3H57.4C45.6 264.3 36 254.7 36 242.9V45.2z M61.7 269.9H85.7V68H61.7V269.9z M187.9 181.5H121.6C115 181.5 109.6 186.9 109.6 193.5S115 205.5 121.6 205.5H187.9C194.5 205.5 199.9 200.1 199.9 193.5S194.5 181.5 187.9 181.5z M185.1 139.1H118.8C112.2 139.1 106.8 144.5 106.8 151.1S112.2 163.1 118.8 163.1H185.1C191.7 163.1 197.1 157.7 197.1 151.1S191.7 139.1 185.1 139.1z M238.7 1H54.5C38.5 1 24 9.2 15.7 22.9C13.2 26.9 12.7 30.4 12.2 33.1C11.4 38 12 44.1 12.1 44.8C12.7 49.9 14.5 54.7 17.2 58.7C25.7 71 39.7 78.4 54.6 78.4H222.1C228.7 78.4 234.1 72.9999999999999 234.1 66.4S228.7 54.4 222.1 54.4H54.6C47.5 54.4 40.9 50.9 36.9 45.0999999999999C36.4 44.2999999999999 36 43.1999999999999 35.8 41.9999999999999C35.6 40.3 35.6 37.9 35.7 37.0999999999999C35.8 36.5999999999999 35.9 35.6999999999999 36 35.4L36 35.3C39.9 28.8 46.8 24.9999999999999 54.3 24.9999999999999H238.5C245.1 24.9999999999999 250.5 19.6 250.5 12.9999999999999S245.3 1 238.7 1z M234 2C230.3 2 226.6 3.7 224.3 7C202.4 37.4 217.8 71 218.5 72.4C221.3 78.4 228.5 81 234.5 78.2C240.5 75.4 243.1 68.3 240.3 62.3C239.8 61.2 230.4 39.7 243.8 21C247.7 15.6 246.5 8.1 241.1 4.2C238.9 2.7 236.4 2 234 2z" glyph-name="book" horiz-adv-x="288" unicode=""/><glyph d="M74 264V26H25V264H74M87.1 288H11.9C5.9 288 1 283.1 1 277.1V12.9C1 6.9 5.9 2.0000000000001 11.9 2.0000000000001H87.1C93.1 2.0000000000001 98 6.9 98 12.9V277.1C98 283.1 93.1 288 87.1 288L87.1 288z M170.4 2H113C106.4 2 101 7.4 101 14S106.4 26 113 26H169V264H113C106.4 264 101 269.4 101 276S106.4 288 113 288H170.4C182.9 288 193 277.9 193 265.4V24.5C193 12.1 182.9 2 170.4 2zM170.4 264L170.4 264L170.4 264z M259 63H16C9.4 63 4 68.4 4 75S9.4 87 16 87H259C265.6 87 271 81.6 271 75S265.6 63 259 63z M59 222H40C33.4 222 28 227.4 28 234S33.4 246 40 246H59C65.6 246 71 240.6 71 234S65.6 222 59 222z M59 187H40C33.4 187 28 192.4 28 199S33.4 211 40 211H59C65.6 211 71 205.6 71 199S65.6 187 59 187z M143 225H124C117.4 225 112 230.4 112 237S117.4 249 124 249H143C149.6 249 155 243.6 155 237S149.6 225 143 225z M143 190H124C117.4 190 112 195.4 112 202S117.4 214 124 214H143C149.6 214 155 208.6 155 202S149.6 190 143 190z M260.4 2H203C196.4 2 191 7.4 191 14S196.4 26 203 26H259V264H203C196.4 264 191 269.4 191 276S196.4 288 203 288H260.4C272.9 288 283 277.9 283 265.4V24.5C283 12.1 272.9 2 260.4 2zM260.4 264L260.4 264L260.4 264z M234 226H215C208.4 226 203 231.4 203 238S208.4 250 215 250H234C240.6 250 246 244.6 246 238S240.6 226 234 226z M234 191H215C208.4 191 203 196.4 203 203S208.4 215 215 215H234C240.6 215 246 209.6 246 203S240.6 191 234 191z" glyph-name="books" horiz-adv-x="288" unicode=""/><glyph d="M232.4 37H201.3V249.3C201.3 255.2 196.5 260 190.6 260H54.9C49 260 44.2 255.2 44.2 249.3V37H13.1C6.5 37 0.8 31.8 0.7 25.2C0.6 18.5 6 13 12.8 13H232.8C239.5 13 244.9 18.5 244.8 25.2C244.6 31.8 239 37 232.4 37zM72 236H173.4C175.5 236 177.2 234.3 177.2 232.2V37H137.3V70.9H106.6V37H68.2V232.2C68.2 234.3 69.9 236 72 236z M87 205H114V182H87V205z M129 205H156V182H129V205z M87 161H114V138H87V161z M129 161H156V138H129V161z M87 117H114V94H87V117z M129 117H156V94H129V117z" glyph-name="building" horiz-adv-x="246" unicode=""/><glyph d="M319.4 163C319.4 185 303.9 203.5 283.2 208.1V274.5C283.2 280.8 278.1 286 271.7 286H247.7C241.4 286 236.2 280.8 236.2 274.5V272L120.7 239.2H22.6C10.1 239.2 0 229.1 0 216.7V107.2C0 94.8 10.1 84.6 22.6 84.6H39.2L60.8 16.6C63.9 6.7 73.2 -0.1 83.5 -0.1C83.6 -0.1 83.8 -0.1 83.9 -0.1L107 0.3C114.2 0.4 120.7 3.8 124.9 9.7C129.1 15.5 130.3 22.8 128.2 29.7L110.2 84.6H125.7V84.9L236.5 50.2C237.1 44.5 242 40 247.9 40H271.9C278.2 40 283.4 45.2 283.4 51.5V117.9C303.9 122.5 319.4 141 319.4 163zM24 215.2H101.6V108.6H24V215.2zM104.6 24.4L83.6 24L64.4 84.6H84.9L104.6 24.4zM125.6 214.6L236.3 246V76.4L125.6 111.1V214.6zM265.2 58H254.3V268H265.2V58zM283.2 143.2V182.8C290.4 179.1 295.4 171.6 295.4 163S290.5 146.9 283.2 143.2z M316.6 202.6C318.9000000000001 202.6 321.2000000000001 203.5 323 205.2L345.8 228C349.3 231.5 349.3 237.2 345.8 240.7C342.3 244.2 336.6 244.2 333.1 240.7L310.3 218C306.8 214.5 306.8 208.8 310.3 205.3C312 203.5 314.3 202.6 316.6 202.6z M355 170.9H334.3C329.3 170.9 325.3 166.9 325.3 161.9S329.3 152.9 334.3 152.9H355C360 152.9 364 156.9 364 161.9S360 170.9 355 170.9z M321.9 119.7C318.4 123.2 312.7 123.2 309.2 119.7C305.7 116.2 305.7 110.5 309.2 107L336.1 80.1C337.9 78.3 340.2 77.5 342.5 77.5S347.1 78.4 348.8999999999999 80.1C352.3999999999999 83.6 352.3999999999999 89.3 348.8999999999999 92.8L321.9 119.7z M76.8 201H47.8C42.8 201 38.8 197 38.8 192S42.8 183 47.8 183H76.8C81.8 183 85.8 187 85.8 192S81.8 201 76.8 201z M76.8 170.5H47.8C42.8 170.5 38.8 166.5 38.8 161.5S42.8 152.5 47.8 152.5H76.8C81.8 152.5 85.8 156.5 85.8 161.5S81.8 170.5 76.8 170.5z M76.8 140.1H47.8C42.8 140.1 38.8 136.1 38.8 131.1S42.8 122.1 47.8 122.1H76.8C81.8 122.1 85.8 126.1 85.8 131.1S81.8 140.1 76.8 140.1z" glyph-name="bullhorn" horiz-adv-x="364" unicode=""/><glyph d="M144 263C175.8 263 205.7 250.6 228.1 228.1C250.6 205.6 263 175.7 263 144C263 112.2 250.6 82.3 228.1 59.9C205.6 37.4 175.7 25 144 25C112.2 25 82.3 37.4 59.9 59.9C37.4 82.4 25 112.3 25 144C25 175.8 37.4 205.7 59.9 228.1C82.3 250.7 112.2 263 144 263M144 288C64.5 288 0 223.5 0 144S64.5 0 144 0S288 64.5 288 144C288 223.6 223.5 288 144 288L144 288z M130.3 86C123.6 79.1 112.7 78.7 105.5 85L61.7 123.8C56.5 128.4 56.1 136.5 60.8 141.6S73.5 146.8 78.6 142.2L117 108.2L209 203.6C213.8000000000001 208.6 221.9 208.7 226.8000000000001 203.8C231.7000000000001 198.9 231.4000000000001 190.9 226.7000000000001 186L130.3 86z" glyph-name="check-circle" horiz-adv-x="288" unicode=""/><glyph d="M144 288C64.5 288 0 223.5 0 144S64.5 0 144 0S288 64.5 288 144S223.5 288 144 288zM226.8 186L130.4 86C123.7 79.1 112.8 78.7 105.6 85L61.8 123.8C56.6 128.4 56.2 136.5 60.9 141.6C65.6 146.7 73.6 146.8 78.7 142.2L117.1 108.2L209.1 203.6C213.9 208.6 222 208.7 226.9000000000001 203.8C231.8 198.9 231.5 190.9 226.8 186z" glyph-name="check-cirle-solid" horiz-adv-x="288" unicode=""/><glyph d="M91.3 59.3C84.5 52.4 73.4 52.4 66.6 59.3L6.1 119.8C1.2 124.7 1.2 132.6 6.1 137.5S18.9 142.4 23.8 137.5L79 82.3L225.7 230.1C230.6 235 238.5 235 243.4 230.2S248.3 217.4 243.5 212.5L91.3 59.3z" glyph-name="check" horiz-adv-x="250" unicode=""/><glyph d="M98.5 105.9H125.1V82.9H98.5V105.9z M98.5 150.4H125.1V127.4H98.5V150.4z M98.5 195H125.1V172H98.5V195z M340.3 28.3L295.8 28.3V165.1C295.8 171.1 290.9000000000001 176 284.9000000000001 176H175.3V236.6C175.3 242.5 170.6 247.2 164.7 247.2H58.9C53 247.2 48.3 242.5 48.3 236.6V28.3L13.7 28.3C6.8 28.3 0.9 22.9 0.8 16C0.7 9 6.3 3.3 13.3 3.3H340.7C347.7 3.3 353.3 9 353.2 16C353.1 22.9 347.2 28.3 340.3 28.3zM201.6 150.4H228.2V127.4H201.6V150.4zM150.3 176H145.2C139.4 176 134.7 171.3 134.7 165.5V28.3H73.2V218.7C73.2 220.7 74.8 222.2 76.7 222.2H146.6C148.6 222.2 150.1 220.6 150.1 218.7L150.3 176L150.3 176zM186.4 82.9H159.8V105.9H186.4V82.9zM186.4 127.4H159.8V150.4H186.4V127.4zM201.6 105.8H228.2V82.8H201.6V105.8zM231.1 30.7H200.4V65.3H231.1V30.7zM270 82.9H243.4V105.9H270V82.9zM270 127.4H243.4V150.4H270V127.4z" glyph-name="city" horiz-adv-x="355" unicode=""/><glyph d="M144.3 266.1H136C133.5 278.4 122.7 287.6 109.7 287.6S85.9 278.4 83.4 266.1H75.1C66.2 266.1 59 258.9 59 250V207.3C59 204.3 61.4 201.9 64.4 201.9H155C158 201.9 160.4 204.3 160.4 207.3V250C160.4 258.9 153.2 266.1 144.3 266.1zM109.7 250C103.8 250 99 254.8 99 260.7S103.8 271.4 109.7 271.4S120.4 266.6 120.4 260.7S115.6 250 109.7 250z M187.9 0H30.9C14.1 0 0.4 13.7 0.4 30.5V224.5C0.4 241.3 14.1 255 30.9 255H63.2V231H30.9C27.3 231 24.4 228.1 24.4 224.5V30.5C24.4 26.9 27.3 24 30.9 24H187.9C191.5 24 194.4 26.9 194.4 30.5V224.5C194.4 228.1 191.5 231 187.9 231H155.6V255H187.9C204.7000000000001 255 218.4 241.3 218.4 224.5V30.5C218.4 13.7 204.7 0 187.9 0z M169.5 72.7H100.8C95.8 72.7 91.8 76.7 91.8 81.7S95.8 90.7 100.8 90.7H169.5C174.5 90.7 178.5 86.7 178.5 81.7S174.4 72.7 169.5 72.7z M169.5 138.7H100.8C95.8 138.7 91.8 142.7 91.8 147.7S95.8 156.7 100.8 156.7H169.5C174.5 156.7 178.5 152.7 178.5 147.7S174.4 138.7 169.5 138.7z M52.3 129.5C52.1 129.5 51.8 129.5 51.6 129.5C48.7 129.7 46 131.4 44.5 133.9L36 148.5C33.5 152.8 34.9 158.3 39.2 160.8C43.5 163.3 49 161.9 51.5 157.6L53.5 154.2L70.8 175.4C73.9 179.3 79.6 179.8 83.5 176.7C87.4 173.6 87.9 167.9 84.8 164L59.3 132.7C57.6 130.7 55 129.5 52.3 129.5z M52.3 64.9C52.1 64.9 51.8 64.9 51.6 64.9C48.7 65.1 46 66.8 44.5 69.3L36 83.8C33.5 88.1 34.9 93.6 39.2 96.1C43.5 98.6 49 97.2 51.5 92.9L53.5 89.5L70.8 110.7C73.9 114.6 79.6 115.1 83.5 112C87.4 108.9 87.9 103.2 84.8 99.3L59.3 68C57.6 66.1 55 64.9 52.3 64.9z" glyph-name="clipboard-file" horiz-adv-x="218.7" unicode=""/><glyph d="M144.4 266.1H136.1C133.6 278.4 122.8 287.6 109.8 287.6S86 278.4 83.5 266.1H75.2C66.3 266.1 59.1 258.9 59.1 250V207.3C59.1 204.3 61.5 201.9 64.5 201.9H155.2C158.2 201.9 160.6 204.3 160.6 207.3V250C160.6 258.9 153.3 266.1 144.4 266.1zM109.9 250C104 250 99.2 254.8 99.2 260.7S104 271.4 109.9 271.4S120.6 266.6 120.6 260.7S115.8 250 109.9 250z M188.1 0.1H31.1C14.3 0.1 0.6 13.8 0.6 30.6V224.6C0.6 241.3 14.3 255 31.1 255H63.4V231H31.1C27.5 231 24.6 228.1 24.6 224.5V30.5C24.6 26.9 27.5 24 31.1 24H188.1C191.7 24 194.6 26.9 194.6 30.5V224.5C194.6 228.1 191.7 231 188.1 231H155.8V255H188.1C204.9 255 218.6 241.3 218.6 224.5V30.5C218.6 13.8 204.9 0.1 188.1 0.1z" glyph-name="clipboard" horiz-adv-x="218.7" unicode=""/><glyph d="M309.9 35.2H299.1C292.5 35.2 287.1 40.6 287.1 47.2S292.5 59.2 299.1 59.2H309.9C336.5 59.2 358.1 80.8 358.1 107.4C358.1 133.5 337.7 154.6 311.7 155.5C311.5 155.5 311.3 155.5 311 155.5H310.2C310.1 155.5 310 155.5 309.9 155.5C309.8 155.5 309.7 155.5 309.6 155.5H283.7C280.2 155.5 276.8 157 274.6 159.7C272.3 162.4 271.3 165.9 271.9 169.4C272.6 173.7 273 178 273 182.3C273 225.7 237.7 261 194.3 261C155.2 261 121.7 231.9 116.4 193.2C115.6 187.3 110.5 182.9 104.5 182.9H86.2C85.7 182.8 85.2 182.8 84.7 182.8C50.9 182.5 23.4 154.8 23.4 121C23.4 86.9 51.1 59.2 85.2 59.2H92.5C99.1 59.2 104.5 53.8 104.5 47.2S99.1 35.2 92.5 35.2H85.2C37.9 35.2 -0.6 73.7 -0.6 121C-0.6 143.8 8.2 165.3 24.3 181.4C40 197.3 60.7 206.3 82.8 206.9C83.4 207 84 207 84.6 207H94.5C99.5 227.3 110.6 245.7 126.5 259.6C145.2 276 169.3 285.1 194.2 285.1C250.9 285.1 297 239 297 182.4C297 181.5 297 180.5 297 179.6H309.6C309.9000000000001 179.6 310.2000000000001 179.6 310.5 179.6H312.2C312.8 179.6 313.3 179.6 313.8 179.5C332.1 178.5 349.1 170.8 361.9000000000001 157.6C375.0000000000001 144.1 382.2000000000001 126.3 382.2000000000001 107.4C382.1 67.6 349.7 35.2 309.9 35.2z M199 4.3C199.3 4.6 199.7 4.9 200 5.2L263.3 68.5C268.2 73.4 268.2 81.3 263.3 86.2S250.5 91.1 245.6 86.2L203.3 43.9V173.9C203.3 180.8 197.7 186.4 190.8 186.4S178.3 180.8 178.3 173.9V43.9L136 86.2C131.1 91.1 123.2 91.1 118.3 86.2C115.9 83.8 114.6 80.6 114.6 77.4S115.8 71 118.3 68.6L181.9 4.9999999999999C186.7 0.2 194.1 0 199 4.3z" glyph-name="cloud-download" horiz-adv-x="383.7" unicode=""/><glyph d="M311.1 36.9H246.7C240.1 36.9 234.7 42.3 234.7 48.9S240.1 60.9 246.7 60.9H311.1C337.7000000000001 60.9 359.3 82.5 359.3 109.1C359.3 135.2 338.9000000000001 156.3 312.9000000000001 157.2C312.7000000000001 157.2 312.5000000000001 157.2 312.3 157.2H311.5C311.4 157.2 311.3 157.2 311.2 157.2C311.1 157.2 311 157.2 310.9 157.2H285C281.5 157.2 278.1 158.7 275.9 161.4C273.6 164.1 272.6 167.6 273.2 171.1C273.9 175.4 274.3 179.7 274.3 184C274.3 227.4000000000001 239 262.7000000000001 195.6 262.7000000000001C156.5 262.7000000000001 123 233.6 117.7 194.9C116.9 189 111.8 184.6 105.8 184.6H87.4C86.9 184.5000000000001 86.4 184.5000000000001 85.9 184.5000000000001C52.1 184.2000000000001 24.6 156.5000000000001 24.6 122.7000000000001C24.6 88.6000000000001 52.3 60.9 86.4 60.9H140.8C147.4 60.9 152.8 55.5 152.8 48.9S147.4 36.9 140.8 36.9H86.5C39.2 36.9 0.7 75.4 0.7 122.7000000000001C0.7 145.5000000000001 9.5 167.0000000000001 25.6 183.1000000000001C41.2 198.9 61.9 207.9 84 208.5C84.6 208.6 85.2 208.6 85.8 208.6H95.7C100.7 228.9 111.8 247.3 127.7 261.2C146.4 277.6 170.5 286.7 195.4 286.7C252 286.7 298.1 240.6 298.1 184C298.1 183.1 298.1 182.1 298.1 181.2H310.6C310.9000000000001 181.2 311.2000000000001 181.2 311.5 181.2H313.2C313.7 181.2 314.3 181.2 314.8 181.1C333.1 180.2 350.1 172.4 362.9000000000001 159.2C376.0000000000001 145.7 383.2000000000001 127.9 383.2000000000001 109C383.3 69.3 350.9 36.9 311.1 36.9z M183.7 181C183.4 180.7 183 180.4 182.7 180.1L119.4 116.8C114.5 111.9 114.5 104 119.4 99.1S132.2 94.2 137.1 99.1L179.4 141.4V11.4C179.4 4.5000000000001 185 -1.1 191.9 -1.1S204.4 4.5000000000001 204.4 11.4V141.4L246.7 99.1C251.6 94.2 259.5 94.2 264.4 99.1C266.8 101.5 268.1 104.7 268.1 107.9S266.9 114.3000000000001 264.4 116.7000000000001L200.8 180.3000000000001C196 185.1 188.6 185.3 183.7 181z" glyph-name="cloud-upload" horiz-adv-x="383.7" unicode=""/><glyph d="M236.8 126.1C236.8 144.4 236.8 144.5 236.8 162.9L213.2 171.3C211.3 178.6 208.3 185.6 204.7 192L215.4 214.5C202.4 227.5 202.4 227.5 189.4 240.5L166.9 229.8C160.5 233.4 153.5 236.3 146.2 238.3L137.6 262C119.3 262 119.2 262 100.8 262L92.4 238.4C85.1 236.5 78.1 233.5 71.7 229.9L49.3 240.6C36.3 227.6 36.3 227.6 23.3 214.6L34 192C30.4 185.6 27.5 178.6 25.5 171.3L1.9 162.9C1.9 144.6 1.9 144.5 1.9 126.1L25.5 117.7C27.4 110.4 30.4 103.4 34 97L23.3 74.5C36.3 61.5 36.3 61.5 49.3 48.5L71.8 59.2C78.2 55.6 85.2 52.7 92.5 50.7L101 27C119.3 27 119.4 27 137.8 27L146.2 50.6C153.5 52.5 160.5 55.5 166.9 59.1L189.4 48.4C202.4 61.4 202.4 61.4 215.4 74.4L204.8 97C208.4 103.4 211.3 110.4 213.3 117.7L236.8 126.1zM119.4 98.5C94 98.5 73.5 119.1 73.5 144.4S94.1 190.3 119.4 190.3C144.8 190.3 165.3 169.7 165.3 144.4S144.8 98.5 119.4 98.5z M358 210.2C358 220.6 358 220.7 358 231L344.6 235.8C343.5 240 341.8 243.9 339.8 247.6L345.9000000000001 260.4C338.5000000000001 267.8 338.5000000000001 267.8 331.1 275.2L318.3 269.1C314.7 271.1 310.7 272.8 306.5 273.9L301.7 287.3C291.3 287.3 291.2 287.3 280.9 287.3L276.1 273.9C271.9 272.8 268 271.1 264.3 269.1L251.6 275.2C244.2 267.8 244.2 267.8 236.8 260.4L242.9 247.6C240.9 244 239.2 240 238.1 235.8L224.6999999999999 231C224.6999999999999 220.6 224.6999999999999 220.5 224.6999999999999 210.2L238.1 205.4C239.2 201.2 240.9 197.3 242.9 193.6L236.8 180.8C244.2 173.4 244.2 173.4 251.6 166L264.4 172.1C268 170.1 272 168.4 276.2 167.3L281 154C291.4 154 291.5 154 301.8 154L306.6 167.4C310.8 168.5 314.7000000000001 170.2 318.4000000000001 172.2L331.2000000000001 166.1C338.6 173.5 338.6 173.5 346.0000000000001 180.9L339.9000000000001 193.7C341.9000000000001 197.3 343.6 201.3 344.7000000000001 205.5L358 210.2zM291.4 194.6C277 194.6 265.4 206.3 265.4 220.6S277.1 246.6 291.4 246.6C305.8 246.6 317.4 234.9 317.4 220.6S305.8 194.6 291.4 194.6z M358 56.2C358 66.6 358 66.7 358 77L344.6 81.8C343.5 86 341.8 89.9 339.8 93.6L345.9000000000001 106.4C338.5000000000001 113.8000000000001 338.5000000000001 113.8000000000001 331.1 121.2000000000001L318.3 115.1000000000001C314.7 117.1000000000001 310.7 118.8000000000001 306.5 119.9000000000001L301.7 133.3000000000001C291.3 133.3000000000001 291.2 133.3000000000001 280.9 133.3000000000001L276.1 119.9000000000001C271.9 118.8000000000001 268 117.1000000000001 264.3 115.1000000000001L251.6 121.2000000000001C244.2 113.8000000000001 244.2 113.8000000000001 236.8 106.4L242.9 93.6C240.9 90 239.2 86 238.1 81.8L224.6999999999999 77C224.6999999999999 66.6 224.6999999999999 66.5 224.6999999999999 56.2L238.1 51.4C239.2 47.2 240.9 43.3 242.9 39.6L236.8 26.8C244.2 19.4 244.2 19.4 251.6 11.9999999999999L264.4 18.1C268 16.1 272 14.4 276.2 13.3L281 0C291.4 0 291.5 0 301.8 0L306.6 13.4C310.8 14.5 314.7000000000001 16.2 318.4000000000001 18.2L331.2000000000001 12.1C338.6 19.4999999999999 338.6 19.4999999999999 346.0000000000001 26.9L339.9000000000001 39.7C341.9000000000001 43.3 343.6 47.3 344.7000000000001 51.5L358 56.2zM291.4 40.5C277 40.5 265.4 52.2 265.4 66.5C265.4 80.9 277.1 92.5 291.4 92.5C305.8 92.5 317.4 80.8 317.4 66.5C317.4 52.2 305.8 40.5 291.4 40.5z" glyph-name="cogs" horiz-adv-x="359" unicode=""/><glyph d="M274.7 30.6H11.9C6 30.6 1.2 35.4 1.2 41.3V115.2C1.2 122.1 6.6 128 13.5 128.1C20.5 128.2 26.2 122.6 26.2 115.6V66.3C26.2 60.4 31 55.6 36.9 55.6H249.7C255.6 55.6 260.4000000000001 60.4 260.4000000000001 66.3V115.2C260.4000000000001 122.1 265.8 128 272.7000000000001 128.1C279.7000000000001 128.2 285.4000000000001 122.6 285.4000000000001 115.6V41.3C285.4 35.4 280.6 30.6 274.7 30.6z M135.2 275.7C134.9 275.4 134.5 275.1 134.2 274.8L70.9 211.5C66 206.6 66 198.7 70.9 193.8S83.7 188.9 88.6 193.8L130.9 236.1V106.1C130.9 99.2 136.5 93.6 143.4 93.6S155.9 99.2 155.9 106.1V236.1L198.2 193.8C203.1 188.9 211 188.9 215.9 193.8C218.3 196.2 219.6 199.4 219.6 202.6S218.4 209 215.9 211.4L152.3 275C147.5 279.8 140.1 280 135.2 275.7z" glyph-name="download" horiz-adv-x="287.1" unicode=""/><glyph d="M227.7 20.7H13C7 20.7 2.1 25.6 2.1 31.6V141.5C2.1 148.4 7.5 154.3 14.4 154.4C21.4 154.5 27.1 148.9 27.1 141.9V56.6C27.1 50.6 32 45.7 38 45.7H202.7C208.7 45.7 213.6 50.6 213.6 56.6V221.3C213.6 227.3 208.7 232.2 202.7 232.2H120.4C113.5 232.2 107.6 237.6 107.5 244.5C107.4 251.5 113 257.2 120 257.2H227.7C233.7 257.2 238.6 252.3 238.6 246.3V31.6C238.6 25.6 233.7 20.7 227.7 20.7z M3.9 214.2C3.8 217.1 5.1 219.5 7.1 221.6C17.5 232.1 28 242.5 38.5 253C43.2 257.7 49 257.7 53.7 253.1C58.1 248.8 62.4 244.4 66.8 240.1C68 239 68.1 238.3 66.9 237.1C52.4 222.6 37.9 208.1 23.4 193.6C22.4 192.6 21.7 192.3 20.6 193.5C16 198.2 11.3 202.8 6.7 207.5C4.8 209.1 3.8 211.4 3.9 214.2z M194.4 72.3C188.1 91.6 181.7 110.8 175.4 130.1C175 131.4 174.4 132.4 173.4 133.4C142.1 164.7000000000001 110.8 196 79.5 227.4000000000001C78 228.9000000000001 77.1 229.2000000000001 75.4 227.5000000000001C61.3 213.3 47.2 199.2 33 185.1C31.2 183.3 31.4 182.4 33.1 180.8C64.4 149.6 95.6 118.4 126.8 87.1C127.8 86.1 129 85.4 130.3 85C139 82.2 147.7 79.3 156.4 76.4C166.8 73 177.3 69.5 187.7 66.1C191.5 64.8 194.6 66.7 194.7 70.7C194.7 70.8 194.6 71.6 194.4 72.3zM137.3 94C147.1 103.8 156.4 113.1 166.2 122.9C170.9 108.7 175.6 94.6 180.4 79.8C165.7 84.7 151.6 89.3 137.3 94z" glyph-name="edit" horiz-adv-x="239.5" unicode=""/><glyph d="M286.1 232.6V222.3C286.1 220.7 285.4000000000001 219.3 284.1 218.3L152.1 116.6C146.4 112.2 138.4 112.2 132.8 116.7L4.1 217.6C2.9 218.5 2.2 220 2.2 221.5V232.6C2.2 238.4 6.9 243.2 12.8 243.2H275.5C281.3 243.2 286.1 238.5 286.1 232.6z M2.2 50.8V184.5C2.2 186.1 4.1 187.1 5.4 186.1L118 97.8C125.2 92.2 133.9 89.3 142.5 89.3C151.1 89.3 159.6 92.1 166.8 97.6L282.9 187.1C284.2 188.1 286.1 187.2 286.1 185.5V50.8C286.1 45 281.4 40.2 275.5 40.2H12.8C6.9 40.3 2.2 45 2.2 50.8z" glyph-name="envelope-solid" horiz-adv-x="288" unicode=""/><glyph d="M277.2 248H11.8C5.8 248 1 243.2 1 237.2V41.8C1 35.8 5.8 31 11.8 31H277.2C283.2 31 288 35.8 288 41.8V237.2C288 243.2 283.2 248 277.2 248zM264 212.9V205.5C264 204.8 263.7 204.1 263.1 203.7L150.4 116.8C146.1 113.4 140 113.5 135.7000000000001 116.9L25.9 203C25.3 203.4 25 204.1 25 204.8V212.9C25 219 30 224 36.1 224H253C259 224 264 219 264 212.9zM25 66.1V168.3C25 170.3 27.3 171.4 28.9 170.2L120.9 98.1C127.4 93 135.3 90.4 143.1 90.4C150.8 90.4 158.6 92.9 165.1 97.9L260.1 171.2000000000001C261.7000000000001 172.4 264 171.3 264 169.3V66.1C264 60 259 55 252.9 55H36.1C30 55 25 60 25 66.1z" glyph-name="envelope" horiz-adv-x="288" unicode=""/><glyph d="M312.7 138.9C316.7 146.8 316.7 156.2 312.7 164.1C298.3 192.8 276.3 217 249.1 234C221.8 251 190.4 260.1 158.3 260.4000000000001H158.1C134.1 260.2 110.6 255.1 88.8 245.4L57.9 276.3C53.2 281 45.6 281 40.9 276.3C36.8 272.2 36.3 265.8 39.4 261.1L102 198.5C91.2 185.7 84.7 169.2 84.7 151.1C84.7 110.5 117.6 77.6 158.2 77.6C176.3 77.6 192.8 84.1 205.6 94.9L246.7 53.8C247.3 53.2 247.8 52.6 248.2 52L274.3 25.9C276.6 23.6 279.7 22.4 282.8 22.4S288.9000000000001 23.6 291.3 25.9C296 30.6 296 38.2 291.3 42.9L258.8 75.4C281.5 91.9 300.1 113.6 312.7 138.9zM242.2 92L221.1 113.1C227.8 124.2 231.7 137.2 231.7 151.1C231.7 191.7 198.8 224.6 158.2 224.6C151.7 224.6 145.4 223.8 139.4 222.2C153.5 221.3 164.6 209.6 164.6 195.3C164.6 188.2 161.8 181.7 157.3 176.8L106.4 227.7C122.9 233.9 140.4 237.2 158.1999999999999 237.3C186.0999999999999 237.1 213.2999999999999 229.2 236.8999999999999 214.4C260.5999999999999 199.6 279.7 178.7 292.0999999999999 153.7L292.0999999999999 153.6C292.7999999999999 152.2 292.7999999999999 150.6 292.0999999999999 149.1C280.6 126.1 263.4 106.5 242.2 92z M158.2 65.6C130.3 65.8 103.1 73.7 79.5 88.5C55.8 103.3 36.7 124.2 24.2 149.2C23.5 150.6 23.5 152.2 24.2 153.7C33.7 172.8 47.2 189.5 63.5 203L47.3 219.3C29.2 204.1 14.4 185.3 3.7 164C-0.3 156.1 -0.3 146.7 3.7 138.9C18 110.2 40 86 67.3 69C94.6 52 126 42.9 158.1 42.6H158.2H158.3C177.5 42.7 196.4 46.1 214.3 52.3L195.9 70.7C183.6 67.5 171 65.7 158.2 65.6z" glyph-name="eye-line" horiz-adv-x="318.1" unicode=""/><glyph d="M160.4 214.5C151.4 214.5 142.8 212.9 134.8 209.9C149 209.1 160.3 197.4 160.3 183C160.3 168.1 148.2 156.1 133.4 156.1S106.5 168.2 106.5 183C106.5 186.4 107.2 189.7 108.3 192.8C95.1 179.5 87 161.3 87 141.1C87 100.5 119.9 67.6 160.5 67.6C201.1 67.6 234 100.5 234 141.1C233.9 181.7 201 214.5 160.4 214.5z M314.9 154C300.5 182.7 278.5 206.9 251.3 223.9C224 240.9 192.6 250 160.5 250.3H160.3C128.2 250.1 96.8 240.9 69.5 223.9C42.2 206.9 20.2 182.7 5.9 154C1.9 146.1 1.9 136.7 5.9 128.9C20.3 100.2 42.3 76 69.5 59C96.8 42 128.2 32.9 160.3 32.6H160.4H160.5C192.6 32.8 224 42 251.3 59C278.6 76 300.6 100.2 314.9000000000001 128.9C318.9 136.7 318.9 146.1 314.9 154zM294.4 139.2C281.9 114.2 262.8 93.3 239.2 78.5C215.6 63.8 188.3 55.8 160.5 55.6C132.6 55.8 105.4 63.7 81.8 78.5C58.1 93.3 39 114.2 26.5 139.2C25.8 140.6 25.8 142.2 26.5 143.7C39 168.7 58.1 189.6 81.7 204.4C105.3 219.1 132.6 227.1 160.4 227.3C188.3 227.1 215.5 219.2 239.1 204.4C262.8 189.6 281.9000000000001 168.7 294.3 143.7L294.3 143.7C295.1 142.3 295.1 140.6 294.4 139.2z" glyph-name="eye" horiz-adv-x="320.9" unicode=""/><glyph d="M278 143.5C278 220.1 215.9 282.2 139.3 282.2S0.6 220.1 0.6 143.5C0.6 74.3 51.3 16.9 117.7 6.4V103.4H82.5V143.5H117.7V174.1C117.7 208.9 138.4 228.1 170.1 228.1C185.3 228.1 201.2 225.4 201.2 225.4V191.3H183.7C166.5 191.3 161.1 180.6 161.1 169.6V143.6H199.6L193.4 103.5H161.1V6.5C227.3 16.9 278 74.3 278 143.5z" glyph-name="facebook" horiz-adv-x="278" unicode=""/><glyph d="M30.4 0C23.8 0 18.4 5.4 18.4 12V275C18.4 281.6 23.8 287 30.4 287S42.4 281.6 42.4 275V12C42.4 5.4 37 0 30.4 0z M114.6 0C108 0 102.6 5.4 102.6 12V275C102.6 281.6 108 287 114.6 287S126.6 281.6 126.6 275V12C126.6 5.4 121.2 0 114.6 0z M199.3 0C192.7 0 187.3 5.4 187.3 12V275C187.3 281.6 192.7 287 199.3 287S211.3 281.6 211.3 275V12C211.3 5.4 205.9 0 199.3 0z M1.2 203.9C1.2 187.7732853049408 14.2732853049408 174.7 30.4 174.7C46.5267146950592 174.7 59.6 187.7732853049408 59.6 203.9C59.6 220.0267146950592 46.5267146950592 233.1 30.4 233.1C14.2732853049408 233.1 1.2 220.0267146950592 1.2 203.9z M85.4 79C85.4 62.8732853049408 98.4732853049408 49.8 114.6 49.8C130.7267146950592 49.8 143.8 62.8732853049408 143.8 79C143.8 95.1267146950592 130.7267146950592 108.2 114.6 108.2C98.4732853049408 108.2 85.4 95.1267146950592 85.4 79z M170.1 142.5C170.1 126.3732853049408 183.1732853049408 113.3 199.3 113.3C215.4267146950592 113.3 228.5 126.3732853049408 228.5 142.5C228.5 158.6267146950592 215.4267146950592 171.7 199.3 171.7C183.1732853049408 171.7 170.1 158.6267146950592 170.1 142.5z" glyph-name="filter" horiz-adv-x="230" unicode=""/><glyph d="M71.6 184.3L102.1 151.5C108.6 144.6 117.7 140.6 127.2 140.6H244.4V32H25.3V184.2C33.2 184.2 43.3 184.2 52.5 184.2C59.8 184.3 66.6 184.3 71.6 184.3M75.3 208.3C64.6 208.3 35.8 208.2 20.4 208.2C0.1 208.2 1.2 190.2 1.3 189.3C1.3 189.3 1.3 189.3 1.3 189.2V30C1.3 8 23.5 8 23.5 8S229.6 8 249.2 8C269.7 8 268.5 27.3 268.5 27.3S268.5 119.4 268.5 142.3C268.5 156.8 263.7 164.6 248.6 164.6C219.6 164.6 127.4 164.6 127.4 164.6C124.5 164.6 121.8 165.8 119.8 167.9L86.3 203.9C83.5 206.7 79.5 208.3 75.3 208.3L75.3 208.3z M237.9 183.1H220V262.6H37.2V225.2H19.3V267.7C19.3 274.8 25 280.5 32.1 280.5H225C232 280.5 237.8 274.8 237.8 267.7L237.9 183.1L237.9 183.1z M190.8 224.4H69.7C64.8 224.4 60.8 228.4 60.8 233.3S64.8 242.2 69.7 242.2H190.8C195.7 242.2 199.7 238.2 199.7 233.3S195.7 224.4 190.8 224.4z M190.8 188.7H126.9C122 188.7 118 192.7 118 197.6S122 206.5 126.9 206.5H190.8C195.7 206.5 199.7 202.5 199.7 197.6S195.7 188.7 190.8 188.7z" glyph-name="folder-open" horiz-adv-x="270" unicode=""/><glyph d="M71.7 222.7L102.2 189.9C108.7 183 117.8 179 127.3 179H244.5V55.4H25.4V222.6C33.3 222.6 43.4 222.6 52.6 222.6C59.9 222.7 66.7 222.7 71.7 222.7M75.4 246.7C64.7 246.7 35.9 246.6 20.5 246.6C0.2 246.6 1.3 228.6 1.4 227.7C1.4 227.7 1.4 227.7 1.4 227.6V53.4C1.4 31.4 23.6 31.4 23.6 31.4S229.7 31.4 249.3 31.4C269.8 31.4 268.6 50.7 268.6 50.7S268.6 157.8 268.6 180.7C268.6 195.2 263.8 203 248.7 203C219.7 203 127.5 203 127.5 203C124.6 203 121.9 204.2 119.9 206.3L86.4 242.3C83.6 245.1 79.6 246.7 75.4 246.7L75.4 246.7z" glyph-name="folder" horiz-adv-x="270" unicode=""/><glyph d="M246.3 177.5L176.3 247.5C172 251.8 165 251.8 160.7 247.5L131.5 218.3C127.2 214 127.2 207 131.5 202.7L154 180L7.2 33.1C0.2 26.1 0.2 14.6 7.2 7.6L7.2 7.6C14.2 0.6 25.7 0.6 32.7 7.6L179.6 154.5L201.5 132.6C205.8000000000001 128.3 212.8000000000001 128.3 217.1 132.6L246.3 161.8C250.6 166.2 250.6 173.2 246.3 177.5z M221.3 92C218.2 92 215.2 93.2 212.8 95.5C208.1 100.2 208.1 107.8 212.8 112.5L268.4000000000001 168.1C273.1 172.8 280.7000000000001 172.8 285.4000000000001 168.1C290.1 163.4 290.1 155.8 285.4000000000001 151.1L229.8000000000001 95.5C227.4 93.2 224.3 92 221.3 92z M98.2 205.6C95.1 205.6 92.1 206.8 89.7 209.1C85 213.8 85 221.4 89.7 226.1L145.3 281.7C150 286.4 157.6 286.4 162.3 281.7C167 277 167 269.4 162.3 264.7L106.7 209.1C104.4 206.8 101.3 205.6 98.2 205.6z M350.4 44H256.6C250 44 244.6 49.4 244.6 56S250 68 256.6 68H350.4C357 68 362.4 62.6 362.4 56S357.1 44 350.4 44z M367.8 10C367.8 10 367.8 10 367.8 10L233.7 10.4C227.1 10.4 221.7 15.8 221.7 22.4C221.7 29 227.1 34.4 233.7 34.4C233.7 34.4 233.7 34.4 233.7 34.4L367.7000000000001 34C374.3000000000001 34 379.7000000000001 28.6 379.7000000000001 22C379.8 15.3 374.5 10 367.8 10z" glyph-name="gavel" horiz-adv-x="380.1" unicode=""/><glyph d="M285.9 121.2C285.9 143.4 285.9 143.6 285.9 165.8L257.2 176C254.9 184.9 251.3 193.4 246.9 201.1L259.9 228.5C244.1 244.3 244.1 244.3 228.3 260.1L200.9 247.1C193.1 251.4 184.7 255 175.8 257.4L165.6 286.2C143.4 286.2 143.2 286.2 121 286.2L110.8 257.5C101.9 255.2 93.4 251.6 85.7 247.2L58.6 260.2C42.7 244.4 42.7 244.4 26.9 228.6L39.9 201.2C35.6 193.4 32 185 29.6 176.1L0.9 165.8C0.9 143.6 0.9 143.4 0.9 121.2L29.6 111C31.9 102.1 35.5 93.6 39.9 85.9L26.9 58.5C42.7 42.7 42.7 42.7 58.5 26.9L85.9 39.9C93.7 35.6 102.1 32 111 29.6L121.2 0.9999999999999C143.4 0.9999999999999 143.6 0.9999999999999 165.8 0.9999999999999L176 29.6999999999999C184.9 31.9999999999999 193.4 35.5999999999999 201.1 39.9999999999999L228.5 26.9999999999999C244.3 42.8 244.3 42.8 260.1 58.5999999999999L247.1 85.9999999999999C251.4000000000001 93.8 255.0000000000001 102.1999999999999 257.4000000000001 111.0999999999999L285.9 121.2zM143.5 87.8C112.7 87.8 87.8 112.8 87.8 143.5S112.8 199.2 143.5 199.2C174.3 199.2 199.2 174.2 199.2 143.5S174.3 87.8 143.5 87.8z" glyph-name="gear" horiz-adv-x="286" unicode=""/><glyph d="M12.9 104.5C18.2 104.5 22.6 108.9 22.6 114.2S18.2 123.9 12.9 123.9S3.2 119.5 3.2 114.2C3.3 108.7 7.6 104.5 12.9 104.5zM385.3 220.4L316.7000000000001 220.3L285.8000000000001 250.5C280.3000000000001 256 273.0000000000001 259 265.3000000000001 259H204.3000000000001C198.0000000000001 259 192.2000000000001 256.6 187.2000000000001 253C182.1000000000001 256.9000000000001 175.9000000000001 259.2 169.5000000000001 259.2H127.5000000000001C119.8000000000001 259.2 112.5000000000001 256.1 107.0000000000001 250.7L76.6 220.4H8.1C5.4 220.4 3.3 218.2 3.3 215.6V205.9C3.3 203.2 5.5 201.1 8.1 201.1H41.9V85.1H8.1C5.4 85.1 3.3 82.9 3.3 80.3V70.6C3.3 67.9 5.5 65.8 8.1 65.8H41.9C52.5 65.8 61.1 74.4 61.2 85H81.3L130.6 37.9C148.6 23.3 174 23.8 191.6 38L196 34.3C201.8000000000001 29.6 208.9 27.1 216.2 27.1C225.9 27.1 235.0000000000001 31.3 241.2 38.9L254.4 55.2C264.3 49.8 280.3 49.8 290.7 62.5000000000001L296.4 69.6000000000001C300.1 74.2000000000001 302.2 79.6000000000001 302.7 85.1000000000001H332.1C332.2 74.5000000000001 340.8 65.9000000000001 351.4 65.9000000000001H385.2C387.9 65.9000000000001 390 68.1000000000001 390 70.7000000000001V80.4000000000001C390 83.1000000000001 387.8 85.2000000000001 385.2 85.2000000000001H351.4V200.9L385.2 201C387.9 201 390 203.2 390 205.8V215.5C390.1 218.3 387.9 220.4 385.3 220.4L385.3 220.4zM281.4 81.6L275.7 74.5C272.4 70.5 266.4 69.6 262.1 73.1L251.3 81.8L226.2 51C221.7 45.4 213.5 44.8 208.4 48.9L190 64.7L183.7 57C173.6 44.6 155.3 42.7 143.4 52.2L89.1 104.2H61.3V201.1H84.6L120.4 236.9C122.2 238.7 124.7 239.7 127.2 239.7H169.2C169.7 238.4 169.4 239.3 169.9 237.9L134.2 205.1C117.2 189.4 116.3 163.3 131.7 146.5C140.3 137.1 167.1 122.7 190.3 144L204.1 156.6L280 95C284.1 91.8 284.7 85.7 281.4 81.6zM332.1 104.3H297.5C296 106.4 294.3 108.5 292.2 110.2L218.5 170L235.7 185.8C239.6 189.4 239.9 195.5 236.3 199.5C232.7 203.4 226.6 203.7 222.6 200.1L177.2 158.5C168.5 150.6 153.9 151.2 146 159.8C137.8 168.7 138.3 182.8 147.3 191L197.5 237.1C199.3 238.7 201.6 239.6 204 239.6H265C267.6 239.6 270 238.6 271.9 236.7L308.7 201H332.1V104.3L332.1 104.3zM380.4 123.7C375.1 123.7 370.7 119.3 370.7 114C370.7 108.7 375.1 104.3 380.4 104.3S390.1 108.7 390.1 114C390.1 119.4 385.7 123.7 380.4 123.7z" glyph-name="handshake" horiz-adv-x="395.1" unicode=""/><glyph d="M143.3 288C63.8 287.6 -0.4 222.8 0 143.3S65.2 -0.4 144.7 0C224.2 0.4 288.4 65.2 288 144.7C287.6 224.3 222.8 288.4 143.3 288L143.3 288z M128.4 69.9C128.4 59.6827321281303 136.6827321281304 51.4 146.9 51.4C157.1172678718697 51.4 165.4 59.6827321281303 165.4 69.9C165.4 80.1172678718697 157.1172678718697 88.4 146.9 88.4C136.6827321281304 88.4 128.4 80.1172678718697 128.4 69.9z M175.7 139.5C167.9 131 165.6 123.3 164.3 117.3C162.8 110.3 156.6 105.2 149.4 105.2H149.4C140.3 105.2 133.1 112.9 134 122C135.1 134 138.4 144.4 153.1 158.5C161.5 166.6 168.2 173.1 167.2 185.6C166.3 197.6 156.2 203.7 146.8 203.7C138.6 203.7 129.4 198.9 125.7 186.5C123.5 179 116.8 173.7 108.9 173.7H108.9C100.4 173.7 94 181.4 95.7 189.7C101 216 120.1 232.4000000000001 147.2 232.5C162.6 232.6 176 227.6 185.1 218.5C193.6 210 198 198.2 197.9 184.5C198.1 163.8 185.7 150.3 175.7 139.5z" glyph-name="help-solid" horiz-adv-x="288" unicode=""/><glyph d="M128.4 69.9C128.4 59.6827321281303 136.6827321281304 51.4 146.9 51.4C157.1172678718697 51.4 165.4 59.6827321281303 165.4 69.9C165.4 80.1172678718697 157.1172678718697 88.4 146.9 88.4C136.6827321281304 88.4 128.4 80.1172678718697 128.4 69.9z M175.7 139.5C167.9 131 165.6 123.3 164.3 117.3C162.8 110.3 156.6 105.2 149.4 105.2H149.4C140.3 105.2 133.1 112.9 134 122C135.1 134 138.4 144.4 153.1 158.5C161.5 166.6 168.2 173.1 167.2 185.6C166.3 197.6 156.2 203.7 146.8 203.7C138.6 203.7 129.4 198.9 125.7 186.5C123.5 179 116.8 173.7 108.9 173.7H108.9C100.4 173.7 94 181.4 95.7 189.7C101 216 120.1 232.4000000000001 147.2 232.5C162.6 232.6 176 227.6 185.1 218.5C193.6 210 198 198.2 197.9 184.5C198.1 163.8 185.7 150.3 175.7 139.5z M143.4 263C175.2 263.1 205.2 250.9 227.7 228.5C250.3 206.1 262.8 176.3 263 144.6C263.1 112.8 250.9 82.8 228.5 60.3C206.1 37.7 176.3 25.2 144.6 25C112.8 24.9 82.8 37.1 60.3 59.5C37.7 81.9 25.2 111.7 25 143.4C24.9 175.2 37.1 205.2 59.5 227.7C81.8 250.4 111.6 262.9 143.4 263M143.3 288C63.8 287.6 -0.4 222.8 0 143.3S65.2 -0.4 144.7 0C224.2 0.4 288.4 65.2 288 144.7C287.6 224.3 222.8 288.4 143.3 288L143.3 288z" glyph-name="help" horiz-adv-x="288" unicode=""/><glyph d="M233.2 25.1H201.7V225.6C201.7 238 191.6 248.1 179.2 248.1H162.6V275.1C162.6 281.1 157.8 285.9 151.8 285.9H95.4C89.4 285.9 84.6 281.1 84.6 275.1V248.1H67.2C54.8 248.1 44.7 238 44.7 225.6V25.1H13.2C6.6 25.1 1.2 19.7 1.2 13.1S6.6 1.1 13.2 1.1H233.2C239.8 1.1 245.2 6.5 245.2 13.1S239.8 25.1 233.2 25.1zM101.6 253.9H119.6V271.9C119.6 275.2 122.3 277.9 125.6 277.9S131.6 275.2 131.6 271.9V253.9H149.6C152.9 253.9 155.6 251.2 155.6 247.9S152.9 241.9 149.6 241.9H131.6V223.9C131.6 220.6 128.9 217.9 125.6 217.9S119.6 220.6 119.6 223.9V241.9H101.6C98.3 241.9 95.6 244.6 95.6 247.9S98.3 253.9 101.6 253.9zM68.7 220.5C68.7 222.5 70.3 224.1 72.3 224.1H84.6V218.7C84.6 212.7 89.4 207.9 95.4 207.9H151.8C157.8 207.9 162.6 212.7 162.6 218.7V224.1H174.1C176.1 224.1 177.7 222.5 177.7 220.5V25.1H137.8V59H107.1V25.1H68.7V220.5z M87.5 193.1H114.5V170.1H87.5V193.1z M129.5 193.1H156.5V170.1H129.5V193.1z M87.5 149.1H114.5V126.1H87.5V149.1z M129.5 149.1H156.5V126.1H129.5V149.1z M87.5 105.1H114.5V82.1H87.5V105.1z M129.5 105.1H156.5V82.1H129.5V105.1z" glyph-name="hospital" horiz-adv-x="247" unicode=""/><glyph d="M156.3 203.4L53.7 118.9V27.7C53.7 22.8 57.7 18.8 62.6 18.8L125 19C129.9 19 133.9 23 133.9 27.9V81.2C133.9 86.1 137.9 90.1 142.8 90.1H178.4C183.3 90.1 187.3 86.1 187.3 81.2V28C187.3 23.1 191.3 19.1 196.2 19.1C196.2 19.1 196.2 19.1 196.2 19.1L258.5 18.9C263.4 18.9 267.4 22.9 267.4 27.8V119L164.8 203.4C162.3 205.4 158.7 205.4 156.3 203.4L156.3 203.4zM318.3 146L271.8 184.3V261.4C271.8 265.1 268.8 268.1 265.1 268.1H234C230.3 268.1 227.3 265.1 227.3 261.4V221L177.5 262C167.6 270.1 153.4 270.1 143.6 262L2.7 146C-0.1 143.7 -0.5 139.4 1.8 136.6C1.8 136.6 1.8 136.6 1.8 136.6L16 119.3C18.3 116.5 22.6 116 25.4 118.4C25.4 118.4 25.4 118.4 25.4 118.4L156.3 226.2C158.8 228.2 162.3 228.2 164.8 226.2L295.7000000000001 118.4C298.5000000000001 116 302.8000000000001 116.4 305.1 119.3C305.1 119.3 305.1 119.3 305.1 119.3L319.3 136.5C321.6 139.4 321.2 143.6 318.3 146C318.3 146 318.3 146 318.3 146L318.3 146z" glyph-name="house" horiz-adv-x="321" unicode=""/><glyph d="M143.3 288C63.8 287.6 -0.4 222.8 0 143.3S65.2 -0.4 144.7 0C224.2 0.4 288.4 65.2 288 144.7C287.6 224.3 222.8 288.4 143.3 288L143.3 288z M113.8 168C164.5 185.7 151.3 181.4 162 183.5C151 79.2 150 80.6 153.3 78.4C159.1 73.5 167.2 92.4 170.2 99.2C171.8 98.6 173.3 98 174.8 97.4C168.9 81.3 159.4 62.6 142.8 58.3C130.1 55.2 121.6 61.9 120.3 71C119.5 76.3 120.2 81.6 120.8 86.8C127.7 150.5 128.1 151 127.5 157.2C127.4 160.4 124.7 163.1 121.6 163.6C118.7 164.2 115.8 163.1 112.9 162.7C113.3 164.5 113.6 166.2 113.8 168z M132.5 213.6C132.5 204.2663877278596 140.0663877278596 196.7 149.4 196.7C158.7336122721404 196.7 166.3 204.2663877278596 166.3 213.6C166.3 222.9336122721404 158.7336122721404 230.5 149.4 230.5C140.0663877278596 230.5 132.5 222.9336122721404 132.5 213.6z" glyph-name="info-solid" horiz-adv-x="288" unicode=""/><glyph d="M143.4 263C175.2 263.1 205.2 250.9 227.7 228.5C250.3 206.1 262.8 176.3 263 144.6C263.1 112.8 250.9 82.8 228.5 60.3C206.1 37.7 176.3 25.2 144.6 25C112.8 24.9 82.8 37.1 60.3 59.5C37.7 81.9 25.2 111.7 25 143.4C24.9 175.2 37.1 205.2 59.5 227.7C81.8 250.4 111.6 262.9 143.4 263M143.3 288C63.8 287.6 -0.4 222.8 0 143.3S65.2 -0.4 144.7 0C224.2 0.4 288.4 65.2 288 144.7C287.6 224.3 222.8 288.4 143.3 288L143.3 288z M113.8 168C164.5 185.7 151.3 181.4 162 183.5C151 79.2 150 80.6 153.3 78.4C159.1 73.5 167.2 92.4 170.2 99.2C171.8 98.6 173.3 98 174.8 97.4C168.9 81.3 159.4 62.6 142.8 58.3C130.1 55.2 121.6 61.9 120.3 71C119.5 76.3 120.2 81.6 120.8 86.8C127.7 150.5 128.1 151 127.5 157.2C127.4 160.4 124.7 163.1 121.6 163.6C118.7 164.2 115.8 163.1 112.9 162.7C113.3 164.5 113.6 166.2 113.8 168z M132.5 213.6C132.5 204.2663877278596 140.0663877278596 196.7 149.4 196.7C158.7336122721404 196.7 166.3 204.2663877278596 166.3 213.6C166.3 222.9336122721404 158.7336122721404 230.5 149.4 230.5C140.0663877278596 230.5 132.5 222.9336122721404 132.5 213.6z" glyph-name="info" horiz-adv-x="288" unicode=""/><glyph d="M127.9 208.8C92.1 208.8 63.1 179.9 63.1 144C63.1 108.2 92 79.2 127.9 79.2S192.7 108.1 192.7 144C192.6 179.9 163.7 208.8 127.9 208.8zM127.9 101.9C104.7 101.9 85.8 120.8 85.8 144S104.7 186.1 127.9 186.1S170 167.1 170 144S151 101.9 127.9 101.9L127.9 101.9zM210.4 211.4C210.4 203 203.6 196.3 195.3 196.3C186.9 196.3 180.2 203.1 180.2 211.4S187 226.5 195.3 226.5S210.4 219.8 210.4 211.4zM253.3 196C252.3 216.2 247.7 234.2 232.9 248.9C218.1 263.7 200.2 268.3 180 269.3C159.1 270.5 96.6 270.5 75.8 269.3C55.6 268.3 37.7 263.7 22.9 249C8.1 234.2 3.5 216.4 2.5 196.1C1.3 175.2 1.3 112.7 2.5 91.9C3.5 71.7 8.1 53.7 22.9 39C37.7 24.2 55.6 19.6 75.8 18.6C96.7 17.4 159.2 17.4 180 18.6C200.2 19.6 218.2 24.2 232.9 39C247.7 53.8 252.3 71.7 253.3 91.9C254.5 112.8 254.5 175.3 253.3 196L253.3 196zM226.3 69.5C221.9 58.5 213.4 49.9 202.3 45.5C185.7 38.9 146.2 40.4 127.8 40.4S69.9 38.9 53.3 45.5C42.3 49.9 33.7 58.4 29.3 69.5C22.7 86.1 24.2 125.6 24.2 144S22.7 202 29.3 218.5C33.7 229.5 42.2 238.1 53.3 242.5C69.9 249.1 109.4 247.6 127.8 247.6S185.7 249.1 202.3 242.5C213.3 238.1 221.9 229.6 226.3 218.5C232.9 201.9 231.4 162.4 231.4 144C231.4 125.7 232.9 86.2 226.3 69.5z" glyph-name="instagram" horiz-adv-x="254" unicode=""/><glyph d="M66.6 68H40.2V55.6C40.2 53.6 40.6 46.5 44.6 41.8C48.2 37.5 54 36.2 58.1 35.8C58.3 34.3 58.7 31.9 60.2 30.2C62.5 27.4 66.8 27.1 68.6 27.1V31.7L68.6 31.7L68.6 27.1H71.2L83 27.1C84.7 27.1 89 27.4 91.3 30.2C92.8 31.9 93.3 34.3 93.4 35.8C97.5 36.2 103.3 37.6 106.9 41.8C110.9 46.6 111.3 53.6 111.3 55.7V68H84.9H66.6z M75.8 253C34.3 253 0.5 219.2 0.5 177.7C0.5 165.3 3.6 153.5 9.8 141.7C9.8 141.7 9.8 141.6 9.9 141.6C9.9 141.5 10.2 141 10.7 140.1C11.2 139.2 11.7 138.2 12.3 137.3C12.5 136.9 12.8 136.6 13.1 136.2C14.4 134.1 16.2 131.6 18.3 128.9C19.6 127.2 21.1 125.4 22.6 123.5C27.6 117.3 33.9 109.5 35.6 105.1C39.6 94.7 40.3 86.9 40.3 86.9L41 78.5H75.9H110.8L111.5 86.9C111.5 87 112.2 94.7 116.2 105.1C117.9 109.5 124.1 117.2 129.2 123.5C130.7 125.4 132.2 127.2 133.5 128.9C135.6 131.6 137.4 134.1 138.7 136.2C139 136.5 139.2 136.9 139.5 137.3C140.1 138.2 140.6 139.2 141.1 140.1C141.6 141 141.9 141.5 141.9 141.6C141.9 141.6 141.9 141.7 142 141.7C148.3000000000001 153.5 151.3000000000001 165.4 151.3000000000001 177.7C151.1 219.2 117.3 253 75.8 253zM76.7 207.9C63.6 203.7 53.3 192.9 50 179.5C49.3 176.6 46.6 174.6 43.7 174.6C43.2 174.6 42.6 174.7 42.1 174.8C38.6 175.7 36.5 179.2 37.4 182.7C41.9 200.3 55.4 214.7 72.8 220.2C76.2 221.3 79.9 219.4 81 216C82 212.7 80.1 209 76.7 207.9z" glyph-name="light-bulb-off" horiz-adv-x="152.7" unicode=""/><glyph d="M139.2 202.1C167.5 202.1 190.5 179.1 190.5 150.8C190.5 142.3 188.4 134.4 184 126L183.8 125.6L183.7 125.4C183.6 125.3 183.6 125.2 183.5 125L183.4 124.9L183.3000000000001 124.8C183.1000000000001 124.4 182.8000000000001 123.9 182.6000000000001 123.6L182.5000000000001 123.4L181.8000000000001 122.3000000000001C180.6000000000001 120.4 179.3000000000001 118.6000000000001 177.9000000000001 116.8000000000001C176.6000000000001 115.2000000000001 175.2000000000001 113.4 173.8000000000001 111.7000000000001C165.8000000000001 101.8 159.9000000000001 94.2000000000001 157.1000000000001 86.8C155.5000000000001 82.7000000000001 154.4000000000001 78.9 153.5000000000001 75.6000000000001H139.3000000000001H125C124.1 78.9000000000001 122.9 82.7000000000001 121.4 86.8C118.6 94.2000000000001 112.7 101.8 104.7 111.7000000000001C103.3 113.4 101.8 115.2000000000001 100.6 116.8000000000001C99.2 118.6000000000001 97.9 120.4 96.7 122.3000000000001L96 123.4L95.9 123.6C95.7 124 95.4 124.4 95.2 124.8L95.1 124.9L95 125C94.9 125.2 94.8 125.3 94.8 125.4L94.7 125.6L94.5 125.9C90 134.3 88 142.2 88 150.7C87.9 179 110.9 202.1 139.2 202.1M139.2 226.1C97.7 226.1 63.9 192.3 63.9 150.8C63.9 138.4 67 126.6 73.2 114.8C73.2 114.8 73.2 114.7 73.3 114.7C73.3 114.6 73.6 114.1 74.1 113.2C74.6 112.3 75.1 111.3 75.7 110.4C75.9 110 76.2 109.7 76.5 109.3C77.8 107.2 79.6 104.7 81.7 102C83 100.3 84.5 98.5 86 96.6C91 90.4 97.3 82.6 99 78.2C103 67.8 103.7 60 103.7 60L104.4 51.6H139.3H174.2L174.9 60C174.9 60.1 175.6 67.8 179.6 78.2C181.3 82.6 187.5 90.3 192.6 96.6C194.1 98.5 195.6 100.3 196.9 102C199 104.7 200.8 107.2 202.1 109.3C202.4 109.6 202.6 110 202.9 110.4C203.5 111.3 204 112.3 204.5 113.2C205 114.1 205.3 114.6 205.3 114.7C205.3 114.7 205.3 114.8 205.4 114.8C211.7 126.6 214.7 138.5 214.7 150.8C214.5 192.3 180.7 226.1 139.2 226.1L139.2 226.1z M130.1 41.1H103.7V28.7C103.7 26.7 104.1 19.6 108.1 14.9C111.7 10.6 117.5 9.3 121.6 8.9C121.8 7.4 122.2 5 123.7 3.3C126 0.4999999999999 130.3 0.1999999999999 132.1 0.1999999999999V4.8L132.1 4.8L132.1 0.1999999999999H134.7L146.5 0.1999999999999C148.2 0.1999999999999 152.5 0.4999999999999 154.8 3.3C156.3 4.9999999999999 156.8 7.4 156.9 8.9C161 9.3 166.8 10.7 170.4 14.9C174.4 19.7 174.8 26.7 174.8 28.8V41.1H148.4H130.1z M138.2 193.7C137.5 193.7 136.9 193.6 136.2 193.4C118.8 187.9 105.3 173.5 100.8 155.9C99.9 152.4 102 148.9 105.5 148C106 147.9 106.6 147.8 107.1 147.8C110 147.8 112.7 149.8 113.4 152.7C116.8 166 127 176.9 140.1 181.1C143.5 182.2 145.4 185.8 144.3 189.3C143.5 192 141 193.7 138.2 193.7L138.2 193.7z M139.1 241.6C144.2 241.6 148.3 245.7 148.3 250.8V277.7C148.3 282.8 144.2 286.9 139.1 286.9S129.9 282.8 129.9 277.7V250.8C130 245.7 134.1 241.6 139.1 241.6z M60.8 214.5C62.6 212.7 64.9 211.8 67.3 211.8C69.6 211.8 72 212.7 73.8 214.5C77.4 218.1 77.4 223.9 73.8 227.5L54.8 246.5C51.2 250.1 45.4 250.1 41.8 246.5C38.2 242.9 38.2 237.1 41.8 233.5L60.8 214.5z M46.6 149.1C46.6 154.2 42.5 158.3 37.4 158.3H10.5C5.4 158.3 1.3 154.2 1.3 149.1C1.3 144 5.4 139.9 10.5 139.9H37.4C42.5 140 46.6 144.1 46.6 149.1z M60.7 83.7L41.7 64.7C38.1 61.1 38.1 55.3 41.7 51.7C43.5 49.9 45.8 49 48.2 49C50.5 49 52.9 49.9 54.7 51.7L73.7 70.7C77.3 74.3 77.3 80.1 73.7 83.7C70.1 87.3 64.3 87.3 60.7 83.7z M217.4 83.7C213.8 87.3 208 87.3 204.4 83.7C200.8 80.1 200.8 74.3 204.4 70.7L223.4 51.7C225.2 49.9 227.5 49 229.9 49C232.2 49 234.6 49.9 236.4 51.7C240 55.3 240 61.1 236.4 64.7L217.4 83.7z M267.7 158.2H240.8C235.7 158.2 231.6 154.1 231.6 149C231.6 143.9 235.7 139.8 240.8 139.8H267.7C272.8 139.8 276.9 143.9 276.9 149C276.8 154.1 272.7 158.2 267.7 158.2z M211 211.8C213.3 211.8 215.7 212.7 217.5 214.5L236.5 233.5C240.1 237.1 240.1 242.9 236.5 246.5C232.9 250.1 227.1 250.1 223.5 246.5L204.5 227.5C200.9 223.9 200.9 218.1 204.5 214.5C206.3 212.7 208.6 211.8 211 211.8z" glyph-name="light-bulb-on" horiz-adv-x="279" unicode=""/><glyph d="M272.8 285.2C272.4000000000001 285.2 271.9000000000001 285.3 271.4000000000001 285.3H181.9C175 285.3 169.4 279.7 169.4 272.8S175 260.3 181.9 260.3H241.7000000000001L98.5 117C93.6 112.1 93.6 104.2 98.5 99.3S111.3 94.4 116.2 99.3L259.4 242.6V182.8C259.4 175.9 265 170.3 271.9 170.3C275.4 170.3 278.5 171.7 280.7 174C283 176.3 284.4 179.4 284.4 182.8V272.8C284.5 279.4 279.3 284.8 272.8 285.2z M248.5 3.1H12.7C6.8 3.1 2.1 7.9 2.1 13.7V249.5C2.1 255.4 6.9 260.1 12.7 260.1H140.6C147.5 260.1 153.4 254.7 153.5 247.8C153.6 240.8 148 235.1 141 235.1H37.7C31.8 235.1 27.1 230.3 27.1 224.5V38.7C27.1 32.8 31.9 28.1 37.7 28.1H223.5C229.4 28.1 234.1 32.9 234.1 38.7V150.1C234.1 157 239.5 162.9 246.4 163C253.4 163.1 259.1 157.5 259.1 150.5V13.7C259.1 7.9 254.4 3.1 248.5 3.1z" glyph-name="link-external" horiz-adv-x="286.8" unicode=""/><glyph d="M111.2 101.4C113.6 98.3 117.2 96.6 120.8 96.6C123.3 96.6 125.8 97.4 128 99L218.4 166.9C223.7 170.9 224.8 178.4 220.8 183.7C216.8 189 209.3 190.1 204 186.1L113.6 118.2C108.3 114.3 107.2 106.7 111.2 101.4z M152.7 100.8C152.3 90.2 147.4 79.8 138.3 73L88.2 35.4C72.2 23.4 49.5 26.7 37.5 42.6L34.1 47.1C28.3 54.8 25.8 64.4 27.2 74S33.6 92.1 41.3 97.9L91.4 135.5C97.9 140.4 105.5 142.7 113.1 142.7C116 142.7 119 142.3 121.8 141.6L143.9 158.2C123.5 170.3 97 169.7 76.9 154.6L26.9 117C0.3 97.1 -5.1 59.2 14.9 32.7L18.3 28.2C30.1 12.5 48.2 4.1 66.5 4.1C79.1 4.1 91.8 7.9999999999999 102.6 16.1L152.7 53.7H152.7C172.9 68.8 180.8 94.2 174.8 117.2L152.7 100.8z M322.5 256.5L319.1 261C309.4000000000001 273.9 295.4000000000001 282.2 279.4000000000001 284.5C263.5000000000001 286.8 247.6 282.7 234.8000000000001 273L184.7000000000001 235.4C164.6000000000001 220.3 156.6000000000001 195 162.6000000000001 172.1L184.7000000000001 188.7C185.1000000000001 199.2 190.1000000000001 209.4 199.1000000000001 216.2L249.2000000000001 253.8C255.5000000000001 258.6 263.1 261.1 270.9000000000001 261.1C272.6 261.1 274.4000000000001 261 276.1 260.7C285.7000000000001 259.3 294.2000000000001 254.3 300 246.6L303.4 242.1C309.2 234.4 311.7 224.8 310.3 215.2C308.9 205.6 303.9 197.1 296.2 191.3L246 153.8C238.3 148 228.7 145.5 219.1 146.9C217.8 147.1 216.4 147.4 215.1 147.7L193.1 131.2C202.6 125.5 213.4 122.6 224.2 122.6C236.8 122.6 249.5 126.5 260.3 134.6L310.4000000000001 172.2H310.4000000000001C323.3 181.9 331.6 195.9 333.9000000000001 211.9S332.2 243.7 322.5 256.5z" glyph-name="link" horiz-adv-x="336" unicode=""/><glyph d="M236.2 267.8H19.9C10 267.8 1.9 259.6 1.9 249.6V33.7C1.9 23.7 10 15.5 19.9 15.5H236.2C246.1 15.5 254.2 23.7 254.2 33.7V249.7C254.2 259.7 246.1 267.8 236.2 267.8zM78.2 51.6H40.8V172H78.2V51.6L78.2 51.6zM59.5 188.5C47.5 188.5 37.8 198.2 37.8 210.2C37.8 222.1 47.5 231.9 59.5 231.9C71.4 231.9 81.2 222.2 81.2 210.2C81.2 198.1 71.5 188.5 59.5 188.5zM218.3 51.6H180.9V110.2C180.9 124.2 180.6 142.1 161.5 142.1C142 142.1 139 126.9 139 111.2V51.6H101.6V172H137.5V155.6H138C143 165.1 155.2 175 173.4 175C211.2 175 218.3 150.1 218.3 117.6V51.6z" glyph-name="linkedin" horiz-adv-x="256" unicode=""/><glyph d="M224.8 140.1V26H24.4V140.1H224.8M236.8 164.1H12.4C5.8 164.1 0.4 158.7 0.4 152.1V14C0.4 7.4 5.8 2 12.4 2H236.9C243.5 2 248.9 7.4 248.9 14V152.1C248.8 158.7 243.4 164.1 236.8 164.1L236.8 164.1z M311.7 151.1C305.1 151.1 299.7 156.5 299.7 163.1V200.3C299.7 234.7 271.7 262.7 237.3 262.7S174.9 234.7 174.9 200.3V163.1C174.9 156.5 169.5 151.1 162.9 151.1S150.9 156.5 150.9 163.1V200.3C150.9 247.9 189.6 286.7 237.3 286.7S323.7 248 323.7 200.3V163.1C323.7 156.5 318.3 151.1 311.7 151.1z M124.6 61.7C118 61.7 112.6 67.1 112.6 73.7V106.6C112.6 113.2 118 118.6 124.6 118.6C131.2 118.6 136.6 113.2 136.6 106.6V73.7C136.6 67.1 131.2 61.7 124.6 61.7z" glyph-name="lock-open" horiz-adv-x="325.6" unicode=""/><glyph d="M225.7 140.2V26.1H25.3V140.2H225.7M237.7 164.2H13.3C6.7 164.2 1.3 158.8 1.3 152.2V14.1C1.3 7.5 6.7 2.1 13.3 2.1H237.8C244.4 2.1 249.8 7.5 249.8 14.1V152.2C249.7 158.8 244.3 164.2 237.7 164.2L237.7 164.2z M211.8 163.2H187.8V200.4C187.8 234.8 159.8 262.8 125.4 262.8S63 234.8 63 200.4V163.2H39V200.4C39 248 77.7 286.8 125.4 286.8S211.8 248.1 211.8 200.4V163.2z M125.5 61.8C118.9 61.8 113.5 67.2 113.5 73.8V106.7C113.5 113.3 118.9 118.7 125.5 118.7S137.5 113.3 137.5 106.7V73.8C137.5 67.2 132.1 61.8 125.5 61.8z" glyph-name="lock" horiz-adv-x="251.3" unicode=""/><glyph d="M211 240.3V153.8C211 128.8 210.8 112.9 210.3 106.2C209.9 99.4 208.8 95.3 207.1 93.7C205.4 92.1 201.2 91.2 194.5 90.9L186 90.6V78.6C207.1 79.3 223.9 79.6 236.2000000000001 79.6C248.4000000000001 79.6 262.3000000000001 79.3 277.9000000000001 78.6V90.6C265.7000000000001 91.6 258.9000000000001 92.5 257.7000000000001 93.3C256.4000000000001 94.1 255.5000000000001 95.2 254.8000000000001 96.6C253.8000000000001 99.1 253.1000000000001 109.8 252.8000000000001 128.7S252.3000000000001 165.5 252.3000000000001 182.5C252.3000000000001 216.2 252.6000000000001 239.1 253.3000000000001 251.1C253.8000000000001 258.5 254.8000000000001 262.9 256.5000000000001 264.3C258.2000000000001 265.7 265.3000000000001 266.8 277.9000000000001 267.6V279.6C266.6 279.1 254.8000000000001 278.9 242.6 278.9C232.3 278.9 221.3 279.1 209.8 279.6C196.7 248.8 173.8 200.7 141 135.4C110 199 92.5 235 88.6 243.5C83 255.4 77.6 267.5 72.4 279.6C60.4 279.3 47.9 279.2 34.9 279.2C23.7 279.2 12.3 279.3 0.7 279.6V267.6C12.8 266.8 19.7 266 21.2 265.2C22.8 264.4 23.8 263.4 24.4 262.2C25.5 259.7 26.2 252.9 26.3 241.6C26.4 223 26.5 206.4 26.5 191.8C26.5 164.3 26.2 138.8 25.5 115.2C25.2 103.7 24.2 96.9 22.4 94.9C20.7 92.9 16.3 91.7 9.3 91.3L0.7 90.7V78.7C12.1 79.4 25.1 79.7 39.6 79.6C49.4 79.6 59.2 79.3 69 78.6V90.6C56.6 91.1 49.4 92.4 47.5 94.3C45.6 96.2 44.5 101.3 44.2 109.5C43.7 129.8 43.5 166.9 43.5 220.7V240.2L93.5 138.3C105.7 113.2 115.4 92.4 122.6 76H132.1C137.4 88.5 144.8 104.5 154.2 124.2C177.2 172.1 196.2 210.8 211 240.3z M153.1 57.6H146.7C145.3 57.6 144.2 56.5 144.2 55.1V52.2C144.2 50.8 145.3 49.7 146.7 49.7H153.1C154.5 49.7 155.6 50.8 155.6 52.2V55.1C155.6 56.5 154.5 57.6 153.1 57.6z M166.1 57.6H159.7C158.3 57.6 157.2 56.5 157.2 55.1V52.2C157.2 50.8 158.3 49.7 159.7 49.7H166.1C167.5 49.7 168.6 50.8 168.6 52.2V55.1C168.6 56.5 167.5 57.6 166.1 57.6z M179.6 57.6H173.2C171.8 57.6 170.7 56.5 170.7 55.1V52.2C170.7 50.8 171.8 49.7 173.2 49.7H179.6C181 49.7 182.1 50.8 182.1 52.2V55.1C182.1 56.5 181 57.6 179.6 57.6z M192.9 57.6H186.5C185.1 57.6 184 56.5 184 55.1V52.2C184 50.8 185.1 49.7 186.5 49.7H193C194.3 49.7 195.5 50.8 195.4 52.2V55.1C195.4 56.5 194.3 57.6 192.9 57.6z M445 57.6H438.6C437.2000000000001 57.6 436.1 56.5 436.1 55.1V52.2C436.1 50.8 437.2000000000001 49.7 438.6 49.7H445C446.3 49.7 447.5 50.8 447.5 52.2V55.1C447.5 56.5 446.4 57.6 445 57.6z M431.5 57.6H425.1C423.7000000000001 57.6 422.6 56.5 422.6 55.1V52.2C422.6 50.8 423.7000000000001 49.7 425.1 49.7H431.5C432.9 49.7 434 50.8 434 52.2V55.1C434 56.5 432.9 57.6 431.5 57.6z M458.4 57.6H452C450.6 57.6 449.5 56.5 449.5 55.1V52.2C449.5 50.8 450.6 49.7 452 49.7H458.4C459.8 49.7 460.9 50.8 460.9 52.2V55.1C460.9 56.5 459.8 57.6 458.4 57.6z M471.8 57.6H465.4C464.0000000000001 57.6 462.9 56.5 462.9 55.1V52.2C462.9 50.8 464.0000000000001 49.7 465.4 49.7H471.8C473.2 49.7 474.3 50.8 474.3 52.2V55.1C474.3 56.5 473.2 57.6 471.8 57.6z M417.9 57.5L349.2 57.6L340.7 88.1C340.4 89.2 339.4 89.9 338.3 89.9S336.2 89.1 335.9000000000001 88L329.3 61.3L318.7 127C318.5 128.2 317.4 129.1 316.2 129.1C315 129.1 313.9 128.1 313.8 126.9L306.4000000000001 55.3L298.8 95.7C298.5 96.8 297.5 97.7 296.3 97.7S294 96.9 293.8 95.7L286.5 57.6H199.9C198.5 57.6 197.4 56.5 197.4 55.1V52.2C197.4 51.5 197.6 50.8 198.1 50.4S199.2 49.7 199.9 49.7H291.2C292.4 49.7 293.5 50.5 293.7 51.7L296.4 66L299.1 52.3L304.4 6.9C304.6 5.6 305.6 4.7 306.9 4.7C308.2 4.7 309.3 5.7 309.3 6.8000000000001L317.4 85.1000000000001L325.7 33.4000000000001C325.9 32.2000000000001 326.9 31.3000000000001 328.1 31.3000000000001C329.2 31.3000000000001 330.3 32.0000000000001 330.6 33.2000000000001L338.6 65.9000000000001L342.6 51.4000000000001C342.9 50.4000000000001 343.9 49.6000000000001 345 49.6000000000001H417.9C419.3 49.6000000000001 420.4 50.7000000000001 420.4 52.1000000000001V55C420.4 56.4 419.3 57.5 417.9 57.5z M487 98.8C478.1 96.6 468.5 95.6 458.3 95.6C432 95.6 411.2 103.4 396.1 119.1C379.8 136 371.6 158.1 371.6 185.4C371.6 210.6 378.4000000000001 230.3 392 244.4000000000001S423.9 265.6 447 265.6C456.7 265.6 465.6 264.4000000000001 473.6 262.2000000000001C481.6 260 488 257.1 492.7 253.5000000000001C497.4 249.9000000000001 500.0000000000001 247.4000000000001 500.6 245.9000000000001C501.1 244.4000000000001 501.7 236.1 502.3 221H514.4C515.1 233.4000000000001 516.1 243.7000000000001 517.4 252.0000000000001C518.1 256.8 519.3 261.7000000000001 521.1 266.9000000000001L520.1 269.1C508.1 273.6 496 276.9000000000001 483.8 279.1C471.6 281.3 459.3 282.4000000000001 446.9000000000001 282.4000000000001C409.5 282.4 380.2 273 359 254C337.8 235 327.2 210.7 327.2 181C327.2 160.3 331.9 142.1 341.3 126.1C350.7 110.2 364.1 97.8 381.5 89C399 80.2 420.3 75.8 445.5 75.8C458.9 75.8 470.9 77.1 481.2 79.5C491.6 81.9 502.3 86.1 513.5 91.9C515.4 96.9 517.6 101.7 520.1 106.5L516.5 109.8C505.7 104.5 495.9 100.8 487 98.8z" glyph-name="medicareful" horiz-adv-x="523" unicode=""/><glyph d="M171 102H111.7L142.9 25.9C145.1 20.6 142.6 14.7 137.6 12.5L110.1 0.5C105 -1.7 99.2 0.8 97 5.9L67.3 78.1L18.8 28.2C12.3 21.6 1.9 26.7 1.9 35.4V275.9C2 285.1 13.1 289.5 18.9 283.1L178 119.4C184.4 113.2 179.7 102 171 102L171 102z" glyph-name="mouse-pointer" horiz-adv-x="182" unicode=""/><glyph d="M254.5 70.3C283.4 93 299.3 123.5 299.3 156.1S283.4000000000001 219.2 254.5 241.9000000000001C226.4 264 189.3 276.2 150 276.2C110.7 276.2 73.5 264 45.5 242C16.6 219.2 0.7 188.7 0.7 156.1C0.7 112.8 29.5 73 76.1 51.7C74.3 45.5 69.8 40 62.6 35.2C53.3 28.9 43.1 26.4 43 26.4C38.8 25.4 35.9 21.6 36.1 17.3C36.3 12.9999999999999 39.5 9.4 43.7 8.8C44.3 8.6999999999999 54.5 7.1999999999999 68.7 7.1999999999999C74.5 7.1999999999999 81 7.4999999999999 87.8 8.1999999999999C115.5 11.1999999999999 136.5 20.8 149.1 36.1999999999999C149.4 36.1999999999999 149.6 36.1999999999999 149.9 36.1999999999999C189.3 36.1 226.4 48.2 254.5 70.3zM86.3 26C83.9 25.7 81.6 25.5 79.3 25.4C88.9 33.9 95.9 45.7 94.9 61.1C95 62.3 94.8 63.6 94.5 64.7C94.5 64.7 94.5 64.7 94.5 64.7L94.5 64.7C93.6 68.1 91.2 71.1 87.7 72.6C48.8 89.8 24.6 121.7 24.6 155.9C24.6 208.9 80.8 251.9 149.9 251.9S275.2 208.8 275.2 155.9S219 59.9 149.9 59.9C144.9 59.9 140.7 56.9 138.9 52.6C128.1 34.3 104.4 28 86.3 26z M389 138C389 181.6 346.5 217.6 291.2 223.4C308.9 203.3 318.4 179.3 318.4 154.1C318.4 121.5 302.5 91 273.6 68.3C266.7 62.8 259.1 58 251.2 53.8C259 52.5 267.1 51.8 275.4 51.8C284.7 51.8 293.6 52.6 302.3 54.2C331 29.5 362.7 30.1 362.7 30.1S342 40.4 331.5 63C365.9 77.8 389 105.8 389 138z M77.6 155.9C77.6 146.4559307778934 85.2559307778934 138.8 94.7 138.8C104.1440692221066 138.8 111.8 146.4559307778934 111.8 155.9C111.8 165.3440692221066 104.1440692221066 173 94.7 173C85.2559307778934 173 77.6 165.3440692221066 77.6 155.9z M131.3 155.9C131.3 146.4559307778934 138.9559307778934 138.8 148.4 138.8C157.8440692221066 138.8 165.5 146.4559307778934 165.5 155.9C165.5 165.3440692221066 157.8440692221066 173 148.4 173C138.9559307778934 173 131.3 165.3440692221066 131.3 155.9z M188.1 155.9C188.1 146.4559307778934 195.7559307778934 138.8 205.2 138.8C214.6440692221066 138.8 222.3 146.4559307778934 222.3 155.9C222.3 165.3440692221066 214.6440692221066 173 205.2 173C195.7559307778934 173 188.1 165.3440692221066 188.1 155.9z" glyph-name="multi-speach-bubble" horiz-adv-x="390.7" unicode=""/><glyph d="M74.7 10.5C72.2 10.5 69.8 10.6 67.3 10.9C37.5 14 16.6 31.3 4.9 62.3C-9.9 101.7 23.7 137.7 25.2 139.2C29.5 143.8 131.8 251.4 144.2 263.9C153.3 273 170.6 281.2 188.7 279.1C199 277.9 213.4 273 224 256.1C241.4 228.3 225.4 200.3 214.4 189.3L118.3 90.9C113.7 86.2 106.1 86.1 101.3 90.7C96.6 95.3 96.5 102.9 101.1 107.7L197.4 206.2C197.4 206.2 202.4 211.3 205.4 218.9C209 227.7 208.4 235.8 203.6 243.4C199.1 250.6 193.4 254.5 186 255.3C176.4 256.4 166.1 251.8 161.2 246.9C149 234.7 43.7 123.8 42.6 122.7C42.4 122.5 17.9 96 27.4 70.8C35.8 48.4 49.3 37 69.8 34.8C88.7 32.8 110.8 42.4 132.2 61.8C156.5 83.9 198 126.5 198.4 126.9C203 131.7 210.6 131.8 215.4 127.1C220.1 122.5 220.2 114.9 215.6 110.1C213.9 108.3 173.2 66.6 148.3 44C124.4 22.2 98.5 10.5 74.7 10.5z" glyph-name="paper-clip" horiz-adv-x="232.4" unicode=""/><glyph d="M5.3 183.1L61.8 127.6C63.5 125.9 66 125.6 68.2 126.6L353.6 274C354.7000000000001 274.6 354.1 276.3 352.9000000000001 276L8 192.6C3.7 191.5 2.2 186.2 5.3 183.1z M90.1 111.9L367.4 270C368.4 270.6 369.4 269.4 368.8 268.5L206.7 7.7C203.9 3.1 197.6 2.3 193.7 6L89.1 103.1C86.4 105.7 86.9 110.1 90.1 111.9z M59 98.4L63.1 24.7C63.3 21.6 66.6 19.7 69.3 21.3L108.8 43.4C111.7 45 112.2 48.9 109.9 51.2L62.2 99.9C61 101.1 58.9 100.1 59 98.4z" glyph-name="paper-plane-solid" horiz-adv-x="369" unicode=""/><glyph d="M366.6 255.4C363.8 259.3 358.9000000000001 261.2 354.2000000000001 260.1L40 187.9C35.7 186.9 32.3 183.6 31.1 179.4C29.9 175.1 31.2 170.6 34.4 167.5L97.4 107.6L99.6 16.2C99.6 11.8 102 7.7 105.9 5.6C107.7 4.6 109.6 4.2 111.6 4.2C113.9 4.2 116.2 4.9 118.2 6.2L171.5 36.7L205.3 5C207.5 2.9 210.5 1.7 213.6 1.7C214.1 1.7 214.6 1.7 215.2 1.8C218.8 2.3 222 4.3 223.9 7.4L367.1 242.1C369.7 246.3 369.5 251.5 366.6 255.4zM289.4 220.6L110.5 128.2L67.1 169.5L289.4 220.6zM123.5 38.5L121.3 84.8L153.6 53.6L123.5 38.5zM211 32.6L128.9 110.7L318.5 208.6L211 32.6z M83.5 98.8C81.4 102.7 76.5 104.1 72.6 102L5.4 65.1C1.5 63 0.1 58.1 2.2 54.2C3.7 51.5 6.4 50 9.2 50C10.5 50 11.8 50.3 13 51L80.2 87.8C84.2 90 85.6 94.9 83.5 98.8z M82.6 64C80.5 67.9 75.7 69.4 71.8 67.3L37 48.7C33.1 46.6 31.6 41.8 33.7 37.9C35.1 35.2 37.9 33.7 40.8 33.7C42.1 33.7 43.4 34 44.6 34.6L79.3 53.1C83.2 55.2 84.7 60.1 82.6 64z M74.7 37.2L63.7 31.7C59.7 29.7 58.1 24.9 60.1 21C61.5 18.2 64.3 16.6 67.3 16.6C68.5 16.6 69.7 16.9 70.9 17.4L81.9 22.9C85.9 24.9 87.5 29.7 85.5 33.6C83.5 37.5 78.7 39.2 74.7 37.2z" glyph-name="paper-plane" horiz-adv-x="369" unicode=""/><glyph d="M4.4 209.5C4.3 213.4 6 216.6 8.7 219.5C22.7 233.6 36.8 247.6 51 261.8C57.2 268 65 268 71.4 261.9C77.3 256.1 83.1 250.2 89 244.4C90.6 242.9 90.7 242 89.1 240.4C69.6 220.9 50.1 201.4 30.6 181.9C29.3 180.6 28.3 180.2 26.8 181.8C20.6 188 14.3 194.2 8.1 200.5C5.6 202.6 4.2 205.7 4.4 209.5z M260.7 18.5C252.2 44.5 243.6 70.3 235.1 96.3C234.6 98 233.8 99.4 232.4 100.7C190.3 142.8 148.2 184.9 106 227.2C104 229.2 102.8 229.6 100.5 227.3C81.5 208.2 62.6 189.2 43.4 170.2C41 167.8 41.2 166.6 43.5 164.4C85.6 122.4 127.6 80.4 169.6 38.3C170.9 37 172.6 36 174.3 35.5C186 31.7 197.7 27.8 209.4 23.9C223.4 19.3 237.5 14.6 251.5 10C256.6 8.3 260.8 10.8 260.9 16.2C261.1 16.5 261 17.6 260.7 18.5zM183.9 47.7C197.1 60.9 209.6 73.4 222.8 86.6C229.1 67.5 235.4 48.5 241.9 28.6C222.1 35.2 203.1 41.4 183.9 47.7z" glyph-name="pencil" horiz-adv-x="265.4" unicode=""/><glyph d="M156.1 25H29.1C27.1 25 25.4 26.6 25.4 28.7V259.3C25.4 261.3 27 263 29.1 263H155.4C157.4 263 159.1 261.3 159.1 259.3L159.9 28.6C159.7 26.6 158.1 25 156.1 25zM172.4 287H12.2C6.2 287 1.4 282.1 1.4 276.1V11.8C1.4 5.8 6.3 0.9 12.3 0.9H172.7C178.6 0.9 183.5 5.7 183.6 11.6L183.2 276C183.3 282 178.4 287 172.4 287L172.4 287z M110.8 47H73.8C67.2 47 61.8 52.4 61.8 59S67.2 71 73.8 71H110.8C117.4 71 122.8 65.6 122.8 59S117.4 47 110.8 47z M46.8 242H137.8V91H46.8V242z" glyph-name="phone-mobile" horiz-adv-x="184" unicode=""/><glyph d="M278.8 84.9L216.2 111.7C210.7 114 204.3 112.5 200.6 107.8L172.9 73.9C129.4 94.4 94.4 129.4 73.9 172.9L107.8 200.6C112.4 204.4 114.0000000000001 210.8 111.7000000000001 216.2L84.8 279C82.2 284.9 75.8 288.2 69.4 286.8L11.4 273.3C5.3 271.9 1 266.5 1 260.2C1 117 117.1 1 260.2 1C266.4 1 271.9 5.3 273.3 11.4L286.7 69.5C288.1 75.9 284.8 82.4 278.8 84.9L278.8 84.9z" glyph-name="phone" horiz-adv-x="288" unicode=""/><glyph d="M20.2 162.2C19.9 161.6 19.7 160.9 19.4 160.3L4.8 119.5C-9.1 80.8 10.9 38.1 49.6 24.2L49.6 24.2C88.3 10.3 131 30.3 144.9 69L159.6 109.7C159.8 110.4 160 111 160.3 111.7L20.2 162.2z M166.9 116.9L18.4 170.3C7.7 174.2 2.1 186 6 196.7L7.6 201.1C11.4 211.9 23.3 217.4 34 213.6L182.5 160.1C193.2 156.2 198.8 144.4 194.9 133.7L193.3 129.3C189.4 118.6 177.6 113 166.9 116.9z M58.8 3.3L29.4 13.9C24.6 15.6 22 21.0000000000001 23.8 25.8L27.8 37L74.7 20.1L70.7 8.9C68.9 4.1 63.6 1.6 58.8 3.3z M180.8 251.6C174.6 253.8 167.7 250.6 165.4 244.4L142.6 181.2L165.2 173.1L188 236.2C190.2 242.4 187 249.3 180.8 251.6z M78.6 204.2L101.4 267.4C103.6 273.6 100.4 280.5 94.2 282.8C88 285 81.1 281.8 78.8 275.6L56.1 212.3L78.6 204.2z" glyph-name="plug" horiz-adv-x="196.3" unicode=""/><glyph d="M144 288C64.5 288 0 223.5 0 144S64.5 0 144 0S288 64.5 288 144S223.5 288 144 288zM234 131.5H156.5V54C156.5 47.1 150.9 41.5 144 41.5S131.5 47.1 131.5 54V131.5H54C47.1 131.5 41.5 137.1 41.5 144S47.1 156.5 54 156.5H131.5V234C131.5 240.9 137.1 246.5 144 246.5S156.5 240.9 156.5 234V156.5H234C240.9 156.5 246.5 150.9 246.5 144S240.9 131.5 234 131.5z" glyph-name="plus-circle-solid" horiz-adv-x="288" unicode=""/><glyph d="M144 263C175.8 263 205.7 250.6 228.1 228.1C250.6 205.6 263 175.7 263 144C263 112.2 250.6 82.3 228.1 59.9C205.6 37.4 175.7 25 144 25C112.2 25 82.3 37.4 59.9 59.9C37.4 82.4 25 112.3 25 144C25 175.8 37.4 205.7 59.9 228.1C82.3 250.7 112.2 263 144 263M144 288C64.5 288 0 223.5 0 144S64.5 0 144 0S288 64.5 288 144C288 223.6 223.5 288 144 288L144 288z M234 156.5H156.5V234C156.5 240.9 150.9 246.5 144 246.5S131.5 240.9 131.5 234V156.5H54C47.1 156.5 41.5 150.9 41.5 144S47.1 131.5 54 131.5H131.5V54C131.5 47.1 137.1 41.5 144 41.5S156.5 47.1 156.5 54V131.5H234C240.9 131.5 246.5 137.1 246.5 144S240.9 156.5 234 156.5z" glyph-name="plus-circle" horiz-adv-x="288" unicode=""/><glyph d="M193.5 156.5H116V234C116 240.9 110.4 246.5 103.5 246.5S91 240.9 91 234V156.5H13.5C6.6 156.5 1 150.9 1 144S6.6 131.5 13.5 131.5H91V54C91 47.1 96.6 41.5 103.5 41.5S116 47.1 116 54V131.5H193.5C200.4 131.5 206 137.1 206 144S200.4 156.5 193.5 156.5z" glyph-name="plus" horiz-adv-x="208" unicode=""/><glyph d="M131.2 0.1C59.4 0.1 1 58.5 1 130.3C1 155.2 8 179.4 21.4 200.3C34.4 220.6 52.7 236.9 74.3 247.5C80.3 250.4 87.4 247.9 90.3 242C93.2 236 90.7 228.9 84.8 226C67.1 217.3 52.2 204 41.6 187.4C30.7 170.4 25 150.6 25 130.3C25 71.7 72.7 24.1 131.2 24.1S237.4 71.8 237.4 130.3C237.4 150.6 231.7 170.3 220.8 187.3C210.2 203.9 195.4 217.2 177.8 225.8C171.8 228.7 169.4 235.9 172.3 241.9C175.2 247.9 182.4 250.3 188.4 247.4C210 236.8 228.2 220.5 241.1 200.2C254.4 179.3 261.4 155.2 261.4 130.3C261.4 58.5 203 0.1 131.2 0.1z M131.2 106.4C124.6 106.4 119.2 111.8 119.2 118.4V273.8C119.2 280.4 124.6 285.8 131.2 285.8C137.8 285.8 143.2 280.4 143.2 273.8V118.4C143.2 111.8 137.8 106.4 131.2 106.4z" glyph-name="power-off" horiz-adv-x="262.6" unicode=""/><glyph d="M315.8 277.5C314.4000000000001 282.1 310.4000000000001 285.5 305.6 286C302.9000000000001 286.3 238.4000000000001 293.1 182 273.2C132 255.6 104.6 232.5 74.2 198.4C47.2 168.2 32.2 132.7 26 84L25.9 84.1C25.9 84.1 23.2 63.5 19.1 51.9C12 36.1 7.8 23.3 4.8 14.3C3.2 9.6 5.8 4.4999999999999 10.5 2.9C11.4 2.6 12.4 2.4 13.3 2.4C17.1 2.4 20.6 4.8 21.8 8.6C28.9 29.9 43.7 74.3 88.6 128.7C132.5 181.9 207.4 222.1 208.2 222.5C212.6 224.8 214.3 230.3 211.9 234.7C209.6 239.1 204.1 240.8 199.7 238.4C196.5 236.7 120.9 196.1 74.7 140.1C68.1 132.1 62.1 124.2 56.6 116.6C63.8 142.7 75.1 163.5 92 182.3C119.8 213.4 144.7 234.5 189.9 250.4C219.3000000000001 260.8 252.1 263 274.7000000000001 263.1C252.4000000000001 240.5 236.9000000000001 217.2 226.6000000000001 199.2C226.6000000000001 199.2 226.6000000000001 199.2 226.6000000000001 199.2C199.9000000000001 196.4 181.3000000000001 191.1 180.6000000000001 190.9C175.8000000000001 189.5 173.1000000000001 184.5 174.4000000000001 179.8C175.5000000000001 175.9 179.1000000000001 173.3 183.0000000000001 173.3C183.8000000000001 173.3 184.7000000000001 173.4 185.5000000000001 173.7C185.6000000000001 173.7 197.8000000000001 177.2 216.3000000000001 179.9C214.8000000000001 176.8 213.5000000000001 174.1 212.5000000000001 172C209.7000000000001 166.1 206.0000000000001 160.4 201.8000000000001 155.1C161.2000000000001 154.2 134.3000000000001 142.8 133.2000000000001 142.3C128.6000000000001 140.3 126.5000000000001 135 128.5000000000001 130.5C130.0000000000001 127.0999999999999 133.3000000000001 125.0999999999999 136.8000000000001 125.0999999999999C138.0000000000001 125.0999999999999 139.2000000000001 125.2999999999999 140.4000000000001 125.7999999999999C140.6000000000001 125.8999999999999 156.7000000000001 132.6999999999999 182.5000000000001 135.7999999999999C167.9000000000001 123.6999999999999 151.8000000000001 114.3999999999999 140.5000000000001 108.4999999999999C116.2000000000001 95.8999999999999 91.4000000000001 91.0999999999999 78.8000000000001 89.3999999999999C72.2000000000001 88.4999999999999 67.6000000000001 82.3999999999999 68.5000000000001 75.8999999999999S75.5000000000001 64.6999999999999 82.0000000000001 65.5999999999999C96.1000000000001 67.4999999999999 124.0000000000001 72.8999999999999 151.5000000000001 87.1999999999999C203.6000000000001 114.0999999999999 225.2000000000001 142.6999999999999 234.2000000000001 161.8999999999999C247.0000000000001 189.1999999999999 269.0000000000001 229.5999999999999 311.8000000000001 264.7999999999999C315.6 267.9 317.1 272.9 315.8 277.5z" glyph-name="quill" horiz-adv-x="317.2" unicode=""/><glyph d="M275.7 110.9C269.1 113.3 261.9 109.9 259.5 103.3C242.5 56.7 197.7 25.3 148 25.3C82.6 25.3 29.3 78.5 29.3 144C29.3 209.4 82.5 262.7 148 262.7C178.3 262.7 207 251.1 228.7 230.9H199.4C192.4 230.9 186.7 225.2 186.7 218.2S192.4 205.5 199.4 205.5H256.4L256.4 205.5H256.5C263.5 205.5 269.2 211.2 269.2 218.2V275.3C269.2 282.3 263.5 288 256.5 288C249.5 288 243.8 282.3 243.8 275.3V251.4C217.7 274.7 183.7 288 148 288C68.6 288 4 223.4 4 144S68.6 0 148 0C208.3 0 262.6 38 283.3 94.6C285.6 101.2 282.2 108.5 275.7 110.9z" glyph-name="redo" horiz-adv-x="288" unicode=""/><glyph d="M275.7 110.9C269.1 113.3 261.9 109.9 259.5 103.3C242.5 56.7 197.7 25.3 148 25.3C82.6 25.3 29.3 78.5 29.3 144C29.3 209.4 82.5 262.7 148 262.7C178.3 262.7 207 251.1 228.7 230.9H199.4C192.4 230.9 186.7 225.2 186.7 218.2S192.4 205.5 199.4 205.5H256.4L256.4 205.5H256.5C263.5 205.5 269.2 211.2 269.2 218.2V275.3C269.2 282.3 263.5 288 256.5 288C249.5 288 243.8 282.3 243.8 275.3V251.4C217.7 274.7 183.7 288 148 288C68.6 288 4 223.4 4 144S68.6 0 148 0C208.3 0 262.6 38 283.3 94.6C285.6 101.2 282.2 108.5 275.7 110.9z M186 85.8C183.3 85.8 180.7 86.6 178.4 88.4L129.5 125.9V209.7C129.5 216.6 135.1 222.2 142 222.2S154.5 216.6 154.5 209.7V138.2L193.6 108.2C199.1 104 200.1 96.2 195.9 90.7C193.4 87.5 189.7 85.8 186 85.8z" glyph-name="refresh-clock" horiz-adv-x="288" unicode=""/><glyph d="M286.6 142.6C286.6 64.2 223 0.6 144.6 0.6S2.6 64.2 2.6 142.6S66.2 284.6 144.6 284.6C223.1 284.5 286.6 221 286.6 142.6M85.7 214.4C71.3 214.5 62.6 209.4 59.5 199C58.8 188.5 58 178.1 57.2 167.7C56.1 155.1 50.9 147.3 41.4 144.2V140.3C50.5 137.2 55.8 129.5 57.2 117.1C58 106.7 58.9 96.4 59.7 86C62.3 75.5 69.9 70.3 82.3 70.3H82.9V73.8C79.5 74.2 75.2 76.1 72.1 79.5C69 83 67.5 87.3 67.5 92.5C67.5 94.6 67.6 97.9 67.9 102.2C68.1 106.6 68.3 109.9 68.3 112.1C68.3 126.6 63.6 136.7 54.2 142.3C63.7 148 68.5 158 68.5 172.5C68.5 174.6 68.4 177.9 68.1 182.2C67.8 186.6 67.7 189.9 67.7 192.1C67.7 197.3 69.3 201.6 72.4 205.1S85.9 210.8 85.9 210.8V214.4H85.7zM249.1 144.4C240 147.5 234.7 155.2 233.3 167.6C232.5 178 231.6 188.3 230.8 198.7C228.2 209.2 220.6 214.4 208.2 214.4H202V211.2C209.8 210.8 214.1 208.9 217.2 205.5C220.3 202 221.8 197.7 221.8 192.5C221.8 190.4 221.7 187.1 221.4 182.8C221.2 178.4 221 175.1 221 172.9C221 158.4 225.7 148.3 235.1 142.7C225.6 137 220.8 127 220.8 112.5C220.8 110.4 220.9 107.1 221.2 102.8C221.5 98.4 221.6 95.1000000000001 221.6 92.9C221.6 87.7000000000001 220 83.4 216.9 79.9C213.8 76.4 204.6 74.2000000000001 204.6 74.2000000000001V70.5000000000001C219 70.4000000000001 227.7 75.5000000000001 230.8 85.9000000000001C231.5 96.4000000000001 232.3 106.8000000000001 233.1 117.2000000000001C234.2 129.8000000000001 239.4 137.6000000000001 248.9 140.7000000000001V144.4000000000001H249.1zM103.4 170.6L113.1 168.1C113.1 168.1 117.7 184.8 129.5 180.5C141.3 176.2 150.5 183.8 150.5 183.8C154 170.3 135.3 163.5 115.8 148.8C106.3 141.7 106.4 114.7 106.4 114.7H181.6C181.3 115.1 176.6 125 176.3 137.4C176.1 149.3 186 167.5 184.9 193.8C183.8 220.2 153.1 227.5 153.1 227.5C159.5 233.8 143.8 245.3 143.8 245.3V226.5C127 225.4 120 215.2 120 215.2L122.2 207.8C122.2 207.8 101.1 188.9 95.7 184.7C90.3 180.5 98.1 169.1 98.1 169.1L103.4 170.6zM185.7 108.1L185.7 108.1C185.7 109.2 184.8 110.2 183.6 109.1H106.9C105.8 110.1 104.8 109.2 104.8 108.1S105.7 106 106.9 106.3H183.6C184.8 106.1 185.7 107 185.7 108.1M193 85.6L188.4 99.5C188.4 100.3 187.8 100.9 187 100.9H104.7C103.9 100.9 103.3 100.3 103.3 99.5L98.7 85.6C98.7 84.8 99.3 84.2 100.1 84.2H191.5C192.3 84.2 193 84.8 193 85.6M171 51C171 51 156.2 60.3 156.2 66.5C156.2 72.8 163.1 78.7 163.1 78.7C163.1 79.5 162 81.4 161.8 81.4H145.8H129.8C129.6 81.4 128.5 79.4 128.5 78.7C128.5 78.7 135.4 72.7 135.4 66.5C135.4 60.2 120.6 51 120.6 51C119.6 49.3 121.1 48.3 121.3 48.3H145.7H170.1C170.5 48.2 172 49.3 171 51" glyph-name="rimdev-circle" horiz-adv-x="288" unicode=""/><glyph d="M59.1 235.1C40.2 235.3 28.7 228.5 24.6 214.9C23.7 201.1 22.6 187.4 21.5 173.7C20.1 157.1 13.2 146.8 0.7 142.8V137.7C12.7 133.7 19.6 123.5 21.5 107.2C22.6 93.5 23.7 79.9 24.8 66.2C28.3 52.4 38.2 45.5 54.6 45.5H55.4V50.1C50.9 50.6 45.2 53.1 41.2 57.7S35.2 68 35.2 74.8C35.2 77.6 35.4 81.9 35.7 87.6C36 93.3 36.2 97.7 36.2 100.6C36.2 119.7 30 132.9 17.6 140.4C30.2 147.8000000000001 36.4 161.1 36.4 180.2000000000001C36.4 183 36.2 187.3 35.8 193C35.4 198.7000000000001 35.2 203.1 35.2 206C35.2 212.8 37.3 218.5 41.4 223.1C45.5 227.7 59.1 230.7 59.1 230.7V235.1z M274.2 143C262.2 147 255.3 157.2 253.4 173.5C252.3 187.1 251.2 200.8 250.1 214.5C246.6 228.3 236.7 235.2 220.3 235.2H212.2V231C222.5 230.5 228.2 228 232.2 223.4S238.2 213.1 238.2 206.3C238.2 203.5 238 199.2 237.7 193.5C237.4 187.8 237.2 183.4 237.2 180.5C237.2 161.4 243.4 148.2 255.8 140.7C243.2 133.3 237 120 237 100.9C237 98.1 237.2 93.8 237.6 88.1C238 82.4 238.2 78 238.2 75.1C238.2 68.3 236.1 62.6 232 58S215.8 50.4 215.8 50.4V45.5C234.7 45.3 246.2 52.1 250.3 65.7C251.2 79.5 252.3 93.2 253.4 106.9C254.8 123.5 261.7 133.8000000000001 274.2 137.8000000000001V143z M82.5 177.4L95.2 174.1C95.2 174.1 101.3 196 116.8 190.4S144.4 194.7 144.4 194.7C149 176.9 124.4 168 98.7 148.6C86.2 139.2 86.4 103.8 86.4 103.8L185.3 103.9C184.9 104.5 178.7 117.5 178.3 133.7C178 149.4 191.1 173.3 189.6 208C188.1 242.7 147.8 252.4 147.8 252.4C156.3 260.7 135.6 275.8 135.6 275.8V251C113.4 249.5 104.3 236.1 104.3 236.1L107.3 226.3C107.3 226.3 79.5 201.4 72.4 195.9C65.3 190.3 75.5 175.3 75.5 175.3L82.5 177.4z M190.8 95.2L190.8 95.2C190.8 96.7 189.6 97.9 188.1 96.5H87.2C85.7 97.9 84.5 96.6 84.5 95.2C84.5 93.7 85.7 92.5 87.2 92.9H188.1C189.6 92.5 190.8 93.7 190.8 95.2 M200.3 65.5L194.3 83.8C194.3 84.8 193.5 85.6 192.5 85.6H84.2C83.2 85.6 82.4 84.8 82.4 83.8L76.4 65.5C76.4 64.5 77.2 63.7 78.2 63.7H198.5C199.5 63.7 200.3 64.5 200.3 65.5 M171.4 19.9C171.4 19.9 151.9 32.1 151.9 40.3C151.9 48.5 161 56.4 161 56.4C161 57.4 159.6 60 159.3 60H138.3H117.3C117 60 115.6 57.4 115.6 56.4C115.6 56.4 124.7 48.5 124.7 40.3S105.2 19.9 105.2 19.9C103.9 17.7 105.9 16.3 106.2 16.3H138.3H170.4C170.7 16.3 172.7 17.7 171.4 19.9" glyph-name="rimdev" horiz-adv-x="276" unicode=""/><glyph d="M121.9 221L124.2 223L124.8 223.6L125.4 223.9L126.9 223.9L128.1 223.6L128.9 223.9L129.2 225.1L130.1 227.7L133.6 227.1L134.8 226.8L135.7 227.1L136 227.1L136 228.6L135.7 228.9L126.9 230.4L126.3 229.8L124.8 228L122.5 224.2L120.1 220.4L121.3 220.4z M142.6 286C64.2 286 0.6 222.4 0.6 144C0.6 65.6 64.2 2 142.6 2S284.6 65.6 284.6 144C284.5 222.5 221 286 142.6 286zM207.4 84.6L198.9 81.4L180.1 76.7L158.1 73.5L134.9 72.6H130.2L109 74.1L94.6 77L88.7 79.4L84.3 81.8L84.6 82.4H84.9L85.5 82.7H86.7L87 83L87.3 83.3L87.6 83.9V84.2L89.7 83L93.8 81.2L98.8 79.7L107 78.2L120.2 76.7L134.9 76.1L148.4 76.7L161 78.2L181 81.1L201.9 84L207.4 84.6zM89.6 174.2L94 178L96.9 180.4L98.7 181.3L100.2 181.9H103.1L104.3 181.6L105.5 181L106.1 180.4L105.2 178.6L102.8 174.5L102.2 173L101.9 172.1V170.6H101L98.6 170.9L93.9 172.4L89.6 174.2zM186.2 86.1L170 82L153.2 79.6L136.2 79.3L119.2 80.2L102.2 82.6L95.4 83.8L94.5 84.4L93.3 85L92.4 85.3L90 85.9V86.2L90.3 86.8L93.5 89.7L101.4 86.8L113.7 84.2L131.6 83L150.4 83.6L169.2 86L186.5 88.9L201.5 92.4L186.2 86.1zM82.5 175.9L80.7 182.5L79.2 185.7L78.9 187.8V189.9L79.2 191.4L79.8 192.9L80.4 194.1L81 195L87.2 199.4L94 206.2L99.9 213.5L107.5 224.4L113.1 232L119.3 238.8L123.1 242.3H123.4L124.3 243.2L127.5 244.7L131.3 245.6L137.8 247.1L139.9 247.7L141.7 248.3L142.6 248.9L142 249.5L141.1 249.8L140.5 250.1L139.3000000000001 250.4H138.1000000000001L134.6000000000001 249.5L133.4000000000001 249.2L133.7000000000001 249.5L134.0000000000001 249.8L134.3000000000001 250.1L135.2000000000001 250.4L137.8000000000001 251.3L138.4000000000001 251.6L139.0000000000001 251.9L139.3000000000001 252.2L139.6000000000001 252.5V252.8L139.9000000000001 253.4V254L139.6000000000001 254.6L139.3000000000001 255.5V256.4L139.6000000000001 257.6L140.5000000000001 261.7V263.8L141.7000000000001 262.9L144.6000000000001 259.4L152.5000000000001 248.2L151.9000000000001 252L151.0000000000001 256.1L149.8000000000001 259.9L148 264L145.6 267.2L143.2 270.4L158.2 254.8L158.5 253.9V252.4L158.2 251.5L157.9 250.6L156.7 248L155.5 246.2L155.2 245V244.4L155.5 243.5L155.8 242.6L156.4 242L157.3 242.3L157.6 242.6L158.2 242.9L159.1 244.1L161.5 247.6L161.8000000000001 247.9L162.7000000000001 248.8L163.0000000000001 247.9L163.3000000000001 246.4V244.6L163.0000000000001 242.2L161.2000000000001 237.2L159.1000000000001 232.2L158.5000000000001 229.6V226.4L159.1000000000001 224.6L160.0000000000001 223.1L160.6000000000001 222.2L170.3000000000001 243.1L170 239.6L168.8000000000001 235.8L165.6000000000001 227.3L164.4000000000001 222.6L164.1000000000001 221.1L164.4000000000001 219.3L164.7000000000001 217.8L165.3000000000001 216L166.5000000000001 214.8V217.7L167.1000000000001 220.6L168.9000000000001 225L172.1000000000001 232.1L174.5000000000001 237.4V238H175.7000000000001L176.0000000000001 237.7L176.6000000000001 237.1V236.5L176.9000000000001 235.3L176.6000000000001 232.9L176.3000000000001 231.4L175.1000000000001 228.5L171.6000000000001 222L169.8000000000001 218.2L169.2000000000001 215.6L168.9 214.1L169.2000000000001 212.9V211.4L169.8000000000001 210.2L174.5 216.7L179.2 223.5L182.4 228.5L183.3 230.9L183.9 228.5L184.2 226.1L183.6 223.7L183 221.6L181.2 218.1L177.1 212.8L170.9 205.2L168.3000000000001 200.8L167.1000000000001 198.4L166.5000000000001 196L166.2000000000001 195.1L166.5000000000001 194.5L166.8000000000001 194.2H167.4000000000001L167.7000000000001 194.5L169.2000000000001 195.1L172.1000000000001 198.6L176.8000000000001 204.8L181.8000000000001 212.1L186.8000000000001 221.2L188.3000000000001 224.1V224.4L188.9000000000001 223.8L189.2000000000001 222.9L189.5000000000001 221.7V220.2L188.9000000000001 218.1L187.7000000000001 213.7L186.2000000000001 210.5L181.5000000000001 203.2L175.3000000000001 194.4L174.7000000000001 192.9L174.4000000000001 191.7H175.0000000000001L176.5000000000001 192.6L183.8000000000001 198.5L186.7000000000001 202L189.9000000000001 207.3L193.4000000000001 214.9L194.6000000000001 211.1L194.9000000000001 209.3V206.1L194.6000000000001 204.6L194.0000000000001 203.4L192.2000000000001 200.8L190.1000000000001 198.7L186.0000000000001 195.8L174.5000000000001 189.9L168.0000000000001 186.4L164.2000000000001 183.2L162.1000000000001 181.1L161.2000000000001 179.6L160.6000000000001 178.4L162.1000000000001 179.3L167.4000000000001 181.9L176.5000000000001 185.7L183.6000000000001 188.9L188.6000000000001 191.8L191.8000000000001 194.7L193.6000000000001 196.8L195.1000000000001 199.2L196.0000000000001 201.8L196.3000000000001 200.6V198.8L196.0000000000001 197.6L195.1000000000001 195.5L193.0000000000001 192.6L188.0000000000001 186.4L184.8000000000001 183.2L179.8000000000001 180L170.4000000000001 175L163.9000000000001 171.5L160.1000000000001 169.1L158 167L155.1 163.5L153.3 160.9V160.3L153.6 159.7L153.3 159.1L152.1 155.6V155L151.8 154.1L152.1 153.8V153.5L152.4 152.9L153 152.6H153.3L153.6 152.3L160.1 158.8L166.9 164.1L177.8000000000001 170.9L185.1000000000001 175.6L191.0000000000001 180.3L194.2000000000001 183.2L191.8000000000001 179.1L189.2000000000001 175.6L185.1000000000001 171.5L178.9000000000001 167.4L167.7000000000001 160.6L161.8000000000001 156.5L158.6000000000001 153.6L153.3000000000001 146.3L150.4000000000001 140.7L148.6000000000001 136L149.2000000000001 136.3L158.9 143.6L175.4 156.8L188.3000000000001 168L183.9 162.4L176 155.1L165.1 145.7L159.5 139.2L156.6 134.8L154.5 129.8L153.3000000000001 124.5L159.2000000000001 130.4L171.5000000000001 142.7L180.3000000000001 150.9L184.7000000000001 154.4L184.4000000000001 152.6L183.5000000000001 150.8L182.3000000000001 149L179.9000000000001 146.6L174.3000000000001 141.6L171.7000000000001 139L167.9000000000001 133.4L162.0000000000001 125.2L159.4000000000001 120.8L157.9000000000001 116.7L156.7000000000001 112.6L156.1000000000001 108.5V106.1L162.6000000000001 118.1L166.7000000000001 125.2L177.6000000000001 135.5L175.0000000000001 130.8L173.2000000000001 125.2L171.7000000000001 119.3L171.4000000000001 116.1V111.4L172.0000000000001 108.2000000000001L173.2000000000001 105.0000000000001L175.0000000000001 102.1000000000001L175.6000000000001 100.9000000000001H176.5000000000001L176.8000000000001 101.2000000000001H177.1000000000001L177.7000000000001 102.1000000000001L178.0000000000001 102.7000000000001L178.6000000000001 106.2000000000001L180.1000000000001 115.0000000000001L181.3000000000001 119.1000000000001L182.2000000000001 120.9000000000001L183.7000000000001 123.5000000000001L184.9000000000001 125.0000000000001L184.6000000000001 117.9000000000001V110.8000000000001L185.2000000000001 104.3000000000001L185.5000000000001 103.1000000000001L186.4000000000001 103.4000000000001L187.3000000000001 103.7000000000001L187.6000000000001 104.0000000000001L188.2000000000001 104.6000000000001L188.5000000000001 104.9000000000002L188.8000000000001 106.1000000000001V114L189.1000000000001 114.9L189.7000000000001 115.5L190.6000000000001 111.4L190.9000000000001 107.9V103.5L190.6000000000001 101.7L187.7000000000001 99.3L182.1000000000001 96.4L173.6000000000001 93.2L169.5000000000001 92.3L168.9000000000001 92L161.0000000000001 89.9L152.2000000000001 88.4L142.2000000000001 87.2H135.4000000000001L123.9000000000001 88.1L119.2000000000001 88.7L111.0000000000001 91.9L104.2000000000001 96L100.1000000000001 99.5L96.6000000000001 103.3L95.1000000000001 105.9L93.6000000000001 109.1L92.7000000000001 112L92.4000000000001 115.5V119L93.0000000000001 122.5L94.8000000000001 128.4L97.7000000000001 134.9L110.6000000000001 148.7L123.2000000000001 162.8L129.4000000000001 169.9L134.7000000000001 177.2L137.9000000000001 181.6L141.4000000000001 185.7L143.8000000000001 188.3L144.4000000000001 189.8L144.7000000000001 190.4L145.3000000000001 191.9L145.0000000000001 193.1V194L144.7000000000001 194.6L144.1000000000001 195.8L139.4000000000001 191.1L136.2000000000001 188.7L133.3000000000001 187.2L129.8000000000001 186L126.9000000000001 185.7H125.4000000000001L120.4000000000001 186.3L114.2000000000001 187.5L104.8000000000001 191.3L104.5000000000001 191V189.5L104.8000000000001 188.9L105.4000000000001 188.3L106.0000000000001 187.7L107.8000000000001 186.5L110.2000000000001 185.3L113.1000000000001 184.7L115.5000000000001 184.4H116.4000000000001L116.1000000000001 184.1L115.8000000000001 183.5L115.5000000000001 183.2L114.3000000000001 182.6L112.8000000000001 182L110.7000000000001 181.7000000000001H109.5000000000001L107.4000000000001 182L106.5000000000001 182.3L104.7000000000001 182.9L103.8000000000001 183.5L102.9000000000001 184.4L102.3000000000001 185.3L102.0000000000001 185.6L101.7000000000001 186.2L94.9000000000001 180.9L83.4000000000001 171.8V173.3L82.5 175.9zM208 70.8L207.7 66.4L207.4 63.8L204.5 62.3L200.1 60.8L193.3 59.3L186.5 57.8L188.9 57.5H195.7L201.9 58.7L206.3 59.3L201.3 57.2L197.2 55.7L193.7 54.5L189.6 53.9L184.6 53.3L185.5 52.7H186.1L187 52.4L188.5 52.1H190L194.7 52.7L196.8 52.4H197.7L198.6 52.1L199.8 51.8L200.7 51.2L199.8 50.3L198.3 48.8L196.2 47.9L193.3 46.4L188.9 44.9L182.0999999999999 43.4L174.5 41.9L162.6999999999999 40.9999999999999L153.2999999999999 40.6999999999999L141.2999999999999 40.9999999999999L129.4999999999999 41.9L108.5999999999999 43.9999999999999L99.1999999999999 45.1999999999999L91.5999999999999 46.6999999999999L89.1999999999999 47.2999999999999L87.3999999999999 47.8999999999999L87.0999999999999 48.1999999999999L85.8999999999999 48.7999999999999L84.9999999999999 49.6999999999999L84.6999999999999 50.2999999999999L84.0999999999999 51.7999999999999V54.1999999999999L85.8999999999999 53.5999999999999L87.9999999999999 53.2999999999999H91.7999999999999L92.0999999999999 53.5999999999999H92.6999999999999L92.9999999999999 53.9L93.2999999999999 54.2V54.5L92.9999999999999 54.8L92.3999999999999 55.1L90.2999999999999 56L87.6999999999999 56.9L86.1999999999999 57.8L84.9999999999999 58.4L84.3999999999999 59.3L83.7999999999999 63.7L83.4999999999999 68.1V71.6L83.7999999999999 73.4L91.6999999999999 71.9L99.8999999999999 70.7000000000001L108.0999999999999 70.1000000000001L123.0999999999999 69.5000000000001L139.5999999999999 68.9000000000001L155.4999999999999 69.2000000000001L171.3999999999999 69.8000000000001L187.2999999999999 70.7000000000001L191.3999999999999 71.0000000000001L198.1999999999999 71.9000000000001L204.6999999999999 73.1000000000001L208.7999999999999 74.0000000000001L208 70.8z" glyph-name="ritter-circle" horiz-adv-x="285" unicode=""/><glyph d="M111.4 58.3L88.1 55.4L64.8 54.7L42.6 56.2L27.3 59.5L17.5 63.1L13.5 59.5L13.1 58.8L13.1 58.4L16 57.7L17.1 57.3L18.6 56.6L19.7 55.9L28.1 54.4L49.2 51.5L70.3 50.4L91.4 50.8L112.2 53.7L132.3 58.8L151.6 66.5L133 62.1z M23.5 164.1L26.4 163.7L27.5 163.7L27.5 165.5L27.9 166.6L28.6 168.4L31.5 173.5L32.6 175.7L31.9 176.4L30.4 177.1L28.9 177.5L25.3 177.5L23.5 176.8L21.3 175.7L17.7 172.8L12.2 168.1L17.7 165.9z M125.6 52.5L100.8 48.9L85.1 47.1L68.3 46.4L50.1 47.1L33.7 48.9L23.5 50.7L17.3 52.5L12.2 54.7L9.6 56.2L9.6 55.8L9.2 55.1L8.8 54.7L8.4 54.3L6.9 54.3L6.2 53.9L5.8 53.9L5.4 53.2L10.9 50.3L18.2 47.4L36.1 43.8L62.3 42L68.1 42L96.9 43.1L124.2 47.1L147.5 52.9L158.1 56.9L151.2 56.2z M6 168.3C5 168.4 5 166.6 5 166.6L19.2 177.9L27.6 184.5L28 183.8L28.4 183.4L29.1 182.3L30.2 181.2L31.3 180.5L33.5 179.8L34.6 179.4L37.2 179H38.7L41.3 179.4L43.1 180.1L44.6 180.8L45 181.2L45.4 181.9L45.8 182.3H44.7L41.8 182.7L38.2 183.4L35.3 184.9L33.1 186.4L32.4 187.1L31.7 187.8L31.3 188.5V190.3L31.7 190.7L43.4 186L51.1 184.5L57.3 183.8H59.1L62.7 184.2L67.1 185.7L70.7 187.5L74.7 190.4L80.5 196.2L81.2 194.7L81.6 194V192.9L82 191.4L81.3 189.6L80.9 188.9L80.2 187.1L77.3 183.8L72.9 178.7000000000001L68.9 173.2000000000001L62.3 164.1L54.6 155.4L38.9 137.9L22.9 120.8000000000001L19.3 112.8000000000001L17.1 105.5L16.4 101.1V96.7L16.8 92.3L17.9 88.7L19.7 84.7L21.5 81.4L25.9 76.7L31 72.3L39.4 67.2L49.6 63.2L55.4 62.5L69.6 61.4H78L90.4 62.9L101.3 64.7000000000001L111.1 67.3L111.8 67.7000000000001L116.9 68.8L127.5 72.8L134.4 76.4L138 79.3L138.4 81.5V87L138 91.4L136.9 96.5L136.2 95.8L135.8 94.7V84.9L135.4 83.4L135 83L134.3 82.3L133.9 81.9L132.8 81.5L131.7 81.1L131.3 82.6L130.6 90.6V99.3L131 108L129.5 106.2L127.7 102.9L126.6 100.7L125.1 95.6L123.3000000000001 84.7L122.6 80.3L122.2 79.6L121.5 78.5H121.1L120.7 78.1H119.6L118.9 79.6L116.7 83.2L115.2 87.2L114.5 91.2V97L114.9 101L116.7 108.3L118.9 115.2L122.2 121L108.7 108.2L103.6 99.5L95.6 84.6V87.5L96.3 92.6L97.8 97.7L99.6 102.8L102.9 108.3L110.2 118.5L114.9 125.4L118.2 128.7L125.1 134.9L128 137.8L129.5 140L130.6 142.2L131 144.4L125.5 140L114.6 129.8L99.3 114.5L92 107.2L93.5 113.8L96.1 120L99.7 125.5L106.6 133.5L120.1 145.1999999999999L129.9 154.2999999999999L135.4 161.1999999999999L119.4 147.2999999999999L99 130.9L87 121.8L86.3 121.4L88.5 127.2L92.1 134.1L98.7 143.2L102.7 146.8L110 151.9L123.9 160.3L131.6 165.4L136.7 170.5L140 174.9L142.9 180L138.9 176.4L131.6 170.6L122.5 164.8L109 156.4L100.6 149.8L92.6 141.8L92.2 142.2H91.8L91.1 142.6L90.7 143.3V143.7L90.3 144.1L90.7 145.2V145.9L92.2 150.3L92.6 151L92.2 151.7V152.4L94.4 155.7L98 160.1L100.6 162.7L105.3 165.6L113.3 170L125 176.2L131.2 180.2L135.2 184.2L141.4 191.9L144 195.5L145.0999999999999 198.1L145.5 199.6V201.8L145.0999999999999 203.3L144 200L142.2 197.1L140 194.5L136 190.9L129.8 187.3L121.1 183.3L109.8 178.6L103.2 175.3L101.4 174.2L102.1 175.7L103.2 177.5L105.8 180.1L110.5 184.1L118.5 188.5L132.7 195.8L137.8 199.4L140.4 202L142.6 205.3L143.3 206.8L143.7 208.6V212.6L143.3 214.8L141.8 219.5L137.4 210L133.4 203.4L129.8 199L120.7 191.7L118.9 190.6H118.2L118.6 192.1L119.3 193.9L127 204.8L132.8 213.9L134.6 217.9L136.1 223.4L136.8 226V227.8L136.4 229.3L136 230.4L135.3 231.1V230.7L133.5 227.1L127.3 215.8L121.1 206.7L115.3 199L111.7 194.6L109.9 193.9L109.5 193.5H108.8L108.4 193.9L108 194.6L108.4 195.7L109.1 198.6L110.6 201.5L113.9 207L121.6 216.5L126.7 223.1L128.9 227.5L129.6 230.1L130.3 233L129.9 235.9L129.2 238.8L128.1 235.9L124.1 229.7L118.3 221.3L112.5 213.3L111.8 214.8V216.6L111.4 218.1L111.8 219.9L112.5 223.2L114.7 227.9L119.1 235.9L120.6 239.5L121 241.3L121.4 244.2L121 245.7V246.4L120.3 247.1L119.9 247.5H118.4V246.8L115.5 240.2L111.5 231.5L109.3 226L108.6 222.4V218.8L107.1 220.3L106.4 222.5L106 224.3L105.6 226.5L106 228.3L107.5 234.1L111.5 244.7L113 249.4L113.4 253.8L101.4 227.9L100.7 229L99.6 230.8L98.9 233V237L99.6 240.3L102.2 246.5L104.4 252.7L104.8 255.6V257.8L104.4 259.6L104 260.7L102.9 259.6L102.5 259.2L99.6 254.8L98.5 253.3L97.8 252.9L97.4 252.5L96.3 252.1L95.6 252.8L95.2 253.9L94.8 255V255.7L95.2 257.2L96.7 259.4L98.2 262.7L98.6 263.8L99 264.9V266.7L98.6 267.8L80 287.1L82.9 283.1L85.8 279.1L88 274L89.5 269.3L90.6 264.2L91.3 259.5L81.5 273.4L77.9 277.8L76.4 278.9V276.3L75.3 271.2L74.9 269.7V268.6L75.3 267.5L75.7 266.8V266.1L75.3 265.4V265L74.9 264.6L74.5 264.2L73.8 263.8L73.1 263.4L69.8 262.3L68.7 261.9L68.3 261.5L67.9 261.1L67.5 260.7L69 261.1L73.4 262.2H74.9L76.4 261.8L77.1 261.4000000000001L78.2 261L78.9 260.3L77.8 259.6L75.6 258.9000000000001L73 258.2L65 256.4L60.3 255.3L56.3 253.5L55.2 252.4H54.8L50.1 248L42.4 239.6L35.5 230.1L26 216.6L18.7 207.5L10.3 199.1L2.6 193.6L1.9 192.5L1.2 191L0.5 189.2L0.1 187.4V184.8L0.5 182.2L2.3 178.2L4.9 171.6L6 168.3zM53.1 230L56 234.7L57.8 236.9L58.5 237.6L69.4 235.8L69.8 235.4V233.6H69.4L68.3 233.2L66.8 233.6L62.4 234.3L61.3 231L60.9 229.5C60.8 229.5 60 229.3 60 229.3L58.5 229.7H56.7L56 229.3L55.3 228.6L52.4 226L51.7 225.3H50.2L53.1 230z M154.8 42.7L146.8 41.2L138.4 40.1L133.3 39.7L113.6 38.6L93.9 37.9L74.2 37.5L53.8 38.2L35.2 38.9L25 39.6L14.8 41.1L5 42.9L4.6 40.7L4.6 36.3L5 30.8L5.7 25.3L6.4 24.2L7.9 23.5L9.7 22.4L13 21.3L15.6 20.2L16.3 19.8L16.7 19.4L16.7 19L16.3 18.6L15.9 18.2L15.2 18.2L14.8 17.8L10.1 17.8L7.5 18.2L5.3 18.9L5.3 16L6 14.2L6.4 13.5L7.5 12.4L9 11.7L9.4 11.3L11.6 10.6L14.5 9.9L24 8.1L35.7 6.6L61.6 4L76.2 2.9L91.1 2.5L102.8 2.9L117.4 4L126.9 5.8L135.3 7.6L140.8 9.4L144.4 11.2L147 12.3L148.8 14.1L149.9 15.2L148.8 15.9L147.3 16.3L146.2 16.7L145.1 16.7L142.5 17.1L136.7 16.4L134.9 16.4L133.1 16.8L132 17.2L131.3 17.2L130.2 17.9L136.4 18.6L141.5 19.3L145.9 20.8L151 22.6L157.2 25.2L151.7 24.5L144 23L135.6 23L132.7 23.4L141.1 25.2L149.5 27L155 28.8L158.6 30.6L159 33.9L159.4 39.4L160.1 43.4z" glyph-name="ritter" horiz-adv-x="162" unicode=""/><glyph d="M129.9 270.3V111.6L87.9 153.6C83 158.5 74.8 158.7 70 153.9C67.6 151.5 66.3 148.3000000000001 66.3 145.1S67.5 138.7 70 136.3L133.6 72.7C138.3 68 145.7 67.8 150.7 72.1C151 72.4 215 136.3 215 136.3C219.9 141.2 219.9 149.3 214.8 154.1C209.8 158.9 201.9 158.5 197 153.6L155 111.6V245.3C155 251.3 159.8 256.1 165.8 256.1H248.8C254.8 256.1 259.6 251.3 259.6 245.3L259.5 41.8C259.5 35.8 254.6 30.9 248.6 30.9H36.2C30.2 30.9 25.3 35.8 25.3 41.8V242.1C25.3 249 19.9 254.9 13 255C6 255.1 0.3 249.5 0.3 242.5V16.8C0.3 10.8 5.2 5.9 11.2 5.9H273.6C279.6 5.9 284.5 10.8 284.5 16.8L284.6 270.3C284.6 276.3 279.8 281.1 273.8 281.1H140.8C134.7 281.1 129.9 276.3 129.9 270.3z" glyph-name="save" horiz-adv-x="286" unicode=""/><glyph d="M239.2 41.1L178.6 101.7C192.2 118.6 200.3 140.1 200.3 163.5C200.3 218.1 155.9 262.5 101.3 262.5S2.3 218.1 2.3 163.5S46.7 64.5 101.3 64.5C123.5 64.5 144.1 71.9 160.6 84.3L221.5 23.4C223.9 21.0000000000001 227.1 19.7 230.3 19.7S236.7 20.9 239.1 23.4C244.1 28.3 244.1 36.2 239.2 41.1zM27.4 163.4C27.4 204.2 60.6 237.4 101.4 237.4S175.4 204.2 175.4 163.4S142.2 89.4 101.4 89.4C60.5 89.5 27.4 122.6 27.4 163.4z" glyph-name="search" horiz-adv-x="244.7" unicode=""/><glyph d="M122.8 263.6C161.8 263.6 202.3 246.7 220.4 238.2V142.9C220.4 83.1 158.7 43.4 129.7 28C125.4 25.7 120.2 25.7 115.9 28C86.9 43.3 25.2 83.1 25.2 142.9V238.2C43.3 246.8 83.8 263.6 122.8 263.6M122.8 287.6C77.5 287.6 32.1 268.3 12 258.5C5.4 255.3 1.2 248.6 1.2 241.2V142.9C1.2 63.2 85.2 16 113.6 2.3C116.5 0.9 119.7 0.2 122.8 0.2S129.1 0.9 132 2.3C160.4 16 244.4 63.2 244.4 142.9V241.2C244.4 248.5 240.2 255.2 233.6 258.5C213.5 268.3 168.1 287.6 122.8 287.6L122.8 287.6z" glyph-name="shield" horiz-adv-x="244.7" unicode=""/><glyph d="M254.5 71.6C283.4 94.3 299.3 124.8 299.3 157.4S283.4000000000001 220.5 254.5 243.2C226.5 265.3 189.4 277.4 150 277.4C110.7 277.4 73.5 265.2 45.5 243.2C16.6 220.6 0.7 190.1 0.7 157.5C0.7 114.2 29.5 74.4 76.1 53.1C74.3 46.9 69.8 41.4 62.6 36.6C53.3 30.3 43.1 27.8 43 27.8C38.8 26.8 35.9 23 36.1 18.7C36.3 14.4 39.5 10.8 43.7 10.2C44.3 10.1 54.5 8.6 68.7 8.6C74.5 8.6 81 8.9 87.8 9.6C115.5 12.6 136.5 22.2 149.1 37.6C149.4 37.6 149.6 37.6 149.9 37.6C189.3 37.4 226.4 49.6 254.5 71.6zM86.3 27.4C83.9 27.1 81.6 26.9 79.3 26.8C88.9 35.3 95.9 47.1 94.9 62.4999999999999C95 63.6999999999999 94.8 64.9999999999999 94.5 66.0999999999999C94.5 66.0999999999999 94.5 66.0999999999999 94.5 66.0999999999999L94.5 66.0999999999999C93.6 69.4999999999999 91.2 72.4999999999999 87.7 73.9999999999999C48.8 91.1999999999999 24.6 123.0999999999999 24.6 157.3C24.6 210.3 80.8 253.3 149.9 253.3S275.2 210.2 275.2 157.3S219 61.3 149.9 61.3C144.9 61.3 140.7 58.3 138.9 53.9999999999999C128.1 35.6 104.4 29.4 86.3 27.4z M77.6 157.3C77.6 147.8559307778934 85.2559307778934 140.2 94.7 140.2C104.1440692221066 140.2 111.8 147.8559307778934 111.8 157.3C111.8 166.7440692221066 104.1440692221066 174.4 94.7 174.4C85.2559307778934 174.4 77.6 166.7440692221066 77.6 157.3z M131.3 157.3C131.3 147.8559307778934 138.9559307778934 140.2 148.4 140.2C157.8440692221066 140.2 165.5 147.8559307778934 165.5 157.3C165.5 166.7440692221066 157.8440692221066 174.4 148.4 174.4C138.9559307778934 174.4 131.3 166.7440692221066 131.3 157.3z M188.1 157.3C188.1 147.8559307778934 195.7559307778934 140.2 205.2 140.2C214.6440692221066 140.2 222.3 147.8559307778934 222.3 157.3C222.3 166.7440692221066 214.6440692221066 174.4 205.2 174.4C195.7559307778934 174.4 188.1 166.7440692221066 188.1 157.3z" glyph-name="speach-bubble" horiz-adv-x="300.2" unicode=""/><glyph d="M149.5 286.9L103 192.7L-1 177.6L74.2 104.2L56.5 0.6L149.5 49.5z" glyph-name="star-half" horiz-adv-x="149.5" unicode=""/><glyph d="M150.1 287.5L196.6 193.3L300.6 178.2L225.3 104.8L243.1 1.2L150.1 50.1L57.1 1.2L74.8 104.8L-0.4 178.2L103.6 193.3z" glyph-name="star" horiz-adv-x="302.3" unicode=""/><glyph d="M25.3 144C25.3 209.5 78.6 262.7 144 262.7C184.8 262.7 222.4 241.7 243.9 208H206.8C199.8 208 194.2 202.3 194.2 195.4C194.2 188.4 199.9 182.8 206.8 182.8H263.9000000000001C270.9000000000001 182.8 276.5000000000001 188.5 276.5000000000001 195.4V197.8L276.5000000000001 197.8V252.4C276.5000000000001 259.4 270.8000000000001 265 263.9000000000001 265C256.9000000000001 265 251.3000000000001 259.3 251.3000000000001 252.4V239.9C224.4 269.9 185.6 287.9 144.0000000000001 287.9C64.6 287.9 0 223.3 0 143.9C0 136.9 5.7 131.3 12.6 131.3C19.7 131.4 25.3 137.1 25.3 144z M275.4 156.7C268.4 156.7 262.8 151 262.8 144.1C262.8 78.6 209.5 25.4 144.1 25.4C103.3 25.4 65.7 46.4 44.1 80.1H81.2C88.2 80.1 93.8 85.8 93.8 92.7C93.8 99.7 88.1 105.3 81.2 105.3H24.1C17.1 105.3 11.5 99.6 11.5 92.7V90.3L11.5 90.3V35.6C11.5 28.6 17.2 22.9999999999999 24.1 22.9999999999999S36.7 28.6999999999999 36.7 35.5999999999999V48.0999999999999C63.6 18.0999999999999 102.4 0.0999999999999 144 0.0999999999999C223.4 0.0999999999999 288 64.6999999999999 288 144.0999999999999C288 151 282.4 156.7 275.4 156.7z M181 86.8C178.3 86.8 175.7 87.6 173.4 89.4L124.5 126.9V210.7C124.5 217.6 130.1 223.2 137 223.2S149.5 217.6 149.5 210.7V139.2L188.6 109.2C194.1 105 195.1 97.2 190.9 91.7C188.4 88.5 184.7 86.8 181 86.8z" glyph-name="sync-clock" horiz-adv-x="288" unicode=""/><glyph d="M25.3 144C25.3 209.5 78.6 262.7 144 262.7C184.8 262.7 222.4 241.7 243.9 208H206.8C199.8 208 194.2 202.3 194.2 195.4C194.2 188.4 199.9 182.8 206.8 182.8H263.9000000000001C270.9000000000001 182.8 276.5000000000001 188.5 276.5000000000001 195.4V197.8L276.5000000000001 197.8V252.4C276.5000000000001 259.4 270.8000000000001 265 263.9000000000001 265C256.9000000000001 265 251.3000000000001 259.3 251.3000000000001 252.4V239.9C224.4 269.9 185.6 287.9 144.0000000000001 287.9C64.6 287.9 0 223.3 0 143.9C0 136.9 5.7 131.3 12.6 131.3C19.7 131.4 25.3 137.1 25.3 144z M275.4 156.7C268.4 156.7 262.8 151 262.8 144.1C262.8 78.6 209.5 25.4 144.1 25.4C103.3 25.4 65.7 46.4 44.1 80.1H81.2C88.2 80.1 93.8 85.8 93.8 92.7C93.8 99.7 88.1 105.3 81.2 105.3H24.1C17.1 105.3 11.5 99.6 11.5 92.7V90.3L11.5 90.3V35.6C11.5 28.6 17.2 22.9999999999999 24.1 22.9999999999999S36.7 28.6999999999999 36.7 35.5999999999999V48.0999999999999C63.6 18.0999999999999 102.4 0.0999999999999 144 0.0999999999999C223.4 0.0999999999999 288 64.6999999999999 288 144.0999999999999C288 151 282.4 156.7 275.4 156.7z" glyph-name="sync" horiz-adv-x="288" unicode=""/><glyph d="M115 2.1C131.4 2.1 144.6 12.7 144.6 25.8H85.3C85.4 12.7 98.7 2.1 115 2.1z M222.8 83.8C222.3 84.1 221.7 84.4 221.1 84.8C215.9 87.7 207.3 92.6 205.1 99.9C199.5 117.8 199.6 133 199.7 160.6C199.7 164.5 199.7 168.6 199.7 173C199.7 214.2 170.1 248.6 131 256.1C131 256.3 131 256.6 131 256.8V272.4C131 279.5 125.2 285.3 118.1 285.3H109.8C102.7 285.3 96.9 279.5 96.9 272.4V256.8C96.9 256.4 96.9 256 97 255.7C59 247.4 30.5 213.5 30.5 173C30.5 168.1 30.5 163.6 30.5 159.3C30.6 132.4 30.7 117.5 25.2 99.9C22.9 92.5 14.3 87.6 9.2 84.7C8.6 84.4 8.1 84.1 7.6 83.8C3.5 81.4 0.9 76.9 0.9 72.2V48.5C0.9 41.1 6.9 35 14.4 35H216C223.4 35 229.5 41 229.5 48.5V72.2C229.5 77 226.9 81.4 222.8 83.8zM202.5 62H27.9V64.5C35.8 69.5 46.6 78 50.9 91.9C57.6 113.5 57.5 130.8 57.4 159.4C57.4 163.6 57.4 168.2 57.4 173C57.4 204.8 83.3 230.7 115.1 230.7S172.8 204.8 172.8 173C172.8 168.7 172.8 164.6 172.8 160.7C172.7 131.4 172.6 113.7 179.4 91.9C183.8 77.9 194.6 69.5 202.6 64.5L202.5 62L202.5 62z" glyph-name="tag-69" horiz-adv-x="229.3" unicode=""/></font>
</defs>
</svg>
