<svg xmlns="http://www.w3.org/2000/svg" width="67.871" height="64.569" viewBox="0 0 67.871 64.569"><g id="Group_108" data-name="Group 108" transform="translate(830.551 -48.628)"><circle id="Ellipse_3" cx="29.451" cy="29.451" r="29.451" fill="#e9eaeb" data-name="Ellipse 3" transform="translate(-830.551 48.628)"/><circle id="Ellipse_41" cx="19.386" cy="19.386" r="19.386" fill="#fff" stroke="#2a5082" stroke-miterlimit="10" stroke-width="2" data-name="Ellipse 41" transform="translate(-812.218 56.854)"/><path id="Path_344" fill="#91b9dc" d="M-801.952,90.641a19.6,19.6,0,0,1,8.315-16.173,17.448,17.448,0,0,0-9.771-3.019c-10.081,0-18.281,8.666-18.281,19.318s8.2,19.317,18.281,19.317a17.472,17.472,0,0,0,9.966-3.144A19.575,19.575,0,0,1-801.952,90.641Z" data-name="Path 344" transform="translate(0.091 2.088)"/><path id="Path_345" fill="#91b9dc" d="M-803.368,90.26a18.268,18.268,0,0,0,8.51,15.425,18.268,18.268,0,0,0,8.315-15.305,18.267,18.267,0,0,0-8.51-15.425A18.269,18.269,0,0,0-803.368,90.26Z" data-name="Path 345" transform="translate(2.02 2.457)"/><path id="Path_346" fill="#fff" d="M-786.318,90.8a19.6,19.6,0,0,1-8.316,16.174,17.454,17.454,0,0,0,9.771,3.019c10.08,0,18.282-8.666,18.282-19.318s-8.2-19.318-18.282-19.318a17.464,17.464,0,0,0-9.966,3.145A19.573,19.573,0,0,1-786.318,90.8Z" data-name="Path 346" transform="translate(2.92 2.078)"/><circle id="Ellipse_42" cx="19.386" cy="19.386" r="19.386" fill="none" stroke="#2a5082" stroke-miterlimit="10" stroke-width="2" data-name="Ellipse 42" transform="translate(-822.19 73.424)"/><circle id="Ellipse_43" cx="19.386" cy="19.386" r="19.386" fill="none" stroke="#2a5082" stroke-miterlimit="10" stroke-width="2" data-name="Ellipse 43" transform="translate(-802.453 73.305)"/><line id="Line_38" x1="32.003" fill="#91b9dc" stroke="#2a5082" stroke-miterlimit="10" stroke-width="2" data-name="Line 38" transform="translate(-799.106 81.611)"/><line id="Line_39" x1="36.013" fill="#91b9dc" stroke="#2a5082" stroke-miterlimit="10" stroke-width="2" data-name="Line 39" transform="translate(-800.957 85.985)"/><line id="Line_40" x1="38.429" fill="#91b9dc" stroke="#2a5082" stroke-miterlimit="10" stroke-width="2" data-name="Line 40" transform="translate(-802.371 90.358)"/><line id="Line_41" x1="39.175" fill="#91b9dc" stroke="#2a5082" stroke-miterlimit="10" stroke-width="2" data-name="Line 41" transform="translate(-802.268 94.732)"/><line id="Line_42" x1="36.398" fill="#91b9dc" stroke="#2a5082" stroke-miterlimit="10" stroke-width="2" data-name="Line 42" transform="translate(-801.42 99.105)"/><line id="Line_43" x1="31.771" fill="#91b9dc" stroke="#2a5082" stroke-miterlimit="10" stroke-width="2" data-name="Line 43" transform="translate(-799.029 103.479)"/><line id="Line_44" x1="24.677" fill="#91b9dc" stroke="#2a5082" stroke-miterlimit="10" stroke-width="2" data-name="Line 44" transform="translate(-795.328 107.852)"/><line id="Line_45" x1="23.212" fill="#91b9dc" stroke="#2a5082" stroke-miterlimit="10" stroke-width="2" data-name="Line 45" transform="translate(-794.48 77.238)"/></g></svg>