<?xml version="1.0" encoding="utf-8"?>
<!-- Generator: Adobe Illustrator 24.3.0, SVG Export Plug-In . SVG Version: 6.00 Build 0)  -->
<svg version="1.1" id="Layer_1" xmlns="http://www.w3.org/2000/svg" xmlns:xlink="http://www.w3.org/1999/xlink" x="0px" y="0px"
	 viewBox="0 0 48.3 51.3" style="enable-background:new 0 0 48.3 51.3;" xml:space="preserve">
<style type="text/css">
	.st0{fill:none;stroke:#707071;stroke-width:2;stroke-miterlimit:10;}
	.st1{fill:none;stroke:#707071;stroke-width:2;stroke-linejoin:round;}
	.st2{fill:none;stroke:#707071;stroke-width:2;stroke-linecap:round;stroke-miterlimit:10;}
	.st3{fill:none;stroke:#707071;stroke-width:2;stroke-linecap:round;stroke-linejoin:round;}
</style>
<g id="Group_2868" transform="translate(1068.674 689.223)">
	<path id="Path_2059" class="st0" d="M-155.5,80.2l9-9l9,9"/>
	<line id="Line_1070" class="st0" x1="-153.5" y1="61.2" x2="-167.5" y2="75.2"/>
	<path id="Path_2060" class="st0" d="M-162.5,48.2h-1c-2.2,0-4,1.8-4,4v24c0,2.2,1.8,4,4,4h34c2.2,0,4-1.8,4-4v-24c0-2.2-1.8-4-4-4
		h-1"/>
	<path id="Path_2061" class="st0" d="M-125.9,50.5l-12.6,12.6l13,13"/>
	<path id="Path_2062" class="st0" d="M-133.5,43.2c0,9.5-13,15.3-13,24c0-8.7-13-14.5-13-24c0-7.2,5.8-13,13-13
		S-133.5,36-133.5,43.2z"/>
	<circle id="Ellipse_415" class="st0" cx="-146.5" cy="43.2" r="4"/>
</g>
<g id="Group_2869" transform="translate(268.595 625.463)">
	<path id="Path_2063" class="st1" d="M-85.6-517.9c-0.2,2.6-2.4,4.6-5,4.5h-17.7c-0.2,0-0.3,0-0.5,0.1l-14,6.4l2.5-5.7
		c0.3-0.6,0-1.2-0.5-1.6c-1.4-0.8-2.2-2.2-2.3-3.7v-16.4c0.2-2.6,2.4-4.6,5-4.5h27.4c2.6-0.1,4.9,1.9,5,4.5L-85.6-517.9L-85.6-517.9
		z"/>
	<line id="Line_1071" class="st2" x1="-114.7" y1="-530" x2="-92" y2="-530"/>
	<line id="Line_1072" class="st2" x1="-114.6" y1="-523.7" x2="-92" y2="-523.7"/>
	<path id="Path_2064" class="st1" d="M-134.9-520l-1.2-0.5c-3.6-1.5-5.3-5.6-3.8-9.2l1.7-4.1c1.1-2.6,3.7-4.4,6.5-4.4
		c1.2,0.1,2.4,0.4,3.5,0.9l0.4,0.2L-134.9-520L-134.9-520z"/>
	<path id="Path_2065" class="st1" d="M-92.9-500.9c-0.6,1.8-1.9,3.3-3.5,4.1l-4,2c-0.5,0.2-1,0.4-1.5,0.6c-0.5,0.1-1.1,0.2-1.6,0.2
		c-2.7,0-5.1-1.5-6.3-3.9l-0.8-1.9l16.6-8.3l0.8,1.9C-92.5-504.7-92.3-502.7-92.9-500.9L-92.9-500.9z"/>
	<path id="Path_2066" class="st2" d="M-95.1-539.3c-10.1-8.8-25.1-8.3-34.7,1"/>
	<path id="Path_2067" class="st2" d="M-93.2-506.6c2.2-2.1,4-4.6,5.3-7.4"/>
</g>
<g id="Group_2873" transform="translate(401.568 -208.793)">
	<path id="Path_2072" class="st3" d="M-363.4,250.5v8.1h-36.9v-42.5h9.7"/>
	<path id="Path_2073" class="st3" d="M-372.9,216.2h9.5v4.1"/>
	<path id="Rectangle_2368" class="st3" d="M-388.6,210.4h13.8c1.1,0,1.9,0.9,1.9,1.9v5.1c0,1.1-0.9,1.9-1.9,1.9h-13.8
		c-1.1,0-1.9-0.9-1.9-1.9v-5.1C-390.5,211.3-389.7,210.4-388.6,210.4z"/>
	<line id="Line_1092" class="st3" x1="-383.9" y1="213.7" x2="-379.4" y2="213.7"/>
	<path id="Path_2074" class="st3" d="M-395.6,225.1l1.8,2.4l4.9-4.3"/>
	<path id="Path_2075" class="st3" d="M-395.5,235.7l1.8,2.4l4.9-4.3"/>
	<line id="Line_1093" class="st3" x1="-386.3" y1="226.2" x2="-371.5" y2="226.2"/>
	<line id="Line_1094" class="st3" x1="-386.2" y1="237" x2="-376.6" y2="237"/>
	<path id="Path_2076" class="st3" d="M-388.8,244.7l7.3,8.8l15.3-12l-3-3.7l-11.6,9.2l-4.4-5.4L-388.8,244.7z"/>
	<path id="Path_2077" class="st3" d="M-372.7,246.8c0,1.4,1.2,2.6,2.6,2.6c0,0,0,0,0,0h0.6v9"/>
	<path id="Path_2078" class="st3" d="M-372.7,240.5v-5c0-1.4,1.2-2.6,2.6-2.6c0,0,0,0,0,0h12.5c1.4,0,2.6,1.2,2.6,2.6c0,0,0,0,0,0
		v11.3c0,1.4-1.2,2.6-2.6,2.6c0,0,0,0,0,0l-0.4,0v9.2h-5.4"/>
	<circle id="Ellipse_416" class="st3" cx="-363.6" cy="225.3" r="4.5"/>
</g>
</svg>
