<svg xmlns="http://www.w3.org/2000/svg" width="519.611" height="343.047" viewBox="0 0 519.611 343.047">
  <g id="Group_2063" data-name="Group 2063" transform="translate(-111 -111)">
    <g id="Group_2058" data-name="Group 2058" transform="translate(111 111)">
      <path id="Path_1284" data-name="Path 1284" d="M287.44,454.048c-45.07,0-135.216-8.812-164.948-65.412s.557-116.989,64.073-141.5c58.294-22.495,95.12-48.255,110.568-86.356,16.184-39.915,97.371-72.81,151.77-28.844,70.236,56.766,18.617,114.981,56.443,138.147s99.757,34.442,94.456,98.2c-5.39,64.836-64.327,85.763-131.984,85.763Z" transform="translate(-111 -111)" fill="#d2e9f6"/>
      <g id="Group_1952" data-name="Group 1952" transform="translate(347.86 168.401)">
        <g id="Group_1950" data-name="Group 1950" transform="translate(0.856 17.162)">
          <path id="Path_1285" data-name="Path 1285" d="M923.051,489.662l-.681-1.52a230.829,230.829,0,0,0-102.631,92.044l1.227.731A229.273,229.273,0,0,1,923.051,489.662Z" transform="translate(-819.739 -488.142)" fill="#99badb"/>
        </g>
        <g id="Group_1951" data-name="Group 1951" transform="translate(102.606 8.243)">
          <path id="Path_1286" data-name="Path 1286" d="M1026.907,479.437c-.123.273-.246.544-.368.817q.426.127.852.255c8.513,2.519,22.415-8.534,23.249-8.943q1-.752,2.012-1.5-1.256-.017-2.515-.018C1049.427,469.793,1030.709,470.748,1026.907,479.437Z" transform="translate(-1026.539 -470.016)" fill="#99badb"/>
        </g>
        <path id="Path_1287" data-name="Path 1287" d="M840.379,637.913q-.275.388-.548.779l.594.421c14.812,9.485,38.666,1.058,39.747,1.415q.881-.242,1.761-.472-.726-.463-1.454-.924C879.6,638.293,852.054,621.577,840.379,637.913Z" transform="translate(-829.089 -543.437)" fill="#99badb"/>
        <path id="Path_1288" data-name="Path 1288" d="M877.7,594.171q-.319.348-.638.7l.552.513c12.157,10.441,34.122,5.69,35.051,6.037q.916-.141,1.833-.27-.686-.56-1.373-1.118C912.4,599.2,889.584,581.342,877.7,594.171Z" transform="translate(-848.003 -522.492)" fill="#99badb"/>
        <path id="Path_1289" data-name="Path 1289" d="M918.459,556.606l-.716.614.5.594c9.535,10.63,29.084,8.765,29.873,9.086q.943-.043,1.886-.073-.638-.648-1.277-1.294C948.135,564.736,929.9,546.9,918.459,556.606Z" transform="translate(-868.667 -504.294)" fill="#99badb"/>
        <path id="Path_1290" data-name="Path 1290" d="M961.517,525.151l-.783.527.441.667c7.081,10.135,23.829,10.375,24.486,10.664q.964.052,1.924.117-.582-.726-1.168-1.45C985.96,534.947,971.99,518.164,961.517,525.151Z" transform="translate(-890.505 -488.917)" fill="#99badb"/>
        <path id="Path_1291" data-name="Path 1291" d="M1001.367,501.951l-.834.448.383.724c4.979,8.964,18.66,10.4,19.194,10.64q.976.133,1.95.277-.531-.787-1.065-1.573C1020.65,511.837,1010.393,497.15,1001.367,501.951Z" transform="translate(-910.722 -477.506)" fill="#99badb"/>
        <path id="Path_1292" data-name="Path 1292" d="M821.741,558.179q-.5-.721-.992-1.442-.321,1.11-.631,2.219c-.9,1.375-7.384,31.707,8.016,41.7l.595.421.548-.779C840.3,585.28,822.511,559.632,821.741,558.179Z" transform="translate(-817.999 -505.825)" fill="#99badb"/>
        <path id="Path_1293" data-name="Path 1293" d="M867.2,520.118q-.429-.788-.857-1.578-.425,1.063-.84,2.125c-.847,1.115-9.236,26.748,3.335,37.612l.552.513q.319-.35.639-.7C881.289,546.221,867.758,521.449,867.2,520.118Z" transform="translate(-840.341 -486.422)" fill="#99badb"/>
        <path id="Path_1294" data-name="Path 1294" d="M914.124,490.3q-.358-.847-.714-1.7-.52,1.01-1.028,2.02c-.763.882-10.091,21.938-.279,32.909l.5.595q.357-.308.716-.614C924.218,514.476,914.5,491.484,914.124,490.3Z" transform="translate(-863.537 -471.217)" fill="#99badb"/>
        <path id="Path_1295" data-name="Path 1295" d="M961.576,468.078q-.283-.9-.565-1.793-.6.954-1.2,1.907c-.66.678-10.07,17.381-2.815,27.767q.22.334.441.667l.783-.527C968.266,489.54,961.815,469.089,961.576,468.078Z" transform="translate(-887.22 -459.877)" fill="#99badb"/>
        <path id="Path_1296" data-name="Path 1296" d="M1003.906,455.126q-.218-.931-.433-1.864-.668.9-1.326,1.8c-.535.507-9.137,13.222-4.059,22.358l.384.724.834-.448C1008.02,473.146,1004.046,455.947,1003.906,455.126Z" transform="translate(-908.669 -453.262)" fill="#99badb"/>
      </g>
      <g id="Group_1953" data-name="Group 1953" transform="translate(358.367 60.078)">
        <rect id="Rectangle_2059" data-name="Rectangle 2059" width="108.48" height="1.009" transform="matrix(0.604, -0.797, 0.797, 0.604, 2.807, 98.395)" fill="#99badb"/>
        <path id="Path_1297" data-name="Path 1297" d="M987.482,233.438c2.53,1.918-1.788,11.117-9.619,12.687C977.261,238.161,984.952,231.519,987.482,233.438Z" transform="translate(-909.697 -233.104)" fill="#99badb"/>
        <path id="Path_1298" data-name="Path 1298" d="M961.1,255.687c-7.29-4.289-8.416-14.992-5.219-16.033S964.464,247.929,961.1,255.687Z" transform="translate(-897.687 -236.391)" fill="#99badb"/>
        <path id="Path_1299" data-name="Path 1299" d="M942.028,275.611c-8.753-5.15-10.106-18-6.266-19.25S946.071,266.3,942.028,275.611Z" transform="translate(-887.296 -244.869)" fill="#99badb"/>
        <path id="Path_1300" data-name="Path 1300" d="M849.334,391.522c-10.531-6.2-12.157-21.657-7.539-23.161S854.2,380.314,849.334,391.522Z" transform="translate(-839.355 -301.753)" fill="#99badb"/>
        <path id="Path_1301" data-name="Path 1301" d="M919.47,298.982c-10.54-6.2-12.168-21.676-7.545-23.18S924.339,287.765,919.47,298.982Z" transform="translate(-874.977 -254.735)" fill="#99badb"/>
        <path id="Path_1302" data-name="Path 1302" d="M870.7,359.089c-11.721-6.9-13.531-24.106-8.391-25.779S876.116,346.614,870.7,359.089Z" transform="translate(-849.635 -283.941)" fill="#99badb"/>
        <path id="Path_1303" data-name="Path 1303" d="M894.956,325.71c-12.108-7.125-13.979-24.9-8.668-26.631S900.551,312.822,894.956,325.71Z" transform="translate(-861.77 -266.55)" fill="#99badb"/>
        <path id="Path_1304" data-name="Path 1304" d="M985.074,269.89c-.139,3.36-10.748,5.165-16.846-.7C974.789,263.857,985.213,266.531,985.074,269.89Z" transform="translate(-904.819 -249.898)" fill="#99badb"/>
        <path id="Path_1305" data-name="Path 1305" d="M970.819,292.665c-.166,4.034-12.9,6.2-20.227-.836C958.469,285.42,970.986,288.631,970.819,292.665Z" transform="translate(-895.861 -261.087)" fill="#99badb"/>
        <path id="Path_1306" data-name="Path 1306" d="M883.974,412.039c-.2,4.853-15.526,7.461-24.336-1.005C869.116,403.323,884.175,407.186,883.974,412.039Z" transform="translate(-849.658 -321.265)" fill="#99badb"/>
        <path id="Path_1307" data-name="Path 1307" d="M954.139,319.516c-.2,4.857-15.54,7.467-24.357-1.006C939.268,310.792,954.339,314.659,954.139,319.516Z" transform="translate(-885.29 -274.263)" fill="#99badb"/>
        <path id="Path_1308" data-name="Path 1308" d="M909.255,381.925c-.223,5.4-17.281,8.3-27.087-1.119C892.718,372.223,909.478,376.523,909.255,381.925Z" transform="translate(-861.103 -305.658)" fill="#99badb"/>
        <path id="Path_1309" data-name="Path 1309" d="M934.786,349.3c-.231,5.58-17.854,8.579-27.983-1.156C917.7,339.279,935.017,343.721,934.786,349.3Z" transform="translate(-873.617 -288.986)" fill="#99badb"/>
      </g>
      <g id="Group_1956" data-name="Group 1956" transform="translate(350.842 126.364)">
        <g id="Group_1954" data-name="Group 1954" transform="translate(19.074)">
          <path id="Path_1310" data-name="Path 1310" d="M981.712,373.429c-6.7-3.79-53.714-14.667-90.6,10.554-29.376,20.151-28.562,47.623-28.175,50.757a118.463,118.463,0,0,0,49.58-16.706C939.744,399.911,973.142,377.535,981.712,373.429Z" transform="translate(-862.827 -367.826)" fill="#205c8e"/>
        </g>
        <g id="Group_1955" data-name="Group 1955" transform="translate(0 0.693)">
          <path id="Path_1311" data-name="Path 1311" d="M825.294,528.962a178.389,178.389,0,0,1,18.994-26.291l.023-.026c-.429.046-.789.084-1.071.113-.027-.222-.056-.578-.077-1.033a179.871,179.871,0,0,0-19.1,26.507Z" transform="translate(-824.06 -436.537)" fill="#99badb"/>
          <path id="Path_1312" data-name="Path 1312" d="M864.034,435.343a178.349,178.349,0,0,1,31.709-28.6,144.792,144.792,0,0,1,26.884,5.293l1.676-1.116a145.176,145.176,0,0,0-26.514-5.6A178.363,178.363,0,0,1,952.132,380.3c3.458,1.742,6.884,3.651,10.153,5.613l1.547-.993c-2.988-1.825-6.117-3.615-9.264-5.257a178.4,178.4,0,0,1,25.223-4.5c.746-.407,1.4-.749,1.951-1.012a13.137,13.137,0,0,0-1.47-.679,183.142,183.142,0,0,0-55.934,15.144,188.836,188.836,0,0,1,10.337-19.374c-.714.078-1.435.172-2.155.265a189.127,189.127,0,0,0-10.467,20.167,179.992,179.992,0,0,0-49.43,34.409,193.271,193.271,0,0,1,4.913-27.407c-.869.992-1.673,1.988-2.444,2.983a192.8,192.8,0,0,0-4.259,26.207q-4.092,4.132-7.925,8.54l-.022.026c.021.455.049.811.077,1.033C863.245,435.427,863.605,435.389,864.034,435.343Z" transform="translate(-843.783 -369.235)" fill="#99badb"/>
        </g>
      </g>
      <g id="Group_1958" data-name="Group 1958" transform="translate(332.392 239.942)">
        <g id="Group_1957" data-name="Group 1957">
          <path id="Path_1313" data-name="Path 1313" d="M792.367,687.341c-7.489-7.158-8.1-23.788.332-36.513A32.765,32.765,0,0,1,824.8,635.922c13.926,1.826,22.121-2.565,30.821-16.392,9.7-15.544,30.743-20.712,47.073-10.722,9.843,5.954,18.414.819,29.576-4.561,2.126-1.026,4.35-2.061,6.609-2.982,12.6-5.1,22.118-1.552,26.258.954,5.629,3.332,8.827,8.5,8.632,13.2-.194,4.709-3.669,9.546-8.734,12.839-3.914,2.518-11.623,6.062-23.245,3.365-2.123-.481-4.264-1.017-6.348-1.5-10.817-2.568-20.9-3.8-26.17,5.923-8.71,15.98-21.934,22.61-37.694,19.061-14.214-3.208-22.865,1.949-25.89,14.433h0c-2.843,11.615-9.106,18.984-19.076,22.44C815.171,695.8,799.873,694.535,792.367,687.341Z" transform="translate(-786.562 -598.664)" fill="#205c8e"/>
        </g>
        <path id="Path_1314" data-name="Path 1314" d="M812.945,686.477a190.727,190.727,0,0,1,23.507.389c1.191.1,1.522-1.449.321-1.551v0a191.513,191.513,0,0,0-21.925-.527,240.713,240.713,0,0,1,65.6-41.031q8.57,2.811,16.691,6.3c1.122.484,1.913-.932.784-1.425l0,.006,0-.006q-7.38-3.194-15.147-5.841a240.531,240.531,0,0,1,70.433-16.937q4.27,3.178,8.336,6.531c.977.808,2.18-.366,1.2-1.187q-3.418-2.834-6.983-5.547,8.781-.653,17.657-.661a.811.811,0,1,0,0-1.609q-8.929.013-17.77.68,3.165-3.215,6.505-6.364c.968-.909-.412-1.972-1.376-1.061q-3.971,3.769-7.695,7.631a242.074,242.074,0,0,0-70.87,17.1q3.826-7.371,8.27-14.7l0,0h.005c.687-1.124-.925-1.71-1.6-.586q-4.881,8.094-9.008,16.252a242.213,242.213,0,0,0-65.984,41.339q1.9-11.094,4.905-22.442h0c.341-1.268-1.367-1.275-1.7-.008q-3.2,12.207-5.12,24.151C801.689,694.614,802.719,695.647,812.945,686.477Z" transform="translate(-795.801 -607.618)" fill="#99badb"/>
      </g>
      <g id="Group_1961" data-name="Group 1961" transform="translate(81.978 69.85)">
        <g id="Group_1959" data-name="Group 1959" transform="translate(21.864 14.988)">
          <path id="Path_1315" data-name="Path 1315" d="M322.051,284.774l.982-1.346a230.825,230.825,0,0,1,81.308,111.328l-1.352.461A229.267,229.267,0,0,0,322.051,284.774Z" transform="translate(-322.051 -283.428)" fill="#99badb"/>
        </g>
        <g id="Group_1960" data-name="Group 1960" transform="translate(0 1.082)">
          <path id="Path_1316" data-name="Path 1316" d="M300.858,269.669c.064.292.128.584.19.876q-.444.035-.886.073c-8.85.7-20.158-13-20.889-13.57q-.822-.943-1.658-1.883,1.233.244,2.465.5C280.827,255.564,298.941,260.38,300.858,269.669Z" transform="translate(-277.615 -255.166)" fill="#99badb"/>
        </g>
        <path id="Path_1317" data-name="Path 1317" d="M432.336,464.9q.188.437.375.875l-.669.288c-16.457,6.206-38.045-6.985-39.176-6.86q-.812-.419-1.626-.826.807-.3,1.614-.6C393.888,457.139,424.3,446.5,432.336,464.9Z" transform="translate(-335.334 -355.159)" fill="#99badb"/>
        <path id="Path_1318" data-name="Path 1318" d="M409.112,415.4q.24.407.48.815l-.646.387c-14.058,7.693-34.561-1.511-35.541-1.364q-.867-.328-1.737-.644.787-.406,1.575-.809C374.131,413.121,400.151,400.387,409.112,415.4Z" transform="translate(-325.392 -331.778)" fill="#99badb"/>
        <path id="Path_1319" data-name="Path 1319" d="M381.939,370.967q.287.373.573.749l-.613.478c-11.532,8.421-30.269,2.542-31.108,2.693q-.914-.238-1.83-.463.758-.5,1.517-1C351.222,372.765,372.756,359.1,381.939,370.967Z" transform="translate(-313.857 -310.456)" fill="#99badb"/>
        <path id="Path_1320" data-name="Path 1320" d="M351.682,331.851q.328.339.656.678l-.57.561c-9.029,8.446-25.463,5.208-26.165,5.354q-.954-.148-1.907-.285.72-.589,1.443-1.176C325.738,336.365,342.885,322.844,351.682,331.851Z" transform="translate(-301.023 -291.471)" fill="#99badb"/>
        <path id="Path_1321" data-name="Path 1321" d="M323.021,301.326l.723.611-.526.629c-6.73,7.737-20.411,6.3-20.984,6.428q-.983-.072-1.965-.134.683-.66,1.368-1.318C302.106,307,315.186,294.759,323.021,301.326Z" transform="translate(-289.123 -276.551)" fill="#99badb"/>
        <path id="Path_1322" data-name="Path 1322" d="M489.267,394.2q.636-.6,1.268-1.2.083,1.152.157,2.3c.6,1.533.647,32.549-16.491,39.126l-.669.288q-.186-.438-.374-.876C465.487,416.862,488.212,395.461,489.267,394.2Z" transform="translate(-376.145 -324.097)" fill="#99badb"/>
        <path id="Path_1323" data-name="Path 1323" d="M456.1,347.193q.584-.682,1.166-1.367.195,1.128.38,2.253c.6,1.267,3.487,28.082-11.063,36.1l-.646.387q-.239-.408-.48-.815C436.907,369.805,455.281,348.379,456.1,347.193Z" transform="translate(-361.726 -300.137)" fill="#99badb"/>
        <path id="Path_1324" data-name="Path 1324" d="M419.168,307.994q.526-.755,1.05-1.511.3,1.1.586,2.19c.563,1.02,5.322,23.554-6.552,32.252l-.613.478q-.286-.376-.574-.749C404.28,329.547,418.552,309.07,419.168,307.994Z" transform="translate(-344.973 -280.151)" fill="#99badb"/>
        <path id="Path_1325" data-name="Path 1325" d="M379.746,276.2q.463-.817.925-1.637.392,1.058.774,2.113c.505.8,6.246,19.091-3,27.747l-.57.561-.657-.678C368.75,295.808,379.3,277.14,379.746,276.2Z" transform="translate(-326.544 -263.937)" fill="#99badb"/>
        <path id="Path_1326" data-name="Path 1326" d="M343.21,254.7q.406-.866.81-1.734.467,1.017.924,2.034c.418.607,6.2,14.83-.666,22.713l-.526.629-.722-.612C335.449,271.474,342.9,255.474,343.21,254.7Z" transform="translate(-309.122 -252.966)" fill="#99badb"/>
      </g>
      <g id="Group_1962" data-name="Group 1962" transform="translate(77.52 257.285)">
        <path id="Path_1327" data-name="Path 1327" d="M303.283,663.916l.232-1.052a198.614,198.614,0,0,1,106.323,63.6l-.694.6A197.622,197.622,0,0,0,303.283,663.916Z" transform="translate(-286.195 -648.619)" fill="#205c8e"/>
        <path id="Path_1328" data-name="Path 1328" d="M268.561,655.14c.361-3.548,12.71-3.9,18.286,3.327C278.915,662.329,268.226,658.554,268.561,655.14Z" transform="translate(-268.553 -643.448)" fill="#205c8e"/>
        <path id="Path_1329" data-name="Path 1329" d="M308.76,669.017c-1.394,8.727-11.578,14.224-13.974,11.76C292.235,678.229,298.878,668.471,308.76,669.017Z" transform="translate(-281.601 -651.733)" fill="#205c8e"/>
        <path id="Path_1330" data-name="Path 1330" d="M337.215,679.336c-2.492,10.078-14.969,15.592-17.554,12.532C316.863,688.673,325.479,677.65,337.215,679.336Z" transform="translate(-294.245 -656.898)" fill="#205c8e"/>
        <path id="Path_1331" data-name="Path 1331" d="M476.064,769.4c-6.931,8.721-22.558,7.769-24.042,3.474C450.338,768.282,464.191,761.315,476.064,769.4Z" transform="translate(-361.68 -700.85)" fill="#205c8e"/>
        <path id="Path_1332" data-name="Path 1332" d="M369.122,694.6c-4.083,11.462-19.352,16.56-22.062,12.776C344.061,703.375,355.273,691.134,369.122,694.6Z" transform="translate(-308.184 -664.431)" fill="#205c8e"/>
        <path id="Path_1333" data-name="Path 1333" d="M441.5,741.446c-6.847,10.745-24.227,12.054-26.31,7.516C412.817,744.086,427.389,734.043,441.5,741.446Z" transform="translate(-342.911 -687.198)" fill="#205c8e"/>
        <path id="Path_1334" data-name="Path 1334" d="M403.1,715.124c-5.935,12.2-23.678,16.036-26.3,11.58C373.815,721.926,387.714,709.34,403.1,715.124Z" transform="translate(-323.331 -674.408)" fill="#205c8e"/>
        <path id="Path_1335" data-name="Path 1335" d="M306.389,634.012c3.93-1.225,11.355,8.991,7.727,17.183C305.6,646.686,302.619,635.3,306.389,634.012Z" transform="translate(-286.957 -633.912)" fill="#205c8e"/>
        <path id="Path_1336" data-name="Path 1336" d="M337.751,636.707c4.86-1.068,12.909,11.8,7.807,21.032C335.862,651.571,333.117,637.88,337.751,636.707Z" transform="translate(-302.589 -635.3)" fill="#205c8e"/>
        <path id="Path_1337" data-name="Path 1337" d="M496.385,721.385c5.743,1.485,9.025,18.97-.367,25.474C488.265,735.427,490.867,720.167,496.385,721.385Z" transform="translate(-381.634 -678.311)" fill="#205c8e"/>
        <path id="Path_1338" data-name="Path 1338" d="M374.359,642.909c6.006-.689,14.441,15.559,7.324,25.735C370.822,660.211,368.66,643.78,374.359,642.909Z" transform="translate(-320.746 -638.471)" fill="#205c8e"/>
        <path id="Path_1339" data-name="Path 1339" d="M458.943,685.642c6.648.858,12.285,20.177,2.454,28.788C451.59,702.724,452.612,685.074,458.943,685.642Z" transform="translate(-362.81 -660.183)" fill="#205c8e"/>
        <path id="Path_1340" data-name="Path 1340" d="M414.784,656c7,0,14.975,19.469,5.723,29.846C409.131,674.974,408.159,656.281,414.784,656Z" transform="translate(-340.74 -645.133)" fill="#205c8e"/>
      </g>
      <g id="Group_1965" data-name="Group 1965" transform="translate(28.891 141.401)">
        <g id="Group_1964" data-name="Group 1964">
          <g id="Group_1963" data-name="Group 1963">
            <path id="Path_1341" data-name="Path 1341" d="M287.679,497.236c-12.495.04-24.9-7.708-32.369-20.221-6.582-11.024-15.535-12.6-24.193-14.126-6.142-1.082-12.494-2.2-17.867-6.647-5.993-4.96-8.477-10.152-10.668-14.734-2.581-5.4-4.81-10.055-12.205-12.707-13.553-4.857-18.3-11.122-19.891-15.521a11.9,11.9,0,0,1,.876-10.255,9.364,9.364,0,0,1,6.933-4.479c6.708-1.036,16.544,3.059,24.475,10.19,6.775,6.092,11.965,6.164,18.535,6.255,4.743.066,10.118.141,16.909,2.695,5.558,2.09,8.143,6.419,10.644,10.6,2.092,3.5,4.254,7.122,8.191,9.439,4.107,2.417,8.423,2.447,13.888,2.487,6.607.048,14.83.107,25.538,4.793,8.259,3.614,13.9,9.454,16.305,16.889a27.9,27.9,0,0,1-2.88,22.657A25.292,25.292,0,0,1,287.679,497.236Z" transform="translate(-169.719 -398.388)" fill="#205c8e"/>
          </g>
        </g>
        <path id="Path_1342" data-name="Path 1342" d="M211.886,430.341a.763.763,0,0,1,1.045-.271l141.345,83.182-.774,1.315L212.156,431.385A.762.762,0,0,1,211.886,430.341Z" transform="translate(-191.085 -414.428)" fill="#99badb"/>
      </g>
      <g id="Group_1989" data-name="Group 1989" transform="translate(78.033 95.333)">
        <g id="Group_1971" data-name="Group 1971" transform="translate(81.577)">
          <g id="Group_1969" data-name="Group 1969">
            <g id="Group_1968" data-name="Group 1968">
              <g id="Group_1967" data-name="Group 1967" transform="translate(192.893)">
                <path id="Path_1343" data-name="Path 1343" d="M827.435,321c0-8.97,7.536-16.24,16.83-16.24S861.1,312.029,861.1,321v104.14h0c0,8.969,7.535,16.24,16.83,16.24H827.435V321Z" transform="translate(-827.435 -304.758)" fill="#b0b0b0"/>
                <g id="Group_1966" data-name="Group 1966" transform="translate(33.659 65.412)">
                  <path id="Path_1344" data-name="Path 1344" d="M895.844,492.67h0V437.7H929.5V492.67c0,8.969-7.535,16.24-16.83,16.24S895.844,501.639,895.844,492.67Z" transform="translate(-895.844 -437.702)" fill="#fff"/>
                </g>
              </g>
              <path id="Path_1345" data-name="Path 1345" d="M485.993,536.232h0V321h0c0-8.97,7.535-16.24,16.83-16.24H662.271c-9.295,0-16.83,7.271-16.83,16.24V536.232c0,8.969-7.535,16.24-16.83,16.24H469.163C478.458,552.472,485.993,545.2,485.993,536.232Z" transform="translate(-452.548 -304.758)" fill="#fff"/>
              <path id="Path_1346" data-name="Path 1346" d="M594.844,761.89v6.554h0c0,8.969,7.535,16.24,16.83,16.24H452.224c-9.295,0-16.83-7.271-16.83-16.24V761.89Z" transform="translate(-435.394 -536.97)" fill="#b0b0b0"/>
            </g>
          </g>
          <g id="Group_1970" data-name="Group 1970" transform="translate(51.214 29.118)">
            <rect id="Rectangle_2060" data-name="Rectangle 2060" width="123.91" height="2.628" fill="#99badb"/>
            <rect id="Rectangle_2061" data-name="Rectangle 2061" width="123.91" height="2.628" transform="translate(0 12.878)" fill="#99badb"/>
            <rect id="Rectangle_2062" data-name="Rectangle 2062" width="123.91" height="2.628" transform="translate(0 25.756)" fill="#99badb"/>
            <rect id="Rectangle_2063" data-name="Rectangle 2063" width="123.91" height="2.628" transform="translate(0 38.635)" fill="#99badb"/>
            <rect id="Rectangle_2064" data-name="Rectangle 2064" width="123.91" height="2.628" transform="translate(0 51.513)" fill="#99badb"/>
            <rect id="Rectangle_2065" data-name="Rectangle 2065" width="123.91" height="2.628" transform="translate(0 64.391)" fill="#99badb"/>
            <rect id="Rectangle_2066" data-name="Rectangle 2066" width="123.91" height="2.628" transform="translate(0 77.269)" fill="#99badb"/>
            <rect id="Rectangle_2067" data-name="Rectangle 2067" width="123.91" height="2.628" transform="translate(0 90.147)" fill="#99badb"/>
            <rect id="Rectangle_2068" data-name="Rectangle 2068" width="123.91" height="2.628" transform="translate(0 103.025)" fill="#99badb"/>
            <rect id="Rectangle_2069" data-name="Rectangle 2069" width="123.91" height="2.628" transform="translate(0 115.904)" fill="#99badb"/>
            <rect id="Rectangle_2070" data-name="Rectangle 2070" width="123.91" height="2.628" transform="translate(0 128.782)" fill="#99badb"/>
            <rect id="Rectangle_2071" data-name="Rectangle 2071" width="123.91" height="2.628" transform="translate(0 141.66)" fill="#99badb"/>
            <rect id="Rectangle_2072" data-name="Rectangle 2072" width="123.91" height="2.628" transform="translate(0 154.538)" fill="#99badb"/>
            <rect id="Rectangle_2073" data-name="Rectangle 2073" width="123.91" height="2.628" transform="translate(0 167.416)" fill="#99badb"/>
            <rect id="Rectangle_2074" data-name="Rectangle 2074" width="123.91" height="2.628" transform="translate(0 180.295)" fill="#99badb"/>
          </g>
        </g>
        <g id="Group_1988" data-name="Group 1988" transform="translate(0 9.777)">
          <g id="Group_1982" data-name="Group 1982" transform="translate(0 0)">
            <g id="Group_1981" data-name="Group 1981">
              <path id="Path_1347" data-name="Path 1347" d="M343.126,587.744c.959-.693,2.043-2.876,1.128-3.151-.573-.172-1.695,1.655-3.071,2.565a5.844,5.844,0,0,0-1.67,2.473l-8.309,2.984,1.478,3.572,8.041-3.57a11.835,11.835,0,0,0,5.008-.6c2.612-1.081,4.626-2.89,3.712-5.1C348.562,584.79,344.985,587.6,343.126,587.744Z" transform="translate(-300.891 -456.679)" fill="#f2b78b"/>
              <g id="Group_1975" data-name="Group 1975" transform="translate(2.34 121.277)">
                <g id="Group_1974" data-name="Group 1974">
                  <g id="Group_1973" data-name="Group 1973">
                    <g id="Group_1972" data-name="Group 1972">
                      <path id="Path_1348" data-name="Path 1348" d="M291.307,583.335c-3.03-1.694-11-15.192-15.433-11.621-5.28,4.256,4.374,14.653,10.646,17.776,5.73,2.852,16.622,1.977,24.64-2.544l-1.6-4.717C302.984,585.2,294.338,585.029,291.307,583.335Z" transform="translate(-274.351 -571.116)" fill="#0c3265"/>
                    </g>
                  </g>
                </g>
              </g>
              <g id="Group_1976" data-name="Group 1976">
                <circle id="Ellipse_27" data-name="Ellipse 27" cx="80.667" cy="80.667" r="80.667" transform="translate(0 114.08) rotate(-45)" fill="#ceab8b"/>
              </g>
              <g id="Group_1978" data-name="Group 1978" transform="translate(12.263 12.263)">
                <g id="Group_1977" data-name="Group 1977" transform="translate(0 0)">
                  <circle id="Ellipse_28" data-name="Ellipse 28" cx="71.995" cy="71.995" r="71.995" transform="translate(0 101.817) rotate(-45)" fill="#fff"/>
                </g>
              </g>
              <g id="Group_1980" data-name="Group 1980" transform="translate(46.705 46.705)">
                <g id="Group_1979" data-name="Group 1979">
                  <rect id="Rectangle_2075" data-name="Rectangle 2075" width="2.299" height="17.859" transform="translate(66.225)" fill="#826448"/>
                  <rect id="Rectangle_2076" data-name="Rectangle 2076" width="2.299" height="17.859" transform="translate(66.225 116.89)" fill="#826448"/>
                  <rect id="Rectangle_2077" data-name="Rectangle 2077" width="17.859" height="2.299" transform="translate(0 66.225)" fill="#826448"/>
                  <rect id="Rectangle_2078" data-name="Rectangle 2078" width="17.859" height="2.299" transform="translate(116.89 66.225)" fill="#826448"/>
                  <rect id="Rectangle_2079" data-name="Rectangle 2079" width="8.93" height="1.1" transform="matrix(0.5, -0.866, 0.866, 0.5, 33.211, 125.448)" fill="#826448"/>
                  <rect id="Rectangle_2080" data-name="Rectangle 2080" width="8.93" height="1.1" transform="matrix(0.5, -0.866, 0.866, 0.5, 96.121, 16.485)" fill="#826448"/>
                  <rect id="Rectangle_2081" data-name="Rectangle 2081" width="1.1" height="8.93" transform="matrix(0.866, -0.5, 0.5, 0.866, 96.121, 118.265)" fill="#826448"/>
                  <rect id="Rectangle_2082" data-name="Rectangle 2082" width="1.1" height="8.93" transform="translate(33.211 9.302) rotate(-30)" fill="#826448"/>
                  <rect id="Rectangle_2083" data-name="Rectangle 2083" width="1.1" height="8.93" transform="translate(117.714 97.074) rotate(-59.999)" fill="#826448"/>
                  <rect id="Rectangle_2084" data-name="Rectangle 2084" width="1.1" height="8.93" transform="translate(8.751 34.164) rotate(-60)" fill="#826448"/>
                  <rect id="Rectangle_2085" data-name="Rectangle 2085" width="8.93" height="1.1" transform="matrix(0.866, -0.5, 0.5, 0.866, 117.714, 37.676)" fill="#826448"/>
                  <rect id="Rectangle_2086" data-name="Rectangle 2086" width="8.93" height="1.1" transform="matrix(0.866, -0.5, 0.5, 0.866, 8.751, 100.585)" fill="#826448"/>
                </g>
              </g>
            </g>
          </g>
          <g id="Group_1987" data-name="Group 1987" transform="translate(78.355 56.706)">
            <g id="Group_1985" data-name="Group 1985" transform="translate(35.682 13.682)">
              <g id="Group_1984" data-name="Group 1984">
                <g id="Group_1983" data-name="Group 1983">
                  <path id="Path_1349" data-name="Path 1349" d="M538.02,467.688l0,0c-.134.136-15.739,16.064-26.56,28.914C508.6,500,500.721,510.8,501.41,511.38s9.947-9.07,12.788-12.477c10.759-12.9,23.708-31.055,23.819-31.211l0,0h0Z" transform="translate(-501.368 -467.688)" fill="#70533a"/>
                </g>
              </g>
            </g>
            <path id="Path_1350" data-name="Path 1350" d="M453.689,547.71c-10.535-1.5-24.717-1.816-24.839-1.818h0c.118.033,13.8,3.78,24.323,5.357,2.778.416,11.268.746,11.4-.143S456.47,548.1,453.689,547.71Z" transform="translate(-428.847 -493.731)" fill="#70533a"/>
            <path id="Path_1351" data-name="Path 1351" d="M498.654,550.976a2.712,2.712,0,1,0,2.712,2.712A2.712,2.712,0,0,0,498.654,550.976Z" transform="translate(-462.93 -496.314)" fill="#ceab8b"/>
            <path id="Path_1352" data-name="Path 1352" d="M500.158,553.935a1.256,1.256,0,1,0,1.256,1.256A1.256,1.256,0,0,0,500.158,553.935Z" transform="translate(-464.433 -497.817)" fill="#fc5252"/>
            <g id="Group_1986" data-name="Group 1986" transform="translate(13.82 0)">
              <rect id="Rectangle_2087" data-name="Rectangle 2087" width="0.994" height="61.085" transform="translate(0 0.349) rotate(-20.547)" fill="#fc5252"/>
            </g>
          </g>
        </g>
      </g>
      <g id="Group_2005" data-name="Group 2005" transform="translate(333.128 203.274)">
        <path id="Path_1353" data-name="Path 1353" d="M801.854,524.507c-4.744,1.779-6.128,8.681,0,13.521,4.9,3.867,8.929-9.81,8.929-9.81C810.276,526.088,805.631,523.091,801.854,524.507Z" transform="translate(-792.987 -524.14)" fill="#030303"/>
        <g id="Group_1990" data-name="Group 1990" transform="translate(6.794 10.997)">
          <path id="Path_1354" data-name="Path 1354" d="M804.774,546.491a9.458,9.458,0,0,1-2.908,5.79s0,2.241,2.834,3.585a3.373,3.373,0,0,0,4.336-.738l.923-4.876S807.727,546.755,804.774,546.491Z" transform="translate(-801.866 -546.491)" fill="#e0935f"/>
        </g>
        <g id="Group_1991" data-name="Group 1991" transform="translate(6.986 2.977)">
          <path id="Path_1355" data-name="Path 1355" d="M807.208,530.618a56.215,56.215,0,0,1-.478,6.757l-.85-.346s-.352-2.048-.393-2.092c-.365-.384-1.631-1.547-2.684-.461-1.131,1.168-.433,3.14,1.443,3.817,3.038,4.81,8.006,4.478,8.7,3.282,1.827-3.129.759-8.036.115-10.285C811.377,529.6,807.8,530.268,807.208,530.618Z" transform="translate(-802.257 -530.19)" fill="#f2b78b"/>
        </g>
        <path id="Path_1356" data-name="Path 1356" d="M856.931,638.377c1.044.558,3.481.576,3.327-.367-.1-.59-2.231-.8-3.651-1.636a5.849,5.849,0,0,0-2.955-.417l-6.324-6.16-2.563,2.894,6.733,5.662a11.837,11.837,0,0,0,2.733,4.239c2.116,1.874,4.626,2.892,6.211,1.1C861.97,641.968,857.873,639.985,856.931,638.377Z" transform="translate(-816.863 -577.811)" fill="#f2b78b"/>
        <g id="Group_1992" data-name="Group 1992" transform="translate(9.007 23.325)">
          <path id="Path_1357" data-name="Path 1357" d="M819.857,588.177c-2.61-8.431-7.563-18.262-11.573-16.4-4.78,2.216.379,13.164,4.442,19.743,5.6,9.062,17.8,16.96,17.8,16.96l3.542-3.3S821.882,594.718,819.857,588.177Z" transform="translate(-806.364 -571.546)" fill="#826448"/>
        </g>
        <path id="Path_1358" data-name="Path 1358" d="M808.136,572.176c-1.088-4.984-6.115-11.071-6.115-11.071s-3.137.527-7.17-2.847c-4.639,4.059-8.006,8.523-6.379,23.038.949,8.461,3.532,19.136,3.532,23.564h17.4s-.325-6.574-1.16-13.812C806.977,580.084,809.4,577.975,808.136,572.176Z" transform="translate(-788.057 -541.472)" fill="#ceab8b"/>
        <g id="Group_1993" data-name="Group 1993" transform="translate(2.735 27.117)">
          <path id="Path_1359" data-name="Path 1359" d="M812.241,584.768c-1.609,0-2.644-2.5-3.645-4.913l-.123-.3a.492.492,0,0,0-.909.377l.123.3c1.125,2.714,2.288,5.52,4.555,5.52,2.187,0,4.055-1.411,5.665-3.4-.1-.375-.221-.755-.356-1.138C816.01,583.273,814.249,584.768,812.241,584.768Z" transform="translate(-800.681 -579.254)" fill="#826448"/>
          <path id="Path_1360" data-name="Path 1360" d="M794.578,587.477a.492.492,0,1,0-.94.292c1.4,4.49,4.881,9.021,9.525,9.021a13.306,13.306,0,0,0,7.852-2.473c.052-.473.1-.925.152-1.366a12.4,12.4,0,0,1-8,2.855C799.02,595.806,795.866,591.623,794.578,587.477Z" transform="translate(-793.616 -583.255)" fill="#826448"/>
        </g>
        <g id="Group_1997" data-name="Group 1997" transform="translate(6.154 63.389)">
          <g id="Group_1996" data-name="Group 1996">
            <g id="Group_1995" data-name="Group 1995">
              <g id="Group_1994" data-name="Group 1994">
                <path id="Path_1361" data-name="Path 1361" d="M815.756,652.974s-10.124.006-15.19,0c1.046,14.019,8.331,25.821,13.2,38.706,1.634,9.5,2.526,21.045,3.34,30.642h6.132c.971-11.655,1.386-25.478-.449-36.867S818.515,663.954,815.756,652.974Z" transform="translate(-800.566 -652.974)" fill="#001738"/>
              </g>
            </g>
          </g>
        </g>
        <g id="Group_1998" data-name="Group 1998" transform="translate(3.12 63.389)">
          <path id="Path_1362" data-name="Path 1362" d="M798.285,692.147c-.436,5.746.767,30.175.767,30.175h6.19s2.9-27.926,3.42-34.674,1.6-30.8,1.6-34.674H795.225C792.444,664.572,797.505,677.751,798.285,692.147Z" transform="translate(-794.398 -652.974)" fill="#002853"/>
        </g>
        <path id="Path_1363" data-name="Path 1363" d="M833.923,571.528l3.648,1.278,2.695-8.375-3.032-1.088Z" transform="translate(-811.356 -544.055)" fill="#f2b78b"/>
        <g id="Group_2000" data-name="Group 2000" transform="translate(2.58 21.958)">
          <g id="Group_1999" data-name="Group 1999">
            <path id="Path_1364" data-name="Path 1364" d="M805.015,579.933c-4.171,0-4.359-12.053-9.194-10.341-5.731,2.029-.987,17.379,7.182,17.379,7.539,0,12.984-5.769,16.007-16.341l-4.093-1.862C812.507,573.684,809.391,579.933,805.015,579.933Z" transform="translate(-793.301 -568.768)" fill="#ceab8b"/>
          </g>
        </g>
        <g id="Group_2002" data-name="Group 2002" transform="translate(24.814 4.82)">
          <g id="Group_2001" data-name="Group 2001">
            <path id="Path_1365" data-name="Path 1365" d="M838.491,549.573l3.458.256v-4.179l-3.458.256Z" transform="translate(-838.491 -539.887)" fill="#d2e9f6"/>
            <path id="Path_1366" data-name="Path 1366" d="M846.734,561.517h2.5v-5.434h-3.239Z" transform="translate(-842.302 -545.186)" fill="#d2e9f6"/>
            <path id="Path_1367" data-name="Path 1367" d="M853.887,542.172v2.748c2.357,0,10.066,4.735,10.066,4.735V534.69s-7.709,4.734-10.066,4.734Z" transform="translate(-846.312 -534.32)" fill="#d2e9f6"/>
            <path id="Path_1368" data-name="Path 1368" d="M848.735,543.308h-3.726a.493.493,0,0,0-.494.494v5.5a.495.495,0,0,0,.494.494h3.726a.494.494,0,0,0,.494-.494v-5.5a.494.494,0,0,0-.494-.494Z" transform="translate(-841.551 -538.697)" fill="#826448"/>
            <path id="Path_1369" data-name="Path 1369" d="M874.78,533.937a.435.435,0,0,0-.435.436v14.834a.436.436,0,1,0,.871,0V534.373A.436.436,0,0,0,874.78,533.937Z" transform="translate(-856.704 -533.937)" fill="#826448"/>
          </g>
          <path id="Path_1370" data-name="Path 1370" d="M849.347,566.346h-2.539a.48.48,0,1,0,0,.96h3.633C851.162,567.306,850.095,566.346,849.347,566.346Z" transform="translate(-842.472 -550.4)" fill="#826448"/>
        </g>
        <path id="Path_1371" data-name="Path 1371" d="M845.288,556.639c-.667-.818-1.423-.69-2.793.228a5.736,5.736,0,0,0-1.9,2.795c-.5,1.237,2.6,2.438,2.6,2.438a5.5,5.5,0,0,0,3.3-.6c1.407-.593,2.613-1.956,1.843-3.782A2.019,2.019,0,0,0,845.288,556.639Z" transform="translate(-814.717 -540.372)" fill="#f2b78b"/>
        <g id="Group_2003" data-name="Group 2003" transform="translate(8.41 132.738)">
          <path id="Path_1372" data-name="Path 1372" d="M806.11,796.127l2.184,2.481L809.886,796l.034-2.08H805.9Z" transform="translate(-805.533 -793.92)" fill="#f2b78b"/>
          <path id="Path_1373" data-name="Path 1373" d="M812.956,800.281a17.161,17.161,0,0,1-3.453-2.133,3.172,3.172,0,0,1-3.775.127,6.73,6.73,0,0,0-.253,4.828h3.467v-.73a26.1,26.1,0,0,0,5.67.73c2.835,0,3.349-.79,3.031-1.235S815.413,801.362,812.956,800.281Z" transform="translate(-805.151 -796.068)" fill="#030303"/>
        </g>
        <g id="Group_2004" data-name="Group 2004" transform="translate(23.365 132.738)">
          <path id="Path_1374" data-name="Path 1374" d="M836.5,796.127l2.184,2.481L840.28,796l.034-2.08H836.3Z" transform="translate(-835.927 -793.92)" fill="#f2b78b"/>
          <path id="Path_1375" data-name="Path 1375" d="M843.35,800.281a17.169,17.169,0,0,1-3.453-2.133,3.172,3.172,0,0,1-3.776.127,6.73,6.73,0,0,0-.252,4.828h3.467v-.73a26.1,26.1,0,0,0,5.67.73c2.836,0,3.349-.79,3.032-1.235S845.806,801.362,843.35,800.281Z" transform="translate(-835.544 -796.068)" fill="#030303"/>
        </g>
      </g>
      <g id="Group_2030" data-name="Group 2030" transform="translate(156.627 58.557)">
        <g id="Group_2025" data-name="Group 2025" transform="translate(6.077)">
          <g id="Group_2024" data-name="Group 2024">
            <path id="Path_1376" data-name="Path 1376" d="M509.5,230.257c2.156.944,8.216,9.712,2.793,14.367-4.838,4.153-11.6-6.573-11.6-6.573a2.831,2.831,0,0,1-2.148-2.477C498.5,233.874,506.292,228.853,509.5,230.257Z" transform="translate(-470.567 -230.012)" fill="#030303"/>
            <path id="Path_1377" data-name="Path 1377" d="M518.618,255.459a9.46,9.46,0,0,0,2.908,5.79s0,2.24-2.834,3.585a3.373,3.373,0,0,1-4.336-.738l-.923-4.876S515.666,255.723,518.618,255.459Z" transform="translate(-478.131 -242.939)" fill="#e0935f"/>
            <path id="Path_1378" data-name="Path 1378" d="M508.256,243.724c1.991,3.16,2.977,3.663,2.977,3.663s.85-2.261,2.447-1.453c1.451.734,1.435,2.826-.118,4.079-1.3,5.539-6.106,6.846-7.156,5.944-3.658-3.142-3.5-10.94-3.5-10.94Z" transform="translate(-472.784 -236.978)" fill="#f2b78b"/>
            <path id="Path_1379" data-name="Path 1379" d="M472.843,344.653a22.157,22.157,0,0,1,4.837-1.087l7.473-4.7,1.9,3.366-7.769,4.129a18.266,18.266,0,0,1-2.249,1.878c-2.185,1.5-3.323.606-4.469-.833-.844.477-1.07,3.991-1.591,4.285C469.591,352.472,470.275,346.1,472.843,344.653Z" transform="translate(-456.207 -285.307)" fill="#e0935f"/>
            <g id="Group_2006" data-name="Group 2006" transform="translate(22.203 26.682)">
              <path id="Path_1380" data-name="Path 1380" d="M502.264,301.448c1.308-5.2-.857-17.169,4.93-17.206,6.212-.039,4.625,15.948,1.93,20.465-3.714,6.223-13.669,10.5-19.5,13.625l-2.814-3.977C490.737,311.782,501.248,305.482,502.264,301.448Z" transform="translate(-486.809 -284.242)" fill="#826448"/>
            </g>
            <path id="Path_1381" data-name="Path 1381" d="M497.414,281.144c1.087-4.984,8.7-11.07,8.7-11.07s3.137.527,7.17-2.847c4.639,4.059,6.649,8.609,3.959,22.965-1.354,7.222-4.881,16.876-1.112,23.637h-17.4c0-.622,1.848-19.981,1.2-22.093C498.554,287.28,496.555,285.078,497.414,281.144Z" transform="translate(-469.888 -248.917)" fill="#ceab8b"/>
            <path id="Path_1382" data-name="Path 1382" d="M518.051,244.775c3.3,5.456,2.353,7.459,3.039,10.938.657,3.338,1.27,6.642.258,6.642-.68,0-6.953-7.591-7.691-13.6-.358-2.912-3.122-2.477-2.53-6.853.529-3.909-8.217-3.836-8.217-3.836l7.816-8.025C518.865,230.673,515.418,240.418,518.051,244.775Z" transform="translate(-472.785 -230.026)" fill="#030303"/>
            <g id="Group_2009" data-name="Group 2009" transform="translate(29.408 33.582)">
              <g id="Group_2007" data-name="Group 2007" transform="translate(0 0.694)">
                <path id="Path_1383" data-name="Path 1383" d="M515.045,311.855c1.333-2.234,2.346-7.367,2.306-11.684a.492.492,0,0,1,.487-.5h.005a.492.492,0,0,1,.492.488c.043,4.547-1.009,9.79-2.445,12.2-2.8,4.688-9.093,8.316-14.438,11.1.031-.379.061-.767.092-1.16C506.655,319.612,512.471,316.168,515.045,311.855Z" transform="translate(-501.452 -299.675)" fill="#826448"/>
              </g>
              <g id="Group_2008" data-name="Group 2008" transform="translate(0.51)">
                <path id="Path_1384" data-name="Path 1384" d="M502.723,314.355c2.951-2.225,5.484-4.557,5.934-6.343a32.293,32.293,0,0,0,.538-6.058c.036-1.064.072-2.165.141-3.23a.5.5,0,0,1,.523-.46.492.492,0,0,1,.459.523c-.068,1.049-.1,2.142-.14,3.2a32.8,32.8,0,0,1-.568,6.265c-.555,2.2-3.605,4.924-7.025,7.434l-.1.072c.028-.435.054-.866.078-1.287Z" transform="translate(-502.488 -298.264)" fill="#826448"/>
              </g>
            </g>
            <g id="Group_2016" data-name="Group 2016" transform="translate(0 64.912)">
              <g id="Group_2013" data-name="Group 2013" transform="translate(0 45.425)">
                <g id="Group_2012" data-name="Group 2012">
                  <g id="Group_2011" data-name="Group 2011">
                    <g id="Group_2010" data-name="Group 2010" transform="translate(3.183)">
                      <path id="Path_1385" data-name="Path 1385" d="M451.573,456.717a8.431,8.431,0,0,0,1.16-2.454h4.016l-.776,2.207-2.184,2.481-3.744,1.061-1.891-1.279S450.861,457.6,451.573,456.717Z" transform="translate(-448.153 -454.263)" fill="#f2b78b"/>
                    </g>
                    <path id="Path_1386" data-name="Path 1386" d="M444.867,461.01a8.629,8.629,0,0,0,7.819-2.262,5.419,5.419,0,0,1,.577,2.746,6.086,6.086,0,0,1-.325,2.082h-1.173v-1.518c-1.644.4-3.748,1.518-6.056,1.518C440.392,463.576,440.583,461.852,444.867,461.01Z" transform="translate(-441.683 -456.541)" fill="#030303"/>
                  </g>
                </g>
              </g>
              <g id="Group_2015" data-name="Group 2015" transform="translate(6.982)">
                <g id="Group_2014" data-name="Group 2014">
                  <path id="Path_1387" data-name="Path 1387" d="M477.737,361.941h17.4c0,9.525-7.384,13.4-16.089,13.4-3.283,0-8.489.427-8.489.427l-8.983,31.6h-5.7c0-11.743,4.033-33.172,6.405-36.1C466.012,366.662,477.737,361.941,477.737,361.941Z" transform="translate(-455.873 -361.941)" fill="#001738"/>
                </g>
              </g>
            </g>
            <g id="Group_2020" data-name="Group 2020" transform="translate(18.18 112.16)">
              <g id="Group_2019" data-name="Group 2019">
                <g id="Group_2018" data-name="Group 2018">
                  <g id="Group_2017" data-name="Group 2017" transform="translate(3.183)">
                    <path id="Path_1388" data-name="Path 1388" d="M488.523,460.424c.712-.883-.179-2.454-.179-2.454h4.016l.562,2.207-2.184,2.481-3.744,1.06-1.89-1.279S487.811,461.306,488.523,460.424Z" transform="translate(-485.104 -457.97)" fill="#f2b78b"/>
                  </g>
                  <path id="Path_1389" data-name="Path 1389" d="M481.817,464.718a8.63,8.63,0,0,0,7.819-2.263,5.42,5.42,0,0,1,.577,2.747,6.086,6.086,0,0,1-.325,2.082h-1.173v-1.518c-1.644.4-3.748,1.518-6.056,1.518C477.342,467.283,477.533,465.559,481.817,464.718Z" transform="translate(-478.634 -460.248)" fill="#030303"/>
                </g>
              </g>
            </g>
            <g id="Group_2023" data-name="Group 2023" transform="translate(6.152 64.912)">
              <g id="Group_2022" data-name="Group 2022">
                <g id="Group_2021" data-name="Group 2021">
                  <path id="Path_1390" data-name="Path 1390" d="M456.466,365.152c3.843-1.659,20.414-3.211,20.414-3.211h17.4c2.169,3.08,3.516,8.546,2.321,11.752-1.669,4.481-6.887,5.338-11.988,5.008-2.591-.167-19.818-2.934-19.818-2.934s11.506,22.485,12.757,33.423h-5.778C469.636,402.793,447.066,369.209,456.466,365.152Z" transform="translate(-454.187 -361.941)" fill="#002853"/>
                </g>
              </g>
            </g>
          </g>
        </g>
        <g id="Group_2027" data-name="Group 2027" transform="translate(0 51.811)">
          <path id="Path_1391" data-name="Path 1391" d="M470.62,343.762a22.2,22.2,0,0,1,4.837-1.087l7.473-4.7,1.9,3.366-7.768,4.129a18.211,18.211,0,0,1-2.249,1.878c-2.185,1.5-3.323.606-4.469-.833-.844.477-1.07,3.991-1.591,4.285C467.368,351.581,468.052,345.212,470.62,343.762Z" transform="translate(-449 -336.666)" fill="#f2b78b"/>
          <g id="Group_2026" data-name="Group 2026">
            <path id="Path_1392" data-name="Path 1392" d="M443.99,350.255l20.617-2.427a.738.738,0,0,1-.617.842l-20.564,3.166-13.9-15.479a.737.737,0,0,1,.056-1.042Z" transform="translate(-429.332 -335.315)" fill="#00001c"/>
          </g>
        </g>
        <g id="Group_2029" data-name="Group 2029" transform="translate(27.186 26.244)">
          <g id="Group_2028" data-name="Group 2028">
            <path id="Path_1393" data-name="Path 1393" d="M500.04,300.557c1.308-5.2-.857-17.169,4.93-17.205,6.212-.039,4.625,15.948,1.929,20.464-3.713,6.223-13.669,10.5-19.5,13.625l-2.814-3.977C488.514,310.892,499.025,304.592,500.04,300.557Z" transform="translate(-484.586 -283.352)" fill="#ceab8b"/>
          </g>
        </g>
      </g>
      <g id="Group_2045" data-name="Group 2045" transform="translate(270.271 23.017)">
        <path id="Path_1394" data-name="Path 1394" d="M705.73,167.121h11.6l.527,17.238H703.615Z" transform="translate(-682.306 -162.525)" fill="#030303"/>
        <g id="Group_2043" data-name="Group 2043">
          <g id="Group_2040" data-name="Group 2040" transform="translate(10.176)">
            <g id="Group_2031" data-name="Group 2031" transform="translate(9.665)">
              <path id="Path_1395" data-name="Path 1395" d="M717.8,190.65h-5.634a27.613,27.613,0,0,1-.746,5.065c1.1.631.923,1.426,3.563,1.426s2.46-.8,3.564-1.426A27.571,27.571,0,0,1,717.8,190.65Z" transform="translate(-706.112 -174.478)" fill="#e0935f"/>
              <path id="Path_1396" data-name="Path 1396" d="M714.986,159.847a8.307,8.307,0,0,0-10.965,0c-5.41,4.849-2.777,17.458-2.565,21.191a42.1,42.1,0,0,0,4.588,2,38.68,38.68,0,0,1-1.506-11.829c.38-5.608,2.3-6.043,4.965-6.043s6.145-1.3,6.525,4.3-3.065,13.568-3.065,13.568a42.154,42.154,0,0,0,4.588-2C717.763,177.3,720.4,164.7,714.986,159.847Z" transform="translate(-700.63 -157.781)" fill="#030303"/>
              <path id="Path_1397" data-name="Path 1397" d="M718.413,170.091H706.349c-.464,8.086,2.105,13.361,6.032,13.361S718.877,178.177,718.413,170.091Z" transform="translate(-703.508 -164.034)" fill="#f2b78b"/>
            </g>
            <g id="Group_2034" data-name="Group 2034" transform="translate(20.509 21.526)">
              <g id="Group_2033" data-name="Group 2033">
                <g id="Group_2032" data-name="Group 2032">
                  <path id="Path_1398" data-name="Path 1398" d="M739.237,219.306c0-5.654-3.642-14.384-8.25-16.911a5.926,5.926,0,0,0-6.21.042c-5.171,3.194.2,7.365,5.147,11.359,2.1,1.7,2.377,5.969,2.377,6.887,0,3.349-3.6,8.628-8.016,10.768a12.518,12.518,0,0,0,1.78,4.823C732.94,234.548,739.237,223.969,739.237,219.306Z" transform="translate(-722.669 -201.532)" fill="#99badb"/>
                </g>
              </g>
            </g>
            <g id="Group_2038" data-name="Group 2038" transform="translate(0 21.526)">
              <g id="Group_2037" data-name="Group 2037">
                <g id="Group_2036" data-name="Group 2036">
                  <g id="Group_2035" data-name="Group 2035">
                    <path id="Path_1399" data-name="Path 1399" d="M680.987,219.306c0-5.654,3.642-14.384,8.25-16.911a5.927,5.927,0,0,1,6.211.042c5.171,3.194-.2,7.365-5.147,11.359-2.1,1.7-2.377,5.969-2.377,6.887,0,3.349,3.6,8.628,8.016,10.768a12.518,12.518,0,0,1-1.779,4.823C687.284,234.548,680.987,223.969,680.987,219.306Z" transform="translate(-680.987 -201.532)" fill="#99badb"/>
                  </g>
                </g>
              </g>
            </g>
            <g id="Group_2039" data-name="Group 2039" transform="translate(8.56 29.802)">
              <path id="Path_1400" data-name="Path 1400" d="M736.023,221.849c.355-.986.669-1.922.959-2.859a.492.492,0,1,0-.94-.291c-.277.9-.579,1.792-.917,2.734l.758.613A.482.482,0,0,0,736.023,221.849Z" transform="translate(-717.048 -218.352)" fill="#ceab8b"/>
              <path id="Path_1401" data-name="Path 1401" d="M698.731,218.375a.492.492,0,0,0-.324.616c.29.937.6,1.872.959,2.859a.484.484,0,0,0,.139.2l.758-.613c-.338-.941-.639-1.837-.917-2.734A.491.491,0,0,0,698.731,218.375Z" transform="translate(-698.385 -218.352)" fill="#ceab8b"/>
            </g>
            <path id="Path_1402" data-name="Path 1402" d="M716.57,235.355c-1.16-5.122-4.136-17.583-1.921-23.731,2.706-7.512,2.421-10.274,1.925-10.626a16.077,16.077,0,0,0-7.169-2.446c0,.507-.249,2.075-3.289,2.075h0c-3.04,0-3.286-1.569-3.289-2.075A16.077,16.077,0,0,0,695.656,201c-.5.352-.781,3.114,1.925,10.626,2.215,6.148-.761,18.609-1.921,23.731-1.377,6.081-1.7,7.482-1.7,7.482H718.27S717.947,241.437,716.57,235.355Z" transform="translate(-687.576 -178.492)" fill="#99badb"/>
          </g>
          <path id="Path_1403" data-name="Path 1403" d="M717.176,247.839H693.885a1.075,1.075,0,0,0-1.075,1.076V265.3a1.076,1.076,0,0,0,1.075,1.076h23.292a1.076,1.076,0,0,0,1.076-1.076V248.915a1.076,1.076,0,0,0-1.076-1.076Z" transform="translate(-676.817 -203.528)" fill="#205c8e"/>
          <path id="Path_1404" data-name="Path 1404" d="M674.742,303.9c0,1.743-1.835,2.289-3.812,2.158-.536-.036-1.1-.06-1.752-.047-.517.01-1.093.044-1.76.113-3.835.4-5.5-1-5.5-1.489s2.163-2.317,5.464-1.673c1.6.312,1.68-.4,3.39-.567C673.2,302.159,674.742,302.431,674.742,303.9Z" transform="translate(-661.123 -231.204)" fill="#030303"/>
          <path id="Path_1405" data-name="Path 1405" d="M750.456,303.9c0,1.743,1.836,2.289,3.812,2.158.536-.036,1.1-.06,1.752-.047.517.01,1.093.044,1.76.113,3.835.4,5.5-1,5.5-1.489s-2.163-2.317-5.464-1.673c-1.6.312-1.68-.4-3.391-.567C752,302.159,750.456,302.431,750.456,303.9Z" transform="translate(-706.1 -231.204)" fill="#030303"/>
          <path id="Path_1406" data-name="Path 1406" d="M750.251,300.463a1.389,1.389,0,0,1,.866,1.494c-.167,1.352-1.275,1.282-1.275,1.282l-5.562-.536,1.051-4.723Z" transform="translate(-702.963 -228.998)" fill="#f2b78b"/>
          <g id="Group_2041" data-name="Group 2041" transform="translate(0 53.58)">
            <path id="Path_1407" data-name="Path 1407" d="M669.851,279.66c6.075,2.239,32.842,8.453,32.842,8.453l1.9-6.689s-29.283-11.724-36.416-14.362S654.054,276.074,669.851,279.66Z" transform="translate(-660.306 -266.678)" fill="#003a61"/>
          </g>
          <path id="Path_1408" data-name="Path 1408" d="M681.118,300.463a1.389,1.389,0,0,0-.866,1.494c.167,1.352,1.275,1.282,1.275,1.282l5.562-.536-1.051-4.723Z" transform="translate(-670.431 -228.998)" fill="#f2b78b"/>
          <g id="Group_2042" data-name="Group 2042" transform="translate(13.684 53.58)">
            <path id="Path_1409" data-name="Path 1409" d="M722.864,279.66c-6.076,2.239-32.843,8.453-32.843,8.453l-1.9-6.689S717.4,269.7,724.533,267.063,738.66,276.074,722.864,279.66Z" transform="translate(-688.117 -266.678)" fill="#00527c"/>
          </g>
          <path id="Path_1410" data-name="Path 1410" d="M717.727,266.653h-8.206a.778.778,0,0,1-.779-.779h0a.779.779,0,0,1,.779-.779h8.206a.779.779,0,0,1,.779.779h0a.778.778,0,0,1-.779.779Z" transform="translate(-684.91 -212.294)" fill="#99badb"/>
        </g>
        <path id="Path_1411" data-name="Path 1411" d="M730.279,212.174" transform="translate(-695.851 -185.411)" fill="#030303"/>
        <path id="Path_1412" data-name="Path 1412" d="M728.464,177.223l-.964,5.232a4.446,4.446,0,0,0,3.048-3.687C730.956,175.79,728.464,177.223,728.464,177.223Z" transform="translate(-694.439 -167.482)" fill="#f2b78b"/>
        <path id="Path_1413" data-name="Path 1413" d="M719.423,173.2c-.132-.211-1.331-4.692-1.331-4.692H705.108s-.211,4.692-.343,4.9,1.523,1.4,1.523,1.4v-1.839c0-1.746,2.348-3.6,2.776-3.6,2.765,0,6.948,4.673,6.948,10.135,0,1.2,3.027-2.385,3.027-2.385A33.975,33.975,0,0,0,719.423,173.2Z" transform="translate(-682.886 -163.233)" fill="#030303"/>
        <g id="Group_2044" data-name="Group 2044" transform="translate(21.274 9.397)">
          <path id="Path_1414" data-name="Path 1414" d="M703.588,178.768a4.446,4.446,0,0,0,3.048,3.687l-.965-5.232S703.18,175.79,703.588,178.768Z" transform="translate(-703.543 -176.879)" fill="#f2b78b"/>
        </g>
      </g>
      <g id="Group_2057" data-name="Group 2057" transform="translate(75.564 201.02)">
        <g id="Group_2046" data-name="Group 2046" transform="translate(6.794 13.252)">
          <path id="Path_1415" data-name="Path 1415" d="M281.3,546.491a9.461,9.461,0,0,1-2.908,5.79s0,2.241,2.834,3.585a3.373,3.373,0,0,0,4.336-.738l.923-4.876S284.247,546.755,281.3,546.491Z" transform="translate(-278.387 -546.491)" fill="#e0935f"/>
        </g>
        <g id="Group_2047" data-name="Group 2047" transform="translate(5.302 0)">
          <path id="Path_1416" data-name="Path 1416" d="M285.689,521.111a2.054,2.054,0,0,0-2.293-1.552,1.928,1.928,0,0,0-1.9,1.908,2.183,2.183,0,0,0-2.867-.613c-1.233.765-1.172,1.879-.858,2.985a1.873,1.873,0,0,0-2.167,1.379,3.193,3.193,0,0,0,1.087,3.446,1.719,1.719,0,0,0-1.236,2.3c.663,2.017,3.965,2,3.965,2l-.943-4.224h-.011c.776-.735,3.052-2.94,2.667-3.145-.284-.151-1.208-.5-1.88-.753l3.059-1.468s-.021-.08-.063-.2a19.124,19.124,0,0,0,3.219.731l1.76,1.22a17.645,17.645,0,0,0-.4,2.486c.079.214,1.011-1.72,1.011-1.72a2.753,2.753,0,0,0,.623-4.423A2.374,2.374,0,0,0,285.689,521.111Z" transform="translate(-275.354 -519.557)" fill="#030303"/>
          <path id="Path_1417" data-name="Path 1417" d="M281.718,525.989c-.059.06-1.067,3.558-1.067,3.558v3.93s4.507,3.009,5.2,3.028,2.61-4.894,2.61-4.894l1.9-5.228-4.131-1.661S281.778,525.929,281.718,525.989Z" transform="translate(-278.045 -522.182)" fill="#030303"/>
          <path id="Path_1418" data-name="Path 1418" d="M288.505,531.352c-1.58.095-3.609.44-4.777-.292a56.247,56.247,0,0,1-.478,6.757l-.85-.346s-.352-2.048-.394-2.091c-.365-.384-1.631-1.547-2.684-.461-1.131,1.168-.433,3.139,1.443,3.817,3.038,4.811,8.006,4.478,8.7,3.282,1.827-3.129.759-8.036.115-10.285A1.765,1.765,0,0,0,288.505,531.352Z" transform="translate(-277.093 -525.4)" fill="#f2b78b"/>
          <path id="Path_1419" data-name="Path 1419" d="M285.764,527.974s-3.865,1.1-3.875,1.135,2.57,4.716,2.57,4.716l.372,2.424c.25-2.572.2-3.9,1.4-4.848a7.59,7.59,0,0,1,4.938-1.235C291.4,528.83,285.764,527.974,285.764,527.974Z" transform="translate(-278.674 -523.833)" fill="#030303"/>
        </g>
        <path id="Path_1420" data-name="Path 1420" d="M284.657,572.176c-1.087-4.984-6.115-11.071-6.115-11.071s-3.137.527-7.17-2.847c-4.639,4.059-8.006,8.523-6.379,23.038.949,8.461,3.532,19.136,3.532,23.564h17.4s-.325-6.574-1.16-13.812C283.5,580.084,285.923,577.975,284.657,572.176Z" transform="translate(-264.578 -539.217)" fill="#2e5990"/>
        <g id="Group_2048" data-name="Group 2048" transform="translate(12.269 24.534)">
          <path id="Path_1421" data-name="Path 1421" d="M290.075,569.425a.492.492,0,0,0-.138.975c1.091.154,2.171.333,3.216.506l1.117.183c-.242-.389-.484-.762-.719-1.115l-.237-.039C292.263,569.762,291.178,569.582,290.075,569.425Z" transform="translate(-289.514 -569.421)" fill="#0c3265"/>
          <path id="Path_1422" data-name="Path 1422" d="M295.351,588.427a.492.492,0,0,0-.031.984q.531.017,1.055.017a28.85,28.85,0,0,0,3.947-.259c-.034-.316-.078-.641-.135-.977A28.8,28.8,0,0,1,295.351,588.427Z" transform="translate(-292.221 -578.956)" fill="#0c3265"/>
        </g>
        <path id="Path_1423" data-name="Path 1423" d="M335.189,533.63c.282-1.149-.306-3.515-1.181-3.131-.548.24-.219,2.359-.678,3.942a5.848,5.848,0,0,0,.329,2.966l-4.4,7.655,3.439,1.765,3.814-7.928a11.843,11.843,0,0,0,3.428-3.7c1.29-2.515,1.653-5.2-.475-6.29C337.418,527.857,336.514,532.318,335.189,533.63Z" transform="translate(-297.436 -524.227)" fill="#f2b78b"/>
        <g id="Group_2052" data-name="Group 2052" transform="translate(2.487 13.45)">
          <g id="Group_2051" data-name="Group 2051">
            <g id="Group_2050" data-name="Group 2050">
              <g id="Group_2049" data-name="Group 2049">
                <path id="Path_1424" data-name="Path 1424" d="M289,559.557c-3.406.672-18.223-4.448-19.285,1.142-1.266,6.663,12.823,8.332,19.625,6.648,6.213-1.539,13.945-9.26,17.126-17.9l-4.277-2.555C299.1,553.414,292.4,558.884,289,559.557Z" transform="translate(-269.633 -546.894)" fill="#2e5990"/>
              </g>
            </g>
          </g>
        </g>
        <path id="Path_1425" data-name="Path 1425" d="M313.05,793.171s.481,1.766.481,1.805,3.264-1.31,3.264-1.31l.135-2.071-4.056-.448Z" transform="translate(-289.111 -657.518)" fill="#f2b78b"/>
        <g id="Group_2054" data-name="Group 2054" transform="translate(6.155 65.644)">
          <g id="Group_2053" data-name="Group 2053">
            <path id="Path_1426" data-name="Path 1426" d="M292.277,652.974s-10.124.006-15.19,0c1.046,14.019,8.33,25.821,13.2,38.706,1.634,9.5,2.526,19.562,3.34,29.16l6.132.677c.971-11.655,1.387-24.673-.449-36.062S295.036,663.953,292.277,652.974Z" transform="translate(-277.087 -652.974)" fill="#00001c"/>
          </g>
        </g>
        <path id="Path_1427" data-name="Path 1427" d="M318.884,798.427a17.186,17.186,0,0,1-3.055-2.672,3.173,3.173,0,0,1-3.745-.5,6.734,6.734,0,0,0-1.042,4.722l3.42.569.12-.72a26.125,26.125,0,0,0,5.474,1.651c2.8.465,3.433-.229,3.193-.721S321.13,799.9,318.884,798.427Z" transform="translate(-288.145 -659.608)" fill="#030303"/>
        <g id="Group_2055" data-name="Group 2055" transform="translate(3.12 65.644)">
          <path id="Path_1428" data-name="Path 1428" d="M274.806,692.147c-.436,5.746.768,30.175.768,30.175h6.19s2.9-27.926,3.42-34.674,1.6-30.8,1.6-34.674H271.746C268.965,664.572,274.026,677.751,274.806,692.147Z" transform="translate(-270.92 -652.974)" fill="#14142e"/>
        </g>
        <g id="Group_2056" data-name="Group 2056" transform="translate(8.41 134.993)">
          <path id="Path_1429" data-name="Path 1429" d="M282.631,796.127l2.184,2.481L286.407,796l.034-2.08h-4.016Z" transform="translate(-282.054 -793.92)" fill="#f2b78b"/>
          <path id="Path_1430" data-name="Path 1430" d="M289.477,800.281a17.159,17.159,0,0,1-3.453-2.133,3.172,3.172,0,0,1-3.775.127A6.729,6.729,0,0,0,282,803.1h3.467v-.73a26.1,26.1,0,0,0,5.671.73c2.835,0,3.349-.79,3.031-1.235S291.934,801.362,289.477,800.281Z" transform="translate(-281.672 -796.068)" fill="#030303"/>
        </g>
      </g>
    </g>
  </g>
</svg>
