<svg xmlns="http://www.w3.org/2000/svg" xmlns:xlink="http://www.w3.org/1999/xlink" id="Layer_1" x="0" y="0" enable-background="new 0 0 475.6 676.5" version="1.1" viewBox="0 0 475.6 676.5" xml:space="preserve"><style type="text/css">.st0{fill:#d7eaf4}.st1{fill:#77a0c4}.st2{fill:#9bc4e8}.st3{fill:#c7e0f5}.st4{fill:#e1e9f3}.st5{fill:#d0e5f6}.st6{fill:#d87061}.st7{fill:#e58967}.st8{fill:#fff}.st9{fill:#f0f4f4}.st10{fill:#5981ac}.st11{fill:#8abce6}.st12{fill:#fbc1b1}.st13{fill:#d9b69b}.st14{fill:#a48263}.st15{fill:#1f5d8f}.st16{fill:#d7a37d}.st17{fill:#f09a83}.st18{fill:#c8d2eb}.st19{fill:#173f6d}.st20{fill:#639ab7}.st21{fill:#3d78a1}.st22{fill:#92b9dc}.st23{fill:#57c4c5}.st24{fill:#71a6c6}.st25{fill:#cde1ea}.st26{fill:#de4179}.st27{fill:#d9e3ef}.st28{fill:#dea84a}.st29{fill:#cc705a}.st30{fill:#d87c60}.st31{fill:#c6d2db}.st32{fill:#5f93aa}.st33{fill:#377293}.st34{fill:#bcd4ef}.st35{fill:none;stroke:#fff;stroke-width:3.1204;stroke-linecap:round;stroke-linejoin:round;stroke-miterlimit:10}.st36{fill:#d2e9f5}.st37{stroke-linecap:round;stroke-linejoin:round}.st37,.st38{fill:none;stroke:#fff;stroke-width:.7792;stroke-miterlimit:10}.st39{fill:#efa295}.st40{fill:none;stroke:#fff;stroke-width:.7184;stroke-linecap:round;stroke-linejoin:round;stroke-miterlimit:10}.st41{fill:#bfd9ea}.st42{fill:#f4f4f5}.st43{fill:#d7eaf4}.st43,.st44,.st45,.st46{fill-rule:evenodd;clip-rule:evenodd}.st44{fill:#cfac8b}.st45{fill:#a48263}.st46{fill:#9abada}.st47{fill:#71a6c6}.st47,.st48,.st49,.st50,.st51,.st52{fill-rule:evenodd;clip-rule:evenodd}.st48{fill:#e58967}.st49{fill:#d87061}.st50{fill:#c7e0f5}.st51{fill:#77a0c4}.st52{fill:#9bc4e8}</style><polygon points="463.6 263 335.4 187.1 122.2 310.1 122.5 310.3 87.7 330.4 222.4 410.2 463.6 270.7" class="st0"/><polygon points="183.4 240.1 39.1 156.7 252.3 33.7 396.6 117" class="st1"/><path d="M183.4,240.1l0,147.7l213.2-123.1c-3.4-32.6-3.5-115.6,0-147.7L183.4,240.1z" class="st2"/><path d="M39.1,156.7c5.9,36.8,6.1,120,0,147.7l144.3,83.3v-34.4v-1v-26.3V318l0-77.9L39.1,156.7z" class="st3"/><path d="M395.1,138.1l-17.5,11l17.1,0.4C394.7,145.7,394.9,141.9,395.1,138.1z" class="st1"/><path d="M394.6,240.1c0,0-25.3,17.2-24.8,17.2c0.6,0,25.3-8.6,25.3-8.6L394.6,240.1z" class="st1"/><path d="M211,325.4c0,0,28-4.3,44.8,12.6c0,0,7.4-19.5,0.7-33.8L211,325.4z" class="st4"/><path d="M243.6,277.7c0,0,104.3-48.5,141.5-42.5c0,0-6.4-7-23.7-19.2L243.6,277.7z" class="st4"/><polygon points="183.4 315.6 216.3 299.7 183.4 324.5" class="st1"/><polygon points="183.4 315.6 160.9 304.7 183.4 324.5" class="st2"/><polygon points="183.4 257.5 170.8 257.4 183.4 266.3" class="st2"/><path d="M178.1,232.4L33.7,149.1c88.7-33.4,149.7-81,217.4-129.3c49.6,42.9,81.2,62.5,140.1,89.6L178.1,232.4z" class="st5"/><g><path d="M112.3,441.6c-0.1,2.2,1.2,4.3,3.7,5.9c2.2,1.4,5,2.3,7.8,2.4c2.3,0.1,4.6-0.2,6.4-1.1l29.9-15.2 c2-1,3.2-2.7,3.3-4.6c0.1-2.2-1.2-4.3-3.7-5.9c-1.3-0.8-2.7-1.4-4.3-1.9l3.1-1.6c2.8-1.4,9.2-1.9,14.2,1.3c1.8,1.1,2.7,2.4,2.6,3.5 c-0.1,1-0.8,1.9-1.9,2.5l-27.9,14.2c-1,0.5-1.4,1.7-0.9,2.6c0.3,0.6,1,1,1.6,1.1c0.3,0,0.7,0,1-0.2l27.9-14.2 c2.4-1.2,3.9-3.4,4.1-5.8c0.1-1.5-0.4-4.4-4.4-7c-6.4-4.2-14.5-3.4-18.2-1.6l-17.6,8.9l-23.5,12 C113.5,438.1,112.4,439.7,112.3,441.6z M116.2,441.8c0-0.6,0.8-1.1,1.2-1.3l6.5-3.3c0,0.3,0.1,0.6,0.2,0.9c0.3,0.6,1,1,1.6,1.1 c0.3,0,0.7,0,1-0.2l26.5-13.5c0.3-0.2,0.5-0.4,0.7-0.6c1.3,0.3,2.6,0.8,3.6,1.5c1.4,0.9,1.9,1.9,1.9,2.4c0,0.6-0.8,1.1-1.2,1.3 l-29.9,15.2c-2.6,1.3-7.3,0.8-10.2-1C116.6,443.3,116.1,442.4,116.2,441.8z" class="st0"/><g><path d="M128,433.4c0.3,0,0.7,0,1-0.2l26.5-13.5c1-0.5,1.4-1.7,0.9-2.6c-0.5-1-1.7-1.4-2.6-0.9l-26.5,13.5 c-1,0.5-1.4,1.7-0.9,2.6C126.7,433,127.3,433.4,128,433.4z" class="st6"/></g><g><g><path d="M118.2,441.7c-2.4-1.6-3.8-3.7-3.7-5.9c0.1-1.9,1.3-3.5,3.3-4.6l0,0l29.9-15.2c3.8-2,10-1.4,14.1,1.3 c2.4,1.6,3.8,3.7,3.7,5.9c-0.1,1.9-1.3,3.5-3.3,4.6L132.3,443c-1.8,0.9-4,1.3-6.4,1.1C123.2,444,120.4,443.1,118.2,441.7z M149.6,419.5l-29.9,15.2c-0.4,0.2-1.2,0.7-1.2,1.3c0,0.5,0.4,1.5,1.9,2.4c2.9,1.9,7.6,2.4,10.2,1l29.9-15.2 c0.4-0.2,1.2-0.7,1.2-1.3c0-0.5-0.4-1.5-1.9-2.4c-1.6-1-3.8-1.7-5.9-1.8C152.3,418.7,150.7,418.9,149.6,419.5z" class="st7"/></g></g><g><g><path d="M148.6,439.1c0.3,0,0.7,0,1-0.2l27.9-14.2c2.4-1.2,3.9-3.4,4.1-5.8c0.1-1.5-0.4-4.4-4.4-7 c-6.4-4.2-14.5-3.4-18.2-1.6L131,424.5c-1,0.5-1.4,1.7-0.9,2.6c0.5,1,1.7,1.4,2.6,0.9l27.9-14.2c2.8-1.4,9.2-1.9,14.2,1.3 c1.8,1.1,2.7,2.4,2.6,3.5c-0.1,1-0.8,1.9-1.9,2.5l-27.9,14.2c-1,0.5-1.4,1.7-0.9,2.6C147.3,438.7,147.9,439.1,148.6,439.1z" class="st7"/></g></g></g><path d="M173.5,224.3L29.2,141c88.7-33.4,149.7-81,217.4-129.3c49.6,42.9,81.2,62.5,140.1,89.6L173.5,224.3z" class="st8"/><g><path d="M216.6,163.3c-12.8-7.7-33.8-8-46.9-0.8c-13.1,7.3-13.3,19.4-0.5,27.1c12.8,7.7,33.6,8,46.9,0.9 C230.8,182.7,229.5,171,216.6,163.3z" class="st9"/><path d="M206.1,161.7c-12.2-7.3-32.1-7.6-44.5-0.7c-12.4,6.9-12.6,18.4-0.4,25.7c12.2,7.3,31.9,7.6,44.5,0.9 C219.6,180.1,218.2,169,206.1,161.7z" class="st6"/><path d="M205.6,154.1c-12.2-7.3-32.1-7.6-44.5-0.7c-12.4,6.9-12.6,18.4-0.4,25.7c12.2,7.3,31.9,7.6,44.5,0.9 C219.1,172.5,217.8,161.4,205.6,154.1z" class="st7"/></g><path d="M313.6,105.5l-13.4-7.7c-0.1-0.1-0.2-0.1-0.3-0.2l-66.2-38.2c-2.7-1.6-7.5-1.4-10.6,0.4	c-3.1,1.8-3.5,4.6-0.8,6.1l13.4,7.7c0.1,0.1,0.2,0.1,0.3,0.2l66.2,38.2c2.7,1.6,7.5,1.4,10.6-0.4C315.9,109.8,316.3,107,313.6,105.5	z" class="st2"/><path d="M281.4,124.8l-13.4-7.7c-0.1-0.1-0.2-0.1-0.3-0.2l-66.2-38.2c-2.7-1.6-7.5-1.4-10.6,0.4l0,0	c-3.1,1.8-3.5,4.6-0.8,6.1l13.4,7.7c0.1,0.1,0.2,0.1,0.3,0.2l66.2,38.2c2.7,1.6,7.5,1.4,10.6-0.4	C283.7,129.1,284.1,126.4,281.4,124.8z" class="st2"/><path d="M249.2,144.1l-13.4-7.7c-0.1-0.1-0.2-0.1-0.3-0.2L169.3,98c-2.7-1.6-7.5-1.4-10.6,0.4c-3.1,1.8-3.5,4.6-0.8,6.1	l13.4,7.7c0.1,0.1,0.2,0.1,0.3,0.2l66.2,38.2c2.7,1.6,7.5,1.4,10.6-0.4C251.5,148.4,251.9,145.7,249.2,144.1z" class="st2"/><path d="M41.4,165.9c0,0.5,9.5,7.5,9.5,7.5l-9.5,0.4L41.4,165.9z" class="st2"/><g><g><polygon points="283.2 431.2 324.9 407.1 263.4 371.6 221.7 395.7" class="st8"/><polygon points="324.9 417.4 324.9 407.1 283.2 431.2 221.7 395.7 221.7 405.9 283.2 441.4" class="st3"/><polygon points="324.9 417.4 324.9 407.1 283.2 431.2 283.2 441.4" class="st2"/><path d="M290.8,432.1l-6.8,4c-0.4,0.3-1,0.3-1.4,0l-11.6-6.9l11.7,6c0.4,0.2,0.8,0.2,1.2,0L290.8,432.1z" class="st10"/></g><g><polygon points="244.7 401.8 249.2 399.3 244.7 396.7 240.2 399.3" class="st11"/><polygon points="251.8 406 256.3 403.4 251.8 400.8 247.3 403.4" class="st11"/><polygon points="258.7 410 263.2 407.4 258.8 404.8 254.3 407.4" class="st11"/><polygon points="266.1 414.3 270.6 411.8 266.2 409.2 261.7 411.8" class="st11"/><g><g><path d="M249.9,394.6l23.4-13.5c0.3-0.2,0.7-0.2,1.1,0l0,0c0.7,0.4,0.7,1.4,0,1.8l-23.4,13.5 c-0.3,0.2-0.7,0.2-1.1,0l0,0C249.2,396.1,249.2,395,249.9,394.6z" class="st11"/></g></g><g><g><g><path d="M256.7,398.9l23.4-13.5c0.3-0.2,0.7-0.2,1.1,0l0,0c0.7,0.4,0.7,1.4,0,1.8l-23.4,13.5 c-0.3,0.2-0.7,0.2-1.1,0l0,0C256,400.3,256,399.3,256.7,398.9z" class="st11"/></g></g></g><g><g><path d="M264,402.9l23.4-13.5c0.3-0.2,0.7-0.2,1.1,0l0,0c0.7,0.4,0.7,1.4,0,1.8l-23.4,13.5c-0.3,0.2-0.7,0.2-1.1,0 l0,0C263.3,404.4,263.3,403.3,264,402.9z" class="st11"/></g></g><g><path d="M270.9,407.9l23.4-13.5c0.3-0.2,0.7-0.2,1.1,0l0,0c0.7,0.4,0.7,1.4,0,1.8L272,409.7c-0.3,0.2-0.7,0.2-1.1,0 l0,0C270.2,409.3,270.2,408.3,270.9,407.9z" class="st11"/></g><polygon points="273.2 419.1 277.7 416.5 273.3 413.9 268.8 416.5" class="st11"/><g><path d="M278,412.7l23.4-13.5c0.3-0.2,0.7-0.2,1.1,0l0,0c0.7,0.4,0.7,1.4,0,1.8l-23.4,13.5c-0.3,0.2-0.7,0.2-1.1,0 l0,0C277.3,414.1,277.3,413.1,278,412.7z" class="st11"/></g></g><g><path d="M306.1,404.2L306.1,404.2c-0.4,1.2-1.7,1.8-2.8,1.4l-3.1-1c-1.2-0.4-1.8-1.7-1.4-2.8l0,0 c0.4-1.2,1.7-1.8,2.8-1.4l3.1,1C305.9,401.7,306.5,403,306.1,404.2z" class="st12"/><path d="M303.3,405.2c0,0,19.5,9.6,23.9-5.1s3.4-8.9,3.4-8.9l-7.6-0.5c0,0,0.2,4.3-3.7,8.8 c-1.9,2.2-13.1,1.3-13.1,1.3L303.3,405.2z" class="st13"/><ellipse cx="326.6" cy="451" class="st0" rx="12.8" ry="25.8" transform="matrix(1.770919e-02 -0.9998 0.9998 1.770919e-02 -130.096 769.5381)"/><g><path d="M305,439.3c0,0,0.9,10.1,26.9,15.5l1.3-2.5L310,432.8L305,439.3z" class="st12"/><path d="M331.4,455.3l4.3,1.6c2.7,2,3.8,3.3,5.3,2.9l0.4-0.1c1.5-0.5,1.6-1.8,0.3-3.1l-5.3-6.7 c-1.3-1.2-3.4-1.4-4.9-0.6c0,0-0.9,0.5-1,3.4C330.5,454.3,330.4,454.3,331.4,455.3z" class="st14"/><path d="M298.8,442.4c0,0-7.4,7.4,28.2,18.5l1.9-4.6l-23.2-15.3L298.8,442.4z" class="st12"/><path d="M339.2,424l-30.9,4.3c0,0-20.1,13.5-2.5,19l24.4,6.1c5.2,1.4,9.9,0.9,13-3.9c2.7-4.3,2-13.5-0.3-17.4 L339.2,424z" class="st15"/><path d="M313.8,382.4c1.2,4.8,4.7,6.3,7.8,3.3c3.1-3,4.7-9.3,3.5-14.2c-1.2-4.8-4.7-6.3-7.8-3.3 C314.2,371.3,312.6,377.6,313.8,382.4z" class="st12"/><path d="M309.2,383.2c2.4,4.3,7.8,4.8,10,1.1c2.2-3.7,2-10.3-0.4-14.6c-2.4-4.3-6.2-4.8-8.4-1.1 C308.2,372.3,306.8,378.8,309.2,383.2z" class="st12"/><path d="M322.3,394.4l0.5-0.2c1.6-0.7,2.5-2.5,1.8-4.2l-3.7-9.3c-0.7-1.6-2.5-2.5-4.2-1.8l-0.5,0.2 c-1.6,0.7-2.5,2.5-1.8,4.2l2.2,9.4C317.3,394.4,320.7,395.1,322.3,394.4z" class="st12"/><path d="M324.6,380.2c0,0,1.3,3.1-4.2,4.7c-4.4,1.3-5-7.1-9.7-6.8c-5.1,0.4-7.4-5.5-6-8.3c1.4-2.8,6.5-5.3,10.8-4.5 C319.9,366.2,328.4,365.5,324.6,380.2z" class="st15"/><path d="M311.3,380.7c0.6,1.1,1.9,1.4,3,0.8s1.4-1.9,0.8-3c-0.6-1.1-1.9-1.4-3-0.8S310.7,379.6,311.3,380.7z" class="st12"/><path d="M341,428.3c-1.1-8.8-0.8-16.1-2.4-25.5c-2.7-16.9-4.1-20.9-12.7-16.9l-2.4,1.1c-1.2,0.5-2.3,1.2-3.3,1.9 c-10.8,7.9-13.7,10.3-12,17.3c1.8,11.6,7.6,13.1,6.3,23.7C318.2,437.5,339.2,434.4,341,428.3z" class="st16"/><path d="M315.6,387.1l0.6-1.2c-1.2,1.1-3.7,0.4-2.7,0.6C313.4,386.5,314.4,387.1,315.6,387.1z" class="st17"/><path d="M318,372.2c0.6,2.6,2.9,4.3,5.2,3.8s3.6-3.1,2.9-5.7c-0.6-2.6-2.9-4.3-5.2-3.8 C318.7,367,317.3,369.6,318,372.2z" class="st16"/><path d="M323.1,370.1c0-2.3,3.1-1.9,4.2,0.6c0.3,0.8,0.6,1.8,0.8,3.1c1,7.3,12.5,11.6,6.1,20.7c0,0,4.5,10-5.2,8.9 c-5-0.5-4-12.7-4-12.7s-1.5-6.5-3.1-11.8c-0.7-2.5-0.6-4.9,0.4-6.5C322.9,371.7,323.1,370.9,323.1,370.1z" class="st15"/><path d="M323.3,385.8c0.9-0.4,2,0.3,2,1.3c0,1.1-0.5,2.6-2.4,3.6c-2.6,1.4-5.8,1.4-7.3,1.3c-0.4,0-0.5-0.5-0.2-0.7 C316.9,389.9,320.5,387,323.3,385.8z" class="st14"/><path d="M326.7,460.8l4.3,1.6c2.7,2,3.8,3.3,5.3,2.9l0.4-0.1c1.5-0.5,1.6-1.8,0.3-3.1l-5.3-6.7 c-1.3-1.2-3.4-1.4-4.9-0.6c0,0-0.9,0.5-1,3.4C325.8,459.8,325.6,459.8,326.7,460.8z" class="st14"/></g><path d="M290.6,421.2L290.6,421.2c-0.4,1.2-1.7,1.8-2.8,1.4l-3.1-1c-1.2-0.4-1.8-1.7-1.4-2.8l0,0 c0.4-1.2,1.7-1.8,2.8-1.4l3.1,1C290.3,418.8,291,420,290.6,421.2z" class="st12"/><path d="M287.7,422.6c0,0,19.5,9.6,23.9-5.1c4.4-14.7,5.6-19,5.6-19l-9.3,2.8c0,0-0.3,11.1-4.2,15.6 c-1.9,2.2-13.1,1.3-13.1,1.3L287.7,422.6z" class="st16"/></g></g><g><ellipse cx="48.3" cy="330.4" class="st0" rx="23.8" ry="11.8" transform="matrix(0.9998 -1.772830e-02 1.772830e-02 0.9998 -5.8494 0.9084)"/><g><path d="M75.9,177.5L75.9,177.5c1,1.1,2.6,1.2,3.7,0.3l4.4-3.9c1-0.9,1.1-2.6,0.1-3.7l0,0c-1-1.1-2.6-1.2-3.7-0.3 l-4.4,3.9C74.9,174.7,74.9,176.4,75.9,177.5z" class="st12"/><path d="M49.6,219.2c0,0,1.6-29.9,25.3-44.4l6.1,3c-15.2,19.2-17.5,30-17,43.8L49.6,219.2z" class="st7"/><path d="M105.2,194.4L105.2,194.4c-1.2-0.7-1.7-2.3-1-3.5l2.9-5.4c0.7-1.2,2.3-1.7,3.5-1l0,0c1.2,0.7,1.7,2.3,1,3.5 l-2.9,5.4C108.1,194.6,106.5,195,105.2,194.4z" class="st12"/><path d="M32.7,313.7l-0.9,4.3c0.3,3.2,0.9,4.8-0.3,5.8l-0.3,0.3c-1.1,1-2.3,0.4-2.7-1.3l-2.8-7.7 c-0.4-1.7,0.5-3.6,1.9-4.4c0,0,0.8-0.5,3.3,0.9C32.3,312.4,32.4,312.3,32.7,313.7z" class="st15"/><path d="M61.5,325.8l2.6,3.6c2.6,1.9,4.1,2.7,4.1,4.2l0,0.4c0,1.5-1.3,2-2.8,1.1l-7.6-3.2c-1.5-0.9-2.2-2.8-1.9-4.4 c0,0,0.2-0.9,2.9-1.8C60.3,325.2,60.3,325,61.5,325.8z" class="st15"/><path d="M62.8,326.3c-0.1,2.2-5.5,1.8-5.3-0.4l0.5-7.1l5.3,0.4L62.8,326.3z" class="st18"/><path d="M63.8,323.5c-0.9,2.7-6.4,2.2-7.4,0.3c2-24,0.7-49-3.6-74.8l19.2,1.3C70.5,274.9,67.9,299.4,63.8,323.5z" class="st19"/><path d="M32.3,314.4c-1.1,1.7-5.8-0.9-4.7-2.6l3.4-5.5l4.7,2.6L32.3,314.4z" class="st18"/><path d="M35.9,311c-2.3,2-9.5-0.1-7.8-4.4c12.7-16.6,14.2-35.7,18.5-58l13.3,2.9C55.1,271.6,47.2,291.5,35.9,311z" class="st19"/><path d="M74.6,199.6c-0.3,4.8-4.8,7.5-8.3,5.1c-3.5-2.3-6-8.1-5.7-12.9c0.3-4.8,3.4-6.8,6.9-4.4 C70.9,189.7,74.9,194.8,74.6,199.6z" class="st12"/><path d="M62.3,214.1l-0.5-0.2c-1.6-0.7-2.3-2.5-1.7-4.1l3.7-8.9c0.7-1.6,2.5-2.3,4.1-1.7l0.5,0.2 c1.6,0.7,2.3,2.5,1.7,4.1l-2.3,9.1C67.1,214.1,63.8,214.7,62.3,214.1z" class="st12"/><path d="M58.3,203.8c0,0,1.4,4.2,7.3,2c4.2-1.5,1.4-8.3,5.6-9.9c4.6-1.8,4.2-7.9,1.9-9.7c-2.4-1.9-7.9-1.9-11.3,0.6 C58.2,189.2,52.4,190.3,58.3,203.8z" class="st14"/><path d="M71.7,198.3c-0.1,1.2-1.1,2-2.3,2c-1.2-0.1-2-1.1-2-2.3c0.1-1.2,1.1-2,2.3-2 C70.9,196.1,71.8,197.1,71.7,198.3z" class="st12"/><path d="M46.2,247.7c2.7-8.3,1.7-15.1,3-24c2-16.1,1.6-20.1,10.3-16.9l2.5,0.8c1.2,0.4,2.3,0.9,3.4,1.6 c11.1,6.7,14.1,8.7,12.7,15.4c-1.3,11-4.5,23.3-5.5,28.7C69.2,260.7,48.2,253.4,46.2,247.7z" class="st7"/><path d="M70.1,205.5l-0.7-1c0,0,1.1,0.7,2.7,0.1C72,204.6,71.1,205.3,70.1,205.5z" class="st17"/><path d="M70.2,231.1c0,0,28.5-9.3,37.8-36.4l-4.1-5.2c-15.6,19.9-25.5,25-38.9,28.1L70.2,231.1z" class="st7"/></g></g><path d="M150.5,151.8c1.1-1.2,0.8-3-0.6-3.8l-29.5-17c-1.9-1.1-5.2-1-7.4,0.3c-2.2,1.3-2.4,3.2-0.5,4.3l30.2,17.4	C145.3,154.5,148.5,154,150.5,151.8L150.5,151.8z" class="st15"/><g><g><path d="M390.3,358.6c0,0,0-0.1,0.1-0.1l0,0l7.2-13.5c2-3.8,0.8-8.7-2.7-10.9c-3.5-2.3-7.9-1.1-9.9,2.7l-7.2,13.5l0,0 c0,0-0.1,0.1-0.1,0.1c-2,3.8-0.8,8.7,2.7,10.9S388.3,362.3,390.3,358.6z" class="st6"/><polygon points="381.3 343.2 422.4 266.1 430.3 269.4 386.8 351.4" class="st20"/><path d="M430.3,269.4c2.8,2.5,3.3-1.1,5.8,3.2l-40.9,76.8c-4,4.3-6.6,4.2-8.6,2.3L430.3,269.4z" class="st21"/><path d="M394.6,350.7c0,0,0-0.1,0.1-0.1l0,0l1.4-2.6c-2.2,3.2-6.3,4.1-9.6,1.9c-3.6-2.3-4.8-7.3-2.8-11 c0,0,0-0.1,0.1-0.1l0,0l-1.9,3.4l0,0c0,0-0.1,0.1-0.1,0.1C378.1,349.3,390.9,357.8,394.6,350.7z" class="st6"/><path d="M386.3,349.8c3.6,2.3,7.3,2.7,9.3-1.1c0,0,0.8-1.6,0.8-1.6l0,0l1.4-2.6c-2.8,4.7-15.9-1.9-12.5-9.2 c0,0,0-0.1,0.1-0.1l0,0l-1.9,3.4l0,0c0,0-0.1,0.1-0.1,0.1C381.5,342.5,382.8,347.5,386.3,349.8z" class="st4"/><path d="M436.4,272.1l0.1-19.6L422.8,265C421.8,270.6,434.6,276.3,436.4,272.1z" class="st8"/><path d="M437,251.6l-0.6,9.5c0,0-0.2,1.1-2,0.4c-1.8-0.8-1.5,0.6-3.4-0.5c-1.9-1.1-2-1.8-2-1.8L437,251.6z" class="st15"/></g><path d="M435.3,312.8c0,0,3.2,8.2-4.4,14c0,0-3.4,1-3.5-3.3c-0.1-4.3-0.2-10.3-0.2-10.3L435.3,312.8z" class="st12"/><path d="M422.9,303.4L429,318c0.8,1.1,11.3-5,10.2-6.7c-0.2-0.3-7-18-13.4-20.5C420.8,288.7,419.7,296.7,422.9,303.4z" class="st22"/><path d="M412.3,294.6l0.4-0.1c1.4-0.2,2.4-1.5,2.3-2.9l-1-8c-0.2-1.4-1.5-2.4-2.9-2.3l-0.4,0.1 c-1.4,0.2-2.4,1.5-2.3,2.9l-0.2,7.9C408.4,293.6,410.9,294.8,412.3,294.6z" class="st12"/><ellipse cx="408.6" cy="279.7" class="st12" rx="4.6" ry="8.2" transform="matrix(0.9998 -2.137399e-02 2.137399e-02 0.9998 -5.8845 8.7977)"/><path d="M412.4,274.9c0,0-0.9,7.2,4.8,8.9c0,0,6.5-3.6,1.9-10.6c-4.1-6.2-10.8-1.6-10.8-1.6L412.4,274.9z" class="st23"/><path d="M404.3,276.6c0,0,1.9-2.5,5.9-2.2l-2-2.8C408.2,271.6,405.1,271,404.3,276.6z" class="st23"/><path d="M415.3,279.2c-1.3-1.8-4.2-1.7-8.4-0.2c-3.8,0.2-4.3-4.2-4.3-4.2c-0.6-2.3,1-3.4,3.3-4l6.1-1.5 c3.5-0.9,6.8,2,7.3,4.4l0.2,0.4C420.1,276.4,417.6,278.6,415.3,279.2z" class="st15"/><ellipse cx="417.2" cy="400.8" class="st0" rx="17.1" ry="8.5" transform="matrix(0.9991 -4.327846e-02 4.327846e-02 0.9991 -16.9562 18.4303)"/><path d="M401.2,401.1l7.1,5.3c1.8,1,2.9,0.2,4.3-0.2c0.6-0.2,1.1-0.8,1-1.4l-0.1-1.4c-0.1-2.1-2-3.2-3.4-3.7l-7.2-3.4 C401.7,395.6,397.5,398.1,401.2,401.1z" class="st15"/><path d="M424.8,390.8l-1.4,8.8c-0.4,4.6,6.9,4.9,7-0.1l-0.4-9.4C429.9,388.6,425.8,386.1,424.8,390.8z" class="st15"/><path d="M407.7,401.8c0.1,2.1,5.2,1.8,5.1-0.3l-0.4-6.8l-5.1,0.3L407.7,401.8z" class="st18"/><path d="M424.3,396.6c0.1,2.1,5.2,1.8,5.1-0.3l-0.4-6.8l-5.1,0.3L424.3,396.6z" class="st18"/><path d="M423.5,394.7c2.1,1.3,5.4,1.1,6.4-0.7c-0.2-25.1,2.9-42,1.3-63.4L415,327C419.4,352.4,421.1,375,423.5,394.7z" class="st14"/><path d="M406.9,398.1c1.8,2.2,5.4,2,6.4,0.3l6.6-68l-18.4,1.1L406.9,398.1z" class="st14"/><path d="M431.7,328.9c-1.8-7.2-2.7-15.4-2.1-25.4c-0.8-13.9-2.8-13.8-12.1-13.8l-2.2,0c-2.7,0-5.3,0.7-7.6,2 c-8,4.5-11.9,5.7-9.6,15.4l3.3,24.3C402.2,344,433.3,343.7,431.7,328.9z" class="st22"/><polygon points="405.3 310.9 401.9 330.1 401.5 331.9 400.3 322.9" class="st24"/><path d="M417.7,286c-1.5,3.6-5.6,4.5-7.7,1.8c-2.1-2.7-5-8.1-3.6-11.7c1.5-3.6,11.4-4,13.5-1.3 C422,277.5,419.2,282.3,417.7,286z" class="st15"/><path d="M398.7,322.7c0,0-1.2,8.7-10.7,10c0,0-3.5-0.9-1.4-4.6c2-3.7,4.9-9.1,4.9-9.1L398.7,322.7z" class="st12"/><path d="M406,307.8l-4.4,15.2c-0.7,1.2-11.8-3.6-11-5.4c0.1-0.3,4.8-18.7,10.8-22C406.3,293,408.3,300.8,406,307.8z" class="st22"/></g><path d="M120.2,232.1c0,0-11.7,5.3-6.3,26.9l8.6,4.3c0,0,0,0,0,0l12.7,7.9c0,0,4.1-17.7,11.3-28.1L120.2,232.1z" class="st2"/><path d="M262.7,223.4c0,0,11.7,5.3,6.3,26.9l-8.6,4.3c0,0,0,0,0,0l-12.7,7.9c0,0-4.1-17.7-11.3-28.1L262.7,223.4z" class="st1"/><path d="M110,299.3c0,0-11.2,5.7-3.6,28.8l9,4.7c0,0,0,0,0,0l14.8,7.3c0,0,0.8-19.9,10.1-26L110,299.3z" class="st2"/><path d="M123.1,229.8c0,0-13.9,5.2-17,26.1l6.9,4.2c0,0,0,0,0,0l15.6,9.1c0,0,5.8-20.5,18-25.9L123.1,229.8z" class="st19"/><path d="M93.9,286.7c0,0-11.5,6.6-14.7,27.5l28.3,16.5c0,0,0,0,0,0l15.6,9.1c0,0,5.8-20.5,18-25.9L93.9,286.7z" class="st7"/><polygon points="93.9 286.7 83.6 281.7 91.2 288.8" class="st2"/><polygon points="123.1 229.8 113.8 224.7 121.9 230.3" class="st2"/><polygon points="260.1 220.1 276.1 212.3 263.6 222.1" class="st1"/><path d="M260.1,220.1c0,0,13.9,5.2,17,26.1l-6.9,4.2c0,0,0,0,0,0l-15.6,9.1c0,0-5.8-20.5-18-25.9L260.1,220.1z" class="st7"/><g><path d="M289.1,326.8l46.1,24.9c1.7,0.9,2.4,2.9,1.5,4.3c-0.9,1.4-2.9,1.8-4.6,0.8l-49-26.5L289.1,326.8z" class="st25"/><path d="M318.3,310.7l6.5-3.7l45.7,24.3c1.7,0.9,2.4,2.9,1.5,4.3c-0.9,1.4-2.9,1.8-4.6,0.8L318.3,310.7z" class="st25"/><path d="M286.9,193.3l43.1,161.3c0.3,1.1,1,1.8,1.6,2c0.4,0.2,2.9,1.2,3.2,1l0.5-0.2c1-0.6-1-3.5-1.4-5.1l-6.7-25.2 l31.6-18l6.7,25.2c0.3,1.1,0.9,1.7,1.6,2c0.3,0.1,2.9,1.2,3.3,1l0.2-0.5c0.2-0.8-0.6-3.2-1-4.7l-7.2-26.8l0,0l-0.6-2.1v0l-6.9-25.6 v0l-0.3-1.1l-7.7-28.6l0-0.1l0,0l-7-26.2l-0.4-1.5l0,0l-6.9-25.6v0l-0.6-2.1l0,0l-5.7-21.4c-0.1-0.5,2.2-0.2,1.9-0.6 c-0.3-0.4-3.3-1.4-3.7-1.4c-0.3,0-0.5,0-0.8,0.2l-0.3,0.2c-1,0.6-1.5,2.3-1.1,3.9l5.3,19.8l-31.6,18l-5.3-19.8 c-0.1-0.6,1.8-0.4,1.5-0.8c-0.3-0.3-2.8-1.1-3.2-1.2c-0.3-0.1-0.6,0-0.9,0.2l-0.3,0.2C287,189.9,286.5,191.7,286.9,193.3z M329.2,198.1l6,22.4l-31.6,18l-6-22.4L329.2,198.1z M305,243.9l31.6-18l6,22.4l-31.6,18L305,243.9z M312.4,271.6l31.6-18l6,22.4 l-31.6,18L312.4,271.6z M325.9,321.8l-6-22.4l31.6-18l6,22.4L325.9,321.8z" class="st19"/></g><g><g><path d="M337.5,102.3c0.3,0,0.7-0.1,1-0.2l26.2-14c1-0.5,1.3-1.7,0.8-2.7c-0.5-1-1.7-1.3-2.7-0.8l-26.2,14 c-1,0.5-1.3,1.7-0.8,2.7C336.1,101.9,336.8,102.3,337.5,102.3z" class="st6"/></g><g><g><path d="M327.8,110.8c-2.5-1.5-3.8-3.7-3.8-5.8c0.1-1.9,1.2-3.6,3.2-4.7l0,0l29.6-15.8c3.8-2,10-1.6,14.2,1 c2.5,1.5,3.8,3.7,3.8,5.8c-0.1,1.9-1.2,3.6-3.2,4.7L342,111.8c-1.7,0.9-4,1.3-6.3,1.3C332.9,113,330,112.2,327.8,110.8z M358.7,88l-29.6,15.8c-0.4,0.2-1.1,0.7-1.2,1.3c0,0.5,0.5,1.5,1.9,2.4c2.9,1.8,7.7,2.2,10.2,0.8l29.6-15.8 c0.4-0.2,1.1-0.7,1.2-1.3c0-0.5-0.5-1.5-1.9-2.4c-1.6-1-3.8-1.6-5.9-1.6C361.4,87.1,359.9,87.4,358.7,88z" class="st7"/></g></g><g><path d="M378.1,97.2l8.6-4.6c2.4-1.3,3.9-3.5,3.9-5.9c0-1.5-0.5-4.4-4.5-7c-6.5-4-14.6-3.1-18.2-1.2l-27.6,14.8 c-1,0.5-1.3,1.7-0.8,2.7c0.5,1,1.7,1.3,2.7,0.8l27.6-14.8c2.7-1.5,9.1-2.1,14.3,1.1c1.8,1.1,2.7,2.3,2.7,3.5c0,1-0.7,1.9-1.9,2.5 l-11.2,6L378.1,97.2z" class="st7"/></g></g><path d="M181.2,168c-0.8,0-1.3-0.2-1.4-1.2c-0.2-2.4-0.4-4.8-0.7-7.3c-0.1-1.2,0.6-1.7,1.7-1.2c0.9,0.5,1.9,1,2.7,1.7	c0.8,0.6,1.5,0.5,2.2-0.1c1.3-1,2.7-2,4-3c1.7-1.3,2-1.3,3.7-0.2c0.8,0.5,1.6,1,2.4,1.5c0.9,0.6,0.9,1.1,0.1,1.7	c-1.6,1.2-3.2,2.5-4.9,3.6c-0.8,0.5-0.7,0.9,0,1.3c0.8,0.5,1.7,1,2.5,1.6c0.3,0.2,0.7,0.5,0.6,0.9c-0.1,0.4-0.6,0.5-1,0.6	c-1.1,0.1-2.3,0-3.4,0.1C186.8,168.1,184,168,181.2,168z" class="st8"/><path d="M191,173c-1.9-1.2-3.7-2.4-5.6-3.5c-0.4-0.2-0.8-0.4-1.3-0.3c-1.1,0.2-2.1,0.1-3.2,0c-2.1-0.1-2.8-0.9-3-2.9	c-0.1-0.7,0.1-1.5-0.7-2c-1.8-1.1-3.6-2.3-5.5-3.5c-0.6-0.4-1.3-0.6-2-0.1c-1.6,1.2-3.3,2.3-4.7,3.6c0,0.1,0,0.2,0,0.3	c0.2,0.6,0.7,0.9,1.2,1.2c4.7,3.1,9.6,6.1,14.3,9.1c1.7,1.1,3.4,2.4,5.4,3.1c0.2,0,0.4,0,0.5,0c1.5-1.1,3.1-2.2,4.6-3.3	C191.9,174.1,191.9,173.6,191,173z M182.1,173.8c-0.6,0-1.1-0.2-1.2-0.8c-0.1-0.6,0.5-0.7,0.9-0.7c0.5,0,1.2,0.1,1.1,0.8	C183,173.6,182.5,173.8,182.1,173.8z M184.6,175.5c-0.4,0-0.9-0.2-0.9-0.7c0-0.6,0.5-0.8,1-0.8c0.5,0.1,0.9,0.3,1.1,0.8	C185.6,175.4,185.1,175.5,184.6,175.5z" class="st8"/><g><g><path d="M299.8,585.8L232.5,547c-0.4-0.2-0.9-0.2-1.2,0l-12.1,7c-0.1,0-0.2,0.1-0.3,0.1l-92.2,53.2 c-0.8,0.5-0.8,1.7,0,2.2l67.3,38.8c0.4,0.2,0.9,0.2,1.2,0l12.1-7c0.1,0,0.2-0.1,0.3-0.1l92.2-53.2 C300.6,587.5,300.6,586.3,299.8,585.8z" class="st0"/><g><g><path d="M175.6,638.1l-67.3-38.8c-0.8-0.5-0.8-1.7,0-2.2l92.2-53.2c0.4-0.2,0.9-0.2,1.2,0l67.3,38.8 c0.8,0.5-8,0,0,2.2l-92.2,53.2C176.5,638.4,176,638.4,175.6,638.1z" class="st21"/><rect width="2.7" height="2.7" x="107.8" y="595.7" class="st15"/><rect width="2.5" height="2.5" x="267" y="580.6" class="st26"/></g><path d="M175.6,635.9L108.4,597c-0.8-0.5-0.8-1.7,0-2.2l92.2-53.2c0.4-0.2,0.9-0.2,1.2,0l67.3,38.8 c-0.3,0.6-0.6,1.4,0,2.2l-92.2,53.2C176.5,636.1,176,636.1,175.6,635.9z" class="st20"/><polygon points="114 568.5 114 573.8 114 589 114 594.4 172.5 628.3 172.5 623 172.5 607.7 172.5 602.4" class="st27"/><g><path d="M175.6,608.4l-67.3-38.8c-0.8-0.5-0.8-1.7,0-2.2l92.2-53.2c0.4-0.2,0.9-0.2,1.2,0l67.3,38.8 c-0.9,0.5-1.6,1.7,0,2.2l-92.2,53.2C176.5,608.6,176,608.6,175.6,608.4z" class="st21"/><rect width="2.7" height="2.4" x="107.8" y="566.1" class="st15"/><rect width="2.7" height="1.8" x="267" y="552.2" class="st28"/></g><path d="M175.6,606.1l-67.3-38.8c-0.8-0.5-0.8-1.7,0-2.2l92.2-53.2c0.4-0.2,0.9-0.2,1.2,0l67.3,38.8 c0.8,0.5,0.8,1.7,0,2.2l-92.2,53.2C176.5,606.4,176,606.4,175.6,606.1z" class="st20"/><path d="M177,606.2v11.5v9.1v11.5l91.6-53.1c0.9-0.5,1.2-2.3,1.2-3.4l-0.2-9.4v-6.7l0.2-13.9L177,606.2z" class="st15"/><g><g><path d="M188.7,617.5c0,5.4,3.8,7.5,8.5,4.8c4.7-2.7,8.5-9.3,8.5-14.6c0-5.4-3.8-7.5-8.5-4.8 C192.5,605.6,188.7,612.1,188.7,617.5z" class="st8"/></g></g><path d="M226.8,603.5l28.3-16.3c3.2-1.9,5.8-6.9,5.8-11.2v-6.1c0-4.3-2.6-6.3-5.8-4.4l-28.3,16.3 c-3.2,1.9-5.8,6.9-5.8,11.2l0,6.1C221,603.4,223.6,605.4,226.8,603.5z" class="st8"/></g><g><g><path d="M175.6,600.8L108.4,562c-0.8-0.5-0.8-1.7,0-2.2l92.2-53.2c0.4-0.2,0.9-0.2,1.2,0l67.3,38.8 c0.8,0.5-8,0,0,2.2l-92.2,53.2C176.5,601,176,601,175.6,600.8z" class="st6"/><rect width="2.7" height="2.7" x="107.8" y="558.4" class="st6"/><rect width="2.5" height="2.5" x="267" y="543.3" class="st26"/></g><path d="M175.6,598.5l-67.3-38.8c-0.8-0.5-0.8-1.7,0-2.2l92.2-53.2c0.4-0.2,0.9-0.2,1.2,0l67.3,38.8 c-0.3,0.6-0.6,1.4,0,2.2l-92.2,53.2C176.5,598.8,176,598.8,175.6,598.5z" class="st6"/><polygon points="114 531.1 114 536.5 114 551.7 114 557.1 172.5 591 172.5 585.7 172.5 570.4 172.5 565.1" class="st27"/><g><path d="M175.6,571.1l-67.3-38.8c-0.8-0.5-0.8-1.7,0-2.2l92.2-53.2c0.4-0.2,0.9-0.2,1.2,0l67.3,38.8 c-0.9,0.5-1.6,1.7,0,2.2l-92.2,53.2C176.5,571.3,176,571.3,175.6,571.1z" class="st6"/><rect width="2.7" height="2.4" x="107.8" y="528.8" class="st6"/><rect width="2.7" height="1.8" x="267" y="514.9" class="st28"/></g><path d="M175.6,568.8L108.4,530c-0.8-0.5-0.8-1.7,0-2.2l92.2-53.2c0.4-0.2,0.9-0.2,1.2,0l67.3,38.8 c0.8,0.5,0.8,1.7,0,2.2l-92.2,53.2C176.5,569,176,569,175.6,568.8z" class="st7"/><path d="M177,568.9v11.5v9.1V601l91.6-53.1c0.9-0.5,1.2-2.3,1.2-3.4l-0.2-9.4v-6.7l0.2-13.9L177,568.9z" class="st29"/><g><g><ellipse cx="197.2" cy="575.3" class="st8" rx="12" ry="6.9" transform="matrix(0.5047 -0.8633 0.8633 0.5047 -398.9723 455.1911)"/></g></g><path d="M226.8,566.2l28.3-16.3c3.2-1.9,5.8-6.9,5.8-11.2v-6.1c0-4.3-2.6-6.3-5.8-4.4l-28.3,16.3 c-3.2,1.9-5.8,6.9-5.8,11.2l0,6.1C221,566.1,223.6,568.1,226.8,566.2z" class="st8"/></g></g><path d="M167.3,563.9l8,4.6c0,0-1.3,0.1-2.7,0.7l-7.1-4L167.3,563.9z" class="st30"/><path d="M170.2,589.6l-8.2-5.2c0,0,0.1-15.7,2.9-19.5l7.7,4.4C172.5,569.3,169.3,575.3,170.2,589.6z" class="st31"/><path d="M169.7,597.4c0,0,0.4-4.1,0.5-7.8l-8.2-5.2l-0.4,8.5L169.7,597.4z" class="st30"/><path d="M162.5,598.6c0,0-0.3-0.4-0.5-1.8s-0.5-3.9-0.5-3.9l8.1,4.5c0,0,0,1-0.6,1.5l0.5,3.8L162.5,598.6z" class="st32"/><polygon points="148 590.1 153.7 593.7 153.1 587.2 147.6 584.1" class="st32"/><path d="M149.1,593.1l0-0.3c0,0-0.8-0.4-1-1.4c-0.2-1-0.2-1.2-0.2-1.2l5.9,3.6l1.6,2.5L149.1,593.1z" class="st33"/><path d="M162.5,598.6c0,0,0.3,0.5,0.7,0.7l0.3,2.1l7.3,4.2c0,0-0.3-1.8-0.4-2.1c-0.1-0.3-0.4-0.6-0.7-0.7l0-0.1 L162.5,598.6z" class="st33"/><path d="M155.4,614.6l8.3-10.7l-0.3-2.5l7.3,4.2c0,0,0.7,2,0,2.8c-0.7,0.8-9.1,7.2-9.1,7.2s-1.5,1.2-3.4,1.1 S155.3,615.8,155.4,614.6z" class="st31"/><path d="M141.4,603.8c0,0-2.5,1.7-1.8,2.9c0.7,1.2,3.8,2.1,6.3,0.6s7.3-4.4,7.3-4.4l2.7-3.2l-0.5-3.5l-6.4-3.1l0,3 L141.4,603.8z" class="st31"/><g><path d="M175.2,568.6c0,0,14.1-7.7,10.5-16.8c-3.6-9.1-18.2,12.3-18.2,12.3L175.2,568.6z" class="st30"/><path d="M161.1,555.7c1.3,0,26.4,9.1,26.3-11.7c0-20.8-32.1,2.9-32.1,2.9L161.1,555.7z" class="st19"/><path d="M132.2,600.7l8.2-8.4c1.1-0.7,3.6-1,5.3-0.8c0.8,0.1,1.4,0.7,1.4,1.5l0.1,1.7c0.3,2.4,0.1,2.7-1.4,3.6 l-8.7,5.2c-1.5,0.9-3.7,1-5,0.3l-0.4-0.2C130.6,602.9,130.7,601.6,132.2,600.7z" class="st15"/><path d="M146.6,592.7c0,2.5-6,2.5-6,0v-8h6V592.7z" class="st18"/><path d="M148,609.6l7.1-9.3c1-0.8,3.5-1.4,5.2-1.4c0.8,0,1.4,0.6,1.6,1.3l0.4,1.6c0.6,2.3,0.4,2.7-0.9,3.8l-8,6.2 c-1.3,1-3.6,1.5-4.9,0.9l-0.4-0.2C146.7,611.9,146.7,610.6,148,609.6z" class="st15"/><path d="M161.3,599.8c0.3,2.4-5.6,3.2-6,0.7l-1-8l6-0.7L161.3,599.8z" class="st18"/><path d="M159.9,536.7c0,0-18.6,9.5-19.3,14.4c-0.7,4.3-1.4,30-1,36.1c0.1,0.9,0.6,1.6,1.4,2c1.8,0.9,5.2,1.8,6.3-1.9 c1.6-5.3,1-23.3,4.8-28.5c3.7-5.2,22.3-12.5,22.3-12.5L159.9,536.7z" class="st19"/><path d="M172.4,545.3c0,0-20.8,10.4-21.4,15.1c-0.5,4.1,2,27.5,2.7,33.4c0.1,0.9,0.7,1.7,1.5,2 c1.9,0.7,5.1,1.4,6.1-2.1c1.4-5.1,0.2-22.1,3.8-27.2c1.9-2.7,6.9-5.8,15.4-9.8c3.9-1.8,6.7-9.5,2-10.1L172.4,545.3z" class="st19"/><path d="M154.4,507.9l-4,15.2c-0.3,1.8-1,4.4-1.4,7.5c-0.7,4.8,0.7,10,3.6,13.6c0,0,1.4-7.4,2.8-10.9 c2.5-6.1,4.5-13.4,4.5-13.6C159.9,519.3,154.4,507.9,154.4,507.9z" class="st12"/><path d="M160.3,497.6l-9.3,16c1.3,5.1,4,7.7,7.5,9l3-19.8L160.3,497.6z" class="st34"/><path d="M153.1,511.6c0,0,1.5,4.4,9.9,7.3" class="st35"/><path d="M157.5,536c1.4-7.9,1.1-12.7-0.2-23.6c0-15.1,4.6-20.7,14.1-17.2l3.9,1c11.4,6.2,17.3,5.9,15.2,18l-2,26.6 C188.5,554.5,156.7,552,157.5,536z" class="st22"/><path d="M169.9,495.3c0,0,1.5,1.4,2.3,1.5c0.8,0.2,8.9-6.4,5.9-13.8c-1.9-4.7-10.7-1-10.7-1L169.9,495.3z" class="st15"/><path d="M172.5,501.8l-0.5,0.1c-1.5,0.3-3-0.8-3.3-2.3l-1.5-8.7c-0.3-1.5,0.8-3,2.3-3.3l0.5-0.1 c1.5-0.3,3,0.8,3.3,2.3l2.6,8.1C176.3,499.5,174.1,501.5,172.5,501.8z" class="st12"/><path d="M168.3,496.7c0,0,3.7,0.1,6.2-3.5c0,0-2.3,5.4-5.7,5.9L168.3,496.7z" class="st17"/><path d="M171.1,492.4c-0.9,4.1-3.8,5.5-6.5,3c-2.8-2.5-4.3-7.8-3.4-11.9c0.9-4.1,3.8-5.5,6.5-3 C170.5,482.9,172,488.3,171.1,492.4z" class="st12"/><path d="M175.3,490.8c-0.9,4.1-5.1,5.9-7.9,3.5s-4.3-7.8-3.4-11.9c0.9-4.1,3.8-5.5,6.5-3S176.2,486.7,175.3,490.8z" class="st12"/><path d="M169.2,482.1c0,0,0.4,7.8,6.8,8.5c0,0,6.2-5.1-0.1-11.7c-5.5-5.8-11.8,0.4-11.8,0.4L169.2,482.1z" class="st15"/><path d="M160.9,485.5c0,0,1.6-3.1,5.8-3.5l-2.7-2.6C164.1,479.4,160.7,479.3,160.9,485.5z" class="st23"/><path d="M173.2,486.1c-1.7-1.7-4.8-1-9,1.5c-4.1,0.9-5.4-3.7-5.4-3.7c-1.1-2.4,0.4-3.8,2.8-4.9l6.2-2.8 c3.5-1.6,7.6,0.8,8.7,3.2l0.2,0.4C177.8,482.2,175.6,485,173.2,486.1z" class="st15"/><ellipse cx="174.7" cy="491.3" class="st12" rx="1.9" ry="1.9" transform="matrix(0.3845 -0.9231 0.9231 0.3845 -346.0682 463.6829)"/><path d="M168.3,496.7c0,0-3.1,4.4,1.3,6.3c7,3,9.2-5,8.1-5.4l-2.2-1.1c0,0,1.5,2.2-0.7,4.1c-1.7,1.4-4.6,1.7-5.9-0.5 L168.3,496.7z" class="st8"/><polygon points="180.3 512.4 180.3 538.2 185.1 535.4" class="st24"/><g><path d="M175.2,548.2l-2.2-0.8l-0.3-0.3l-0.2-0.3l-16.6-8.6c-0.2-0.1-0.5-0.1-0.7,0l-6.3,3.7l0-0.1l-1.2,0.5l0.1,0.5 h0c0,0,0.1,0.1,0.1,0.1l17.2,9c0,0,0,0,0,0.1c0.4,1.3,1,2.5,2.1,1.8l7-4.1C174.9,549.4,175.2,548.8,175.2,548.2L175.2,548.2z" class="st0"/><path d="M165.9,553.3L146,543c-0.2-0.1-0.2-0.3,0-0.5l8.4-4.9c0.2-0.1,0.6-0.2,0.8,0l19.9,10.3 c0.2,0.1,0.2,0.3,0,0.5l-8.4,4.9C166.5,553.4,166.1,553.5,165.9,553.3z" class="st4"/><path d="M166.4,546.7l-4.8-2.5c-0.1,0-0.1-0.1,0-0.1l2-1.2c0.1,0,0.1,0,0.2,0l4.8,2.5c0.1,0,0.1,0.1,0,0.1l-2,1.2 C166.6,546.7,166.5,546.7,166.4,546.7z" class="st0"/><path d="M164.1,541.7c-0.1-0.5-0.6-1-1-1.2l-19.7-10.1c-0.2-0.1-0.3-0.1-0.4-0.1l0,0l0,0c0,0-0.1,0-0.1,0.1l-0.5,0.6 l0.6,0l3,10.9c0.1,0.5,0.6,1,1,1.2l18.6,9.5l0.6,0.6l0.1,0.1c0.4,0.1,1.2-0.5,1.2-0.5L164.1,541.7z" class="st8"/><path d="M166,553.9c0,0-20.6-10.9-20.7-11.3l-3-11c-0.1-0.5,0.1-0.7,0.5-0.5l19.7,10.1c0.4,0.2,0.9,0.8,1,1.2l3,11 C166.7,553.9,166.4,554.1,166,553.9z" class="st36"/><path d="M154.9,543.2c0.2,0.6-0.4,0.7-1.2,0.3c-0.8-0.4-1.6-1.2-1.8-1.8c-0.2-0.6,0.4-0.7,1.2-0.3 C154,541.8,154.8,542.6,154.9,543.2z" class="st8"/></g><path d="M181.1,512.4l2.6,23.1c0.1,1.2-18.9,7.3-18.9,7.3l1.6,6.7l19.4-5c5.1-2.2,5-6.1,4.9-9.3l-0.4-20L181.1,512.4 z" class="st12"/><path d="M180.5,514.9l1.6,17.1c0.5,1.4,13.3-1.5,12.8-3.6c-0.1-0.4-1.4-20.9-7.1-25.6 C183.1,499.1,179.4,507.1,180.5,514.9z" class="st34"/><path d="M182.1,527.5c0,0,5.3,1.4,11.9-3.4" class="st35"/></g></g><g><g><path d="M52.7,383.5c0,0-0.1,29.1,16.6,17.6c16.7-11.5,16.3-21.5,16.3-21.5l-1.4-0.7c0,0-11.1,15.9-15.5,13.5 c-4.4-2.4-7.2-13.7-9.4-14.6C57.1,377.1,52.7,383.5,52.7,383.5z" class="st19"/><ellipse cx="61" cy="498.6" class="st0" rx="20.7" ry="10.3" transform="matrix(0.9998 -1.772935e-02 1.772935e-02 0.9998 -8.8302 1.1596)"/><path d="M45.8,491.7l4.5-0.6c3-1.4,4.4-2.4,5.8-1.6l0.4,0.2c1.3,0.8,1.2,2.1-0.4,3l-6.6,5.3 c-1.6,0.9-3.6,0.6-4.9-0.5c0,0-0.7-0.7-0.2-3.5C44.6,492.5,44.5,492.4,45.8,491.7z" class="st15"/><path d="M51.1,491.9c-0.4,3.1-6.1,3.1-6.1,0.7l3.2-71.9l19-5.4L51.1,491.9z" class="st12"/><path d="M64.8,498.6l4.5,0.8c3.3-0.4,4.9-0.9,6,0.2l0.3,0.3c1,1.1,0.5,2.4-1.3,2.8l-7.9,3c-1.7,0.4-3.7-0.5-4.5-1.9 c0,0-0.5-0.9,0.9-3.4C63.5,499,63.4,498.9,64.8,498.6z" class="st15"/><path d="M68.5,500.5c-1,2.5-5.4,2-5.3-0.1c2-24.9-2.7-48.4-8.7-71.3l18.3-2C73.5,453.9,73.3,476.8,68.5,500.5z" class="st12"/><path d="M71.6,420.6l6.4,34.9c0,0-15.8,15.7-33.9,0l2-32.8L71.6,420.6z" class="st2"/><path d="M65.6,374.2c-1.4,4.7-4.9,6.1-7.9,3c-3-3.1-4.3-9.4-2.9-14.2c1.4-4.7,4.9-6.1,7.9-3 C65.6,363.1,66.9,369.4,65.6,374.2z" class="st12"/><path d="M70.6,372.7c-1.4,4.7-6.4,6.4-9.4,3.4c-3-3.1-4.3-9.4-2.9-14.2c1.4-4.7,4.9-6.1,7.9-3 C69.1,362,71.9,367.9,70.6,372.7z" class="st12"/><path d="M59.1,386.3l-0.5-0.1c-1.7-0.4-2.8-2.1-2.4-3.8l2.2-9.7c0.4-1.7,2.1-2.8,3.8-2.4l0.5,0.1 c1.7,0.4,2.8,2.1,2.4,3.8l-0.7,9.6C64,385.6,60.8,386.7,59.1,386.3z" class="st12"/><path d="M55,373.4c0,0-0.6,3.3,5.1,3.6c4.6,0.3,3.2-8,7.8-8.8c5-0.8,5.9-7,3.9-9.4s-7.5-3.6-11.5-1.9 C56.4,358.7,48,360,55,373.4z" class="st14"/><path d="M68,370.7c-0.3,1.2-1.5,1.8-2.7,1.5c-1.2-0.3-1.8-1.5-1.5-2.7c0.3-1.2,1.5-1.8,2.7-1.5 C67.6,368.4,68.3,369.6,68,370.7z" class="st12"/><path d="M46.1,422.4c1.6-8.9-0.1-15.9,0-25.3c0-17-0.8-21.1,8.2-18.5l2.5,0.7c1.2,0.3,2.4,0.8,3.5,1.4 c11.8,6.1,15,8,14.5,15c0.1,11.6-5.9,15.2-3,25.4C69.3,429.1,48.8,428.1,46.1,422.4z" class="st19"/><path d="M64.8,377.6l-0.5-1.2c0,0,0.9,0.9,2.7,0.7C67,377.1,65.9,377.7,64.8,377.6z" class="st17"/><path d="M56.7,378.1c-1-0.2-1.9,0.6-1.7,1.6c0.2,1.1,0.9,2.4,2.9,3.1c2.8,0.9,5.9,0.4,7.3,0.1 c0.3-0.1,0.4-0.5,0.1-0.7C63.7,381.1,59.7,378.8,56.7,378.1z" class="st15"/><polygon points="91.5 396.2 78 388.4 85.9 365.2 99.4 373" class="st5"/><path d="M64.1,393.1c0,0,11.6,28.2,24.2,14.6c12.7-13.6,8.2-23.2,8.2-23.2l-1.7-0.5c0,0-5.1,17.1-10.6,15.4 s-12.9-12.2-15.6-12.7C66,386.3,64.1,393.1,64.1,393.1z" class="st19"/><path d="M96.2,386.5L96.2,386.5c-1.2,0-2.2-1-2.2-2.2v-2.3c0-1.2,1-2.2,2.2-2.2l0,0c1.2,0,2.2,1,2.2,2.2v2.3 C98.4,385.5,97.4,386.5,96.2,386.5z" class="st12"/><g><path d="M88.6,373.6l-2.3-1.3c-0.5-0.3-0.7-0.9-0.6-1.5l0,0c0.2-0.5,0.7-0.8,1.1-0.5l2.3,1.3 c0.5,0.3,0.7,0.9,0.6,1.5l0,0C89.5,373.7,89,373.9,88.6,373.6z" class="st6"/><path d="M90.7,378.9l-3.5-2c-0.4-0.2-0.6-0.7-0.4-1.2l0,0c0.1-0.4,0.5-0.6,0.9-0.4l3.5,2c0.4,0.2,0.6,0.7,0.4,1.2 l0,0C91.5,378.9,91.1,379.1,90.7,378.9z" class="st2"/><path d="M92.5,384.1l-6.4-3.7c-0.4-0.2-0.6-0.7-0.4-1.2l0,0c0.1-0.4,0.5-0.6,0.9-0.4l6.4,3.7 c0.4,0.2,0.6,0.7,0.4,1.2l0,0C93.3,384.1,92.9,384.3,92.5,384.1z" class="st2"/><path d="M88.6,385.9l-3.5-2c-0.4-0.2-0.6-0.7-0.4-1.2l0,0c0.1-0.4,0.5-0.6,0.9-0.4l3.5,2c0.4,0.2,0.6,0.7,0.4,1.2 l0,0C89.3,386,88.9,386.1,88.6,385.9z" class="st2"/></g></g><path d="M52.7,362.5c0,0-5.1,10.8-3.4,19l6.8,2.7c0,0,8.1-5.2,8.3-12.2L52.7,362.5z" class="st14"/></g><g><path d="M337.7,518.3l1.8-0.4c1.4-0.3,2.6-1.9,2.5-3.5l0,0c0-1.6-1.2-2.7-2.6-2.4l-1.8,0.4c-1.4,0.3-2.6,1.9-2.5,3.5 l0,0C335.1,517.5,336.3,518.6,337.7,518.3z" class="st12"/><ellipse cx="386.7" cy="607.7" class="st0" rx="17.7" ry="8.8" transform="matrix(0.9998 -1.773018e-02 1.773018e-02 0.9998 -10.7132 6.9516)"/><path d="M389.5,612.5l7.4-7.3c1-0.6,3.2-0.8,4.7-0.6c0.7,0.1,1.2,0.7,1.2,1.3l0.1,1.5c0.2,2.1,0,2.4-1.3,3.2l-7.8,4.5 c-1.3,0.8-3.3,0.8-4.4,0.2l-0.3-0.2C388,614.4,388.2,613.3,389.5,612.5z" class="st14"/><path d="M402.2,604.9c0,2.2-5.3,2.2-5.3,0v-7.1h5.3V604.9z" class="st18"/><path d="M372.1,603.1l7.4-7.3c1-0.6,3.2-0.8,4.7-0.6c0.7,0.1,1.2,0.7,1.2,1.3l0.1,1.5c0.2,2.1,0,2.4-1.3,3.2l-7.8,4.5 c-1.3,0.8-3.3,0.8-4.4,0.2l-0.3-0.2C370.6,605,370.7,603.9,372.1,603.1z" class="st14"/><path d="M384.8,595.6c0,2.2-5.3,2.2-5.3,0v-7.1h5.3V595.6z" class="st18"/><path d="M385.5,593.6c-2.1,1.5-5.5,1.5-6.7-0.3l-5.4-65.5l16.5-4.9L385.5,593.6z" class="st15"/><path d="M402.9,600.4c-1.7,2.5-5.5,2.5-6.6,0.7l-11.1-74.5h19.2L402.9,600.4z" class="st15"/><polygon points="388.1 546.8 387.8 552 383 535.8 385.7 536.3" class="st19"/><path d="M375.9,486.6l-7.5,14c1.2,4.9,3.9,7.3,7.2,8.6l2.8-18.9L375.9,486.6z" class="st29"/><path d="M369.4,496.8c0,0,2.4,6.2,10.4,9" class="st37"/><path d="M373.4,525.1v-25.6c0-14.4,5.4-19.7,14.5-16.4l3.7,1c10.9,5.9,16.5,5.6,14.5,17.2l-1.9,25.4 C404.3,539.7,372.7,540.5,373.4,525.1z" class="st7"/><polygon points="399 505.7 403.7 525.2 404.3 527.2 405 517.7" class="st15"/><path d="M388.1,482.6c0,0,1.7,1,2.5,1s6.9-6.5,2.5-13c-2.7-4.1-10.1-0.3-10.1-0.3L388.1,482.6z" class="st15"/><ellipse cx="383" cy="476.2" class="st12" rx="5" ry="8.7" transform="matrix(0.9179 -0.3968 0.3968 0.9179 -157.5258 191.0492)"/><path d="M392.4,477.1c0,4.2-3.7,6.8-6.9,4.9c-3.2-1.8-5.7-6.7-5.7-10.9s2.6-6.1,5.7-4.3 C388.7,468.8,392.4,473,392.4,477.1z" class="st12"/><path d="M389.1,489.4l-0.4,0.1c-1.5,0.2-2.9-0.7-3.1-2.2l-1.4-8.3c-0.2-1.5,0.7-2.9,2.2-3.1l0.4-0.1 c1.5-0.2,2.9,0.7,3.1,2.2l2.5,7.8C392.7,487.2,390.6,489.1,389.1,489.4z" class="st12"/><path d="M393.1,478.7c0,1-0.8,1.8-1.8,1.8c-1,0-1.8-0.8-1.8-1.8c0-1,0.8-1.8,1.8-1.8 C392.3,476.9,393.1,477.7,393.1,478.7z" class="st12"/><path d="M382.4,470.3c0,0,0.7,9.7,10.7,6.5c0,0,5-6.2-2.4-11.3c-6.5-4.5-11.4,2.8-11.4,2.8L382.4,470.3z" class="st15"/><path d="M377.4,474.9c0,0,0.9-3.3,4.9-4.6l-3.1-2C379.3,468.3,376,469,377.4,474.9z" class="st15"/><path d="M395.6,511.8c0,0.8-0.7,1.4-1.5,1.4c-2-0.1-3.9-1.1-3.9-3.2v-7.3c0-0.5,0.6-0.7,0.9-0.4c1.2,1.2,2.5,1.8,4,2 c0.3,0,0.5,0.3,0.5,0.5V511.8z" class="st38"/><path d="M390.2,503.4c0.9,1.9,3,2.8,5.4,3.2" class="st38"/><path d="M385.1,484.2c0,0,3.6,0.1,5.9-3.3c0,0-2.2,5.2-5.5,5.7L385.1,484.2z" class="st17"/><g><polygon points="371.4 523.9 394.6 510.5 360.3 490.6 337 504.1" class="st8"/><path d="M371.4,523.9v23.8L337,527.9c0.5-5.3,0.6-18.6,0-23.8L371.4,523.9z" class="st2"/><path d="M394.6,510.5c-0.9,5.9-1,19.3,0,23.8l-23.3,13.4v-5.6V542v-4.2v-1.3v-12.6L394.6,510.5z" class="st3"/><path d="M361.7,530c0,0-16.8-7.8-22.8-6.8c0,0,1-1.1,3.8-3.1L361.7,530z" class="st4"/></g><path d="M404.3,505.7c0,0,6.8,10.6-4.7,27.1c-3.2,4.5-20.6,6-20.6,6l0-3.6c0,0,12-1,14.9-6.3 C397.3,523,394.9,502.9,404.3,505.7z" class="st12"/><path d="M376.8,541l1.8-0.4c1.4-0.3,2.6-1.9,2.5-3.5l0,0c0-1.6-1.2-2.7-2.6-2.4l-1.8,0.4c-1.4,0.3-2.6,1.9-2.5,3.5 l0,0C374.3,540.2,375.4,541.3,376.8,541z" class="st12"/><path d="M397.1,502.4l-1,17.2c0.2,1.5,12.2,1.6,12-0.6c0-0.4,1.7-20.9-2.7-26.8C401.8,487.4,397.3,494.3,397.1,502.4z" class="st39"/><path d="M396.4,514.7c0,0,5.4,2.9,12-0.3" class="st40"/><polygon points="393.9 522.1 371.4 534.5 371.4 535.6" class="st2"/></g><g id="Sjwi2p.tif"><g><path d="M376.7,503.6c-0.3-0.2-0.6-0.2-0.9-0.2c-1.2,0-2.2,0.6-3.2,1.2c-1,0.6-1.8,1.2-3,1.3c-1.9,0-3.8,0.3-5.4-1.3 c-1-1-2.4-1.4-3.9-0.8c-0.4,0.2-0.8,0.4-0.9,0.9c0,0.4,0.4,0.6,0.7,0.8c1,0.4,1.9,0.8,2.9,1.1c0.3,0.1,0.7,0.1,0.8,0.4 c0.6,1,1.4,2,1.7,3.2c0.3,0.8-0.4,1.4-0.7,2.1c-0.5,1.2,0,2,1.2,2c1.8,0,2.7-1.3,2.2-3.1c-0.1-0.4-0.4-0.8,0-1.3 c1.6-1.6,3.2-3.3,5.7-3.6c0.9-0.1,1.9-0.5,2.7-1.1C377.4,504.5,377.4,504,376.7,503.6z M361.2,504.4c0.8-0.1,1.5,0.3,2,0.9 C362.4,505.2,361.7,504.9,361.2,504.4z M366.5,513c-0.2-0.4-0.2-0.9,0-1.4C367,512.1,366.8,512.5,366.5,513z M369.3,507.3 c-0.7,0.7-1.3,1.3-2,2c-0.5-0.8-0.9-1.5-1.4-2.4c1.2,0,2.4,0,3.7,0C369.5,507.1,369.4,507.2,369.3,507.3z M374,505.1 c0.6-0.5,1.2-0.9,2.2-0.9C375.4,504.8,374.7,505,374,505.1z" class="st15"/></g></g><path d="M289.9,194.3L333,355.6c0.4,1.6,1.6,2.4,2.6,1.8l0.3-0.2c1-0.6,1.5-2.3,1.1-3.9l-6.7-25.2l31.6-18l6.7,25.2	c0.4,1.6,1.6,2.4,2.6,1.8l0.3-0.2c1-0.6,1.5-2.3,1.1-3.9l-7.2-26.8l0,0l-0.6-2.1v0l-6.9-25.6v0l-0.3-1.1l-7.7-28.6l0-0.1l0,0	l-7-26.2l-0.4-1.5l0,0l-6.9-25.6v0l-0.6-2.1l0,0l-5.7-21.4c-0.4-1.6-1.6-2.4-2.6-1.8l-0.3,0.2c-1,0.6-1.5,2.3-1.1,3.9l5.3,19.8	l-31.6,18l-5.3-19.8c-0.4-1.6-1.6-2.4-2.6-1.8l-0.3,0.2C289.9,191,289.5,192.7,289.9,194.3z M332.1,199.2l6,22.4l-31.6,18l-6-22.4	L332.1,199.2z M308,244.9l31.6-18l6,22.4l-31.6,18L308,244.9z M315.4,272.6l31.6-18l6,22.4l-31.6,18L315.4,272.6z M328.8,322.8	l-6-22.4l31.6-18l6,22.4L328.8,322.8z" class="st15"/><polygon points="225.7 408.1 225.7 397.9 221.7 395.7 221.7 405.9" class="st41"/><polygon points="263.4 371.6 270.6 375.8 225.7 397.9 221.7 395.7" class="st42"/><g><path d="M223,436.4c1.2,1.2,2,2.8,2,4.5c0,2.7-1.6,4.9-4.9,6.8c-7.5,3.8-16.3,3.8-23.7,0c-3.3-1.8-4.9-4.2-4.9-6.8 c0-2.3,1.2-4.3,3.7-6.1l0.1,4.9c-0.1,0.2-0.1,0.4-0.1,0.6c0,0.7,0.1,1.3,0.4,2c0.9,1.6,2.1,2.9,3.7,3.8c3,1.7,6.4,2.5,9.8,2.3 c3.5,0.1,6.9-0.7,10-2.3c1.2-0.6,2.2-1.6,3-2.7c0.7-0.9,1.1-2,1.1-3.1L223,436.4L223,436.4z" class="st43"/><path d="M223,433.2c-0.2,0.9-0.5,1.7-1,2.5c-0.9,1.1-2,2-3.2,2.7c-0.9,0.5-1.8,0.9-2.8,1.2c-2.3,0.7-4.6,1-7,1 c-2.6,0.1-5.1-0.3-7.5-1.2c-0.8-0.3-1.6-0.7-2.3-1.1c-1.5-0.8-2.8-2-3.7-3.4c-0.3-0.6-0.5-1.4-0.5-2.1v-0.4 c0.1-2.1,1.6-3.9,4.2-5.5c3-1.6,6.4-2.5,9.8-2.3c3.5-0.1,6.9,0.7,10,2.3c2.7,1.6,4.1,3.6,4.1,5.8C223.2,432.7,223,433,223,433.2 L223,433.2z" class="st44"/><path d="M223,436.4v3.9c0,1.1-0.4,2.2-1.1,3.1c-0.8,1.1-1.8,2-3,2.7c-3,1.7-6.5,2.5-10,2.3c-3.4,0.1-6.8-0.7-9.8-2.3 c-1.6-0.9-2.9-2.2-3.7-3.8c-0.3-0.6-0.4-1.3-0.4-2c0-0.2,0-0.4,0.1-0.6l-0.1-4.9v-2.5c0,0.7,0.2,1.4,0.5,2.1 c0.8,1.5,2.1,2.7,3.7,3.4c0.7,0.5,1.5,0.9,2.3,1.1c2.4,0.9,4.9,1.3,7.5,1.2c2.4,0,4.7-0.3,7-1c1-0.3,1.9-0.7,2.8-1.2 c1.2-0.7,2.3-1.6,3.2-2.7c0.5-0.7,0.8-1.6,1-2.5v3.6L223,436.4z" class="st45"/></g><g><path d="M226,457.1v3.4c0,0.9,0.2,1.7,0.6,2.5c0.9,1.4,2.1,2.6,3.6,3.4c6.1,3.3,13.5,3.3,19.7,0 c1.6-0.8,2.9-2.1,3.7-3.7c0.3-0.6,0.4-1.3,0.4-2v-2.8c1.6,1.2,2.5,3.2,2.5,5.2c0,2.7-1.6,4.9-4.9,6.8c-7.5,3.8-16.3,3.8-23.7,0 c-3.3-1.8-4.9-4.2-4.9-6.8C222.7,460.6,224,458.3,226,457.1L226,457.1z" class="st43"/><path d="M225.9,452.6v-0.4c0.1-2.1,1.5-3.9,4.2-5.4c6.2-3.3,13.6-3.3,19.8,0c2.7,1.6,4.1,3.4,4.1,5.7v0.7 c-0.2,1.2-0.8,2.3-1.6,3.2c-0.8,0.7-1.6,1.3-2.5,1.8c-0.5,0.2-1,0.6-1.5,0.9c-2.7,1-5.5,1.5-8.4,1.5c-2.7,0-5.5-0.5-8-1.5 c-0.6-0.3-1.3-0.6-1.8-1c-1-0.6-1.9-1.3-2.7-2.2C226.6,455.1,226,453.9,225.9,452.6L225.9,452.6z" class="st46"/><path id="Path_66_2_" d="M225.9,452.6c0,1.3,0.5,2.5,1.5,3.4c0.8,0.8,1.7,1.6,2.7,2.2c0.6,0.4,1.2,0.6,1.8,1 c2.5,1,5.3,1.5,8,1.5c2.9,0.1,5.7-0.4,8.4-1.5c0.5-0.2,1-0.5,1.5-0.9c0.9-0.5,1.7-1.1,2.5-1.8c0.9-0.8,1.5-2,1.6-3.2v7.3 c0,0.7-0.1,1.3-0.4,2c-0.8,1.6-2.1,2.9-3.7,3.7c-3,1.7-6.4,2.5-9.8,2.5c-3.4,0.1-6.8-0.7-9.8-2.5c-1.5-0.8-2.7-2-3.6-3.4 c-0.4-0.8-0.6-1.6-0.6-2.5L225.9,452.6L225.9,452.6z" class="st47"/></g><g><path id="Path_33_2_" d="M285.6,476.1c-0.1,0.9-0.5,1.7-1,2.5c-0.8,1.1-1.9,2-3.1,2.6l-1.5,0.7 c-2.7,1-5.5,1.5-8.4,1.5c-3.1,0.1-6.2-0.6-9-2c-0.3-0.1-0.6-0.2-0.9-0.4c-1.1-0.7-2.1-1.5-3-2.5c-0.7-0.9-1.2-1.9-1.2-3.1v-0.4 c0.1-2.1,1.5-3.9,4.1-5.5c3-1.6,6.4-2.5,9.8-2.3c3.5-0.1,6.9,0.8,10,2.5c2.7,1.6,4.1,3.4,4.1,5.8 C285.7,475.6,285.6,475.8,285.6,476.1z" class="st48"/><path id="Path_34_2_" d="M285.6,479.2v4.2c0,0.9-0.2,1.7-0.6,2.5c-0.9,1.4-2.1,2.5-3.6,3.2c-3,1.6-6.4,2.5-9.8,2.3 c-3.4,0.1-6.8-0.7-9.8-2.3c-2.2-1.4-3.6-2.8-3.9-4.7c-0.1-0.4-0.1-0.8-0.1-1.2v-7.7c0,1.1,0.5,2.2,1.2,3.1c0.8,1,1.8,1.8,3,2.5 c0.2,0.1,0.6,0.2,0.9,0.4c2.8,1.4,5.9,2.1,9,2c2.9,0.1,5.7-0.4,8.4-1.5l1.5-0.7c1.2-0.7,2.2-1.5,3.1-2.6c0.5-0.7,0.8-1.6,1-2.5 L285.6,479.2L285.6,479.2z" class="st49"/><path d="M285.6,479.2v4.2c0,0.9-0.2,1.7-0.6,2.5c-0.9,1.3-2.1,2.4-3.6,3.2c-6.2,3.1-13.5,3.1-19.7,0 c-1.9-1-3.3-2.6-3.9-4.7c-0.1-0.4-0.1-0.8-0.1-1.2l0-3.2c0,0-1.4,1.2-1.9,2.1c-0.3,0.7-0.8,1.9-0.8,2.7c0,2.6,1.6,4.9,4.9,6.8 c7.5,3.8,16.3,3.8,23.7,0c3.3-1.8,4.9-4.1,4.9-6.8C288.5,482.6,287.4,480.5,285.6,479.2z" class="st43"/></g><polygon points="50.4 579.7 50.4 579.7 70.5 567.9 70.5 561.2 80.5 567.1 50.4 584.4 20.1 566.8 30.6 560.8 30.6 568" class="st43"/><polygon points="50.6 557.2 30.6 545.4 50.4 533.7 59 538.8 70.4 545.4" class="st50"/><polygon points="70.5 561.4 70.5 568 50.6 579.8 50.6 579.8 50.6 557.3 70.5 545.6" class="st51"/><path id="Path_50_2_" d="M30.6,555.2v-9.6l19.9,11.8v22.5L30.8,568v-12.8H30.6z" class="st52"/></svg>