<?xml version="1.0" encoding="utf-8"?>
<!-- Generator: Adobe Illustrator 24.3.0, SVG Export Plug-In . SVG Version: 6.00 Build 0)  -->
<svg version="1.1" id="Layer_1" xmlns="http://www.w3.org/2000/svg" xmlns:xlink="http://www.w3.org/1999/xlink" x="0px" y="0px"
	 viewBox="0 0 56.2 51.3" style="enable-background:new 0 0 56.2 51.3;" xml:space="preserve">
<style type="text/css">
	.st0{fill:none;stroke:#707071;stroke-width:2;stroke-miterlimit:10;}
	.st1{fill:none;stroke:#707071;stroke-width:2;stroke-linecap:round;stroke-linejoin:round;}
	.st2{fill:none;stroke:#707071;stroke-width:2;stroke-linecap:round;stroke-miterlimit:10;}
</style>
<g id="Group_2868" transform="translate(1068.674 689.223)">
	<path id="Path_2059" class="st0" d="M-157.4,80.2l9-9l9,9"/>
	<line id="Line_1070" class="st0" x1="-155.4" y1="61.2" x2="-169.4" y2="75.2"/>
	<path id="Path_2060" class="st0" d="M-164.4,48.2h-1c-2.2,0-4,1.8-4,4v24c0,2.2,1.8,4,4,4h34c2.2,0,4-1.8,4-4v-24c0-2.2-1.8-4-4-4
		h-1"/>
	<path id="Path_2061" class="st0" d="M-127.8,50.5l-12.6,12.6l13,13"/>
	<path id="Path_2062" class="st0" d="M-135.4,43.2c0,9.5-13,15.3-13,24c0-8.7-13-14.5-13-24c0-7.2,5.8-13,13-13
		S-135.4,36-135.4,43.2z"/>
	<circle id="Ellipse_415" class="st0" cx="-148.4" cy="43.2" r="4"/>
</g>
<g id="Group_2872" transform="translate(972.435 -97.264)">
	<path id="Path_2070" class="st1" d="M-935,134v11.5h-35v-41.3h5.3"/>
	<path id="Path_2071" class="st1" d="M-932.1,123.4v-23.3h-32.4v23.7c0,0-0.2,10.1,9.9,10.1c9.4,0,10.7-8.1,10.8-10.2h25.8
		c0,0-0.5,10.1-9,10.1s-27.2,0.2-27.2,0.2"/>
	<line id="Line_1088" class="st2" x1="-959.4" y1="108.5" x2="-937.3" y2="108.5"/>
	<line id="Line_1089" class="st2" x1="-959.4" y1="118.2" x2="-937.5" y2="118.2"/>
	<line id="Line_1090" class="st2" x1="-959.4" y1="126.1" x2="-949.5" y2="126.1"/>
	<line id="Line_1091" class="st2" x1="-965.2" y1="139.5" x2="-940.6" y2="139.5"/>
</g>
</svg>
