<svg xmlns="http://www.w3.org/2000/svg" width="66.792" height="66.45" viewBox="0 0 66.792 66.45"><g id="Group_125" data-name="Group 125" transform="translate(-87.039 -139.529)"><g id="Group_636" data-name="Group 636"><circle id="Ellipse_3" cx="29.422" cy="29.422" r="29.422" fill="#e4e5e5" data-name="Ellipse 3" transform="translate(87.039 146.535)"/></g><path id="Path_379" fill="#fff" stroke="#124070" stroke-miterlimit="10" stroke-width="2" d="M141.993,162.751a3.6,3.6,0,0,0,.805-2.918,3.686,3.686,0,0,0-3.667-2.993h-20.2a1.2,1.2,0,0,0-.846.35l-5.133,5.134-5.134-5.134a1.191,1.191,0,0,0-1.234-.286l-3.086,1.062a5.391,5.391,0,0,0-3.7,5.128v16.467a5.991,5.991,0,0,0,4.784,5.859v16.862a2.393,2.393,0,0,0,2.391,2.391H118.93a2.394,2.394,0,0,0,2.392-2.391V166.406a2.393,2.393,0,0,1,2.391-2.391h15.546A3.586,3.586,0,0,0,141.993,162.751Z" data-name="Path 379"/><line id="Line_69" y1="17.367" fill="none" stroke="#124070" stroke-linecap="round" stroke-miterlimit="10" stroke-width="2" data-name="Line 69" transform="translate(104.58 168.053)"/><line id="Line_70" y1="20.691" fill="none" stroke="#124070" stroke-linecap="round" stroke-miterlimit="10" stroke-width="2" data-name="Line 70" transform="translate(112.478 183.571)"/><path id="Path_380" fill="#fff" stroke="#124070" stroke-miterlimit="10" stroke-width="2" d="M112.007,154.8a7.534,7.534,0,0,0,1.145.089,7.163,7.163,0,1,0-1.145-.089Z" data-name="Path 380"/><path id="Path_381" fill="#7aacd4" stroke="#124070" stroke-linecap="round" stroke-linejoin="round" stroke-width="2" d="M146.852,188.1a5.478,5.478,0,0,1,2.466.664,2.4,2.4,0,0,0,2.367-.069,2.363,2.363,0,0,0,1.146-2.037v-5.591a2.392,2.392,0,0,0-2.392-2.391h-6.8a7.959,7.959,0,0,0,.937-3.588c0-2.872-1.686-5.37-4.9-5.37-3.463,0-4.9,2.8-4.9,5.37a7.855,7.855,0,0,0,.949,3.588h-6.813a2.394,2.394,0,0,0-2.392,2.391v21.526a2.394,2.394,0,0,0,2.392,2.391h21.525a2.394,2.394,0,0,0,2.392-2.391V197.68a2.361,2.361,0,0,0-1.146-2.037,2.387,2.387,0,0,0-2.366-.069,5.485,5.485,0,0,1-2.467.664,4.154,4.154,0,0,1-4.129-4.166A4,4,0,0,1,146.852,188.1Z" data-name="Path 381"/></g></svg>