<svg xmlns="http://www.w3.org/2000/svg" width="63.38" height="63.38" viewBox="0 0 63.38 63.38">
  <g id="Group_145" data-name="Group 145" transform="translate(-0.003)">
    <g id="Group_112_1_" transform="translate(504.783 328.434)">
      <g id="Group_636_1_" transform="translate(-503.87 -328.434)">
        <circle id="Ellipse_3_1_" cx="31.69" cy="31.69" r="31.69" transform="translate(-0.91 0)" fill="#e9eaea"/>
      </g>
    </g>
    <path id="Path_403" data-name="Path 403" d="M54.46,15.96h4.19s2.1.02,2.1,3.09-.06,34.2-.06,34.2-1.17,2.56-3.09,2.56a2.864,2.864,0,0,1-3.15-3.15C54.45,50.57,54.46,15.96,54.46,15.96Z" fill="#92b9dc" stroke="#2a5183" stroke-linejoin="round" stroke-width="2"/>
    <g id="Group_143" data-name="Group 143">
      <path id="Path_404" data-name="Path 404" d="M57.61,55.8a3.15,3.15,0,0,0,3.15-3.15V18.05a2.1,2.1,0,0,0-2.1-2.1H54.47" fill="none" stroke="#2a5183" stroke-linecap="round" stroke-linejoin="round" stroke-width="2"/>
      <path id="Path_405" data-name="Path 405" d="M4.13,20.15V50.56A5.239,5.239,0,0,0,9.37,55.8H57.6a3.15,3.15,0,0,1-3.15-3.15V13.85a2.1,2.1,0,0,0-2.1-2.1H39.78l-4.19,6.29H6.23A2.128,2.128,0,0,0,4.13,20.15Z" fill="#fff" stroke="#2a5183" stroke-linecap="round" stroke-linejoin="round" stroke-width="2"/>
    </g>
    <g id="Group_144" data-name="Group 144">
      <rect id="Rectangle_103" data-name="Rectangle 103" width="4.19" height="4.19" transform="translate(25.73 22.25)" fill="#92b9dc" stroke="#2a5183" stroke-linejoin="round" stroke-width="2"/>
      <rect id="Rectangle_104" data-name="Rectangle 104" width="4.19" height="4.19" transform="translate(25.73 47.42)" fill="#92b9dc" stroke="#2a5183" stroke-linejoin="round" stroke-width="2"/>
      <rect id="Rectangle_105" data-name="Rectangle 105" width="4.19" height="4.19" transform="translate(11.05 34.83)" fill="#92b9dc" stroke="#2a5183" stroke-linejoin="round" stroke-width="2"/>
      <path id="Path_406" data-name="Path 406" d="M48.8,43.07H40.72l-5.38,5.38V29.6Z" fill="#92b9dc" stroke="#2a5183" stroke-linejoin="round" stroke-width="2"/>
      <path id="Path_407" data-name="Path 407" d="M25.73,24.35A12.576,12.576,0,0,0,13.34,34.84" fill="none" stroke="#2a5183" stroke-linejoin="round" stroke-width="2"/>
      <path id="Path_408" data-name="Path 408" d="M13.33,39.03A12.576,12.576,0,0,0,25.72,49.52" fill="none" stroke="#2a5183" stroke-linejoin="round" stroke-width="2"/>
    </g>
  </g>
</svg>
