<?xml version="1.0" encoding="utf-8"?>
<!-- Generator: Adobe Illustrator 24.3.0, SVG Export Plug-In . SVG Version: 6.00 Build 0)  -->
<svg version="1.1" id="Layer_1" xmlns="http://www.w3.org/2000/svg" xmlns:xlink="http://www.w3.org/1999/xlink" x="0px" y="0px"
	 viewBox="0 0 44.1 51.3" style="enable-background:new 0 0 44.1 51.3;" xml:space="preserve">
<style type="text/css">
	.st0{fill:none;stroke:#707071;stroke-width:2;stroke-miterlimit:10;}
	.st1{fill:none;stroke:#707071;stroke-width:2;stroke-linejoin:round;}
	.st2{fill:none;stroke:#707071;stroke-width:2;stroke-linecap:round;stroke-miterlimit:10;}
</style>
<g id="Group_2868" transform="translate(1068.674 689.223)">
	<path id="Path_2059" class="st0" d="M-155.5,80.2l9-9l9,9"/>
	<line id="Line_1070" class="st0" x1="-153.5" y1="61.2" x2="-167.5" y2="75.2"/>
	<path id="Path_2060" class="st0" d="M-162.5,48.2h-1c-2.2,0-4,1.8-4,4v24c0,2.2,1.8,4,4,4h34c2.2,0,4-1.8,4-4v-24c0-2.2-1.8-4-4-4
		h-1"/>
	<path id="Path_2061" class="st0" d="M-125.9,50.5l-12.6,12.6l13,13"/>
	<path id="Path_2062" class="st0" d="M-133.5,43.2c0,9.5-13,15.3-13,24c0-8.7-13-14.5-13-24c0-7.2,5.8-13,13-13
		S-133.5,36-133.5,43.2z"/>
	<circle id="Ellipse_415" class="st0" cx="-146.5" cy="43.2" r="4"/>
</g>
<g id="Group_2869" transform="translate(268.595 625.463)">
	<path id="Path_2063" class="st1" d="M-85.6-517.9c-0.2,2.6-2.4,4.6-5,4.5h-17.7c-0.2,0-0.3,0-0.5,0.1l-14,6.4l2.5-5.7
		c0.3-0.6,0-1.2-0.5-1.6c-1.4-0.8-2.2-2.2-2.3-3.7v-16.4c0.2-2.6,2.4-4.6,5-4.5h27.4c2.6-0.1,4.9,1.9,5,4.5L-85.6-517.9L-85.6-517.9
		z"/>
	<line id="Line_1071" class="st2" x1="-114.7" y1="-530" x2="-92" y2="-530"/>
	<line id="Line_1072" class="st2" x1="-114.6" y1="-523.7" x2="-92" y2="-523.7"/>
	<path id="Path_2064" class="st1" d="M-134.9-520l-1.2-0.5c-3.6-1.5-5.3-5.6-3.8-9.2l1.7-4.1c1.1-2.6,3.7-4.4,6.5-4.4
		c1.2,0.1,2.4,0.4,3.5,0.9l0.4,0.2L-134.9-520L-134.9-520z"/>
	<path id="Path_2065" class="st1" d="M-92.9-500.9c-0.6,1.8-1.9,3.3-3.5,4.1l-4,2c-0.5,0.2-1,0.4-1.5,0.6c-0.5,0.1-1.1,0.2-1.6,0.2
		c-2.7,0-5.1-1.5-6.3-3.9l-0.8-1.9l16.6-8.3l0.8,1.9C-92.5-504.7-92.3-502.7-92.9-500.9L-92.9-500.9z"/>
	<path id="Path_2066" class="st2" d="M-95.1-539.3c-10.1-8.8-25.1-8.3-34.7,1"/>
	<path id="Path_2067" class="st2" d="M-93.2-506.6c2.2-2.1,4-4.6,5.3-7.4"/>
</g>
<g id="Group_2868_1_" transform="translate(-176.326 -7.201)">
	<path id="Path_2059_1_" class="st0" d="M189.3,57.3l8.8-8.8l8.8,8.8"/>
	<line id="Line_1070_1_" class="st0" x1="191.3" y1="38.7" x2="177.6" y2="52.4"/>
	<path id="Path_2060_1_" class="st0" d="M182.5,26h-1c-2.2,0-3.9,1.8-3.9,3.9v23.5c0,2.2,1.8,3.9,3.9,3.9h33.3
		c2.2,0,3.9-1.8,3.9-3.9V29.9c0-2.2-1.8-3.9-3.9-3.9h-1"/>
	<path id="Path_2061_1_" class="st0" d="M218.3,28.3L206,40.7l12.7,12.7"/>
	<path id="Path_2062_1_" class="st0" d="M210.9,21.1c0,9.3-12.7,15-12.7,23.5c0-8.5-12.7-14.2-12.7-23.5c0-7,5.7-12.7,12.7-12.7
		C205.2,8.4,210.9,14.1,210.9,21.1z"/>
	<circle id="Ellipse_415_1_" class="st0" cx="198.1" cy="21.1" r="3.9"/>
</g>
</svg>
