<svg xmlns="http://www.w3.org/2000/svg" width="62.475" height="61.385" viewBox="0 0 62.475 61.385"><g id="Group_127" data-name="Group 127" transform="translate(-361.408 -143.057)"><g id="Group_636" data-name="Group 636"><circle id="Ellipse_3" cx="29.422" cy="29.422" r="29.422" fill="#e4e5e5" data-name="Ellipse 3" transform="translate(361.408 143.057)"/></g><g id="Group_126" data-name="Group 126"><path id="Path_382" fill="#fff" stroke="#124070" stroke-linecap="round" stroke-linejoin="round" stroke-width="2" d="M381.1,192.611v6.433a4.4,4.4,0,0,0,4.4,4.4h32.984a4.4,4.4,0,0,0,4.4-4.4V161.285a4.4,4.4,0,0,0-1.288-3.109l-8.419-8.419a4.4,4.4,0,0,0-3.109-1.288H385.5a4.4,4.4,0,0,0-4.4,4.4v39.744Z" data-name="Path 382"/><rect id="Rectangle_84" width="32.984" height="28.586" fill="#fff" stroke="#124070" stroke-linejoin="round" stroke-width="2" data-name="Rectangle 84" rx="3.298" transform="translate(376.706 163.862)"/><line id="Line_71" x2="32.984" fill="none" stroke="#124070" stroke-linejoin="round" stroke-width="2" data-name="Line 71" transform="translate(376.706 172.657)"/><line id="Line_72" x2="20.872" fill="none" stroke="#124070" stroke-linecap="round" stroke-linejoin="round" stroke-width="2" data-name="Line 72" transform="translate(382.433 177.976)"/><path id="Path_383" fill="none" stroke="#124070" stroke-linecap="round" stroke-linejoin="round" stroke-width="2" d="M409.689,152.867v5.5a3.3,3.3,0,0,0,3.3,3.3h5.5" data-name="Path 383"/></g><path id="Path_384" fill="#7aacd4" d="M377.8,171.536h30.785v-4.4a2.2,2.2,0,0,0-2.2-2.2H380a2.2,2.2,0,0,0-2.2,2.2Z" data-name="Path 384"/><circle id="Ellipse_53" cx=".55" cy=".55" r=".55" fill="none" stroke="#124070" stroke-linejoin="round" stroke-width="1" data-name="Ellipse 53" transform="translate(380.408 167.743)"/><circle id="Ellipse_54" cx=".55" cy=".55" r=".55" fill="none" stroke="#124070" stroke-linejoin="round" stroke-width="1" data-name="Ellipse 54" transform="translate(384.806 167.743)"/><circle id="Ellipse_55" cx=".55" cy=".55" r=".55" fill="none" stroke="#124070" stroke-linejoin="round" stroke-width="1" data-name="Ellipse 55" transform="translate(389.203 167.743)"/><line id="Line_73" x2="20.872" fill="none" stroke="#124070" stroke-linecap="round" stroke-linejoin="round" stroke-width="2" data-name="Line 73" transform="translate(382.433 182.642)"/><line id="Line_74" x2="20.872" fill="none" stroke="#124070" stroke-linecap="round" stroke-linejoin="round" stroke-width="2" data-name="Line 74" transform="translate(382.433 187.308)"/></g></svg>