<svg xmlns="http://www.w3.org/2000/svg" id="Group_102" width="78.363" height="70.967" data-name="Group 102" viewBox="0 0 78.363 70.967"><circle id="Ellipse_110" cx="30.254" cy="30.254" r="30.254" fill="#e9eaeb" data-name="Ellipse 110" transform="translate(0 0)"/><rect id="Rectangle_27" width="44.126" height="44.238" fill="#fff" data-name="Rectangle 27" transform="translate(16.057 25.909)"/><g id="Group_64" data-name="Group 64" transform="translate(16.057 19.136)"><path id="Path_312" fill="#91b9dc" stroke="#2a5082" stroke-miterlimit="10" stroke-width="2" d="M44.874,56.236l-5.863,1.006,1.006-5.863L67.142,23.77a1.512,1.512,0,0,1,2.117.174l2.567,2.567A1.512,1.512,0,0,1,72,28.627Z" data-name="Path 312" transform="translate(-11.052 -17.401)"/><line id="Line_5" x2="4.857" y2="4.857" fill="none" stroke="#2a5082" stroke-miterlimit="10" stroke-width="2" data-name="Line 5" transform="translate(52.205 10.255)"/><path id="Path_313" fill="none" stroke="#2a5082" stroke-linejoin="round" stroke-width="2" d="M58.271,45.856V68.132H14.309V24.17H32.835" data-name="Path 313" transform="translate(-14.309 -17.301)"/><path id="Path_314" fill="none" stroke="#2a5082" stroke-linejoin="round" stroke-width="2" d="M36.431,24.17H55.354V35.863" data-name="Path 314" transform="translate(-11.392 -17.301)"/><circle id="Ellipse_31" cx="4.121" cy="4.121" r="4.121" fill="#fff" stroke="#2a5082" stroke-miterlimit="10" stroke-width="2" data-name="Ellipse 31" transform="translate(17.86)"/><line id="Line_6" y2="4.121" fill="none" stroke="#2a5082" stroke-linejoin="round" stroke-width="2" data-name="Line 6" transform="translate(21.981 9.617)"/><line id="Line_7" x2="26.103" fill="none" stroke="#2a5082" stroke-miterlimit="10" stroke-width="2" data-name="Line 7" transform="translate(9.617 19.233)"/><line id="Line_8" x2="20.607" fill="none" stroke="#2a5082" stroke-miterlimit="10" stroke-width="2" data-name="Line 8" transform="translate(9.617 26.103)"/><line id="Line_9" x2="16.486" fill="none" stroke="#2a5082" stroke-miterlimit="10" stroke-width="2" data-name="Line 9" transform="translate(9.617 32.972)"/><line id="Line_10" x2="15.112" fill="none" stroke="#2a5082" stroke-miterlimit="10" stroke-width="2" data-name="Line 10" transform="translate(9.617 39.841)"/></g></svg>