<?xml version="1.0" encoding="utf-8"?>
<!-- Generator: Adobe Illustrator 24.3.0, SVG Export Plug-In . SVG Version: 6.00 Build 0)  -->
<svg version="1.1" id="Layer_1" xmlns="http://www.w3.org/2000/svg" xmlns:xlink="http://www.w3.org/1999/xlink" x="0px" y="0px"
	 viewBox="0 0 53.3 51.3" style="enable-background:new 0 0 53.3 51.3;" xml:space="preserve">
<style type="text/css">
	.st0{fill:none;stroke:#707071;stroke-width:2;stroke-miterlimit:10;}
	.st1{fill:none;stroke:#707071;stroke-width:2;stroke-linecap:round;stroke-miterlimit:10;}
</style>
<g id="Group_2868" transform="translate(1068.674 689.223)">
	<path id="Path_2059" class="st0" d="M-157.4,80.2l9-9l9,9"/>
	<line id="Line_1070" class="st0" x1="-155.4" y1="61.2" x2="-169.4" y2="75.2"/>
	<path id="Path_2060" class="st0" d="M-164.4,48.2h-1c-2.2,0-4,1.8-4,4v24c0,2.2,1.8,4,4,4h34c2.2,0,4-1.8,4-4v-24c0-2.2-1.8-4-4-4
		h-1"/>
	<path id="Path_2061" class="st0" d="M-127.8,50.5l-12.6,12.6l13,13"/>
	<path id="Path_2062" class="st0" d="M-135.4,43.2c0,9.5-13,15.3-13,24c0-8.7-13-14.5-13-24c0-7.2,5.8-13,13-13
		S-135.4,36-135.4,43.2z"/>
	<circle id="Ellipse_415" class="st0" cx="-148.4" cy="43.2" r="4"/>
</g>
<g id="Group_2871" transform="translate(-101.745 -101.993)">
	<rect id="Rectangle_2364" x="138.3" y="121.9" class="st1" width="10.3" height="29.5"/>
	<rect id="Rectangle_2365" x="128.2" y="135.6" class="st1" width="10.1" height="15.9"/>
	<rect id="Rectangle_2366" x="117.8" y="130.1" class="st1" width="10.4" height="21.3"/>
	<rect id="Rectangle_2367" x="108.2" y="141.8" class="st1" width="9.6" height="9.6"/>
	<line id="Line_1087" class="st1" x1="103.2" y1="151.3" x2="152.8" y2="151.3"/>
	<path id="Path_2068" class="st1" d="M143.1,104.5l-14.8,14.8l-5.7-5.7L107.3,129"/>
	<path id="Path_2069" class="st1" d="M133.5,104h10.4v10.4"/>
</g>
</svg>
