<svg xmlns="http://www.w3.org/2000/svg" width="61.799" height="55.568" viewBox="0 0 61.799 55.568"><g id="Group_119" data-name="Group 119" transform="translate(814.273 249.065)"><g id="Group_636" data-name="Group 636" transform="translate(-814.273 -249.065)"><circle id="Ellipse_3" cx="26.402" cy="26.402" r="26.402" fill="#e9eaeb" data-name="Ellipse 3"/></g><rect id="Rectangle_6" width="50.809" height="39.654" fill="#fff" stroke="#2a5082" stroke-linejoin="round" stroke-width="2" data-name="Rectangle 6" rx="3.054" transform="translate(-804.283 -234.152)"/><path id="Rectangle_81" fill="#91b9dc" d="M2.1,0H46.573a2.1,2.1,0,0,1,2.1,2.1V7.335a0,0,0,0,1,0,0H0a0,0,0,0,1,0,0V2.1A2.1,2.1,0,0,1,2.1,0Z" data-name="Rectangle 81" transform="translate(-803.192 -233.101)"/><line id="Line_2" x1="50.809" fill="none" stroke="#2a5082" stroke-linejoin="round" stroke-width="2" data-name="Line 2" transform="translate(-804.283 -224.709)"/><line id="Line_63" y2="30.076" fill="none" stroke="#2a5082" stroke-miterlimit="10" stroke-width="2" data-name="Line 63" transform="translate(-787.157 -224.488)"/><line id="Line_64" y2="30.076" fill="none" stroke="#2a5082" stroke-miterlimit="10" stroke-width="2" data-name="Line 64" transform="translate(-770.82 -224.55)"/><line id="Line_65" x1="49.526" fill="none" stroke="#2a5082" stroke-miterlimit="10" stroke-width="2" data-name="Line 65" transform="translate(-803.575 -214.298)"/><line id="Line_66" x1="49.526" fill="none" stroke="#2a5082" stroke-miterlimit="10" stroke-width="2" data-name="Line 66" transform="translate(-803.473 -204.108)"/></g></svg>