<svg xmlns="http://www.w3.org/2000/svg" width="57.498" height="64.601" viewBox="0 0 57.498 64.601"><g id="Group_121" data-name="Group 121" transform="translate(729.317 233.528)"><g id="Group_636" data-name="Group 636" transform="translate(-729.317 -233.528)"><circle id="Ellipse_3" cx="28.588" cy="28.588" r="28.588" fill="#e9eaeb" data-name="Ellipse 3"/></g><g id="Group_120" data-name="Group 120" transform="translate(-727.411 -220.15)"><path id="Path_358" fill="#fff" stroke="#2a5082" stroke-linejoin="round" stroke-width="2" d="M-706.27-202.311l-14.8,14.8a5.4,5.4,0,0,0,0,7.642,5.406,5.406,0,0,0,7.643,0l14.8-14.794" data-name="Path 358" transform="translate(729.198 228.514)"/><path id="Path_359" fill="#fff" stroke="#2a5082" stroke-linejoin="round" stroke-width="2" d="M-699.367-199.964l10.372-10.372h3.276l5.459-7.643-3.276-3.275-7.643,5.459v3.275l-10.372,10.372" data-name="Path 359" transform="translate(734.851 223.438)"/><line id="Line_67" x1="14.74" y2="14.74" fill="none" stroke="#2a5082" stroke-linecap="round" stroke-linejoin="round" stroke-width="2" data-name="Line 67" transform="translate(12.01 30.025)"/><path id="Path_360" fill="#fff" stroke="#2a5082" stroke-linejoin="round" stroke-width="2" d="M-714.9-205.862l28.989,28.988a5.406,5.406,0,0,0,7.643,0,5.4,5.4,0,0,0,0-7.642l-28.989-28.989" data-name="Path 360" transform="translate(731.275 225.515)"/><path id="Path_361" fill="#91b9dc" stroke="#2a5082" stroke-linejoin="round" stroke-width="2" d="M-696.151-222.977l2.184,2.184-25.112,25.112-8.735-8.735,18.561-18.561Z" data-name="Path 361" transform="translate(727.814 222.977)"/></g></g></svg>