<?xml version="1.0" encoding="utf-8"?>
<!-- Generator: Adobe Illustrator 24.3.0, SVG Export Plug-In . SVG Version: 6.00 Build 0)  -->
<svg version="1.1" id="Layer_1" xmlns="http://www.w3.org/2000/svg" xmlns:xlink="http://www.w3.org/1999/xlink" x="0px" y="0px"
	 viewBox="0 0 61.4 51.3" style="enable-background:new 0 0 61.4 51.3;" xml:space="preserve">
<style type="text/css">
	.st0{fill:none;stroke:#707071;stroke-width:2;stroke-miterlimit:10;}
	.st1{fill:none;stroke:#707071;stroke-width:2;stroke-linecap:round;stroke-linejoin:round;stroke-miterlimit:10;}
</style>
<g id="Group_2868" transform="translate(1068.674 689.223)">
	<path id="Path_2059" class="st0" d="M-157.4,80.2l9-9l9,9"/>
	<line id="Line_1070" class="st0" x1="-155.4" y1="61.2" x2="-169.4" y2="75.2"/>
	<path id="Path_2060" class="st0" d="M-164.4,48.2h-1c-2.2,0-4,1.8-4,4v24c0,2.2,1.8,4,4,4h34c2.2,0,4-1.8,4-4v-24c0-2.2-1.8-4-4-4
		h-1"/>
	<path id="Path_2061" class="st0" d="M-127.8,50.5l-12.6,12.6l13,13"/>
	<path id="Path_2062" class="st0" d="M-135.4,43.2c0,9.5-13,15.3-13,24c0-8.7-13-14.5-13-24c0-7.2,5.8-13,13-13
		S-135.4,36-135.4,43.2z"/>
	<circle id="Ellipse_415" class="st0" cx="-148.4" cy="43.2" r="4"/>
</g>
<g id="Group_110" transform="translate(-91.4 690.018)">
	<g id="labels">
		<g id="Group_108">
			<path id="Path_331" class="st1" d="M143-684.9c2.4,0,4.5,1.9,4.6,4.3v28.7H97.4v-28.6c-0.1-2.2,1.5-4.2,3.7-4.5H143z"/>
			<path id="Rectangle_743" class="st1" d="M92.7-651.8h58.6v0.8c0,3.8-3,6.9-6.8,6.9c0,0,0,0,0,0h-44.3
				C96.1-644.2,92.7-647.6,92.7-651.8z"/>
			<line id="Line_245" class="st1" x1="118.3" y1="-648" x2="128.7" y2="-648"/>
			<path id="Path_332" class="st1" d="M101.2-654.6V-681h42.6v26.5"/>
		</g>
	</g>
	<g id="icons">
		<path id="Path_333" class="st1" d="M120.1-670.9v9.4l7.8-4.7L120.1-670.9z"/>
	</g>
</g>
</svg>
