<svg xmlns="http://www.w3.org/2000/svg" xmlns:xlink="http://www.w3.org/1999/xlink" id="Layer_1" x="0" y="0" enable-background="new 0 0 287.7 288" version="1.1" viewBox="0 0 287.7 288" xml:space="preserve"><style type="text/css"/><path d="M144.2,0.3C65,0.3,0.6,64.7,0.6,143.9S65,287.5,144.2,287.5s143.6-64.4,143.6-143.6S223.4,0.3,144.2,0.3z M24.5,143.9	c0-28.1,9.8-54,26.1-74.5l168,168c-20.4,16.3-46.3,26.1-74.5,26.1C78.2,263.5,24.5,209.9,24.5,143.9z M235.8,220.7L67.4,52.3	c20.8-17.5,47.6-28,76.8-28c66,0,119.6,53.7,119.6,119.6C263.8,173.1,253.3,199.9,235.8,220.7z"/></svg>