<svg xmlns="http://www.w3.org/2000/svg" xmlns:xlink="http://www.w3.org/1999/xlink" id="Layer_1" x="0" y="0" enable-background="new 0 0 390.9 288" version="1.1" viewBox="0 0 390.9 288" xml:space="preserve"><style type="text/css"/><g><path d="M300.7,267.7c16.2-2.6,27.6-15.3,25.4-28.2l-58.5,9.5C269.8,262,284.6,270.3,300.7,267.7z"/></g><g><path d="M78.7,244.8c14.9,6.8,31.4,2.6,36.8-9.3l-54-24.6C56.1,222.8,63.8,238,78.7,244.8z"/></g><g><g><path d="M389.8,204.6l-3.8-23.4c-0.8-4.7-4-8.7-8.5-10.4c-0.5-0.2-1.2-0.4-1.8-0.7c-5.6-2.1-14.9-5.5-18.3-12.3 C349,141,346.6,126,342.3,98.7c-0.6-3.8-1.3-7.9-2-12.2c-6.6-40.7-41.4-69.9-81.1-71l0,0c-15.6-0.2-28,3.7-33.6,5.9l0,0 c-4.9,2-9.6,4.4-14,7.1c-1.7-1.4-3.4-2.8-5.2-4.1l0,0c-14.3-9-26.3-12.6-31.2-13.8v0.1c-38-8.2-78.1,10.8-94.8,47.6 c-2,4.4-3.9,8.6-5.7,12.5c-11.1,24.6-17.2,38.1-29.4,51.8c-5.1,5.7-15,6.6-20.9,7.2c-0.6,0.1-1.2,0.1-1.8,0.2 c-4.8,0.5-8.9,3.5-10.9,7.8l-9.8,21.6c-3.1,6.8-0.1,14.8,6.7,17.9l162.7,74.2v-0.4c2.5,1.3,5.4,1.9,8.4,1.4l199-32.5 C386,218.9,391,211.9,389.8,204.6z M179.9,186.7c-1.1,7.6-8.8,13.8-13.4,17.6c-0.5,0.4-1,0.8-1.4,1.1c-3.4,2.8-5.2,7.1-4.9,11.4 L31.9,158.3l1-2.3c9.3-1.3,22.6-4.5,32.3-15.4c15.1-16.8,22.2-32.6,33.9-58.7c1.7-3.9,3.6-8,5.6-12.4 c13.2-28.9,47.5-41.7,76.4-28.5c3.5,1.6,6.8,3.6,9.9,5.7c-14.7,18.1-21.9,42.2-17.9,67c0.8,4.8,1.5,9.3,2.2,13.5 C180,153.8,182.4,168.5,179.9,186.7z M188.7,223.7l-0.4-2.5c7-6.2,16.3-16.3,18.3-30.8c3.2-22.4,0.3-39.4-4.4-67.7 c-0.7-4.2-1.4-8.6-2.2-13.4c-5.1-31.4,16.2-61.1,47.6-66.2c31.4-5.1,61.1,16.2,66.2,47.6c0.7,4.3,1.3,8.3,1.9,12.1 c4.6,28.9,7.4,46.4,17.6,66.9c6.5,13.1,18.6,19.7,27.3,23.3l0.4,2.5L188.7,223.7z"/></g></g></svg>