<svg xmlns="http://www.w3.org/2000/svg" xmlns:xlink="http://www.w3.org/1999/xlink" id="Layer_1" x="0" y="0" enable-background="new 0 0 288 288" version="1.1" viewBox="0 0 288 288" xml:space="preserve"><style type="text/css"/><g><g><path d="M144,25c31.8,0,61.7,12.4,84.1,34.9C250.6,82.4,263,112.3,263,144c0,31.8-12.4,61.7-34.9,84.1 C205.6,250.6,175.7,263,144,263c-31.8,0-61.7-12.4-84.1-34.9C37.4,205.6,25,175.7,25,144c0-31.8,12.4-61.7,34.9-84.1 C82.3,37.3,112.2,25,144,25 M144,0C64.5,0,0,64.5,0,144s64.5,144,144,144s144-64.5,144-144C288,64.4,223.5,0,144,0L144,0z"/></g></g><g><g><g><path d="M130.3,202c-6.7,6.9-17.6,7.3-24.8,1l-43.8-38.8c-5.2-4.6-5.6-12.7-0.9-17.8s12.7-5.2,17.8-0.6l38.4,34l92-95.4 c4.8-5,12.9-5.1,17.8-0.2c4.9,4.9,4.6,12.9-0.1,17.8L130.3,202z"/></g></g></g></svg>