<svg xmlns="http://www.w3.org/2000/svg" viewBox="0 0 253.95 288"><path d="M88,164.66,52.74,199.88l-.4-.4L35.8,182.93a12.5,12.5,0,0,0-17.68,0,12.32,12.32,0,0,0-3.25,5.51L1.92,252.3a12.53,12.53,0,0,0,3.26,12.16,12.36,12.36,0,0,0,12.09,3.18l63.78-13a12.43,12.43,0,0,0,8.77-8.91,12.6,12.6,0,0,0-3.25-12L70,217.15l-.3-.3,35.22-35.22a12,12,0,1,0-17-17Z"/><path d="M249.66,252.31l-13-63.78a12.43,12.43,0,0,0-8.91-8.77,12.59,12.59,0,0,0-12,3.25l-16.55,16.55-.28.28-58.28-58.28V28.08a12,12,0,1,0-24,0V146.53a12,12,0,0,0,3.51,8.48l61.8,61.8-.43.43L165,233.78a12.46,12.46,0,0,0-3.26,12,12.72,12.72,0,0,0,3.26,5.66,12.41,12.41,0,0,0,5.51,3.25l63.85,12.94a12.54,12.54,0,0,0,12.17-3.25A12.36,12.36,0,0,0,249.66,252.31Z"/></svg>
