<svg xmlns="http://www.w3.org/2000/svg" xmlns:xlink="http://www.w3.org/1999/xlink" id="Layer_1" x="0" y="0" enable-background="new 0 0 289.1 288" version="1.1" viewBox="0 0 289.1 288" xml:space="preserve"><style type="text/css"/><g><path d="M228.6,170.6c-7-0.1-12.7,5.5-12.7,12.5V252c0,4-3.3,7.3-7.3,7.3H36.4c-3.9,0-7-3.2-7-7V80.1c0-4,3.3-7.3,7.3-7.3h65.9 c6.9,0,12.8-5.4,12.9-12.3c0.1-7-5.5-12.7-12.5-12.7H15.3c-6,0-10.9,4.9-10.9,10.9v214.7c0,6,4.9,10.9,10.9,10.9H230 c6,0,10.9-4.9,10.9-10.9v-89.9C240.9,176.6,235.5,170.7,228.6,170.6z"/><path d="M284.3,59.4c-1.1-7-4.7-13.8-10.2-19.3l-27.7-27.7c-12.3-12.3-29.8-14.1-39.7-4.2L93.8,121.1c-1,1-1.7,2.1-2.1,3.4 l-30.2,87.3c-1.1,3.2-0.3,6.7,2,9.2c1.7,1.8,4.1,2.8,6.5,2.8c0.9,0,1.7-0.1,2.6-0.4l87.1-26.3c1.4-0.4,2.7-1.2,3.8-2.3L278.4,79.8 C283.4,74.8,285.6,67.4,284.3,59.4z M162.1,170.7l-16-16l58.1-58.1c3.5-3.5,3.5-9.2,0-12.7c-3.5-3.5-9.2-3.5-12.7,0l-58.1,58.1 l-17.5-17.5l73-73l46.2,46.2L162.1,170.7z M105.5,139.6l42.2,42.2l-47.5,14.4l-10.5-10.8L105.5,139.6z M265.7,67.1L247.8,85 l-46.2-46.2l17.9-17.9c2-2,8.7-1.3,14.2,4.3l27.7,27.7c2.8,2.8,4.7,6.2,5.2,9.4C266.7,63.3,267,65.8,265.7,67.1z"/></g></svg>