<svg xmlns="http://www.w3.org/2000/svg" xmlns:xlink="http://www.w3.org/1999/xlink" id="Layer_1" x="0" y="0" enable-background="new 0 0 288 288" version="1.1" viewBox="0 0 288 288" xml:space="preserve"><style type="text/css"/><g><path d="M277.2,40H11.8C5.8,40,1,44.8,1,50.8v195.4c0,6,4.8,10.8,10.8,10.8h265.4c6,0,10.8-4.8,10.8-10.8V50.8 C288,44.8,283.2,40,277.2,40z M264,75.1v7.4c0,0.7-0.3,1.4-0.9,1.8l-112.7,86.9c-4.3,3.4-10.4,3.3-14.7-0.1L25.9,85 c-0.6-0.4-0.9-1.1-0.9-1.8v-8.1C25,69,30,64,36.1,64h216.9C259,64,264,69,264,75.1z M25,221.9V119.7c0-2,2.3-3.1,3.9-1.9l92,72.1 c6.5,5.1,14.4,7.7,22.2,7.7c7.7,0,15.5-2.5,22-7.5l95-73.3c1.6-1.2,3.9-0.1,3.9,1.9v103.2c0,6.1-5,11.1-11.1,11.1H36.1 C30,233,25,228,25,221.9z"/></g></svg>