<svg xmlns="http://www.w3.org/2000/svg" xmlns:xlink="http://www.w3.org/1999/xlink" id="Layer_1" x="0" y="0" enable-background="new 0 0 325.6 288" version="1.1" viewBox="0 0 325.6 288" xml:space="preserve"><style type="text/css"/><g><path d="M224.8,147.9V262H24.4V147.9H224.8 M236.8,123.9H12.4c-6.6,0-12,5.4-12,12V274c0,6.6,5.4,12,12,12h224.5 c6.6,0,12-5.4,12-12V135.9C248.8,129.3,243.4,123.9,236.8,123.9L236.8,123.9z"/></g><g><path d="M311.7,136.9c-6.6,0-12-5.4-12-12V87.7c0-34.4-28-62.4-62.4-62.4s-62.4,28-62.4,62.4v37.2c0,6.6-5.4,12-12,12 s-12-5.4-12-12V87.7c0-47.6,38.7-86.4,86.4-86.4s86.4,38.7,86.4,86.4v37.2C323.7,131.5,318.3,136.9,311.7,136.9z"/></g><g><path d="M124.6,226.3c-6.6,0-12-5.4-12-12v-32.9c0-6.6,5.4-12,12-12c6.6,0,12,5.4,12,12v32.9C136.6,220.9,131.2,226.3,124.6,226.3z"/></g></svg>