<?xml version="1.0" encoding="utf-8"?>
<!-- Generator: Adobe Illustrator 25.4.1, SVG Export Plug-In . SVG Version: 6.00 Build 0)  -->
<svg version="1.1" id="_x3C_Layer_x3E_" xmlns="http://www.w3.org/2000/svg" xmlns:xlink="http://www.w3.org/1999/xlink" x="0px"
	 y="0px" viewBox="0 0 251.3 288" style="enable-background:new 0 0 251.3 288;" xml:space="preserve">
<style type="text/css">
	.st0{fill:#FFFFFF;}
	.st1{fill:none;}
	.st2{fill:#010101;}
	.st3{fill-rule:evenodd;clip-rule:evenodd;fill:#010101;}
	.st4{fill:#020202;}
	.st5{enable-background:new    ;}
	.st6{fill:#1A1A1A;}
	.st7{fill:#231F20;}
</style>
<path d="M237.7,123.8h-25.9V87.6c0-47.6-38.7-86.4-86.4-86.4S39.1,40,39.1,87.6v36.2H13.3c-6.6,0-12,5.4-12,12v138.1
	c0,6.6,5.4,12,12,12h224.5c6.6,0,12-5.4,12-12V135.8C249.7,129.2,244.3,123.8,237.7,123.8z M63.1,87.6c0-34.4,28-62.4,62.4-62.4
	s62.4,28,62.4,62.4v36.2H63.1V87.6z M137.5,214.2c0,6.6-5.4,12-12,12c-6.6,0-12-5.4-12-12v-32.9c0-6.6,5.4-12,12-12
	c6.6,0,12,5.4,12,12V214.2z"/>
</svg>
