<svg xmlns="http://www.w3.org/2000/svg" xmlns:xlink="http://www.w3.org/1999/xlink" id="Layer_1" x="0" y="0" enable-background="new 0 0 230.9 288" version="1.1" viewBox="0 0 230.9 288" xml:space="preserve"><style type="text/css"/><g><path d="M142.5,263.6c2.9,0,5.7-1.1,7.7-3.2l76.4-75c2-2,3.2-4.7,3.2-7.6V58.1c0-12.8-10.4-23.2-23.2-23.2H24.4 c-12.8,0-23.2,10.4-23.2,23.2v182.2c0,12.8,10.4,23.2,23.2,23.2h118.1V263.6z M149.7,225.9v-42.3h43.1L149.7,225.9z M37.1,238.6 c-6.1,0-11-4.9-11-11V70.9c0-6.1,4.9-11,11-11h156.8c6.1,0,11,4.9,11,11v87.8h-67.6c-6.9,0-12.5,5.6-12.5,12.5v67.5L37.1,238.6 L37.1,238.6z"/></g></svg>