<svg xmlns="http://www.w3.org/2000/svg" xmlns:xlink="http://www.w3.org/1999/xlink" id="Layer_1" x="0" y="0" enable-background="new 0 0 288 288" version="1.1" viewBox="0 0 288 288" xml:space="preserve"><style type="text/css"/><g><g><path d="M144,25c31.8,0,61.7,12.4,84.1,34.9C250.6,82.4,263,112.3,263,144c0,31.8-12.4,61.7-34.9,84.1 C205.6,250.6,175.7,263,144,263c-31.8,0-61.7-12.4-84.1-34.9C37.4,205.6,25,175.7,25,144c0-31.8,12.4-61.7,34.9-84.1 C82.3,37.3,112.2,25,144,25 M144,0C64.5,0,0,64.5,0,144s64.5,144,144,144s144-64.5,144-144C288,64.4,223.5,0,144,0L144,0z"/></g></g><g><g><path d="M234,131.5h-77.5V54c0-6.9-5.6-12.5-12.5-12.5s-12.5,5.6-12.5,12.5v77.5H54c-6.9,0-12.5,5.6-12.5,12.5s5.6,12.5,12.5,12.5 h77.5V234c0,6.9,5.6,12.5,12.5,12.5s12.5-5.6,12.5-12.5v-77.5H234c6.9,0,12.5-5.6,12.5-12.5S240.9,131.5,234,131.5z"/></g></g></svg>