<svg xmlns="http://www.w3.org/2000/svg" xmlns:xlink="http://www.w3.org/1999/xlink" id="Layer_1" x="0" y="0" enable-background="new 0 0 288 288" version="1.1" viewBox="0 0 288 288" xml:space="preserve"><style type="text/css"/><g><path d="M144,0C64.5,0,0,64.5,0,144s64.5,144,144,144s144-64.5,144-144S223.5,0,144,0z M234,156.5h-77.5V234 c0,6.9-5.6,12.5-12.5,12.5s-12.5-5.6-12.5-12.5v-77.5H54c-6.9,0-12.5-5.6-12.5-12.5s5.6-12.5,12.5-12.5h77.5V54 c0-6.9,5.6-12.5,12.5-12.5s12.5,5.6,12.5,12.5v77.5H234c6.9,0,12.5,5.6,12.5,12.5S240.9,156.5,234,156.5z"/></g></svg>