<svg xmlns="http://www.w3.org/2000/svg" xmlns:xlink="http://www.w3.org/1999/xlink" id="Layer_1" x="0" y="0" enable-background="new 0 0 288.1 288" version="1.1" viewBox="0 0 288.1 288" xml:space="preserve"><style type="text/css"/><path d="M144,0C64.5,0,0,64.5,0,144c0,79.5,64.5,144,144,144s144-64.5,144-144C288,64.5,223.5,0,144,0z M131.4,45.8	c0-6.6,5.4-12,12-12s12,5.4,12,12v113.4c0,6.6-5.4,12-12,12s-12-5.4-12-12V45.8z M144,246c-56.2,0-102-45.8-102-102	c0-29.5,12.8-57.6,35.1-77c5-4.4,12.6-3.8,16.9,1.2c4.4,5,3.8,12.6-1.2,16.9C75.8,100,66,121.4,66,144c0,43,35,78,78,78s78-35,78-78	c0-22.7-9.9-44.3-27.2-59.2c-5-4.3-5.6-11.9-1.3-16.9c4.3-5,11.9-5.6,16.9-1.3C233.1,86.1,246,114.2,246,144	C246,200.2,200.2,246,144,246z"/></svg>