<svg xmlns="http://www.w3.org/2000/svg" xmlns:xlink="http://www.w3.org/1999/xlink" id="Layer_1" x="0" y="0" enable-background="new 0 0 251.4 288" version="1.1" viewBox="0 0 251.4 288" xml:space="preserve"><style type="text/css"/><path d="M197.3,179.9c-12.7,0-24.3,4.4-33.5,11.7l-57.4-35.9c1.7-7.7,1.7-15.7,0-23.4l57.4-35.9c9.2,7.3,20.8,11.7,33.5,11.7	c29.7,0,53.8-24.1,53.8-53.8S227,0.6,197.3,0.6s-53.8,24.1-53.8,53.8c0,4,0.4,7.9,1.3,11.7L87.3,102c-9.2-7.3-20.8-11.7-33.5-11.7	C24.1,90.3,0,114.3,0,144s24.1,53.8,53.8,53.8c12.7,0,24.3-4.4,33.5-11.7l57.4,35.9c-0.8,3.8-1.3,7.8-1.3,11.7	c0,29.7,24.1,53.8,53.8,53.8s53.8-24.1,53.8-53.8S227,179.9,197.3,179.9z"/></svg>