<?xml version="1.0" encoding="utf-8"?>
<!-- Generator: Adobe Illustrator 24.0.0, SVG Export Plug-In . SVG Version: 6.00 Build 0)  -->
<svg version="1.1" id="Layer_1" xmlns="http://www.w3.org/2000/svg" xmlns:xlink="http://www.w3.org/1999/xlink" x="0px" y="0px"
	 viewBox="0 0 360.1 288" style="enable-background:new 0 0 360.1 288;" xml:space="preserve">
<style type="text/css">
	.st0{fill:#FFFFFF;}
	.st1{fill:none;}
	.st2{fill:#010101;}
	.st3{fill-rule:evenodd;clip-rule:evenodd;fill:#010101;}
	.st4{fill:#020202;}
	.st5{fill:none;stroke:#484751;stroke-width:2.6322;stroke-linecap:square;stroke-miterlimit:10;}
	.st6{fill:none;stroke:#000000;stroke-width:24;stroke-linecap:round;stroke-linejoin:round;}
	.st7{fill:#1A1A1A;}
</style>
<g>
	<g>
		<path d="M34.2,286c-6.6,0-12-5.4-12-12v-49.6c0-6.6,5.4-12,12-12s12,5.4,12,12V274C46.2,280.7,40.8,286,34.2,286z"/>
	</g>
</g>
<g>
	<g>
		<path d="M105.9,286c-6.6,0-12-5.4-12-12V171.5c0-6.6,5.4-12,12-12s12,5.4,12,12V274C117.9,280.7,112.6,286,105.9,286z"/>
	</g>
</g>
<g>
	<path d="M345.6,285.1c-2.6,0-5.2-0.8-7.4-2.6L7.1,22.5C1.9,18.4,1,10.8,5.1,5.6c4.1-5.2,11.6-6.1,16.8-2l331.1,260
		c5.2,4.1,6.1,11.6,2,16.8C352.7,283.5,349.2,285.1,345.6,285.1z"/>
</g>
<g>
	<path d="M165.7,178v96c0,6.6,5.4,12,12,12s12-5.4,12-12v-77.3L165.7,178z"/>
</g>
<g>
	<g>
		<path d="M261.5,62.6c0-6.6-5.4-12-12-12c-6.6,0-12,5.4-12,12v79.2l24,19.1V62.6z"/>
	</g>
	<g>
		<path d="M237.5,234.6V274c0,6.6,5.4,12,12,12c6.6,0,12-5.4,12-12v-20.7L237.5,234.6z"/>
	</g>
</g>
<g>
	<path d="M333.3,217.1V12.3c0-6.6-5.4-12-12-12s-12,5.4-12,12v185.9L333.3,217.1z"/>
</g>
</svg>
