<svg xmlns="http://www.w3.org/2000/svg" xmlns:xlink="http://www.w3.org/1999/xlink" id="Layer_1" x="0" y="0" enable-background="new 0 0 300.2 288" version="1.1" viewBox="0 0 300.2 288" xml:space="preserve"><style type="text/css"/><g><path d="M254.5,216.4c28.9-22.7,44.8-53.2,44.8-85.8s-15.9-63.1-44.8-85.8c-28-22.1-65.1-34.2-104.5-34.2 c-39.3,0-76.5,12.2-104.5,34.2C16.6,67.4,0.7,97.9,0.7,130.5c0,43.3,28.8,83.1,75.4,104.4c-1.8,6.2-6.3,11.7-13.5,16.5 c-9.3,6.3-19.5,8.8-19.6,8.8c-4.2,1-7.1,4.8-6.9,9.1c0.2,4.3,3.4,7.9,7.6,8.5c0.6,0.1,10.8,1.6,25,1.6c5.8,0,12.3-0.3,19.1-1 c27.7-3,48.7-12.6,61.3-28c0.3,0,0.5,0,0.8,0C189.3,250.6,226.4,238.4,254.5,216.4z M86.3,260.6c-2.4,0.3-4.7,0.5-7,0.6 c9.6-8.5,16.6-20.3,15.6-35.7c0.1-1.2-0.1-2.5-0.4-3.6c0,0,0,0,0,0l0,0c-0.9-3.4-3.3-6.4-6.8-7.9c-38.9-17.2-63.1-49.1-63.1-83.3 c0-53,56.2-96,125.3-96s125.3,43.1,125.3,96s-56.2,96-125.3,96c-5,0-9.2,3-11,7.3C128.1,252.4,104.4,258.6,86.3,260.6z"/></g><g><circle cx="94.7" cy="130.7" r="17.1"/></g><g><circle cx="148.4" cy="130.7" r="17.1"/></g><g><circle cx="205.2" cy="130.7" r="17.1"/></g></svg>