<svg id="_Layer_" data-name="&lt;Layer&gt;" xmlns="http://www.w3.org/2000/svg" viewBox="0 0 289.39 288">
  <g id="Group_111" data-name="Group 111">
    <g id="Path_348" data-name="Path 348">
      <path d="M81.17,286.91a11.51,11.51,0,0,1-11.5-11.5V243.14a11.5,11.5,0,0,1,11.5-11.5c21.62,0,25.39-7.21,25.93-8.65V75.19H65.86c-4.71,0-6.26,1.56-6.77,2.08-2.27,2.3-2.76,6.7-2.76,8.17a11.19,11.19,0,0,1-3.09,8.41,11.39,11.39,0,0,1-8.4,3.49H13a11.5,11.5,0,0,1-11.5-11.5V13A11.5,11.5,0,0,1,13,1.46H275.52A11.5,11.5,0,0,1,287,13V85.83a11.5,11.5,0,0,1-11.5,11.5H243.64a11.36,11.36,0,0,1-8.32-3.43,11.17,11.17,0,0,1-3.18-8.27,16.33,16.33,0,0,0-1.57-6.44c-1.07-2.09-2.77-4-7.95-4H181.38V223.88c.48,2.12,6.05,7.75,25.93,7.75a11.5,11.5,0,0,1,11.5,11.5V275.4a11.5,11.5,0,0,1-11.5,11.5ZM92.67,254v9.92H195.81V254c-13.46-1.48-23.54-5.71-30.07-12.63a25.58,25.58,0,0,1-7.36-17.54V63.67a11.5,11.5,0,0,1,11.5-11.5h52.74c11.77,0,19,4.91,23.06,9a32.64,32.64,0,0,1,7.65,13.14H264V24.46H24.47V74.34H35a32.09,32.09,0,0,1,7.42-13c4-4.19,11.36-9.19,23.4-9.19H118.6a11.5,11.5,0,0,1,11.5,11.5V224c0,.17,0,.35,0,.53C130,225.64,128.48,249.72,92.67,254Zm88.7-29.4v0Zm0,0h0Z"/>
    </g>
  </g>
</svg>
