<?xml version="1.0" encoding="utf-8"?>
<!-- Generator: Adobe Illustrator 24.0.3, SVG Export Plug-In . SVG Version: 6.00 Build 0)  -->
<svg version="1.1" id="Layer_1" xmlns="http://www.w3.org/2000/svg" xmlns:xlink="http://www.w3.org/1999/xlink" x="0px" y="0px"
	 viewBox="0 0 251.4 288" style="enable-background:new 0 0 251.4 288;" xml:space="preserve">
<style type="text/css">
	.st0{fill:#FFFFFF;}
	.st1{fill:none;}
	.st2{fill:#010101;}
	.st3{fill-rule:evenodd;clip-rule:evenodd;fill:#010101;}
	.st4{fill:#020202;}
	.st5{fill:#1A1A1A;}
	.st6{fill:none;stroke:#000000;stroke-width:18;stroke-miterlimit:10;}
	.st7{fill:none;stroke:#000000;stroke-width:18;stroke-linecap:round;stroke-miterlimit:10;}
</style>
<g>
	<circle cx="196.1" cy="251" r="11.1"/>
	<path d="M249.5,137.8c0-33.2-20.1-50.2-47.8-49.3c-9.5-8-23.4-11.8-36.4-9.3c-6.6-4-14.1-6.3-22-6.6c-0.2,0-0.4,0-0.6,0V41
		c0-21.3-17.8-39.2-39.2-39.2C82.3,1.8,64.4,20,64.4,41v67.8c-6.8-3-15-5.4-24.9-5.4c-22.5,0-39.2,18-39.2,40.9
		c0,27,30,32.2,42.5,39.9c9.9,6.2,31.7,23.8,37.4,33.9c-5.2,3.1-8.6,8.8-8.6,15.2v35.6c0,9.8,8,17.8,17.8,17.8h124.6
		c9.8,0,17.8-8,17.8-17.8v-35.6c0-5.1-2.1-9.7-5.6-12.9c4.3-19.3,23.4-39.5,23.4-69.6V137.8z M213.9,268.8H89.3v-35.6h124.6V268.8z
		 M231.7,150.7c0,24.7-17.4,42.7-22.7,64.7H98.5c-6-16.6-33.3-38.3-46.3-46.4c-14.2-8.8-34-11.4-34-24.8c0-13.4,8.9-23.1,21.4-23.1
		c21.4,0,32.2,16,42.7,16V41c0-11.2,10-21.4,21.4-21.4c11.5,0,21.4,9.8,21.4,21.4v55.2c8.9-7.8,26-8.7,37,3
		c11.9-6.8,27.7-1,32.5,7.8c23.7-4,37.2,6.1,37.2,30.7V150.7z"/>
</g>
</svg>
