<svg xmlns="http://www.w3.org/2000/svg" xmlns:xlink="http://www.w3.org/1999/xlink" id="Layer_1" x="0" y="0" enable-background="new 0 0 198 288" version="1.1" viewBox="0 0 198 288" xml:space="preserve"><style type="text/css">.st4{fill:#020202}</style><g><path d="M163.1,103.7c-0.5,7.5-1.1,15-1.6,22.3c-0.4,6.2-0.9,12.5-1.3,18.7c-0.8,11.5-1.7,23.2-2.6,34.6 c-1.7,22.5-3.5,45.7-4.9,68.7c-0.1,0.7-0.2,1.2-0.3,1.5c0,0-0.1,0-0.1,0H47.8c-0.4,0-0.8,0-1.1-0.1c0-0.2-0.1-0.5-0.1-0.9l0,0l0,0 c-1.1-13.3-2-27-3-40.2c-0.6-9-1.3-18.2-2-27.3c-0.9-12.1-1.8-24.2-2.7-36.3c-0.9-12-1.8-23.9-2.7-35.9l0-0.1l0-0.1 c-0.1-1.6-0.3-3.3-0.4-5h63.7H163.1 M180.3,79.7c-26.9,0-53.9,0-80.8,0s-53.9,0-80.8,0c-6.1,0-8.4,2.5-8,8.6 c0.5,7.4,1,14.9,1.6,22.3c1.8,24.1,3.6,48.1,5.4,72.2c1.7,22.5,3.2,45.1,5,67.6c1.1,14.4,10.7,23.1,25.1,23.1 c34.8,0,69.6,0,104.4,0c1.5,0,3.1-0.1,4.5-0.3c9.8-1.6,19-10.1,19.9-23.6c2.2-34.4,5-68.7,7.5-103.1c1.4-19.3,2.7-38.5,4.2-57.8 C188.9,82.3,186.7,79.7,180.3,79.7L180.3,79.7z"/></g><g><path d="M87.1,229.3c0,3.9-4,7-9,7s-9-3.1-9-7v-105c0-3.9,4-7,9-7s9,3.1,9,7V229.3z" class="st4"/></g><g><path d="M129.2,229.3c0,3.9-4,7-9,7s-9-3.1-9-7v-105c0-3.9,4-7,9-7s9,3.1,9,7V229.3z" class="st4"/></g><g><path d="M186.1,68.3h-175c-6.6,0-12-5.4-12-12s5.4-12,12-12h175c6.6,0,12,5.4,12,12S192.7,68.3,186.1,68.3z"/></g><g><path d="M147.8,36.4l-18-0.3c0-1.2,0-2.8,0-3.6c0-0.8-0.2-1.2-0.3-1.3c0,0,0,0,0,0c0,0-0.2-0.1-0.6-0.1C110,31,91,31,72.2,31.1 c-0.7,0-0.9,0.3-0.9,0.4c-0.1,0.9-0.2,2.1-0.2,4.8h-18c0-3,0.1-5.5,0.5-8.1l0-0.2c1.8-8.8,9.4-14.9,18.5-14.9 c18.8-0.1,37.9-0.1,56.7,0c10.5,0,18.5,7.9,18.8,18.8l0,0.1C147.8,33.4,147.8,35,147.8,36.4z"/></g></svg>