<svg xmlns="http://www.w3.org/2000/svg" viewBox="0 0 289.35 288"><path d="M287.74,18.48A23.22,23.22,0,0,0,265.28,1.07H83.08a23.22,23.22,0,0,0-23.2,23.2v34H24.1A23.22,23.22,0,0,0,.9,81.48v182.2a23.57,23.57,0,0,0,.73,5.8,23.23,23.23,0,0,0,22.47,17.4H206.3a23.22,23.22,0,0,0,23.2-23.2v-34h35.78a23.22,23.22,0,0,0,23.2-23.2V24.27A23,23,0,0,0,287.74,18.48ZM36.8,83.28H193.6a11,11,0,0,1,11,11V126.7H25.8V94.28A11,11,0,0,1,36.8,83.28Zm156.8,178.6H36.8a11,11,0,0,1-11-11V150.7H204.6V250.88A11,11,0,0,1,193.6,261.88Zm70-68.21a11,11,0,0,1-11,11H229.5V81.48a23.18,23.18,0,0,0-23.2-23.2H84.78V37.07a11,11,0,0,1,11-11h156.8a11,11,0,0,1,11,11Z"/></svg>