<svg xmlns="http://www.w3.org/2000/svg" width="17.094" height="21.039" viewBox="0 0 17.094 21.039">
  <path id="Path_58" data-name="Path 58" d="M8.543.623A50.242,50.242,0,0,1,9.2,5.916a4.333,4.333,0,0,1-2.831,4.3L6.9,20a.989.989,0,0,1-.986,1.04H3.287A.989.989,0,0,1,2.3,20l.53-9.784A4.331,4.331,0,0,1,0,5.916,50.093,50.093,0,0,1,.662.623C.793-.211,2.523-.223,2.63.668v5.8c.053.14.62.131.657,0,.058-1.04.325-5.72.329-5.827.136-.855,1.837-.855,1.968,0,.008.111.271,4.787.329,5.827.037.131.608.14.657,0V.668C6.678-.219,8.412-.211,8.543.623Zm4.9,11.74-.616,7.606a.986.986,0,0,0,.982,1.068h2.3a.984.984,0,0,0,.986-.986V.985A.986.986,0,0,0,16.108,0c-3.39,0-9.1,7.335-2.667,12.365Z" transform="translate(0 0.001)" fill="#008576"/>
</svg>