<svg xmlns="http://www.w3.org/2000/svg" xmlns:xlink="http://www.w3.org/1999/xlink" id="Layer_1" x="0" y="0" enable-background="new 0 0 288 288" version="1.1" viewBox="0 0 288 288" xml:space="preserve"><style type="text/css">.st3{fill-rule:evenodd;clip-rule:evenodd;fill:#010101}</style><g><g><g><path d="M286.6,145.4c0,78.4-63.6,142-142,142s-142-63.6-142-142s63.6-142,142-142C223.1,3.5,286.6,67,286.6,145.4 M85.7,73.6c-14.4-0.1-23.1,5-26.2,15.4c-0.7,10.5-1.5,20.9-2.3,31.3c-1.1,12.6-6.3,20.4-15.8,23.5v3.9 c9.1,3.1,14.4,10.8,15.8,23.2c0.8,10.4,1.7,20.7,2.5,31.1c2.6,10.5,10.2,15.7,22.6,15.7h0.6v-3.5c-3.4-0.4-7.7-2.3-10.8-5.7 c-3.1-3.5-4.6-7.8-4.6-13c0-2.1,0.1-5.4,0.4-9.7c0.2-4.4,0.4-7.7,0.4-9.9c0-14.5-4.7-24.6-14.1-30.2c9.5-5.7,14.3-15.7,14.3-30.2 c0-2.1-0.1-5.4-0.4-9.7c-0.3-4.4-0.4-7.7-0.4-9.9c0-5.2,1.6-9.5,4.7-13s13.5-5.7,13.5-5.7v-3.6H85.7z M249.1,143.6 c-9.1-3.1-14.4-10.8-15.8-23.2c-0.8-10.4-1.7-20.7-2.5-31.1c-2.6-10.5-10.2-15.7-22.6-15.7H202v3.2c7.8,0.4,12.1,2.3,15.2,5.7 c3.1,3.5,4.6,7.8,4.6,13c0,2.1-0.1,5.4-0.4,9.7c-0.2,4.4-0.4,7.7-0.4,9.9c0,14.5,4.7,24.6,14.1,30.2 c-9.5,5.7-14.3,15.7-14.3,30.2c0,2.1,0.1,5.4,0.4,9.7c0.3,4.4,0.4,7.7,0.4,9.9c0,5.2-1.6,9.5-4.7,13c-3.1,3.5-12.3,5.7-12.3,5.7 v3.7c14.4,0.1,23.1-5,26.2-15.4c0.7-10.5,1.5-20.9,2.3-31.3c1.1-12.6,6.3-20.4,15.8-23.5v-3.7H249.1z M103.4,117.4l9.7,2.5 c0,0,4.6-16.7,16.4-12.4c11.8,4.3,21-3.3,21-3.3c3.5,13.5-15.2,20.3-34.7,35c-9.5,7.1-9.4,34.1-9.4,34.1h75.2 c-0.3-0.4-5-10.3-5.3-22.7c-0.2-11.9,9.7-30.1,8.6-56.4c-1.1-26.4-31.8-33.7-31.8-33.7c6.4-6.3-9.3-17.8-9.3-17.8v18.8 C127,62.6,120,72.8,120,72.8l2.2,7.4c0,0-21.1,18.9-26.5,23.1c-5.4,4.2,2.4,15.6,2.4,15.6L103.4,117.4z M185.7,179.9L185.7,179.9 c0-1.1-0.9-2.1-2.1-1h-76.7c-1.1-1-2.1-0.1-2.1,1s0.9,2.1,2.1,1.8h76.7C184.8,181.9,185.7,181,185.7,179.9 M193,202.4l-4.6-13.9 c0-0.8-0.6-1.4-1.4-1.4h-82.3c-0.8,0-1.4,0.6-1.4,1.4l-4.6,13.9c0,0.8,0.6,1.4,1.4,1.4h91.4C192.3,203.8,193,203.2,193,202.4 M171,237c0,0-14.8-9.3-14.8-15.5c0-6.3,6.9-12.2,6.9-12.2c0-0.8-1.1-2.7-1.3-2.7h-16h-16c-0.2,0-1.3,2-1.3,2.7 c0,0,6.9,6,6.9,12.2c0,6.3-14.8,15.5-14.8,15.5c-1,1.7,0.5,2.7,0.7,2.7h24.4h24.4C170.5,239.8,172,238.7,171,237" class="st3"/></g></g></g></svg>