<svg xmlns="http://www.w3.org/2000/svg" xmlns:xlink="http://www.w3.org/1999/xlink" id="Layer_1" x="0" y="0" enable-background="new 0 0 285 288" version="1.1" viewBox="0 0 285 288" xml:space="preserve"><style type="text/css">.st3{fill-rule:evenodd;clip-rule:evenodd;fill:#010101}</style><g><polygon points="121.9 67 124.2 65 124.8 64.4 125.4 64.1 126.9 64.1 128.1 64.4 128.9 64.1 129.2 62.9 130.1 60.3 133.6 60.9 134.8 61.2 135.7 60.9 136 60.9 136 59.4 135.7 59.1 126.9 57.6 126.3 58.2 124.8 60 122.5 63.8 120.1 67.6 121.3 67.6" class="st3"/><path d="M142.6,2C64.2,2,0.6,65.6,0.6,144c0,78.4,63.6,142,142,142s142-63.6,142-142C284.5,65.5,221,2,142.6,2z M207.4,203.4l-8.5,3.2l-18.8,4.7l-22,3.2l-23.2,0.9h-4.7l-21.2-1.5L94.6,211l-5.9-2.4l-4.4-2.4l0.3-0.6h0.3l0.6-0.3h1.2L87,205 l0.3-0.3l0.3-0.6v-0.3l2.1,1.2l4.1,1.8l5,1.5l8.2,1.5l13.2,1.5l14.7,0.6l13.5-0.6l12.6-1.5l20-2.9l20.9-2.9L207.4,203.4z M89.6,113.8L94,110l2.9-2.4l1.8-0.9l1.5-0.6h2.9l1.2,0.3l1.2,0.6l0.6,0.6l-0.9,1.8l-2.4,4.1l-0.6,1.5l-0.3,0.9v1.5H101l-2.4-0.3 l-4.7-1.5L89.6,113.8z M186.2,201.9L170,206l-16.8,2.4l-17,0.3l-17-0.9l-17-2.4l-6.8-1.2l-0.9-0.6l-1.2-0.6l-0.9-0.3l-2.4-0.6v-0.3 l0.3-0.6l3.2-2.9l7.9,2.9l12.3,2.6l17.9,1.2l18.8-0.6l18.8-2.4l17.3-2.9l15-3.5L186.2,201.9z M82.5,112.1l-1.8-6.6l-1.5-3.2 l-0.3-2.1v-2.1l0.3-1.5l0.6-1.5l0.6-1.2L81,93l6.2-4.4l6.8-6.8l5.9-7.3l7.6-10.9l5.6-7.6l6.2-6.8l3.8-3.5h0.3l0.9-0.9l3.2-1.5 l3.8-0.9l6.5-1.5l2.1-0.6l1.8-0.6l0.9-0.6l-0.6-0.6l-0.9-0.3l-0.6-0.3l-1.2-0.3h-1.2l-3.5,0.9l-1.2,0.3l0.3-0.3l0.3-0.3l0.3-0.3 l0.9-0.3l2.6-0.9l0.6-0.3l0.6-0.3l0.3-0.3l0.3-0.3v-0.3l0.3-0.6V34l-0.3-0.6l-0.3-0.9v-0.9l0.3-1.2l0.9-4.1v-2.1l1.2,0.9l2.9,3.5 l7.9,11.2l-0.6-3.8l-0.9-4.1l-1.2-3.8L148,24l-2.4-3.2l-2.4-3.2l15,15.6l0.3,0.9v1.5l-0.3,0.9l-0.3,0.9l-1.2,2.6l-1.2,1.8l-0.3,1.2 v0.6l0.3,0.9l0.3,0.9l0.6,0.6l0.9-0.3l0.3-0.3l0.6-0.3l0.9-1.2l2.4-3.5l0.3-0.3l0.9-0.9l0.3,0.9l0.3,1.5v1.8l-0.3,2.4l-1.8,5 l-2.1,5l-0.6,2.6v3.2l0.6,1.8l0.9,1.5l0.6,0.9l9.7-20.9l-0.3,3.5l-1.2,3.8l-3.2,8.5l-1.2,4.7l-0.3,1.5l0.3,1.8l0.3,1.5l0.6,1.8 l1.2,1.2v-2.9l0.6-2.9l1.8-4.4l3.2-7.1l2.4-5.3V50h1.2l0.3,0.3l0.6,0.6v0.6l0.3,1.2l-0.3,2.4l-0.3,1.5l-1.2,2.9l-3.5,6.5l-1.8,3.8 l-0.6,2.6l-0.3,1.5l0.3,1.2v1.5l0.6,1.2l4.7-6.5l4.7-6.8l3.2-5l0.9-2.4l0.6,2.4l0.3,2.4l-0.6,2.4l-0.6,2.1l-1.8,3.5l-4.1,5.3 l-6.2,7.6l-2.6,4.4l-1.2,2.4l-0.6,2.4l-0.3,0.9l0.3,0.6l0.3,0.3h0.6l0.3-0.3l1.5-0.6l2.9-3.5l4.7-6.2l5-7.3l5-9.1l1.5-2.9v-0.3 l0.6,0.6l0.3,0.9l0.3,1.2v1.5l-0.6,2.1l-1.2,4.4l-1.5,3.2l-4.7,7.3l-6.2,8.8l-0.6,1.5l-0.3,1.2h0.6l1.5-0.9l7.3-5.9l2.9-3.5 l3.2-5.3l3.5-7.6l1.2,3.8l0.3,1.8v3.2l-0.3,1.5l-0.6,1.2l-1.8,2.6l-2.1,2.1l-4.1,2.9l-11.5,5.9l-6.5,3.5l-3.8,3.2l-2.1,2.1 l-0.9,1.5l-0.6,1.2l1.5-0.9l5.3-2.6l9.1-3.8l7.1-3.2l5-2.9l3.2-2.9l1.8-2.1l1.5-2.4l0.9-2.6l0.3,1.2v1.8l-0.3,1.2l-0.9,2.1 l-2.1,2.9l-5,6.2l-3.2,3.2l-5,3.2l-9.4,5l-6.5,3.5l-3.8,2.4L158,121l-2.9,3.5l-1.8,2.6v0.6l0.3,0.6l-0.3,0.6l-1.2,3.5v0.6l-0.3,0.9 l0.3,0.3v0.3l0.3,0.6l0.6,0.3h0.3l0.3,0.3l6.5-6.5l6.8-5.3l10.9-6.8l7.3-4.7l5.9-4.7l3.2-2.9l-2.4,4.1l-2.6,3.5l-4.1,4.1l-6.2,4.1 l-11.2,6.8l-5.9,4.1l-3.2,2.9l-5.3,7.3l-2.9,5.6l-1.8,4.7l0.6-0.3l9.7-7.3l16.5-13.2l12.9-11.2l-4.4,5.6l-7.9,7.3l-10.9,9.4 l-5.6,6.5l-2.9,4.4l-2.1,5l-1.2,5.3l5.9-5.9l12.3-12.3l8.8-8.2l4.4-3.5l-0.3,1.8l-0.9,1.8l-1.2,1.8l-2.4,2.4l-5.6,5l-2.6,2.6 l-3.8,5.6l-5.9,8.2l-2.6,4.4l-1.5,4.1l-1.2,4.1l-0.6,4.1v2.4l6.5-12l4.1-7.1l10.9-10.3l-2.6,4.7l-1.8,5.6l-1.5,5.9l-0.3,3.2v4.7 l0.6,3.2l1.2,3.2l1.8,2.9l0.6,1.2h0.9l0.3-0.3h0.3l0.6-0.9l0.3-0.6l0.6-3.5l1.5-8.8l1.2-4.1l0.9-1.8l1.5-2.6l1.2-1.5l-0.3,7.1v7.1 l0.6,6.5l0.3,1.2l0.9-0.3l0.9-0.3l0.3-0.3l0.6-0.6l0.3-0.3l0.3-1.2V174l0.3-0.9l0.6-0.6l0.9,4.1l0.3,3.5v4.4l-0.3,1.8l-2.9,2.4 l-5.6,2.9l-8.5,3.2l-4.1,0.9l-0.6,0.3l-7.9,2.1l-8.8,1.5l-10,1.2h-6.8l-11.5-0.9l-4.7-0.6l-8.2-3.2l-6.8-4.1l-4.1-3.5l-3.5-3.8 l-1.5-2.6l-1.5-3.2l-0.9-2.9l-0.3-3.5V169l0.6-3.5l1.8-5.9l2.9-6.5l12.9-13.8l12.6-14.1l6.2-7.1l5.3-7.3l3.2-4.4l3.5-4.1l2.4-2.6 l0.6-1.5l0.3-0.6l0.6-1.5l-0.3-1.2V94l-0.3-0.6l-0.6-1.2l-4.7,4.7l-3.2,2.4l-2.9,1.5l-3.5,1.2l-2.9,0.3h-1.5l-5-0.6l-6.2-1.2 l-9.4-3.8l-0.3,0.3v1.5l0.3,0.6l0.6,0.6l0.6,0.6l1.8,1.2l2.4,1.2l2.9,0.6l2.4,0.3h0.9l-0.3,0.3l-0.3,0.6l-0.3,0.3l-1.2,0.6 l-1.5,0.6l-2.1,0.3h-1.2l-2.1-0.3l-0.9-0.3l-1.8-0.6l-0.9-0.6l-0.9-0.9l-0.6-0.9l-0.3-0.3l-0.3-0.6l-6.8,5.3l-11.5,9.1v-1.5 L82.5,112.1z M208,217.2l-0.3,4.4l-0.3,2.6l-2.9,1.5l-4.4,1.5l-6.8,1.5l-6.8,1.5l2.4,0.3h6.8l6.2-1.2l4.4-0.6l-5,2.1l-4.1,1.5 l-3.5,1.2l-4.1,0.6l-5,0.6l0.9,0.6h0.6l0.9,0.3l1.5,0.3h1.5l4.7-0.6l2.1,0.3h0.9l0.9,0.3l1.2,0.3l0.9,0.6l-0.9,0.9l-1.5,1.5 l-2.1,0.9l-2.9,1.5l-4.4,1.5l-6.8,1.5l-7.6,1.5l-11.8,0.9l-9.4,0.3l-12-0.3l-11.8-0.9l-20.9-2.1l-9.4-1.2l-7.6-1.5l-2.4-0.6 l-1.8-0.6l-0.3-0.3l-1.2-0.6l-0.9-0.9l-0.3-0.6l-0.6-1.5v-2.4l1.8,0.6l2.1,0.3h3.8l0.3-0.3h0.6l0.3-0.3l0.3-0.3v-0.3l-0.3-0.3 l-0.6-0.3l-2.1-0.9l-2.6-0.9l-1.5-0.9l-1.2-0.6l-0.6-0.9l-0.6-4.4l-0.3-4.4v-3.5l0.3-1.8l7.9,1.5l8.2,1.2l8.2,0.6l15,0.6l16.5,0.6 l15.9-0.3l15.9-0.6l15.9-0.9l4.1-0.3l6.8-0.9l6.5-1.2l4.1-0.9L208,217.2z" class="st3"/></g></svg>