<svg xmlns="http://www.w3.org/2000/svg" xmlns:xlink="http://www.w3.org/1999/xlink" id="Layer_1" x="0" y="0" enable-background="new 0 0 162 288" version="1.1" viewBox="0 0 162 288" xml:space="preserve"><style type="text/css">.st3{fill-rule:evenodd;clip-rule:evenodd;fill:#010101}</style><g><polygon points="111.4 229.7 88.1 232.6 64.8 233.3 42.6 231.8 27.3 228.5 17.5 224.9 13.5 228.5 13.1 229.2 13.1 229.6 16 230.3 17.1 230.7 18.6 231.4 19.7 232.1 28.1 233.6 49.2 236.5 70.3 237.6 91.4 237.2 112.2 234.3 132.3 229.2 151.6 221.5 133 225.9" class="st3"/><polygon points="23.5 123.9 26.4 124.3 27.5 124.3 27.5 122.5 27.9 121.4 28.6 119.6 31.5 114.5 32.6 112.3 31.9 111.6 30.4 110.9 28.9 110.5 25.3 110.5 23.5 111.2 21.3 112.3 17.7 115.2 12.2 119.9 17.7 122.1" class="st3"/><polygon points="125.6 235.5 100.8 239.1 85.1 240.9 68.3 241.6 50.1 240.9 33.7 239.1 23.5 237.3 17.3 235.5 12.2 233.3 9.6 231.8 9.6 232.2 9.2 232.9 8.8 233.3 8.4 233.7 6.9 233.7 6.2 234.1 5.8 234.1 5.4 234.8 10.9 237.7 18.2 240.6 36.1 244.2 62.3 246 68.1 246 96.9 244.9 124.2 240.9 147.5 235.1 158.1 231.1 151.2 231.8" class="st3"/><path d="M6,119.7c-1-0.1-1,1.7-1,1.7l14.2-11.3l8.4-6.6l0.4,0.7l0.4,0.4l0.7,1.1l1.1,1.1l1.1,0.7l2.2,0.7l1.1,0.4 l2.6,0.4h1.5l2.6-0.4l1.8-0.7l1.5-0.7l0.4-0.4l0.4-0.7l0.4-0.4h-1.1l-2.9-0.4l-3.6-0.7l-2.9-1.5l-2.2-1.5l-0.7-0.7l-0.7-0.7 l-0.4-0.7v-1.8l0.4-0.4l11.7,4.7l7.7,1.5l6.2,0.7h1.8l3.6-0.4l4.4-1.5l3.6-1.8l4-2.9l5.8-5.8l0.7,1.5l0.4,0.7v1.1l0.4,1.5l-0.7,1.8 l-0.4,0.7l-0.7,1.8l-2.9,3.3l-4.4,5.1l-4,5.5l-6.6,9.1l-7.7,8.7l-15.7,17.5l-16,17.1l-3.6,8l-2.2,7.3l-0.7,4.4v4.4l0.4,4.4l1.1,3.6 l1.8,4l1.8,3.3l4.4,4.7l5.1,4.4l8.4,5.1l10.2,4l5.8,0.7l14.2,1.1H78l12.4-1.5l10.9-1.8l9.8-2.6l0.7-0.4l5.1-1.1l10.6-4l6.9-3.6 l3.6-2.9l0.4-2.2V201l-0.4-4.4l-1.1-5.1l-0.7,0.7l-0.4,1.1v9.8l-0.4,1.5L135,205l-0.7,0.7l-0.4,0.4l-1.1,0.4l-1.1,0.4l-0.4-1.5 l-0.7-8v-8.7l0.4-8.7l-1.5,1.8l-1.8,3.3l-1.1,2.2l-1.5,5.1l-1.8,10.9l-0.7,4.4l-0.4,0.7l-0.7,1.1h-0.4l-0.4,0.4h-1.1l-0.7-1.5 l-2.2-3.6l-1.5-4l-0.7-4V191l0.4-4l1.8-7.3l2.2-6.9l3.3-5.8l-13.5,12.8l-5.1,8.7l-8,14.9v-2.9l0.7-5.1l1.5-5.1l1.8-5.1l3.3-5.5 l7.3-10.2l4.7-6.9l3.3-3.3l6.9-6.2l2.9-2.9l1.5-2.2l1.1-2.2l0.4-2.2l-5.5,4.4l-10.9,10.2l-15.3,15.3l-7.3,7.3l1.5-6.6l2.6-6.2 l3.6-5.5l6.9-8l13.5-11.7l9.8-9.1l5.5-6.9l-16,13.9L99,157.1l-12,9.1l-0.7,0.4l2.2-5.8l3.6-6.9l6.6-9.1l4-3.6l7.3-5.1l13.9-8.4 l7.7-5.1l5.1-5.1l3.3-4.4l2.9-5.1l-4,3.6l-7.3,5.8l-9.1,5.8l-13.5,8.4l-8.4,6.6l-8,8l-0.4-0.4h-0.4l-0.7-0.4l-0.4-0.7v-0.4 l-0.4-0.4l0.4-1.1v-0.7l1.5-4.4l0.4-0.7l-0.4-0.7v-0.7l2.2-3.3l3.6-4.4l2.6-2.6l4.7-2.9l8-4.4l11.7-6.2l6.2-4l4-4l6.2-7.7l2.6-3.6 l1.1-2.6l0.4-1.5v-2.2l-0.4-1.5L144,88l-1.8,2.9l-2.2,2.6l-4,3.6l-6.2,3.6l-8.7,4l-11.3,4.7l-6.6,3.3l-1.8,1.1l0.7-1.5l1.1-1.8 l2.6-2.6l4.7-4l8-4.4l14.2-7.3l5.1-3.6l2.6-2.6l2.2-3.3l0.7-1.5l0.4-1.8v-4l-0.4-2.2l-1.5-4.7l-4.4,9.5l-4,6.6l-3.6,4.4l-9.1,7.3 l-1.8,1.1h-0.7l0.4-1.5l0.7-1.8l7.7-10.9l5.8-9.1l1.8-4l1.5-5.5l0.7-2.6v-1.8l-0.4-1.5l-0.4-1.1l-0.7-0.7v0.4l-1.8,3.6l-6.2,11.3 l-6.2,9.1l-5.8,7.7l-3.6,4.4l-1.8,0.7l-0.4,0.4h-0.7l-0.4-0.4l-0.4-0.7l0.4-1.1l0.7-2.9l1.5-2.9l3.3-5.5l7.7-9.5l5.1-6.6l2.2-4.4 l0.7-2.6l0.7-2.9l-0.4-2.9l-0.7-2.9l-1.1,2.9l-4,6.2l-5.8,8.4l-5.8,8l-0.7-1.5v-1.8l-0.4-1.5l0.4-1.8l0.7-3.3l2.2-4.7l4.4-8 l1.5-3.6l0.4-1.8l0.4-2.9l-0.4-1.5v-0.7l-0.7-0.7l-0.4-0.4h-1.5v0.7l-2.9,6.6l-4,8.7l-2.2,5.5l-0.7,3.6v3.6l-1.5-1.5l-0.7-2.2 l-0.4-1.8l-0.4-2.2l0.4-1.8l1.5-5.8l4-10.6l1.5-4.7l0.4-4.4l-12,25.9l-0.7-1.1l-1.1-1.8L98.9,55v-4l0.7-3.3l2.6-6.2l2.2-6.2 l0.4-2.9v-2.2l-0.4-1.8l-0.4-1.1l-1.1,1.1l-0.4,0.4l-2.9,4.4l-1.1,1.5l-0.7,0.4l-0.4,0.4l-1.1,0.4l-0.7-0.7l-0.4-1.1L94.8,33v-0.7 l0.4-1.5l1.5-2.2l1.5-3.3l0.4-1.1l0.4-1.1v-1.8l-0.4-1.1L80,0.9l2.9,4l2.9,4L88,14l1.5,4.7l1.1,5.1l0.7,4.7l-9.8-13.9l-3.6-4.4 l-1.5-1.1v2.6l-1.1,5.1l-0.4,1.5v1.1l0.4,1.1l0.4,0.7v0.7l-0.4,0.7V23l-0.4,0.4l-0.4,0.4l-0.7,0.4l-0.7,0.4l-3.3,1.1l-1.1,0.4 l-0.4,0.4l-0.4,0.4l-0.4,0.4l1.5-0.4l4.4-1.1h1.5l1.5,0.4l0.7,0.4l1.1,0.4l0.7,0.7l-1.1,0.7l-2.2,0.7L73,29.8l-8,1.8l-4.7,1.1 l-4,1.8l-1.1,1.1h-0.4L50.1,40l-7.7,8.4l-6.9,9.5L26,71.4l-7.3,9.1l-8.4,8.4l-7.7,5.5l-0.7,1.1L1.2,97l-0.7,1.8l-0.4,1.8v2.6 l0.4,2.6l1.8,4l2.6,6.6L6,119.7z M53.1,58l2.9-4.7l1.8-2.2l0.7-0.7l10.9,1.8l0.4,0.4v1.8h-0.4l-1.1,0.4l-1.5-0.4l-4.4-0.7L61.3,57 l-0.4,1.5c-0.1,0-0.9,0.2-0.9,0.2l-1.5-0.4h-1.8L56,58.7l-0.7,0.7L52.4,62l-0.7,0.7h-1.5L53.1,58z" class="st3"/><polygon points="154.8 245.3 146.8 246.8 138.4 247.9 133.3 248.3 113.6 249.4 93.9 250.1 74.2 250.5 53.8 249.8 35.2 249.1 25 248.4 14.8 246.9 5 245.1 4.6 247.3 4.6 251.7 5 257.2 5.7 262.7 6.4 263.8 7.9 264.5 9.7 265.6 13 266.7 15.6 267.8 16.3 268.2 16.7 268.6 16.7 269 16.3 269.4 15.9 269.8 15.2 269.8 14.8 270.2 10.1 270.2 7.5 269.8 5.3 269.1 5.3 272 6 273.8 6.4 274.5 7.5 275.6 9 276.3 9.4 276.7 11.6 277.4 14.5 278.1 24 279.9 35.7 281.4 61.6 284 76.2 285.1 91.1 285.5 102.8 285.1 117.4 284 126.9 282.2 135.3 280.4 140.8 278.6 144.4 276.8 147 275.7 148.8 273.9 149.9 272.8 148.8 272.1 147.3 271.7 146.2 271.3 145.1 271.3 142.5 270.9 136.7 271.6 134.9 271.6 133.1 271.2 132 270.8 131.3 270.8 130.2 270.1 136.4 269.4 141.5 268.7 145.9 267.2 151 265.4 157.2 262.8 151.7 263.5 144 265 135.6 265 132.7 264.6 141.1 262.8 149.5 261 155 259.2 158.6 257.4 159 254.1 159.4 248.6 160.1 244.6" class="st3"/></g></svg>