<svg xmlns="http://www.w3.org/2000/svg" xmlns:xlink="http://www.w3.org/1999/xlink" id="Layer_1" x="0" y="0" enable-background="new 0 0 261.5 288" version="1.1" viewBox="0 0 261.5 288" xml:space="preserve"><style type="text/css"/><g><path d="M240,42.9H22.8c-11.9,0-21.6,9.7-21.6,21.6v131.1c0,11.9,9.7,21.6,21.6,21.6h94.8v20.6H50.8c-6.9,0-12.5,5.6-12.5,12.5 s5.6,12.5,12.5,12.5h158c6.9,0,12.5-5.6,12.5-12.5s-5.6-12.5-12.5-12.5h-66.2v-20.6H240c11.9,0,21.6-9.7,21.6-21.6V64.5 C261.6,52.6,251.9,42.9,240,42.9z M236.6,192.2H26.1V67.9h210.5L236.6,192.2L236.6,192.2z"/><path d="M114.7,164.1l57.2-32.4c2.6-1.5,2.6-5.2,0-6.6l-57.2-32.4c-2.5-1.4-5.7,0.4-5.7,3.3v64.7 C109,163.7,112.2,165.5,114.7,164.1z"/></g></svg>