<svg xmlns="http://www.w3.org/2000/svg" xmlns:xlink="http://www.w3.org/1999/xlink" id="Layer_1" x="0" y="0" enable-background="new 0 0 238.3 288" version="1.1" viewBox="0 0 238.3 288" xml:space="preserve"><style type="text/css"/><g><path d="M24.8,273.3c-4.4,0-8.8-1.2-12.7-3.6c-7.5-4.5-11.8-12.5-11.7-21.2v-213c0-8.9,4.6-16.8,12.2-21.3 c7.6-4.4,16.7-4.4,24.3-0.1l188.5,106.6c7.8,4.4,12.4,12.4,12.4,21.4c0,9-4.6,17-12.4,21.4L36.7,270.2 C33,272.3,28.9,273.3,24.8,273.3z M24.8,34.9c-0.1,0-0.1,0-0.1,0.1c-0.2,0.1-0.3,0.3-0.3,0.5l0,213.3c0,0.3,0,0.3,0.2,0.4 c0.3,0.2,0.5,0.1,0.7,0l188.4-106.6c0.1-0.1,0.2-0.1,0.2-0.5s-0.1-0.4-0.3-0.5L25.1,35C24.9,34.9,24.9,34.9,24.8,34.9z"/></g></svg>