<svg xmlns="http://www.w3.org/2000/svg" xmlns:xlink="http://www.w3.org/1999/xlink" id="Layer_1" x="0" y="0" enable-background="new 0 0 246 288" version="1.1" viewBox="0 0 246 288" xml:space="preserve"><style type="text/css"/><g><path d="M232.4,251h-31.1V38.7c0-5.9-4.8-10.7-10.7-10.7H54.9c-5.9,0-10.7,4.8-10.7,10.7V251H13.1c-6.6,0-12.3,5.2-12.4,11.8 C0.6,269.5,6,275,12.8,275h220c6.7,0,12.1-5.5,12-12.2C244.6,256.2,239,251,232.4,251z M72,52h101.4c2.1,0,3.8,1.7,3.8,3.8V251 h-39.9v-33.9h-30.7V251H68.2V55.8C68.2,53.7,69.9,52,72,52z"/><rect width="27" height="23" x="87" y="83"/><rect width="27" height="23" x="129" y="83"/><rect width="27" height="23" x="87" y="127"/><rect width="27" height="23" x="129" y="127"/><rect width="27" height="23" x="87" y="171"/><rect width="27" height="23" x="129" y="171"/></g></svg>