<svg xmlns="http://www.w3.org/2000/svg" xmlns:xlink="http://www.w3.org/1999/xlink" id="Layer_1" x="0" y="0" enable-background="new 0 0 219.4 288" version="1.1" viewBox="0 0 219.4 288" xml:space="preserve"><style type="text/css"/><path d="M109.7,0.9c54.9,0,109.1,40.9,109.1,100.7c0,58.8-26,100.1-55,137c-10,12.8-20.7,23.9-31.5,33.3c-3.8,3.3-7.3,6.2-10.5,8.7	c-1.1,0.9-2.2,1.6-3.1,2.3c-0.6,0.4-1,0.7-1.3,0.9c-4.8,3.3-10.8,3.3-15.6,0c-0.3-0.2-0.7-0.5-1.3-0.9c-0.9-0.7-1.9-1.4-3.1-2.3	c-3.2-2.5-6.7-5.3-10.5-8.7c-10.7-9.4-21.4-20.6-31.5-33.3c-29-36.9-55-78.2-55-137C0.5,41.9,54.8,0.9,109.7,0.9L109.7,0.9z M109.7,60.7c-25.1,0-45.4,20.3-45.4,45.4c0,25.1,20.3,45.4,45.4,45.4s45.4-20.3,45.4-45.4C155.1,81.1,134.7,60.7,109.7,60.7	L109.7,60.7z M109.7,60.7"/></svg>