<svg xmlns="http://www.w3.org/2000/svg" xmlns:xlink="http://www.w3.org/1999/xlink" id="Layer_1" x="0" y="0" enable-background="new 0 0 290.5 288" version="1.1" viewBox="0 0 290.5 288" xml:space="preserve"><style type="text/css"/><path d="M278.3,41.6c5.2,0.4,8.5,3.7,8.9,8.9v196.3c0,3.7-2.3,7-5.7,8.3L206.9,287V169.3c1.9-0.6,3.6-1.7,5.3-2.8	c0.3-0.2,0.7-0.5,1.1-0.8c0.6-0.5,1.3-1,2-1.5c2.1-1.6,4.3-3.4,6.5-5.4c6.8-6,13.2-12.7,19-20.1c10.1-12.8,17.2-23.7,22.6-35.7	c6.8-15.1,10.4-30.9,10.4-48.1c0-4-0.4-8-1.1-11.9l2.3-0.9C276.8,41.7,275.7,42,278.3,41.6L278.3,41.6z M278.3,41.6"/><path d="M99.8,41.6l22.5,8.8c-0.2,3.3-0.1,1.8-0.2,4.6c0,17.3,3.6,33.1,10.4,48.1c5.5,12,12.6,22.9,22.6,35.7	c5.8,7.4,12.2,14.1,19,20.1c2.2,2,4.4,3.8,6.5,5.4c0.7,0.6,1.4,1.1,2,1.5c0.4,0.3,0.8,0.5,1.1,0.8c1.7,1.1,3.4,2.2,5.3,2.8V287	l-89.2-26.8V41.6z M99.8,41.6"/><path d="M82,41.6v218.6l-68.1,26.2c-5.8,2.3-12.2-2-12.2-8.3V81.8c0-3.7,2.3-7,5.7-8.3L82,41.6z M82,41.6"/><path d="M197.9,1.5c29.2,0,58,21.8,58,53.5c0,31.2-13.8,53.2-29.2,72.8c-5.3,6.8-11,12.7-16.7,17.7c-2,1.8-3.9,3.3-5.6,4.6	c-0.6,0.5-1.2,0.9-1.6,1.2c-0.3,0.2-0.5,0.4-0.7,0.5c-2.5,1.7-5.7,1.7-8.3,0c-0.1-0.1-0.4-0.3-0.7-0.5c-0.5-0.3-1-0.8-1.6-1.2	c-1.7-1.3-3.6-2.8-5.6-4.6c-5.7-5-11.4-10.9-16.7-17.7c-15.4-19.6-29.2-41.6-29.2-72.8C139.9,23.3,168.8,1.5,197.9,1.5L197.9,1.5z M197.9,33.3c-13.3,0-24.1,10.8-24.1,24.1c0,13.3,10.8,24.1,24.1,24.1c13.3,0,24.1-10.8,24.1-24.1C222.1,44.1,211.3,33.3,197.9,33.3	L197.9,33.3z M197.9,33.3"/></svg>