<svg xmlns="http://www.w3.org/2000/svg" xmlns:xlink="http://www.w3.org/1999/xlink" id="Layer_1" x="0" y="0" enable-background="new 0 0 288 288" version="1.1" viewBox="0 0 288 288" xml:space="preserve"><style type="text/css"/><g><path d="M153,1.2c-0.2,0-0.3,0-0.5,0v133.7h134.3C286.7,61.1,226.8,1.2,153,1.2z"/><path d="M135.1,16.3C60.6,16.8,0.3,77.3,0.3,151.9c0,74.9,60.7,135.7,135.7,135.7s135.7-60.7,135.7-135.7H135.1V16.3z M245.1,175.9 c-4.5,20.7-14.8,39.6-30.1,55c-21.1,21.1-49.1,32.7-79,32.7S78.1,252,57,230.9s-32.7-49.1-32.7-79c0-29.7,11.5-57.6,32.5-78.7 C71.9,58,90.7,47.7,111.1,43.1v108.9v24h24H245.1z"/></g></svg>