<svg xmlns="http://www.w3.org/2000/svg" xmlns:xlink="http://www.w3.org/1999/xlink" id="Layer_1" x="0" y="0" enable-background="new 0 0 235.1 288" version="1.1" viewBox="0 0 235.1 288" xml:space="preserve"><style type="text/css"/><g><path d="M233.6,246.4l-26.7-53.3c-1.8-3.6-5.4-5.8-9.4-5.8c-1.6,0-3.2,0.4-4.7,1.1c-2.5,1.2-4.4,3.4-5.2,6c-0.9,2.6-0.7,5.5,0.6,8 l13.7,27.4c0.5,1,0.4,2.2-0.3,3.1c-0.7,0.9-1.9,1.3-2.9,1l-25.2-6.3c-0.8-0.2-1.7-0.3-2.6-0.3c-3.5,0-6.7,1.7-8.6,4.7l-15.6,23.3 c-0.5,0.8-1.4,1.3-2.4,1.3s-1.9-0.5-2.4-1.3l-15.1-22.6c-0.6-0.9-0.6-2-0.2-2.9l10.2-20.4c0.6-1.1,1.8-1.8,3.1-1.5 c3.5,0.7,6.8,0.5,9.9-0.6c9.1-3.1,13.2-12,16.4-19.2l0.2-0.4c2.2-4.8,2.9-6.2,3.5-6.9c0.2-0.3,0.5-0.6,0.9-0.7 c1.3-0.7,3.9-1.2,8.4-1.8c7.6-1.1,16.9-2.4,22.5-10.4c5.3-7.7,3.8-16.8,2.4-24.8c-1.1-6.3-1.2-8.2-1-9.2c0-0.3,0.1-0.5,0.2-0.7 c0.7-1.4,2.4-3.3,5.7-6.6c5.5-5.5,12.4-12.3,12.4-22.1s-6.9-16.6-12.4-22.1c-3.4-3.4-4.9-5-5.5-6.1c-0.1-0.2-0.2-0.5-0.3-0.7 c-0.3-1.5-0.1-4,0.9-9.6c1.4-8,3-17.1-2.4-24.8c-5.5-8-15-9.3-22.5-10.4l-0.5-0.1c-4.9-0.7-6.3-0.9-7.1-1.2 c-0.4-0.2-0.8-0.4-1.1-0.7c-1.1-1.1-2.3-3.6-4.3-7.9c-3.3-7.2-7.3-16.1-16.4-19.2c-1.9-0.7-3.9-1-6-1c-6.7,0-13,3.5-18,6.3 c-4.7,2.7-6.3,3.5-7.3,3.7c-0.4,0.1-0.8,0.1-1.2,0.1c-1.5-0.2-3.9-1.5-8.1-3.8c-5-2.8-11.3-6.4-18-6.4c-2.1,0-4,0.3-6,1 c-9.1,3.1-13.2,12-16.4,19.1c-2.6,5.9-3.2,6.8-3.6,7.3c-0.3,0.3-0.6,0.6-0.9,0.8c-1.3,0.7-3.7,1.1-8.3,1.8C48.4,31.7,39,33,33.5,41 c-5.4,7.7-3.8,16.8-2.4,24.8l0.1,0.3c0.9,5.2,1.2,7.5,1,8.9c0,0.2-0.1,0.5-0.2,0.7c-0.7,1.4-2.5,3.3-5.8,6.6 c-5.5,5.5-12.3,12.3-12.3,22c0,9.8,6.9,16.6,12.4,22.1c3.8,3.7,5.1,5.2,5.6,6.1c0.1,0.2,0.2,0.5,0.3,0.8c0.3,1.6,0,4.4-0.9,9.4v0.2 c-1.4,8-2.9,17.1,2.4,24.7c5.5,8,15,9.3,22.5,10.4c5.2,0.7,6.8,1,7.6,1.3c0.4,0.2,0.7,0.4,1,0.7c1.1,1.1,2.3,3.6,4.3,8 c3.3,7.1,7.3,16,16.4,19.1c2,0.7,3.9,1,6,1c6.7,0,13-3.5,18-6.3c0.8-0.4,1.8-1,2.7-1.5c1.1-0.6,2.5-0.4,3.4,0.5s1.1,2.2,0.6,3.4 L92,252.5c-0.5,0.9-1.4,1.5-2.4,1.6s-2-0.4-2.6-1.3l-13.9-20.9c-2-2.9-5.2-4.7-8.7-4.7c-0.9,0-1.7,0.1-2.6,0.3l-25.2,6.3 c-1.1,0.3-2.2-0.1-2.9-1s-0.8-2.1-0.3-3.1l13.7-27.4c1.2-2.5,1.5-5.3,0.6-8c-0.9-2.6-2.7-4.8-5.2-6c-1.5-0.7-3-1.1-4.6-1.1 c-4,0-7.6,2.2-9.4,5.8L1.8,246.3c-1.8,3.6-1.4,8,1.2,11.2c2,2.5,5,3.9,8.2,3.9c0.9,0,1.7-0.1,2.5-0.3l44.2-11 c1.2-0.3,2.4,0.2,3.1,1.2l21.4,32.2c1.9,2.9,5.2,4.7,8.7,4.7c0.1,0,0.3,0,0.4,0h0.2c3.7-0.2,7-2.4,8.7-5.8l12.6-25.2 c0.5-0.9,1.4-1.5,2.4-1.6s2,0.4,2.5,1.3l17.7,26.7c1.9,2.9,5.2,4.7,8.7,4.7s6.8-1.7,8.7-4.7l21.4-32.2c0.7-1,1.9-1.5,3.1-1.2 l44.2,11.1c0.8,0.2,1.7,0.3,2.5,0.3c3.1,0,6.2-1.5,8.1-3.9C235,254.5,235.4,250.1,233.6,246.4z M94.3,183.6 c-1.3,0.6-2.9,0.1-3.6-1.1c-0.9-1.7-2-4-2.6-5.4c-2.6-5.7-5.3-11.5-10.4-15.4c-5.3-4-11.5-4.9-17.6-5.8c-2.6-0.3-4.5-0.7-5.8-1 s-2.2-1.5-2.1-2.8c0.1-1.9,0.6-4.4,1-6.6c1.1-6.2,2.2-12.6,0.2-18.9c-1.9-6.2-6.4-10.6-10.7-14.8l-0.2-0.2 c-1.4-1.4-3.5-3.5-4.7-5.1c-0.7-1-0.7-2.3,0-3.3c1.1-1.5,3.1-3.5,5-5.4c4.3-4.3,8.7-8.6,10.6-14.8c1.9-6.2,0.8-12.7-0.2-18.9 c-0.4-2.4-0.8-4.8-1-6.6c-0.1-1.3,0.8-2.5,2.1-2.8c1.6-0.4,3.7-0.7,5.8-1c6.1-0.8,12.4-1.7,17.6-5.7c5.1-3.9,7.8-9.8,10.4-15.4 c0.6-1.3,1.7-3.6,2.6-5.4c0.7-1.2,2.3-1.8,3.6-1.2c1.4,0.7,3.1,1.6,4.4,2.4l0.1,0.1c5.2,2.9,11.1,6.3,17.9,6.3 c6.8,0,13-3.5,17.9-6.3l0.4-0.2c1.2-0.7,2.8-1.5,4.1-2.2c1.3-0.6,2.9-0.1,3.6,1.1c0.9,1.7,2,3.9,2.6,5.4 c2.6,5.7,5.2,11.5,10.4,15.4c5.3,4,11.6,4.9,17.7,5.8c1.6,0.2,4,0.6,5.7,1c1.3,0.3,2.2,1.5,2.1,2.9c-0.1,1.9-0.6,4.4-0.9,6.4v0.3 c-1.1,6.2-2.2,12.6-0.2,18.9c1.9,6.1,6.4,10.6,10.7,14.9c1.8,1.8,3.8,3.8,4.9,5.3c0.7,1,0.7,2.3,0,3.3c-1.2,1.5-3.1,3.5-5,5.4 c-4.3,4.3-8.7,8.7-10.6,14.8c-2,6.3-0.8,12.7,0.2,18.9v0.3c0.3,2,0.8,4.5,0.9,6.3c0.1,1.4-0.8,2.6-2.1,2.9c-1.4,0.3-3.2,0.6-5.8,1 c-6.1,0.9-12.4,1.7-17.6,5.8c-5.1,3.9-7.8,9.8-10.4,15.4l-0.1,0.3c-0.7,1.5-1.6,3.5-2.5,5.1c-0.7,1.2-2.3,1.8-3.6,1.1 c-1.3-0.6-2.8-1.5-4.2-2.3l-0.3-0.2c-5-2.8-11.1-6.3-17.9-6.3c-6.7,0-12.7,3.3-17.9,6.3C97.2,182,95.7,182.9,94.3,183.6z"/><path d="M165.5,104.7c0-26.9-21.9-48.8-48.8-48.8s-48.8,21.9-48.8,48.8s21.9,48.8,48.8,48.8S165.5,131.6,165.5,104.7z M88.2,104.7 c0-15.7,12.8-28.5,28.5-28.5s28.5,12.8,28.5,28.5s-12.8,28.5-28.5,28.5C101,133.2,88.2,120.4,88.2,104.7z"/></g></svg>