<svg xmlns="http://www.w3.org/2000/svg" xmlns:xlink="http://www.w3.org/1999/xlink" id="Layer_1" x="0" y="0" enable-background="new 0 0 288 288" version="1.1" viewBox="0 0 288 288" xml:space="preserve"><style type="text/css"/><g><path d="M74,24v238H25V24H74 M87.1,0H11.9C5.9,0,1,4.9,1,10.9v264.2c0,6,4.9,10.9,10.9,10.9h75.2c6,0,10.9-4.9,10.9-10.9V10.9 C98,4.9,93.1,0,87.1,0L87.1,0z"/></g><g><path d="M170.4,286H113c-6.6,0-12-5.4-12-12s5.4-12,12-12h56V24h-56c-6.6,0-12-5.4-12-12s5.4-12,12-12h57.4 C182.9,0,193,10.1,193,22.6v240.9C193,275.9,182.9,286,170.4,286z M170.4,24L170.4,24L170.4,24z"/></g><g><path d="M259,225H16c-6.6,0-12-5.4-12-12s5.4-12,12-12h243c6.6,0,12,5.4,12,12S265.6,225,259,225z"/></g><g><path d="M59,66H40c-6.6,0-12-5.4-12-12s5.4-12,12-12h19c6.6,0,12,5.4,12,12S65.6,66,59,66z"/></g><g><path d="M59,101H40c-6.6,0-12-5.4-12-12s5.4-12,12-12h19c6.6,0,12,5.4,12,12S65.6,101,59,101z"/></g><g><path d="M143,63h-19c-6.6,0-12-5.4-12-12s5.4-12,12-12h19c6.6,0,12,5.4,12,12S149.6,63,143,63z"/></g><g><path d="M143,98h-19c-6.6,0-12-5.4-12-12s5.4-12,12-12h19c6.6,0,12,5.4,12,12S149.6,98,143,98z"/></g><g><path d="M260.4,286H203c-6.6,0-12-5.4-12-12s5.4-12,12-12h56V24h-56c-6.6,0-12-5.4-12-12s5.4-12,12-12h57.4 C272.9,0,283,10.1,283,22.6v240.9C283,275.9,272.9,286,260.4,286z M260.4,24L260.4,24L260.4,24z"/></g><g><path d="M234,62h-19c-6.6,0-12-5.4-12-12s5.4-12,12-12h19c6.6,0,12,5.4,12,12S240.6,62,234,62z"/></g><g><path d="M234,97h-19c-6.6,0-12-5.4-12-12s5.4-12,12-12h19c6.6,0,12,5.4,12,12S240.6,97,234,97z"/></g></svg>