<svg xmlns="http://www.w3.org/2000/svg" xmlns:xlink="http://www.w3.org/1999/xlink" id="Layer_1" x="0" y="0" enable-background="new 0 0 255.5 288" version="1.1" viewBox="0 0 255.5 288" xml:space="preserve"><style type="text/css"/><g><path d="M127.5,274.9C57.6,274.9,0.7,218,0.7,148.1S57.6,21.3,127.5,21.3s126.8,56.9,126.8,126.8S197.4,274.9,127.5,274.9z M127.5,46.2C71.4,46.2,25.7,91.9,25.7,148c0,56.1,45.7,101.8,101.8,101.8c56.1,0,101.8-45.7,101.8-101.8 C229.3,91.9,183.6,46.2,127.5,46.2z"/></g><g><path d="M170.6,194.3c-2.7,0-5.3-0.8-7.6-2.6l-48.9-37.5V70.4c0-6.9,5.6-12.5,12.5-12.5s12.5,5.6,12.5,12.5v71.5l39.1,30 c5.5,4.2,6.5,12,2.3,17.5C178,192.6,174.3,194.3,170.6,194.3z"/></g></svg>