<?xml version="1.0" encoding="utf-8"?>
<!-- Generator: Adobe Illustrator 24.0.3, SVG Export Plug-In . SVG Version: 6.00 Build 0)  -->
<svg version="1.1" id="Layer_1" xmlns="http://www.w3.org/2000/svg" xmlns:xlink="http://www.w3.org/1999/xlink" x="0px" y="0px"
	 viewBox="0 0 307.7 288" style="enable-background:new 0 0 307.7 288;" xml:space="preserve">
<style type="text/css">
	.st0{fill:#FFFFFF;}
	.st1{fill:none;}
	.st2{fill:#010101;}
	.st3{fill-rule:evenodd;clip-rule:evenodd;fill:#010101;}
	.st4{fill:#020202;}
	.st5{fill:#1A1A1A;}
	.st6{fill:none;stroke:#000000;stroke-width:18;stroke-miterlimit:10;}
	.st7{fill:none;stroke:#000000;stroke-width:18;stroke-linecap:round;stroke-miterlimit:10;}
</style>
<path d="M280.6,16.5H26.9C13,16.5,1.7,27.8,1.7,41.7v153.1c0,13.9,11.3,25.2,25.2,25.2h110.7v24.1h-78c-8.1,0-14.6,6.5-14.6,14.6
	c0,8.1,6.5,14.6,14.6,14.6h184.6c8.1,0,14.6-6.5,14.6-14.6c0-8.1-6.5-14.6-14.6-14.6h-77.3v-24.1h113.8c13.9,0,25.2-11.3,25.2-25.2
	V41.7C305.8,27.8,294.5,16.5,280.6,16.5z M81.9,176.1c-30.2,0-54.7-24.5-54.7-54.7c0-30.1,24.3-54.5,54.3-54.7v54.7h55
	C136.6,151.6,112.1,176.1,81.9,176.1z M94.7,107.4V53.5c0.1,0,0.1,0,0.2,0c29.8,0,53.9,24.1,53.9,53.9H94.7z M197.7,175.2h-27.9
	V93.6h27.9V175.2z M237.1,175.2h-27.9V63.4h27.9V175.2z M276.5,175.2h-27.9v-40.1h27.9V175.2z"/>
</svg>
