<svg xmlns="http://www.w3.org/2000/svg" xmlns:xlink="http://www.w3.org/1999/xlink" id="Layer_1" x="0" y="0" enable-background="new 0 0 230.7 288" version="1.1" viewBox="0 0 230.7 288" xml:space="preserve"><style type="text/css"/><path id="Icon_awesome-flag" d="M155.9,71c-24.4,0-44.5-15.8-75.2-15.8c-10.6,0-21.1,1.8-31,5.5c5-13.2-1.5-27.9-14.7-32.9	c-13.2-5-27.9,1.5-32.9,14.7c-4.2,10.9-0.4,23.3,9.2,30v184.8c0,6,4.9,10.9,10.9,10.9l0,0h7.3c6,0,10.9-4.9,10.9-10.9v-52.1	c16.5-7,34.2-10.4,52.1-10.1c24.4,0,44.5,15.8,75.2,15.8c20.1-0.2,39.6-6.7,55.8-18.6c3.9-2.7,6.3-7.2,6.3-12V69.6	c0-8-6.5-14.6-14.6-14.6c-2.1,0-4.2,0.5-6.2,1.4C192.6,65,174.4,70,155.9,71L155.9,71z"/></svg>