<svg xmlns="http://www.w3.org/2000/svg" xmlns:xlink="http://www.w3.org/1999/xlink" id="Layer_1" x="0" y="0" enable-background="new 0 0 152.7 288" version="1.1" viewBox="0 0 152.7 288" xml:space="preserve"><style type="text/css"/><g><g><path d="M66.6,220H40.2v12.4c0,2,0.4,9.1,4.4,13.8c3.6,4.3,9.4,5.6,13.5,6c0.2,1.5,0.6,3.9,2.1,5.6c2.3,2.8,6.6,3.1,8.4,3.1v-4.6 l0,0l0,4.6h2.6l11.8,0c1.7,0,6-0.3,8.3-3.1c1.5-1.7,2-4.1,2.1-5.6c4.1-0.4,9.9-1.8,13.5-6c4-4.8,4.4-11.8,4.4-13.9V220H84.9H66.6z"/></g><g><path d="M75.8,35C34.3,35,0.5,68.8,0.5,110.3c0,12.4,3.1,24.2,9.3,36c0,0,0,0.1,0.1,0.1c0,0.1,0.3,0.6,0.8,1.5 c0.5,0.9,1,1.9,1.6,2.8c0.2,0.4,0.5,0.7,0.8,1.1c1.3,2.1,3.1,4.6,5.2,7.3c1.3,1.7,2.8,3.5,4.3,5.4c5,6.2,11.3,14,13,18.4 c4,10.4,4.7,18.2,4.7,18.2l0.7,8.4h34.9h34.9l0.7-8.4c0-0.1,0.7-7.8,4.7-18.2c1.7-4.4,7.9-12.1,13-18.4c1.5-1.9,3-3.7,4.3-5.4 c2.1-2.7,3.9-5.2,5.2-7.3c0.3-0.3,0.5-0.7,0.8-1.1c0.6-0.9,1.1-1.9,1.6-2.8c0.5-0.9,0.8-1.4,0.8-1.5c0,0,0-0.1,0.1-0.1 c6.3-11.8,9.3-23.7,9.3-36C151.1,68.8,117.3,35,75.8,35z M76.7,80.1c-13.1,4.2-23.4,15-26.7,28.4c-0.7,2.9-3.4,4.9-6.3,4.9 c-0.5,0-1.1-0.1-1.6-0.2c-3.5-0.9-5.6-4.4-4.7-7.9c4.5-17.6,18-32,35.4-37.5c3.4-1.1,7.1,0.8,8.2,4.2C82,75.3,80.1,79,76.7,80.1z"/></g></g></svg>