<?xml version="1.0" encoding="utf-8"?>
<!-- Generator: Adobe Illustrator 24.0.3, SVG Export Plug-In . SVG Version: 6.00 Build 0)  -->
<svg version="1.1" id="Layer_1" xmlns="http://www.w3.org/2000/svg" xmlns:xlink="http://www.w3.org/1999/xlink" x="0px" y="0px"
	 viewBox="0 0 270.7 288" style="enable-background:new 0 0 270.7 288;" xml:space="preserve">
<style type="text/css">
	.st0{fill:#FFFFFF;}
	.st1{fill:none;}
	.st2{fill:#010101;}
	.st3{fill-rule:evenodd;clip-rule:evenodd;fill:#010101;}
	.st4{fill:#020202;}
	.st5{fill:#1A1A1A;}
	.st6{fill:none;stroke:#000000;stroke-width:18;stroke-miterlimit:10;}
	.st7{fill:none;stroke:#000000;stroke-width:18;stroke-linecap:round;stroke-miterlimit:10;}
</style>
<g>
	<path d="M264.3,2.8c-5.8-3.4-13.2-1.5-16.7,4.3l-16.3,27.6L220.7,8.2l-43.9,67.2c-3.7,5.6-2.1,13.2,3.5,16.8c2.1,1.3,4.4,2,6.6,2
		c4,0,7.9-1.9,10.2-5.5l18.3-28l11.6,29.1l41.4-70.3C272,13.7,270,6.3,264.3,2.8z"/>
	<path d="M251.2,138.8l-28.7-25.1c-10.5-9.2-26.6-8.2-35.8,2.4l-64.3,73.4c-10.5,12-21.6,11.7-28.1,6c-6.4-5.6-8.2-16.7,2.2-28.7
		l64.3-73.4c9.2-10.5,8.2-26.6-2.4-35.8l-28.6-25c-5.1-4.5-11.7-6.7-18.5-6.2c-6.8,0.5-13,3.6-17.5,8.8C89.6,40.3,79.5,52,71.5,61.2
		L71.2,61L47.4,88.1l0.3,0.2c-8.2,9.3-19,21.5-21.7,24.2l-0.4,0.4c-19.1,21.8-27.4,50-23.4,79.3c3.6,26.4,16.6,51.1,35.8,67.9
		c19.1,16.8,45.2,26.3,71.7,26.3c0.1,0,0.1,0,0.2,0c29.5-0.1,56.2-12.1,75.3-33.9l68.5-78.1C262.8,164.1,261.8,148,251.2,138.8z
		 M112.5,51c0.1-0.1,0.3-0.3,0.7-0.4c0.3,0,0.5,0.1,0.8,0.3l28.6,25c0.4,0.4,0.5,1,0.1,1.5l-22.1,25.2l-30-26.3
		C98.5,67.2,108.2,56,112.5,51z M166.8,236.7C136,271.9,83.6,267.8,54,241.9c-14.6-12.8-25-32.5-27.7-52.9
		c-3-22.2,3.2-43.5,17.4-59.9c3.9-4.1,17.9-20,29.8-33.4l0.2-0.2l0,0l0.8-0.9l29.9,26.2l-26.1,29.8c-20.5,23.4-15.5,49.4,0,63
		c15.5,13.6,41.9,15.1,62.4-8.3l26.1-29.8l30.2,26.5L166.8,236.7z M235.3,158.6l-22.1,25.2L183,157.3l22.1-25.2
		c0.4-0.4,1-0.5,1.5-0.1l28.7,25.1C235.6,157.5,235.7,158.1,235.3,158.6z"/>
</g>
</svg>
