<svg xmlns="http://www.w3.org/2000/svg" xmlns:xlink="http://www.w3.org/1999/xlink" id="Layer_1" x="0" y="0" enable-background="new 0 0 288 288" version="1.1" viewBox="0 0 288 288" xml:space="preserve"><style type="text/css"/><g><path d="M278.8,203.1l-62.6-26.8c-5.5-2.3-11.9-0.8-15.6,3.9l-27.7,33.9c-43.5-20.5-78.5-55.5-99-99l33.9-27.7 c4.6-3.8,6.2-10.2,3.9-15.6L84.8,9c-2.6-5.9-9-9.2-15.4-7.8L11.4,14.7C5.3,16.1,1,21.5,1,27.8C1,171,117.1,287,260.2,287 c6.2,0,11.7-4.3,13.1-10.4l13.4-58.1C288.1,212.1,284.8,205.6,278.8,203.1L278.8,203.1z"/></g></svg>