<svg xmlns="http://www.w3.org/2000/svg" xmlns:xlink="http://www.w3.org/1999/xlink" id="Layer_1" x="0" y="0" enable-background="new 0 0 196.3 288" version="1.1" viewBox="0 0 196.3 288" xml:space="preserve"><style type="text/css"/><g><path d="M20.2,125.8c-0.3,0.6-0.5,1.3-0.8,1.9L4.8,168.5c-13.9,38.7,6.1,81.4,44.8,95.3l0,0c38.7,13.9,81.4-6.1,95.3-44.8 l14.7-40.7c0.2-0.7,0.4-1.3,0.7-2L20.2,125.8z"/></g><g><path d="M166.9,171.1L18.4,117.7C7.7,113.8,2.1,102,6,91.3l1.6-4.4C11.4,76.1,23.3,70.6,34,74.4l148.5,53.5 c10.7,3.9,16.3,15.7,12.4,26.4l-1.6,4.4C189.4,169.4,177.6,175,166.9,171.1z"/></g><g><path d="M58.8,284.7l-29.4-10.6c-4.8-1.7-7.4-7.1-5.6-11.9l4-11.2l46.9,16.9l-4,11.2C68.9,283.9,63.6,286.4,58.8,284.7z"/></g><g><g><path d="M180.8,36.4c-6.2-2.2-13.1,1-15.4,7.2l-22.8,63.2l22.6,8.1L188,51.8C190.2,45.6,187,38.7,180.8,36.4z"/></g></g><g><g><path d="M78.6,83.8l22.8-63.2c2.2-6.2-1-13.1-7.2-15.4c-6.2-2.2-13.1,1-15.4,7.2L56.1,75.7L78.6,83.8z"/></g></g></svg>