<?xml version="1.0" encoding="utf-8"?>
<!-- Generator: Adobe Illustrator 23.1.1, SVG Export Plug-In . SVG Version: 6.00 Build 0)  -->
<svg version="1.1" id="Layer_1" xmlns="http://www.w3.org/2000/svg" xmlns:xlink="http://www.w3.org/1999/xlink" x="0px" y="0px"
	 viewBox="0 0 288 288" style="enable-background:new 0 0 288 288;" xml:space="preserve">
<style type="text/css">
	.st0{fill:none;stroke:#000000;stroke-width:17;stroke-linecap:round;stroke-miterlimit:10;}
</style>
<g>
	<path d="M144,76.9c8.3,0,15.8,3.4,21.3,8.8s8.8,13,8.8,21.3s-3.4,15.8-8.8,21.3c-5.4,5.4-13,8.8-21.3,8.8s-15.8-3.4-21.3-8.8
		c-5.4-5.4-8.8-13-8.8-21.3s3.4-15.8,8.8-21.3S135.7,76.9,144,76.9z"/>
</g>
<g>
	<path d="M144,148.7c-11.4,0-21.7,3-29.2,10.9s-12.1,20.5-12.1,39.7s4.6,41.4,12.1,58.8S132.6,288,144,288s21.7-12.5,29.2-29.9
		c7.5-17.4,12.1-39.5,12.1-58.8s-4.6-31.9-12.1-39.7C165.7,151.7,155.4,148.7,144,148.7z"/>
</g>
<g>
	<path class="st0" d="M102.8,155.5"/>
</g>
<g>
	<path class="st0" d="M90.8,190.5"/>
</g>
<g>
	<path d="M202.3,195.5c-2.6,0-5.2-1.2-6.9-3.5c-2.8-3.8-1.9-9.1,1.9-11.9c1.5-1.1,3-2.2,4.4-3.4c1.4-1.2,2.8-2.4,4.2-3.7
		c1.4-1.3,2.7-2.6,4-3.9c1.3-1.3,2.5-2.7,3.7-4.2c1.2-1.4,2.3-2.9,3.4-4.4c1.1-1.5,2.2-3.1,3.2-4.6c1-1.6,2-3.2,2.9-4.8
		c0.9-1.6,1.8-3.3,2.6-5c0.8-1.7,1.6-3.4,2.3-5.2c0.7-1.7,1.4-3.5,2-5.3c0.6-1.8,1.2-3.6,1.6-5.5c0.5-1.8,0.9-3.7,1.3-5.6
		c0.4-1.9,0.7-3.8,0.9-5.7c0.3-1.9,0.4-3.9,0.6-5.9c0.1-2,0.2-4,0.2-6c0-3.1-0.2-6.2-0.5-9.2c-0.3-3-0.8-6-1.4-9
		c-0.6-2.9-1.3-5.8-2.2-8.7c-0.9-2.8-1.9-5.6-3-8.3c-1.1-2.7-2.4-5.3-3.8-7.9c-1.4-2.5-2.9-5.1-4.5-7.5c-1.6-2.4-3.4-4.7-5.2-7
		c-1.8-2.2-3.8-4.4-5.8-6.4c-2-2-4.2-4-6.4-5.8s-4.6-3.6-7-5.2c-2.4-1.6-4.9-3.2-7.5-4.5c-2.6-1.4-5.2-2.7-7.9-3.8
		c-2.7-1.1-5.5-2.2-8.3-3c-2.8-0.9-5.8-1.6-8.7-2.2c-3-0.6-6-1.1-9-1.4c-6.1-0.6-12.4-0.6-18.5,0c-3,0.3-6,0.8-9,1.4
		c-2.9,0.6-5.8,1.3-8.7,2.2c-2.8,0.9-5.6,1.9-8.3,3c-2.7,1.1-5.3,2.4-7.9,3.8c-2.5,1.4-5.1,2.9-7.5,4.5c-2.4,1.6-4.7,3.4-7,5.2
		C84.2,39,82,41,80,43c-2,2-4,4.2-5.8,6.4c-1.8,2.2-3.6,4.6-5.2,7c-1.6,2.4-3.1,4.9-4.5,7.5c-1.4,2.6-2.7,5.2-3.8,7.9
		c-1.1,2.7-2.2,5.5-3,8.3c-0.9,2.8-1.6,5.8-2.2,8.7c-0.6,3-1.1,6-1.4,9c-0.3,3.1-0.5,6.2-0.5,9.3c0,2,0.1,4,0.2,6
		c0.1,2,0.3,3.9,0.6,5.9c0.3,1.9,0.6,3.9,0.9,5.7c0.4,1.9,0.8,3.8,1.3,5.6c0.5,1.8,1,3.7,1.6,5.5c0.6,1.8,1.3,3.6,2,5.3
		c0.7,1.7,1.5,3.5,2.3,5.2c0.8,1.7,1.7,3.4,2.6,5c0.9,1.6,1.9,3.2,2.9,4.8c1,1.6,2.1,3.1,3.2,4.6c1.1,1.5,2.3,3,3.4,4.4
		c1.2,1.4,2.4,2.8,3.7,4.2c1.3,1.4,2.6,2.7,4,3.9c1.4,1.3,2.8,2.5,4.2,3.7c1.4,1.2,2.9,2.3,4.4,3.4c3.8,2.8,4.6,8.1,1.9,11.9
		c-2.8,3.8-8.1,4.6-11.9,1.9c-1.8-1.3-3.5-2.7-5.2-4.1c-1.7-1.4-3.4-2.9-5-4.4c-1.6-1.5-3.2-3.1-4.7-4.7c-1.5-1.6-3-3.3-4.4-5
		c-1.4-1.7-2.8-3.4-4.1-5.2c-1.3-1.8-2.6-3.6-3.8-5.5c-1.2-1.9-2.4-3.8-3.4-5.7c-1.1-1.9-2.1-3.9-3.1-5.9c-1-2-1.9-4.1-2.7-6.1
		c-0.8-2.1-1.6-4.2-2.3-6.3c-0.7-2.1-1.4-4.3-2-6.5c-0.6-2.2-1.1-4.5-1.5-6.7c-0.4-2.2-0.8-4.5-1.1-6.8c-0.3-2.3-0.5-4.6-0.7-7
		c-0.2-2.3-0.2-4.7-0.2-7.1c0-3.7,0.2-7.4,0.6-11c0.4-3.6,0.9-7.2,1.6-10.7c0.7-3.5,1.6-6.9,2.6-10.3c1-3.3,2.3-6.7,3.6-9.9
		c1.3-3.2,2.9-6.4,4.5-9.4c1.6-3,3.5-6,5.4-8.9c1.9-2.8,4-5.6,6.2-8.3c2.2-2.6,4.5-5.2,6.9-7.6c2.4-2.4,5-4.8,7.6-6.9
		c2.6-2.2,5.4-4.3,8.3-6.2c2.9-1.9,5.8-3.7,8.9-5.4c3.1-1.7,6.2-3.2,9.4-4.5c3.2-1.4,6.5-2.6,9.9-3.6c3.4-1,6.8-1.9,10.3-2.6
		c3.5-0.7,7.1-1.3,10.7-1.6c7.2-0.7,14.7-0.7,22,0c3.6,0.4,7.2,0.9,10.7,1.6c3.5,0.7,6.9,1.6,10.3,2.7c3.3,1,6.7,2.3,9.9,3.6
		c3.2,1.4,6.4,2.9,9.4,4.5c3,1.6,6,3.5,8.9,5.4c2.8,1.9,5.6,4,8.3,6.2c2.6,2.2,5.2,4.5,7.6,6.9c2.4,2.4,4.8,5,6.9,7.6
		c2.2,2.7,4.3,5.4,6.2,8.3c1.9,2.9,3.7,5.8,5.4,8.9c1.7,3.1,3.2,6.2,4.5,9.4c1.4,3.2,2.6,6.5,3.6,9.9c1,3.4,1.9,6.8,2.6,10.3
		c0.7,3.5,1.3,7.1,1.6,10.7c0.4,3.6,0.6,7.3,0.6,11c0,2.4-0.1,4.7-0.2,7.1c-0.2,2.3-0.4,4.6-0.7,7c-0.3,2.3-0.7,4.6-1.1,6.8
		c-0.4,2.2-1,4.5-1.5,6.7c-0.6,2.2-1.2,4.4-2,6.5c-0.7,2.1-1.5,4.3-2.3,6.3c-0.8,2.1-1.8,4.1-2.7,6.1c-1,2-2,4-3.1,5.9
		c-1.1,1.9-2.2,3.8-3.4,5.7c-1.2,1.8-2.5,3.7-3.8,5.5c-1.3,1.8-2.7,3.5-4.1,5.2c-1.4,1.7-2.9,3.3-4.4,4.9c-1.5,1.6-3.1,3.2-4.7,4.7
		c-1.6,1.5-3.3,3-5,4.4c-1.7,1.4-3.5,2.8-5.2,4.1C205.7,195,204,195.5,202.3,195.5z"/>
</g>
<g>
	<path class="st0" d="M185.2,155.5"/>
</g>
<g>
	<path d="M97.9,159.4c-2.2,0-4.5-0.9-6.2-2.6c-1.8-1.8-3.4-3.8-5-5.8c-1.6-2-3-4.1-4.4-6.3c-1.3-2.2-2.6-4.5-3.7-6.8
		c-1.1-2.3-2.1-4.8-3-7.2c-0.9-2.5-1.6-5-2.2-7.6c-0.6-2.6-1-5.2-1.3-7.9c-0.3-2.7-0.5-5.4-0.5-8.1c0-4.9,0.5-9.8,1.5-14.5
		c0.9-4.6,2.4-9.2,4.2-13.5c1.8-4.3,4-8.4,6.7-12.2c2.6-3.8,5.5-7.4,8.8-10.7c3.3-3.3,6.8-6.2,10.7-8.8c3.9-2.6,8-4.8,12.2-6.7
		c4.4-1.8,8.9-3.3,13.5-4.2c9.5-1.9,19.5-1.9,29,0c4.6,0.9,9.2,2.4,13.5,4.2c4.3,1.8,8.4,4,12.2,6.7c3.8,2.6,7.4,5.5,10.7,8.8
		c3.3,3.3,6.2,6.8,8.8,10.7c2.6,3.9,4.8,8,6.7,12.3c1.8,4.4,3.3,8.9,4.2,13.5c1,4.7,1.5,9.6,1.5,14.5c0,2.7-0.2,5.4-0.5,8.1
		c-0.3,2.6-0.7,5.3-1.3,7.9c-0.6,2.5-1.3,5.1-2.2,7.6c-0.8,2.4-1.8,4.9-2.9,7.2c-1.1,2.3-2.3,4.6-3.7,6.8c-1.3,2.2-2.8,4.3-4.4,6.3
		c-1.6,2-3.2,4-5,5.8c-3.2,3.4-8.6,3.5-12,0.3c-3.4-3.2-3.5-8.6-0.3-12c1.3-1.4,2.6-2.9,3.8-4.5c1.2-1.5,2.3-3.2,3.3-4.8
		c1-1.7,2-3.4,2.8-5.2c0.8-1.8,1.6-3.6,2.2-5.5c0.7-1.9,1.2-3.8,1.6-5.8c0.4-2,0.8-4,1-6c0.2-2,0.3-4.1,0.3-6.2
		c0-3.7-0.4-7.5-1.1-11.1c-0.7-3.5-1.8-7-3.2-10.3c-1.4-3.3-3.1-6.4-5.1-9.4c-2-2.9-4.2-5.7-6.7-8.2c-2.5-2.5-5.2-4.8-8.2-6.7
		c-2.9-2-6.1-3.7-9.4-5.1c-3.3-1.4-6.8-2.5-10.3-3.2c-7.3-1.5-15-1.5-22.2,0c-3.5,0.7-7,1.8-10.3,3.2c-3.3,1.4-6.4,3.1-9.4,5.1
		c-2.9,2-5.7,4.2-8.2,6.7c-2.5,2.5-4.8,5.2-6.7,8.2c-2,2.9-3.7,6.1-5.1,9.4c-1.4,3.3-2.5,6.8-3.2,10.3c-0.7,3.6-1.1,7.4-1.1,11.1
		c0,2.1,0.1,4.2,0.4,6.2c0.2,2,0.6,4,1,6c0.4,1.9,1,3.9,1.7,5.8c0.6,1.9,1.4,3.7,2.3,5.5c0.8,1.8,1.8,3.5,2.8,5.2
		c1,1.7,2.1,3.3,3.3,4.8c1.2,1.5,2.5,3,3.8,4.5c3.2,3.4,3.1,8.8-0.3,12C102.1,158.6,100,159.4,97.9,159.4z"/>
</g>
</svg>
