<svg xmlns="http://www.w3.org/2000/svg" xmlns:xlink="http://www.w3.org/1999/xlink" id="Layer_1" x="0" y="0" enable-background="new 0 0 221.1 288" version="1.1" viewBox="0 0 221.1 288" xml:space="preserve"><style type="text/css"/><g><path d="M217,73.6L147.9,5.1c-2-2.1-4.8-3.2-7.6-3.2H23.7C11.1,1.9,0.9,12.1,0.9,24.7v237.6c0,12.6,10.2,22.8,22.8,22.8h173.7 c12.6,0,22.8-10.2,22.8-22.8v-181C220.2,78.4,219,75.6,217,73.6z M144.7,35.8l41.3,41h-41.3V35.8z M24.9,261.1V25.9h95.8v59.2 c0,8.6,7,15.6,15.6,15.6h59.8v160.4H24.9z"/><path d="M173.5,130.5c-1.6-1.5-3.8-2.4-6.2-2.4H49.4c-1.7,0-3.3,0.5-4.6,1.3c-2.8,1.1-4.8,3.3-4.8,5.9v87c0,1.8,1,3.5,2.6,4.7 c1.6,1.9,4.1,3.2,6.9,3.2h117.9c1.9,0,3.7-0.6,5.1-1.6c2.7-1.1,4.5-3.3,4.5-5.8v-87C176.9,133.6,175.6,131.7,173.5,130.5z M158.9,170.3H58V146h101V170.3z M58,188.3h42.1V212H58V188.3z M118.1,188.3h40.8V212h-40.8V188.3z"/></g></svg>