<svg xmlns="http://www.w3.org/2000/svg" xmlns:xlink="http://www.w3.org/1999/xlink" id="Layer_1" x="0" y="0" enable-background="new 0 0 220.7 288" version="1.1" viewBox="0 0 220.7 288" xml:space="preserve"><g><path d="M216.6,74.7L147.5,6.1c-2-2-4.8-3.2-7.7-3.2H23.3C10.7,2.9,0.5,13.1,0.5,25.7v198.7v8.1v30.9c0,12.6,10.2,22.8,22.8,22.8 H197c12.6,0,22.8-10.2,22.8-22.8v-181C219.8,79.5,218.6,76.7,216.6,74.7z M144.3,36.8l41.3,41h-41.3V36.8z M195.7,262.2H24.5v-29.7 v-8.1V27h95.8v59.2c0,8.6,7,15.6,15.6,15.6h59.8L195.7,262.2L195.7,262.2z"/></g><path d="M171.4,186.1c-7.1-7-27.5-5.1-37.7-3.8c-10.1-6.1-16.8-14.6-21.5-27.1c2.3-9.4,5.9-23.8,3.2-32.8	c-2.5-15.3-22.1-13.8-24.9-3.5c-2.6,9.4-0.2,22.5,4.1,39.3c-5.9,14-14.6,32.8-20.7,43.6c-11.7,6-27.5,15.3-29.9,27.1	c-1.9,9.3,15.2,32.3,44.6-18.3c13.1-4.3,27.4-9.7,40.1-11.8c11.1,6,24,10,32.7,10C176,208.8,177.5,192.2,171.4,186.1z M55.4,231.7	c3-8,14.3-17.3,17.8-20.5C62,228.9,55.4,232.1,55.4,231.7z M103.1,120c4.3,0,3.9,18.8,1.1,23.9C101.6,135.8,101.7,120,103.1,120z M88.9,200c5.7-9.9,10.5-21.7,14.5-32c4.9,8.8,11.1,15.9,17.6,20.8C108.8,191.3,98.2,196.5,88.9,200z M165.9,197.1	c0,0-2.9,3.5-21.8-4.6C164.6,191,168,195.7,165.9,197.1z"/></svg>