<svg xmlns="http://www.w3.org/2000/svg" xmlns:xlink="http://www.w3.org/1999/xlink" id="Layer_1" x="0" y="0" enable-background="new 0 0 282.3 288" version="1.1" viewBox="0 0 282.3 288" xml:space="preserve"><style type="text/css"/><g><g><path d="M281.5,255.9l-18.8-37.5c-1.6-3.2-4.8-5.1-8.3-5.1c-1.4,0-2.8,0.3-4.2,1c-2.2,1.1-3.9,3-4.7,5.4c-0.8,2.4-0.6,4.9,0.5,7.1 l9.6,19.3l2.7-1.3l-2.8,1.5l-17.7-4.4c-0.8-0.2-1.5-0.3-2.3-0.3c-3.1,0-6,1.6-7.7,4.2l-11,16.4l2.5,1.7l0,0l-2.6-1.7l-10.6-16 l7.3-14.4c2.8,0.5,5.4,0.4,7.9-0.5c7.2-2.5,10.4-9.4,12.7-14.5l0.1-0.3c1.2-2.6,1.9-4.1,2.2-4.5c0.8-0.4,3-0.7,5.2-1.1 c5.4-0.8,12.8-1.8,17.2-8.1c4.2-6.1,3-13.2,2-18.9c-0.4-2.3-0.9-5.1-0.7-5.8c0.4-0.8,2-2.4,3.7-4.1c3.9-3.9,9.3-9.2,9.3-16.9 s-5.4-13.1-9.3-17c-1.7-1.7-3.2-3.2-3.5-3.8c-0.2-0.9,0.2-3.6,0.7-6c1-5.7,2.2-12.8-2-18.9c-4.4-6.3-11.8-7.4-17.2-8.1h-0.3 c-2.2-0.3-4.2-0.6-4.6-0.8c-0.6-0.7-1.7-2.8-2.6-5c-2.3-5.1-5.5-12.1-12.7-14.5c-1.6-0.5-3.2-0.8-4.8-0.8 c-5.3,0-10.1,2.7-13.6,4.7c-2,1.1-4.1,2.3-4.7,2.4c-0.9-0.1-3-1.3-5-2.4c-3.5-2-8.4-4.7-13.6-4.7c-1.7,0-3.3,0.3-4.8,0.8 c-7.2,2.4-10.4,9.4-12.7,14.5c-1.3,2.9-2.1,4.4-2.3,4.8c-0.7,0.4-2.9,0.7-5.2,1c-5.4,0.8-12.8,1.8-17.2,8.1 c-4.2,6.1-3,13.2-2,18.9v0.2c0.4,2.5,0.8,4.9,0.7,5.6c-0.4,0.8-2,2.5-3.7,4.1c-3.9,3.9-9.3,9.2-9.3,16.9s5.4,13,9.3,16.9 c1.6,1.6,3.3,3.3,3.6,3.9c0.2,0.9-0.2,3.5-0.6,5.9v0.2c-1,5.7-2.2,12.8,2,18.9c4.4,6.3,11.8,7.4,17.2,8.1c2.2,0.3,4.4,0.6,4.9,0.8 c0.6,0.7,1.7,2.8,2.7,5.1c2.3,5.1,5.5,12,12.7,14.5c1.6,0.5,3.2,0.8,4.8,0.8c5.2,0,10.1-2.7,13.6-4.7c0.6-0.3,1.2-0.7,1.9-1.1 l0.1,0.1l-17,34l2.7,1.3l0,0l-2.8-1.3l-9.8-14.7c-1.7-2.6-4.6-4.2-7.7-4.2c-0.8,0-1.5,0.1-2.3,0.3l-17.8,4.4l-0.1-0.1l9.6-19.3 c1.1-2.2,1.3-4.7,0.5-7.1c-0.8-2.4-2.4-4.3-4.7-5.4c-1.3-0.7-2.7-1-4.1-1c-3.6,0-6.7,2-8.3,5.1L114.9,256c-1.6,3.2-1.2,7.2,1.1,10 c1.8,2.2,4.4,3.5,7.3,3.5c0.8,0,1.5-0.1,2.3-0.3l31.2-7.7l15.1,22.6c1.7,2.6,4.6,4.1,7.7,4.1c0.1,0,0.3,0,0.4,0h0.2 c3.3-0.2,6.3-2.2,7.7-5.1l8.9-17.7l-2.7-1.3l0,0l2.8,1.3l12.5,18.7c1.7,2.6,4.6,4.1,7.7,4.1s6-1.5,7.7-4.1l15.2-22.7l31.1,7.8 c3.4,0.9,7.3-0.4,9.5-3.2C282.7,263.1,283.2,259.2,281.5,255.9z M154.8,171.8c-1.5-4.8-5-8.2-8-11.2l-0.2-0.2 c-1-1-2.4-2.4-3.1-3.3c0.7-1,2-2.3,3.3-3.6c3-3,6.5-6.4,8-11.2c1.5-4.8,0.7-9.8-0.1-14.2c-0.3-1.6-0.6-3.3-0.7-4.4 c1.1-0.2,2.5-0.5,3.9-0.7c4.3-0.6,9.2-1.3,13.3-4.4c4-3.1,6.1-7.6,7.9-11.6c0.4-0.9,1.1-2.5,1.8-3.6c1,0.5,2.1,1.1,3.1,1.6 c3.7,2.1,8.3,4.7,13.5,4.7c5.3,0,10.1-2.7,13.5-4.7l0.3-0.2c0.8-0.5,1.9-1.1,2.7-1.5c0.6,1.1,1.3,2.6,1.8,3.7 c1.8,4,3.9,8.5,7.9,11.6c4.1,3.1,9,3.8,13.4,4.4c1.1,0.2,2.7,0.4,3.9,0.6c-0.1,1.2-0.4,2.9-0.6,4.3v0.2c-0.8,4.4-1.6,9.3-0.1,14.2 c1.5,4.8,4.9,8.2,8,11.3c0.9,0.9,2.5,2.5,3.3,3.5c-0.7,1-2.1,2.4-3.3,3.6c-3,3-6.5,6.4-8,11.2c-1.5,4.9-0.7,9.8,0.1,14.2v0.2 c0.2,1.4,0.5,3,0.6,4.2c-0.9,0.2-2.2,0.4-3.9,0.6c-4.3,0.6-9.2,1.3-13.3,4.4c-4,3-6.1,7.6-7.9,11.6l-0.1,0.2 c-0.5,1-1.1,2.4-1.6,3.4c-0.9-0.4-1.9-1-2.9-1.5l-0.2-0.1c-3.5-2-8.3-4.7-13.6-4.7c-5.3,0-9.9,2.6-13.6,4.7 c-1.1,0.6-2.1,1.2-3,1.7c-0.6-1.2-1.4-2.8-1.8-3.7c-1.8-4-3.9-8.5-7.9-11.6c-4.1-3.1-9-3.8-13.3-4.4c-0.6-0.1-2.6-0.3-3.9-0.6 c0.1-1.2,0.4-2.9,0.6-4.5C155.4,181.7,156.3,176.7,154.8,171.8z"/></g><g><path d="M197.5,193.3c20,0,36.3-16.3,36.3-36.3s-16.3-36.3-36.3-36.3S161.2,137,161.2,157S177.5,193.3,197.5,193.3z M179.4,157 c0-10,8.1-18.1,18.1-18.1s18.1,8.1,18.1,18.1s-8.1,18.1-18.1,18.1S179.4,167,179.4,157z"/></g></g><g><g><path d="M140,68.8H77.9c-5,0-9-4-9-9s4-9,9-9H140c5,0,9,4,9,9S145,68.8,140,68.8z"/></g></g><g><g><path d="M115.2,117.1H51c-5,0-9-4-9-9s4-9,9-9h64.2c5,0,9,4,9,9S120.2,117.1,115.2,117.1z"/></g></g><g><g><path d="M102.2,170.2H51c-5,0-9-4-9-9s4-9,9-9h51.2c5,0,9,4,9,9S107.2,170.2,102.2,170.2z"/></g></g><g><g><path d="M106.4,223.3H51c-5,0-9-4-9-9s4-9,9-9h55.4c5,0,9,4,9,9S111.4,223.3,106.4,223.3z"/></g></g><path d="M195.9,48.9V25.1H24.7v235.2h51.7c6.6,0,12,5.4,12,12v0c0,6.6-5.4,12-12,12H23.5c-12.6,0-22.8-10.2-22.8-22.8V23.9	c0-12.6,10.2-22.8,22.8-22.8h173.7c12.6,0,22.8,10.2,22.8,22.8v25c0,6.7-5.4,12-12,12h0C201.3,61,195.9,55.6,195.9,48.9z"/></svg>